<?xml version="1.0" encoding="UTF-8" standalone="no"?>
<svg
   xmlns:dc="http://purl.org/dc/elements/1.1/"
   xmlns:cc="http://creativecommons.org/ns#"
   xmlns:rdf="http://www.w3.org/1999/02/22-rdf-syntax-ns#"
   xmlns:svg="http://www.w3.org/2000/svg"
   xmlns="http://www.w3.org/2000/svg"
   xmlns:sodipodi="http://sodipodi.sourceforge.net/DTD/sodipodi-0.dtd"
   xmlns:inkscape="http://www.inkscape.org/namespaces/inkscape"
   version="1.1"
   id="svg2"
   xml:space="preserve"
   width="735.8374"
   height="239.59822"
   viewBox="0 0 735.83744 239.59821"
   sodipodi:docname="deriv2.svg"
   inkscape:version="1.0.2-2 (e86c870879, 2021-01-15)"><metadata
     id="metadata8"><rdf:RDF><cc:Work
         rdf:about=""><dc:format>image/svg+xml</dc:format><dc:type
           rdf:resource="http://purl.org/dc/dcmitype/StillImage" /><dc:title></dc:title></cc:Work></rdf:RDF></metadata><defs
     id="defs6" /><sodipodi:namedview
     pagecolor="#ffffff"
     bordercolor="#666666"
     borderopacity="1"
     objecttolerance="10"
     gridtolerance="10"
     guidetolerance="10"
     inkscape:pageopacity="0"
     inkscape:pageshadow="2"
     inkscape:window-width="1920"
     inkscape:window-height="1001"
     id="namedview4"
     showgrid="true"
     inkscape:zoom="1.6706549"
     inkscape:cx="355.76912"
     inkscape:cy="131.80877"
     inkscape:window-x="-9"
     inkscape:window-y="-9"
     inkscape:window-maximized="1"
     inkscape:current-layer="g10"
     inkscape:document-rotation="0"
     fit-margin-top="2"
     fit-margin-left="2"
     fit-margin-right="2"
     fit-margin-bottom="2"
     inkscape:snap-global="false"><inkscape:grid
       type="xygrid"
       id="grid4996"
       originx="-20.135676"
       originy="-546.43689" /></sodipodi:namedview><g
     id="g10"
     inkscape:groupmode="layer"
     inkscape:label="deriv2"
     transform="matrix(1.3333333,0,0,-1.3333333,-20.135674,576.08277)"><g
   id="g4949"
   transform="matrix(0.90815122,0,0,0.88119025,-96.306199,64.679954)"
   inkscape:export-xdpi="300"
   inkscape:export-ydpi="300"><path
     d="m 460.31028,299.58167 c 22.98047,-0.28711 17.31277,12.26452 17.2737,16.68786 m -18.16871,42.75111 c 17.88477,0 20.0359,-6.55726 19.74684,-24.89125 m -32.4567,62.43074 c 31.00195,7.32813 52.62182,-14.43336 58.39811,-37.26618 3.20785,-12.68017 -0.42774,-35.21582 -18.49805,-34.38038 m -74.22803,44.24463 c -0.8457,6.48243 0.30762,13.77295 5.07324,15.78321 m 12.73682,-93.80567 c -1.18164,-25.97656 -34.72486,-12.84728 -43.66357,-1.00488 -11.58283,15.34544 -13.32227,45.77002 15.14355,56.19824 m 19.2042,-23.57318 c 2.45361,-5.72559 8.23574,-4.79889 8.88418,-13.66754"
     style="fill:none;stroke:#000000;stroke-width:2;stroke-linecap:butt;stroke-linejoin:bevel;stroke-miterlimit:10;stroke-dasharray:none;stroke-opacity:1"
     id="path14"
     inkscape:connector-curvature="0"
     sodipodi:nodetypes="cccccaccccaccc" /><path
     d="m 404.69287,341.94385 c 0,0 -7.51953,12.74121 -7.51953,12.74121 0,0 7.45703,13.00879 7.45703,13.00879"
     style="fill:none;stroke:#000000;stroke-width:0.5;stroke-linecap:butt;stroke-linejoin:miter;stroke-miterlimit:4;stroke-dasharray:none;stroke-opacity:1"
     id="path16"
     inkscape:connector-curvature="0" /><path
     d="m 429.00586,353.63135 c 0,0 -7.2085,-12.72949 -7.2085,-12.72949 0,0 -14.60351,-0.2168 -14.60351,-0.2168"
     style="fill:none;stroke:#000000;stroke-width:0.5;stroke-linecap:butt;stroke-linejoin:miter;stroke-miterlimit:4;stroke-dasharray:none;stroke-opacity:1"
     id="path18"
     inkscape:connector-curvature="0" /><path
     d="m 407.19287,369.06885 c 0,0 14.22949,0.0498 14.22949,0.0498 0,0 7.5835,-12.6123 7.5835,-12.6123"
     style="fill:none;stroke:#000000;stroke-width:0.5;stroke-linecap:butt;stroke-linejoin:miter;stroke-miterlimit:4;stroke-dasharray:none;stroke-opacity:1"
     id="path20"
     inkscape:connector-curvature="0" /><path
     d="m 431.38086,355.13135 c 0,-0.8628 -0.75586,-1.5625 -1.6875,-1.5625 -0.93164,0 -1.6875,0.6997 -1.6875,1.5625 0,0.86279 0.75586,1.5625 1.6875,1.5625 0.93164,0 1.6875,-0.69971 1.6875,-1.5625 z"
     style="fill:none;stroke:#000000;stroke-width:0.5;stroke-linecap:butt;stroke-linejoin:miter;stroke-miterlimit:4;stroke-dasharray:none;stroke-opacity:1"
     id="path22"
     inkscape:connector-curvature="0" /><path
     d="m 423.63086,340.75635 c 0,-0.8628 -0.75586,-1.5625 -1.68799,-1.5625 -0.93164,0 -1.6875,0.6997 -1.6875,1.5625 0,0.86279 0.75586,1.5625 1.6875,1.5625 0.93213,0 1.68799,-0.69971 1.68799,-1.5625 z"
     style="fill:#000000;fill-opacity:1;fill-rule:nonzero;stroke:none"
     id="path24"
     inkscape:connector-curvature="0" /><path
     d="m 423.63086,340.75635 c 0,-0.8628 -0.75586,-1.5625 -1.68799,-1.5625 -0.93164,0 -1.6875,0.6997 -1.6875,1.5625 0,0.86279 0.75586,1.5625 1.6875,1.5625 0.93213,0 1.68799,-0.69971 1.68799,-1.5625 z"
     style="fill:none;stroke:#000000;stroke-width:0.5;stroke-linecap:butt;stroke-linejoin:miter;stroke-miterlimit:4;stroke-dasharray:none;stroke-opacity:1"
     id="path26"
     inkscape:connector-curvature="0" /><path
     d="m 407.19287,368.81885 c 0,-0.8628 -0.75586,-1.5625 -1.6875,-1.5625 -0.93164,0 -1.6875,0.6997 -1.6875,1.5625 0,0.86279 0.75586,1.5625 1.6875,1.5625 0.93164,0 1.6875,-0.69971 1.6875,-1.5625 z"
     style="fill:none;stroke:#000000;stroke-width:0.5;stroke-linecap:butt;stroke-linejoin:miter;stroke-miterlimit:4;stroke-dasharray:none;stroke-opacity:1"
     id="path28"
     inkscape:connector-curvature="0" /><path
     d="m 407.19385,340.68506 c 0,-0.86279 -0.75586,-1.5625 -1.6875,-1.5625 -0.93164,0 -1.6875,0.69971 -1.6875,1.5625 0,0.86279 0.75586,1.5625 1.6875,1.5625 0.93164,0 1.6875,-0.69971 1.6875,-1.5625 z"
     style="fill:none;stroke:#000000;stroke-width:0.5;stroke-linecap:butt;stroke-linejoin:miter;stroke-miterlimit:4;stroke-dasharray:none;stroke-opacity:1"
     id="path30"
     inkscape:connector-curvature="0" /><path
     d="m 399.00537,354.63135 c 0,-0.8628 -0.75586,-1.5625 -1.6875,-1.5625 -0.93164,0 -1.6875,0.6997 -1.6875,1.5625 0,0.86279 0.75586,1.5625 1.6875,1.5625 0.93164,0 1.6875,-0.69971 1.6875,-1.5625 z"
     style="fill:#000000;fill-opacity:1;fill-rule:nonzero;stroke:none"
     id="path32"
     inkscape:connector-curvature="0" /><path
     d="m 399.00537,354.63135 c 0,-0.8628 -0.75586,-1.5625 -1.6875,-1.5625 -0.93164,0 -1.6875,0.6997 -1.6875,1.5625 0,0.86279 0.75586,1.5625 1.6875,1.5625 0.93164,0 1.6875,-0.69971 1.6875,-1.5625 z"
     style="fill:none;stroke:#000000;stroke-width:0.5;stroke-linecap:butt;stroke-linejoin:miter;stroke-miterlimit:4;stroke-dasharray:none;stroke-opacity:1"
     id="path34"
     inkscape:connector-curvature="0" /><path
     d="m 423.13086,369.25635 c 0,-0.8628 -0.75586,-1.5625 -1.68799,-1.5625 -0.93164,0 -1.6875,0.6997 -1.6875,1.5625 0,0.86279 0.75586,1.5625 1.6875,1.5625 0.93213,0 1.68799,-0.69971 1.68799,-1.5625 z"
     style="fill:#000000;fill-opacity:1;fill-rule:nonzero;stroke:none"
     id="path36"
     inkscape:connector-curvature="0" /><path
     d="m 423.13086,369.25635 c 0,-0.8628 -0.75586,-1.5625 -1.68799,-1.5625 -0.93164,0 -1.6875,0.6997 -1.6875,1.5625 0,0.86279 0.75586,1.5625 1.6875,1.5625 0.93213,0 1.68799,-0.69971 1.68799,-1.5625 z"
     style="fill:none;stroke:#000000;stroke-width:0.5;stroke-linecap:butt;stroke-linejoin:miter;stroke-miterlimit:4;stroke-dasharray:none;stroke-opacity:1"
     id="path38"
     inkscape:connector-curvature="0" /><path
     d="m 470.63086,333.81885 c 0,0 15.61523,0.0117 15.61523,0.0117 0,0 0.0723,-15.63672 0.0723,-15.63672"
     style="fill:none;stroke:#000000;stroke-width:0.5;stroke-linecap:butt;stroke-linejoin:miter;stroke-miterlimit:4;stroke-dasharray:none;stroke-opacity:1"
     id="path40"
     inkscape:connector-curvature="0" /><path
     d="m 484.88086,316.38135 c 0,0 -16.07617,0.008 -16.07617,0.008 0,0 0.0547,16.05469 0.0547,16.05469"
     style="fill:none;stroke:#000000;stroke-width:0.5;stroke-linecap:butt;stroke-linejoin:miter;stroke-miterlimit:4;stroke-dasharray:none;stroke-opacity:1"
     id="path42"
     inkscape:connector-curvature="0" /><path
     d="m 470.54688,334.00635 c 0,-0.8628 -0.75586,-1.5625 -1.6875,-1.5625 -0.93165,0 -1.6875,0.6997 -1.6875,1.5625 0,0.86279 0.75585,1.5625 1.6875,1.5625 0.93164,0 1.6875,-0.69971 1.6875,-1.5625 z"
     style="fill:none;stroke:#000000;stroke-width:0.5;stroke-linecap:butt;stroke-linejoin:miter;stroke-miterlimit:4;stroke-dasharray:none;stroke-opacity:1"
     id="path44"
     inkscape:connector-curvature="0" /><path
     d="m 487.93359,333.83057 c 0,-0.8628 -0.75586,-1.5625 -1.6875,-1.5625 -0.93164,0 -1.6875,0.6997 -1.6875,1.5625 0,0.86279 0.75586,1.5625 1.6875,1.5625 0.93164,0 1.6875,-0.69971 1.6875,-1.5625 z"
     style="fill:#000000;fill-opacity:1;fill-rule:nonzero;stroke:none"
     id="path46"
     inkscape:connector-curvature="0" /><path
     d="m 487.93359,333.83057 c 0,-0.8628 -0.75586,-1.5625 -1.6875,-1.5625 -0.93164,0 -1.6875,0.6997 -1.6875,1.5625 0,0.86279 0.75586,1.5625 1.6875,1.5625 0.93164,0 1.6875,-0.69971 1.6875,-1.5625 z"
     style="fill:none;stroke:#000000;stroke-width:0.5;stroke-linecap:butt;stroke-linejoin:miter;stroke-miterlimit:4;stroke-dasharray:none;stroke-opacity:1"
     id="path48"
     inkscape:connector-curvature="0" /><path
     d="m 470.49219,316.38916 c 0,-0.86328 -0.75586,-1.5625 -1.6875,-1.5625 -0.93164,0 -1.6875,0.69922 -1.6875,1.5625 0,0.86328 0.75586,1.5625 1.6875,1.5625 0.93164,0 1.6875,-0.69922 1.6875,-1.5625 z"
     style="fill:#000000;fill-opacity:1;fill-rule:nonzero;stroke:none"
     id="path50"
     inkscape:connector-curvature="0" /><path
     d="m 470.49219,316.38916 c 0,-0.86328 -0.75586,-1.5625 -1.6875,-1.5625 -0.93164,0 -1.6875,0.69922 -1.6875,1.5625 0,0.86328 0.75586,1.5625 1.6875,1.5625 0.93164,0 1.6875,-0.69922 1.6875,-1.5625 z"
     style="fill:none;stroke:#000000;stroke-width:0.5;stroke-linecap:butt;stroke-linejoin:miter;stroke-miterlimit:4;stroke-dasharray:none;stroke-opacity:1"
     id="path52"
     inkscape:connector-curvature="0" /><path
     d="m 488.17188,316.56885 c 0,-0.86328 -0.75586,-1.5625 -1.6875,-1.5625 -0.93165,0 -1.6875,0.69922 -1.6875,1.5625 0,0.86328 0.75585,1.5625 1.6875,1.5625 0.93164,0 1.6875,-0.69922 1.6875,-1.5625 z"
     style="fill:none;stroke:#000000;stroke-width:0.5;stroke-linecap:butt;stroke-linejoin:miter;stroke-miterlimit:4;stroke-dasharray:none;stroke-opacity:1"
     id="path54"
     inkscape:connector-curvature="0" /><path
     d="m 421.32861,293.36328 c 0,0 -0.0117,15.61572 -0.0117,15.61572 0,0 15.63624,0.0713 15.63624,0.0713"
     style="fill:none;stroke:#000000;stroke-width:0.5;stroke-linecap:butt;stroke-linejoin:miter;stroke-miterlimit:4;stroke-dasharray:none;stroke-opacity:1"
     id="path56"
     inkscape:connector-curvature="0" /><path
     d="m 438.76563,307.61279 c 0,0 -0.008,-16.0747 -0.008,-16.0747 0,0 -16.05468,0.0547 -16.05468,0.0547"
     style="fill:none;stroke:#000000;stroke-width:0.5;stroke-linecap:butt;stroke-linejoin:miter;stroke-miterlimit:4;stroke-dasharray:none;stroke-opacity:1"
     id="path58"
     inkscape:connector-curvature="0" /><path
     d="m 421.14111,293.28027 c 0.8628,0 1.56202,-0.75586 1.56202,-1.6875 0,-0.93164 -0.69922,-1.6875 -1.56202,-1.6875 -0.8623,0 -1.5625,0.75586 -1.5625,1.6875 0,0.93164 0.7002,1.6875 1.5625,1.6875 z"
     style="fill:none;stroke:#000000;stroke-width:0.5;stroke-linecap:butt;stroke-linejoin:miter;stroke-miterlimit:4;stroke-dasharray:none;stroke-opacity:1"
     id="path60"
     inkscape:connector-curvature="0" /><path
     d="m 421.31689,310.6665 c 0.8628,0 1.56202,-0.75586 1.56202,-1.6875 0,-0.93164 -0.69922,-1.6875 -1.56202,-1.6875 -0.8623,0 -1.5625,0.75586 -1.5625,1.6875 0,0.93164 0.7002,1.6875 1.5625,1.6875 z"
     style="fill:#000000;fill-opacity:1;fill-rule:nonzero;stroke:none"
     id="path62"
     inkscape:connector-curvature="0" /><path
     d="m 421.31689,310.6665 c 0.8628,0 1.56202,-0.75586 1.56202,-1.6875 0,-0.93164 -0.69922,-1.6875 -1.56202,-1.6875 -0.8623,0 -1.5625,0.75586 -1.5625,1.6875 0,0.93164 0.7002,1.6875 1.5625,1.6875 z"
     style="fill:none;stroke:#000000;stroke-width:0.5;stroke-linecap:butt;stroke-linejoin:miter;stroke-miterlimit:4;stroke-dasharray:none;stroke-opacity:1"
     id="path64"
     inkscape:connector-curvature="0" /><path
     d="m 438.75781,293.22559 c 0.86328,0 1.5625,-0.75586 1.5625,-1.6875 0,-0.93164 -0.69922,-1.6875 -1.5625,-1.6875 -0.86328,0 -1.5625,0.75586 -1.5625,1.6875 0,0.93164 0.69922,1.6875 1.5625,1.6875 z"
     style="fill:#000000;fill-opacity:1;fill-rule:nonzero;stroke:none"
     id="path66"
     inkscape:connector-curvature="0" /><path
     d="m 438.75781,293.22559 c 0.86328,0 1.5625,-0.75586 1.5625,-1.6875 0,-0.93164 -0.69922,-1.6875 -1.5625,-1.6875 -0.86328,0 -1.5625,0.75586 -1.5625,1.6875 0,0.93164 0.69922,1.6875 1.5625,1.6875 z"
     style="fill:none;stroke:#000000;stroke-width:0.5;stroke-linecap:butt;stroke-linejoin:miter;stroke-miterlimit:4;stroke-dasharray:none;stroke-opacity:1"
     id="path68"
     inkscape:connector-curvature="0" /><path
     d="m 438.57813,310.90479 c 0.86328,0 1.5625,-0.75586 1.5625,-1.6875 0,-0.93165 -0.69922,-1.6875 -1.5625,-1.6875 -0.86329,0 -1.5625,0.75585 -1.5625,1.6875 0,0.93164 0.69921,1.6875 1.5625,1.6875 z"
     style="fill:none;stroke:#000000;stroke-width:0.5;stroke-linecap:butt;stroke-linejoin:miter;stroke-miterlimit:4;stroke-dasharray:none;stroke-opacity:1"
     id="path70"
     inkscape:connector-curvature="0" /><path
     d="m 438.80469,299.89648 c 2.72851,-0.14404 11.82652,-0.31703 15.848,-0.60413"
     style="fill:none;stroke:#000000;stroke-width:2;stroke-linecap:butt;stroke-linejoin:bevel;stroke-miterlimit:10;stroke-dasharray:none;stroke-opacity:1"
     id="path72"
     inkscape:connector-curvature="0"
     sodipodi:nodetypes="cc" /><path
     d="m 426.1875,348.58398 c 5.63672,-2.25488 12.2168,10.48487 25.75195,10.48487"
     style="fill:none;stroke:#000000;stroke-width:2;stroke-linecap:butt;stroke-linejoin:bevel;stroke-miterlimit:10;stroke-dasharray:none;stroke-opacity:1"
     id="path74"
     inkscape:connector-curvature="0" /><path
     d="m 423.98376,388.62859 c 4.86934,2.87325 8.21816,3.51523 15.6929,6.16212"
     style="fill:none;stroke:#000000;stroke-width:2;stroke-linecap:butt;stroke-linejoin:bevel;stroke-miterlimit:10;stroke-dasharray:none;stroke-opacity:1"
     id="path76"
     inkscape:connector-curvature="0"
     sodipodi:nodetypes="cc" /><path
     d="m 412.65967,341.25586 c 0,-4.50928 2.79537,-8.89382 5.51826,-13.84183"
     style="fill:none;stroke:#000000;stroke-width:2;stroke-linecap:butt;stroke-linejoin:bevel;stroke-miterlimit:10;stroke-dasharray:none;stroke-opacity:1"
     id="path78"
     inkscape:connector-curvature="0"
     sodipodi:nodetypes="cc" /><path
     d="m 379.51904,390.17139 c -3.15136,14.18213 15.75782,18.90966 30.99024,20.48535 13.44775,1.39111 29.90088,-3.81397 38.32861,-26.4375 6.2207,-16.69385 15.18555,-35.78467 -3.59961,-47.13574 -10.10156,-6.10401 -31.88232,-12.88819 -36.98877,-21.27637 -4.58301,-7.52881 -1.02344,-16.23633 12.74512,-16.62891"
     style="fill:none;stroke:#000000;stroke-width:1;stroke-linecap:butt;stroke-linejoin:bevel;stroke-miterlimit:10;stroke-dasharray:none;stroke-opacity:1"
     id="path80"
     inkscape:connector-curvature="0" /><path
     d="m 425.30664,363.56445 c 7.26367,6.64698 0.083,21.12138 -7.43018,25.37891 -17.52618,9.9317 -44.93059,-0.8449 -57.79199,-16.63086 -18.33278,-22.50149 -21.6729,-61.71308 -8.40429,-87.71875 9.49289,-18.60549 33.26079,-28.59372 53.57666,-30.46484 16.38363,-1.50895 35.19811,4.21406 46.74902,16.2832 12.4104,12.9672 -3.15234,51.47461 16.2832,52"
     style="fill:none;stroke:#ff1a00;stroke-width:1;stroke-linecap:butt;stroke-linejoin:bevel;stroke-miterlimit:10;stroke-dasharray:none;stroke-opacity:1"
     id="path82"
     inkscape:connector-curvature="0"
     sodipodi:nodetypes="caaaaac" /><path
     d="m 380.99248,384.56287 c 4.8502,-14.89127 14.68184,-20.61512 19.54805,-23.57801"
     style="fill:none;stroke:#000000;stroke-width:1;stroke-linecap:butt;stroke-linejoin:bevel;stroke-miterlimit:10;stroke-dasharray:none;stroke-opacity:1"
     id="path84"
     inkscape:connector-curvature="0"
     sodipodi:nodetypes="cc" /></g><g
   id="g4911"
   transform="matrix(0.90815122,0,0,0.88119025,-59.637882,58.870218)"
   inkscape:export-xdpi="300"
   inkscape:export-ydpi="300"><path
     d="m 203.83203,302.82031 c 17.5,-2.16699 19.62207,10.75049 19,19.66651 m -37.83301,-19 11.167,-0.66651 m -24.83399,48.99951 c 25.5,-11.833 48.66699,17.50049 51,-11.333 m -45,52.6665 c 28.83301,19.8335 55.13379,5.06299 68.83399,-19 20.26464,-35.59277 -2.33399,-44.1665 -15,-43.33301 m -73.83399,41.5 c 0.33399,6.5 9.23535,15.48975 14,17.5 m 4,-94.66699 c -1.16601,-25.33301 -37.14589,-20.73819 -34.71718,6.10751 m 18.71718,42.89249 c -1.16601,-12.8335 16.33399,-12.83301 16,-31.33301"
     style="fill:none;stroke:#000000;stroke-width:2;stroke-linecap:butt;stroke-linejoin:bevel;stroke-miterlimit:10;stroke-dasharray:none;stroke-opacity:1"
     id="path86"
     inkscape:connector-curvature="0"
     sodipodi:nodetypes="cccccccsccccccc" /><path
     d="m 165.08301,344.07666 c 0,0 -14.79395,-0.1416 -14.79395,-0.1416 0,0 -7.53808,12.9624 -7.53808,12.9624"
     style="fill:none;stroke:#000000;stroke-width:0.5;stroke-linecap:butt;stroke-linejoin:miter;stroke-miterlimit:4;stroke-dasharray:none;stroke-opacity:1"
     id="path88"
     inkscape:connector-curvature="0" /><path
     d="m 167.11719,370.97559 c 0,0 7.41992,-12.60743 7.41992,-12.60743 0,0 -7.11328,-12.75537 -7.11328,-12.75537"
     style="fill:none;stroke:#000000;stroke-width:0.5;stroke-linecap:butt;stroke-linejoin:miter;stroke-miterlimit:4;stroke-dasharray:none;stroke-opacity:1"
     id="path90"
     inkscape:connector-curvature="0" /><path
     d="m 142.8418,359.8042 c 0,0 7.07129,12.34766 7.07129,12.34766 0,0 14.71484,0.26123 14.71484,0.26123"
     style="fill:none;stroke:#000000;stroke-width:0.5;stroke-linecap:butt;stroke-linejoin:miter;stroke-miterlimit:4;stroke-dasharray:none;stroke-opacity:1"
     id="path92"
     inkscape:connector-curvature="0" /><path
     d="m 167.00586,373.78223 c 0.74707,-0.43116 0.97559,-1.43604 0.50977,-2.24268 -0.46583,-0.80664 -1.4502,-1.11133 -2.19727,-0.68017 -0.74707,0.43164 -0.97559,1.43603 -0.50977,2.24267 0.46582,0.80664 1.4502,1.11182 2.19727,0.68018 z"
     style="fill:none;stroke:#000000;stroke-width:0.5;stroke-linecap:butt;stroke-linejoin:miter;stroke-miterlimit:4;stroke-dasharray:none;stroke-opacity:1"
     id="path94"
     inkscape:connector-curvature="0" /><path
     d="m 175.58008,359.88281 c 0.74707,-0.43115 0.97461,-1.43554 0.50879,-2.24218 -0.46582,-0.80713 -1.44922,-1.11182 -2.19629,-0.68018 -0.74707,0.43115 -0.97559,1.43555 -0.50977,2.24268 0.46582,0.80664 1.4502,1.11132 2.19727,0.67968 z"
     style="fill:#000000;fill-opacity:1;fill-rule:nonzero;stroke:none"
     id="path96"
     inkscape:connector-curvature="0" /><path
     d="m 175.58008,359.88281 c 0.74707,-0.43115 0.97461,-1.43554 0.50879,-2.24218 -0.46582,-0.80713 -1.44922,-1.11182 -2.19629,-0.68018 -0.74707,0.43115 -0.97559,1.43555 -0.50977,2.24268 0.46582,0.80664 1.4502,1.11132 2.19727,0.67968 z"
     style="fill:none;stroke:#000000;stroke-width:0.5;stroke-linecap:butt;stroke-linejoin:miter;stroke-miterlimit:4;stroke-dasharray:none;stroke-opacity:1"
     id="path98"
     inkscape:connector-curvature="0" /><path
     d="m 143.05859,359.6792 c 0.74707,-0.43164 0.97461,-1.43604 0.50879,-2.24268 -0.46582,-0.80713 -1.44922,-1.11181 -2.19629,-0.68017 -0.74707,0.43115 -0.97558,1.43554 -0.50976,2.24267 0.46582,0.80664 1.45019,1.11133 2.19726,0.68018 z"
     style="fill:none;stroke:#000000;stroke-width:0.5;stroke-linecap:butt;stroke-linejoin:miter;stroke-miterlimit:4;stroke-dasharray:none;stroke-opacity:1"
     id="path100"
     inkscape:connector-curvature="0" /><path
     d="m 167.42383,345.61279 c 0.74707,-0.43115 0.97461,-1.43554 0.50879,-2.24267 -0.46582,-0.80664 -1.44922,-1.11133 -2.19629,-0.68018 -0.74805,0.43164 -0.97559,1.43604 -0.50977,2.24268 0.46582,0.80713 1.44922,1.11181 2.19727,0.68017 z"
     style="fill:none;stroke:#000000;stroke-width:0.5;stroke-linecap:butt;stroke-linejoin:miter;stroke-miterlimit:4;stroke-dasharray:none;stroke-opacity:1"
     id="path102"
     inkscape:connector-curvature="0" /><path
     d="m 151.25098,345.49463 c 0.74707,-0.43115 0.97558,-1.43604 0.50976,-2.24268 -0.46582,-0.80664 -1.45019,-1.11132 -2.19726,-0.68017 -0.74707,0.43164 -0.97461,1.43603 -0.50879,2.24267 0.46582,0.80664 1.44922,1.11182 2.19629,0.68018 z"
     style="fill:#000000;fill-opacity:1;fill-rule:nonzero;stroke:none"
     id="path104"
     inkscape:connector-curvature="0" /><path
     d="m 151.25098,345.49463 c 0.74707,-0.43115 0.97558,-1.43604 0.50976,-2.24268 -0.46582,-0.80664 -1.45019,-1.11132 -2.19726,-0.68017 -0.74707,0.43164 -0.97461,1.43603 -0.50879,2.24267 0.46582,0.80664 1.44922,1.11182 2.19629,0.68018 z"
     style="fill:none;stroke:#000000;stroke-width:0.5;stroke-linecap:butt;stroke-linejoin:miter;stroke-miterlimit:4;stroke-dasharray:none;stroke-opacity:1"
     id="path106"
     inkscape:connector-curvature="0" /><path
     d="m 150.64844,373.7002 c 0.74707,-0.43165 0.97461,-1.43604 0.50879,-2.24268 -0.46582,-0.80713 -1.44922,-1.11182 -2.19629,-0.68018 -0.74707,0.43116 -0.97559,1.43555 -0.50977,2.24268 0.46582,0.80664 1.4502,1.11133 2.19727,0.68018 z"
     style="fill:#000000;fill-opacity:1;fill-rule:nonzero;stroke:none"
     id="path108"
     inkscape:connector-curvature="0" /><path
     d="m 150.64844,373.7002 c 0.74707,-0.43165 0.97461,-1.43604 0.50879,-2.24268 -0.46582,-0.80713 -1.44922,-1.11182 -2.19629,-0.68018 -0.74707,0.43116 -0.97559,1.43555 -0.50977,2.24268 0.46582,0.80664 1.4502,1.11133 2.19727,0.68018 z"
     style="fill:none;stroke:#000000;stroke-width:0.5;stroke-linecap:butt;stroke-linejoin:miter;stroke-miterlimit:4;stroke-dasharray:none;stroke-opacity:1"
     id="path110"
     inkscape:connector-curvature="0" /><path
     d="m 215.33203,340.23682 c 0,0 15.61621,0.0117 15.61621,0.0117 0,0 0.0713,-15.63672 0.0713,-15.63672"
     style="fill:none;stroke:#000000;stroke-width:0.5;stroke-linecap:butt;stroke-linejoin:miter;stroke-miterlimit:4;stroke-dasharray:none;stroke-opacity:1"
     id="path112"
     inkscape:connector-curvature="0" /><path
     d="m 229.58203,322.79932 c 0,0 -16.07519,0.008 -16.07519,0.008 0,0 0.0547,16.05469 0.0547,16.05469"
     style="fill:none;stroke:#000000;stroke-width:0.5;stroke-linecap:butt;stroke-linejoin:miter;stroke-miterlimit:4;stroke-dasharray:none;stroke-opacity:1"
     id="path114"
     inkscape:connector-curvature="0" /><path
     d="m 215.24902,340.42432 c 0,-0.8628 -0.75586,-1.5625 -1.6875,-1.5625 -0.93164,0 -1.6875,0.6997 -1.6875,1.5625 0,0.86279 0.75586,1.5625 1.6875,1.5625 0.93164,0 1.6875,-0.69971 1.6875,-1.5625 z"
     style="fill:none;stroke:#000000;stroke-width:0.5;stroke-linecap:butt;stroke-linejoin:miter;stroke-miterlimit:4;stroke-dasharray:none;stroke-opacity:1"
     id="path116"
     inkscape:connector-curvature="0" /><path
     d="m 232.63574,340.24854 c 0,-0.8628 -0.75586,-1.5625 -1.6875,-1.5625 -0.93164,0 -1.6875,0.6997 -1.6875,1.5625 0,0.86279 0.75586,1.5625 1.6875,1.5625 0.93164,0 1.6875,-0.69971 1.6875,-1.5625 z"
     style="fill:#000000;fill-opacity:1;fill-rule:nonzero;stroke:none"
     id="path118"
     inkscape:connector-curvature="0" /><path
     d="m 232.63574,340.24854 c 0,-0.8628 -0.75586,-1.5625 -1.6875,-1.5625 -0.93164,0 -1.6875,0.6997 -1.6875,1.5625 0,0.86279 0.75586,1.5625 1.6875,1.5625 0.93164,0 1.6875,-0.69971 1.6875,-1.5625 z"
     style="fill:none;stroke:#000000;stroke-width:0.5;stroke-linecap:butt;stroke-linejoin:miter;stroke-miterlimit:4;stroke-dasharray:none;stroke-opacity:1"
     id="path120"
     inkscape:connector-curvature="0" /><path
     d="m 215.19434,322.80713 c 0,-0.86328 -0.75586,-1.5625 -1.6875,-1.5625 -0.93164,0 -1.6875,0.69922 -1.6875,1.5625 0,0.86328 0.75586,1.5625 1.6875,1.5625 0.93164,0 1.6875,-0.69922 1.6875,-1.5625 z"
     style="fill:#000000;fill-opacity:1;fill-rule:nonzero;stroke:none"
     id="path122"
     inkscape:connector-curvature="0" /><path
     d="m 215.19434,322.80713 c 0,-0.86328 -0.75586,-1.5625 -1.6875,-1.5625 -0.93164,0 -1.6875,0.69922 -1.6875,1.5625 0,0.86328 0.75586,1.5625 1.6875,1.5625 0.93164,0 1.6875,-0.69922 1.6875,-1.5625 z"
     style="fill:none;stroke:#000000;stroke-width:0.5;stroke-linecap:butt;stroke-linejoin:miter;stroke-miterlimit:4;stroke-dasharray:none;stroke-opacity:1"
     id="path124"
     inkscape:connector-curvature="0" /><path
     d="m 232.87402,322.98682 c 0,-0.86328 -0.75586,-1.5625 -1.6875,-1.5625 -0.93164,0 -1.6875,0.69922 -1.6875,1.5625 0,0.86328 0.75586,1.5625 1.6875,1.5625 0.93164,0 1.6875,-0.69922 1.6875,-1.5625 z"
     style="fill:none;stroke:#000000;stroke-width:0.5;stroke-linecap:butt;stroke-linejoin:miter;stroke-miterlimit:4;stroke-dasharray:none;stroke-opacity:1"
     id="path126"
     inkscape:connector-curvature="0" /><path
     d="m 167.22559,297.10107 c 0,0 -0.0117,15.61622 -0.0117,15.61622 0,0 15.63672,0.0713 15.63672,0.0713"
     style="fill:none;stroke:#000000;stroke-width:0.5;stroke-linecap:butt;stroke-linejoin:miter;stroke-miterlimit:4;stroke-dasharray:none;stroke-opacity:1"
     id="path128"
     inkscape:connector-curvature="0" /><path
     d="m 184.66309,311.35107 c 0,0 -0.008,-16.0747 -0.008,-16.0747 0,0 -16.05468,0.0547 -16.05468,0.0547"
     style="fill:none;stroke:#000000;stroke-width:0.5;stroke-linecap:butt;stroke-linejoin:miter;stroke-miterlimit:4;stroke-dasharray:none;stroke-opacity:1"
     id="path130"
     inkscape:connector-curvature="0" /><path
     d="m 167.03809,297.01807 c 0.8623,0 1.5625,-0.75537 1.5625,-1.68702 0,-0.93164 -0.7002,-1.6875 -1.5625,-1.6875 -0.86329,0 -1.5625,0.75586 -1.5625,1.6875 0,0.93165 0.69921,1.68702 1.5625,1.68702 z"
     style="fill:none;stroke:#000000;stroke-width:0.5;stroke-linecap:butt;stroke-linejoin:miter;stroke-miterlimit:4;stroke-dasharray:none;stroke-opacity:1"
     id="path132"
     inkscape:connector-curvature="0" /><path
     d="m 167.21387,314.40479 c 0.8623,0 1.5625,-0.75586 1.5625,-1.6875 0,-0.93165 -0.7002,-1.6875 -1.5625,-1.6875 -0.86328,0 -1.5625,0.75585 -1.5625,1.6875 0,0.93164 0.69922,1.6875 1.5625,1.6875 z"
     style="fill:#000000;fill-opacity:1;fill-rule:nonzero;stroke:none"
     id="path134"
     inkscape:connector-curvature="0" /><path
     d="m 167.21387,314.40479 c 0.8623,0 1.5625,-0.75586 1.5625,-1.6875 0,-0.93165 -0.7002,-1.6875 -1.5625,-1.6875 -0.86328,0 -1.5625,0.75585 -1.5625,1.6875 0,0.93164 0.69922,1.6875 1.5625,1.6875 z"
     style="fill:none;stroke:#000000;stroke-width:0.5;stroke-linecap:butt;stroke-linejoin:miter;stroke-miterlimit:4;stroke-dasharray:none;stroke-opacity:1"
     id="path136"
     inkscape:connector-curvature="0" /><path
     d="m 184.65527,296.96338 c 0.86328,0 1.5625,-0.75537 1.5625,-1.68701 0,-0.93164 -0.69922,-1.6875 -1.5625,-1.6875 -0.86328,0 -1.5625,0.75586 -1.5625,1.6875 0,0.93164 0.69922,1.68701 1.5625,1.68701 z"
     style="fill:#000000;fill-opacity:1;fill-rule:nonzero;stroke:none"
     id="path138"
     inkscape:connector-curvature="0" /><path
     d="m 184.65527,296.96338 c 0.86328,0 1.5625,-0.75537 1.5625,-1.68701 0,-0.93164 -0.69922,-1.6875 -1.5625,-1.6875 -0.86328,0 -1.5625,0.75586 -1.5625,1.6875 0,0.93164 0.69922,1.68701 1.5625,1.68701 z"
     style="fill:none;stroke:#000000;stroke-width:0.5;stroke-linecap:butt;stroke-linejoin:miter;stroke-miterlimit:4;stroke-dasharray:none;stroke-opacity:1"
     id="path140"
     inkscape:connector-curvature="0" /><path
     d="m 184.47559,314.64307 c 0.86328,0 1.5625,-0.75586 1.5625,-1.6875 0,-0.93164 -0.69922,-1.6875 -1.5625,-1.6875 -0.86329,0 -1.5625,0.75586 -1.5625,1.6875 0,0.93164 0.69921,1.6875 1.5625,1.6875 z"
     style="fill:none;stroke:#000000;stroke-width:0.5;stroke-linecap:butt;stroke-linejoin:miter;stroke-miterlimit:4;stroke-dasharray:none;stroke-opacity:1"
     id="path142"
     inkscape:connector-curvature="0" /><path
     d="m 140.67058,308.88742 c 1.16601,11.5 -9.17156,33.2659 5.49446,41.0994"
     style="fill:none;stroke:#000000;stroke-width:2;stroke-linecap:butt;stroke-linejoin:bevel;stroke-miterlimit:10;stroke-dasharray:none;stroke-opacity:1"
     id="path144"
     inkscape:connector-curvature="0"
     sodipodi:nodetypes="cc" /><path
     d="m 111.66504,359.65332 c 6,0 23.83301,9.3335 34,5.8335"
     style="fill:none;stroke:#000000;stroke-width:1;stroke-linecap:butt;stroke-linejoin:bevel;stroke-miterlimit:10;stroke-dasharray:none;stroke-opacity:1"
     id="path146"
     inkscape:connector-curvature="0" /><path
     d="m 103.18555,358.14648 c -5.85547,-2.73242 -23.41992,-11.31933 -17.56543,-28.88476 5.85547,-17.56543 9.36816,-24.20117 80.40918,-24.59131"
     style="fill:none;stroke:#000000;stroke-width:1;stroke-linecap:butt;stroke-linejoin:bevel;stroke-miterlimit:10;stroke-dasharray:none;stroke-opacity:1"
     id="path148"
     inkscape:connector-curvature="0" /><path
     sodipodi:nodetypes="csac"
     d="m 213.16602,331.32031 c -16.60594,0.68551 -13.1503,-19.24122 -13.27764,-29.82573 -0.20741,-17.23916 -20.10381,-39.69325 -38.51826,-40.99946 -22.75108,-1.61382 -54.10089,23.63895 -53.87464,43.45765"
     style="fill:none;stroke:#ff1a00;stroke-width:0.99975;stroke-linecap:butt;stroke-linejoin:bevel;stroke-miterlimit:10;stroke-dasharray:none;stroke-opacity:1"
     id="path150"
     inkscape:connector-curvature="0" /><path
     d="m 170.83203,365.65332 c 10.46973,7.91797 5.67997,33.67924 -5.94263,36.21992 -33.95299,7.42208 -60.43551,16.01538 -57.5437,-89.43506"
     style="fill:none;stroke:#ff1a00;stroke-width:1;stroke-linecap:butt;stroke-linejoin:bevel;stroke-miterlimit:10;stroke-dasharray:none;stroke-opacity:1"
     id="path152"
     inkscape:connector-curvature="0"
     sodipodi:nodetypes="cac" /></g><g
   id="g4986"
   transform="matrix(0.90815122,0,0,0.88119025,-126.48128,65.504069)"
   inkscape:export-xdpi="300"
   inkscape:export-ydpi="300"><path
     d="m 675.35352,283.55176 c 24.87695,-0.6543 52.03128,-4.55577 51.18545,23.40807 m -21.66095,61.69016 c 19.50439,-0.13708 21.53897,-8.12558 21.53897,-43.85507 m -33.07024,71.7313 c 39.15234,3.8667 53.52464,-8.44794 61.64979,-30.37868 6.31136,-17.0351 12.6198,-51.13984 -20.44075,-50.48505 m -98.48255,53.97667 c -0.65429,25.85938 21.85352,22.65039 46.02149,26.03418 m -15.5791,-120.63232 c 1.63671,-26.18653 -45.3782,-19.29656 -58.26563,-4.25489 -16.78515,19.59092 -18.88638,59.16075 14.73047,76.92188 m 28.32217,-34.78356 c 1.44824,-6.5044 14.23056,-8.7516 14.23056,-19.55238"
     style="fill:none;stroke:#000000;stroke-width:2;stroke-linecap:butt;stroke-linejoin:bevel;stroke-miterlimit:10;stroke-dasharray:none;stroke-opacity:1"
     id="path154"
     inkscape:connector-curvature="0"
     sodipodi:nodetypes="cccccaccccaccc" /><path
     d="m 642.42871,341.38135 c 0,0 -14.79394,-0.1416 -14.79394,-0.1416 0,0 -7.53711,12.9624 -7.53711,12.9624"
     style="fill:none;stroke:#000000;stroke-width:0.5;stroke-linecap:butt;stroke-linejoin:miter;stroke-miterlimit:4;stroke-dasharray:none;stroke-opacity:1"
     id="path156"
     inkscape:connector-curvature="0" /><path
     d="m 644.46387,368.28027 c 0,0 7.41992,-12.60693 7.41992,-12.60693 0,0 -7.11426,-12.75537 -7.11426,-12.75537"
     style="fill:none;stroke:#000000;stroke-width:0.5;stroke-linecap:butt;stroke-linejoin:miter;stroke-miterlimit:4;stroke-dasharray:none;stroke-opacity:1"
     id="path158"
     inkscape:connector-curvature="0" /><path
     d="m 620.18848,357.10889 c 0,0 7.07129,12.34814 7.07129,12.34814 0,0 14.71386,0.26074 14.71386,0.26074"
     style="fill:none;stroke:#000000;stroke-width:0.5;stroke-linecap:butt;stroke-linejoin:miter;stroke-miterlimit:4;stroke-dasharray:none;stroke-opacity:1"
     id="path160"
     inkscape:connector-curvature="0" /><path
     d="m 644.35254,371.0874 c 0.74707,-0.43164 0.97461,-1.43603 0.50879,-2.24267 -0.46582,-0.80713 -1.44922,-1.11182 -2.19629,-0.68018 -0.74805,0.43115 -0.97559,1.43555 -0.50977,2.24268 0.46582,0.80664 1.44922,1.11132 2.19727,0.68017 z"
     style="fill:none;stroke:#000000;stroke-width:0.5;stroke-linecap:butt;stroke-linejoin:miter;stroke-miterlimit:4;stroke-dasharray:none;stroke-opacity:1"
     id="path162"
     inkscape:connector-curvature="0" /><path
     d="m 652.92578,357.18799 c 0.74805,-0.43115 0.97559,-1.43604 0.50977,-2.24268 -0.46582,-0.80664 -1.44922,-1.11133 -2.19727,-0.68017 -0.74707,0.43164 -0.97461,1.43603 -0.50879,2.24267 0.46582,0.80664 1.44922,1.11182 2.19629,0.68018 z"
     style="fill:#000000;fill-opacity:1;fill-rule:nonzero;stroke:none"
     id="path164"
     inkscape:connector-curvature="0" /><path
     d="m 652.92578,357.18799 c 0.74805,-0.43115 0.97559,-1.43604 0.50977,-2.24268 -0.46582,-0.80664 -1.44922,-1.11133 -2.19727,-0.68017 -0.74707,0.43164 -0.97461,1.43603 -0.50879,2.24267 0.46582,0.80664 1.44922,1.11182 2.19629,0.68018 z"
     style="fill:none;stroke:#000000;stroke-width:0.5;stroke-linecap:butt;stroke-linejoin:miter;stroke-miterlimit:4;stroke-dasharray:none;stroke-opacity:1"
     id="path166"
     inkscape:connector-curvature="0" /><path
     d="m 620.4043,356.98389 c 0.74707,-0.43116 0.97558,-1.43555 0.50976,-2.24268 -0.46582,-0.80664 -1.45019,-1.11133 -2.19726,-0.68017 -0.74707,0.43164 -0.97461,1.43603 -0.50879,2.24267 0.46582,0.80713 1.44922,1.11182 2.19629,0.68018 z"
     style="fill:none;stroke:#000000;stroke-width:0.5;stroke-linecap:butt;stroke-linejoin:miter;stroke-miterlimit:4;stroke-dasharray:none;stroke-opacity:1"
     id="path168"
     inkscape:connector-curvature="0" /><path
     d="m 644.76953,342.91797 c 0.74707,-0.43164 0.97559,-1.43604 0.50977,-2.24268 -0.46582,-0.80664 -1.4502,-1.11181 -2.19727,-0.68017 -0.74707,0.43115 -0.97461,1.43603 -0.50879,2.24267 0.46582,0.80664 1.44922,1.11133 2.19629,0.68018 z"
     style="fill:none;stroke:#000000;stroke-width:0.5;stroke-linecap:butt;stroke-linejoin:miter;stroke-miterlimit:4;stroke-dasharray:none;stroke-opacity:1"
     id="path170"
     inkscape:connector-curvature="0" /><path
     d="m 628.59766,342.7998 c 0.74707,-0.43164 0.97558,-1.43603 0.50976,-2.24267 -0.46582,-0.80713 -1.45019,-1.11182 -2.19726,-0.68018 -0.74707,0.43116 -0.97559,1.43555 -0.50977,2.24268 0.46582,0.80664 1.4502,1.11133 2.19727,0.68017 z"
     style="fill:#000000;fill-opacity:1;fill-rule:nonzero;stroke:none"
     id="path172"
     inkscape:connector-curvature="0" /><path
     d="m 628.59766,342.7998 c 0.74707,-0.43164 0.97558,-1.43603 0.50976,-2.24267 -0.46582,-0.80713 -1.45019,-1.11182 -2.19726,-0.68018 -0.74707,0.43116 -0.97559,1.43555 -0.50977,2.24268 0.46582,0.80664 1.4502,1.11133 2.19727,0.68017 z"
     style="fill:none;stroke:#000000;stroke-width:0.5;stroke-linecap:butt;stroke-linejoin:miter;stroke-miterlimit:4;stroke-dasharray:none;stroke-opacity:1"
     id="path174"
     inkscape:connector-curvature="0" /><path
     d="m 627.99414,371.00488 c 0.74707,-0.43115 0.97559,-1.43554 0.50977,-2.24267 -0.46582,-0.80664 -1.4502,-1.11133 -2.19727,-0.68018 -0.74707,0.43164 -0.97461,1.43604 -0.50879,2.24268 0.46582,0.80713 1.44922,1.11181 2.19629,0.68017 z"
     style="fill:#000000;fill-opacity:1;fill-rule:nonzero;stroke:none"
     id="path176"
     inkscape:connector-curvature="0" /><path
     d="m 627.99414,371.00488 c 0.74707,-0.43115 0.97559,-1.43554 0.50977,-2.24267 -0.46582,-0.80664 -1.4502,-1.11133 -2.19727,-0.68018 -0.74707,0.43164 -0.97461,1.43604 -0.50879,2.24268 0.46582,0.80713 1.44922,1.11181 2.19629,0.68017 z"
     style="fill:none;stroke:#000000;stroke-width:0.5;stroke-linecap:butt;stroke-linejoin:miter;stroke-miterlimit:4;stroke-dasharray:none;stroke-opacity:1"
     id="path178"
     inkscape:connector-curvature="0" /><path
     d="m 659.17383,293.24609 c 0,0 15.61621,0.0117 15.61621,0.0117 0,0 0.0713,-15.63672 0.0713,-15.63672"
     style="fill:none;stroke:#000000;stroke-width:0.5;stroke-linecap:butt;stroke-linejoin:miter;stroke-miterlimit:4;stroke-dasharray:none;stroke-opacity:1"
     id="path180"
     inkscape:connector-curvature="0" /><path
     d="m 673.42383,275.80859 c 0,0 -16.0752,0.008 -16.0752,0.008 0,0 0.0547,16.05468 0.0547,16.05468"
     style="fill:none;stroke:#000000;stroke-width:0.5;stroke-linecap:butt;stroke-linejoin:miter;stroke-miterlimit:4;stroke-dasharray:none;stroke-opacity:1"
     id="path182"
     inkscape:connector-curvature="0" /><path
     d="m 659.09082,293.43359 c 0,-0.8623 -0.75586,-1.5625 -1.6875,-1.5625 -0.93164,0 -1.6875,0.7002 -1.6875,1.5625 0,0.86329 0.75586,1.56153 1.6875,1.56153 0.93164,0 1.6875,-0.69824 1.6875,-1.56153 z"
     style="fill:none;stroke:#000000;stroke-width:0.5;stroke-linecap:butt;stroke-linejoin:miter;stroke-miterlimit:4;stroke-dasharray:none;stroke-opacity:1"
     id="path184"
     inkscape:connector-curvature="0" /><path
     d="m 676.47754,293.25781 c 0,-0.8623 -0.75586,-1.5625 -1.6875,-1.5625 -0.93164,0 -1.6875,0.7002 -1.6875,1.5625 0,0.86328 0.75586,1.56153 1.6875,1.56153 0.93164,0 1.6875,-0.69825 1.6875,-1.56153 z"
     style="fill:#000000;fill-opacity:1;fill-rule:nonzero;stroke:none"
     id="path186"
     inkscape:connector-curvature="0" /><path
     d="m 676.47754,293.25781 c 0,-0.8623 -0.75586,-1.5625 -1.6875,-1.5625 -0.93164,0 -1.6875,0.7002 -1.6875,1.5625 0,0.86328 0.75586,1.56153 1.6875,1.56153 0.93164,0 1.6875,-0.69825 1.6875,-1.56153 z"
     style="fill:none;stroke:#000000;stroke-width:0.5;stroke-linecap:butt;stroke-linejoin:miter;stroke-miterlimit:4;stroke-dasharray:none;stroke-opacity:1"
     id="path188"
     inkscape:connector-curvature="0" /><path
     d="m 659.03613,275.81641 c 0,-0.86328 -0.75586,-1.5625 -1.6875,-1.5625 -0.93164,0 -1.6875,0.69922 -1.6875,1.5625 0,0.86328 0.75586,1.5625 1.6875,1.5625 0.93164,0 1.6875,-0.69922 1.6875,-1.5625 z"
     style="fill:#000000;fill-opacity:1;fill-rule:nonzero;stroke:none"
     id="path190"
     inkscape:connector-curvature="0" /><path
     d="m 659.03613,275.81641 c 0,-0.86328 -0.75586,-1.5625 -1.6875,-1.5625 -0.93164,0 -1.6875,0.69922 -1.6875,1.5625 0,0.86328 0.75586,1.5625 1.6875,1.5625 0.93164,0 1.6875,-0.69922 1.6875,-1.5625 z"
     style="fill:none;stroke:#000000;stroke-width:0.5;stroke-linecap:butt;stroke-linejoin:miter;stroke-miterlimit:4;stroke-dasharray:none;stroke-opacity:1"
     id="path192"
     inkscape:connector-curvature="0" /><path
     d="m 676.71582,275.99609 c 0,-0.86328 -0.75586,-1.5625 -1.6875,-1.5625 -0.93164,0 -1.6875,0.69922 -1.6875,1.5625 0,0.86329 0.75586,1.5625 1.6875,1.5625 0.93164,0 1.6875,-0.69921 1.6875,-1.5625 z"
     style="fill:none;stroke:#000000;stroke-width:0.5;stroke-linecap:butt;stroke-linejoin:miter;stroke-miterlimit:4;stroke-dasharray:none;stroke-opacity:1"
     id="path194"
     inkscape:connector-curvature="0" /><path
     d="m 718.5918,324.51074 c 0,0 15.61621,0.0117 15.61621,0.0117 0,0 0.0713,-15.63672 0.0713,-15.63672"
     style="fill:none;stroke:#000000;stroke-width:0.5;stroke-linecap:butt;stroke-linejoin:miter;stroke-miterlimit:4;stroke-dasharray:none;stroke-opacity:1"
     id="path196"
     inkscape:connector-curvature="0" /><path
     d="m 732.8418,307.07324 c 0,0 -16.0752,0.008 -16.0752,0.008 0,0 0.0547,16.05469 0.0547,16.05469"
     style="fill:none;stroke:#000000;stroke-width:0.5;stroke-linecap:butt;stroke-linejoin:miter;stroke-miterlimit:4;stroke-dasharray:none;stroke-opacity:1"
     id="path198"
     inkscape:connector-curvature="0" /><path
     d="m 718.50879,324.69824 c 0,-0.86279 -0.75586,-1.5625 -1.6875,-1.5625 -0.93164,0 -1.6875,0.69971 -1.6875,1.5625 0,0.8628 0.75586,1.5625 1.6875,1.5625 0.93164,0 1.6875,-0.6997 1.6875,-1.5625 z"
     style="fill:none;stroke:#000000;stroke-width:0.5;stroke-linecap:butt;stroke-linejoin:miter;stroke-miterlimit:4;stroke-dasharray:none;stroke-opacity:1"
     id="path200"
     inkscape:connector-curvature="0" /><path
     d="m 735.89551,324.52246 c 0,-0.86279 -0.75586,-1.5625 -1.6875,-1.5625 -0.93164,0 -1.6875,0.69971 -1.6875,1.5625 0,0.86279 0.75586,1.5625 1.6875,1.5625 0.93164,0 1.6875,-0.69971 1.6875,-1.5625 z"
     style="fill:#000000;fill-opacity:1;fill-rule:nonzero;stroke:none"
     id="path202"
     inkscape:connector-curvature="0" /><path
     d="m 735.89551,324.52246 c 0,-0.86279 -0.75586,-1.5625 -1.6875,-1.5625 -0.93164,0 -1.6875,0.69971 -1.6875,1.5625 0,0.86279 0.75586,1.5625 1.6875,1.5625 0.93164,0 1.6875,-0.69971 1.6875,-1.5625 z"
     style="fill:none;stroke:#000000;stroke-width:0.5;stroke-linecap:butt;stroke-linejoin:miter;stroke-miterlimit:4;stroke-dasharray:none;stroke-opacity:1"
     id="path204"
     inkscape:connector-curvature="0" /><path
     d="m 718.4541,307.08105 c 0,-0.86328 -0.75586,-1.5625 -1.6875,-1.5625 -0.93164,0 -1.6875,0.69922 -1.6875,1.5625 0,0.86329 0.75586,1.5625 1.6875,1.5625 0.93164,0 1.6875,-0.69921 1.6875,-1.5625 z"
     style="fill:#000000;fill-opacity:1;fill-rule:nonzero;stroke:none"
     id="path206"
     inkscape:connector-curvature="0" /><path
     d="m 718.4541,307.08105 c 0,-0.86328 -0.75586,-1.5625 -1.6875,-1.5625 -0.93164,0 -1.6875,0.69922 -1.6875,1.5625 0,0.86329 0.75586,1.5625 1.6875,1.5625 0.93164,0 1.6875,-0.69921 1.6875,-1.5625 z"
     style="fill:none;stroke:#000000;stroke-width:0.5;stroke-linecap:butt;stroke-linejoin:miter;stroke-miterlimit:4;stroke-dasharray:none;stroke-opacity:1"
     id="path208"
     inkscape:connector-curvature="0" /><path
     d="m 736.13379,307.26074 c 0,-0.86328 -0.75586,-1.5625 -1.6875,-1.5625 -0.93164,0 -1.6875,0.69922 -1.6875,1.5625 0,0.86328 0.75586,1.5625 1.6875,1.5625 0.93164,0 1.6875,-0.69922 1.6875,-1.5625 z"
     style="fill:none;stroke:#000000;stroke-width:0.5;stroke-linecap:butt;stroke-linejoin:miter;stroke-miterlimit:4;stroke-dasharray:none;stroke-opacity:1"
     id="path210"
     inkscape:connector-curvature="0" /><path
     d="m 647.85742,363.09277 c 12.90821,9.83252 14.98438,6.02637 30.20899,-26.15332 4.63476,-9.7959 17.2539,-22.29199 38.20312,-21.6372"
     style="fill:none;stroke:#ff1a00;stroke-width:1;stroke-linecap:butt;stroke-linejoin:bevel;stroke-miterlimit:10;stroke-dasharray:none;stroke-opacity:1"
     id="path212"
     inkscape:connector-curvature="0" /><path
     d="m 634.79102,340.93896 c 0,-5.25292 7.35351,-9.45458 11.03027,-18.90966"
     style="fill:none;stroke:#000000;stroke-width:2;stroke-linecap:butt;stroke-linejoin:bevel;stroke-miterlimit:10;stroke-dasharray:none;stroke-opacity:1"
     id="path214"
     inkscape:connector-curvature="0" /><path
     d="m 647.95996,348.35693 c 10.03711,-3.45898 17.15771,-4.27481 21.65576,-0.12247"
     style="fill:none;stroke:#000000;stroke-width:2;stroke-linecap:butt;stroke-linejoin:bevel;stroke-miterlimit:10;stroke-dasharray:none;stroke-opacity:1"
     id="path216"
     inkscape:connector-curvature="0"
     sodipodi:nodetypes="cc" /><path
     d="m 674.24922,351.63824 c 4.84375,3.11377 5.39683,17.50949 23.73668,17.16329"
     style="fill:none;stroke:#000000;stroke-width:2;stroke-linecap:butt;stroke-linejoin:bevel;stroke-miterlimit:10;stroke-dasharray:none;stroke-opacity:1"
     id="path218"
     inkscape:connector-curvature="0"
     sodipodi:nodetypes="cc" /><path
     d="m 676.29297,327.51758 c -15.46777,-6.28369 -46.40332,-12.08399 -46.88672,-23.20166 -0.4834,-11.1167 5.80176,-19.3335 27.55273,-20.30029"
     style="fill:none;stroke:#000000;stroke-width:1;stroke-linecap:butt;stroke-linejoin:bevel;stroke-miterlimit:10;stroke-dasharray:none;stroke-opacity:1"
     id="path220"
     inkscape:connector-curvature="0" /><path
     d="m 623.12207,363.28711 c -16.43457,13.53467 -15.10764,29.81359 -6.28223,39.63672 16.26008,18.09831 55.35065,11.88272 71.53907,-6.28369 14.27635,-16.02072 24.86276,-58.18204 -9.8e-4,-65.25537"
     style="fill:none;stroke:#000000;stroke-width:1;stroke-linecap:butt;stroke-linejoin:bevel;stroke-miterlimit:10;stroke-dasharray:none;stroke-opacity:1"
     id="path222"
     inkscape:connector-curvature="0"
     sodipodi:nodetypes="caac" /></g><text
   transform="scale(1,-1)"
   style="font-variant:normal;font-weight:normal;font-size:24px;font-family:Symbol;-inkscape-font-specification:Symbol;writing-mode:lr-tb;fill:#000000;fill-opacity:1;fill-rule:nonzero;stroke:none"
   id="text228"
   x="44.078659"
   y="-269.90762"
   inkscape:export-xdpi="300"
   inkscape:export-ydpi="300"><tspan
     x="44.078659 58.766663"
     y="-269.90762"
     sodipodi:role="line"
     id="tspan226">∆ </tspan></text>
<text
   transform="scale(1.0151828,-0.98504429)"
   style="font-variant:normal;font-weight:normal;font-size:21.4697px;font-family:Symbol;-inkscape-font-specification:Symbol;writing-mode:lr-tb;fill:#000000;fill-opacity:1;fill-rule:nonzero;stroke:none;stroke-width:0.894569"
   id="text236"
   x="383.1673"
   y="-356.13486"
   inkscape:export-xdpi="300"
   inkscape:export-ydpi="300"><tspan
     x="383.1673"
     y="-356.13486"
     id="tspan234"
     style="stroke-width:0.894569">↔</tspan></text>
<text
   transform="scale(1,-1)"
   style="font-variant:normal;font-weight:normal;font-size:24px;font-family:Symbol;-inkscape-font-specification:Symbol;writing-mode:lr-tb;fill:#000000;fill-opacity:1;fill-rule:nonzero;stroke:none"
   id="text240"
   x="502.48181"
   y="-270.34329"
   inkscape:export-xdpi="300"
   inkscape:export-ydpi="300"><tspan
     x="502.48181"
     y="-270.34329"
     id="tspan238">ℵ</tspan></text>
<text
   transform="scale(1.0151828,-0.98504429)"
   style="font-variant:normal;font-weight:normal;font-size:21.4697px;font-family:Symbol;-inkscape-font-specification:Symbol;writing-mode:lr-tb;fill:#000000;fill-opacity:1;fill-rule:nonzero;stroke:none;stroke-width:0.894569"
   id="text248"
   x="185.9478"
   y="-352.7272"
   inkscape:export-xdpi="300"
   inkscape:export-ydpi="300"><tspan
     x="185.9478"
     y="-352.7272"
     id="tspan246"
     style="stroke-width:0.894569">↔</tspan></text>
<text
   xml:space="preserve"
   style="font-style:normal;font-variant:normal;font-weight:normal;font-stretch:normal;font-size:10px;line-height:1.25;font-family:'Adobe Garamond Pro';-inkscape-font-specification:'Adobe Garamond Pro, Normal';font-variant-ligatures:normal;font-variant-caps:normal;font-variant-numeric:normal;font-feature-settings:normal;text-align:start;letter-spacing:0px;word-spacing:0px;writing-mode:lr-tb;text-anchor:start;fill:#000000;fill-opacity:1;stroke:none;stroke-width:0.75"
   x="244.66246"
   y="-269.59753"
   id="text4873"
   transform="scale(1,-1)"
   inkscape:export-xdpi="300"
   inkscape:export-ydpi="300"><tspan
     sodipodi:role="line"
     id="tspan4871"
     x="244.66246"
     y="-269.59753"
     style="font-style:normal;font-variant:normal;font-weight:normal;font-stretch:normal;font-family:Arial;-inkscape-font-specification:Arial;stroke-width:0.75">état réductible C+1 conjonctif</tspan><tspan
     sodipodi:role="line"
     x="244.66246"
     y="-256.94"
     style="font-style:normal;font-variant:normal;font-weight:normal;font-stretch:normal;font-family:Arial;-inkscape-font-specification:Arial;stroke-width:0.75"
     id="tspan4875">T = (x, y)</tspan></text>
<text
   xml:space="preserve"
   style="font-style:normal;font-variant:normal;font-weight:normal;font-stretch:normal;font-size:10px;line-height:1.25;font-family:'Adobe Garamond Pro';-inkscape-font-specification:'Adobe Garamond Pro, Normal';font-variant-ligatures:normal;font-variant-caps:normal;font-variant-numeric:normal;font-feature-settings:normal;text-align:start;letter-spacing:0px;word-spacing:0px;writing-mode:lr-tb;text-anchor:start;fill:#000000;fill-opacity:1;stroke:none;stroke-width:0.75"
   x="43.545799"
   y="-256.18341"
   id="text4990"
   transform="scale(1,-1)"
   inkscape:export-xdpi="300"
   inkscape:export-ydpi="300"><tspan
     sodipodi:role="line"
     id="tspan4988"
     x="43.545799"
     y="-256.18341"
     style="stroke-width:0.75">T'' = (x - 1, y)</tspan></text>
<text
   xml:space="preserve"
   style="font-style:normal;font-variant:normal;font-weight:normal;font-stretch:normal;font-size:10px;line-height:1.25;font-family:'Adobe Garamond Pro';-inkscape-font-specification:'Adobe Garamond Pro, Normal';font-variant-ligatures:normal;font-variant-caps:normal;font-variant-numeric:normal;font-feature-settings:normal;text-align:start;letter-spacing:0px;word-spacing:0px;writing-mode:lr-tb;text-anchor:start;fill:#000000;fill-opacity:1;stroke:none;stroke-width:0.75"
   x="468.67853"
   y="-257.68341"
   id="text4994"
   transform="scale(1,-1)"
   inkscape:export-xdpi="300"
   inkscape:export-ydpi="300"><tspan
     sodipodi:role="line"
     id="tspan4992"
     x="468.67853"
     y="-257.68341"
     style="stroke-width:0.75">T' = (x, y - 1)</tspan></text>
</g></svg>
