<?xml version="1.0" encoding="UTF-8" standalone="no"?>
<svg
   xmlns:dc="http://purl.org/dc/elements/1.1/"
   xmlns:cc="http://creativecommons.org/ns#"
   xmlns:rdf="http://www.w3.org/1999/02/22-rdf-syntax-ns#"
   xmlns:svg="http://www.w3.org/2000/svg"
   xmlns="http://www.w3.org/2000/svg"
   xmlns:sodipodi="http://sodipodi.sourceforge.net/DTD/sodipodi-0.dtd"
   xmlns:inkscape="http://www.inkscape.org/namespaces/inkscape"
   version="1.1"
   id="svg2"
   xml:space="preserve"
   width="658.4552"
   height="278.3577"
   viewBox="0 0 658.45519 278.35769"
   sodipodi:docname="revirement.svg"
   inkscape:version="1.0.2-2 (e86c870879, 2021-01-15)"><metadata
     id="metadata8"><rdf:RDF><cc:Work
         rdf:about=""><dc:format>image/svg+xml</dc:format><dc:type
           rdf:resource="http://purl.org/dc/dcmitype/StillImage" /><dc:title></dc:title></cc:Work></rdf:RDF></metadata><defs
     id="defs6"><marker
       inkscape:stockid="Arrow1Mend"
       orient="auto"
       refY="0"
       refX="0"
       id="Arrow1Mend"
       style="overflow:visible"
       inkscape:isstock="true"><path
         id="path5354"
         d="M 0,0 5,-5 -12.5,0 5,5 Z"
         style="fill:#000000;fill-opacity:1;fill-rule:evenodd;stroke:#000000;stroke-width:1pt;stroke-opacity:1"
         transform="matrix(-0.4,0,0,-0.4,-4,0)" /></marker><marker
       inkscape:stockid="Arrow1Mstart"
       orient="auto"
       refY="0"
       refX="0"
       id="Arrow1Mstart"
       style="overflow:visible"
       inkscape:isstock="true"><path
         id="path5351"
         d="M 0,0 5,-5 -12.5,0 5,5 Z"
         style="fill:#000000;fill-opacity:1;fill-rule:evenodd;stroke:#000000;stroke-width:1pt;stroke-opacity:1"
         transform="matrix(0.4,0,0,0.4,4,0)" /></marker><marker
       inkscape:stockid="Arrow1Lstart"
       orient="auto"
       refY="0"
       refX="0"
       id="Arrow1Lstart"
       style="overflow:visible"
       inkscape:isstock="true"><path
         id="path5345"
         d="M 0,0 5,-5 -12.5,0 5,5 Z"
         style="fill:#000000;fill-opacity:1;fill-rule:evenodd;stroke:#000000;stroke-width:1pt;stroke-opacity:1"
         transform="matrix(0.8,0,0,0.8,10,0)" /></marker><clipPath
       clipPathUnits="userSpaceOnUse"
       id="clipPath18"><path
         d="M 0,595.275 H 841.89 V 0 H 0 Z"
         id="path16"
         inkscape:connector-curvature="0" /></clipPath></defs><sodipodi:namedview
     pagecolor="#ffffff"
     bordercolor="#666666"
     borderopacity="1"
     objecttolerance="10"
     gridtolerance="10"
     guidetolerance="10"
     inkscape:pageopacity="0"
     inkscape:pageshadow="2"
     inkscape:window-width="1920"
     inkscape:window-height="1001"
     id="namedview4"
     showgrid="false"
     inkscape:zoom="0.83528452"
     inkscape:cx="523.25569"
     inkscape:cy="73.860603"
     inkscape:window-x="-9"
     inkscape:window-y="-9"
     inkscape:window-maximized="1"
     inkscape:current-layer="g10"
     inkscape:document-rotation="0"
     fit-margin-top="3"
     fit-margin-left="3"
     fit-margin-right="3"
     fit-margin-bottom="3" /><g
     id="g10"
     inkscape:groupmode="layer"
     inkscape:label="revirement"
     transform="matrix(1.3333333,0,0,-1.3333333,-71.652611,501.90129)"><path
   inkscape:connector-curvature="0"
   id="path22"
   style="fill:none;stroke:#000000;stroke-width:2;stroke-linecap:square;stroke-linejoin:bevel;stroke-miterlimit:10;stroke-dasharray:none;stroke-opacity:1"
   d="m 133.6787,339.5454 c -21.276,23.895 17.21832,30.09453 32.3,32.484 18.65225,2.95517 38.62198,-11.10415 50.409,-25.859 22.34406,-27.97001 42.4508,-71.87543 26.70292,-104.0248 -7.63714,-15.59124 -36.63192,-26.3642 -47.79692,-20.6922"
   sodipodi:nodetypes="caaac"
   inkscape:export-xdpi="300"
   inkscape:export-ydpi="300" /><path
   inkscape:connector-curvature="0"
   id="path26"
   style="fill:none;stroke:#000000;stroke-width:2;stroke-linecap:square;stroke-linejoin:bevel;stroke-miterlimit:10;stroke-dasharray:none;stroke-opacity:1"
   d="m 184,312.5254 c 29.5,-10.75 52.233,-48.361 11.825,-77.071"
   inkscape:export-xdpi="300"
   inkscape:export-ydpi="300" /><path
   inkscape:connector-curvature="0"
   id="path30"
   style="fill:none;stroke:#000000;stroke-width:2;stroke-linecap:square;stroke-linejoin:bevel;stroke-miterlimit:10;stroke-dasharray:none;stroke-opacity:1"
   d="m 107.0352,244.1377 c 4.431,29.42 30.76,23.263 35.977,2.481 1.7,-6.771 10.457,-35.268 26.938,-25.52"
   inkscape:export-xdpi="300"
   inkscape:export-ydpi="300" /><path
   inkscape:connector-curvature="0"
   id="path34"
   style="fill:none;stroke:#000000;stroke-width:2;stroke-linecap:square;stroke-linejoin:bevel;stroke-miterlimit:10;stroke-dasharray:none;stroke-opacity:1"
   d="m 119.2637,222.6934 c 19.495,-3.189 24.692,-18.541 34.914,-26.584 12.558,-9.882 28.533,-3.722 26.761,17.723"
   inkscape:export-xdpi="300"
   inkscape:export-ydpi="300" /><path
   inkscape:connector-curvature="0"
   id="path38"
   style="fill:none;stroke:#000000;stroke-width:2;stroke-linecap:square;stroke-linejoin:bevel;stroke-miterlimit:10;stroke-dasharray:none;stroke-opacity:1"
   d="m 104.9082,214.8955 c -2.304,-33.318 24.2,-24.158 32.925,-6.354"
   inkscape:export-xdpi="300"
   inkscape:export-ydpi="300" /><path
   inkscape:connector-curvature="0"
   id="path42"
   style="fill:none;stroke:#000000;stroke-width:2;stroke-linecap:square;stroke-linejoin:bevel;stroke-miterlimit:10;stroke-dasharray:none;stroke-opacity:1"
   d="m 151.5049,233.7637 c 3.53806,8.63075 9.229,8.602 18.091,2.222"
   sodipodi:nodetypes="cc"
   inkscape:export-xdpi="300"
   inkscape:export-ydpi="300" /><path
   inkscape:connector-curvature="0"
   id="path46"
   style="fill:none;stroke:#000000;stroke-width:2;stroke-linecap:square;stroke-linejoin:bevel;stroke-miterlimit:10;stroke-dasharray:none;stroke-opacity:1"
   d="m 118.9092,237.4033 c 6.203,4.431 13.07763,11.21609 17.29388,15.17569"
   sodipodi:nodetypes="cc"
   inkscape:export-xdpi="300"
   inkscape:export-ydpi="300" /><path
   inkscape:connector-curvature="0"
   id="path50"
   style="fill:none;stroke:#000000;stroke-width:2;stroke-linecap:square;stroke-linejoin:bevel;stroke-miterlimit:10;stroke-dasharray:none;stroke-opacity:1"
   d="m 143.0117,258.4932 c 20.736,17.19 37.872,7.289 39.426,-15.078"
   inkscape:export-xdpi="300"
   inkscape:export-ydpi="300" /><path
   inkscape:connector-curvature="0"
   id="path54"
   style="fill:none;stroke:#000000;stroke-width:2;stroke-linecap:square;stroke-linejoin:bevel;stroke-miterlimit:10;stroke-dasharray:none;stroke-opacity:1"
   d="m 147.5352,325.6885 c 3.465,-4.413 19.715,-5.913 26.465,-9.413"
   inkscape:export-xdpi="300"
   inkscape:export-ydpi="300" /><path
   inkscape:connector-curvature="0"
   id="path58"
   style="fill:none;stroke:#000000;stroke-width:2;stroke-linecap:square;stroke-linejoin:bevel;stroke-miterlimit:10;stroke-dasharray:none;stroke-opacity:1"
   d="m 134.2275,325.8755 c -24.582,-19.709 -70.932,-20.287 -76.596,-54.665 -1.444,-8.763 -3.764,-61.277 36.288,-48.694"
   inkscape:export-xdpi="300"
   inkscape:export-ydpi="300" /><path
   inkscape:connector-curvature="0"
   id="path62"
   style="fill:none;stroke:#000000;stroke-width:2;stroke-linecap:square;stroke-linejoin:bevel;stroke-miterlimit:10;stroke-dasharray:none;stroke-opacity:1"
   d="m 146.666,339.9512 c 19.56584,13.76658 32.4018,6.5979 35.97636,-4.96826 7.99953,-25.88397 -30.73936,-43.14874 -60.19936,-54.60574 -29.46,-11.457 -52.701,-30.443 -29.46,-44.191"
   sodipodi:nodetypes="casc"
   inkscape:export-xdpi="300"
   inkscape:export-ydpi="300" /><path
   inkscape:connector-curvature="0"
   id="path66"
   style="fill:none;stroke:#000000;stroke-width:2;stroke-linecap:square;stroke-linejoin:bevel;stroke-miterlimit:10;stroke-dasharray:none;stroke-opacity:1"
   d="m 146.9111,225.8838 c -1.949,-3.19 -4.253,-7.798 -6.025,-11.343"
   inkscape:export-xdpi="300"
   inkscape:export-ydpi="300" /><path
   inkscape:connector-curvature="0"
   id="path70"
   style="fill:none;stroke:#000000;stroke-width:0.5;stroke-linecap:butt;stroke-linejoin:miter;stroke-miterlimit:4;stroke-dasharray:none;stroke-opacity:1"
   d="m 113.2764,215.5762 -14.794,-0.141 -7.538,12.962"
   inkscape:export-xdpi="300"
   inkscape:export-ydpi="300" /><path
   inkscape:connector-curvature="0"
   id="path74"
   style="fill:none;stroke:#000000;stroke-width:0.5;stroke-linecap:butt;stroke-linejoin:miter;stroke-miterlimit:4;stroke-dasharray:none;stroke-opacity:1"
   d="m 115.3105,242.4756 7.42,-12.607 -7.113,-12.755"
   inkscape:export-xdpi="300"
   inkscape:export-ydpi="300" /><path
   inkscape:connector-curvature="0"
   id="path78"
   style="fill:none;stroke:#000000;stroke-width:0.5;stroke-linecap:butt;stroke-linejoin:miter;stroke-miterlimit:4;stroke-dasharray:none;stroke-opacity:1"
   d="m 91.0352,231.3047 7.071,12.348 14.715,0.26"
   inkscape:export-xdpi="300"
   inkscape:export-ydpi="300" /><path
   inkscape:connector-curvature="0"
   id="path82"
   style="fill:#ffffff;fill-opacity:1;fill-rule:nonzero;stroke:none"
   d="m 115.1992,245.2822 c 0.747,-0.431 0.976,-1.437 0.51,-2.243 -0.466,-0.807 -1.45,-1.111 -2.198,-0.68 -0.747,0.432 -0.975,1.436 -0.509,2.242 0.466,0.807 1.45,1.113 2.197,0.681"
   inkscape:export-xdpi="300"
   inkscape:export-ydpi="300" /><path
   inkscape:connector-curvature="0"
   id="path86"
   style="fill:none;stroke:#000000;stroke-width:0.5;stroke-linecap:butt;stroke-linejoin:miter;stroke-miterlimit:4;stroke-dasharray:none;stroke-opacity:1"
   d="m 115.1992,245.2822 c 0.747,-0.431 0.976,-1.437 0.51,-2.243 -0.466,-0.807 -1.45,-1.111 -2.198,-0.68 -0.747,0.432 -0.975,1.436 -0.509,2.242 0.466,0.807 1.45,1.113 2.197,0.681 z"
   inkscape:export-xdpi="300"
   inkscape:export-ydpi="300" /><path
   inkscape:connector-curvature="0"
   id="path90"
   style="fill:#000000;fill-opacity:1;fill-rule:nonzero;stroke:none"
   d="m 123.7734,231.3828 c 0.747,-0.432 0.975,-1.436 0.509,-2.242 -0.466,-0.807 -1.449,-1.112 -2.197,-0.68 -0.747,0.431 -0.975,1.436 -0.509,2.242 0.466,0.807 1.45,1.112 2.197,0.68"
   inkscape:export-xdpi="300"
   inkscape:export-ydpi="300" /><path
   inkscape:connector-curvature="0"
   id="path94"
   style="fill:none;stroke:#000000;stroke-width:0.5;stroke-linecap:butt;stroke-linejoin:miter;stroke-miterlimit:4;stroke-dasharray:none;stroke-opacity:1"
   d="m 123.7734,231.3828 c 0.747,-0.432 0.975,-1.436 0.509,-2.242 -0.466,-0.807 -1.449,-1.112 -2.197,-0.68 -0.747,0.431 -0.975,1.436 -0.509,2.242 0.466,0.807 1.45,1.112 2.197,0.68 z"
   inkscape:export-xdpi="300"
   inkscape:export-ydpi="300" /><path
   inkscape:connector-curvature="0"
   id="path98"
   style="fill:#ffffff;fill-opacity:1;fill-rule:nonzero;stroke:none"
   d="m 91.252,231.1797 c 0.747,-0.432 0.975,-1.437 0.509,-2.243 -0.466,-0.808 -1.449,-1.112 -2.197,-0.681 -0.747,0.432 -0.975,1.436 -0.509,2.243 0.466,0.807 1.45,1.112 2.197,0.681"
   inkscape:export-xdpi="300"
   inkscape:export-ydpi="300" /><path
   inkscape:connector-curvature="0"
   id="path102"
   style="fill:none;stroke:#000000;stroke-width:0.5;stroke-linecap:butt;stroke-linejoin:miter;stroke-miterlimit:4;stroke-dasharray:none;stroke-opacity:1"
   d="m 91.252,231.1797 c 0.747,-0.432 0.975,-1.437 0.509,-2.243 -0.466,-0.808 -1.449,-1.112 -2.197,-0.681 -0.747,0.432 -0.975,1.436 -0.509,2.243 0.466,0.807 1.45,1.112 2.197,0.681 z"
   inkscape:export-xdpi="300"
   inkscape:export-ydpi="300" /><path
   inkscape:connector-curvature="0"
   id="path106"
   style="fill:#ffffff;fill-opacity:1;fill-rule:nonzero;stroke:none"
   d="m 115.6172,217.1133 c 0.747,-0.432 0.975,-1.436 0.509,-2.243 -0.466,-0.807 -1.449,-1.111 -2.197,-0.681 -0.748,0.432 -0.975,1.437 -0.509,2.243 0.466,0.808 1.449,1.113 2.197,0.681"
   inkscape:export-xdpi="300"
   inkscape:export-ydpi="300" /><path
   inkscape:connector-curvature="0"
   id="path110"
   style="fill:none;stroke:#000000;stroke-width:0.5;stroke-linecap:butt;stroke-linejoin:miter;stroke-miterlimit:4;stroke-dasharray:none;stroke-opacity:1"
   d="m 115.6172,217.1133 c 0.747,-0.432 0.975,-1.436 0.509,-2.243 -0.466,-0.807 -1.449,-1.111 -2.197,-0.681 -0.748,0.432 -0.975,1.437 -0.509,2.243 0.466,0.808 1.449,1.113 2.197,0.681 z"
   inkscape:export-xdpi="300"
   inkscape:export-ydpi="300" /><path
   inkscape:connector-curvature="0"
   id="path114"
   style="fill:#000000;fill-opacity:1;fill-rule:nonzero;stroke:none"
   d="m 99.4443,216.9941 c 0.747,-0.431 0.976,-1.436 0.51,-2.242 -0.466,-0.807 -1.45,-1.112 -2.198,-0.68 -0.747,0.432 -0.974,1.436 -0.508,2.242 0.466,0.807 1.449,1.112 2.196,0.68"
   inkscape:export-xdpi="300"
   inkscape:export-ydpi="300" /><path
   inkscape:connector-curvature="0"
   id="path118"
   style="fill:none;stroke:#000000;stroke-width:0.5;stroke-linecap:butt;stroke-linejoin:miter;stroke-miterlimit:4;stroke-dasharray:none;stroke-opacity:1"
   d="m 99.4443,216.9941 c 0.747,-0.431 0.976,-1.436 0.51,-2.242 -0.466,-0.807 -1.45,-1.112 -2.198,-0.68 -0.747,0.432 -0.974,1.436 -0.508,2.242 0.466,0.807 1.449,1.112 2.196,0.68 z"
   inkscape:export-xdpi="300"
   inkscape:export-ydpi="300" /><path
   inkscape:connector-curvature="0"
   id="path122"
   style="fill:#000000;fill-opacity:1;fill-rule:nonzero;stroke:none"
   d="m 98.8418,245.2002 c 0.747,-0.432 0.975,-1.437 0.509,-2.243 -0.466,-0.807 -1.449,-1.111 -2.197,-0.68 -0.747,0.432 -0.975,1.436 -0.509,2.242 0.466,0.807 1.45,1.112 2.197,0.681"
   inkscape:export-xdpi="300"
   inkscape:export-ydpi="300" /><path
   inkscape:connector-curvature="0"
   id="path126"
   style="fill:none;stroke:#000000;stroke-width:0.5;stroke-linecap:butt;stroke-linejoin:miter;stroke-miterlimit:4;stroke-dasharray:none;stroke-opacity:1"
   d="m 98.8418,245.2002 c 0.747,-0.432 0.975,-1.437 0.509,-2.243 -0.466,-0.807 -1.449,-1.111 -2.197,-0.68 -0.747,0.432 -0.975,1.436 -0.509,2.242 0.466,0.807 1.45,1.112 2.197,0.681 z"
   inkscape:export-xdpi="300"
   inkscape:export-ydpi="300" /><path
   inkscape:connector-curvature="0"
   id="path130"
   style="fill:none;stroke:#000000;stroke-width:0.5;stroke-linecap:butt;stroke-linejoin:miter;stroke-miterlimit:4;stroke-dasharray:none;stroke-opacity:1"
   d="m 129.4844,334.251 11.033,11.051 11.108,-11.007"
   inkscape:export-xdpi="300"
   inkscape:export-ydpi="300" /><path
   inkscape:connector-curvature="0"
   id="path134"
   style="fill:none;stroke:#000000;stroke-width:0.5;stroke-linecap:butt;stroke-linejoin:miter;stroke-miterlimit:4;stroke-dasharray:none;stroke-opacity:1"
   d="m 151.8906,331.9971 -11.373,-11.361 -11.314,11.391"
   inkscape:export-xdpi="300"
   inkscape:export-ydpi="300" /><path
   inkscape:connector-curvature="0"
   id="path138"
   style="fill:#ffffff;fill-opacity:1;fill-rule:nonzero;stroke:none"
   d="m 129.293,334.3242 c 0.609,-0.609 0.57,-1.639 -0.089,-2.297 -0.658,-0.659 -1.688,-0.699 -2.298,-0.089 -0.61,0.611 -0.57,1.64 0.088,2.298 0.659,0.658 1.689,0.699 2.299,0.088"
   inkscape:export-xdpi="300"
   inkscape:export-ydpi="300" /><path
   inkscape:connector-curvature="0"
   id="path142"
   style="fill:none;stroke:#000000;stroke-width:0.5;stroke-linecap:butt;stroke-linejoin:miter;stroke-miterlimit:4;stroke-dasharray:none;stroke-opacity:1"
   d="m 129.293,334.3242 c 0.609,-0.609 0.57,-1.639 -0.089,-2.297 -0.658,-0.659 -1.688,-0.699 -2.298,-0.089 -0.61,0.611 -0.57,1.64 0.088,2.298 0.659,0.658 1.689,0.699 2.299,0.088 z"
   inkscape:export-xdpi="300"
   inkscape:export-ydpi="300" /><path
   inkscape:connector-curvature="0"
   id="path146"
   style="fill:#000000;fill-opacity:1;fill-rule:nonzero;stroke:none"
   d="m 141.7109,346.4941 c 0.61,-0.609 0.57,-1.639 -0.088,-2.297 -0.659,-0.659 -1.688,-0.699 -2.298,-0.089 -0.611,0.611 -0.571,1.64 0.088,2.298 0.659,0.659 1.688,0.699 2.298,0.088"
   inkscape:export-xdpi="300"
   inkscape:export-ydpi="300" /><path
   inkscape:connector-curvature="0"
   id="path150"
   style="fill:none;stroke:#000000;stroke-width:0.5;stroke-linecap:butt;stroke-linejoin:miter;stroke-miterlimit:4;stroke-dasharray:none;stroke-opacity:1"
   d="m 141.7109,346.4941 c 0.61,-0.609 0.57,-1.639 -0.088,-2.297 -0.659,-0.659 -1.688,-0.699 -2.298,-0.089 -0.611,0.611 -0.571,1.64 0.088,2.298 0.659,0.659 1.688,0.699 2.298,0.088 z"
   inkscape:export-xdpi="300"
   inkscape:export-ydpi="300" /><path
   inkscape:connector-curvature="0"
   id="path154"
   style="fill:#000000;fill-opacity:1;fill-rule:nonzero;stroke:none"
   d="m 141.7109,321.8291 c 0.61,-0.61 0.57,-1.64 -0.088,-2.298 -0.659,-0.659 -1.687,-0.699 -2.298,-0.089 -0.611,0.611 -0.571,1.64 0.088,2.298 0.659,0.659 1.688,0.699 2.298,0.089"
   inkscape:export-xdpi="300"
   inkscape:export-ydpi="300" /><path
   inkscape:connector-curvature="0"
   id="path158"
   style="fill:none;stroke:#000000;stroke-width:0.5;stroke-linecap:butt;stroke-linejoin:miter;stroke-miterlimit:4;stroke-dasharray:none;stroke-opacity:1"
   d="m 141.7109,321.8291 c 0.61,-0.61 0.57,-1.64 -0.088,-2.298 -0.659,-0.659 -1.687,-0.699 -2.298,-0.089 -0.611,0.611 -0.571,1.64 0.088,2.298 0.659,0.659 1.688,0.699 2.298,0.089 z"
   inkscape:export-xdpi="300"
   inkscape:export-ydpi="300" /><path
   inkscape:connector-curvature="0"
   id="path162"
   style="fill:#ffffff;fill-opacity:1;fill-rule:nonzero;stroke:none"
   d="m 154.0859,334.457 c 0.61,-0.609 0.57,-1.639 -0.089,-2.298 -0.658,-0.659 -1.687,-0.698 -2.298,-0.089 -0.61,0.612 -0.57,1.641 0.088,2.299 0.659,0.658 1.689,0.699 2.299,0.088"
   inkscape:export-xdpi="300"
   inkscape:export-ydpi="300" /><path
   inkscape:connector-curvature="0"
   id="path166"
   style="fill:none;stroke:#000000;stroke-width:0.5;stroke-linecap:butt;stroke-linejoin:miter;stroke-miterlimit:4;stroke-dasharray:none;stroke-opacity:1"
   d="m 154.0859,334.457 c 0.61,-0.609 0.57,-1.639 -0.089,-2.298 -0.658,-0.659 -1.687,-0.698 -2.298,-0.089 -0.61,0.612 -0.57,1.641 0.088,2.299 0.659,0.658 1.689,0.699 2.299,0.088 z"
   inkscape:export-xdpi="300"
   inkscape:export-ydpi="300" /><path
   inkscape:connector-curvature="0"
   id="path170"
   style="fill:none;stroke:#000000;stroke-width:0.5;stroke-linecap:butt;stroke-linejoin:miter;stroke-miterlimit:4;stroke-dasharray:none;stroke-opacity:1"
   d="m 189.2764,214.5762 -14.794,-0.141 -7.538,12.962"
   inkscape:export-xdpi="300"
   inkscape:export-ydpi="300" /><path
   inkscape:connector-curvature="0"
   id="path174"
   style="fill:none;stroke:#000000;stroke-width:0.5;stroke-linecap:butt;stroke-linejoin:miter;stroke-miterlimit:4;stroke-dasharray:none;stroke-opacity:1"
   d="m 191.3105,241.4756 7.42,-12.607 -7.113,-12.755"
   inkscape:export-xdpi="300"
   inkscape:export-ydpi="300" /><path
   inkscape:connector-curvature="0"
   id="path178"
   style="fill:none;stroke:#000000;stroke-width:0.5;stroke-linecap:butt;stroke-linejoin:miter;stroke-miterlimit:4;stroke-dasharray:none;stroke-opacity:1"
   d="m 167.0352,230.3047 7.071,12.348 14.715,0.26"
   inkscape:export-xdpi="300"
   inkscape:export-ydpi="300" /><path
   inkscape:connector-curvature="0"
   id="path182"
   style="fill:#ffffff;fill-opacity:1;fill-rule:nonzero;stroke:none"
   d="m 191.1992,244.2822 c 0.747,-0.431 0.976,-1.437 0.51,-2.243 -0.466,-0.807 -1.45,-1.111 -2.198,-0.68 -0.747,0.432 -0.975,1.436 -0.509,2.242 0.466,0.807 1.45,1.113 2.197,0.681"
   inkscape:export-xdpi="300"
   inkscape:export-ydpi="300" /><path
   inkscape:connector-curvature="0"
   id="path186"
   style="fill:none;stroke:#000000;stroke-width:0.5;stroke-linecap:butt;stroke-linejoin:miter;stroke-miterlimit:4;stroke-dasharray:none;stroke-opacity:1"
   d="m 191.1992,244.2822 c 0.747,-0.431 0.976,-1.437 0.51,-2.243 -0.466,-0.807 -1.45,-1.111 -2.198,-0.68 -0.747,0.432 -0.975,1.436 -0.509,2.242 0.466,0.807 1.45,1.113 2.197,0.681 z"
   inkscape:export-xdpi="300"
   inkscape:export-ydpi="300" /><path
   inkscape:connector-curvature="0"
   id="path190"
   style="fill:#000000;fill-opacity:1;fill-rule:nonzero;stroke:none"
   d="m 199.7734,230.3828 c 0.747,-0.432 0.975,-1.436 0.509,-2.242 -0.466,-0.807 -1.449,-1.112 -2.197,-0.68 -0.747,0.431 -0.975,1.436 -0.509,2.242 0.466,0.807 1.45,1.112 2.197,0.68"
   inkscape:export-xdpi="300"
   inkscape:export-ydpi="300" /><path
   inkscape:connector-curvature="0"
   id="path194"
   style="fill:none;stroke:#000000;stroke-width:0.5;stroke-linecap:butt;stroke-linejoin:miter;stroke-miterlimit:4;stroke-dasharray:none;stroke-opacity:1"
   d="m 199.7734,230.3828 c 0.747,-0.432 0.975,-1.436 0.509,-2.242 -0.466,-0.807 -1.449,-1.112 -2.197,-0.68 -0.747,0.431 -0.975,1.436 -0.509,2.242 0.466,0.807 1.45,1.112 2.197,0.68 z"
   inkscape:export-xdpi="300"
   inkscape:export-ydpi="300" /><path
   inkscape:connector-curvature="0"
   id="path198"
   style="fill:#ffffff;fill-opacity:1;fill-rule:nonzero;stroke:none"
   d="m 167.252,230.1797 c 0.747,-0.432 0.975,-1.437 0.509,-2.243 -0.466,-0.808 -1.449,-1.112 -2.197,-0.681 -0.747,0.432 -0.975,1.436 -0.509,2.243 0.466,0.807 1.45,1.112 2.197,0.681"
   inkscape:export-xdpi="300"
   inkscape:export-ydpi="300" /><path
   inkscape:connector-curvature="0"
   id="path202"
   style="fill:none;stroke:#000000;stroke-width:0.5;stroke-linecap:butt;stroke-linejoin:miter;stroke-miterlimit:4;stroke-dasharray:none;stroke-opacity:1"
   d="m 167.252,230.1797 c 0.747,-0.432 0.975,-1.437 0.509,-2.243 -0.466,-0.808 -1.449,-1.112 -2.197,-0.681 -0.747,0.432 -0.975,1.436 -0.509,2.243 0.466,0.807 1.45,1.112 2.197,0.681 z"
   inkscape:export-xdpi="300"
   inkscape:export-ydpi="300" /><path
   inkscape:connector-curvature="0"
   id="path206"
   style="fill:#ffffff;fill-opacity:1;fill-rule:nonzero;stroke:none"
   d="m 191.6172,216.1133 c 0.747,-0.432 0.975,-1.436 0.509,-2.243 -0.466,-0.807 -1.449,-1.111 -2.197,-0.681 -0.748,0.432 -0.975,1.437 -0.509,2.243 0.466,0.808 1.449,1.113 2.197,0.681"
   inkscape:export-xdpi="300"
   inkscape:export-ydpi="300" /><path
   inkscape:connector-curvature="0"
   id="path210"
   style="fill:none;stroke:#000000;stroke-width:0.5;stroke-linecap:butt;stroke-linejoin:miter;stroke-miterlimit:4;stroke-dasharray:none;stroke-opacity:1"
   d="m 191.6172,216.1133 c 0.747,-0.432 0.975,-1.436 0.509,-2.243 -0.466,-0.807 -1.449,-1.111 -2.197,-0.681 -0.748,0.432 -0.975,1.437 -0.509,2.243 0.466,0.808 1.449,1.113 2.197,0.681 z"
   inkscape:export-xdpi="300"
   inkscape:export-ydpi="300" /><path
   inkscape:connector-curvature="0"
   id="path214"
   style="fill:#000000;fill-opacity:1;fill-rule:nonzero;stroke:none"
   d="m 175.4443,215.9941 c 0.747,-0.431 0.976,-1.436 0.51,-2.242 -0.466,-0.807 -1.45,-1.112 -2.198,-0.68 -0.747,0.432 -0.974,1.436 -0.508,2.242 0.466,0.807 1.449,1.112 2.196,0.68"
   inkscape:export-xdpi="300"
   inkscape:export-ydpi="300" /><path
   inkscape:connector-curvature="0"
   id="path218"
   style="fill:none;stroke:#000000;stroke-width:0.5;stroke-linecap:butt;stroke-linejoin:miter;stroke-miterlimit:4;stroke-dasharray:none;stroke-opacity:1"
   d="m 175.4443,215.9941 c 0.747,-0.431 0.976,-1.436 0.51,-2.242 -0.466,-0.807 -1.45,-1.112 -2.198,-0.68 -0.747,0.432 -0.974,1.436 -0.508,2.242 0.466,0.807 1.449,1.112 2.196,0.68 z"
   inkscape:export-xdpi="300"
   inkscape:export-ydpi="300" /><path
   inkscape:connector-curvature="0"
   id="path222"
   style="fill:#000000;fill-opacity:1;fill-rule:nonzero;stroke:none"
   d="m 174.8418,244.2002 c 0.747,-0.432 0.975,-1.437 0.509,-2.243 -0.466,-0.807 -1.449,-1.111 -2.197,-0.68 -0.747,0.432 -0.975,1.436 -0.509,2.242 0.466,0.807 1.45,1.112 2.197,0.681"
   inkscape:export-xdpi="300"
   inkscape:export-ydpi="300" /><path
   inkscape:connector-curvature="0"
   id="path226"
   style="fill:none;stroke:#000000;stroke-width:0.5;stroke-linecap:butt;stroke-linejoin:miter;stroke-miterlimit:4;stroke-dasharray:none;stroke-opacity:1"
   d="m 174.8418,244.2002 c 0.747,-0.432 0.975,-1.437 0.509,-2.243 -0.466,-0.807 -1.449,-1.111 -2.197,-0.68 -0.747,0.432 -0.975,1.436 -0.509,2.242 0.466,0.807 1.45,1.112 2.197,0.681 z"
   inkscape:export-xdpi="300"
   inkscape:export-ydpi="300" /><path
   inkscape:connector-curvature="0"
   id="path230"
   style="fill:none;stroke:#000000;stroke-width:2;stroke-linecap:square;stroke-linejoin:bevel;stroke-miterlimit:10;stroke-dasharray:none;stroke-opacity:1"
   d="m 433.81937,359.92394 c -9.165,-6.874 -11.65492,-19.44209 -3.14492,-27.62509 M 440.505,209.7583 c 17.349,-26.515 33.715,-11.457 32.078,11.456 m -12.111,6.874 c -16.463,-10.199 -64.485,-55.647 -65.139,-7.202 m 11.783,23.896 c 9.493,5.237 16.65475,4.8499 20.58375,-6.9351 m 46.19325,12.8271 c 1.309,15.711 -5.238,17.348 -12.555,17.745 -19.813,1.073 -28.69,-53.752 -53.265,-40.537 m -13.395,22.464 c -0.655,28.151 34.5976,19.52309 44.69584,6.43709 m 4.73116,76.05091 c 23.93518,25.25473 -18.51478,36.46805 -35.88645,38.11064 -25.99413,2.45789 -50.83213,-23.08459 -63.43591,-45.95118 -12.14471,-22.03369 -17.37831,-53.53666 -4.79783,-75.32446 7.98138,-13.82273 18.35919,-34.02 42.90919,-21.254 m -0.328,13.748 c -33.991,22.855 31.658,64.012 48.446,77.25 m 14.075,-0.327 c 14.969,-12.567 24.081,-17.427 40.59,-27.824 8.811,-5.549 19.639,-10.801 21.93,-24.877 1.833,-11.261 -13.006,-20.094 -22.586,-21.93 m -42.60172,121.01354 c 25.26799,20.77809 69.12428,-4.38591 88.32926,-28.66234 18.13561,-22.92467 15.50474,-69.54101 7.14374,-87.40101 -8.925,-19.065 -34.15828,-34.00219 -52.54328,-22.29919"
   sodipodi:nodetypes="ccccccccccccccaaaccccccccacc"
   inkscape:export-xdpi="300"
   inkscape:export-ydpi="300" /><path
   inkscape:connector-curvature="0"
   id="path234"
   style="fill:none;stroke:#000000;stroke-width:0.5;stroke-linecap:butt;stroke-linejoin:miter;stroke-miterlimit:4;stroke-dasharray:none;stroke-opacity:1"
   d="m 439.1855,336.9766 11.051,-11.033 -11.006,-11.108"
   inkscape:export-xdpi="300"
   inkscape:export-ydpi="300" /><path
   inkscape:connector-curvature="0"
   id="path238"
   style="fill:none;stroke:#000000;stroke-width:0.5;stroke-linecap:butt;stroke-linejoin:miter;stroke-miterlimit:4;stroke-dasharray:none;stroke-opacity:1"
   d="m 436.9316,314.5703 -11.361,11.373 11.39,11.314"
   inkscape:export-xdpi="300"
   inkscape:export-ydpi="300" /><path
   inkscape:connector-curvature="0"
   id="path242"
   style="fill:none;stroke:#000000;stroke-width:0.5;stroke-linecap:butt;stroke-linejoin:miter;stroke-miterlimit:4;stroke-dasharray:none;stroke-opacity:1"
   d="m 439.2598,337.168 c -0.609,-0.609 -1.64,-0.57 -2.299,0.089 -0.658,0.658 -0.697,1.688 -0.088,2.298 0.611,0.61 1.639,0.57 2.298,-0.088 0.659,-0.659 0.699,-1.689 0.089,-2.299 z"
   inkscape:export-xdpi="300"
   inkscape:export-ydpi="300" /><path
   inkscape:connector-curvature="0"
   id="path246"
   style="fill:#000000;fill-opacity:1;fill-rule:nonzero;stroke:none"
   d="m 451.4297,324.75 c -0.609,-0.61 -1.64,-0.57 -2.299,0.088 -0.658,0.659 -0.697,1.688 -0.088,2.298 0.611,0.611 1.639,0.571 2.299,-0.088 0.658,-0.659 0.698,-1.688 0.088,-2.298"
   inkscape:export-xdpi="300"
   inkscape:export-ydpi="300" /><path
   inkscape:connector-curvature="0"
   id="path250"
   style="fill:none;stroke:#000000;stroke-width:0.5;stroke-linecap:butt;stroke-linejoin:miter;stroke-miterlimit:4;stroke-dasharray:none;stroke-opacity:1"
   d="m 451.4297,324.75 c -0.609,-0.61 -1.64,-0.57 -2.299,0.088 -0.658,0.659 -0.697,1.688 -0.088,2.298 0.611,0.611 1.639,0.571 2.299,-0.088 0.658,-0.659 0.698,-1.688 0.088,-2.298 z"
   inkscape:export-xdpi="300"
   inkscape:export-ydpi="300" /><path
   inkscape:connector-curvature="0"
   id="path254"
   style="fill:#000000;fill-opacity:1;fill-rule:nonzero;stroke:none"
   d="m 426.7637,324.75 c -0.61,-0.61 -1.64,-0.57 -2.299,0.088 -0.658,0.659 -0.698,1.687 -0.088,2.298 0.611,0.611 1.64,0.571 2.299,-0.088 0.658,-0.659 0.698,-1.688 0.088,-2.298"
   inkscape:export-xdpi="300"
   inkscape:export-ydpi="300" /><path
   inkscape:connector-curvature="0"
   id="path258"
   style="fill:none;stroke:#000000;stroke-width:0.5;stroke-linecap:butt;stroke-linejoin:miter;stroke-miterlimit:4;stroke-dasharray:none;stroke-opacity:1"
   d="m 426.7637,324.75 c -0.61,-0.61 -1.64,-0.57 -2.299,0.088 -0.658,0.659 -0.698,1.687 -0.088,2.298 0.611,0.611 1.64,0.571 2.299,-0.088 0.658,-0.659 0.698,-1.688 0.088,-2.298 z"
   inkscape:export-xdpi="300"
   inkscape:export-ydpi="300" /><path
   inkscape:connector-curvature="0"
   id="path262"
   style="fill:none;stroke:#000000;stroke-width:0.5;stroke-linecap:butt;stroke-linejoin:miter;stroke-miterlimit:4;stroke-dasharray:none;stroke-opacity:1"
   d="m 439.3926,312.375 c -0.611,-0.61 -1.64,-0.57 -2.299,0.089 -0.658,0.658 -0.699,1.687 -0.088,2.298 0.611,0.61 1.639,0.57 2.298,-0.088 0.659,-0.659 0.698,-1.689 0.089,-2.299 z"
   inkscape:export-xdpi="300"
   inkscape:export-ydpi="300" /><path
   inkscape:connector-curvature="0"
   id="path266"
   style="fill:none;stroke:#000000;stroke-width:0.5;stroke-linecap:butt;stroke-linejoin:miter;stroke-miterlimit:4;stroke-dasharray:none;stroke-opacity:1"
   d="m 402.2568,221.4639 -14.794,-0.141 -7.538,12.962"
   inkscape:export-xdpi="300"
   inkscape:export-ydpi="300" /><path
   inkscape:connector-curvature="0"
   id="path270"
   style="fill:none;stroke:#000000;stroke-width:0.5;stroke-linecap:butt;stroke-linejoin:miter;stroke-miterlimit:4;stroke-dasharray:none;stroke-opacity:1"
   d="m 404.291,248.3633 7.42,-12.607 -7.113,-12.755"
   inkscape:export-xdpi="300"
   inkscape:export-ydpi="300" /><path
   inkscape:connector-curvature="0"
   id="path274"
   style="fill:none;stroke:#000000;stroke-width:0.5;stroke-linecap:butt;stroke-linejoin:miter;stroke-miterlimit:4;stroke-dasharray:none;stroke-opacity:1"
   d="m 380.0156,237.1924 7.071,12.348 14.715,0.26"
   inkscape:export-xdpi="300"
   inkscape:export-ydpi="300" /><path
   inkscape:connector-curvature="0"
   id="path278"
   style="fill:none;stroke:#000000;stroke-width:0.5;stroke-linecap:butt;stroke-linejoin:miter;stroke-miterlimit:4;stroke-dasharray:none;stroke-opacity:1"
   d="m 404.1797,251.1699 c 0.747,-0.431 0.976,-1.437 0.51,-2.243 -0.466,-0.807 -1.45,-1.111 -2.198,-0.68 -0.747,0.432 -0.975,1.436 -0.509,2.242 0.466,0.807 1.45,1.113 2.197,0.681 z"
   inkscape:export-xdpi="300"
   inkscape:export-ydpi="300" /><path
   inkscape:connector-curvature="0"
   id="path282"
   style="fill:#000000;fill-opacity:1;fill-rule:nonzero;stroke:none"
   d="m 412.7539,237.2705 c 0.747,-0.432 0.975,-1.436 0.509,-2.242 -0.466,-0.807 -1.449,-1.112 -2.197,-0.68 -0.747,0.431 -0.975,1.436 -0.509,2.242 0.466,0.807 1.45,1.112 2.197,0.68"
   inkscape:export-xdpi="300"
   inkscape:export-ydpi="300" /><path
   inkscape:connector-curvature="0"
   id="path286"
   style="fill:none;stroke:#000000;stroke-width:0.5;stroke-linecap:butt;stroke-linejoin:miter;stroke-miterlimit:4;stroke-dasharray:none;stroke-opacity:1"
   d="m 412.7539,237.2705 c 0.747,-0.432 0.975,-1.436 0.509,-2.242 -0.466,-0.807 -1.449,-1.112 -2.197,-0.68 -0.747,0.431 -0.975,1.436 -0.509,2.242 0.466,0.807 1.45,1.112 2.197,0.68 z"
   inkscape:export-xdpi="300"
   inkscape:export-ydpi="300" /><path
   inkscape:connector-curvature="0"
   id="path290"
   style="fill:none;stroke:#000000;stroke-width:0.5;stroke-linecap:butt;stroke-linejoin:miter;stroke-miterlimit:4;stroke-dasharray:none;stroke-opacity:1"
   d="m 380.2324,237.0674 c 0.747,-0.432 0.975,-1.437 0.509,-2.243 -0.466,-0.808 -1.449,-1.112 -2.197,-0.681 -0.747,0.432 -0.975,1.436 -0.509,2.243 0.466,0.807 1.45,1.112 2.197,0.681 z"
   inkscape:export-xdpi="300"
   inkscape:export-ydpi="300" /><path
   inkscape:connector-curvature="0"
   id="path294"
   style="fill:none;stroke:#000000;stroke-width:0.5;stroke-linecap:butt;stroke-linejoin:miter;stroke-miterlimit:4;stroke-dasharray:none;stroke-opacity:1"
   d="m 404.5977,223.001 c 0.747,-0.432 0.975,-1.436 0.509,-2.243 -0.466,-0.807 -1.449,-1.111 -2.197,-0.681 -0.748,0.432 -0.975,1.437 -0.509,2.243 0.466,0.808 1.449,1.113 2.197,0.681 z"
   inkscape:export-xdpi="300"
   inkscape:export-ydpi="300" /><path
   inkscape:connector-curvature="0"
   id="path298"
   style="fill:#000000;fill-opacity:1;fill-rule:nonzero;stroke:none"
   d="m 388.4248,222.8818 c 0.747,-0.431 0.976,-1.436 0.51,-2.242 -0.466,-0.807 -1.45,-1.112 -2.198,-0.68 -0.747,0.432 -0.974,1.436 -0.508,2.242 0.466,0.807 1.449,1.112 2.196,0.68"
   inkscape:export-xdpi="300"
   inkscape:export-ydpi="300" /><path
   inkscape:connector-curvature="0"
   id="path302"
   style="fill:none;stroke:#000000;stroke-width:0.5;stroke-linecap:butt;stroke-linejoin:miter;stroke-miterlimit:4;stroke-dasharray:none;stroke-opacity:1"
   d="m 388.4248,222.8818 c 0.747,-0.431 0.976,-1.436 0.51,-2.242 -0.466,-0.807 -1.45,-1.112 -2.198,-0.68 -0.747,0.432 -0.974,1.436 -0.508,2.242 0.466,0.807 1.449,1.112 2.196,0.68 z"
   inkscape:export-xdpi="300"
   inkscape:export-ydpi="300" /><path
   inkscape:connector-curvature="0"
   id="path306"
   style="fill:#000000;fill-opacity:1;fill-rule:nonzero;stroke:none"
   d="m 387.8223,251.0879 c 0.747,-0.432 0.975,-1.437 0.509,-2.243 -0.466,-0.807 -1.449,-1.111 -2.197,-0.68 -0.747,0.432 -0.975,1.436 -0.509,2.242 0.466,0.807 1.45,1.112 2.197,0.681"
   inkscape:export-xdpi="300"
   inkscape:export-ydpi="300" /><path
   inkscape:connector-curvature="0"
   id="path310"
   style="fill:none;stroke:#000000;stroke-width:0.5;stroke-linecap:butt;stroke-linejoin:miter;stroke-miterlimit:4;stroke-dasharray:none;stroke-opacity:1"
   d="m 387.8223,251.0879 c 0.747,-0.432 0.975,-1.437 0.509,-2.243 -0.466,-0.807 -1.449,-1.111 -2.197,-0.68 -0.747,0.432 -0.975,1.436 -0.509,2.242 0.466,0.807 1.45,1.112 2.197,0.681 z"
   inkscape:export-xdpi="300"
   inkscape:export-ydpi="300" /><path
   inkscape:connector-curvature="0"
   id="path314"
   style="fill:none;stroke:#000000;stroke-width:0.5;stroke-linecap:butt;stroke-linejoin:miter;stroke-miterlimit:4;stroke-dasharray:none;stroke-opacity:1"
   d="m 479.7568,222.0039 -14.794,-0.141 -7.538,12.962"
   inkscape:export-xdpi="300"
   inkscape:export-ydpi="300" /><path
   inkscape:connector-curvature="0"
   id="path318"
   style="fill:none;stroke:#000000;stroke-width:0.5;stroke-linecap:butt;stroke-linejoin:miter;stroke-miterlimit:4;stroke-dasharray:none;stroke-opacity:1"
   d="m 481.791,248.9033 7.42,-12.607 -7.113,-12.755"
   inkscape:export-xdpi="300"
   inkscape:export-ydpi="300" /><path
   inkscape:connector-curvature="0"
   id="path322"
   style="fill:none;stroke:#000000;stroke-width:0.5;stroke-linecap:butt;stroke-linejoin:miter;stroke-miterlimit:4;stroke-dasharray:none;stroke-opacity:1"
   d="m 457.5156,237.7324 7.071,12.348 14.715,0.26"
   inkscape:export-xdpi="300"
   inkscape:export-ydpi="300" /><path
   inkscape:connector-curvature="0"
   id="path326"
   style="fill:none;stroke:#000000;stroke-width:0.5;stroke-linecap:butt;stroke-linejoin:miter;stroke-miterlimit:4;stroke-dasharray:none;stroke-opacity:1"
   d="m 481.6797,251.71 c 0.747,-0.431 0.976,-1.437 0.51,-2.243 -0.466,-0.807 -1.45,-1.111 -2.198,-0.68 -0.747,0.432 -0.975,1.436 -0.509,2.242 0.466,0.807 1.45,1.113 2.197,0.681 z"
   inkscape:export-xdpi="300"
   inkscape:export-ydpi="300" /><path
   inkscape:connector-curvature="0"
   id="path330"
   style="fill:#000000;fill-opacity:1;fill-rule:nonzero;stroke:none"
   d="m 490.2539,237.8105 c 0.747,-0.432 0.975,-1.436 0.509,-2.242 -0.466,-0.807 -1.449,-1.112 -2.197,-0.68 -0.747,0.431 -0.975,1.436 -0.509,2.242 0.466,0.807 1.45,1.112 2.197,0.68"
   inkscape:export-xdpi="300"
   inkscape:export-ydpi="300" /><path
   inkscape:connector-curvature="0"
   id="path334"
   style="fill:none;stroke:#000000;stroke-width:0.5;stroke-linecap:butt;stroke-linejoin:miter;stroke-miterlimit:4;stroke-dasharray:none;stroke-opacity:1"
   d="m 490.2539,237.8105 c 0.747,-0.432 0.975,-1.436 0.509,-2.242 -0.466,-0.807 -1.449,-1.112 -2.197,-0.68 -0.747,0.431 -0.975,1.436 -0.509,2.242 0.466,0.807 1.45,1.112 2.197,0.68 z"
   inkscape:export-xdpi="300"
   inkscape:export-ydpi="300" /><path
   inkscape:connector-curvature="0"
   id="path338"
   style="fill:none;stroke:#000000;stroke-width:0.5;stroke-linecap:butt;stroke-linejoin:miter;stroke-miterlimit:4;stroke-dasharray:none;stroke-opacity:1"
   d="m 457.7324,237.6074 c 0.747,-0.432 0.975,-1.437 0.509,-2.243 -0.466,-0.808 -1.449,-1.112 -2.197,-0.681 -0.747,0.432 -0.975,1.436 -0.509,2.243 0.466,0.807 1.45,1.112 2.197,0.681 z"
   inkscape:export-xdpi="300"
   inkscape:export-ydpi="300" /><path
   inkscape:connector-curvature="0"
   id="path342"
   style="fill:none;stroke:#000000;stroke-width:0.5;stroke-linecap:butt;stroke-linejoin:miter;stroke-miterlimit:4;stroke-dasharray:none;stroke-opacity:1"
   d="m 482.0977,223.541 c 0.747,-0.432 0.975,-1.436 0.509,-2.243 -0.466,-0.807 -1.449,-1.111 -2.197,-0.681 -0.748,0.432 -0.975,1.437 -0.509,2.243 0.466,0.808 1.449,1.113 2.197,0.681 z"
   inkscape:export-xdpi="300"
   inkscape:export-ydpi="300" /><path
   inkscape:connector-curvature="0"
   id="path346"
   style="fill:#000000;fill-opacity:1;fill-rule:nonzero;stroke:none"
   d="m 465.9248,223.4219 c 0.747,-0.431 0.976,-1.436 0.51,-2.242 -0.466,-0.807 -1.45,-1.112 -2.198,-0.68 -0.747,0.432 -0.974,1.436 -0.508,2.242 0.466,0.807 1.449,1.112 2.196,0.68"
   inkscape:export-xdpi="300"
   inkscape:export-ydpi="300" /><path
   inkscape:connector-curvature="0"
   id="path350"
   style="fill:none;stroke:#000000;stroke-width:0.5;stroke-linecap:butt;stroke-linejoin:miter;stroke-miterlimit:4;stroke-dasharray:none;stroke-opacity:1"
   d="m 465.9248,223.4219 c 0.747,-0.431 0.976,-1.436 0.51,-2.242 -0.466,-0.807 -1.45,-1.112 -2.198,-0.68 -0.747,0.432 -0.974,1.436 -0.508,2.242 0.466,0.807 1.449,1.112 2.196,0.68 z"
   inkscape:export-xdpi="300"
   inkscape:export-ydpi="300" /><path
   inkscape:connector-curvature="0"
   id="path354"
   style="fill:#000000;fill-opacity:1;fill-rule:nonzero;stroke:none"
   d="m 465.3223,251.6279 c 0.747,-0.432 0.975,-1.437 0.509,-2.243 -0.466,-0.807 -1.449,-1.111 -2.197,-0.68 -0.747,0.432 -0.975,1.436 -0.509,2.242 0.466,0.807 1.45,1.112 2.197,0.681"
   inkscape:export-xdpi="300"
   inkscape:export-ydpi="300" /><path
   inkscape:connector-curvature="0"
   id="path358"
   style="fill:none;stroke:#000000;stroke-width:0.5;stroke-linecap:butt;stroke-linejoin:miter;stroke-miterlimit:4;stroke-dasharray:none;stroke-opacity:1"
   d="m 465.3223,251.6279 c 0.747,-0.432 0.975,-1.437 0.509,-2.243 -0.466,-0.807 -1.449,-1.111 -2.197,-0.68 -0.747,0.432 -0.975,1.436 -0.509,2.242 0.466,0.807 1.45,1.112 2.197,0.681 z"
   inkscape:export-xdpi="300"
   inkscape:export-ydpi="300" /><path
   inkscape:connector-curvature="0"
   id="path362"
   style="fill:none;stroke:#000000;stroke-width:2;stroke-linecap:square;stroke-linejoin:bevel;stroke-miterlimit:10;stroke-dasharray:none;stroke-opacity:1"
   d="m 445.7422,251.001 c 4.256,-3.601 6.546,-5.237 14.402,-7.528"
   inkscape:export-xdpi="300"
   inkscape:export-ydpi="300" /><path
   inkscape:connector-curvature="0"
   id="path366"
   style="fill:none;stroke:#000000;stroke-width:2;stroke-linecap:square;stroke-linejoin:bevel;stroke-miterlimit:10;stroke-dasharray:none;stroke-opacity:1"
   d="m 430.5453,229.40716 c 1.97357,-5.40628 3.53107,-9.43363 6.0306,-13.43056"
   sodipodi:nodetypes="cc"
   inkscape:export-xdpi="300"
   inkscape:export-ydpi="300" /><text
   transform="scale(1,-1)"
   style="font-style:italic;font-variant:normal;font-weight:normal;font-stretch:normal;font-size:15px;font-family:Arial;-inkscape-font-specification:Arial-ItalicMT;writing-mode:lr-tb;fill:#000000;fill-opacity:1;fill-rule:nonzero;stroke:none"
   id="text370"
   x="156.80029"
   y="-170.09081"
   inkscape:export-xdpi="300"
   inkscape:export-ydpi="300"><tspan
     x="156.80029 170.5553 443.9903 459.32028"
     y="-170.09081"
     sodipodi:role="line"
     id="tspan368">Ж Ю </tspan></text>
<text
   xml:space="preserve"
   style="font-style:normal;font-variant:normal;font-weight:normal;font-stretch:normal;font-size:10px;line-height:1.25;font-family:'Adobe Garamond Pro';-inkscape-font-specification:'Adobe Garamond Pro, Normal';font-variant-ligatures:normal;font-variant-caps:normal;font-variant-numeric:normal;font-feature-settings:normal;text-align:start;letter-spacing:0px;word-spacing:0px;writing-mode:lr-tb;text-anchor:start;fill:#000000;fill-opacity:1;stroke:none;stroke-width:0.75"
   x="101.90606"
   y="-227.4519"
   id="text5305"
   transform="scale(1,-1)"
   inkscape:export-xdpi="300"
   inkscape:export-ydpi="300"><tspan
     sodipodi:role="line"
     id="tspan5303"
     x="101.90606"
     y="-227.4519"
     style="font-style:normal;font-variant:normal;font-weight:normal;font-stretch:normal;font-size:14px;font-family:Arial;-inkscape-font-specification:Arial;stroke-width:0.75">p</tspan></text>
<text
   xml:space="preserve"
   style="font-style:normal;font-variant:normal;font-weight:normal;font-stretch:normal;font-size:10px;line-height:1.25;font-family:'Adobe Garamond Pro';-inkscape-font-specification:'Adobe Garamond Pro, Normal';font-variant-ligatures:normal;font-variant-caps:normal;font-variant-numeric:normal;font-feature-settings:normal;text-align:start;letter-spacing:0px;word-spacing:0px;writing-mode:lr-tb;text-anchor:start;fill:#000000;fill-opacity:1;stroke:none;stroke-width:0.75"
   x="391.61615"
   y="239.27632"
   id="text5309"
   inkscape:export-xdpi="300"
   inkscape:export-ydpi="300"><tspan
     sodipodi:role="line"
     id="tspan5307"
     x="391.61615"
     y="239.27632"
     style="font-style:normal;font-variant:normal;font-weight:normal;font-stretch:normal;font-size:14px;line-height:1.25;font-family:Arial;-inkscape-font-specification:Arial;font-variant-ligatures:normal;font-variant-position:normal;font-variant-caps:normal;font-variant-numeric:normal;font-variant-alternates:normal;font-feature-settings:normal;text-indent:0;text-align:start;text-decoration:none;text-decoration-line:none;text-decoration-style:solid;text-decoration-color:#000000;letter-spacing:0px;word-spacing:0px;text-transform:none;writing-mode:lr-tb;direction:ltr;text-orientation:mixed;dominant-baseline:auto;baseline-shift:baseline;text-anchor:start;white-space:normal;shape-padding:0;opacity:1;vector-effect:none;fill:#000000;fill-opacity:1;stroke:none;stroke-width:0.5625;stroke-linecap:butt;stroke-linejoin:miter;stroke-miterlimit:4;stroke-dasharray:none;stroke-dashoffset:0;stroke-opacity:1">p</tspan></text>
<text
   xml:space="preserve"
   style="font-style:normal;font-variant:normal;font-weight:normal;font-stretch:normal;font-size:14px;line-height:1.25;font-family:Arial;-inkscape-font-specification:Arial;font-variant-ligatures:normal;font-variant-caps:normal;font-variant-numeric:normal;font-feature-settings:normal;text-align:start;letter-spacing:0px;word-spacing:0px;writing-mode:lr-tb;text-anchor:start;fill:#000000;fill-opacity:1;stroke:none;stroke-width:0.75"
   x="178.22337"
   y="-224.46268"
   id="text5313"
   transform="scale(1,-1)"
   inkscape:export-xdpi="300"
   inkscape:export-ydpi="300"><tspan
     sodipodi:role="line"
     id="tspan5311"
     x="178.22337"
     y="-224.46268"
     style="font-size:14px;stroke-width:0.75">S</tspan></text>
<text
   xml:space="preserve"
   style="font-style:normal;font-variant:normal;font-weight:normal;font-stretch:normal;font-size:14px;line-height:1.25;font-family:Arial;-inkscape-font-specification:Arial;font-variant-ligatures:normal;font-variant-caps:normal;font-variant-numeric:normal;font-feature-settings:normal;text-align:start;letter-spacing:0px;word-spacing:0px;writing-mode:lr-tb;text-anchor:start;fill:#000000;fill-opacity:1;stroke:none;stroke-width:0.75"
   x="468.10074"
   y="-231.12399"
   id="text5313-1"
   transform="scale(1,-1)"
   inkscape:export-xdpi="300"
   inkscape:export-ydpi="300"><tspan
     sodipodi:role="line"
     id="tspan5311-4"
     x="468.10074"
     y="-231.12399"
     style="font-size:14px;stroke-width:0.75">S</tspan></text>
<path
   style="fill:none;stroke:#000000;stroke-width:1.8;stroke-linecap:butt;stroke-linejoin:miter;stroke-miterlimit:4;stroke-dasharray:none;stroke-opacity:1;marker-start:url(#Arrow1Mstart);marker-end:url(#Arrow1Mend)"
   d="m 266.662,276.82053 52.06258,1.26983"
   id="path5343"
   inkscape:connector-curvature="0"
   inkscape:export-xdpi="300"
   inkscape:export-ydpi="300" /></g></svg>
