<?xml version="1.0" encoding="UTF-8" standalone="no"?>
<svg
   xmlns:dc="http://purl.org/dc/elements/1.1/"
   xmlns:cc="http://creativecommons.org/ns#"
   xmlns:rdf="http://www.w3.org/1999/02/22-rdf-syntax-ns#"
   xmlns:svg="http://www.w3.org/2000/svg"
   xmlns="http://www.w3.org/2000/svg"
   xmlns:sodipodi="http://sodipodi.sourceforge.net/DTD/sodipodi-0.dtd"
   xmlns:inkscape="http://www.inkscape.org/namespaces/inkscape"
   version="1.1"
   id="svg2"
   xml:space="preserve"
   width="686.41132"
   height="314.10178"
   viewBox="0 0 686.41131 314.10177"
   sodipodi:docname="voltface.svg"
   inkscape:version="1.0.2-2 (e86c870879, 2021-01-15)"><metadata
     id="metadata8"><rdf:RDF><cc:Work
         rdf:about=""><dc:format>image/svg+xml</dc:format><dc:type
           rdf:resource="http://purl.org/dc/dcmitype/StillImage" /><dc:title></dc:title></cc:Work></rdf:RDF></metadata><defs
     id="defs6" /><sodipodi:namedview
     pagecolor="#ffffff"
     bordercolor="#666666"
     borderopacity="1"
     objecttolerance="10"
     gridtolerance="10"
     guidetolerance="10"
     inkscape:pageopacity="0"
     inkscape:pageshadow="2"
     inkscape:window-width="1920"
     inkscape:window-height="1001"
     id="namedview4"
     showgrid="false"
     inkscape:zoom="0.85695603"
     inkscape:cx="478.74351"
     inkscape:cy="97.760405"
     inkscape:window-x="-9"
     inkscape:window-y="-9"
     inkscape:window-maximized="1"
     inkscape:current-layer="g10"
     inkscape:document-rotation="0"
     fit-margin-top="2"
     fit-margin-left="2"
     fit-margin-right="2"
     fit-margin-bottom="2" /><g
     id="g10"
     inkscape:groupmode="layer"
     inkscape:label="voltface"
     transform="matrix(1.3333333,0,0,-1.3333333,-51.074866,636.01359)"><g
       id="g74642"
       transform="matrix(0.8,0,0,0.8,32.962154,71.844408)"><path
         d="m 312.71575,416.37601 0.13081,-114.0142 -86.52982,-80.70535 -122.50255,-0.12209 -86.713758,80.53489 -0.130813,114.01261 86.529821,80.70655 122.50136,0.1209 z"
         style="fill:none;stroke:#231f20;stroke-width:0.81185;stroke-linecap:butt;stroke-linejoin:miter;stroke-miterlimit:4;stroke-dasharray:none;stroke-opacity:1"
         id="path48" /><path
         d="m 111.39468,496.78838 c 0,-4.05863 -3.5344,-7.3482 -7.89524,-7.3482 -4.36021,0 -7.895246,3.28957 -7.895246,7.3482 0,4.05829 3.535036,7.34787 7.895246,7.34787 4.36084,0 7.89524,-3.28958 7.89524,-7.34787 z"
         style="fill:#ffffff;fill-opacity:1;fill-rule:nonzero;stroke:#231f20;stroke-width:0.64948;stroke-linecap:butt;stroke-linejoin:miter;stroke-miterlimit:4;stroke-dasharray:none;stroke-opacity:1"
         id="path50" /><path
         d="m 233.89604,496.90932 c 0,-4.0583 -3.53472,-7.34819 -7.89524,-7.34819 -4.36052,0 -7.89525,3.28989 -7.89525,7.34819 0,4.0583 3.53473,7.34819 7.89525,7.34819 4.36052,0 7.89524,-3.28989 7.89524,-7.34819 z"
         style="fill:#ffffff;fill-opacity:1;fill-rule:nonzero;stroke:#231f20;stroke-width:0.64948;stroke-linecap:butt;stroke-linejoin:miter;stroke-miterlimit:4;stroke-dasharray:none;stroke-opacity:1"
         id="path52" /><path
         d="m 320.7418,414.24173 c 0,-4.0583 -3.53471,-7.34819 -7.89524,-7.34819 -4.36052,0 -7.89524,3.28989 -7.89524,7.34819 0,4.05831 3.53472,7.3482 7.89524,7.3482 4.36053,0 7.89524,-3.28989 7.89524,-7.3482 z"
         style="fill:#ffffff;fill-opacity:1;fill-rule:nonzero;stroke:#231f20;stroke-width:0.64948;stroke-linecap:butt;stroke-linejoin:miter;stroke-miterlimit:4;stroke-dasharray:none;stroke-opacity:1"
         id="path54" /><path
         d="m 320.7418,302.36189 c 0,-4.05862 -3.53471,-7.34788 -7.89524,-7.34788 -4.36052,0 -7.89524,3.28926 -7.89524,7.34788 0,4.05798 3.53472,7.34851 7.89524,7.34851 4.36053,0 7.89524,-3.29054 7.89524,-7.34851 z"
         style="fill:#ffffff;fill-opacity:1;fill-rule:nonzero;stroke:#231f20;stroke-width:0.64948;stroke-linecap:butt;stroke-linejoin:miter;stroke-miterlimit:4;stroke-dasharray:none;stroke-opacity:1"
         id="path56" /><path
         d="m 234.21198,221.65638 c 0,-4.05862 -3.53472,-7.34851 -7.89524,-7.34851 -4.36084,0 -7.89525,3.28989 -7.89525,7.34851 0,4.05862 3.53441,7.34787 7.89525,7.34787 4.36052,0 7.89524,-3.28925 7.89524,-7.34787 z"
         style="fill:#ffffff;fill-opacity:1;fill-rule:nonzero;stroke:#231f20;stroke-width:0.64948;stroke-linecap:butt;stroke-linejoin:miter;stroke-miterlimit:4;stroke-dasharray:none;stroke-opacity:1"
         id="path58" /><path
         d="m 111.70943,221.53445 c 0,-4.05863 -3.5344,-7.34788 -7.89524,-7.34788 -4.360207,0 -7.895243,3.28925 -7.895243,7.34788 0,4.05925 3.535036,7.3485 7.895243,7.3485 4.36084,0 7.89524,-3.28925 7.89524,-7.3485 z"
         style="fill:#ffffff;fill-opacity:1;fill-rule:nonzero;stroke:#231f20;stroke-width:0.64948;stroke-linecap:butt;stroke-linejoin:miter;stroke-miterlimit:4;stroke-dasharray:none;stroke-opacity:1"
         id="path60" /><path
         d="m 24.67022,304.01889 c 0,-4.05798 -3.534717,-7.34787 -7.895242,-7.34787 -4.360525,0 -7.8952424,3.28989 -7.8952424,7.34787 0,4.05862 3.5347174,7.34851 7.8952424,7.34851 4.360525,0 7.895242,-3.28989 7.895242,-7.34851 z"
         style="fill:#ffffff;fill-opacity:1;fill-rule:nonzero;stroke:#231f20;stroke-width:0.64948;stroke-linecap:butt;stroke-linejoin:miter;stroke-miterlimit:4;stroke-dasharray:none;stroke-opacity:1"
         id="path62" /><path
         d="m 24.864861,416.08195 c 0,-4.0583 -3.534405,-7.34787 -7.895242,-7.34787 -4.360206,0 -7.8952423,3.28957 -7.8952423,7.34787 0,4.05894 3.5350363,7.34852 7.8952423,7.34852 4.360837,0 7.895242,-3.28958 7.895242,-7.34852 z"
         style="fill:#ffffff;fill-opacity:1;fill-rule:nonzero;stroke:#231f20;stroke-width:0.64948;stroke-linecap:butt;stroke-linejoin:miter;stroke-miterlimit:4;stroke-dasharray:none;stroke-opacity:1"
         id="path64" /><path
         d="m 113.30467,346.46494 1.39973,40.24326 31.56423,27.53353 43.23816,-1.30221 29.58377,-29.37684 -1.39973,-40.24327 -31.56226,-27.53353 -43.24053,1.30181 z"
         style="fill:none;stroke:#231f20;stroke-width:0.81185;stroke-linecap:butt;stroke-linejoin:miter;stroke-miterlimit:4;stroke-dasharray:none;stroke-opacity:1"
         id="path66" /><path
         d="m 119.63893,383.41719 c 0,-2.53663 -2.20921,-4.59242 -4.93453,-4.59242 -2.72573,0 -4.93453,2.05579 -4.93453,4.59242 0,2.53664 2.2088,4.59283 4.93453,4.59283 2.72532,0 4.93453,-2.05619 4.93453,-4.59283 z"
         style="fill:#ffffff;fill-opacity:1;fill-rule:nonzero;stroke:#231f20;stroke-width:0.81185;stroke-linecap:butt;stroke-linejoin:miter;stroke-miterlimit:4;stroke-dasharray:none;stroke-opacity:1"
         id="path68" /><path
         d="m 149.45855,413.73155 c 0,-2.53624 -2.2088,-4.59242 -4.93452,-4.59242 -2.72493,0 -4.93453,2.05618 -4.93453,4.59242 0,2.53664 2.2096,4.59242 4.93453,4.59242 2.72572,0 4.93452,-2.05578 4.93452,-4.59242 z"
         style="fill:#ffffff;fill-opacity:1;fill-rule:nonzero;stroke:#231f20;stroke-width:0.81185;stroke-linecap:butt;stroke-linejoin:miter;stroke-miterlimit:4;stroke-dasharray:none;stroke-opacity:1"
         id="path70" /><path
         d="m 194.41793,317.79727 c 0,-2.53703 -2.2092,-4.59282 -4.93452,-4.59282 -2.72534,0 -4.93453,2.05579 -4.93453,4.59282 0,2.53703 2.20919,4.59202 4.93453,4.59202 2.72532,0 4.93452,-2.05499 4.93452,-4.59202 z"
         style="fill:#ffffff;fill-opacity:1;fill-rule:nonzero;stroke:#231f20;stroke-width:0.81185;stroke-linecap:butt;stroke-linejoin:miter;stroke-miterlimit:4;stroke-dasharray:none;stroke-opacity:1"
         id="path72" /><path
         d="m 222.62536,340.0288 c 0,-2.53663 -2.2088,-4.59281 -4.93453,-4.59281 -2.72533,0 -4.93452,2.05618 -4.93452,4.59281 0,2.53663 2.20919,4.59282 4.93452,4.59282 2.72573,0 4.93453,-2.05619 4.93453,-4.59282 z"
         style="fill:#ffffff;fill-opacity:1;fill-rule:nonzero;stroke:#231f20;stroke-width:0.81185;stroke-linecap:butt;stroke-linejoin:miter;stroke-miterlimit:4;stroke-dasharray:none;stroke-opacity:1"
         id="path74" /><path
         d="m 224.02509,382.09358 c 0,-2.53664 -2.2092,-4.59243 -4.93453,-4.59243 -2.72533,0 -4.93453,2.05579 -4.93453,4.59243 0,2.53663 2.2092,4.59282 4.93453,4.59282 2.72533,0 4.93453,-2.05619 4.93453,-4.59282 z"
         style="fill:#ffffff;fill-opacity:1;fill-rule:nonzero;stroke:#231f20;stroke-width:0.81185;stroke-linecap:butt;stroke-linejoin:miter;stroke-miterlimit:4;stroke-dasharray:none;stroke-opacity:1"
         id="path76" /><path
         d="m 195.5144,413.73155 c 0,-2.53624 -2.2092,-4.59242 -4.93453,-4.59242 -2.72532,0 -4.93452,2.05618 -4.93452,4.59242 0,2.53664 2.2092,4.59242 4.93452,4.59242 2.72533,0 4.93453,-2.05578 4.93453,-4.59242 z"
         style="fill:#ffffff;fill-opacity:1;fill-rule:nonzero;stroke:#231f20;stroke-width:0.81185;stroke-linecap:butt;stroke-linejoin:miter;stroke-miterlimit:4;stroke-dasharray:none;stroke-opacity:1"
         id="path78" /><path
         d="m 118.23919,343.17393 c 0,-2.53664 -2.20959,-4.59282 -4.93452,-4.59282 -2.72532,0 -4.93453,2.05618 -4.93453,4.59282 0,2.53703 2.20921,4.59282 4.93453,4.59282 2.72493,0 4.93452,-2.05579 4.93452,-4.59282 z"
         style="fill:#ffffff;fill-opacity:1;fill-rule:nonzero;stroke:#231f20;stroke-width:0.81185;stroke-linecap:butt;stroke-linejoin:miter;stroke-miterlimit:4;stroke-dasharray:none;stroke-opacity:1"
         id="path80" /><path
         d="m 145.07266,317.79727 c 0,-2.53703 -2.20919,-4.59282 -4.93452,-4.59282 -2.72533,0 -4.93453,2.05579 -4.93453,4.59282 0,2.53703 2.2092,4.59202 4.93453,4.59202 2.72533,0 4.93452,-2.05499 4.93452,-4.59202 z"
         style="fill:#ffffff;fill-opacity:1;fill-rule:nonzero;stroke:#231f20;stroke-width:0.81185;stroke-linecap:butt;stroke-linejoin:miter;stroke-miterlimit:4;stroke-dasharray:none;stroke-opacity:1"
         id="path82" /><path
         d="m 135.54674,282.57941 c 14.63748,-0.88399 29.26403,7.46035 29.26403,33.68692"
         style="fill:none;stroke:#231f20;stroke-width:2.43555;stroke-linecap:butt;stroke-linejoin:miter;stroke-miterlimit:4;stroke-dasharray:none;stroke-opacity:1"
         id="path84"
         sodipodi:nodetypes="cc" /><path
         d="M 81.185184,388.87235 C 87.19121,372.31267 95.807871,359.13067 114.36903,359.13067"
         style="fill:none;stroke:#231f20;stroke-width:2.43555;stroke-linecap:butt;stroke-linejoin:miter;stroke-miterlimit:4;stroke-dasharray:none;stroke-opacity:1"
         id="path86"
         sodipodi:nodetypes="cc" /><path
         d="m 60.271592,455.85976 c 8.041197,-7.48425 10.774564,-32.0675 15.860123,-53.45626"
         style="fill:none;stroke:#231f20;stroke-width:2.43555;stroke-linecap:butt;stroke-linejoin:miter;stroke-miterlimit:4;stroke-dasharray:none;stroke-opacity:1"
         id="path88"
         sodipodi:nodetypes="cc" /><path
         d="m 75.147974,311.96287 c 13.460929,-9.96102 26.609496,-27.34635 44.597276,-28.26625"
         style="fill:none;stroke:#231f20;stroke-width:2.43555;stroke-linecap:butt;stroke-linejoin:miter;stroke-miterlimit:4;stroke-dasharray:none;stroke-opacity:1"
         id="path90"
         sodipodi:nodetypes="cc" /><path
         d="m 16.774978,359.13067 c 26.385924,0 16.106643,-15.31939 48.933851,-40.91487"
         style="fill:none;stroke:#231f20;stroke-width:2.43555;stroke-linecap:butt;stroke-linejoin:miter;stroke-miterlimit:4;stroke-dasharray:none;stroke-opacity:1"
         id="path92"
         sodipodi:nodetypes="cc" /><path
         d="m 130.30398,400.69608 c -14.5722,21.66304 -39.281633,6.63714 -52.043101,-5.24318 -14.188833,-13.20913 -10.148824,-43.73848 -9.947692,-57.29991 0.476491,-32.13785 9.618126,-63.47257 -6.578836,-77.22408"
         style="fill:none;stroke:#231f20;stroke-width:2.43555;stroke-linecap:butt;stroke-linejoin:miter;stroke-miterlimit:4;stroke-dasharray:none;stroke-opacity:1"
         id="path94"
         sodipodi:nodetypes="cacc" /><path
         d="M 128.25849,331.34819 C 82.934023,292.17325 165.54175,270.85267 165.54175,221.8063"
         style="fill:none;stroke:#231f20;stroke-width:2.43555;stroke-linecap:butt;stroke-linejoin:miter;stroke-miterlimit:4;stroke-dasharray:none;stroke-opacity:1"
         id="path96" /><path
         d="m 248.65206,321.11773 c -9.67838,-10.25833 -24.97043,-9.01622 -44.89564,9.52868"
         style="fill:none;stroke:#231f20;stroke-width:2.43555;stroke-linecap:butt;stroke-linejoin:miter;stroke-miterlimit:4;stroke-dasharray:none;stroke-opacity:1"
         id="path98"
         sodipodi:nodetypes="cc" /><path
         d="m 206.3837,438.3215 c 8.33374,-15.66261 14.60345,-30.57217 1.47907,-42.78797"
         style="fill:none;stroke:#231f20;stroke-width:2.43555;stroke-linecap:butt;stroke-linejoin:miter;stroke-miterlimit:4;stroke-dasharray:none;stroke-opacity:1"
         id="path100"
         sodipodi:nodetypes="cc" /><path
         d="m 172.12336,497.02151 c 0,-10.58418 15.31467,-29.09877 27.96852,-47.56995"
         style="fill:none;stroke:#231f20;stroke-width:2.43555;stroke-linecap:butt;stroke-linejoin:miter;stroke-miterlimit:4;stroke-dasharray:none;stroke-opacity:1"
         id="path102"
         sodipodi:nodetypes="cc" /><path
         d="m 270.66643,382.75003 c -1.94995,-15.90322 -3.61036,-43.00662 -12.58432,-53.3692"
         style="fill:none;stroke:#231f20;stroke-width:2.43555;stroke-linecap:butt;stroke-linejoin:miter;stroke-miterlimit:4;stroke-dasharray:none;stroke-opacity:1"
         id="path104"
         sodipodi:nodetypes="cc" /><path
         d="m 268.69389,458.26954 c -18.65829,-17.3644 7.53608,-22.05604 3.76938,-61.75901"
         style="fill:none;stroke:#231f20;stroke-width:2.43555;stroke-linecap:butt;stroke-linejoin:miter;stroke-miterlimit:4;stroke-dasharray:none;stroke-opacity:1"
         id="path106"
         sodipodi:nodetypes="cc" /><path
         d="m 165.87602,413.54084 c -0.2142,24.76053 13.74066,28.56414 27.26903,30.79545 23.75781,3.91851 47.50728,-22.24492 62.71938,-35.83816 18.84378,-16.83844 34.84256,-51.21156 56.74389,-50.27644"
         style="fill:none;stroke:#231f20;stroke-width:2.43555;stroke-linecap:butt;stroke-linejoin:miter;stroke-miterlimit:4;stroke-dasharray:none;stroke-opacity:1"
         id="path108"
         sodipodi:nodetypes="casc" /><path
         d="m 218.64618,364.23644 c 61.81319,2.12675 14.11581,-67.31419 51.37806,-101.99461"
         style="fill:none;stroke:#231f20;stroke-width:2.43555;stroke-linecap:butt;stroke-linejoin:miter;stroke-miterlimit:4;stroke-dasharray:none;stroke-opacity:1"
         id="path110" /><text
         xml:space="preserve"
         style="font-size:25.9792px;line-height:1.25;font-family:'Cambria Math';-inkscape-font-specification:'Cambria Math';stroke-width:0.608888"
         x="159.66977"
         y="-359.15851"
         id="text70150"
         transform="scale(1,-1)"><tspan
           sodipodi:role="line"
           id="tspan70148"
           x="159.66977"
           y="-359.15851"
           style="font-size:25.9792px;stroke-width:0.608888">P</tspan></text></g><g
       id="g70210"
       transform="matrix(0.64948008,0,0,0.64948008,61.442374,169.70342)"><path
         d="m 745.21484,345.07715 -0.58886,-111.71387 -79.41114,-78.57617 -111.71289,0.58984 -78.57617,79.40918 0.58887,111.71192 79.41015,78.57763 111.71192,-0.58984 z"
         style="fill:none;stroke:#231f20;stroke-width:1;stroke-linecap:butt;stroke-linejoin:miter;stroke-miterlimit:4;stroke-dasharray:none;stroke-opacity:1"
         id="path12" /><path
         d="m 484.51465,346.49805 c 0,-4.97071 -4.0293,-9 -9,-9 -4.9707,0 -9,4.02929 -9,9 0,4.9707 4.0293,9 9,9 4.9707,0 9,-4.0293 9,-9 z"
         style="fill:#ffffff;fill-opacity:1;fill-rule:nonzero;stroke:#231f20;stroke-width:1;stroke-linecap:butt;stroke-linejoin:miter;stroke-miterlimit:4;stroke-dasharray:none;stroke-opacity:1"
         id="path14" /><path
         d="m 483.92578,234.78613 c 0,-4.9707 -4.0293,-9 -9,-9 -4.9707,0 -9,4.0293 -9,9 0,4.97071 4.0293,9 9,9 4.9707,0 9,-4.02929 9,-9 z"
         style="fill:#ffffff;fill-opacity:1;fill-rule:nonzero;stroke:#231f20;stroke-width:1;stroke-linecap:butt;stroke-linejoin:miter;stroke-miterlimit:4;stroke-dasharray:none;stroke-opacity:1"
         id="path16" /><path
         d="m 562.50195,155.37695 c 0,-4.9707 -4.02929,-9 -9,-9 -4.9707,0 -9,4.0293 -9,9 0,4.97071 4.0293,9 9,9 4.97071,0 9,-4.02929 9,-9 z"
         style="fill:#ffffff;fill-opacity:1;fill-rule:nonzero;stroke:#231f20;stroke-width:1;stroke-linecap:butt;stroke-linejoin:miter;stroke-miterlimit:4;stroke-dasharray:none;stroke-opacity:1"
         id="path18" /><path
         d="m 674.21484,154.78711 c 0,-4.9707 -4.02929,-9 -9,-9 -4.9707,0 -9,4.0293 -9,9 0,4.9707 4.0293,9 9,9 4.97071,0 9,-4.0293 9,-9 z"
         style="fill:#ffffff;fill-opacity:1;fill-rule:nonzero;stroke:#231f20;stroke-width:1;stroke-linecap:butt;stroke-linejoin:miter;stroke-miterlimit:4;stroke-dasharray:none;stroke-opacity:1"
         id="path20" /><path
         d="m 753.62598,233.36328 c 0,-4.9707 -4.0293,-9 -9,-9 -4.97071,0 -9,4.0293 -9,9 0,4.9707 4.02929,9 9,9 4.9707,0 9,-4.0293 9,-9 z"
         style="fill:#ffffff;fill-opacity:1;fill-rule:nonzero;stroke:#231f20;stroke-width:1;stroke-linecap:butt;stroke-linejoin:miter;stroke-miterlimit:4;stroke-dasharray:none;stroke-opacity:1"
         id="path22" /><path
         d="m 754.21484,345.07715 c 0,-4.9707 -4.02929,-9 -9,-9 -4.9707,0 -9,4.0293 -9,9 0,4.9707 4.0293,9 9,9 4.97071,0 9,-4.0293 9,-9 z"
         style="fill:#ffffff;fill-opacity:1;fill-rule:nonzero;stroke:#231f20;stroke-width:1;stroke-linecap:butt;stroke-linejoin:miter;stroke-miterlimit:4;stroke-dasharray:none;stroke-opacity:1"
         id="path24" /><path
         d="m 675.63672,424.48584 c 0,-4.9707 -4.0293,-9 -9,-9 -4.9707,0 -9,4.0293 -9,9 0,4.9707 4.0293,9 9,9 4.9707,0 9,-4.0293 9,-9 z"
         style="fill:#ffffff;fill-opacity:1;fill-rule:nonzero;stroke:#231f20;stroke-width:1;stroke-linecap:butt;stroke-linejoin:miter;stroke-miterlimit:4;stroke-dasharray:none;stroke-opacity:1"
         id="path26" /><path
         d="m 563.9248,425.07568 c 0,-4.9707 -4.02929,-9 -9,-9 -4.9707,0 -9,4.0293 -9,9 0,4.97071 4.0293,9 9,9 4.97071,0 9,-4.02929 9,-9 z"
         style="fill:#ffffff;fill-opacity:1;fill-rule:nonzero;stroke:#231f20;stroke-width:1;stroke-linecap:butt;stroke-linejoin:miter;stroke-miterlimit:4;stroke-dasharray:none;stroke-opacity:1"
         id="path28" /><path
         d="m 567,273.06055 1.27637,39.43164 28.78515,26.97851 39.43067,-1.27588 26.97851,-28.78466 -1.27636,-39.43164 L 633.41113,243 l -39.43261,1.27539 z"
         style="fill:none;stroke:#231f20;stroke-width:1;stroke-linecap:butt;stroke-linejoin:miter;stroke-miterlimit:4;stroke-dasharray:none;stroke-opacity:1"
         id="path30" /><path
         d="m 603,337.5 c 0,-2.48535 -2.01465,-4.5 -4.5,-4.5 -2.48535,0 -4.5,2.01465 -4.5,4.5 0,2.48535 2.01465,4.5 4.5,4.5 2.48535,0 4.5,-2.01465 4.5,-4.5 z"
         style="fill:#ffffff;fill-opacity:1;fill-rule:nonzero;stroke:#231f20;stroke-width:1;stroke-linecap:butt;stroke-linejoin:miter;stroke-miterlimit:4;stroke-dasharray:none;stroke-opacity:1"
         id="path32" /><path
         d="m 572.77637,312.49219 c 0,-2.48535 -2.01465,-4.5 -4.5,-4.5 -2.48535,0 -4.5,2.01465 -4.5,4.5 0,2.48535 2.01465,4.5 4.5,4.5 2.48535,0 4.5,-2.01465 4.5,-4.5 z"
         style="fill:#ffffff;fill-opacity:1;fill-rule:nonzero;stroke:#231f20;stroke-width:1;stroke-linecap:butt;stroke-linejoin:miter;stroke-miterlimit:4;stroke-dasharray:none;stroke-opacity:1"
         id="path34" /><path
         d="m 571.5,273.06055 c 0,-2.48535 -2.01465,-4.5 -4.5,-4.5 -2.48535,0 -4.5,2.01465 -4.5,4.5 0,2.48535 2.01465,4.5 4.5,4.5 2.48535,0 4.5,-2.01465 4.5,-4.5 z"
         style="fill:#ffffff;fill-opacity:1;fill-rule:nonzero;stroke:#231f20;stroke-width:1;stroke-linecap:butt;stroke-linejoin:miter;stroke-miterlimit:4;stroke-dasharray:none;stroke-opacity:1"
         id="path36" /><path
         d="m 598.5,243 c 0,-2.48535 -2.01465,-4.5 -4.5,-4.5 -2.48535,0 -4.5,2.01465 -4.5,4.5 0,2.48535 2.01465,4.5 4.5,4.5 2.48535,0 4.5,-2.01465 4.5,-4.5 z"
         style="fill:#ffffff;fill-opacity:1;fill-rule:nonzero;stroke:#231f20;stroke-width:1;stroke-linecap:butt;stroke-linejoin:miter;stroke-miterlimit:4;stroke-dasharray:none;stroke-opacity:1"
         id="path38" /><path
         d="m 637.91113,243 c 0,-2.48535 -2.01465,-4.5 -4.5,-4.5 -2.48535,0 -4.5,2.01465 -4.5,4.5 0,2.48535 2.01465,4.5 4.5,4.5 2.48535,0 4.5,-2.01465 4.5,-4.5 z"
         style="fill:#ffffff;fill-opacity:1;fill-rule:nonzero;stroke:#231f20;stroke-width:1;stroke-linecap:butt;stroke-linejoin:miter;stroke-miterlimit:4;stroke-dasharray:none;stroke-opacity:1"
         id="path40" /><path
         d="m 666.69434,269.97852 c 0,-2.48536 -2.01465,-4.5 -4.5,-4.5 -2.48536,0 -4.5,2.01464 -4.5,4.5 0,2.48535 2.01464,4.5 4.5,4.5 2.48535,0 4.5,-2.01465 4.5,-4.5 z"
         style="fill:#ffffff;fill-opacity:1;fill-rule:nonzero;stroke:#231f20;stroke-width:1;stroke-linecap:butt;stroke-linejoin:miter;stroke-miterlimit:4;stroke-dasharray:none;stroke-opacity:1"
         id="path42" /><path
         d="m 667.9707,309.41016 c 0,-2.48536 -2.01465,-4.5 -4.5,-4.5 -2.48535,0 -4.5,2.01464 -4.5,4.5 0,2.48535 2.01465,4.5 4.5,4.5 2.48535,0 4.5,-2.01465 4.5,-4.5 z"
         style="fill:#ffffff;fill-opacity:1;fill-rule:nonzero;stroke:#231f20;stroke-width:1;stroke-linecap:butt;stroke-linejoin:miter;stroke-miterlimit:4;stroke-dasharray:none;stroke-opacity:1"
         id="path44" /><path
         d="m 640.99219,338.19482 c 0,-2.48535 -2.01465,-4.5 -4.5,-4.5 -2.48535,0 -4.5,2.01465 -4.5,4.5 0,2.48536 2.01465,4.5 4.5,4.5 2.48535,0 4.5,-2.01464 4.5,-4.5 z"
         style="fill:#ffffff;fill-opacity:1;fill-rule:nonzero;stroke:#231f20;stroke-width:1;stroke-linecap:butt;stroke-linejoin:miter;stroke-miterlimit:4;stroke-dasharray:none;stroke-opacity:1"
         id="path46" /><path
         d="m 516.56346,193.57222 c 19.80197,16.71062 101.09136,1.92889 98.09136,49.92889"
         style="fill:none;stroke:#231f20;stroke-width:3;stroke-linecap:butt;stroke-linejoin:miter;stroke-miterlimit:4;stroke-dasharray:none;stroke-opacity:1"
         id="path158"
         sodipodi:nodetypes="cc" /><path
         d="m 571.51465,199.08105 c 19.41406,-15.87597 39.26708,-31.17779 39.26708,-43.94537"
         style="fill:none;stroke:#231f20;stroke-width:3;stroke-linecap:butt;stroke-linejoin:miter;stroke-miterlimit:4;stroke-dasharray:none;stroke-opacity:1"
         id="path160"
         sodipodi:nodetypes="cc" /><path
         d="m 516,387.44531 c 42,-29 -8,-91 -1,-119 8.50781,-34.03222 43.78173,-33.25383 66.78173,-11.25383"
         style="fill:none;stroke:#231f20;stroke-width:3;stroke-linecap:butt;stroke-linejoin:miter;stroke-miterlimit:4;stroke-dasharray:none;stroke-opacity:1"
         id="path162"
         sodipodi:nodetypes="ccc" /><path
         d="m 539.46875,344.47656 c 18.34961,1.51856 33.82225,-6.46131 42.4957,-18.65051"
         style="fill:none;stroke:#231f20;stroke-width:3;stroke-linecap:butt;stroke-linejoin:miter;stroke-miterlimit:4;stroke-dasharray:none;stroke-opacity:1"
         id="path164"
         sodipodi:nodetypes="cc" /><path
         d="m 475,288.44531 c 20.19727,-1.39258 30.26172,37.19092 49.25684,50.85742"
         style="fill:none;stroke:#231f20;stroke-width:3;stroke-linecap:butt;stroke-linejoin:miter;stroke-miterlimit:4;stroke-dasharray:none;stroke-opacity:1"
         id="path166" /><path
         d="m 539.86328,233.62988 c 2,-4.00586 4.39453,-7.79004 7.13672,-11.18457 3.88867,-4.81445 8.53223,-9.46875 13.51758,-13.97558"
         style="fill:none;stroke:#231f20;stroke-width:3;stroke-linecap:butt;stroke-linejoin:miter;stroke-miterlimit:4;stroke-dasharray:none;stroke-opacity:1"
         id="path168" /><path
         d="m 567.27408,293.88185 c -32.4827,0.7617 -37.5065,-20.95119 -33.28775,-42.93849"
         style="fill:none;stroke:#231f20;stroke-width:3;stroke-linecap:butt;stroke-linejoin:miter;stroke-miterlimit:4;stroke-dasharray:none;stroke-opacity:1"
         id="path170"
         sodipodi:nodetypes="cc" /><path
         d="M 744.37468,286.15091 C 723.64981,287.515 681.20305,221.5841 649.38371,257.6466"
         style="fill:none;stroke:#231f20;stroke-width:3;stroke-linecap:butt;stroke-linejoin:miter;stroke-miterlimit:4;stroke-dasharray:none;stroke-opacity:1"
         id="path172"
         sodipodi:nodetypes="cc" /><path
         d="m 710.4209,255.82031 c -2.50195,-24.9541 -8.18985,-47.0336 0.83847,-56.06192"
         style="fill:none;stroke:#231f20;stroke-width:3;stroke-linecap:butt;stroke-linejoin:miter;stroke-miterlimit:4;stroke-dasharray:none;stroke-opacity:1"
         id="path174"
         sodipodi:nodetypes="cc" /><path
         d="m 616.04385,424.79563 c 1.3099,-51.73618 70.4415,-55.21653 85.29013,-79.96555 18.04883,-30.08008 -6.36328,-55.86133 -38.18359,-56.56836"
         style="fill:none;stroke:#231f20;stroke-width:3;stroke-linecap:butt;stroke-linejoin:miter;stroke-miterlimit:4;stroke-dasharray:none;stroke-opacity:1"
         id="path176"
         sodipodi:nodetypes="ccc" /><path
         d="M 630.27051,381.29053 C 616.22168,369.38916 612.3125,350.79932 612.94629,341.29443"
         style="fill:none;stroke:#231f20;stroke-width:3;stroke-linecap:butt;stroke-linejoin:miter;stroke-miterlimit:4;stroke-dasharray:none;stroke-opacity:1"
         id="path178" /><path
         d="m 706.06173,384.63304 c -13.29687,-12.33413 -51.53708,16.02559 -66.43811,3.82552"
         style="fill:none;stroke:#231f20;stroke-width:3;stroke-linecap:butt;stroke-linejoin:miter;stroke-miterlimit:4;stroke-dasharray:none;stroke-opacity:1"
         id="path180"
         sodipodi:nodetypes="cc" /><path
         d="m 707.90905,304.48296 c 4.77345,-9.07139 3.95627,-23.41252 3.49423,-32.7042"
         style="fill:none;stroke:#231f20;stroke-width:3;stroke-linecap:butt;stroke-linejoin:miter;stroke-miterlimit:4;stroke-dasharray:none;stroke-opacity:1"
         id="path182"
         sodipodi:nodetypes="cc" /><path
         d="m 649.00879,327.85938 c 17.7998,19.49462 38.71191,9.70019 51.27637,-8.83008"
         style="fill:none;stroke:#231f20;stroke-width:3;stroke-linecap:butt;stroke-linejoin:miter;stroke-miterlimit:4;stroke-dasharray:none;stroke-opacity:1"
         id="path184" /><text
         xml:space="preserve"
         style="font-size:32px;line-height:1.25;font-family:'Cambria Math';-inkscape-font-specification:'Cambria Math';stroke-width:0.75"
         x="605.87628"
         y="297.16705"
         id="text70150-3"><tspan
           sodipodi:role="line"
           id="tspan70148-2"
           x="605.87628"
           y="297.16705"
           style="font-size:32px;stroke-width:0.75">P</tspan></text></g></g></svg>
