<?xml version="1.0" encoding="UTF-8" standalone="no"?>
<svg
   xmlns:dc="http://purl.org/dc/elements/1.1/"
   xmlns:cc="http://creativecommons.org/ns#"
   xmlns:rdf="http://www.w3.org/1999/02/22-rdf-syntax-ns#"
   xmlns:svg="http://www.w3.org/2000/svg"
   xmlns="http://www.w3.org/2000/svg"
   xmlns:sodipodi="http://sodipodi.sourceforge.net/DTD/sodipodi-0.dtd"
   xmlns:inkscape="http://www.inkscape.org/namespaces/inkscape"
   version="1.1"
   id="svg2"
   xml:space="preserve"
   width="907.08667"
   height="1209.4493"
   viewBox="0 0 907.08667 1209.4493"
   sodipodi:docname="métabolesc8.svg"
   inkscape:version="1.0.2-2 (e86c870879, 2021-01-15)"><metadata
     id="metadata8"><rdf:RDF><cc:Work
         rdf:about=""><dc:format>image/svg+xml</dc:format><dc:type
           rdf:resource="http://purl.org/dc/dcmitype/StillImage" /><dc:title></dc:title></cc:Work></rdf:RDF></metadata><defs
     id="defs6"><clipPath
       clipPathUnits="userSpaceOnUse"
       id="clipPath18"><path
         d="M 0,907.087 H 680.315 V 0 H 0 Z"
         id="path16" /></clipPath></defs><sodipodi:namedview
     pagecolor="#1c1c05"
     bordercolor="#666666"
     borderopacity="1"
     objecttolerance="10"
     gridtolerance="10"
     guidetolerance="10"
     inkscape:pageopacity="0"
     inkscape:pageshadow="2"
     inkscape:window-width="1816"
     inkscape:window-height="1030"
     id="namedview4"
     showgrid="false"
     inkscape:zoom="1.127786"
     inkscape:cx="661.76481"
     inkscape:cy="894.56179"
     inkscape:window-x="86"
     inkscape:window-y="0"
     inkscape:window-maximized="0"
     inkscape:current-layer="g10"
     inkscape:document-rotation="0" /><g
     id="g10"
     inkscape:groupmode="layer"
     inkscape:label="métabolesc8r234"
     transform="matrix(1.3333333,0,0,-1.3333333,0,1209.4493)"><g
       id="g14"
       clip-path="url(#clipPath18)"><g
         id="g20"
         transform="translate(505.5469,722.7056)"><path
           d="m 0,0 c -2.036,5.772 -12.282,8.832 -20.178,6.871 -14.248,-3.536 8.37,-37.334 10.547,-48.853 1.86,-9.856 2.791,-20.61 -5.624,-28.333 -10.635,-9.763 -26.98,1.138 -30.272,12.172 -2.205,7.403 5.273,21.189 15.529,22.524 9.672,1.262 17.474,2.28 26.851,1.199 10.791,-1.245 15.815,3.662 27.571,1.609 11.758,-2.052 14.72,-17.272 14.693,-24.523 -0.115,-32.283 -33.789,-19.457 -48.481,-7.273 -10.293,8.54 -39.444,35.189 -32.22,47.961 5.581,9.878 24.312,4.468 29.54,4.337 C -7.773,-12.418 2.923,-8.279 0,0 Z"
           style="fill:none;stroke:#21b2b2;stroke-width:2;stroke-linecap:butt;stroke-linejoin:miter;stroke-miterlimit:4;stroke-dasharray:none;stroke-opacity:1"
           id="path22" /></g><g
         id="g24"
         transform="translate(498.2715,720.0171)"><path
           d="m 0,0 c 2.485,13.455 26.767,2.946 34.676,-1.312 17.465,-9.398 9.811,-43.938 -3.118,-40.335 -9.348,2.609 -7.942,9.941 -12.692,17.712 C 16.897,-20.708 -1.177,-6.37 0,0 Z"
           style="fill:none;stroke:#bf4a1a;stroke-width:2;stroke-linecap:butt;stroke-linejoin:miter;stroke-miterlimit:4;stroke-dasharray:none;stroke-opacity:1"
           id="path26" /></g><g
         id="g28"
         transform="translate(143.5234,293.7051)"><path
           d="M 0,0 C 10.6,9.883 27.781,11.394 38.373,3.378 48.971,-4.645 48.959,-19.154 38.355,-29.039 27.756,-38.922 10.576,-40.436 -0.021,-32.413 -10.609,-24.398 -10.604,-9.883 0,0 Z"
           style="fill:none;stroke:#f29400;stroke-width:2;stroke-linecap:butt;stroke-linejoin:miter;stroke-miterlimit:4;stroke-dasharray:none;stroke-opacity:1"
           id="path30" /></g><g
         id="g32"
         transform="translate(136.2852,267.3516)"><path
           d="M 0,0 C 10.604,9.883 56.621,18.283 67.213,10.268 77.809,2.244 82.398,-13.857 71.795,-23.74 61.193,-33.625 12.125,-42.991 1.527,-34.969 -9.061,-26.953 -10.604,-9.885 0,0 Z"
           style="fill:none;stroke:#00ffff;stroke-width:2;stroke-linecap:butt;stroke-linejoin:miter;stroke-miterlimit:4;stroke-dasharray:none;stroke-opacity:1"
           id="path34" /></g><g
         id="g36"
         transform="translate(161.1074,283.0723)"><path
           d="m 0,0 c 10.604,9.883 15.791,-12.594 21.004,-23.74 4.201,-8.983 10.535,-17.523 9.547,-30.799 C 29.787,-64.805 0.764,-72.184 -1.91,-58.068 -4.146,-46.242 -10.604,-9.885 0,0 Z"
           style="fill:none;stroke:#e2001a;stroke-width:2;stroke-linecap:butt;stroke-linejoin:miter;stroke-miterlimit:4;stroke-dasharray:none;stroke-opacity:1"
           id="path38" /></g><g
         id="g40"
         transform="translate(513.0283,291.9248)"><path
           d="m 0,0 c -3.462,10.785 -30.815,8.516 -39.404,-7.279 -7.739,-14.227 1.971,-65.284 17.744,-67.266 12.637,-1.59 21.241,18.791 16.489,26.961 C -19.231,-23.414 2.903,-9.049 0,0 Z"
           style="fill:none;stroke:#f29400;stroke-width:2;stroke-linecap:butt;stroke-linejoin:miter;stroke-miterlimit:4;stroke-dasharray:none;stroke-opacity:1"
           id="path42" /></g><g
         id="g44"
         transform="translate(534.5566,299.8643)"><path
           d="m 0,0 c 19.451,-6.838 12.635,-46.758 -0.508,-42.693 -13.146,4.066 -15.062,12.816 -26.045,28.005 C -38.715,2.135 -15.201,5.342 0,0 Z"
           style="fill:none;stroke:#ff00ff;stroke-width:2;stroke-linecap:butt;stroke-linejoin:miter;stroke-miterlimit:4;stroke-dasharray:none;stroke-opacity:1"
           id="path46" /></g><g
         id="g48"
         transform="translate(504.248,225.8096)"><path
           d="m 0,0 c 7.907,-1.822 42.09,-17.658 42.203,13.807 0.029,8.187 -2.978,25.381 -14.93,27.695 -11.953,2.312 -8.544,-9.623 -19.521,-8.225 -9.535,1.219 -21.097,7.42 -31.599,9.291 C -35.295,44.607 -46.088,35.484 -41.681,26.039 -36.235,14.373 -7.902,1.826 0,0 Z"
           style="fill:none;stroke:#ff0000;stroke-width:2;stroke-linecap:butt;stroke-linejoin:miter;stroke-miterlimit:4;stroke-dasharray:none;stroke-opacity:1"
           id="path50" /></g><g
         id="g52"
         transform="translate(416.7051,283.5918)"><path
           d="M 0,0 C 5.369,-5.273 -16.448,-32.959 -29.711,-40.869 -40.987,-47.598 -53.579,-30.844 -40.36,-23.973 -31.052,-19.133 -5.366,5.273 0,0 Z"
           style="fill:none;stroke:#00ff00;stroke-width:2;stroke-linecap:butt;stroke-linejoin:miter;stroke-miterlimit:4;stroke-dasharray:none;stroke-opacity:1"
           id="path54" /></g><g
         id="g56"
         transform="translate(412.8721,270.5645)"><path
           d="m 0,0 c 3.771,-3.244 30.705,-20.43 22.296,-38.004 -9.758,-20.4 -28.57,-14.988 -43.258,-3.99 -13.662,10.232 -7.174,26.174 -28.233,31.379 -19.431,4.802 -12.026,33.242 2.371,39.582 C -27.659,37.404 -3.773,3.246 0,0 Z"
           style="fill:none;stroke:#00ffff;stroke-width:2;stroke-linecap:butt;stroke-linejoin:miter;stroke-miterlimit:4;stroke-dasharray:none;stroke-opacity:1"
           id="path58" /></g><g
         id="g60"
         transform="translate(375.6787,271.7305)"><path
           d="M 0,0 C -22.692,-8.301 -35.494,-39.258 -9.53,-52.111 12.2,-62.865 19.882,-35.074 31.683,-23.713 45.655,-10.266 75.55,14.967 42.115,29.254 23.641,37.145 14.154,5.174 0,0"
           style="fill:none;stroke:#f29400;stroke-width:2;stroke-linecap:butt;stroke-linejoin:miter;stroke-miterlimit:4;stroke-dasharray:none;stroke-opacity:1"
           id="path62" /></g><g
         id="g64"
         transform="translate(277.2524,526.666)"><path
           d="m 0,0 c 8.408,1.001 13.791,-11.495 28.555,-14.193 10.447,-1.911 19.236,7.911 19.236,17.672 0,3.657 -0.491,7.743 -3.276,9.87 -6.415,4.903 -35.265,4.319 -40.058,5.904 -4.794,1.582 -36.928,4.998 -40.524,12.893 -4.056,8.896 8.61,17.677 19.238,17.677 7.066,0 47.571,-6.343 52.152,-9.82 7.78,-5.913 8.038,-15.044 6.731,-23.333 -1.685,-10.668 -15.252,-31.376 -17.408,-34.232 -3.469,-4.605 -9.262,-7.622 -15.825,-7.622 -5.212,0 -17.659,3.781 -20.432,7.515 C -14.715,-13.48 -8.848,-1.05 0,0 Z"
           style="fill:none;stroke:#fbd501;stroke-width:2;stroke-linecap:butt;stroke-linejoin:miter;stroke-miterlimit:4;stroke-dasharray:none;stroke-opacity:1"
           id="path66" /></g><g
         id="g68"
         transform="translate(260.7642,508.6689)"><path
           d="m 0,0 c -5.545,0.328 -15.139,7.001 -19.177,15.997 -1.872,4.171 -2.209,14.694 -0.337,18.67 2.355,4.998 22.946,32.832 25.167,35.717 3.486,4.516 9.225,7.469 15.71,7.469 7.198,0 14.506,-3.126 16.768,-9.008 C 42.055,58.665 25.863,36.42 22.207,32.666 18.129,27.611 17.186,17.766 16.821,10.665 16.595,6.195 5.552,-0.336 0,0 Z"
           style="fill:none;stroke:#ff00ff;stroke-width:2;stroke-linecap:butt;stroke-linejoin:miter;stroke-miterlimit:4;stroke-dasharray:none;stroke-opacity:1"
           id="path70" /></g><g
         id="g72"
         transform="translate(177.8408,817.8442)"><path
           d="m 0,0 c 0,-15.553 -11.352,-28.162 -25.355,-28.162 -13.999,0 -25.353,12.609 -25.353,28.162 0,15.551 11.354,28.156 25.353,28.156 C -11.352,28.156 0,15.551 0,0 Z"
           style="fill:none;stroke:#009036;stroke-width:2;stroke-linecap:butt;stroke-linejoin:miter;stroke-miterlimit:4;stroke-dasharray:none;stroke-opacity:1"
           id="path74" /></g><g
         id="g76"
         transform="translate(191.0654,838.5005)"><path
           d="m 0,0 c -4.015,-10.438 -6.501,-21.854 -17.242,-23.143 -6.251,-0.752 -27.874,-4.502 -31.5,2.377 -3.625,6.873 16.628,17.391 18.875,18.502 9.624,4.748 10.152,8.676 20.304,8.676 6.488,0 14.89,-16.74 20.759,-13.695 5.87,3.045 -1.19,17.041 -2.499,20.328 -5.544,13.912 -13.688,22.006 -27.689,22.006 -14.006,0 -25.353,-12.606 -25.353,-28.156 0,-5.372 1.644,-10.237 3.697,-14.655 1.281,-2.756 7.469,-16.888 9.405,-20.76 5.875,-11.753 14.781,-21.47 26.999,-21.47 13.998,0 25.35,12.605 25.35,28.162 0,8.342 -1.041,18.414 -5.886,23.892 C 12.458,5.182 1.658,4.309 0,0 Z"
           style="fill:none;stroke:#ea6626;stroke-width:2;stroke-linecap:butt;stroke-linejoin:miter;stroke-miterlimit:4;stroke-dasharray:none;stroke-opacity:1;font-variation-settings:normal;opacity:1;vector-effect:none;fill-opacity:1;stroke-dashoffset:0;stop-color:#000000;stop-opacity:1"
           id="path78" /></g><g
         id="g80"
         transform="translate(629.0742,816.4585)"><path
           d="m 0,0 c 10.713,-36.368 -41.67,-37.025 -37.964,-3.237 0.847,7.723 5.188,27.811 16.435,28.187 C -12.128,25.268 -2.032,6.904 0,0"
           style="fill:none;stroke:#009036;stroke-width:2;stroke-linecap:butt;stroke-linejoin:miter;stroke-miterlimit:4;stroke-dasharray:none;stroke-opacity:1;font-variation-settings:normal;opacity:1;vector-effect:none;fill-opacity:1;stroke-dashoffset:0;stop-color:#000000;stop-opacity:1"
           id="path82" /></g><g
         id="g84"
         transform="translate(627.1924,873.4937)"><path
           d="m 0,0 c 20.453,-2.214 21.9,-21.998 5.313,-30.892 -11.321,-6.068 -40.424,-14.916 -51.437,-3.864 -13.293,13.336 -4.257,34.649 15.407,33.033 6.339,-0.521 23.401,-5.158 15.66,-14.319 -7.438,-8.807 -23.57,-7.562 -33.059,-13.968 -14.745,-9.961 -12.236,-34.291 5.319,-39.08 16.137,-4.402 42.457,-6.501 57.856,1.361 27.634,14.108 2.07,34.339 -14.202,42.513 -7.117,3.577 -16.552,6.743 -22.134,12.491 C -31.488,-2.214 -4.647,0.502 0,0"
           style="fill:none;stroke:#ea6626;stroke-width:2;stroke-linecap:butt;stroke-linejoin:miter;stroke-miterlimit:4;stroke-dasharray:none;stroke-opacity:1;font-variation-settings:normal;opacity:1;vector-effect:none;fill-opacity:1;stroke-dashoffset:0;stop-color:#000000;stop-opacity:1"
           id="path86" /></g><g
         id="g88"
         transform="translate(379.9961,522.106)"><path
           d="m 0,0 c 1.246,2.295 -1.541,9.316 -0.649,11.184 1.042,2.187 3.533,2.634 7.851,-0.211 6.613,-4.36 15.627,-7.942 18.959,-7.766 15.991,0.844 41.117,13.457 21.565,34.678 -9.038,9.81 -36.654,6.56 -47.848,5.986 C -16.095,43.054 -43.207,30.93 -22.953,8.951 -19.545,5.25 -10.809,-1.391 -6.364,-2.723 -4.19,-3.373 -1.151,-2.131 0,0 Z"
           style="fill:none;stroke:#ff00ff;stroke-width:2;stroke-linecap:butt;stroke-linejoin:miter;stroke-miterlimit:4;stroke-dasharray:none;stroke-opacity:1"
           id="path90" /></g><g
         id="g92"
         transform="translate(394.1865,544.0024)"><path
           d="m 0,0 c -5.325,7.557 9.28,10.341 15.683,14.982 6.916,5.016 0.511,21.229 -5.396,24.887 C 1.479,45.323 -14.621,42.61 -14.488,29.406 -14.384,18.961 -6.52,13.043 0.163,6.705 2.532,4.456 9.245,1.85 7.436,-1.85 5.229,-6.369 -10.45,-1.324 -8.932,-6.639 c 1.445,-5.064 -1.669,-8.283 -4.956,-7.748 -2.674,0.438 -5.237,1.028 -7.242,-0.754 -8.389,-7.457 8.471,-31.257 24.261,-26.836 C 23.865,-36.162 9.724,-13.791 0,0 Z"
           style="fill:none;stroke:#fbd501;stroke-width:2;stroke-linecap:butt;stroke-linejoin:miter;stroke-miterlimit:4;stroke-dasharray:none;stroke-opacity:1"
           id="path94" /></g><g
         id="g96"
         transform="translate(410.5977,94.8799)"><path
           d="m 0,0 c 4.684,-4.23 -0.744,-14.852 -3.555,-17.766 -7.906,-8.203 -20.698,-8.236 -28.566,-0.074 -2.123,2.203 -12.699,13.07 -4.612,21.256 6.577,7.648 13.165,-5.693 20.248,-4.613 C -10.543,-0.293 -5.479,5.684 0,0 Z"
           style="fill:none;stroke:#009ee0;stroke-width:2;stroke-linecap:butt;stroke-linejoin:miter;stroke-miterlimit:4;stroke-dasharray:none;stroke-opacity:1"
           id="path98" /></g><g
         id="g100"
         transform="translate(373.1279,123.4482)"><path
           d="m 0,0 c -7.438,5.891 -4.272,19.178 2.647,26.357 7.907,8.204 20.7,8.237 28.571,0.069 C 34.817,22.691 49.12,18.197 47.8,3.283 46.483,-11.629 9.194,-7.285 0,0 Z"
           style="fill:none;stroke:#ff00ff;stroke-width:2;stroke-linecap:butt;stroke-linejoin:miter;stroke-miterlimit:4;stroke-dasharray:none;stroke-opacity:1"
           id="path102" /></g><g
         id="g104"
         transform="translate(406.0625,116.2568)"><path
           d="m 0,0 c 0,-6.943 -4.037,-20.684 2.973,-27.541 7.273,-7.338 17.742,6.625 20.487,11.721 5.452,10.113 8.573,22.191 0.071,29.636 C 18.373,18.332 5.75,23.426 2.665,17.314 -0.42,11.203 0,6.691 0,0 Z"
           style="fill:none;stroke:#ff0000;stroke-width:2;stroke-linecap:butt;stroke-linejoin:miter;stroke-miterlimit:4;stroke-dasharray:none;stroke-opacity:1"
           id="path106" /></g><g
         id="g108"
         transform="translate(380.7559,93.6631)"><path
           d="m 0,0 c 3.762,7.211 -2.818,12.51 -2.676,18.508 0.145,6.144 7.02,14.974 4.77,18.65 -5.541,9.059 -19.653,6.231 -27.078,-1.474 -7.911,-8.202 -7.942,-21.475 -0.069,-29.639 2.059,-2.139 6.25,-8.52 13.389,-9.467 C -7.936,-3.92 -2.928,-5.607 0,0 Z"
           style="fill:none;stroke:#ffcc00;stroke-width:2;stroke-linecap:butt;stroke-linejoin:miter;stroke-miterlimit:4;stroke-dasharray:none;stroke-opacity:1"
           id="path110" /></g><g
         id="g112"
         transform="translate(293.1631,245.9873)"><path
           d="m 0,0 c 0,-15.703 -11.469,-28.434 -25.618,-28.434 -14.142,0 -25.614,12.731 -25.614,28.434 0,15.7 11.472,28.43 25.614,28.43 C -11.469,28.43 0,15.7 0,0 Z"
           style="fill:none;stroke:#f29400;stroke-width:2;stroke-linecap:butt;stroke-linejoin:miter;stroke-miterlimit:4;stroke-dasharray:none;stroke-opacity:1"
           id="path114" /></g><g
         id="g116"
         transform="translate(266.063,237.3906)"><path
           d="m 0,0 c 3.295,-5.268 17.626,3.128 23.041,6.086 12.414,6.777 23.847,14.626 23.847,30.326 0,15.7 -11.469,28.428 -25.615,28.428 -14.148,0 -25.615,-12.728 -25.615,-28.428 0,-5.422 1.66,-10.335 3.735,-14.795 0.628,-1.353 2.906,-4.998 -0.71,-8.611 C -2.636,11.688 -1.379,2.207 0,0 Z"
           style="fill:none;stroke:#00ff00;stroke-width:2;stroke-linecap:butt;stroke-linejoin:miter;stroke-miterlimit:4;stroke-dasharray:none;stroke-opacity:1"
           id="path118" /></g><g
         id="g120"
         transform="translate(256.6226,257.3076)"><path
           d="m 0,0 c -5.93,5.597 14.797,10.293 17.296,10.7 4.046,0.658 17.185,6.047 27.442,6.047 14.143,0 25.61,-12.729 25.61,-28.43 0,-15.707 -11.467,-28.433 -25.61,-28.433 -12.344,0 -21.342,9.812 -27.277,21.678 -1.007,2.009 0.391,6.006 -3.13,8.725 C 12.372,-8.2 5.93,-5.598 0,0 Z"
           style="fill:none;stroke:#00ffff;stroke-width:2;stroke-linecap:butt;stroke-linejoin:miter;stroke-miterlimit:4;stroke-dasharray:none;stroke-opacity:1"
           id="path122" /></g><g
         id="g124"
         transform="translate(131.1753,123.2061)"><path
           d="M 0,0 C -26.231,-42.186 83.897,-56.434 80.938,-12.057 78.536,23.926 16.997,27.332 0,0"
           style="fill:none;stroke:#ff0000;stroke-width:2;stroke-linecap:butt;stroke-linejoin:miter;stroke-miterlimit:4;stroke-dasharray:none;stroke-opacity:1"
           id="path126" /></g><g
         id="g128"
         transform="translate(170.8022,117.9287)"><path
           d="M 0,0 C -16.529,-6.848 -26.44,28.83 -12.835,35.863 9.792,47.561 21.663,8.949 0,0"
           style="fill:none;stroke:#1fa22d;stroke-width:2;stroke-linecap:butt;stroke-linejoin:miter;stroke-miterlimit:4;stroke-dasharray:none;stroke-opacity:1"
           id="path130" /></g><g
         id="g132"
         transform="translate(160.8481,110.6064)"><path
           d="m 0,0 c 4.765,-1.902 18.155,-0.639 19.922,-6.629 1.805,-6.117 -39.6,-35.861 -5.789,-32.82 38.18,3.431 -4.086,23.791 -5.894,29.908 -1.991,6.75 15.825,14.371 17.099,21.17 1.275,6.797 -21.346,10.584 -29.629,0 C -7.576,7.434 -4.811,1.922 0,0 Z"
           style="fill:none;stroke:#008080;stroke-width:2;stroke-linecap:butt;stroke-linejoin:miter;stroke-miterlimit:4;stroke-dasharray:none;stroke-opacity:1"
           id="path134" /></g><g
         id="g136"
         transform="translate(82.5293,123.3271)"><path
           d="m 0,0 c 3.5,-3.044 22.008,-14.248 22.773,-22.089 1.235,-12.728 -7.849,-24.144 -20.511,-25.52 -3.414,-0.37 -20.342,-2.287 -21.532,10.572 -1.818,11.149 10.032,16.759 17.604,21.65 C 5.666,-10.654 22.125,1.123 22,8.794 21.836,19.113 16.666,28.246 11.666,28.92 8.018,29.414 -8.9,28.682 -7.666,17.419 -6.666,8.287 -4.152,3.612 0,0 Z"
           style="fill:none;stroke:#008080;stroke-width:2;stroke-linecap:butt;stroke-linejoin:miter;stroke-miterlimit:4;stroke-dasharray:none;stroke-opacity:1"
           id="path138" /></g><g
         id="g140"
         transform="translate(65.8633,135.8447)"><path
           d="M 0,0 C -9.154,4.326 -13.994,14.434 -24.846,13.255 -37.51,11.878 -46.695,0.452 -45.359,-12.264 c 1.17,-11.13 10.271,-23.132 20.675,-20.571 12.862,3.165 9.465,44.856 21.184,49.914 10.826,4.672 16.945,4.442 21.334,-3.888 C 23,3.38 12.166,-5.753 0,0 Z"
           style="fill:none;stroke:#42a62a;stroke-width:2;stroke-linecap:butt;stroke-linejoin:miter;stroke-miterlimit:4;stroke-dasharray:none;stroke-opacity:1"
           id="path142" /></g><g
         id="g144"
         transform="translate(72.1895,89.2344)"><path
           d="m 0,0 c -3.469,8.337 -12.748,6.13 -17.785,10.397 -5.158,4.376 -7.77,16.606 -12.543,17.14 -11.75,1.317 -19.49,-13.215 -18.235,-25.159 1.334,-12.719 12.68,-21.913 25.344,-20.536 3.315,0.359 11.799,-0.31 17.75,5.394 C -2.357,-9.78 2.695,-6.485 0,0 Z"
           style="fill:none;stroke:#e2001a;stroke-width:2;stroke-linecap:butt;stroke-linejoin:miter;stroke-miterlimit:4;stroke-dasharray:none;stroke-opacity:1"
           id="path146" /></g><g
         id="g148"
         transform="translate(63.1357,384.6348)"><path
           d="m 0,0 c 8.559,0.596 34.912,0.459 39.254,5.443 5.754,6.605 2.191,22.618 -1.557,26.139 -5.949,5.582 -18.91,6.879 -23.176,-1.883 C 13.316,27.221 16.84,13.123 16.509,7.849 15.811,-3.256 10.98,-25.164 -0.832,-26.47 -18.179,-28.396 -21.68,-16.109 -19.241,7.439 -17.146,27.66 -6.677,30.77 -10.131,45.26 -13.586,59.75 -46.842,42.766 -42.343,20.844 -36.322,-8.51 -8.91,-0.617 0,0 Z"
           style="fill:none;stroke:#9e3830;stroke-width:2;stroke-linecap:butt;stroke-linejoin:miter;stroke-miterlimit:4;stroke-dasharray:none;stroke-opacity:1"
           id="path150" /></g><g
         id="g152"
         transform="translate(87.9189,421.1152)"><path
           d="m 0,0 c -2.542,8.352 -8.274,21.096 -18.207,21.85 -10.106,0.765 -27.227,-8.942 -23.049,-21.314 4.174,-12.368 7.416,-11.829 11.791,-22.764 3.801,-9.501 1.508,-18.61 5.299,-29.384 4.133,-11.744 23.678,-11.99 28.568,-2.416 C 10.445,-42.207 2.543,-8.353 0,0 Z"
           style="fill:none;stroke:#f29400;stroke-width:2;stroke-linecap:butt;stroke-linejoin:miter;stroke-miterlimit:4;stroke-dasharray:none;stroke-opacity:1"
           id="path154" /></g><g
         id="g156"
         transform="translate(63.7993,536.2256)"><path
           d="m 0,0 c -4.636,-4.073 -15.957,-9.831 -16.057,-17.068 -0.131,-9.762 8.537,-17.675 19.063,-17.675 6.499,0 12.238,3.016 15.678,7.622 2.131,2.855 16.533,33.809 19.414,37.56 2.214,2.89 3.517,6.42 3.517,10.235 0,9.764 -8.533,17.68 -19.059,17.68 -5.719,0 -37.963,1.91 -44.966,1.91 -10.526,0 -23.077,-8.782 -19.06,-17.678 2.476,-5.482 25.282,-7.805 36.543,-9.52 C -0.659,12.414 6.407,7.462 0,0 Z"
           style="fill:none;stroke:#e2007a;stroke-width:2;stroke-linecap:butt;stroke-linejoin:miter;stroke-miterlimit:4;stroke-dasharray:none;stroke-opacity:1"
           id="path158" /></g><g
         id="g160"
         transform="translate(102.1665,540.0166)"><path
           d="m 0,0 c 2.767,-2.115 3.248,-6.214 3.248,-9.869 0,-9.763 -8.533,-17.678 -19.06,-17.678 -4.142,0 -40.749,3.821 -46.918,3.821 -10.527,0 -19.061,7.915 -19.061,17.678 0,4.566 1.865,8.726 4.932,11.864 3.227,3.307 19.822,30.336 22.023,33.217 3.454,4.522 9.138,7.472 15.567,7.472 7.128,0 15.338,-2.843 16.613,-9.005 C -19.569,22.54 -46.526,7.871 -42.901,2.374 -39.276,-3.126 -12.487,9.54 0,0 Z"
           style="fill:none;stroke:#379794;stroke-width:2;stroke-linecap:butt;stroke-linejoin:miter;stroke-miterlimit:4;stroke-dasharray:none;stroke-opacity:1"
           id="path162" /></g><g
         id="g164"
         transform="translate(160.5361,539.0229)"><path
           d="M 0,0 C -2.119,-0.355 -1.68,-9.154 -2.898,-10.984 -5.607,-15.057 -11.699,-14.1 -15.852,-12.66 -28.219,-8.381 -37.098,3.615 -31.879,16.035 -27.33,26.85 -11.149,33.219 0.273,27.34 4.59,25.119 6.27,20.34 2.799,17.006 -1.026,13.326 -1.412,7.525 6.04,9.475 15.477,11.941 19.143,25.156 28.709,26.025 41.186,27.154 52.83,13.885 51.537,2.258 50.082,-10.84 34.507,-20.525 21.541,-14.391 16.13,-11.83 6.195,1.035 0,0"
           style="fill:none;stroke:#e2007a;stroke-width:2;stroke-linecap:butt;stroke-linejoin:miter;stroke-miterlimit:4;stroke-dasharray:none;stroke-opacity:1"
           id="path166" /></g><g
         id="g168"
         transform="translate(163.0771,532.6011)"><path
           d="m 0,0 c -1.66,-1.121 -4.834,5.451 -6.729,5.844 -4.531,0.939 -9,-8.739 -9.796,-11.856 -2.989,-11.695 5.752,-23.761 18.216,-24.986 C 27.846,-33.561 32.693,5.303 33.143,23.947 33.434,35.998 30.996,49.934 16.719,53.299 3.287,56.465 -6.371,47.051 -10.002,35.605 -11.057,32.277 -12.531,26.842 -10,23.563 -7.061,19.752 -2.148,24.109 1.426,23.053 6.18,21.652 3.086,2.086 0,0"
           style="fill:none;stroke:#379794;stroke-width:2;stroke-linecap:butt;stroke-linejoin:miter;stroke-miterlimit:4;stroke-dasharray:none;stroke-opacity:1"
           id="path170" /></g><g
         id="g172"
         transform="translate(595.3555,521.335)"><path
           d="m 0,0 c -16.119,1.777 -36.779,12.496 -19.178,33.408 4.401,5.233 15.44,14.44 23.69,9.012 C 10.686,38.359 20.043,28.775 21.951,23.705 23.865,18.629 22.887,16.152 21.631,13.58 19.346,8.908 13.293,5.523 9.836,2.615 8.314,1.334 2.395,-0.264 0,0 Z"
           style="fill:none;stroke:#9e88b0;stroke-width:2;stroke-linecap:butt;stroke-linejoin:miter;stroke-miterlimit:4;stroke-dasharray:none;stroke-opacity:1"
           id="path174" /></g><g
         id="g176"
         transform="translate(615.1543,522.2959)"><path
           d="M 0,0 C 12.967,-2.93 26.604,-0.637 33.566,7.635 52.492,30.125 19.531,41.434 10.354,40.805 1.172,40.178 -10.195,28.518 -20.088,33.518 -29.98,38.518 -15.629,67.43 0.5,63.934 15.994,60.574 15.428,41.943 12.717,36.492 10.006,31.043 -2.492,24.729 -3.273,19.393 -4.059,14.057 8.758,11.762 15.404,7.484 c 7.188,-4.625 1.348,-21.295 -4.478,-25.324 -8.682,-6.008 -22.434,-2.822 -28.469,8.748 -2.73,5.238 -2.57,13.371 0.023,15.475 C -14.928,8.484 -8.922,2.02 0,0 Z"
           style="fill:none;stroke:#fbc25d;stroke-width:2;stroke-linecap:butt;stroke-linejoin:miter;stroke-miterlimit:4;stroke-dasharray:none;stroke-opacity:1"
           id="path178" /></g><g
         id="g180"
         transform="translate(46.5688,704.709)"><path
           d="m 0,0 c 3.605,-1.798 7.796,-0.546 10.471,-1.276 8.48,-2.321 19.682,-1.147 24.206,-1.307 5.108,-0.184 8.147,6.035 8.267,8.791 0.092,2.09 -3.607,9.775 -11.507,15.311 C 22.003,28.13 3.926,25.562 -4.743,18.216 -6.896,16.392 -7.78,12.382 -6.911,7.421 -6.542,5.312 -2.813,1.401 0,0 Z"
           style="fill:none;stroke:#379794;stroke-width:2;stroke-linecap:butt;stroke-linejoin:miter;stroke-miterlimit:4;stroke-dasharray:none;stroke-opacity:1"
           id="path182" /></g><g
         id="g184"
         transform="translate(54.2446,707.5205)"><path
           d="m 0,0 c 3.136,-8.322 -0.132,-26.018 -0.466,-32.061 -0.142,-2.627 -12.363,-0.468 -14.368,-3.002 -2.933,-3.693 0.558,-14.74 5.337,-20.207 7.563,-8.656 20.726,-9.716 29.396,-2.369 4.435,3.76 10.287,24.709 9.235,35.895 -0.8,8.515 -6.664,11.843 -6.555,16.324 0.112,4.517 4.359,11.596 8.007,11.17 5.505,-0.641 12.692,-9.916 15.446,-13.068 7.567,-8.655 6.672,-21.632 -1.998,-28.983 -8.669,-7.345 -49.419,15.988 -53.034,8.607 -1.671,-3.41 2.703,-10.54 2.458,-13.253 -0.247,-2.713 -15.181,-0.024 -21.802,7.554 -7.566,8.657 -7.528,25.247 1.144,32.596 2.285,1.938 10.57,9.568 14.643,9.162 C -9.352,8.047 -1.571,4.174 0,0 Z"
           style="fill:none;stroke:#f9b43b;stroke-width:2;stroke-linecap:butt;stroke-linejoin:miter;stroke-miterlimit:4;stroke-dasharray:none;stroke-opacity:1"
           id="path186" /></g><g
         id="g188"
         transform="translate(486.248,517.2046)"><path
           d="m 0,0 c 0.421,-8.674 8.677,-15.723 19.38,-15.723 6.607,0 12.441,2.686 15.939,6.784 2.168,2.539 23.164,43.156 21.527,50.591 -1.875,8.53 -6.924,8.395 -17.593,7.645 C 22.28,48.102 -13.81,15.412 -25.837,35.271 -30.483,42.943 -13.104,58.33 -6.458,50.996 13.895,28.535 -0.593,12.299 0,0 Z"
           style="fill:none;stroke:#fbc25d;stroke-width:2;stroke-linecap:butt;stroke-linejoin:miter;stroke-miterlimit:4;stroke-dasharray:none;stroke-opacity:1"
           id="path190" /></g><g
         id="g192"
         transform="translate(518.9941,570.4351)"><path
           d="m 0,0 c -0.204,8.676 -8.284,15.883 -18.983,16.082 -6.61,0.127 -12.506,-2.451 -16.107,-6.48 -2.229,-2.5 -24.214,-42.711 -22.763,-50.178 1.667,-8.561 6.719,-8.52 17.403,-7.969 16.998,0.871 53.881,32.875 65.418,12.797 C 29.425,-43.51 11.673,-58.564 5.21,-51.105 -14.587,-28.264 0.296,-12.313 0,0 Z"
           style="fill:none;stroke:#9e88b0;stroke-width:2;stroke-linecap:butt;stroke-linejoin:miter;stroke-miterlimit:4;stroke-dasharray:none;stroke-opacity:1"
           id="path194" /></g><g
         id="g196"
         transform="translate(178.4839,696.4668)"><path
           d="m 0,0 c -3.595,3.396 -18.378,5.893 -24.695,8.099 -10.758,3.764 -15.088,13.427 -7.629,21.279 7.824,8.228 20.239,3.105 26.906,-4.769 2.836,-3.347 2.796,-9.021 -2.089,-15.351 -3.098,-4.007 -7.18,-11.538 -7.098,-16.174 0.08,-4.535 11.767,-16.961 17.127,-13.936 C 7.885,-17.828 4.505,-4.252 0,0 Z"
           style="fill:none;stroke:#379794;stroke-width:2;stroke-linecap:butt;stroke-linejoin:miter;stroke-miterlimit:4;stroke-dasharray:none;stroke-opacity:1"
           id="path198" /></g><g
         id="g200"
         transform="translate(151.1372,653.4844)"><path
           d="m 0,0 c 2.348,-12.986 20.091,-9.104 29.224,-1.418 7.676,6.463 24.22,31.646 26.281,36.218 2.785,6.173 7.136,23.251 -2.413,31.523 -9.81,8.501 -66.427,-12.409 -71.314,-17.55 -8.205,-8.633 -7.92,-23.669 2.413,-31.525 C -6.312,10.033 43.473,-0.84 54.063,6.969 63.675,14.055 63.787,33.483 51.649,38.496 37.872,44.185 -3.132,17.334 0,0 Z"
           style="fill:none;stroke:#f9b947;stroke-width:2;stroke-linecap:butt;stroke-linejoin:miter;stroke-miterlimit:4;stroke-dasharray:none;stroke-opacity:1"
           id="path202" /></g><g
         id="g204"
         transform="translate(78.5869,261.5332)"><path
           d="m 0,0 c 2.263,10.027 8.821,26.821 -1.695,34.138 -10.621,7.39 -25.719,3.482 -31.424,-6.727 -6.463,-11.57 4.767,-41.192 13.276,-45.836 8.512,-4.647 30.614,0.869 34.016,5.669 C 17.574,-7.954 -1.427,-6.323 0,0 Z"
           style="fill:none;stroke:#00ffff;stroke-width:2;stroke-linecap:butt;stroke-linejoin:miter;stroke-miterlimit:4;stroke-dasharray:none;stroke-opacity:1"
           id="path206" /></g><g
         id="g208"
         transform="translate(105.3896,261.6104)"><path
           d="m 0,0 c 0.657,-23.375 -11.768,-27.573 -27.171,-31.201 -16.135,-3.801 -53.583,-9.439 -57.713,21.404 -2.438,18.229 29.928,29.792 44.717,31.639 C -25.377,23.691 -0.342,18.385 0,0"
           style="fill:none;stroke:#e2001a;stroke-width:2;stroke-linecap:butt;stroke-linejoin:miter;stroke-miterlimit:4;stroke-dasharray:none;stroke-opacity:1"
           id="path210" /></g><g
         id="g212"
         transform="translate(80.0039,244.5254)"><path
           d="m 0,0 c 1.743,-6.146 6.624,-9.261 4.391,-16.739 -7.766,-26.012 -53.617,-10.321 -42.659,15.92 2.927,7.009 9.915,16.076 16.766,20.185 4.871,2.922 28.647,6.403 30.349,3.203 C 10.546,19.366 -1.819,6.401 0,0 Z"
           style="fill:none;stroke:#f29400;stroke-width:2;stroke-linecap:butt;stroke-linejoin:miter;stroke-miterlimit:4;stroke-dasharray:none;stroke-opacity:1"
           id="path214" /></g><g
         id="g216"
         transform="translate(285.5088,724.9849)"><path
           d="m 0,0 c -4.32,-2.797 -7.363,-25.325 -2.945,-29.324 4.418,-3.995 14.724,-7.995 23.562,-1.333 8.835,6.665 16.197,15.996 14.725,22.658 C 33.869,-1.332 10.31,6.662 0,0 Z"
           style="fill:none;stroke:#ea6626;stroke-width:2;stroke-linecap:butt;stroke-linejoin:miter;stroke-miterlimit:4;stroke-dasharray:none;stroke-opacity:1"
           id="path218" /></g><g
         id="g220"
         transform="translate(276.6738,727.6499)"><path
           d="m 0,0 c 13.344,-6.043 35.11,-23.198 42.704,-34.652 3.593,-5.416 8.984,-19.863 2.945,-25.325 -6.564,-5.943 -25.488,-1.911 -32.982,0.102 -9.615,2.581 -44.871,0.616 -48.01,10.56 -3.414,10.814 -0.553,18.726 12.216,20.584 11.239,1.635 25.471,6.149 36.651,5.612 9.35,-0.448 15.212,-14.091 7.101,-19.431 -6.8,-4.478 -15.736,-6.19 -23.081,-9.853 -21.491,-10.72 1.615,-41.51 15.383,-25.937 18.205,20.595 -10.448,36.463 -25.434,47.678 -7.98,5.976 -13.262,11.565 -16.652,20.594 C -34.78,4.906 -8.16,3.691 0,0"
           style="fill:none;stroke:#334b98;stroke-width:2;stroke-linecap:butt;stroke-linejoin:miter;stroke-miterlimit:4;stroke-dasharray:none;stroke-opacity:1"
           id="path222" /></g><g
         id="g224"
         transform="translate(629.1172,724.5996)"><path
           d="m 0,0 c 3.078,-9.206 -5.031,-20.966 -15.825,-25.392 -6.073,-2.489 -18.329,4.639 -21.703,13.259 -3.374,8.62 2.133,18.733 8.912,22.21 C -17.341,15.86 -3.077,9.207 0,0 Z"
           style="fill:none;stroke:#bf4a1a;stroke-width:2;stroke-linecap:butt;stroke-linejoin:miter;stroke-miterlimit:4;stroke-dasharray:none;stroke-opacity:1"
           id="path226" /></g><g
         id="g228"
         transform="translate(573.8057,704.4297)"><path
           d="m 0,0 c -5.886,-9.394 -6.074,-27.173 1.041,-37.06 8.93,-12.411 19.877,-13.689 25.469,-3.18 5.99,11.257 11.544,17.188 22.74,22.507 10,4.75 10.915,12.584 5.665,18.584 C 50.322,6.1 27.754,7.484 19.5,-2.983 c -3.274,-4.152 -1.482,-8.302 2.5,-11.581 4.25,-3.5 37.25,-12.919 40.25,-19.419 2.501,-5.42 3.75,-17.5 -13.5,-23.75 -15.126,-5.481 -37.504,3.023 -31.25,15 5.431,10.4 13.271,0.968 26.75,3.25 17.03,2.881 37.215,15.496 36.405,27.557 C 78.263,23.661 16.936,27.026 0,0"
           style="fill:none;stroke:#21b2b2;stroke-width:2;stroke-linecap:butt;stroke-linejoin:miter;stroke-miterlimit:4;stroke-dasharray:none;stroke-opacity:1"
           id="path230" /></g><g
         id="g232"
         transform="translate(303.0073,116.583)"><path
           d="m 0,0 c 3.473,-5.582 -4.545,-14.683 -8.03,-16.804 -9.808,-5.968 -22.267,-2.354 -27.826,8.074 -1.502,2.817 -8.998,16.726 0.977,22.626 C -26.506,19.691 -3.87,7.255 0,0 Z"
           style="fill:none;stroke:#009ee0;stroke-width:2;stroke-linecap:butt;stroke-linejoin:miter;stroke-miterlimit:4;stroke-dasharray:none;stroke-opacity:1"
           id="path234" /></g><g
         id="g236"
         transform="translate(257.4014,80.0537)"><path
           d="m 0,0 c -13.969,25.413 9.107,67.822 17.689,73.049 9.809,5.967 22.27,2.354 27.831,-8.082 C 48.063,60.2 56.083,15.384 50.963,0.808 45.844,-13.767 5.912,-10.758 0,0 Z"
           style="fill:none;stroke:#ff00ff;stroke-width:2;stroke-linecap:butt;stroke-linejoin:miter;stroke-miterlimit:4;stroke-dasharray:none;stroke-opacity:1"
           id="path238" /></g><g
         id="g240"
         transform="translate(288.7334,112.3281)"><path
           d="m 0,0 c -1.785,-6.963 0.225,-6.05 5.287,-14.926 5.193,-9.428 16.708,-13.453 20.688,-9.131 7.908,8.588 14.054,19.808 7.693,29.7 C 29.809,11.64 18.834,20.347 14.256,15.099 9.682,9.852 1.723,6.71 0,0 Z"
           style="fill:none;stroke:#ff0000;stroke-width:2;stroke-linecap:butt;stroke-linejoin:miter;stroke-miterlimit:4;stroke-dasharray:none;stroke-opacity:1"
           id="path242" /></g><g
         id="g244"
         transform="translate(265.4951,95.3896)"><path
           d="m 0,0 c 5.52,6.159 10.986,12.577 12.668,18.554 1.723,6.116 0.174,13.776 -1.07,18.107 -3.065,10.661 -17.526,11.851 -26.739,6.246 -9.81,-5.97 -13.252,-19.266 -7.691,-29.7 1.455,-2.728 3.893,-10.323 10.598,-13.311 C -8.734,-1.663 -4.293,-4.787 0,0 Z"
           style="fill:none;stroke:#ffcc00;stroke-width:2;stroke-linecap:butt;stroke-linejoin:miter;stroke-miterlimit:4;stroke-dasharray:none;stroke-opacity:1"
           id="path246" /></g><g
         id="g248"
         transform="translate(396.2783,831.0117)"><path
           d="m 0,0 c -16.718,-3.47 -8.291,-18.994 3.643,-24.135 18.837,-8.115 38.722,20.153 34.316,30.683 -8.906,21.281 -72.248,23.696 -79.566,0.369 -3.922,-12.504 9.136,-33.447 24.056,-32.356 9.789,0.715 16.309,1.339 20.531,8.478 3.88,7.603 -10.064,8.168 -14.902,9.784 C -34.551,0.382 -17.338,43.432 3.986,42.524 34.338,41.237 25.316,5.251 0,0 Z"
           style="fill:none;stroke:#ea6626;stroke-width:2;stroke-linecap:butt;stroke-linejoin:miter;stroke-miterlimit:4;stroke-dasharray:none;stroke-opacity:1;font-variation-settings:normal;opacity:1;vector-effect:none;fill-opacity:1;stroke-dashoffset:0;stop-color:#000000;stop-opacity:1"
           id="path250" /></g><g
         id="g252"
         transform="translate(358.8486,830.084)"><path
           d="M 0,0 C 45.708,25.712 58.33,-10.339 61.094,-19.024 65.269,-32.15 38.855,-46.198 13.963,-40.109 -11.71,-33.829 -15.157,-8.53 0,0 Z"
           style="fill:none;stroke:#009036;stroke-width:2;stroke-linecap:butt;stroke-linejoin:miter;stroke-miterlimit:4;stroke-dasharray:none;stroke-opacity:1"
           id="path254" /></g><g
         id="g256"
         transform="translate(620.8984,218.9746)"><path
           d="M 0,0 C 16.895,7.566 28.941,41.529 30.391,58.33 33.119,89.972 -18.57,69.89 -19.563,39.617 -19.563,39.617 -26.564,-11.896 0,0 Z"
           style="fill:none;stroke:#f29400;stroke-width:2;stroke-linecap:butt;stroke-linejoin:miter;stroke-miterlimit:4;stroke-dasharray:none;stroke-opacity:1"
           id="path258" /></g><g
         id="g260"
         transform="translate(588.1348,256.8584)"><path
           d="M 0,0 C -0.1,1.356 -0.213,2.634 -0.301,3.81 -1.807,23.831 -1.438,58.109 30.006,40.498 54.664,26.682 44.145,-9.627 22.127,-9.005 18.326,-8.896 0.521,-6.889 0,0 Z"
           style="fill:none;stroke:#ff00ff;stroke-width:2;stroke-linecap:butt;stroke-linejoin:miter;stroke-miterlimit:4;stroke-dasharray:none;stroke-opacity:1"
           id="path262" /></g><g
         id="g264"
         transform="translate(635.5898,234.8896)"><path
           d="M 0,0 C 14.883,-8.2 23.467,6.922 20.092,20.59 14.557,43.021 -25.336,38.183 -41.684,36.489 -51.826,35.438 -63.244,30.76 -64.162,19.072 -65.516,1.885 -40.842,3.264 -30.355,6.315 -29.834,6.469 -8.557,4.715 0,0 Z"
           style="fill:none;stroke:#ff0000;stroke-width:2;stroke-linecap:butt;stroke-linejoin:miter;stroke-miterlimit:4;stroke-dasharray:none;stroke-opacity:1"
           id="path266" /></g><g
         id="g268"
         transform="translate(298.1567,869.1299)"><path
           d="m 0,0 c 13.168,-7.625 18.363,-22.475 11.605,-33.174 -6.757,-10.693 -23.229,-9.115 -36.397,-1.492 -13.166,7.627 -18.041,18.41 -11.285,29.103 C -29.317,5.137 -13.167,7.627 0,0 Z"
           style="fill:none;stroke:#1f9f57;stroke-width:2;stroke-linecap:butt;stroke-linejoin:miter;stroke-miterlimit:4;stroke-dasharray:none;stroke-opacity:1"
           id="path270" /></g><g
         id="g272"
         transform="translate(279.0947,821.0537)"><path
           d="m 0,0 c 6.896,-8.184 15.697,-8.979 13.763,-19.199 -1.053,-5.572 -9.42,-13.916 -16.992,-13.313 -7.567,0.602 -13.083,17.235 -6.554,23.491 5.739,5.498 22.511,-7.415 24.066,28.908 0.258,5.976 -15.001,7.447 -18.413,8.056 -14.455,2.586 -25.239,0.334 -31.998,-10.361 -6.76,-10.699 -1.562,-25.551 11.604,-33.176 4.545,-2.629 9.461,-3.76 14.191,-4.359 2.949,-0.373 17.9,-2.574 22.109,-2.992 12.786,-1.278 25.314,0.761 31.21,10.097 6.758,10.696 1.563,25.547 -11.606,33.172 -7.06,4.09 -10.777,5.239 -17.755,4.223 C 9.651,23.967 -2.847,3.379 0,0 Z"
           style="fill:none;stroke:#ea6626;stroke-width:2;stroke-linecap:butt;stroke-linejoin:miter;stroke-miterlimit:4;stroke-dasharray:none;stroke-opacity:1;font-variation-settings:normal;opacity:1;vector-effect:none;fill-opacity:1;stroke-dashoffset:0;stop-color:#000000;stop-opacity:1"
           id="path274" /></g><g
         id="g276"
         transform="translate(55.8765,870.9766)"><path
           d="M 0,0 C 13.561,5.879 29.127,1.348 34.76,-10.123 40.396,-21.594 33.97,-35.656 20.409,-41.535 6.849,-47.416 -8.712,-42.889 -14.35,-31.414 -19.982,-19.945 -13.561,-5.881 0,0 Z"
           style="fill:none;stroke:#009036;stroke-width:2;stroke-linecap:butt;stroke-linejoin:miter;stroke-miterlimit:4;stroke-dasharray:none;stroke-opacity:1"
           id="path278" /></g><g
         id="g280"
         transform="translate(89.0796,800.8691)"><path
           d="m 0,0 c 13.13,6.686 19.985,19.947 14.35,31.418 -5.635,11.471 -21.198,16 -34.758,10.121 -11.031,-4.781 -17.192,-15.775 -21.227,-24.232 -5.327,-11.155 2.708,-30.19 11.963,-29.655 6.94,0.403 24.049,5.957 19.143,18.364 -4.905,12.404 -33.223,-3.012 -40.223,-2.221 -7.098,0.799 -12.871,5.771 -15.91,11.957 -5.635,11.469 0.793,25.537 14.348,31.414 13.563,5.883 29.126,1.35 34.761,-10.119 3.473,-7.072 7.538,-11.152 4.799,-18.623 -2.414,-6.598 -7.953,-9.662 -7.56,-13.486 C -19.833,0.271 -12.881,-6.557 0,0 Z"
           style="fill:none;stroke:#ea6626;stroke-width:2;stroke-linecap:butt;stroke-linejoin:miter;stroke-miterlimit:4;stroke-dasharray:none;stroke-opacity:1;font-variation-settings:normal;opacity:1;vector-effect:none;fill-opacity:1;stroke-dashoffset:0;stop-color:#000000;stop-opacity:1"
           id="path282" /></g><g
         id="g284"
         transform="translate(388.9746,691.6436)"><path
           d="m 0,0 c -8.195,-4.404 -3.564,-19.104 -12.842,-23.375 -9.281,-4.271 -19.058,5.736 -22.709,11.215 -15.031,22.572 21.487,37.318 26.362,34.394 C -4.316,19.316 6.678,5.307 9.107,-1.309 10.793,-5.896 5.838,-15.574 8.549,-21.246 c 3.646,-7.631 13.01,-9.836 18.338,-8.99 11.818,1.888 25.595,18.591 15.488,33.769 C 35.123,14.424 21.453,21.309 10.422,17.809 7.162,16.773 -10.016,9.543 -17.109,15.342 -28.875,24.959 -27.973,43.568 9.738,37.029 25.83,34.238 31.953,9.309 23.889,5.688 16.424,2.33 7.119,3.824 0,0"
           style="fill:none;stroke:#334b98;stroke-width:2;stroke-linecap:butt;stroke-linejoin:miter;stroke-miterlimit:4;stroke-dasharray:none;stroke-opacity:1"
           id="path286" /></g><g
         id="g288"
         transform="translate(406.9375,671.165)"><path
           d="m 0,0 c -7.568,2.766 -29.355,5.256 -37.092,2.643 -10.885,-3.688 1.779,-30.303 18.781,-28.747 7.311,0.672 17.862,4.85 20.299,8.815 C 4.088,-13.873 9.482,-3.465 0,0 Z"
           style="fill:none;stroke:#ea6626;stroke-width:2;stroke-linecap:butt;stroke-linejoin:miter;stroke-miterlimit:4;stroke-dasharray:none;stroke-opacity:1"
           id="path290" /></g><g
         id="g292"
         transform="translate(511.79,841.5991)"><path
           d="m 0,0 c -15.218,-6.654 -4.811,-24.422 6.766,-29.563 18.269,-8.115 29.48,14.989 25.207,25.518 -8.639,21.277 -71.354,23.695 -78.452,0.369 -3.804,-12.502 10.538,-20.947 25.007,-19.857 9.494,0.715 18.557,4.873 22.652,12.012 3.762,7.601 -12.859,7.16 -17.549,8.775 -21.948,7.557 -5.288,35.58 15.393,34.676 C 28.461,30.641 24.553,5.252 0,0"
           style="fill:none;stroke:#ea6626;stroke-width:2;stroke-linecap:butt;stroke-linejoin:miter;stroke-miterlimit:4;stroke-dasharray:none;stroke-opacity:1;font-variation-settings:normal;opacity:1;vector-effect:none;fill-opacity:1;stroke-dashoffset:0;stop-color:#000000;stop-opacity:1"
           id="path294" /></g><g
         id="g296"
         transform="translate(469.3613,830.0776)"><path
           d="m 0,0 c 13.068,0 8.465,-10.871 11.851,-14.947 2.068,-2.491 11.579,-6.356 19.908,-6.791 12.557,-0.658 13.487,6.474 16.928,9.509 3.13,2.762 9.169,1.893 11.849,-6.791 C 64.587,-32.145 37.685,-46.191 13.543,-40.104 -11.358,-33.824 -16.93,0 0,0 Z"
           style="fill:none;stroke:#009036;stroke-width:2;stroke-linecap:butt;stroke-linejoin:miter;stroke-miterlimit:4;stroke-dasharray:none;stroke-opacity:1;font-variation-settings:normal;opacity:1;vector-effect:none;fill-opacity:1;stroke-dashoffset:0;stop-color:#000000;stop-opacity:1"
           id="path298" /></g></g></g></svg>
