<?xml version="1.0" encoding="UTF-8" standalone="no"?>
<svg
   xmlns:dc="http://purl.org/dc/elements/1.1/"
   xmlns:cc="http://creativecommons.org/ns#"
   xmlns:rdf="http://www.w3.org/1999/02/22-rdf-syntax-ns#"
   xmlns:svg="http://www.w3.org/2000/svg"
   xmlns="http://www.w3.org/2000/svg"
   xmlns:sodipodi="http://sodipodi.sourceforge.net/DTD/sodipodi-0.dtd"
   xmlns:inkscape="http://www.inkscape.org/namespaces/inkscape"
   width="140"
   height="360"
   viewBox="0 0 37.041667 95.250001"
   version="1.1"
   id="svg28279"
   inkscape:version="1.0.2-2 (e86c870879, 2021-01-15)"
   sodipodi:docname="anulunule.svg">
  <metadata
     id="metadata17">
    <rdf:RDF>
      <cc:Work
         rdf:about="">
        <dc:format>image/svg+xml</dc:format>
        <dc:type
           rdf:resource="http://purl.org/dc/dcmitype/StillImage" />
        <dc:title></dc:title>
      </cc:Work>
    </rdf:RDF>
  </metadata>
  <sodipodi:namedview
     id="namedview28281"
     pagecolor="#ffffff"
     bordercolor="#666666"
     borderopacity="1.0"
     inkscape:pageshadow="2"
     inkscape:pageopacity="0.0"
     inkscape:pagecheckerboard="0"
     inkscape:document-units="mm"
     showgrid="true"
     inkscape:zoom="2.7901515"
     inkscape:cx="140.73226"
     inkscape:cy="212.62196"
     inkscape:window-width="1920"
     inkscape:window-height="1001"
     inkscape:window-x="-9"
     inkscape:window-y="-9"
     inkscape:window-maximized="1"
     inkscape:current-layer="layer1"
     inkscape:document-rotation="0"
     units="px">
    <inkscape:grid
       type="xygrid"
       id="grid28512" />
  </sodipodi:namedview>
  <defs
     id="defs28276">
    <marker
       style="overflow:visible"
       id="Arrow1Mend"
       refX="0"
       refY="0"
       orient="auto"
       inkscape:stockid="Arrow1Mend"
       inkscape:isstock="true">
      <path
         transform="matrix(-0.4,0,0,-0.4,-4,0)"
         style="fill:#000000;fill-opacity:1;fill-rule:evenodd;stroke:#000000;stroke-width:1pt;stroke-opacity:1"
         d="M 0,0 5,-5 -12.5,0 5,5 Z"
         id="path933" />
    </marker>
    <marker
       style="overflow:visible"
       id="Arrow1Mend-6"
       refX="0"
       refY="0"
       orient="auto"
       inkscape:stockid="Arrow1Mend"
       inkscape:isstock="true">
      <path
         transform="matrix(-0.4,0,0,-0.4,-4,0)"
         style="fill:#000000;fill-opacity:1;fill-rule:evenodd;stroke:#000000;stroke-width:1pt;stroke-opacity:1"
         d="M 0,0 5,-5 -12.5,0 5,5 Z"
         id="path933-0" />
    </marker>
  </defs>
  <g
     inkscape:label="Calque 1"
     inkscape:groupmode="layer"
     id="layer1">
    <g
       id="g1298"
       transform="rotate(90,18.668462,18.668462)">
      <g
         id="g21"
         transform="translate(-29.280492,-28.859304)"
         style="stroke-width:0.814917;stroke-miterlimit:4;stroke-dasharray:none">
        <path
           style="fill:none;stroke:#000000;stroke-width:0.814917;stroke-miterlimit:4;stroke-dasharray:none;stop-color:#000000"
           d="m 53.103448,58.413794 c -2.820368,0 -5.419522,-0.903415 -7.496751,-2.423414 m -3.097038,-3.318576 c -1.101143,-1.760205 -1.733798,-3.817946 -1.733798,-6.016631 0,-6.494107 5.519249,-11.758622 12.327587,-11.758621"
           id="path28385-2"
           sodipodi:nodetypes="ccccc" />
        <path
           style="fill:none;stroke:#000000;stroke-width:0.814917;stroke-miterlimit:4;stroke-dasharray:none;stop-color:#000000"
           d="m 35.71875,58.208333 c 6.808338,10e-7 12.327587,-5.264514 12.327587,-11.758621 0,-2.282284 -0.68168,-4.412701 -1.861425,-6.216112 M 42.893095,36.886413 C 40.872128,35.504558 38.395033,34.691091 35.71875,34.691091"
           id="path28385-2-2"
           sodipodi:nodetypes="ccccc" />
      </g>
      <g
         id="g1274">
        <path
           style="fill:none;stroke:#000000;stroke-width:0.814917;stroke-miterlimit:4;stroke-dasharray:none;stop-color:#000000"
           d="m 53.220619,30.086444 c -2.820368,0 -5.419522,-0.903415 -9.04527,-4.082702 -2.649662,-3.419493 -3.282317,-5.477234 -3.282317,-7.675919 0,-6.494107 5.519249,-11.758622 12.327587,-11.758621"
           id="path28385-2-3"
           sodipodi:nodetypes="cccc" />
        <path
           style="fill:none;stroke:#000000;stroke-width:0.814917;stroke-miterlimit:4;stroke-dasharray:none;stop-color:#000000"
           d="m 35.835921,29.880983 c 2.591595,0 4.996409,-0.762799 6.981129,-2.065856 m 3.002697,-2.793719 c 1.474351,-1.937818 2.343761,-4.321588 2.343761,-6.899046 0,-2.282284 -0.68168,-4.412701 -1.861425,-6.216112 M 43.010266,8.559063 C 40.989299,7.177208 38.512204,6.363741 35.835921,6.363741"
           id="path28385-2-2-8"
           sodipodi:nodetypes="ccccccc" />
      </g>
      <path
         style="fill:none;stroke:#000000;stroke-width:0.814917;stroke-miterlimit:4;stroke-dasharray:none;stop-color:#000000"
         d="M 89.958333,30.427083 C 83.673467,29.756736 80.98636,23.377993 81.044539,18.383979 81.100958,13.541081 83.149995,6.90984 89.958333,6.909841"
         id="path28385-2-3-6"
         sodipodi:nodetypes="cac" />
      <path
         style="fill:none;stroke:#000000;stroke-width:0.814917;stroke-miterlimit:4;stroke-dasharray:none;stop-color:#000000"
         d="M 68.791667,30.427083 C 75.076533,29.756736 77.76364,23.377993 77.705461,18.383979 77.649042,13.541081 75.600005,6.9098401 68.791667,6.9098411"
         id="path28385-2-3-6-3"
         sodipodi:nodetypes="cac" />
      <path
         style="fill:none;stroke:#000000;stroke-width:0.264583px;stroke-linecap:butt;stroke-linejoin:miter;stroke-opacity:1;marker-end:url(#Arrow1Mend)"
         d="m 25.135416,18.520833 h 9.260417"
         id="path922" />
      <path
         style="fill:none;stroke:#000000;stroke-width:0.264583px;stroke-linecap:butt;stroke-linejoin:miter;stroke-opacity:1;marker-end:url(#Arrow1Mend-6)"
         d="m 55.562499,18.520833 h 9.260417"
         id="path922-8" />
    </g>
  </g>
</svg>
