<?xml version="1.0" encoding="UTF-8" standalone="no"?>
<svg
   xmlns:dc="http://purl.org/dc/elements/1.1/"
   xmlns:cc="http://creativecommons.org/ns#"
   xmlns:rdf="http://www.w3.org/1999/02/22-rdf-syntax-ns#"
   xmlns:svg="http://www.w3.org/2000/svg"
   xmlns="http://www.w3.org/2000/svg"
   xmlns:sodipodi="http://sodipodi.sourceforge.net/DTD/sodipodi-0.dtd"
   xmlns:inkscape="http://www.inkscape.org/namespaces/inkscape"
   version="1.1"
   id="svg2"
   xml:space="preserve"
   width="479.06479"
   height="393.97192"
   viewBox="0 0 479.06479 393.97192"
   sodipodi:docname="coin retournable.ai.svg"
   inkscape:version="1.0.2-2 (e86c870879, 2021-01-15)"><metadata
     id="metadata8"><rdf:RDF><cc:Work
         rdf:about=""><dc:format>image/svg+xml</dc:format><dc:type
           rdf:resource="http://purl.org/dc/dcmitype/StillImage" /><dc:title></dc:title></cc:Work></rdf:RDF></metadata><defs
     id="defs6"><clipPath
       clipPathUnits="userSpaceOnUse"
       id="clipPath18"><path
         d="M 0,841.89 H 595.276 V 0 H 0 Z"
         id="path16" /></clipPath></defs><sodipodi:namedview
     pagecolor="#ffffff"
     bordercolor="#666666"
     borderopacity="1"
     objecttolerance="10"
     gridtolerance="10"
     guidetolerance="10"
     inkscape:pageopacity="0"
     inkscape:pageshadow="2"
     inkscape:window-width="1816"
     inkscape:window-height="1030"
     id="namedview4"
     showgrid="false"
     inkscape:zoom="0.60756155"
     inkscape:cx="211.87775"
     inkscape:cy="84.895061"
     inkscape:window-x="86"
     inkscape:window-y="0"
     inkscape:window-maximized="0"
     inkscape:current-layer="g10"
     inkscape:document-rotation="0"
     fit-margin-top="10"
     fit-margin-left="10"
     fit-margin-right="10"
     fit-margin-bottom="10" /><g
     id="g10"
     inkscape:groupmode="layer"
     inkscape:label="coin retournable"
     transform="matrix(1.3333333,0,0,-1.3333333,-184.97293,646.15505)"><g
       id="g12"><g
         id="g14"
         clip-path="url(#clipPath18)"><text
           transform="matrix(1,0,0,-1,277,350.5566)"
           style="font-variant:normal;font-weight:normal;font-stretch:normal;font-size:12px;font-family:'Times New Roman';-inkscape-font-specification:TimesNewRomanPSMT;writing-mode:lr-tb;fill:#1a171b;fill-opacity:1;fill-rule:nonzero;stroke:none"
           id="text22"><tspan
             x="0 6.7680001 9.7679996 13.764 19.091999 22.427999 28.427999 34.428001 38.424 44.424 49.751999 59.088001 64.416 70.416 73.751999 76.751999"
             y="0"
             sodipodi:role="line"
             id="tspan20">&lt; retournement &gt;</tspan></text><g
           id="g24"
           transform="translate(411.499,378.8271)"><path
             d="M 0,0 C 2.666,7.667 11.332,21.036 21.832,27.869"
             style="fill:none;stroke:#1a171b;stroke-width:2;stroke-linecap:butt;stroke-linejoin:miter;stroke-miterlimit:4;stroke-dasharray:none;stroke-opacity:1"
             id="path26" /></g><g
           id="g28"
           transform="translate(442.9971,411.8633)"><path
             d="M 0,0 C 17,7 19.168,40.631 22.502,45.631"
             style="fill:none;stroke:#1a171b;stroke-width:2;stroke-linecap:butt;stroke-linejoin:miter;stroke-miterlimit:4;stroke-dasharray:none;stroke-opacity:1"
             id="path30" /></g><g
           id="g32"
           transform="translate(408.3311,457.8633)"><path
             d="M 0,0 C 6.499,-15.797 38.166,-64.501 52.166,-80.167"
             style="fill:none;stroke:#1a171b;stroke-width:2;stroke-linecap:butt;stroke-linejoin:miter;stroke-miterlimit:4;stroke-dasharray:none;stroke-opacity:1"
             id="path34" /></g><g
           id="g36"
           transform="translate(464.3311,435.6963)"><path
             d="M 0,0 C 8,-2 16.5,-15.702 21.5,-16.535"
             style="fill:none;stroke:#1a171b;stroke-width:2;stroke-linecap:butt;stroke-linejoin:miter;stroke-miterlimit:4;stroke-dasharray:none;stroke-opacity:1"
             id="path38" /></g><g
           id="g40"
           transform="translate(426.3311,438.5303)"><path
             d="M 0,0 C 11.834,6.666 19.834,5.297 28.834,1.297"
             style="fill:none;stroke:#1a171b;stroke-width:2;stroke-linecap:butt;stroke-linejoin:miter;stroke-miterlimit:4;stroke-dasharray:none;stroke-opacity:1"
             id="path42" /></g><g
           id="g44"
           transform="translate(372.4131,419.2178)"><path
             d="M 0,0 C 24,-4 32.5,9 43.251,13.979"
             style="fill:none;stroke:#1a171b;stroke-width:2;stroke-linecap:butt;stroke-linejoin:miter;stroke-miterlimit:4;stroke-dasharray:none;stroke-opacity:1"
             id="path46" /></g><g
           id="g48"
           transform="translate(486.2471,391.5615)"><path
             d="M 0,0 -49.25,-27.396 -98.498,0 V 54.791 L -49.25,82.188 0,54.791 Z"
             style="fill:none;stroke:#1a171b;stroke-width:1;stroke-linecap:butt;stroke-linejoin:miter;stroke-miterlimit:4;stroke-dasharray:none;stroke-opacity:1"
             id="path50" /></g><g
           id="g52"
           transform="translate(391.3467,446.3525)"><path
             d="m 0,0 c 0,-2.004 -1.625,-3.628 -3.629,-3.628 -2.004,0 -3.629,1.624 -3.629,3.628 0,2.004 1.625,3.629 3.629,3.629 C -1.625,3.629 0,2.004 0,0"
             style="fill:#ffffff;fill-opacity:1;fill-rule:nonzero;stroke:none"
             id="path54" /></g><g
           id="g56"
           transform="translate(391.3467,446.3525)"><path
             d="m 0,0 c 0,-2.004 -1.625,-3.628 -3.629,-3.628 -2.004,0 -3.629,1.624 -3.629,3.628 0,2.004 1.625,3.629 3.629,3.629 C -1.625,3.629 0,2.004 0,0 Z"
             style="fill:none;stroke:#1a171b;stroke-width:1.246;stroke-linecap:butt;stroke-linejoin:miter;stroke-miterlimit:4;stroke-dasharray:none;stroke-opacity:1"
             id="path58" /></g><g
           id="g60"
           transform="translate(488.626,446.9424)"><path
             d="m 0,0 c 0,-2.004 -1.625,-3.629 -3.629,-3.629 -2.004,0 -3.627,1.625 -3.627,3.629 0,2.004 1.623,3.628 3.627,3.628 C -1.625,3.628 0,2.004 0,0"
             style="fill:#ffffff;fill-opacity:1;fill-rule:nonzero;stroke:none"
             id="path62" /></g><g
           id="g64"
           transform="translate(488.626,446.9424)"><path
             d="m 0,0 c 0,-2.004 -1.625,-3.629 -3.629,-3.629 -2.004,0 -3.627,1.625 -3.627,3.629 0,2.004 1.623,3.628 3.627,3.628 C -1.625,3.628 0,2.004 0,0 Z"
             style="fill:none;stroke:#1a171b;stroke-width:1.246;stroke-linecap:butt;stroke-linejoin:miter;stroke-miterlimit:4;stroke-dasharray:none;stroke-opacity:1"
             id="path66" /></g><g
           id="g68"
           transform="translate(439.3467,365.0498)"><path
             d="m 0,0 c 0,-2.004 -1.625,-3.629 -3.629,-3.629 -2.004,0 -3.629,1.625 -3.629,3.629 0,2.004 1.625,3.628 3.629,3.628 C -1.625,3.628 0,2.004 0,0"
             style="fill:#ffffff;fill-opacity:1;fill-rule:nonzero;stroke:none"
             id="path70" /></g><g
           id="g72"
           transform="translate(439.3467,365.0498)"><path
             d="m 0,0 c 0,-2.004 -1.625,-3.629 -3.629,-3.629 -2.004,0 -3.629,1.625 -3.629,3.629 0,2.004 1.625,3.628 3.629,3.628 C -1.625,3.628 0,2.004 0,0 Z"
             style="fill:none;stroke:#1a171b;stroke-width:1.246;stroke-linecap:butt;stroke-linejoin:miter;stroke-miterlimit:4;stroke-dasharray:none;stroke-opacity:1"
             id="path74" /></g><g
           id="g76"
           transform="translate(489.9053,392.1504)"><path
             d="m 0,0 c 0,-2.004 -1.625,-3.628 -3.627,-3.628 -2.004,0 -3.629,1.624 -3.629,3.628 0,2.004 1.625,3.628 3.629,3.628 C -1.625,3.628 0,2.004 0,0"
             style="fill:#1a171b;fill-opacity:1;fill-rule:nonzero;stroke:none"
             id="path78" /></g><g
           id="g80"
           transform="translate(489.9053,392.1504)"><path
             d="m 0,0 c 0,-2.004 -1.625,-3.628 -3.627,-3.628 -2.004,0 -3.629,1.624 -3.629,3.628 0,2.004 1.625,3.628 3.629,3.628 C -1.625,3.628 0,2.004 0,0 Z"
             style="fill:none;stroke:#1a171b;stroke-width:1.246;stroke-linecap:butt;stroke-linejoin:miter;stroke-miterlimit:4;stroke-dasharray:none;stroke-opacity:1"
             id="path82" /></g><g
           id="g84"
           transform="translate(439.9854,472.8643)"><path
             d="m 0,0 c 0,-2.004 -1.625,-3.628 -3.627,-3.628 -2.004,0 -3.629,1.624 -3.629,3.628 0,2.004 1.625,3.629 3.629,3.629 C -1.625,3.629 0,2.004 0,0"
             style="fill:#1a171b;fill-opacity:1;fill-rule:nonzero;stroke:none"
             id="path86" /></g><g
           id="g88"
           transform="translate(439.9854,472.8643)"><path
             d="m 0,0 c 0,-2.004 -1.625,-3.628 -3.627,-3.628 -2.004,0 -3.629,1.624 -3.629,3.628 0,2.004 1.625,3.629 3.629,3.629 C -1.625,3.629 0,2.004 0,0 Z"
             style="fill:none;stroke:#1a171b;stroke-width:1.246;stroke-linecap:butt;stroke-linejoin:miter;stroke-miterlimit:4;stroke-dasharray:none;stroke-opacity:1"
             id="path90" /></g><g
           id="g92"
           transform="translate(391.9854,391.5615)"><path
             d="m 0,0 c 0,-2.004 -1.625,-3.629 -3.627,-3.629 -2.004,0 -3.629,1.625 -3.629,3.629 0,2.004 1.625,3.628 3.629,3.628 C -1.625,3.628 0,2.004 0,0"
             style="fill:#1a171b;fill-opacity:1;fill-rule:nonzero;stroke:none"
             id="path94" /></g><g
           id="g96"
           transform="translate(391.9854,391.5615)"><path
             d="m 0,0 c 0,-2.004 -1.625,-3.629 -3.627,-3.629 -2.004,0 -3.629,1.625 -3.629,3.629 0,2.004 1.625,3.628 3.629,3.628 C -1.625,3.628 0,2.004 0,0 Z"
             style="fill:none;stroke:#1a171b;stroke-width:1.246;stroke-linecap:butt;stroke-linejoin:miter;stroke-miterlimit:4;stroke-dasharray:none;stroke-opacity:1"
             id="path98" /></g><g
           id="g100"
           transform="translate(368.1631,434.0513)"><path
             d="M 0,0 C -0.333,-7.667 -2.158,-24.977 -7.666,-27"
             style="fill:none;stroke:#1a171b;stroke-width:2;stroke-linecap:butt;stroke-linejoin:miter;stroke-miterlimit:4;stroke-dasharray:none;stroke-opacity:1"
             id="path102" /></g><g
           id="g104"
           transform="translate(363.1006,421.6553)"><path
             d="M 0,0 C -3.125,0.813 -8.771,1.396 -11.604,1.229"
             style="fill:none;stroke:#1a171b;stroke-width:2;stroke-linecap:butt;stroke-linejoin:miter;stroke-miterlimit:4;stroke-dasharray:none;stroke-opacity:1"
             id="path106" /></g><g
           id="g108"
           transform="translate(354.9561,437.751)"><path
             d="m 0,0 v -0.32 c -1.496,0 -2.244,-1.27 -2.244,-3.807 0,-0.973 0.111,-1.766 0.334,-2.379 0.221,-0.613 0.555,-0.92 0.998,-0.92 0.275,0 0.537,0.11 0.781,0.329 0.244,0.22 0.527,0.569 0.848,1.046 -0.563,1.351 -0.844,2.405 -0.844,3.164 0,0.456 0.094,0.829 0.283,1.119 0.19,0.289 0.455,0.434 0.797,0.434 0.338,0 0.602,-0.141 0.793,-0.422 0.192,-0.281 0.287,-0.678 0.287,-1.189 0,-0.63 -0.176,-1.404 -0.531,-2.321 -0.152,-0.382 -0.25,-0.638 -0.295,-0.767 0.647,-0.929 1.17,-1.393 1.57,-1.393 0.916,0 1.375,1.119 1.375,3.359 0,1.225 -0.181,2.148 -0.545,2.767 -0.363,0.619 -0.929,0.945 -1.701,0.98 V 0 c 0.176,0.006 0.317,0.008 0.422,0.008 1.385,0 2.443,-0.422 3.178,-1.266 0.734,-0.844 1.101,-1.867 1.101,-3.071 0,-1.114 -0.304,-2.064 -0.916,-2.848 -0.609,-0.785 -1.328,-1.177 -2.156,-1.177 -0.904,0 -1.76,0.56 -2.564,1.679 -0.524,-0.67 -0.965,-1.117 -1.326,-1.342 -0.36,-0.225 -0.758,-0.337 -1.198,-0.337 -0.933,0 -1.691,0.411 -2.273,1.231 -0.582,0.822 -0.873,1.753 -0.873,2.794 0,1.237 0.377,2.269 1.135,3.097 0.755,0.827 1.824,1.24 3.201,1.24 C -0.285,0.008 -0.164,0.006 0,0"
             style="fill:#000000;fill-opacity:1;fill-rule:nonzero;stroke:none"
             id="path110" /></g><g
           id="g112"
           transform="translate(433.3281,395.6494)"><path
             d="m 0,0 v -0.32 c -1.496,0 -2.244,-1.27 -2.244,-3.807 0,-0.973 0.111,-1.766 0.334,-2.379 0.221,-0.613 0.555,-0.92 0.998,-0.92 0.275,0 0.537,0.11 0.781,0.329 0.244,0.22 0.527,0.569 0.848,1.046 -0.563,1.351 -0.844,2.405 -0.844,3.164 0,0.456 0.094,0.829 0.283,1.119 0.19,0.289 0.455,0.434 0.797,0.434 0.338,0 0.602,-0.141 0.793,-0.422 0.192,-0.281 0.287,-0.678 0.287,-1.189 0,-0.63 -0.176,-1.404 -0.531,-2.321 -0.152,-0.382 -0.25,-0.638 -0.295,-0.767 0.647,-0.929 1.17,-1.393 1.57,-1.393 0.916,0 1.375,1.119 1.375,3.359 0,1.225 -0.181,2.148 -0.545,2.767 -0.363,0.619 -0.929,0.945 -1.701,0.98 V 0 c 0.176,0.006 0.317,0.008 0.422,0.008 1.385,0 2.443,-0.422 3.178,-1.266 0.734,-0.844 1.101,-1.867 1.101,-3.071 0,-1.114 -0.304,-2.064 -0.916,-2.848 -0.609,-0.785 -1.328,-1.177 -2.156,-1.177 -0.904,0 -1.76,0.56 -2.564,1.679 -0.524,-0.67 -0.965,-1.117 -1.326,-1.342 -0.36,-0.225 -0.758,-0.337 -1.198,-0.337 -0.933,0 -1.691,0.411 -2.273,1.231 -0.582,0.822 -0.873,1.753 -0.873,2.794 0,1.237 0.377,2.269 1.135,3.097 0.755,0.827 1.824,1.24 3.201,1.24 C -0.285,0.008 -0.164,0.006 0,0"
             style="fill:#000000;fill-opacity:1;fill-rule:nonzero;stroke:none"
             id="path114" /></g><g
           id="g116"
           transform="translate(423.3271,453.6499)"><path
             d="m 0,0 v -0.32 c -1.496,0 -2.244,-1.27 -2.244,-3.807 0,-0.973 0.111,-1.766 0.334,-2.379 0.222,-0.613 0.555,-0.92 1,-0.92 0.275,0 0.535,0.111 0.78,0.33 0.245,0.219 0.527,0.569 0.849,1.046 -0.563,1.351 -0.844,2.405 -0.844,3.164 0,0.456 0.094,0.829 0.281,1.118 0.19,0.289 0.455,0.435 0.798,0.435 0.338,0 0.603,-0.141 0.793,-0.422 0.191,-0.281 0.287,-0.679 0.287,-1.19 0,-0.629 -0.177,-1.403 -0.531,-2.321 -0.151,-0.382 -0.251,-0.638 -0.296,-0.767 0.647,-0.928 1.17,-1.393 1.57,-1.393 0.917,0 1.375,1.119 1.375,3.36 0,1.224 -0.181,2.148 -0.544,2.767 -0.363,0.619 -0.93,0.945 -1.7,0.979 V 0 c 0.174,0.006 0.315,0.009 0.422,0.009 1.384,0 2.442,-0.422 3.177,-1.266 0.733,-0.844 1.1,-1.868 1.1,-3.071 0,-1.115 -0.304,-2.065 -0.915,-2.848 -0.61,-0.785 -1.329,-1.178 -2.155,-1.178 -0.906,0 -1.762,0.561 -2.566,1.68 -0.523,-0.67 -0.965,-1.117 -1.325,-1.342 -0.36,-0.225 -0.759,-0.338 -1.199,-0.338 -0.933,0 -1.69,0.411 -2.273,1.232 -0.582,0.821 -0.873,1.753 -0.873,2.794 0,1.237 0.379,2.269 1.135,3.096 0.756,0.828 1.824,1.241 3.202,1.241 C -0.283,0.009 -0.163,0.006 0,0"
             style="fill:#000000;fill-opacity:1;fill-rule:nonzero;stroke:none"
             id="path118" /></g><g
           id="g120"
           transform="translate(426.8467,457.3628)"><path
             d="M 0,0 -2.793,-2.928 H -3.52 L -2.54,0 Z"
             style="fill:#000000;fill-opacity:1;fill-rule:nonzero;stroke:none"
             id="path122" /></g><g
           id="g124"
           transform="translate(464.0107,423.7842)"><path
             d="m 0,0 v -0.32 c -1.496,0 -2.244,-1.27 -2.244,-3.807 0,-0.973 0.111,-1.766 0.334,-2.379 0.222,-0.613 0.555,-0.92 1,-0.92 0.275,0 0.535,0.111 0.78,0.33 0.245,0.219 0.527,0.569 0.849,1.046 -0.563,1.351 -0.844,2.405 -0.844,3.164 0,0.456 0.094,0.829 0.281,1.118 0.19,0.289 0.455,0.435 0.798,0.435 0.338,0 0.603,-0.141 0.793,-0.422 0.191,-0.281 0.287,-0.679 0.287,-1.19 0,-0.629 -0.177,-1.403 -0.531,-2.321 -0.151,-0.382 -0.251,-0.638 -0.296,-0.767 0.647,-0.928 1.17,-1.393 1.57,-1.393 0.917,0 1.375,1.119 1.375,3.36 0,1.224 -0.181,2.148 -0.544,2.767 -0.363,0.619 -0.93,0.945 -1.7,0.979 V 0 c 0.174,0.006 0.315,0.009 0.422,0.009 1.384,0 2.442,-0.422 3.177,-1.266 0.733,-0.844 1.1,-1.868 1.1,-3.071 0,-1.115 -0.304,-2.065 -0.915,-2.848 -0.61,-0.785 -1.329,-1.178 -2.155,-1.178 -0.906,0 -1.762,0.561 -2.566,1.68 -0.523,-0.67 -0.965,-1.117 -1.325,-1.342 -0.36,-0.225 -0.759,-0.338 -1.199,-0.338 -0.933,0 -1.69,0.411 -2.273,1.232 -0.582,0.821 -0.873,1.753 -0.873,2.794 0,1.237 0.379,2.269 1.135,3.096 0.756,0.828 1.824,1.241 3.202,1.241 C -0.283,0.009 -0.163,0.006 0,0"
             style="fill:#000000;fill-opacity:1;fill-rule:nonzero;stroke:none"
             id="path126" /></g><g
           id="g128"
           transform="translate(467.5303,427.4971)"><path
             d="M 0,0 -2.793,-2.928 H -3.52 L -2.54,0 Z"
             style="fill:#000000;fill-opacity:1;fill-rule:nonzero;stroke:none"
             id="path130" /></g><g
           id="g132"
           transform="translate(262.626,459.0869)"><path
             d="M 0,0 C -2.666,-7.667 -11.332,-21.036 -21.832,-27.869"
             style="fill:none;stroke:#1a171b;stroke-width:2;stroke-linecap:butt;stroke-linejoin:miter;stroke-miterlimit:4;stroke-dasharray:none;stroke-opacity:1"
             id="path134" /></g><g
           id="g136"
           transform="translate(231.1279,426.0508)"><path
             d="M 0,0 C -17,-7 -19.168,-40.631 -22.501,-45.631"
             style="fill:none;stroke:#1a171b;stroke-width:2;stroke-linecap:butt;stroke-linejoin:miter;stroke-miterlimit:4;stroke-dasharray:none;stroke-opacity:1"
             id="path138" /></g><g
           id="g140"
           transform="translate(265.7939,380.0508)"><path
             d="M 0,0 C -6.499,15.797 -38.166,64.5 -52.166,80.167"
             style="fill:none;stroke:#1a171b;stroke-width:2;stroke-linecap:butt;stroke-linejoin:miter;stroke-miterlimit:4;stroke-dasharray:none;stroke-opacity:1"
             id="path142" /></g><g
           id="g144"
           transform="translate(164.9072,435.395)"><path
             d="M 0,0 C -0.333,-7.667 -2.157,-24.977 -7.666,-27"
             style="fill:none;stroke:#1a171b;stroke-width:2;stroke-linecap:butt;stroke-linejoin:miter;stroke-miterlimit:4;stroke-dasharray:none;stroke-opacity:1"
             id="path146" /></g><g
           id="g148"
           transform="translate(159.8447,422.999)"><path
             d="M 0,0 C -3.125,0.813 -8.771,1.396 -11.604,1.229"
             style="fill:none;stroke:#1a171b;stroke-width:2;stroke-linecap:butt;stroke-linejoin:miter;stroke-miterlimit:4;stroke-dasharray:none;stroke-opacity:1"
             id="path150" /></g><g
           id="g152"
           transform="translate(209.7939,402.2178)"><path
             d="M 0,0 C -4.843,1.21 -23.401,14.261 -42.571,19.442"
             style="fill:none;stroke:#1a171b;stroke-width:2;stroke-linecap:butt;stroke-linejoin:miter;stroke-miterlimit:4;stroke-dasharray:none;stroke-opacity:1"
             id="path154" /></g><g
           id="g156"
           transform="translate(247.7939,399.3838)"><path
             d="M 0,0 C -11.834,-6.666 -19.834,-5.297 -28.834,-1.297"
             style="fill:none;stroke:#1a171b;stroke-width:2;stroke-linecap:butt;stroke-linejoin:miter;stroke-miterlimit:4;stroke-dasharray:none;stroke-opacity:1"
             id="path158" /></g><g
           id="g160"
           transform="translate(285.96,420.7534)"><path
             d="M 0,0 C -7.334,0.333 -21.499,-13.036 -27.499,-16.036"
             style="fill:none;stroke:#1a171b;stroke-width:2;stroke-linecap:butt;stroke-linejoin:miter;stroke-miterlimit:4;stroke-dasharray:none;stroke-opacity:1"
             id="path162" /></g><g
           id="g164"
           transform="translate(187.8789,446.3525)"><path
             d="M 0,0 49.249,27.396 98.497,0 V -54.791 L 49.249,-82.188 0,-54.791 Z"
             style="fill:none;stroke:#1a171b;stroke-width:1;stroke-linecap:butt;stroke-linejoin:miter;stroke-miterlimit:4;stroke-dasharray:none;stroke-opacity:1"
             id="path166" /></g><g
           id="g168"
           transform="translate(282.7783,391.5615)"><path
             d="M 0,0 C 0,2.004 1.625,3.628 3.629,3.628 5.633,3.628 7.258,2.004 7.258,0 7.258,-2.004 5.633,-3.629 3.629,-3.629 1.625,-3.629 0,-2.004 0,0"
             style="fill:#1a171b;fill-opacity:1;fill-rule:nonzero;stroke:none"
             id="path170" /></g><g
           id="g172"
           transform="translate(282.7783,391.5615)"><path
             d="M 0,0 C 0,2.004 1.625,3.628 3.629,3.628 5.633,3.628 7.258,2.004 7.258,0 7.258,-2.004 5.633,-3.629 3.629,-3.629 1.625,-3.629 0,-2.004 0,0 Z"
             style="fill:none;stroke:#1a171b;stroke-width:1.246;stroke-linecap:butt;stroke-linejoin:miter;stroke-miterlimit:4;stroke-dasharray:none;stroke-opacity:1"
             id="path174" /></g><g
           id="g176"
           transform="translate(185.5,390.9717)"><path
             d="M 0,0 C 0,2.004 1.624,3.629 3.628,3.629 5.632,3.629 7.256,2.004 7.256,0 7.256,-2.004 5.632,-3.628 3.628,-3.628 1.624,-3.628 0,-2.004 0,0"
             style="fill:#1a171b;fill-opacity:1;fill-rule:nonzero;stroke:none"
             id="path178" /></g><g
           id="g180"
           transform="translate(185.5,390.9717)"><path
             d="M 0,0 C 0,2.004 1.624,3.629 3.628,3.629 5.632,3.629 7.256,2.004 7.256,0 7.256,-2.004 5.632,-3.628 3.628,-3.628 1.624,-3.628 0,-2.004 0,0 Z"
             style="fill:none;stroke:#1a171b;stroke-width:1.246;stroke-linecap:butt;stroke-linejoin:miter;stroke-miterlimit:4;stroke-dasharray:none;stroke-opacity:1"
             id="path182" /></g><g
           id="g184"
           transform="translate(234.7793,472.8647)"><path
             d="M 0,0 C 0,2.004 1.625,3.628 3.628,3.628 5.632,3.628 7.257,2.004 7.257,0 7.257,-2.004 5.632,-3.628 3.628,-3.628 1.625,-3.628 0,-2.004 0,0"
             style="fill:#1a171b;fill-opacity:1;fill-rule:nonzero;stroke:none"
             id="path186" /></g><g
           id="g188"
           transform="translate(234.7793,472.8647)"><path
             d="M 0,0 C 0,2.004 1.625,3.628 3.628,3.628 5.632,3.628 7.257,2.004 7.257,0 7.257,-2.004 5.632,-3.628 3.628,-3.628 1.625,-3.628 0,-2.004 0,0 Z"
             style="fill:none;stroke:#1a171b;stroke-width:1.246;stroke-linecap:butt;stroke-linejoin:miter;stroke-miterlimit:4;stroke-dasharray:none;stroke-opacity:1"
             id="path190" /></g><g
           id="g192"
           transform="translate(184.2197,445.7637)"><path
             d="M 0,0 C 0,2.004 1.625,3.628 3.628,3.628 5.632,3.628 7.257,2.004 7.257,0 7.257,-2.004 5.632,-3.628 3.628,-3.628 1.625,-3.628 0,-2.004 0,0"
             style="fill:#ffffff;fill-opacity:1;fill-rule:nonzero;stroke:none"
             id="path194" /></g><g
           id="g196"
           transform="translate(184.2197,445.7637)"><path
             d="M 0,0 C 0,2.004 1.625,3.628 3.628,3.628 5.632,3.628 7.257,2.004 7.257,0 7.257,-2.004 5.632,-3.628 3.628,-3.628 1.625,-3.628 0,-2.004 0,0 Z"
             style="fill:none;stroke:#1a171b;stroke-width:1.246;stroke-linecap:butt;stroke-linejoin:miter;stroke-miterlimit:4;stroke-dasharray:none;stroke-opacity:1"
             id="path198" /></g><g
           id="g200"
           transform="translate(234.1406,365.0498)"><path
             d="M 0,0 C 0,2.004 1.624,3.628 3.627,3.628 5.63,3.628 7.255,2.004 7.255,0 7.255,-2.004 5.63,-3.629 3.627,-3.629 1.624,-3.629 0,-2.004 0,0"
             style="fill:#ffffff;fill-opacity:1;fill-rule:nonzero;stroke:none"
             id="path202" /></g><g
           id="g204"
           transform="translate(234.1406,365.0498)"><path
             d="M 0,0 C 0,2.004 1.624,3.628 3.627,3.628 5.63,3.628 7.255,2.004 7.255,0 7.255,-2.004 5.63,-3.629 3.627,-3.629 1.624,-3.629 0,-2.004 0,0 Z"
             style="fill:none;stroke:#1a171b;stroke-width:1.246;stroke-linecap:butt;stroke-linejoin:miter;stroke-miterlimit:4;stroke-dasharray:none;stroke-opacity:1"
             id="path206" /></g><g
           id="g208"
           transform="translate(282.1396,446.3525)"><path
             d="M 0,0 C 0,2.004 1.625,3.628 3.627,3.628 5.631,3.628 7.256,2.004 7.256,0 7.256,-2.004 5.631,-3.628 3.627,-3.628 1.625,-3.628 0,-2.004 0,0"
             style="fill:#ffffff;fill-opacity:1;fill-rule:nonzero;stroke:none"
             id="path210" /></g><g
           id="g212"
           transform="translate(282.1396,446.3525)"><path
             d="M 0,0 C 0,2.004 1.625,3.628 3.627,3.628 5.631,3.628 7.256,2.004 7.256,0 7.256,-2.004 5.631,-3.628 3.627,-3.628 1.625,-3.628 0,-2.004 0,0 Z"
             style="fill:none;stroke:#1a171b;stroke-width:1.246;stroke-linecap:butt;stroke-linejoin:miter;stroke-miterlimit:4;stroke-dasharray:none;stroke-opacity:1"
             id="path214" /></g><g
           id="g216"
           transform="translate(207.8174,417.2334)"><path
             d="m 0,0 v -0.32 c -1.496,0 -2.244,-1.27 -2.244,-3.807 0,-0.973 0.111,-1.766 0.334,-2.379 0.222,-0.613 0.555,-0.92 1,-0.92 0.275,0 0.535,0.111 0.78,0.33 0.245,0.219 0.527,0.569 0.849,1.046 -0.563,1.351 -0.844,2.405 -0.844,3.164 0,0.456 0.094,0.829 0.281,1.118 0.19,0.289 0.455,0.435 0.798,0.435 0.338,0 0.603,-0.141 0.793,-0.422 0.191,-0.281 0.287,-0.679 0.287,-1.19 0,-0.629 -0.177,-1.403 -0.531,-2.321 -0.151,-0.382 -0.251,-0.638 -0.296,-0.767 0.647,-0.928 1.17,-1.393 1.57,-1.393 0.917,0 1.375,1.119 1.375,3.36 0,1.224 -0.181,2.148 -0.544,2.767 -0.363,0.619 -0.93,0.945 -1.7,0.979 V 0 c 0.174,0.006 0.315,0.009 0.422,0.009 1.384,0 2.442,-0.422 3.177,-1.266 0.733,-0.844 1.1,-1.868 1.1,-3.071 0,-1.115 -0.304,-2.065 -0.915,-2.848 -0.61,-0.785 -1.329,-1.178 -2.155,-1.178 -0.906,0 -1.762,0.561 -2.566,1.68 -0.523,-0.67 -0.965,-1.117 -1.325,-1.342 -0.36,-0.225 -0.759,-0.338 -1.199,-0.338 -0.933,0 -1.69,0.411 -2.273,1.232 -0.582,0.821 -0.873,1.753 -0.873,2.794 0,1.237 0.379,2.269 1.135,3.096 0.756,0.828 1.824,1.241 3.202,1.241 C -0.283,0.009 -0.163,0.006 0,0"
             style="fill:#000000;fill-opacity:1;fill-rule:nonzero;stroke:none"
             id="path218" /></g><g
           id="g220"
           transform="translate(211.3369,420.9463)"><path
             d="M 0,0 -2.793,-2.928 H -3.52 L -2.54,0 Z"
             style="fill:#000000;fill-opacity:1;fill-rule:nonzero;stroke:none"
             id="path222" /></g><g
           id="g224"
           transform="translate(150.9297,440.0781)"><path
             d="m 0,0 v -0.32 c -1.497,0 -2.244,-1.27 -2.244,-3.807 0,-0.973 0.11,-1.766 0.333,-2.379 0.222,-0.613 0.555,-0.92 0.999,-0.92 0.275,0 0.537,0.11 0.781,0.329 0.244,0.22 0.527,0.569 0.848,1.046 -0.563,1.351 -0.844,2.405 -0.844,3.164 0,0.456 0.094,0.829 0.282,1.119 0.19,0.289 0.455,0.434 0.798,0.434 0.338,0 0.602,-0.141 0.793,-0.422 0.192,-0.281 0.287,-0.678 0.287,-1.189 0,-0.63 -0.177,-1.404 -0.531,-2.321 -0.152,-0.382 -0.251,-0.638 -0.295,-0.767 0.647,-0.929 1.169,-1.393 1.569,-1.393 0.917,0 1.375,1.119 1.375,3.359 0,1.225 -0.181,2.148 -0.544,2.767 -0.363,0.619 -0.929,0.945 -1.701,0.98 V 0 c 0.175,0.006 0.316,0.008 0.422,0.008 1.385,0 2.443,-0.422 3.178,-1.266 0.734,-0.844 1.1,-1.867 1.1,-3.071 0,-1.114 -0.304,-2.064 -0.915,-2.848 -0.61,-0.785 -1.329,-1.177 -2.156,-1.177 -0.905,0 -1.76,0.56 -2.565,1.679 -0.523,-0.67 -0.964,-1.117 -1.325,-1.342 -0.36,-0.225 -0.758,-0.337 -1.198,-0.337 -0.934,0 -1.691,0.411 -2.273,1.231 -0.583,0.822 -0.874,1.753 -0.874,2.794 0,1.237 0.378,2.269 1.135,3.097 0.756,0.827 1.824,1.24 3.202,1.24 C -0.285,0.008 -0.164,0.006 0,0"
             style="fill:#000000;fill-opacity:1;fill-rule:nonzero;stroke:none"
             id="path226" /></g><g
           id="g228"
           transform="translate(270.4053,401.9932)"><path
             d="m 0,0 v -0.32 c -1.496,0 -2.244,-1.27 -2.244,-3.807 0,-0.973 0.111,-1.766 0.334,-2.379 0.221,-0.613 0.555,-0.92 0.998,-0.92 0.275,0 0.537,0.11 0.781,0.329 0.244,0.22 0.527,0.569 0.848,1.046 -0.563,1.351 -0.844,2.405 -0.844,3.164 0,0.456 0.094,0.829 0.283,1.119 0.19,0.289 0.455,0.434 0.797,0.434 0.338,0 0.602,-0.141 0.793,-0.422 0.192,-0.281 0.287,-0.678 0.287,-1.189 0,-0.63 -0.176,-1.404 -0.531,-2.321 -0.152,-0.382 -0.25,-0.638 -0.295,-0.767 0.647,-0.929 1.17,-1.393 1.57,-1.393 0.916,0 1.375,1.119 1.375,3.359 0,1.225 -0.181,2.148 -0.545,2.767 -0.363,0.619 -0.929,0.945 -1.701,0.98 V 0 c 0.176,0.006 0.317,0.008 0.422,0.008 1.385,0 2.443,-0.422 3.178,-1.266 0.734,-0.844 1.101,-1.867 1.101,-3.071 0,-1.114 -0.304,-2.064 -0.916,-2.848 -0.609,-0.785 -1.328,-1.177 -2.156,-1.177 -0.904,0 -1.76,0.56 -2.564,1.679 -0.524,-0.67 -0.965,-1.117 -1.326,-1.342 -0.36,-0.225 -0.758,-0.337 -1.198,-0.337 -0.933,0 -1.691,0.411 -2.273,1.231 -0.582,0.822 -0.873,1.753 -0.873,2.794 0,1.237 0.377,2.269 1.135,3.097 0.755,0.827 1.824,1.24 3.201,1.24 C -0.285,0.008 -0.164,0.006 0,0"
             style="fill:#000000;fill-opacity:1;fill-rule:nonzero;stroke:none"
             id="path230" /></g><g
           id="g232"
           transform="translate(238.2607,449.4102)"><path
             d="m 0,0 v -0.32 c -1.496,0 -2.244,-1.27 -2.244,-3.807 0,-0.973 0.111,-1.766 0.334,-2.379 0.222,-0.613 0.555,-0.92 1,-0.92 0.275,0 0.535,0.111 0.78,0.33 0.245,0.219 0.527,0.569 0.849,1.046 -0.563,1.351 -0.844,2.405 -0.844,3.164 0,0.456 0.094,0.829 0.281,1.118 0.19,0.289 0.455,0.435 0.798,0.435 0.338,0 0.603,-0.141 0.793,-0.422 0.191,-0.281 0.287,-0.679 0.287,-1.19 0,-0.629 -0.177,-1.403 -0.531,-2.321 -0.151,-0.382 -0.251,-0.638 -0.296,-0.767 0.647,-0.928 1.17,-1.393 1.57,-1.393 0.917,0 1.375,1.119 1.375,3.36 0,1.224 -0.181,2.148 -0.544,2.767 -0.363,0.619 -0.93,0.945 -1.7,0.979 V 0 c 0.174,0.006 0.315,0.009 0.422,0.009 1.384,0 2.442,-0.422 3.177,-1.266 0.733,-0.844 1.1,-1.868 1.1,-3.071 0,-1.115 -0.304,-2.065 -0.915,-2.848 -0.61,-0.785 -1.329,-1.178 -2.155,-1.178 -0.906,0 -1.762,0.561 -2.566,1.68 -0.523,-0.67 -0.965,-1.117 -1.325,-1.342 -0.36,-0.225 -0.759,-0.338 -1.199,-0.338 -0.933,0 -1.69,0.411 -2.273,1.232 -0.582,0.821 -0.873,1.753 -0.873,2.794 0,1.237 0.379,2.269 1.135,3.096 0.756,0.828 1.824,1.241 3.202,1.241 C -0.283,0.009 -0.163,0.006 0,0"
             style="fill:#000000;fill-opacity:1;fill-rule:nonzero;stroke:none"
             id="path234" /></g><g
           id="g236"
           transform="translate(241.7803,453.123)"><path
             d="M 0,0 -2.793,-2.928 H -3.52 L -2.54,0 Z"
             style="fill:#000000;fill-opacity:1;fill-rule:nonzero;stroke:none"
             id="path238" /></g><g
           id="g240"
           transform="translate(247.2275,296.1865)"><path
             d="M 0,0 C -1.336,1.493 -1.208,3.786 0.285,5.122 1.779,6.458 4.073,6.331 5.409,4.838"
             style="fill:#1a171b;fill-opacity:1;fill-rule:nonzero;stroke:#1a171b;stroke-width:1.246;stroke-linecap:butt;stroke-linejoin:miter;stroke-miterlimit:4;stroke-dasharray:none;stroke-opacity:1"
             id="path242" /></g><g
           id="g244"
           transform="translate(222.0977,352.21)"><path
             d="m 0,0 c 0,-2.004 -1.624,-3.628 -3.628,-3.628 -2.004,0 -3.628,1.624 -3.628,3.628"
             style="fill:#1a171b;fill-opacity:1;fill-rule:nonzero;stroke:#1a171b;stroke-width:1.246;stroke-linecap:butt;stroke-linejoin:miter;stroke-miterlimit:4;stroke-dasharray:none;stroke-opacity:1"
             id="path246" /></g><g
           id="g248"
           transform="translate(215.3418,317.21)"><path
             d="M 0,0 C 0,2.004 1.624,3.629 3.628,3.629 5.632,3.629 7.256,2.004 7.256,0 7.256,-2.004 5.632,-3.628 3.628,-3.628 1.624,-3.628 0,-2.004 0,0"
             style="fill:#1a171b;fill-opacity:1;fill-rule:nonzero;stroke:none"
             id="path250" /></g><g
           id="g252"
           transform="translate(215.3418,317.21)"><path
             d="M 0,0 C 0,2.004 1.624,3.629 3.628,3.629 5.632,3.629 7.256,2.004 7.256,0 7.256,-2.004 5.632,-3.628 3.628,-3.628 1.624,-3.628 0,-2.004 0,0 Z"
             style="fill:none;stroke:#1a171b;stroke-width:1.246;stroke-linecap:butt;stroke-linejoin:miter;stroke-miterlimit:4;stroke-dasharray:none;stroke-opacity:1"
             id="path254" /></g><g
           id="g256"
           transform="translate(218.4697,350.3955)"><path
             d="M 0,0 0.5,-33.186"
             style="fill:none;stroke:#1a171b;stroke-width:1;stroke-linecap:butt;stroke-linejoin:miter;stroke-miterlimit:4;stroke-dasharray:none;stroke-opacity:1"
             id="path258" /></g><g
           id="g260"
           transform="translate(217.4697,316.21)"><path
             d="M 0,0 -30.917,-20.23"
             style="fill:none;stroke:#1a171b;stroke-width:1;stroke-linecap:butt;stroke-linejoin:miter;stroke-miterlimit:4;stroke-dasharray:none;stroke-opacity:1"
             id="path262" /></g><g
           id="g264"
           transform="translate(221.4697,316.21)"><path
             d="M 0,0 26.043,-14.901"
             style="fill:none;stroke:#1a171b;stroke-width:1;stroke-linecap:butt;stroke-linejoin:miter;stroke-miterlimit:4;stroke-dasharray:none;stroke-opacity:1"
             id="path266" /></g><g
           id="g268"
           transform="translate(215.1362,336.209)"><path
             d="M 0,0 7.667,0.167"
             style="fill:none;stroke:#1a171b;stroke-width:2;stroke-linecap:butt;stroke-linejoin:miter;stroke-miterlimit:4;stroke-dasharray:none;stroke-opacity:1"
             id="path270" /></g><g
           id="g272"
           transform="translate(183.6294,298.4727)"><path
             d="M 0,0 C 1.586,1.226 3.865,0.932 5.089,-0.653 6.314,-2.239 6.022,-4.518 4.436,-5.743"
             style="fill:#1a171b;fill-opacity:1;fill-rule:nonzero;stroke:#1a171b;stroke-width:1.246;stroke-linecap:butt;stroke-linejoin:miter;stroke-miterlimit:4;stroke-dasharray:none;stroke-opacity:1"
             id="path274" /></g><g
           id="g276"
           transform="translate(449.1758,298.7705)"><path
             d="M 0,0 C -1.336,1.492 -1.209,3.785 0.285,5.121 1.779,6.457 4.072,6.33 5.408,4.838"
             style="fill:#1a171b;fill-opacity:1;fill-rule:nonzero;stroke:#1a171b;stroke-width:1.246;stroke-linecap:butt;stroke-linejoin:miter;stroke-miterlimit:4;stroke-dasharray:none;stroke-opacity:1"
             id="path278" /></g><g
           id="g280"
           transform="translate(385.5781,301.0557)"><path
             d="M 0,0 C 1.586,1.227 3.864,0.932 5.089,-0.652 6.314,-2.238 6.021,-4.518 4.436,-5.742"
             style="fill:#1a171b;fill-opacity:1;fill-rule:nonzero;stroke:#1a171b;stroke-width:1.246;stroke-linecap:butt;stroke-linejoin:miter;stroke-miterlimit:4;stroke-dasharray:none;stroke-opacity:1"
             id="path282" /></g><g
           id="g284"
           transform="translate(424.0459,354.7939)"><path
             d="m 0,0 c 0,-2.004 -1.624,-3.629 -3.628,-3.629 -2.004,0 -3.628,1.625 -3.628,3.629"
             style="fill:#1a171b;fill-opacity:1;fill-rule:nonzero;stroke:#1a171b;stroke-width:1.246;stroke-linecap:butt;stroke-linejoin:miter;stroke-miterlimit:4;stroke-dasharray:none;stroke-opacity:1"
             id="path286" /></g><g
           id="g288"
           transform="translate(420.418,352.9795)"><path
             d="M 0,0 31.501,-48.688"
             style="fill:none;stroke:#1a171b;stroke-width:1;stroke-linecap:butt;stroke-linejoin:miter;stroke-miterlimit:4;stroke-dasharray:none;stroke-opacity:1"
             id="path290" /></g><g
           id="g292"
           transform="translate(418.9189,351.626)"><path
             d="M 0,0 -30.418,-53.063"
             style="fill:none;stroke:#1a171b;stroke-width:1;stroke-linecap:butt;stroke-linejoin:miter;stroke-miterlimit:4;stroke-dasharray:none;stroke-opacity:1"
             id="path294" /></g><g
           id="g296"
           transform="translate(391.085,298.792)"><path
             d="M 0,0 58.167,2.5"
             style="fill:none;stroke:#1a171b;stroke-width:1;stroke-linecap:butt;stroke-linejoin:miter;stroke-miterlimit:4;stroke-dasharray:none;stroke-opacity:1"
             id="path298" /></g><g
           id="g300"
           transform="translate(401.252,330.126)"><path
             d="M 0,0 7.833,-3.5"
             style="fill:none;stroke:#1a171b;stroke-width:2;stroke-linecap:butt;stroke-linejoin:miter;stroke-miterlimit:4;stroke-dasharray:none;stroke-opacity:1"
             id="path302" /></g><g
           id="g304"
           transform="translate(433.9189,323.96)"><path
             d="M 0,0 7.666,4"
             style="fill:none;stroke:#1a171b;stroke-width:2;stroke-linecap:butt;stroke-linejoin:miter;stroke-miterlimit:4;stroke-dasharray:none;stroke-opacity:1"
             id="path306" /></g><g
           id="g308"
           transform="translate(216.2803,198.5781)"><path
             d="M 0,0 0.493,33.186"
             style="fill:none;stroke:#1a171b;stroke-width:1;stroke-linecap:butt;stroke-linejoin:miter;stroke-miterlimit:4;stroke-dasharray:none;stroke-opacity:1"
             id="path310" /></g><g
           id="g312"
           transform="translate(218.3027,232.7188)"><path
             d="M 0,0 31.509,19.296"
             style="fill:none;stroke:#1a171b;stroke-width:1;stroke-linecap:butt;stroke-linejoin:miter;stroke-miterlimit:4;stroke-dasharray:none;stroke-opacity:1"
             id="path314" /></g><g
           id="g316"
           transform="translate(214.3047,232.8379)"><path
             d="M 0,0 -25.585,15.675"
             style="fill:none;stroke:#1a171b;stroke-width:1;stroke-linecap:butt;stroke-linejoin:miter;stroke-miterlimit:4;stroke-dasharray:none;stroke-opacity:1"
             id="path318" /></g><g
           id="g320"
           transform="translate(239.9258,242.0762)"><path
             d="M 0,0 -4.161,5.793"
             style="fill:none;stroke:#1a171b;stroke-width:2;stroke-linecap:butt;stroke-linejoin:miter;stroke-miterlimit:4;stroke-dasharray:none;stroke-opacity:1"
             id="path322" /></g><g
           id="g324"
           transform="translate(220.4004,231.6553)"><path
             d="m 0,0 c -0.061,-2.003 -1.732,-3.579 -3.735,-3.519 -2.003,0.06 -3.578,1.733 -3.518,3.736 0.06,2.004 1.732,3.578 3.735,3.518 C -1.515,3.675 0.06,2.003 0,0"
             style="fill:#ffffff;fill-opacity:1;fill-rule:nonzero;stroke:none"
             id="path326" /></g><g
           id="g328"
           transform="translate(220.4004,231.6553)"><path
             d="m 0,0 c -0.061,-2.003 -1.732,-3.579 -3.735,-3.519 -2.003,0.06 -3.578,1.733 -3.518,3.736 0.06,2.004 1.732,3.578 3.735,3.518 C -1.515,3.675 0.06,2.003 0,0 Z"
             style="fill:none;stroke:#1a171b;stroke-width:1.246;stroke-linecap:butt;stroke-linejoin:miter;stroke-miterlimit:4;stroke-dasharray:none;stroke-opacity:1"
             id="path330" /></g><g
           id="g332"
           transform="translate(212.5996,196.873)"><path
             d="M 0,0 C 0.06,2.003 1.731,3.578 3.735,3.518 5.738,3.458 7.313,1.786 7.253,-0.217"
             style="fill:#ffffff;fill-opacity:1;fill-rule:nonzero;stroke:#1a171b;stroke-width:1.246;stroke-linecap:butt;stroke-linejoin:miter;stroke-miterlimit:4;stroke-dasharray:none;stroke-opacity:1"
             id="path334" /></g><g
           id="g336"
           transform="translate(252.6592,249.4346)"><path
             d="m 0,0 c -1.621,-1.177 -3.891,-0.815 -5.067,0.806 -1.177,1.622 -0.817,3.89 0.804,5.068"
             style="fill:#ffffff;fill-opacity:1;fill-rule:nonzero;stroke:#1a171b;stroke-width:1.246;stroke-linecap:butt;stroke-linejoin:miter;stroke-miterlimit:4;stroke-dasharray:none;stroke-opacity:1"
             id="path338" /></g><g
           id="g340"
           transform="translate(189.1582,253.624)"><path
             d="m 0,0 c 1.291,-1.533 1.094,-3.821 -0.438,-5.111 -1.533,-1.291 -3.824,-1.096 -5.114,0.437"
             style="fill:#ffffff;fill-opacity:1;fill-rule:nonzero;stroke:#1a171b;stroke-width:1.246;stroke-linecap:butt;stroke-linejoin:miter;stroke-miterlimit:4;stroke-dasharray:none;stroke-opacity:1"
             id="path342" /></g><g
           id="g344"
           transform="translate(198.7061,238.0557)"><path
             d="M 0,0 3.75,6.25"
             style="fill:none;stroke:#1a171b;stroke-width:2;stroke-linecap:butt;stroke-linejoin:miter;stroke-miterlimit:4;stroke-dasharray:none;stroke-opacity:1"
             id="path346" /></g><g
           id="g348"
           transform="translate(420.418,203.2236)"><path
             d="M 0,0 31.501,48.687"
             style="fill:none;stroke:#1a171b;stroke-width:1;stroke-linecap:butt;stroke-linejoin:miter;stroke-miterlimit:4;stroke-dasharray:none;stroke-opacity:1"
             id="path350" /></g><g
           id="g352"
           transform="translate(418.9189,204.5762)"><path
             d="M 0,0 -30.418,53.063"
             style="fill:none;stroke:#1a171b;stroke-width:1;stroke-linecap:butt;stroke-linejoin:miter;stroke-miterlimit:4;stroke-dasharray:none;stroke-opacity:1"
             id="path354" /></g><g
           id="g356"
           transform="translate(391.085,257.4102)"><path
             d="M 0,0 58.167,-2.5"
             style="fill:none;stroke:#1a171b;stroke-width:1;stroke-linecap:butt;stroke-linejoin:miter;stroke-miterlimit:4;stroke-dasharray:none;stroke-opacity:1"
             id="path358" /></g><g
           id="g360"
           transform="translate(401.252,226.0762)"><path
             d="M 0,0 7.833,3.5"
             style="fill:none;stroke:#1a171b;stroke-width:2;stroke-linecap:butt;stroke-linejoin:miter;stroke-miterlimit:4;stroke-dasharray:none;stroke-opacity:1"
             id="path362" /></g><g
           id="g364"
           transform="translate(433.9189,232.2422)"><path
             d="M 0,0 7.666,-4"
             style="fill:none;stroke:#1a171b;stroke-width:2;stroke-linecap:butt;stroke-linejoin:miter;stroke-miterlimit:4;stroke-dasharray:none;stroke-opacity:1"
             id="path366" /></g><g
           id="g368"
           transform="translate(449.1758,257.4326)"><path
             d="m 0,0 c -1.336,-1.493 -1.209,-3.786 0.285,-5.122 1.494,-1.336 3.787,-1.209 5.123,0.284"
             style="fill:#ffffff;fill-opacity:1;fill-rule:nonzero;stroke:#1a171b;stroke-width:1.246;stroke-linecap:butt;stroke-linejoin:miter;stroke-miterlimit:4;stroke-dasharray:none;stroke-opacity:1"
             id="path370" /></g><g
           id="g372"
           transform="translate(385.5781,255.1465)"><path
             d="M 0,0 C 1.586,-1.226 3.864,-0.932 5.089,0.653 6.314,2.239 6.021,4.518 4.436,5.743"
             style="fill:#ffffff;fill-opacity:1;fill-rule:nonzero;stroke:#1a171b;stroke-width:1.246;stroke-linecap:butt;stroke-linejoin:miter;stroke-miterlimit:4;stroke-dasharray:none;stroke-opacity:1"
             id="path374" /></g><g
           id="g376"
           transform="translate(424.0459,201.4092)"><path
             d="M 0,0 C 0,2.004 -1.624,3.628 -3.628,3.628 -5.632,3.628 -7.256,2.004 -7.256,0"
             style="fill:#ffffff;fill-opacity:1;fill-rule:nonzero;stroke:#1a171b;stroke-width:1.246;stroke-linecap:butt;stroke-linejoin:miter;stroke-miterlimit:4;stroke-dasharray:none;stroke-opacity:1"
             id="path378" /></g></g></g></g></svg>
