<?xml version="1.0" encoding="UTF-8" standalone="no"?>
<svg
   xmlns:dc="http://purl.org/dc/elements/1.1/"
   xmlns:cc="http://creativecommons.org/ns#"
   xmlns:rdf="http://www.w3.org/1999/02/22-rdf-syntax-ns#"
   xmlns:svg="http://www.w3.org/2000/svg"
   xmlns="http://www.w3.org/2000/svg"
   xmlns:sodipodi="http://sodipodi.sourceforge.net/DTD/sodipodi-0.dtd"
   xmlns:inkscape="http://www.inkscape.org/namespaces/inkscape"
   version="1.1"
   id="svg2"
   xml:space="preserve"
   width="225.76303"
   height="587.23828"
   viewBox="0 0 225.76302 587.23828"
   sodipodi:docname="permutation2.ai.svg"
   inkscape:version="1.0.2-2 (e86c870879, 2021-01-15)"><metadata
     id="metadata8"><rdf:RDF><cc:Work
         rdf:about=""><dc:format>image/svg+xml</dc:format><dc:type
           rdf:resource="http://purl.org/dc/dcmitype/StillImage" /><dc:title /></cc:Work></rdf:RDF></metadata><defs
     id="defs6"><clipPath
       clipPathUnits="userSpaceOnUse"
       id="clipPath18"><path
         d="m 147.10889,500.17188 h 19.23291 v 29.39404 h -19.23291 z"
         id="path16" /></clipPath><clipPath
       clipPathUnits="userSpaceOnUse"
       id="clipPath32"><path
         d="m 174.14014,499.79736 h 46.53662 v 10.40039 h -46.53662 z"
         id="path30" /></clipPath><clipPath
       clipPathUnits="userSpaceOnUse"
       id="clipPath46"><path
         d="m 227.21729,474.90723 h 13.09521 v 21.49316 h -13.09521 z"
         id="path44" /></clipPath><clipPath
       clipPathUnits="userSpaceOnUse"
       id="clipPath60"><path
         d="m 148.17773,469.87646 h 35.0669 v 30.92237 h -35.0669 z"
         id="path58" /></clipPath><clipPath
       clipPathUnits="userSpaceOnUse"
       id="clipPath74"><path
         d="m 168.72705,494.27637 h 12.39502 v 19.06592 h -12.39502 z"
         id="path72" /></clipPath><clipPath
       clipPathUnits="userSpaceOnUse"
       id="clipPath88"><path
         d="m 179.68164,483.38477 h 65.09717 v 37.0205 h -65.09717 z"
         id="path86" /></clipPath><clipPath
       clipPathUnits="userSpaceOnUse"
       id="clipPath102"><path
         d="m 187.73096,567.84229 h 6.53808 v 7.20605 h -6.53808 z"
         id="path100" /></clipPath><clipPath
       clipPathUnits="userSpaceOnUse"
       id="clipPath116"><path
         d="M 117.87549,425.71875 H 265.80811 V 573.65479 H 117.87549 Z"
         id="path114" /></clipPath><clipPath
       clipPathUnits="userSpaceOnUse"
       id="clipPath130"><path
         d="m 117.31348,496.62988 h 6.53808 v 7.20606 h -6.53808 z"
         id="path128" /></clipPath><clipPath
       clipPathUnits="userSpaceOnUse"
       id="clipPath144"><path
         d="m 188.70557,424.82275 h 6.53808 v 7.20606 h -6.53808 z"
         id="path142" /></clipPath><clipPath
       clipPathUnits="userSpaceOnUse"
       id="clipPath158"><path
         d="m 260.06445,496.17578 h 6.53809 v 7.20606 h -6.53809 z"
         id="path156" /></clipPath><clipPath
       clipPathUnits="userSpaceOnUse"
       id="clipPath172"><path
         d="m 170.06445,473.32568 h 6.53809 v 7.20606 h -6.53809 z"
         id="path170" /></clipPath><clipPath
       clipPathUnits="userSpaceOnUse"
       id="clipPath186"><path
         d="m 149.62402,475.4043 h 47.75244 v 47.74804 h -47.75244 z"
         id="path184" /></clipPath><clipPath
       clipPathUnits="userSpaceOnUse"
       id="clipPath200"><path
         d="m 170.73096,518.84229 h 6.53808 v 7.20605 h -6.53808 z"
         id="path198" /></clipPath><clipPath
       clipPathUnits="userSpaceOnUse"
       id="clipPath214"><path
         d="m 147.06445,495.17529 h 6.53809 v 7.20606 h -6.53809 z"
         id="path212" /></clipPath><clipPath
       clipPathUnits="userSpaceOnUse"
       id="clipPath228"><path
         d="m 192.06445,495.50879 h 6.53809 v 7.20605 h -6.53809 z"
         id="path226" /></clipPath><clipPath
       clipPathUnits="userSpaceOnUse"
       id="clipPath242"><path
         d="m 220.39795,481.17578 h 6.53809 v 7.20606 h -6.53809 z"
         id="path240" /></clipPath><clipPath
       clipPathUnits="userSpaceOnUse"
       id="clipPath256"><path
         d="m 220.73096,510.17578 h 6.53808 v 7.20606 h -6.53808 z"
         id="path254" /></clipPath><clipPath
       clipPathUnits="userSpaceOnUse"
       id="clipPath270"><path
         d="m 207.56201,483.73828 h 31.91895 v 31.91699 h -31.91895 z"
         id="path268" /></clipPath><clipPath
       clipPathUnits="userSpaceOnUse"
       id="clipPath284"><path
         d="m 206.73096,496.17578 h 6.53808 v 7.20606 h -6.53808 z"
         id="path282" /></clipPath><clipPath
       clipPathUnits="userSpaceOnUse"
       id="clipPath298"><path
         d="m 233.93115,495.50879 h 6.53809 v 7.20605 h -6.53809 z"
         id="path296" /></clipPath><clipPath
       clipPathUnits="userSpaceOnUse"
       id="clipPath312"><path
         d="m 438.06445,475.84229 h 6.53907 v 7.20605 h -6.53907 z"
         id="path310" /></clipPath><clipPath
       clipPathUnits="userSpaceOnUse"
       id="clipPath326"><path
         d="m 438.39844,504.84229 h 6.53711 v 7.20605 h -6.53711 z"
         id="path324" /></clipPath><clipPath
       clipPathUnits="userSpaceOnUse"
       id="clipPath340"><path
         d="m 425.22852,478.40479 h 31.91992 v 31.91699 h -31.91992 z"
         id="path338" /></clipPath><clipPath
       clipPathUnits="userSpaceOnUse"
       id="clipPath354"><path
         d="m 424.39844,490.84229 h 6.53711 v 7.20605 h -6.53711 z"
         id="path352" /></clipPath><clipPath
       clipPathUnits="userSpaceOnUse"
       id="clipPath368"><path
         d="m 451.59766,490.17529 h 6.53906 v 7.20606 h -6.53906 z"
         id="path366" /></clipPath><clipPath
       clipPathUnits="userSpaceOnUse"
       id="clipPath382"><path
         d="m 386.73096,470.32568 h 6.53808 v 7.20606 h -6.53808 z"
         id="path380" /></clipPath><clipPath
       clipPathUnits="userSpaceOnUse"
       id="clipPath396"><path
         d="m 366.29053,472.4043 h 47.75244 v 47.74804 h -47.75244 z"
         id="path394" /></clipPath><clipPath
       clipPathUnits="userSpaceOnUse"
       id="clipPath410"><path
         d="m 387.39746,515.84229 h 6.53809 v 7.20605 h -6.53809 z"
         id="path408" /></clipPath><clipPath
       clipPathUnits="userSpaceOnUse"
       id="clipPath424"><path
         d="m 363.73096,492.17529 h 6.53808 v 7.20606 h -6.53808 z"
         id="path422" /></clipPath><clipPath
       clipPathUnits="userSpaceOnUse"
       id="clipPath438"><path
         d="m 408.73096,492.50879 h 6.53808 v 7.20605 h -6.53808 z"
         id="path436" /></clipPath><clipPath
       clipPathUnits="userSpaceOnUse"
       id="clipPath464"><path
         d="m 445.26465,530.17529 h 6.53711 v 7.20606 h -6.53711 z"
         id="path462" /></clipPath><clipPath
       clipPathUnits="userSpaceOnUse"
       id="clipPath478"><path
         d="m 446.4248,455.34082 h 69.917 v 78.86865 h -69.917 z"
         id="path476" /></clipPath><clipPath
       clipPathUnits="userSpaceOnUse"
       id="clipPath492"><path
         d="m 476.98047,491.96338 h 6.53808 v 7.20605 h -6.53808 z"
         id="path490" /></clipPath><clipPath
       clipPathUnits="userSpaceOnUse"
       id="clipPath506"><path
         d="m 443.39844,452.17529 h 6.53711 v 7.20606 h -6.53711 z"
         id="path504" /></clipPath><clipPath
       clipPathUnits="userSpaceOnUse"
       id="clipPath520"><path
         d="m 510.06445,489.50879 h 6.53809 v 7.20605 h -6.53809 z"
         id="path518" /></clipPath><clipPath
       clipPathUnits="userSpaceOnUse"
       id="clipPath534"><path
         d="m 374.14697,506.91797 h 104.5708 v 46.44775 h -104.5708 z"
         id="path532" /></clipPath><clipPath
       clipPathUnits="userSpaceOnUse"
       id="clipPath552"><path
         d="m 400.05518,479.52979 h 33.09326 v 8.45849 h -33.09326 z"
         id="path550" /></clipPath><clipPath
       clipPathUnits="userSpaceOnUse"
       id="clipPath566"><path
         d="M 370.67285,438.21582 H 478.74902 V 484.4165 H 370.67285 Z"
         id="path564" /></clipPath><clipPath
       clipPathUnits="userSpaceOnUse"
       id="clipPath580"><path
         d="m 447.45703,475.27197 h 17.08594 v 12.01319 h -17.08594 z"
         id="path578" /></clipPath><clipPath
       clipPathUnits="userSpaceOnUse"
       id="clipPath594"><path
         d="m 647.39746,550.17578 h 6.53906 v 7.20606 h -6.53906 z"
         id="path592" /></clipPath><clipPath
       clipPathUnits="userSpaceOnUse"
       id="clipPath608"><path
         d="m 577.54199,409.05225 h 147.9336 v 147.93603 h -147.9336 z"
         id="path606" /></clipPath><clipPath
       clipPathUnits="userSpaceOnUse"
       id="clipPath622"><path
         d="m 576.98145,479.96338 h 6.5371 v 7.20605 h -6.5371 z"
         id="path620" /></clipPath><clipPath
       clipPathUnits="userSpaceOnUse"
       id="clipPath636"><path
         d="m 648.37207,408.15625 h 6.53906 v 7.20605 h -6.53906 z"
         id="path634" /></clipPath><clipPath
       clipPathUnits="userSpaceOnUse"
       id="clipPath650"><path
         d="m 719.73145,479.50928 h 6.5371 v 7.20605 h -6.5371 z"
         id="path648" /></clipPath><clipPath
       clipPathUnits="userSpaceOnUse"
       id="clipPath664"><path
         d="m 630.39648,456.32568 h 6.53907 v 7.20606 h -6.53907 z"
         id="path662" /></clipPath><clipPath
       clipPathUnits="userSpaceOnUse"
       id="clipPath678"><path
         d="m 609.95703,458.4043 h 47.75195 v 47.74804 h -47.75195 z"
         id="path676" /></clipPath><clipPath
       clipPathUnits="userSpaceOnUse"
       id="clipPath692"><path
         d="m 631.06445,501.84229 h 6.53711 v 7.20605 h -6.53711 z"
         id="path690" /></clipPath><clipPath
       clipPathUnits="userSpaceOnUse"
       id="clipPath706"><path
         d="m 607.39648,478.17529 h 6.53907 v 7.20606 h -6.53907 z"
         id="path704" /></clipPath><clipPath
       clipPathUnits="userSpaceOnUse"
       id="clipPath720"><path
         d="m 652.39648,478.50879 h 6.53907 v 7.20605 h -6.53907 z"
         id="path718" /></clipPath><clipPath
       clipPathUnits="userSpaceOnUse"
       id="clipPath734"><path
         d="m 681.73145,463.50879 h 6.53906 v 7.20605 h -6.53906 z"
         id="path732" /></clipPath><clipPath
       clipPathUnits="userSpaceOnUse"
       id="clipPath748"><path
         d="m 682.06543,492.50879 h 6.53711 v 7.20605 h -6.53711 z"
         id="path746" /></clipPath><clipPath
       clipPathUnits="userSpaceOnUse"
       id="clipPath762"><path
         d="m 668.89551,466.07129 h 31.91992 v 31.91699 h -31.91992 z"
         id="path760" /></clipPath><clipPath
       clipPathUnits="userSpaceOnUse"
       id="clipPath776"><path
         d="m 668.06543,478.50879 h 6.53711 v 7.20605 h -6.53711 z"
         id="path774" /></clipPath><clipPath
       clipPathUnits="userSpaceOnUse"
       id="clipPath790"><path
         d="m 695.26465,477.8418 h 6.53906 v 7.20605 h -6.53906 z"
         id="path788" /></clipPath><clipPath
       clipPathUnits="userSpaceOnUse"
       id="clipPath816"><path
         d="m 611.7793,492.36865 h 10.7998 v 26.5376 h -10.7998 z"
         id="path814" /></clipPath><clipPath
       clipPathUnits="userSpaceOnUse"
       id="clipPath840"><path
         d="m 262.73096,345.50879 h 6.53808 v 7.20605 h -6.53808 z"
         id="path838" /></clipPath><clipPath
       clipPathUnits="userSpaceOnUse"
       id="clipPath854"><path
         d="M 191.46045,227.96777 H 339.5542 V 349.76221 H 191.46045 Z"
         id="path852" /></clipPath><clipPath
       clipPathUnits="userSpaceOnUse"
       id="clipPath868"><path
         d="m 190.98096,285.12988 h 6.53808 v 7.20703 h -6.53808 z"
         id="path866" /></clipPath><clipPath
       clipPathUnits="userSpaceOnUse"
       id="clipPath882"><path
         d="m 262.23096,225.00879 h 6.53808 v 7.20605 h -6.53808 z"
         id="path880" /></clipPath><clipPath
       clipPathUnits="userSpaceOnUse"
       id="clipPath896"><path
         d="m 333.73096,284.67676 h 6.53808 v 7.20508 h -6.53808 z"
         id="path894" /></clipPath><clipPath
       clipPathUnits="userSpaceOnUse"
       id="clipPath910"><path
         d="m 244.39697,261.49316 h 6.53809 v 7.20508 h -6.53809 z"
         id="path908" /></clipPath><clipPath
       clipPathUnits="userSpaceOnUse"
       id="clipPath924"><path
         d="m 223.95703,263.57129 h 47.75195 v 47.74756 h -47.75195 z"
         id="path922" /></clipPath><clipPath
       clipPathUnits="userSpaceOnUse"
       id="clipPath938"><path
         d="m 245.06396,307.00879 h 6.53809 v 7.20605 h -6.53809 z"
         id="path936" /></clipPath><clipPath
       clipPathUnits="userSpaceOnUse"
       id="clipPath952"><path
         d="m 221.39697,283.34277 h 6.53809 v 7.20508 h -6.53809 z"
         id="path950" /></clipPath><clipPath
       clipPathUnits="userSpaceOnUse"
       id="clipPath966"><path
         d="m 266.39697,283.67578 h 6.53809 v 7.20606 h -6.53809 z"
         id="path964" /></clipPath><clipPath
       clipPathUnits="userSpaceOnUse"
       id="clipPath980"><path
         d="m 227.78662,297.52881 h 8.78955 v 21.55762 h -8.78955 z"
         id="path978" /></clipPath><clipPath
       clipPathUnits="userSpaceOnUse"
       id="clipPath1004"><path
         d="m 470.98047,345.50879 h 6.53906 v 7.20605 h -6.53906 z"
         id="path1002" /></clipPath><clipPath
       clipPathUnits="userSpaceOnUse"
       id="clipPath1018"><path
         d="M 399.71045,227.96777 H 547.80371 V 349.76221 H 399.71045 Z"
         id="path1016" /></clipPath><clipPath
       clipPathUnits="userSpaceOnUse"
       id="clipPath1032"><path
         d="m 399.23096,285.12988 h 6.53808 v 7.20703 h -6.53808 z"
         id="path1030" /></clipPath><clipPath
       clipPathUnits="userSpaceOnUse"
       id="clipPath1046"><path
         d="m 470.48047,225.00879 h 6.53906 v 7.20605 h -6.53906 z"
         id="path1044" /></clipPath><clipPath
       clipPathUnits="userSpaceOnUse"
       id="clipPath1060"><path
         d="m 541.98145,284.67676 h 6.53808 v 7.20508 h -6.53808 z"
         id="path1058" /></clipPath><clipPath
       clipPathUnits="userSpaceOnUse"
       id="clipPath1074"><path
         d="m 471.64648,261.49316 h 6.53907 v 7.20508 h -6.53907 z"
         id="path1072" /></clipPath><clipPath
       clipPathUnits="userSpaceOnUse"
       id="clipPath1088"><path
         d="m 451.20703,263.57129 h 47.75195 v 47.74756 h -47.75195 z"
         id="path1086" /></clipPath><clipPath
       clipPathUnits="userSpaceOnUse"
       id="clipPath1102"><path
         d="m 472.31445,307.00879 h 6.53711 v 7.20605 h -6.53711 z"
         id="path1100" /></clipPath><clipPath
       clipPathUnits="userSpaceOnUse"
       id="clipPath1116"><path
         d="m 448.64648,283.34277 h 6.53907 v 7.20508 h -6.53907 z"
         id="path1114" /></clipPath><clipPath
       clipPathUnits="userSpaceOnUse"
       id="clipPath1130"><path
         d="m 493.64648,283.67578 h 6.53907 v 7.20606 h -6.53907 z"
         id="path1128" /></clipPath><clipPath
       clipPathUnits="userSpaceOnUse"
       id="clipPath1144"><path
         d="m 426.51855,275.74219 h 11.77735 v 43.00586 h -11.77735 z"
         id="path1142" /></clipPath><clipPath
       clipPathUnits="userSpaceOnUse"
       id="clipPath1168"><path
         d="m 678.23047,345.50879 h 6.53906 v 7.20605 h -6.53906 z"
         id="path1166" /></clipPath><clipPath
       clipPathUnits="userSpaceOnUse"
       id="clipPath1182"><path
         d="M 607.94629,227.96777 H 756.04004 V 349.76221 H 607.94629 Z"
         id="path1180" /></clipPath><clipPath
       clipPathUnits="userSpaceOnUse"
       id="clipPath1196"><path
         d="m 749.98145,285.12988 h 6.53808 v 7.20703 h -6.53808 z"
         id="path1194" /></clipPath><clipPath
       clipPathUnits="userSpaceOnUse"
       id="clipPath1210"><path
         d="m 678.73047,225.00879 h 6.53906 v 7.20605 h -6.53906 z"
         id="path1208" /></clipPath><clipPath
       clipPathUnits="userSpaceOnUse"
       id="clipPath1224"><path
         d="m 607.23047,284.67676 h 6.53808 v 7.20508 h -6.53808 z"
         id="path1222" /></clipPath><clipPath
       clipPathUnits="userSpaceOnUse"
       id="clipPath1238"><path
         d="m 696.56445,261.49316 h 6.53907 v 7.20508 h -6.53907 z"
         id="path1236" /></clipPath><clipPath
       clipPathUnits="userSpaceOnUse"
       id="clipPath1252"><path
         d="m 675.79102,263.57129 h 47.75195 v 47.74756 h -47.75195 z"
         id="path1250" /></clipPath><clipPath
       clipPathUnits="userSpaceOnUse"
       id="clipPath1266"><path
         d="m 695.89844,307.00879 h 6.53711 v 7.20605 h -6.53711 z"
         id="path1264" /></clipPath><clipPath
       clipPathUnits="userSpaceOnUse"
       id="clipPath1280"><path
         d="m 719.56445,283.34277 h 6.53907 v 7.20508 h -6.53907 z"
         id="path1278" /></clipPath><clipPath
       clipPathUnits="userSpaceOnUse"
       id="clipPath1294"><path
         d="m 674.56445,283.67578 h 6.53907 v 7.20606 h -6.53907 z"
         id="path1292" /></clipPath><clipPath
       clipPathUnits="userSpaceOnUse"
       id="clipPath1308"><path
         d="m 710.92383,297.5293 h 8.78906 v 21.55713 h -8.78906 z"
         id="path1306" /></clipPath></defs><sodipodi:namedview
     pagecolor="#ffffff"
     bordercolor="#666666"
     borderopacity="1"
     objecttolerance="10"
     gridtolerance="10"
     guidetolerance="10"
     inkscape:pageopacity="0"
     inkscape:pageshadow="2"
     inkscape:window-width="1920"
     inkscape:window-height="1001"
     id="namedview4"
     showgrid="false"
     inkscape:zoom="0.85902098"
     inkscape:cx="295.97873"
     inkscape:cy="359.40239"
     inkscape:window-x="-9"
     inkscape:window-y="-9"
     inkscape:window-maximized="1"
     inkscape:current-layer="g10"
     inkscape:document-rotation="0"
     fit-margin-top="10"
     fit-margin-left="10"
     fit-margin-right="10"
     fit-margin-bottom="10" /><g
     id="g10"
     inkscape:groupmode="layer"
     inkscape:label="permutation2"
     transform="matrix(1.3333333,0,0,-1.3333333,-332.83012,767.82307)"><g
       id="g12834"
       transform="translate(-0.31513)"><g
         id="g834"
         transform="translate(68.97387,215.65248)"><g
           id="g836" /><g
           id="g846"><g
             clip-path="url(#clipPath840)"
             id="g844"><path
               d="m 268.7998,349.11182 c 0,-1.73975 -1.25292,-3.14991 -2.7998,-3.14991 -1.54687,0 -2.7998,1.41016 -2.7998,3.14991 0,1.73974 1.25293,3.1499 2.7998,3.1499 1.54688,0 2.7998,-1.41016 2.7998,-3.1499 z"
               style="fill:#231f20;fill-opacity:1;fill-rule:nonzero;stroke:#231f20;stroke-width:1;stroke-linecap:butt;stroke-linejoin:miter;stroke-miterlimit:4;stroke-dasharray:none;stroke-opacity:1"
               id="path842" /></g></g></g><g
         id="g848"
         transform="translate(68.97387,215.65248)"><g
           id="g850" /><g
           id="g860"><g
             clip-path="url(#clipPath854)"
             id="g858"><path
               d="M 192.24902,288.7334 266,349.11182 338.76855,287.6416 265.5,228.6123 Z"
               style="fill:none;stroke:#231f20;stroke-width:1;stroke-linecap:butt;stroke-linejoin:miter;stroke-miterlimit:4;stroke-dasharray:none;stroke-opacity:1"
               id="path856" /></g></g></g><g
         id="g862"
         transform="translate(68.97387,215.65248)"><g
           id="g864" /><g
           id="g874"><g
             clip-path="url(#clipPath868)"
             id="g872"><path
               d="m 197.0498,288.7334 c 0,-1.74024 -1.2539,-3.15039 -2.80078,-3.15039 -1.54589,0 -2.79882,1.41015 -2.79882,3.15039 0,1.74023 1.25293,3.15039 2.79882,3.15039 1.54688,0 2.80078,-1.41016 2.80078,-3.15039 z"
               style="fill:#ffffff;fill-opacity:1;fill-rule:nonzero;stroke:#231f20;stroke-width:1;stroke-linecap:butt;stroke-linejoin:miter;stroke-miterlimit:4;stroke-dasharray:none;stroke-opacity:1"
               id="path870" /></g></g></g><g
         id="g876"
         transform="translate(68.97387,215.65248)"><g
           id="g878" /><g
           id="g888"><g
             clip-path="url(#clipPath882)"
             id="g886"><path
               d="m 268.2998,228.6123 c 0,-1.74023 -1.25292,-3.15039 -2.7998,-3.15039 -1.54687,0 -2.7998,1.41016 -2.7998,3.15039 0,1.73926 1.25293,3.14942 2.7998,3.14942 1.54688,0 2.7998,-1.41016 2.7998,-3.14942 z"
               style="fill:#231f20;fill-opacity:1;fill-rule:nonzero;stroke:#231f20;stroke-width:1;stroke-linecap:butt;stroke-linejoin:miter;stroke-miterlimit:4;stroke-dasharray:none;stroke-opacity:1"
               id="path884" /></g></g></g><g
         id="g890"
         transform="translate(68.97387,215.65248)"><g
           id="g892" /><g
           id="g902"><g
             clip-path="url(#clipPath896)"
             id="g900"><path
               d="m 339.7998,288.2793 c 0,-1.73926 -1.25292,-3.14942 -2.79882,-3.14942 -1.54688,0 -2.80078,1.41016 -2.80078,3.14942 0,1.73925 1.2539,3.14941 2.80078,3.14941 1.5459,0 2.79882,-1.41016 2.79882,-3.14941 z"
               style="fill:#ffffff;fill-opacity:1;fill-rule:nonzero;stroke:#231f20;stroke-width:1;stroke-linecap:butt;stroke-linejoin:miter;stroke-miterlimit:4;stroke-dasharray:none;stroke-opacity:1"
               id="path898" /></g></g></g><g
         id="g904"
         transform="translate(68.97387,215.65248)"><g
           id="g906" /><g
           id="g916"><g
             clip-path="url(#clipPath910)"
             id="g914"><path
               d="m 250.46582,265.0957 c 0,-1.73925 -1.25293,-3.14941 -2.7998,-3.14941 -1.54688,0 -2.79981,1.41016 -2.79981,3.14941 0,1.73926 1.25293,3.14942 2.79981,3.14942 1.54687,0 2.7998,-1.41016 2.7998,-3.14942 z"
               style="fill:#231f20;fill-opacity:1;fill-rule:nonzero;stroke:#231f20;stroke-width:1;stroke-linecap:butt;stroke-linejoin:miter;stroke-miterlimit:4;stroke-dasharray:none;stroke-opacity:1"
               id="path912" /></g></g></g><g
         id="g918"
         transform="translate(68.97387,215.65248)"><g
           id="g920" /><g
           id="g930"><g
             clip-path="url(#clipPath924)"
             id="g928"><path
               d="m 224.66406,287.07617 23.66797,23.53565 22.66992,-22.79737 -23.66992,-23.53613 z"
               style="fill:none;stroke:#231f20;stroke-width:1;stroke-linecap:butt;stroke-linejoin:miter;stroke-miterlimit:4;stroke-dasharray:none;stroke-opacity:1"
               id="path926" /></g></g></g><g
         id="g932"
         transform="translate(68.97387,215.65248)"><g
           id="g934" /><g
           id="g944"><g
             clip-path="url(#clipPath938)"
             id="g942"><path
               d="m 251.13281,310.61182 c 0,-1.73975 -1.2539,-3.14991 -2.80078,-3.14991 -1.5459,0 -2.79883,1.41016 -2.79883,3.14991 0,1.73974 1.25293,3.1499 2.79883,3.1499 1.54688,0 2.80078,-1.41016 2.80078,-3.1499 z"
               style="fill:#231f20;fill-opacity:1;fill-rule:nonzero;stroke:#231f20;stroke-width:1;stroke-linecap:butt;stroke-linejoin:miter;stroke-miterlimit:4;stroke-dasharray:none;stroke-opacity:1"
               id="path940" /></g></g></g><g
         id="g946"
         transform="translate(68.97387,215.65248)"><g
           id="g948" /><g
           id="g958"><g
             clip-path="url(#clipPath952)"
             id="g956"><path
               d="m 227.46582,286.94531 c 0,-1.73926 -1.25293,-3.14941 -2.7998,-3.14941 -1.54688,0 -2.79981,1.41015 -2.79981,3.14941 0,1.73926 1.25293,3.14942 2.79981,3.14942 1.54687,0 2.7998,-1.41016 2.7998,-3.14942 z"
               style="fill:#ffffff;fill-opacity:1;fill-rule:nonzero;stroke:#231f20;stroke-width:1;stroke-linecap:butt;stroke-linejoin:miter;stroke-miterlimit:4;stroke-dasharray:none;stroke-opacity:1"
               id="path954" /></g></g></g><g
         id="g960"
         transform="translate(68.97387,215.65248)"><g
           id="g962" /><g
           id="g972"><g
             clip-path="url(#clipPath966)"
             id="g970"><path
               d="m 272.46582,287.27832 c 0,-1.73926 -1.25293,-3.14941 -2.7998,-3.14941 -1.54688,0 -2.79981,1.41015 -2.79981,3.14941 0,1.74023 1.25293,3.15039 2.79981,3.15039 1.54687,0 2.7998,-1.41016 2.7998,-3.15039 z"
               style="fill:#ffffff;fill-opacity:1;fill-rule:nonzero;stroke:#231f20;stroke-width:1;stroke-linecap:butt;stroke-linejoin:miter;stroke-miterlimit:4;stroke-dasharray:none;stroke-opacity:1"
               id="path968" /></g></g></g><g
         id="g974"
         transform="translate(68.97387,215.65248)"><g
           id="g976" /><g
           id="g986"><g
             clip-path="url(#clipPath980)"
             id="g984"><path
               d="m 228.66699,318.61182 c 4.66602,-5 3,-15.66651 7,-20.66602"
               style="fill:none;stroke:#231f20;stroke-width:2;stroke-linecap:butt;stroke-linejoin:miter;stroke-miterlimit:4;stroke-dasharray:none;stroke-opacity:1"
               id="path982" /></g></g></g><path
         d="m 305.30688,490.26478 c -3.33301,-3.33398 0.33398,-12 -3.66602,-19.33398"
         style="fill:none;stroke:#231f20;stroke-width:2;stroke-linecap:butt;stroke-linejoin:miter;stroke-miterlimit:4;stroke-dasharray:none;stroke-opacity:1"
         id="path988" /><path
         d="m 327.97387,491.26478 c 13,-14.333 34.30322,19.93946 43,10"
         style="fill:none;stroke:#231f20;stroke-width:2;stroke-linecap:butt;stroke-linejoin:miter;stroke-miterlimit:4;stroke-dasharray:none;stroke-opacity:1"
         id="path990" /><path
         d="m 327.64086,516.59779 c 7.49121,9.99121 21,-3.99951 25.66651,-14"
         style="fill:none;stroke:#231f20;stroke-width:2;stroke-linecap:butt;stroke-linejoin:miter;stroke-miterlimit:4;stroke-dasharray:none;stroke-opacity:1"
         id="path992" /><path
         d="m 385.30688,521.2643 c -4,-5.3335 -12.83301,-38.99952 -25.66651,-27.33252"
         style="fill:none;stroke:#231f20;stroke-width:2;stroke-linecap:butt;stroke-linejoin:miter;stroke-miterlimit:4;stroke-dasharray:none;stroke-opacity:1"
         id="path994" /><path
         d="m 379.30688,495.59877 c 3.33398,-3 -6.33301,-7.5 1.66699,-12.83399"
         style="fill:none;stroke:#231f20;stroke-width:2;stroke-linecap:butt;stroke-linejoin:miter;stroke-miterlimit:4;stroke-dasharray:none;stroke-opacity:1"
         id="path996" /></g><g
       id="g12772"
       transform="translate(-2.516855,3.9288713)"><g
         id="g998"
         transform="translate(-137.07465,62.862261)"><g
           id="g1000" /><g
           id="g1010"><g
             clip-path="url(#clipPath1004)"
             id="g1008"><path
               d="m 477.0498,349.11182 c 0,-1.73975 -1.25292,-3.14991 -2.7998,-3.14991 -1.54687,0 -2.7998,1.41016 -2.7998,3.14991 0,1.73974 1.25293,3.1499 2.7998,3.1499 1.54688,0 2.7998,-1.41016 2.7998,-3.1499 z"
               style="fill:#231f20;fill-opacity:1;fill-rule:nonzero;stroke:#231f20;stroke-width:1;stroke-linecap:butt;stroke-linejoin:miter;stroke-miterlimit:4;stroke-dasharray:none;stroke-opacity:1"
               id="path1006" /></g></g></g><g
         id="g1012"
         transform="translate(-137.07465,62.862261)"><g
           id="g1014" /><g
           id="g1024"><g
             clip-path="url(#clipPath1018)"
             id="g1022"><path
               d="M 400.49902,288.7334 474.25,349.11182 547.01855,287.6416 473.75,228.6123 Z"
               style="fill:none;stroke:#231f20;stroke-width:1;stroke-linecap:butt;stroke-linejoin:miter;stroke-miterlimit:4;stroke-dasharray:none;stroke-opacity:1"
               id="path1020" /></g></g></g><g
         id="g1026"
         transform="translate(-137.07465,62.862261)"><g
           id="g1028" /><g
           id="g1038"><g
             clip-path="url(#clipPath1032)"
             id="g1036"><path
               d="m 405.2998,288.7334 c 0,-1.74024 -1.2539,-3.15039 -2.80078,-3.15039 -1.54589,0 -2.79882,1.41015 -2.79882,3.15039 0,1.74023 1.25293,3.15039 2.79882,3.15039 1.54688,0 2.80078,-1.41016 2.80078,-3.15039 z"
               style="fill:#ffffff;fill-opacity:1;fill-rule:nonzero;stroke:#231f20;stroke-width:1;stroke-linecap:butt;stroke-linejoin:miter;stroke-miterlimit:4;stroke-dasharray:none;stroke-opacity:1"
               id="path1034" /></g></g></g><g
         id="g1040"
         transform="translate(-137.07465,62.862261)"><g
           id="g1042" /><g
           id="g1052"><g
             clip-path="url(#clipPath1046)"
             id="g1050"><path
               d="m 476.5498,228.6123 c 0,-1.74023 -1.25292,-3.15039 -2.7998,-3.15039 -1.54687,0 -2.7998,1.41016 -2.7998,3.15039 0,1.73926 1.25293,3.14942 2.7998,3.14942 1.54688,0 2.7998,-1.41016 2.7998,-3.14942 z"
               style="fill:#231f20;fill-opacity:1;fill-rule:nonzero;stroke:#231f20;stroke-width:1;stroke-linecap:butt;stroke-linejoin:miter;stroke-miterlimit:4;stroke-dasharray:none;stroke-opacity:1"
               id="path1048" /></g></g></g><g
         id="g1054"
         transform="translate(-137.07465,62.862261)"><g
           id="g1056" /><g
           id="g1066"><g
             clip-path="url(#clipPath1060)"
             id="g1064"><path
               d="m 548.0498,288.2793 c 0,-1.73926 -1.25292,-3.14942 -2.79882,-3.14942 -1.54688,0 -2.80078,1.41016 -2.80078,3.14942 0,1.73925 1.2539,3.14941 2.80078,3.14941 1.5459,0 2.79882,-1.41016 2.79882,-3.14941 z"
               style="fill:#ffffff;fill-opacity:1;fill-rule:nonzero;stroke:#231f20;stroke-width:1;stroke-linecap:butt;stroke-linejoin:miter;stroke-miterlimit:4;stroke-dasharray:none;stroke-opacity:1"
               id="path1062" /></g></g></g><g
         id="g1068"
         transform="translate(-137.07465,62.862261)"><g
           id="g1070" /><g
           id="g1080"><g
             clip-path="url(#clipPath1074)"
             id="g1078"><path
               d="m 477.71582,265.0957 c 0,-1.73925 -1.25293,-3.14941 -2.7998,-3.14941 -1.54688,0 -2.79981,1.41016 -2.79981,3.14941 0,1.73926 1.25293,3.14942 2.79981,3.14942 1.54687,0 2.7998,-1.41016 2.7998,-3.14942 z"
               style="fill:#231f20;fill-opacity:1;fill-rule:nonzero;stroke:#231f20;stroke-width:1;stroke-linecap:butt;stroke-linejoin:miter;stroke-miterlimit:4;stroke-dasharray:none;stroke-opacity:1"
               id="path1076" /></g></g></g><g
         id="g1082"
         transform="translate(-137.07465,62.862261)"><g
           id="g1084" /><g
           id="g1094"><g
             clip-path="url(#clipPath1088)"
             id="g1092"><path
               d="m 451.91406,287.07617 23.66797,23.53565 22.66992,-22.79737 -23.66992,-23.53613 z"
               style="fill:none;stroke:#231f20;stroke-width:1;stroke-linecap:butt;stroke-linejoin:miter;stroke-miterlimit:4;stroke-dasharray:none;stroke-opacity:1"
               id="path1090" /></g></g></g><g
         id="g1096"
         transform="translate(-137.07465,62.862261)"><g
           id="g1098" /><g
           id="g1108"><g
             clip-path="url(#clipPath1102)"
             id="g1106"><path
               d="m 478.38281,310.61182 c 0,-1.73975 -1.2539,-3.14991 -2.80078,-3.14991 -1.5459,0 -2.79883,1.41016 -2.79883,3.14991 0,1.73974 1.25293,3.1499 2.79883,3.1499 1.54688,0 2.80078,-1.41016 2.80078,-3.1499 z"
               style="fill:#231f20;fill-opacity:1;fill-rule:nonzero;stroke:#231f20;stroke-width:1;stroke-linecap:butt;stroke-linejoin:miter;stroke-miterlimit:4;stroke-dasharray:none;stroke-opacity:1"
               id="path1104" /></g></g></g><g
         id="g1110"
         transform="translate(-137.07465,62.862261)"><g
           id="g1112" /><g
           id="g1122"><g
             clip-path="url(#clipPath1116)"
             id="g1120"><path
               d="m 454.71582,286.94531 c 0,-1.73926 -1.25293,-3.14941 -2.7998,-3.14941 -1.54688,0 -2.79981,1.41015 -2.79981,3.14941 0,1.73926 1.25293,3.14942 2.79981,3.14942 1.54687,0 2.7998,-1.41016 2.7998,-3.14942 z"
               style="fill:#ffffff;fill-opacity:1;fill-rule:nonzero;stroke:#231f20;stroke-width:1;stroke-linecap:butt;stroke-linejoin:miter;stroke-miterlimit:4;stroke-dasharray:none;stroke-opacity:1"
               id="path1118" /></g></g></g><g
         id="g1124"
         transform="translate(-137.07465,62.862261)"><g
           id="g1126" /><g
           id="g1136"><g
             clip-path="url(#clipPath1130)"
             id="g1134"><path
               d="m 499.71582,287.27832 c 0,-1.73926 -1.25293,-3.14941 -2.7998,-3.14941 -1.54688,0 -2.79981,1.41015 -2.79981,3.14941 0,1.74023 1.25293,3.15039 2.79981,3.15039 1.54687,0 2.7998,-1.41016 2.7998,-3.15039 z"
               style="fill:#ffffff;fill-opacity:1;fill-rule:nonzero;stroke:#231f20;stroke-width:1;stroke-linecap:butt;stroke-linejoin:miter;stroke-miterlimit:4;stroke-dasharray:none;stroke-opacity:1"
               id="path1132" /></g></g></g><g
         id="g1138"
         transform="translate(-137.07465,62.862261)"><g
           id="g1140" /><g
           id="g1150"><g
             clip-path="url(#clipPath1144)"
             id="g1148"><path
               d="m 436.91699,318.61182 c 4.66602,-5 -23.16699,-31.99952 -0.66699,-41.99952"
               style="fill:none;stroke:#231f20;stroke-width:2;stroke-linecap:butt;stroke-linejoin:miter;stroke-miterlimit:4;stroke-dasharray:none;stroke-opacity:1"
               id="path1146" /></g></g></g><path
         d="m 327.67535,335.97456 c -3.33301,-3.33398 -13.5,-4 -19,-2"
         style="fill:none;stroke:#231f20;stroke-width:2;stroke-linecap:butt;stroke-linejoin:miter;stroke-miterlimit:4;stroke-dasharray:none;stroke-opacity:1"
         id="path1152" /><path
         d="m 350.67535,362.97408 c 3,5 8.5,5.5 17.5,-0.5"
         style="fill:none;stroke:#231f20;stroke-width:2;stroke-linecap:butt;stroke-linejoin:miter;stroke-miterlimit:4;stroke-dasharray:none;stroke-opacity:1"
         id="path1154" /><path
         d="m 329.84234,363.80806 c -17.16699,22.16602 -29.16699,-4.33398 -26.66699,-45.3335"
         style="fill:none;stroke:#231f20;stroke-width:2;stroke-linecap:butt;stroke-linejoin:miter;stroke-miterlimit:4;stroke-dasharray:none;stroke-opacity:1"
         id="path1156" /><path
         d="m 375.67535,378.47408 c -4,-5.33399 5,-59.49952 -27,-41.49952"
         style="fill:none;stroke:#231f20;stroke-width:2;stroke-linecap:butt;stroke-linejoin:miter;stroke-miterlimit:4;stroke-dasharray:none;stroke-opacity:1"
         id="path1158" /><path
         d="m 380.17535,356.47456 c 8.5,-3.5 -2,-21 3,-26.5"
         style="fill:none;stroke:#231f20;stroke-width:2;stroke-linecap:butt;stroke-linejoin:miter;stroke-miterlimit:4;stroke-dasharray:none;stroke-opacity:1"
         id="path1160" /></g><g
       id="g12896"
       transform="translate(-347.59126,-82.070175)"><g
         id="g1162"><g
           id="g1164" /><g
           id="g1174"><g
             clip-path="url(#clipPath1168)"
             id="g1172"><path
               d="m 678.7002,349.11182 c 0,-1.73975 1.25293,-3.14991 2.7998,-3.14991 1.54688,0 2.7998,1.41016 2.7998,3.14991 0,1.73974 -1.25292,3.1499 -2.7998,3.1499 -1.54687,0 -2.7998,-1.41016 -2.7998,-3.1499 z"
               style="fill:#231f20;fill-opacity:1;fill-rule:nonzero;stroke:#231f20;stroke-width:1;stroke-linecap:butt;stroke-linejoin:miter;stroke-miterlimit:4;stroke-dasharray:none;stroke-opacity:1"
               id="path1170" /></g></g></g><g
         id="g1176"><g
           id="g1178" /><g
           id="g1188"><g
             clip-path="url(#clipPath1182)"
             id="g1186"><path
               d="M 755.25098,288.7334 681.5,349.11182 608.73145,287.6416 682,228.6123 Z"
               style="fill:none;stroke:#231f20;stroke-width:1;stroke-linecap:butt;stroke-linejoin:miter;stroke-miterlimit:4;stroke-dasharray:none;stroke-opacity:1"
               id="path1184" /></g></g></g><g
         id="g1190"><g
           id="g1192" /><g
           id="g1202"><g
             clip-path="url(#clipPath1196)"
             id="g1200"><path
               d="m 750.4502,288.7334 c 0,-1.74024 1.2539,-3.15039 2.80078,-3.15039 1.5459,0 2.79882,1.41015 2.79882,3.15039 0,1.74023 -1.25292,3.15039 -2.79882,3.15039 -1.54688,0 -2.80078,-1.41016 -2.80078,-3.15039 z"
               style="fill:#ffffff;fill-opacity:1;fill-rule:nonzero;stroke:#231f20;stroke-width:1;stroke-linecap:butt;stroke-linejoin:miter;stroke-miterlimit:4;stroke-dasharray:none;stroke-opacity:1"
               id="path1198" /></g></g></g><g
         id="g1204"><g
           id="g1206" /><g
           id="g1216"><g
             clip-path="url(#clipPath1210)"
             id="g1214"><path
               d="m 679.2002,228.6123 c 0,-1.74023 1.25293,-3.15039 2.7998,-3.15039 1.54688,0 2.7998,1.41016 2.7998,3.15039 0,1.73926 -1.25292,3.14942 -2.7998,3.14942 -1.54687,0 -2.7998,-1.41016 -2.7998,-3.14942 z"
               style="fill:#231f20;fill-opacity:1;fill-rule:nonzero;stroke:#231f20;stroke-width:1;stroke-linecap:butt;stroke-linejoin:miter;stroke-miterlimit:4;stroke-dasharray:none;stroke-opacity:1"
               id="path1212" /></g></g></g><g
         id="g1218"><g
           id="g1220" /><g
           id="g1230"><g
             clip-path="url(#clipPath1224)"
             id="g1228"><path
               d="m 607.7002,288.2793 c 0,-1.73926 1.25293,-3.14942 2.79882,-3.14942 1.54688,0 2.80078,1.41016 2.80078,3.14942 0,1.73925 -1.2539,3.14941 -2.80078,3.14941 -1.54589,0 -2.79882,-1.41016 -2.79882,-3.14941 z"
               style="fill:#ffffff;fill-opacity:1;fill-rule:nonzero;stroke:#231f20;stroke-width:1;stroke-linecap:butt;stroke-linejoin:miter;stroke-miterlimit:4;stroke-dasharray:none;stroke-opacity:1"
               id="path1226" /></g></g></g><g
         id="g1232"><g
           id="g1234" /><g
           id="g1244"><g
             clip-path="url(#clipPath1238)"
             id="g1242"><path
               d="m 697.03418,265.0957 c 0,-1.73925 1.25293,-3.14941 2.7998,-3.14941 1.54688,0 2.79981,1.41016 2.79981,3.14941 0,1.73926 -1.25293,3.14942 -2.79981,3.14942 -1.54687,0 -2.7998,-1.41016 -2.7998,-3.14942 z"
               style="fill:#231f20;fill-opacity:1;fill-rule:nonzero;stroke:#231f20;stroke-width:1;stroke-linecap:butt;stroke-linejoin:miter;stroke-miterlimit:4;stroke-dasharray:none;stroke-opacity:1"
               id="path1240" /></g></g></g><g
         id="g1246"><g
           id="g1248" /><g
           id="g1258"><g
             clip-path="url(#clipPath1252)"
             id="g1256"><path
               d="m 722.83594,287.07617 -23.66797,23.53565 -22.66992,-22.79737 23.66992,-23.53613 z"
               style="fill:none;stroke:#231f20;stroke-width:1;stroke-linecap:butt;stroke-linejoin:miter;stroke-miterlimit:4;stroke-dasharray:none;stroke-opacity:1"
               id="path1254" /></g></g></g><g
         id="g1260"><g
           id="g1262" /><g
           id="g1272"><g
             clip-path="url(#clipPath1266)"
             id="g1270"><path
               d="m 696.36719,310.61182 c 0,-1.73975 1.2539,-3.14991 2.80078,-3.14991 1.5459,0 2.79883,1.41016 2.79883,3.14991 0,1.73974 -1.25293,3.1499 -2.79883,3.1499 -1.54688,0 -2.80078,-1.41016 -2.80078,-3.1499 z"
               style="fill:#231f20;fill-opacity:1;fill-rule:nonzero;stroke:#231f20;stroke-width:1;stroke-linecap:butt;stroke-linejoin:miter;stroke-miterlimit:4;stroke-dasharray:none;stroke-opacity:1"
               id="path1268" /></g></g></g><g
         id="g1274"><g
           id="g1276" /><g
           id="g1286"><g
             clip-path="url(#clipPath1280)"
             id="g1284"><path
               d="m 720.03418,286.94531 c 0,-1.73926 1.25293,-3.14941 2.7998,-3.14941 1.54688,0 2.79981,1.41015 2.79981,3.14941 0,1.73926 -1.25293,3.14942 -2.79981,3.14942 -1.54687,0 -2.7998,-1.41016 -2.7998,-3.14942 z"
               style="fill:#ffffff;fill-opacity:1;fill-rule:nonzero;stroke:#231f20;stroke-width:1;stroke-linecap:butt;stroke-linejoin:miter;stroke-miterlimit:4;stroke-dasharray:none;stroke-opacity:1"
               id="path1282" /></g></g></g><g
         id="g1288"><g
           id="g1290" /><g
           id="g1300"><g
             clip-path="url(#clipPath1294)"
             id="g1298"><path
               d="m 675.03418,287.27832 c 0,-1.73926 1.25293,-3.14941 2.7998,-3.14941 1.54688,0 2.79981,1.41015 2.79981,3.14941 0,1.74023 -1.25293,3.15039 -2.79981,3.15039 -1.54687,0 -2.7998,-1.41016 -2.7998,-3.15039 z"
               style="fill:#ffffff;fill-opacity:1;fill-rule:nonzero;stroke:#231f20;stroke-width:1;stroke-linecap:butt;stroke-linejoin:miter;stroke-miterlimit:4;stroke-dasharray:none;stroke-opacity:1"
               id="path1296" /></g></g></g><g
         id="g1302"><g
           id="g1304" /><g
           id="g1314"><g
             clip-path="url(#clipPath1308)"
             id="g1312"><path
               d="m 718.83301,318.61182 c -4.66602,-5 -3,-15.66602 -7,-20.66602"
               style="fill:none;stroke:#231f20;stroke-width:2;stroke-linecap:butt;stroke-linejoin:miter;stroke-miterlimit:4;stroke-dasharray:none;stroke-opacity:1"
               id="path1310" /></g></g></g><path
         d="M 711.16699,274.6123 C 714.5,271.27832 718.5,268.94629 722.5,261.6123"
         style="fill:none;stroke:#231f20;stroke-width:2;stroke-linecap:butt;stroke-linejoin:miter;stroke-miterlimit:4;stroke-dasharray:none;stroke-opacity:1"
         id="path1316" /><path
         d="m 688.5,275.6123 c -13,-14.333 -34.30273,19.93946 -43,10"
         style="fill:none;stroke:#231f20;stroke-width:2;stroke-linecap:butt;stroke-linejoin:miter;stroke-miterlimit:4;stroke-dasharray:none;stroke-opacity:1"
         id="path1318" /><path
         d="m 688.83301,300.9458 c -7.49121,9.99072 -21,-4 -25.66699,-14.00049"
         style="fill:none;stroke:#231f20;stroke-width:2;stroke-linecap:butt;stroke-linejoin:miter;stroke-miterlimit:4;stroke-dasharray:none;stroke-opacity:1"
         id="path1320" /><path
         d="m 631.16699,305.61182 c 4,-5.33399 12.83301,-38.99952 25.66699,-27.33252"
         style="fill:none;stroke:#231f20;stroke-width:2;stroke-linecap:butt;stroke-linejoin:miter;stroke-miterlimit:4;stroke-dasharray:none;stroke-opacity:1"
         id="path1322" /><path
         d="m 637.16699,279.94629 c -3.33398,-3 6.33301,-7.5 -1.66699,-12.83399"
         style="fill:none;stroke:#231f20;stroke-width:2;stroke-linecap:butt;stroke-linejoin:miter;stroke-miterlimit:4;stroke-dasharray:none;stroke-opacity:1"
         id="path1324" /></g></g></svg>
