<?xml version="1.0" encoding="UTF-8" standalone="no"?>
<svg
   xmlns:dc="http://purl.org/dc/elements/1.1/"
   xmlns:cc="http://creativecommons.org/ns#"
   xmlns:rdf="http://www.w3.org/1999/02/22-rdf-syntax-ns#"
   xmlns:svg="http://www.w3.org/2000/svg"
   xmlns="http://www.w3.org/2000/svg"
   xmlns:sodipodi="http://sodipodi.sourceforge.net/DTD/sodipodi-0.dtd"
   xmlns:inkscape="http://www.inkscape.org/namespaces/inkscape"
   version="1.1"
   id="svg2"
   xml:space="preserve"
   width="808.48242"
   height="282.819"
   viewBox="0 0 808.48242 282.819"
   sodipodi:docname="retournementZ.ai.svg"
   inkscape:version="1.0.2-2 (e86c870879, 2021-01-15)"><metadata
     id="metadata8"><rdf:RDF><cc:Work
         rdf:about=""><dc:format>image/svg+xml</dc:format><dc:type
           rdf:resource="http://purl.org/dc/dcmitype/StillImage" /><dc:title></dc:title></cc:Work></rdf:RDF></metadata><defs
     id="defs6"><clipPath
       clipPathUnits="userSpaceOnUse"
       id="clipPath18"><path
         d="m 0,-595.27588 c 0,0 841.88965,0 841.88965,0 0,0 0,595.27588 0,595.27588 C 841.88965,0 0,0 0,0 0,0 0,-595.27588 0,-595.27588 Z"
         id="path16" /></clipPath></defs><sodipodi:namedview
     pagecolor="#ffffff"
     bordercolor="#666666"
     borderopacity="1"
     objecttolerance="10"
     gridtolerance="10"
     guidetolerance="10"
     inkscape:pageopacity="0"
     inkscape:pageshadow="2"
     inkscape:window-width="1816"
     inkscape:window-height="1030"
     id="namedview4"
     showgrid="false"
     inkscape:zoom="0.85926526"
     inkscape:cx="415.9481"
     inkscape:cy="171.92407"
     inkscape:window-x="86"
     inkscape:window-y="0"
     inkscape:window-maximized="0"
     inkscape:current-layer="g10"
     inkscape:document-rotation="0"
     fit-margin-top="10"
     fit-margin-left="10"
     fit-margin-right="10"
     fit-margin-bottom="10" /><g
     id="g10"
     inkscape:groupmode="layer"
     inkscape:label="retournementZ"
     transform="matrix(1.3333333,0,0,-1.3333333,-145.31185,568.77472)"><g
       id="g12"
       transform="scale(1,-1)"><g
         id="g14"
         clip-path="url(#clipPath18)"><path
           d="m 176.77197,-228.13672 c 0,0 -54.11914,-54.11914 -54.11914,-54.11914 0,0 0,-76.53613 0,-76.53613 0,0 54.11914,-54.12012 54.11914,-54.12012 0,0 76.53809,0 76.53809,0 0,0 54.11914,54.12012 54.11914,54.12012 0,0 0,76.53613 0,76.53613 0,0 -54.11914,54.11914 -54.11914,54.11914 0,0 -76.53809,0 -76.53809,0 z"
           style="fill:none;stroke:#231f20;stroke-width:1;stroke-linecap:butt;stroke-linejoin:miter;stroke-miterlimit:4;stroke-dasharray:none;stroke-opacity:1"
           id="path20" /><path
           d="m 128.32324,-358.79199 c 0,3.13086 -2.53906,5.66894 -5.67041,5.66894 -3.13086,0 -5.66894,-2.53808 -5.66894,-5.66894 0,-3.13184 2.53808,-5.66992 5.66894,-5.66992 3.13135,0 5.67041,2.53808 5.67041,5.66992"
           style="fill:#231f20;fill-opacity:1;fill-rule:nonzero;stroke:none"
           id="path22" /><path
           d="m 128.32324,-358.79199 c 0,3.13086 -2.53906,5.66894 -5.67041,5.66894 -3.13086,0 -5.66894,-2.53808 -5.66894,-5.66894 0,-3.13184 2.53808,-5.66992 5.66894,-5.66992 3.13135,0 5.67041,2.53808 5.67041,5.66992 z"
           style="fill:none;stroke:#231f20;stroke-width:1;stroke-linecap:butt;stroke-linejoin:miter;stroke-miterlimit:4;stroke-dasharray:none;stroke-opacity:1"
           id="path24" /><path
           d="m 313.09814,-358.79199 c 0,3.13086 -2.53808,5.66894 -5.66894,5.66894 -3.13135,0 -5.67041,-2.53808 -5.67041,-5.66894 0,-3.13184 2.53906,-5.66992 5.67041,-5.66992 3.13086,0 5.66894,2.53808 5.66894,5.66992"
           style="fill:#ffffff;fill-opacity:1;fill-rule:nonzero;stroke:none"
           id="path26" /><path
           d="m 313.09814,-358.79199 c 0,3.13086 -2.53808,5.66894 -5.66894,5.66894 -3.13135,0 -5.67041,-2.53808 -5.67041,-5.66894 0,-3.13184 2.53906,-5.66992 5.67041,-5.66992 3.13086,0 5.66894,2.53808 5.66894,5.66992 z"
           style="fill:none;stroke:#231f20;stroke-width:1;stroke-linecap:butt;stroke-linejoin:miter;stroke-miterlimit:4;stroke-dasharray:none;stroke-opacity:1"
           id="path28" /><path
           d="m 313.09814,-282.25586 c 0,3.13281 -2.53808,5.66992 -5.66894,5.66992 -3.13135,0 -5.67041,-2.53711 -5.67041,-5.66992 0,-3.13086 2.53906,-5.66797 5.67041,-5.66797 3.13086,0 5.66894,2.53711 5.66894,5.66797"
           style="fill:#231f20;fill-opacity:1;fill-rule:nonzero;stroke:none"
           id="path30" /><path
           d="m 313.09814,-282.25586 c 0,3.13281 -2.53808,5.66992 -5.66894,5.66992 -3.13135,0 -5.67041,-2.53711 -5.67041,-5.66992 0,-3.13086 2.53906,-5.66797 5.67041,-5.66797 3.13086,0 5.66894,2.53711 5.66894,5.66797 z"
           style="fill:none;stroke:#231f20;stroke-width:1;stroke-linecap:butt;stroke-linejoin:miter;stroke-miterlimit:4;stroke-dasharray:none;stroke-opacity:1"
           id="path32" /><path
           d="m 258.979,-412.91211 c 0,3.13232 -2.53906,5.66992 -5.66894,5.66992 -3.13086,0 -5.66992,-2.5376 -5.66992,-5.66992 0,-3.13086 2.53906,-5.66894 5.66992,-5.66894 3.12988,0 5.66894,2.53808 5.66894,5.66894"
           style="fill:#231f20;fill-opacity:1;fill-rule:nonzero;stroke:none"
           id="path34" /><path
           d="m 258.979,-412.91211 c 0,3.13232 -2.53906,5.66992 -5.66894,5.66992 -3.13086,0 -5.66992,-2.5376 -5.66992,-5.66992 0,-3.13086 2.53906,-5.66894 5.66992,-5.66894 3.12988,0 5.66894,2.53808 5.66894,5.66894 z"
           style="fill:none;stroke:#231f20;stroke-width:1;stroke-linecap:butt;stroke-linejoin:miter;stroke-miterlimit:4;stroke-dasharray:none;stroke-opacity:1"
           id="path36" /><path
           d="m 182.44189,-412.91211 c 0,3.13232 -2.53906,5.66992 -5.66992,5.66992 -3.12988,0 -5.66894,-2.5376 -5.66894,-5.66992 0,-3.13086 2.53906,-5.66894 5.66894,-5.66894 3.13086,0 5.66992,2.53808 5.66992,5.66894"
           style="fill:#ffffff;fill-opacity:1;fill-rule:nonzero;stroke:none"
           id="path38" /><path
           d="m 182.44189,-412.91211 c 0,3.13232 -2.53906,5.66992 -5.66992,5.66992 -3.12988,0 -5.66894,-2.5376 -5.66894,-5.66992 0,-3.13086 2.53906,-5.66894 5.66894,-5.66894 3.13086,0 5.66992,2.53808 5.66992,5.66894 z"
           style="fill:none;stroke:#231f20;stroke-width:1;stroke-linecap:butt;stroke-linejoin:miter;stroke-miterlimit:4;stroke-dasharray:none;stroke-opacity:1"
           id="path40" /><path
           d="m 128.32324,-282.25586 c 0,3.13281 -2.53906,5.66992 -5.67041,5.66992 -3.13086,0 -5.66894,-2.53711 -5.66894,-5.66992 0,-3.13086 2.53808,-5.66797 5.66894,-5.66797 3.13135,0 5.67041,2.53711 5.67041,5.66797"
           style="fill:#ffffff;fill-opacity:1;fill-rule:nonzero;stroke:none"
           id="path42" /><path
           d="m 128.32324,-282.25586 c 0,3.13281 -2.53906,5.66992 -5.67041,5.66992 -3.13086,0 -5.66894,-2.53711 -5.66894,-5.66992 0,-3.13086 2.53808,-5.66797 5.66894,-5.66797 3.13135,0 5.67041,2.53711 5.67041,5.66797 z"
           style="fill:none;stroke:#231f20;stroke-width:1;stroke-linecap:butt;stroke-linejoin:miter;stroke-miterlimit:4;stroke-dasharray:none;stroke-opacity:1"
           id="path44" /><path
           d="m 182.44189,-228.13672 c 0,3.13281 -2.53906,5.66992 -5.66992,5.66992 -3.12988,0 -5.66894,-2.53711 -5.66894,-5.66992 0,-3.13086 2.53906,-5.66797 5.66894,-5.66797 3.13086,0 5.66992,2.53711 5.66992,5.66797"
           style="fill:#231f20;fill-opacity:1;fill-rule:nonzero;stroke:none"
           id="path46" /><path
           d="m 182.44189,-228.13672 c 0,3.13281 -2.53906,5.66992 -5.66992,5.66992 -3.12988,0 -5.66894,-2.53711 -5.66894,-5.66992 0,-3.13086 2.53906,-5.66797 5.66894,-5.66797 3.13086,0 5.66992,2.53711 5.66992,5.66797 z"
           style="fill:none;stroke:#231f20;stroke-width:1;stroke-linecap:butt;stroke-linejoin:miter;stroke-miterlimit:4;stroke-dasharray:none;stroke-opacity:1"
           id="path48" /><path
           d="m 258.979,-228.13672 c 0,3.13281 -2.53906,5.66992 -5.66894,5.66992 -3.13086,0 -5.66992,-2.53711 -5.66992,-5.66992 0,-3.13086 2.53906,-5.66797 5.66992,-5.66797 3.12988,0 5.66894,2.53711 5.66894,5.66797"
           style="fill:#ffffff;fill-opacity:1;fill-rule:nonzero;stroke:none"
           id="path50" /><path
           d="m 258.979,-228.13672 c 0,3.13281 -2.53906,5.66992 -5.66894,5.66992 -3.13086,0 -5.66992,-2.53711 -5.66992,-5.66992 0,-3.13086 2.53906,-5.66797 5.66992,-5.66797 3.12988,0 5.66894,2.53711 5.66894,5.66797 z"
           style="fill:none;stroke:#231f20;stroke-width:1;stroke-linecap:butt;stroke-linejoin:miter;stroke-miterlimit:4;stroke-dasharray:none;stroke-opacity:1"
           id="path52" /><path
           d="m 191.25,-318.95605 c 0,0 -26.25,-22.4419 -26.25,-22.4419 0,0 26.25,-22.44189 26.25,-22.44189 0,0 52.5,0 52.5,0 0,0 26.25,22.44189 26.25,22.44189 0,0 -26.25,22.4419 -26.25,22.4419 0,0 -52.5,0 -52.5,0 z"
           style="fill:none;stroke:#231f20;stroke-width:1;stroke-linecap:butt;stroke-linejoin:miter;stroke-miterlimit:4;stroke-dasharray:none;stroke-opacity:1"
           id="path54" /><path
           d="m 196.75195,-363.95605 c 0,2.34912 -1.90381,4.25195 -4.25195,4.25195 -2.34814,0 -4.25195,-1.90283 -4.25195,-4.25195 0,-2.34815 1.90381,-4.25196 4.25195,-4.25196 2.34814,0 4.25195,1.90381 4.25195,4.25196"
           style="fill:#ffffff;fill-opacity:1;fill-rule:nonzero;stroke:none"
           id="path56" /><path
           d="m 196.75195,-363.95605 c 0,2.34912 -1.90381,4.25195 -4.25195,4.25195 -2.34814,0 -4.25195,-1.90283 -4.25195,-4.25195 0,-2.34815 1.90381,-4.25196 4.25195,-4.25196 2.34814,0 4.25195,1.90381 4.25195,4.25196 z"
           style="fill:none;stroke:#231f20;stroke-width:1;stroke-linecap:butt;stroke-linejoin:miter;stroke-miterlimit:4;stroke-dasharray:none;stroke-opacity:1"
           id="path58" /><path
           d="m 274.25195,-341.39795 c 0,2.34912 -1.90381,4.25195 -4.25195,4.25195 -2.34814,0 -4.25195,-1.90283 -4.25195,-4.25195 0,-2.34912 1.90381,-4.25195 4.25195,-4.25195 2.34814,0 4.25195,1.90283 4.25195,4.25195"
           style="fill:#ffffff;fill-opacity:1;fill-rule:nonzero;stroke:none"
           id="path60" /><path
           d="m 274.25195,-341.39795 c 0,2.34912 -1.90381,4.25195 -4.25195,4.25195 -2.34814,0 -4.25195,-1.90283 -4.25195,-4.25195 0,-2.34912 1.90381,-4.25195 4.25195,-4.25195 2.34814,0 4.25195,1.90283 4.25195,4.25195 z"
           style="fill:none;stroke:#231f20;stroke-width:1;stroke-linecap:butt;stroke-linejoin:miter;stroke-miterlimit:4;stroke-dasharray:none;stroke-opacity:1"
           id="path62" /><path
           d="m 195.50098,-318.95605 c 0,2.34912 -1.90284,4.25195 -4.25098,4.25195 -2.34912,0 -4.25195,-1.90283 -4.25195,-4.25195 0,-2.34815 1.90283,-4.25196 4.25195,-4.25196 2.34814,0 4.25098,1.90381 4.25098,4.25196"
           style="fill:#ffffff;fill-opacity:1;fill-rule:nonzero;stroke:none"
           id="path64" /><path
           d="m 195.50098,-318.95605 c 0,2.34912 -1.90284,4.25195 -4.25098,4.25195 -2.34912,0 -4.25195,-1.90283 -4.25195,-4.25195 0,-2.34815 1.90283,-4.25196 4.25195,-4.25196 2.34814,0 4.25098,1.90381 4.25098,4.25196 z"
           style="fill:none;stroke:#231f20;stroke-width:1;stroke-linecap:butt;stroke-linejoin:miter;stroke-miterlimit:4;stroke-dasharray:none;stroke-opacity:1"
           id="path66" /><path
           d="m 248.00195,-363.83984 c 0,2.34765 -1.90283,4.25195 -4.25195,4.25195 -2.34814,0 -4.25098,-1.9043 -4.25098,-4.25195 0,-2.34912 1.90284,-4.25196 4.25098,-4.25196 2.34912,0 4.25195,1.90284 4.25195,4.25196"
           style="fill:#231f20;fill-opacity:1;fill-rule:nonzero;stroke:none"
           id="path68" /><path
           d="m 248.00195,-363.83984 c 0,2.34765 -1.90283,4.25195 -4.25195,4.25195 -2.34814,0 -4.25098,-1.9043 -4.25098,-4.25195 0,-2.34912 1.90284,-4.25196 4.25098,-4.25196 2.34912,0 4.25195,1.90284 4.25195,4.25196 z"
           style="fill:none;stroke:#231f20;stroke-width:1;stroke-linecap:butt;stroke-linejoin:miter;stroke-miterlimit:4;stroke-dasharray:none;stroke-opacity:1"
           id="path70" /><path
           d="m 252.75195,-319.95605 c 0,2.34912 -1.90381,4.25195 -4.25195,4.25195 -2.34814,0 -4.25195,-1.90283 -4.25195,-4.25195 0,-2.34815 1.90381,-4.25196 4.25195,-4.25196 2.34814,0 4.25195,1.90381 4.25195,4.25196"
           style="fill:#231f20;fill-opacity:1;fill-rule:nonzero;stroke:none"
           id="path72" /><path
           d="m 252.75195,-319.95605 c 0,2.34912 -1.90381,4.25195 -4.25195,4.25195 -2.34814,0 -4.25195,-1.90283 -4.25195,-4.25195 0,-2.34815 1.90381,-4.25196 4.25195,-4.25196 2.34814,0 4.25195,1.90381 4.25195,4.25196 z"
           style="fill:none;stroke:#231f20;stroke-width:1;stroke-linecap:butt;stroke-linejoin:miter;stroke-miterlimit:4;stroke-dasharray:none;stroke-opacity:1"
           id="path74" /><path
           d="m 171.25195,-341.45605 c 0,2.34912 -1.90381,4.25195 -4.25195,4.25195 -2.34814,0 -4.25195,-1.90283 -4.25195,-4.25195 0,-2.34815 1.90381,-4.25196 4.25195,-4.25196 2.34814,0 4.25195,1.90381 4.25195,4.25196"
           style="fill:#231f20;fill-opacity:1;fill-rule:nonzero;stroke:none"
           id="path76" /><path
           d="m 171.25195,-341.45605 c 0,2.34912 -1.90381,4.25195 -4.25195,4.25195 -2.34814,0 -4.25195,-1.90283 -4.25195,-4.25195 0,-2.34815 1.90381,-4.25196 4.25195,-4.25196 2.34814,0 4.25195,1.90381 4.25195,4.25196 z"
           style="fill:none;stroke:#231f20;stroke-width:1;stroke-linecap:butt;stroke-linejoin:miter;stroke-miterlimit:4;stroke-dasharray:none;stroke-opacity:1"
           id="path78" /><path
           d="m 122,-324.45605 c 57,61.00097 144,55.00097 185,3"
           style="fill:none;stroke:#231f20;stroke-width:4;stroke-linecap:butt;stroke-linejoin:miter;stroke-miterlimit:4;stroke-dasharray:none;stroke-opacity:1"
           id="path80" /><path
           d="m 150,-387.45605 c 13,11 20,23 28,34"
           style="fill:none;stroke:#231f20;stroke-width:4;stroke-linecap:butt;stroke-linejoin:miter;stroke-miterlimit:4;stroke-dasharray:none;stroke-opacity:1"
           id="path82" /><path
           d="m 217,-413.45605 c 1,11 -1,37 0,49"
           style="fill:none;stroke:#231f20;stroke-width:4;stroke-linecap:butt;stroke-linejoin:miter;stroke-miterlimit:4;stroke-dasharray:none;stroke-opacity:1"
           id="path84" /><path
           d="m 283,-382.45605 c -8,11 -18,18 -27,28"
           style="fill:none;stroke:#231f20;stroke-width:4;stroke-linecap:butt;stroke-linejoin:miter;stroke-miterlimit:4;stroke-dasharray:none;stroke-opacity:1"
           id="path86" /><path
           d="m 217.7832,-270.43555 c -0.60498,17.20899 -1.30713,33.89453 -1.7832,41.98047"
           style="fill:none;stroke:#231f20;stroke-width:4;stroke-linecap:butt;stroke-linejoin:miter;stroke-miterlimit:4;stroke-dasharray:none;stroke-opacity:1"
           id="path88" /><path
           d="m 219,-318.45605 c 0,6.07617 -0.22803,16.36621 -0.56787,27.98925"
           style="fill:none;stroke:#231f20;stroke-width:4;stroke-linecap:butt;stroke-linejoin:miter;stroke-miterlimit:4;stroke-dasharray:none;stroke-opacity:1"
           id="path90" /><path
           d="m 163.13281,-282.31836 c -3.08593,10.00391 -6.8706,19.79492 -12.13281,27.86328"
           style="fill:none;stroke:#231f20;stroke-width:4;stroke-linecap:butt;stroke-linejoin:miter;stroke-miterlimit:4;stroke-dasharray:none;stroke-opacity:1"
           id="path92" /><path
           d="m 178,-330.45605 c -4.02881,7.16308 -6.85498,18.53417 -10.09375,30.97412"
           style="fill:none;stroke:#231f20;stroke-width:4;stroke-linecap:butt;stroke-linejoin:miter;stroke-miterlimit:4;stroke-dasharray:none;stroke-opacity:1"
           id="path94" /><path
           d="m 268.78711,-282.47656 c 1.95215,9.69336 4.69775,19.66992 9.21289,29.02148"
           style="fill:none;stroke:#231f20;stroke-width:4;stroke-linecap:butt;stroke-linejoin:miter;stroke-miterlimit:4;stroke-dasharray:none;stroke-opacity:1"
           id="path96" /><path
           d="m 258,-331.45605 c 4.16797,6.48388 5.76221,17.47119 7.66309,30.28027"
           style="fill:none;stroke:#231f20;stroke-width:4;stroke-linecap:butt;stroke-linejoin:miter;stroke-miterlimit:4;stroke-dasharray:none;stroke-opacity:1"
           id="path98" /><path
           d="m 571.02148,-228.13672 c 0,0 -54.12011,-54.11914 -54.12011,-54.11914 0,0 0,-76.53613 0,-76.53613 0,0 54.12011,-54.12012 54.12011,-54.12012 0,0 76.53614,0 76.53614,0 0,0 54.11914,54.12012 54.11914,54.12012 0,0 0,76.53613 0,76.53613 0,0 -54.11914,54.11914 -54.11914,54.11914 0,0 -76.53614,0 -76.53614,0 z"
           style="fill:none;stroke:#231f20;stroke-width:1;stroke-linecap:butt;stroke-linejoin:miter;stroke-miterlimit:4;stroke-dasharray:none;stroke-opacity:1"
           id="path100" /><path
           d="m 522.57031,-358.79199 c 0,3.13086 -2.53808,5.66894 -5.66894,5.66894 -3.12989,0 -5.66895,-2.53808 -5.66895,-5.66894 0,-3.13184 2.53906,-5.66992 5.66895,-5.66992 3.13086,0 5.66894,2.53808 5.66894,5.66992"
           style="fill:#231f20;fill-opacity:1;fill-rule:nonzero;stroke:none"
           id="path102" /><path
           d="m 522.57031,-358.79199 c 0,3.13086 -2.53808,5.66894 -5.66894,5.66894 -3.12989,0 -5.66895,-2.53808 -5.66895,-5.66894 0,-3.13184 2.53906,-5.66992 5.66895,-5.66992 3.13086,0 5.66894,2.53808 5.66894,5.66992 z"
           style="fill:none;stroke:#231f20;stroke-width:1;stroke-linecap:butt;stroke-linejoin:miter;stroke-miterlimit:4;stroke-dasharray:none;stroke-opacity:1"
           id="path104" /><path
           d="m 707.3457,-358.79199 c 0,3.13086 -2.53808,5.66894 -5.66894,5.66894 -3.13086,0 -5.66895,-2.53808 -5.66895,-5.66894 0,-3.13184 2.53809,-5.66992 5.66895,-5.66992 3.13086,0 5.66894,2.53808 5.66894,5.66992"
           style="fill:#ffffff;fill-opacity:1;fill-rule:nonzero;stroke:none"
           id="path106" /><path
           d="m 707.3457,-358.79199 c 0,3.13086 -2.53808,5.66894 -5.66894,5.66894 -3.13086,0 -5.66895,-2.53808 -5.66895,-5.66894 0,-3.13184 2.53809,-5.66992 5.66895,-5.66992 3.13086,0 5.66894,2.53808 5.66894,5.66992 z"
           style="fill:none;stroke:#231f20;stroke-width:1;stroke-linecap:butt;stroke-linejoin:miter;stroke-miterlimit:4;stroke-dasharray:none;stroke-opacity:1"
           id="path108" /><path
           d="m 707.3457,-282.25586 c 0,3.13281 -2.53808,5.66992 -5.66894,5.66992 -3.13086,0 -5.66895,-2.53711 -5.66895,-5.66992 0,-3.13086 2.53809,-5.66797 5.66895,-5.66797 3.13086,0 5.66894,2.53711 5.66894,5.66797"
           style="fill:#231f20;fill-opacity:1;fill-rule:nonzero;stroke:none"
           id="path110" /><path
           d="m 707.3457,-282.25586 c 0,3.13281 -2.53808,5.66992 -5.66894,5.66992 -3.13086,0 -5.66895,-2.53711 -5.66895,-5.66992 0,-3.13086 2.53809,-5.66797 5.66895,-5.66797 3.13086,0 5.66894,2.53711 5.66894,5.66797 z"
           style="fill:none;stroke:#231f20;stroke-width:1;stroke-linecap:butt;stroke-linejoin:miter;stroke-miterlimit:4;stroke-dasharray:none;stroke-opacity:1"
           id="path112" /><path
           d="m 653.22656,-412.91211 c 0,3.13232 -2.53808,5.66992 -5.66894,5.66992 -3.13086,0 -5.66895,-2.5376 -5.66895,-5.66992 0,-3.13086 2.53809,-5.66894 5.66895,-5.66894 3.13086,0 5.66894,2.53808 5.66894,5.66894"
           style="fill:#231f20;fill-opacity:1;fill-rule:nonzero;stroke:none"
           id="path114" /><path
           d="m 653.22656,-412.91211 c 0,3.13232 -2.53808,5.66992 -5.66894,5.66992 -3.13086,0 -5.66895,-2.5376 -5.66895,-5.66992 0,-3.13086 2.53809,-5.66894 5.66895,-5.66894 3.13086,0 5.66894,2.53808 5.66894,5.66894 z"
           style="fill:none;stroke:#231f20;stroke-width:1;stroke-linecap:butt;stroke-linejoin:miter;stroke-miterlimit:4;stroke-dasharray:none;stroke-opacity:1"
           id="path116" /><path
           d="m 576.68945,-412.91211 c 0,3.13232 -2.53808,5.66992 -5.66797,5.66992 -3.13183,0 -5.66992,-2.5376 -5.66992,-5.66992 0,-3.13086 2.53809,-5.66894 5.66992,-5.66894 3.12989,0 5.66797,2.53808 5.66797,5.66894"
           style="fill:#ffffff;fill-opacity:1;fill-rule:nonzero;stroke:none"
           id="path118" /><path
           d="m 576.68945,-412.91211 c 0,3.13232 -2.53808,5.66992 -5.66797,5.66992 -3.13183,0 -5.66992,-2.5376 -5.66992,-5.66992 0,-3.13086 2.53809,-5.66894 5.66992,-5.66894 3.12989,0 5.66797,2.53808 5.66797,5.66894 z"
           style="fill:none;stroke:#231f20;stroke-width:1;stroke-linecap:butt;stroke-linejoin:miter;stroke-miterlimit:4;stroke-dasharray:none;stroke-opacity:1"
           id="path120" /><path
           d="m 522.57031,-282.25586 c 0,3.13281 -2.53808,5.66992 -5.66894,5.66992 -3.12989,0 -5.66895,-2.53711 -5.66895,-5.66992 0,-3.13086 2.53906,-5.66797 5.66895,-5.66797 3.13086,0 5.66894,2.53711 5.66894,5.66797"
           style="fill:#ffffff;fill-opacity:1;fill-rule:nonzero;stroke:none"
           id="path122" /><path
           d="m 522.57031,-282.25586 c 0,3.13281 -2.53808,5.66992 -5.66894,5.66992 -3.12989,0 -5.66895,-2.53711 -5.66895,-5.66992 0,-3.13086 2.53906,-5.66797 5.66895,-5.66797 3.13086,0 5.66894,2.53711 5.66894,5.66797 z"
           style="fill:none;stroke:#231f20;stroke-width:1;stroke-linecap:butt;stroke-linejoin:miter;stroke-miterlimit:4;stroke-dasharray:none;stroke-opacity:1"
           id="path124" /><path
           d="m 576.68945,-228.13672 c 0,3.13281 -2.53808,5.66992 -5.66797,5.66992 -3.13183,0 -5.66992,-2.53711 -5.66992,-5.66992 0,-3.13086 2.53809,-5.66797 5.66992,-5.66797 3.12989,0 5.66797,2.53711 5.66797,5.66797"
           style="fill:#231f20;fill-opacity:1;fill-rule:nonzero;stroke:none"
           id="path126" /><path
           d="m 576.68945,-228.13672 c 0,3.13281 -2.53808,5.66992 -5.66797,5.66992 -3.13183,0 -5.66992,-2.53711 -5.66992,-5.66992 0,-3.13086 2.53809,-5.66797 5.66992,-5.66797 3.12989,0 5.66797,2.53711 5.66797,5.66797 z"
           style="fill:none;stroke:#231f20;stroke-width:1;stroke-linecap:butt;stroke-linejoin:miter;stroke-miterlimit:4;stroke-dasharray:none;stroke-opacity:1"
           id="path128" /><path
           d="m 653.22656,-228.13672 c 0,3.13281 -2.53808,5.66992 -5.66894,5.66992 -3.13086,0 -5.66895,-2.53711 -5.66895,-5.66992 0,-3.13086 2.53809,-5.66797 5.66895,-5.66797 3.13086,0 5.66894,2.53711 5.66894,5.66797"
           style="fill:#ffffff;fill-opacity:1;fill-rule:nonzero;stroke:none"
           id="path130" /><path
           d="m 653.22656,-228.13672 c 0,3.13281 -2.53808,5.66992 -5.66894,5.66992 -3.13086,0 -5.66895,-2.53711 -5.66895,-5.66992 0,-3.13086 2.53809,-5.66797 5.66895,-5.66797 3.13086,0 5.66894,2.53711 5.66894,5.66797 z"
           style="fill:none;stroke:#231f20;stroke-width:1;stroke-linecap:butt;stroke-linejoin:miter;stroke-miterlimit:4;stroke-dasharray:none;stroke-opacity:1"
           id="path132" /><path
           d="m 582.49805,-271.95508 c 0,0 -26.25,-22.44336 -26.25,-22.44336 0,0 26.25,-22.4414 26.25,-22.4414 0,0 52.5,0 52.5,0 0,0 26.25,22.4414 26.25,22.4414 0,0 -26.25,22.44336 -26.25,22.44336 0,0 -52.5,0 -52.5,0 z"
           style="fill:none;stroke:#231f20;stroke-width:1;stroke-linecap:butt;stroke-linejoin:miter;stroke-miterlimit:4;stroke-dasharray:none;stroke-opacity:1"
           id="path134" /><path
           d="m 588,-316.95605 c 0,2.34912 -1.9043,4.25195 -4.25195,4.25195 -2.34766,0 -4.25196,-1.90283 -4.25196,-4.25195 0,-2.34815 1.9043,-4.25196 4.25196,-4.25196 2.34765,0 4.25195,1.90381 4.25195,4.25196"
           style="fill:#231f20;fill-opacity:1;fill-rule:nonzero;stroke:none"
           id="path136" /><path
           d="m 588,-316.95605 c 0,2.34912 -1.9043,4.25195 -4.25195,4.25195 -2.34766,0 -4.25196,-1.90283 -4.25196,-4.25195 0,-2.34815 1.9043,-4.25196 4.25196,-4.25196 2.34765,0 4.25195,1.90381 4.25195,4.25196 z"
           style="fill:none;stroke:#231f20;stroke-width:1;stroke-linecap:butt;stroke-linejoin:miter;stroke-miterlimit:4;stroke-dasharray:none;stroke-opacity:1"
           id="path138" /><path
           d="m 665.5,-294.39844 c 0,2.34961 -1.9043,4.25196 -4.25195,4.25196 -2.34766,0 -4.25196,-1.90235 -4.25196,-4.25196 0,-2.34863 1.9043,-4.25146 4.25196,-4.25146 2.34765,0 4.25195,1.90283 4.25195,4.25146"
           style="fill:#231f20;fill-opacity:1;fill-rule:nonzero;stroke:none"
           id="path140" /><path
           d="m 665.5,-294.39844 c 0,2.34961 -1.9043,4.25196 -4.25195,4.25196 -2.34766,0 -4.25196,-1.90235 -4.25196,-4.25196 0,-2.34863 1.9043,-4.25146 4.25196,-4.25146 2.34765,0 4.25195,1.90283 4.25195,4.25146 z"
           style="fill:none;stroke:#231f20;stroke-width:1;stroke-linecap:butt;stroke-linejoin:miter;stroke-miterlimit:4;stroke-dasharray:none;stroke-opacity:1"
           id="path142" /><path
           d="m 586.75,-271.95508 c 0,2.34766 -1.9043,4.25195 -4.25195,4.25195 -2.34864,0 -4.25196,-1.90429 -4.25196,-4.25195 0,-2.34961 1.90332,-4.25195 4.25196,-4.25195 2.34765,0 4.25195,1.90234 4.25195,4.25195"
           style="fill:#231f20;fill-opacity:1;fill-rule:nonzero;stroke:none"
           id="path144" /><path
           d="m 586.75,-271.95508 c 0,2.34766 -1.9043,4.25195 -4.25195,4.25195 -2.34864,0 -4.25196,-1.90429 -4.25196,-4.25195 0,-2.34961 1.90332,-4.25195 4.25196,-4.25195 2.34765,0 4.25195,1.90234 4.25195,4.25195 z"
           style="fill:none;stroke:#231f20;stroke-width:1;stroke-linecap:butt;stroke-linejoin:miter;stroke-miterlimit:4;stroke-dasharray:none;stroke-opacity:1"
           id="path146" /><path
           d="m 639.25,-316.83984 c 0,2.34765 -1.90332,4.25195 -4.25195,4.25195 -2.34766,0 -4.25196,-1.9043 -4.25196,-4.25195 0,-2.34912 1.9043,-4.25196 4.25196,-4.25196 2.34863,0 4.25195,1.90284 4.25195,4.25196"
           style="fill:#ffffff;fill-opacity:1;fill-rule:nonzero;stroke:none"
           id="path148" /><path
           d="m 639.25,-316.83984 c 0,2.34765 -1.90332,4.25195 -4.25195,4.25195 -2.34766,0 -4.25196,-1.9043 -4.25196,-4.25195 0,-2.34912 1.9043,-4.25196 4.25196,-4.25196 2.34863,0 4.25195,1.90284 4.25195,4.25196 z"
           style="fill:none;stroke:#231f20;stroke-width:1;stroke-linecap:butt;stroke-linejoin:miter;stroke-miterlimit:4;stroke-dasharray:none;stroke-opacity:1"
           id="path150" /><path
           d="m 644,-272.95508 c 0,2.34766 -1.9043,4.25195 -4.25195,4.25195 -2.34766,0 -4.25196,-1.90429 -4.25196,-4.25195 0,-2.34961 1.9043,-4.25195 4.25196,-4.25195 2.34765,0 4.25195,1.90234 4.25195,4.25195"
           style="fill:#ffffff;fill-opacity:1;fill-rule:nonzero;stroke:none"
           id="path152" /><path
           d="m 644,-272.95508 c 0,2.34766 -1.9043,4.25195 -4.25195,4.25195 -2.34766,0 -4.25196,-1.90429 -4.25196,-4.25195 0,-2.34961 1.9043,-4.25195 4.25196,-4.25195 2.34765,0 4.25195,1.90234 4.25195,4.25195 z"
           style="fill:none;stroke:#231f20;stroke-width:1;stroke-linecap:butt;stroke-linejoin:miter;stroke-miterlimit:4;stroke-dasharray:none;stroke-opacity:1"
           id="path154" /><path
           d="m 562.5,-294.45508 c 0,2.34766 -1.9043,4.25195 -4.25195,4.25195 -2.34766,0 -4.25196,-1.90429 -4.25196,-4.25195 0,-2.34912 1.9043,-4.25293 4.25196,-4.25293 2.34765,0 4.25195,1.90381 4.25195,4.25293"
           style="fill:#ffffff;fill-opacity:1;fill-rule:nonzero;stroke:none"
           id="path156" /><path
           d="m 562.5,-294.45508 c 0,2.34766 -1.9043,4.25195 -4.25195,4.25195 -2.34766,0 -4.25196,-1.90429 -4.25196,-4.25195 0,-2.34912 1.9043,-4.25293 4.25196,-4.25293 2.34765,0 4.25195,1.90381 4.25195,4.25293 z"
           style="fill:none;stroke:#231f20;stroke-width:1;stroke-linecap:butt;stroke-linejoin:miter;stroke-miterlimit:4;stroke-dasharray:none;stroke-opacity:1"
           id="path158" /><path
           d="m 517,-320.95605 c 43,-35 153,-44 184,1"
           style="fill:none;stroke:#231f20;stroke-width:4;stroke-linecap:butt;stroke-linejoin:miter;stroke-miterlimit:4;stroke-dasharray:none;stroke-opacity:1"
           id="path160" /><path
           d="m 557.02637,-333.62598 c 1.87695,11.00684 4.75,21.08106 10.97363,27.66993"
           style="fill:none;stroke:#231f20;stroke-width:4;stroke-linecap:butt;stroke-linejoin:miter;stroke-miterlimit:4;stroke-dasharray:none;stroke-opacity:1"
           id="path162" /><path
           d="m 544,-385.95605 c 6.68848,8.0249 8.80371,21.21679 10.60059,34.96826"
           style="fill:none;stroke:#231f20;stroke-width:4;stroke-linecap:butt;stroke-linejoin:miter;stroke-miterlimit:4;stroke-dasharray:none;stroke-opacity:1"
           id="path164" /><path
           d="m 607.8125,-340.28906 c 0.26758,9.11523 0.65723,17.02685 1.1875,22.33301"
           style="fill:none;stroke:#231f20;stroke-width:4;stroke-linecap:butt;stroke-linejoin:miter;stroke-miterlimit:4;stroke-dasharray:none;stroke-opacity:1"
           id="path166" /><path
           d="m 608,-413.95605 c -0.55273,10.50195 -0.7998,32.61425 -0.57227,53.66992"
           style="fill:none;stroke:#231f20;stroke-width:4;stroke-linecap:butt;stroke-linejoin:miter;stroke-miterlimit:4;stroke-dasharray:none;stroke-opacity:1"
           id="path168" /><path
           d="m 662.55664,-333.20996 c -2.70703,11.2251 -6.78125,21.58984 -14.55664,28.25391"
           style="fill:none;stroke:#231f20;stroke-width:4;stroke-linecap:butt;stroke-linejoin:miter;stroke-miterlimit:4;stroke-dasharray:none;stroke-opacity:1"
           id="path170" /><path
           d="m 676,-383.95605 c -5.31738,6.54394 -7.45605,17.93896 -9.5625,30.354"
           style="fill:none;stroke:#231f20;stroke-width:4;stroke-linecap:butt;stroke-linejoin:miter;stroke-miterlimit:4;stroke-dasharray:none;stroke-opacity:1"
           id="path172" /><path
           d="m 649,-285.95508 c 10,14 9,16 24,33"
           style="fill:none;stroke:#231f20;stroke-width:4;stroke-linecap:butt;stroke-linejoin:miter;stroke-miterlimit:4;stroke-dasharray:none;stroke-opacity:1"
           id="path174" /><path
           d="m 609,-271.95508 c 0,19 -1,26 0,43"
           style="fill:none;stroke:#231f20;stroke-width:4;stroke-linecap:butt;stroke-linejoin:miter;stroke-miterlimit:4;stroke-dasharray:none;stroke-opacity:1"
           id="path176" /><path
           d="m 570,-282.95508 c -9,11 -6,8 -26,27"
           style="fill:none;stroke:#231f20;stroke-width:4;stroke-linecap:butt;stroke-linejoin:miter;stroke-miterlimit:4;stroke-dasharray:none;stroke-opacity:1"
           id="path178" /><g
           id="g180"
           transform="scale(1,-1)"><text
             transform="matrix(1,0,0,-1,359.89648,316.41504)"
             style="font-variant:normal;font-weight:normal;font-size:14px;font-family:Myriad;-inkscape-font-specification:Myriad-Roman;writing-mode:lr-tb;fill:#231f20;fill-opacity:1;fill-rule:nonzero;stroke:none"
             id="text184"><tspan
               x="0 8.3439999"
               y="0"
               sodipodi:role="line"
               id="tspan182">&lt; </tspan></text><text
             transform="matrix(1,0,0,-1,371.20801,316.41504)"
             style="font-variant:normal;font-weight:normal;font-size:14px;font-family:Myriad;-inkscape-font-specification:Myriad-Roman;writing-mode:lr-tb;fill:#231f20;fill-opacity:1;fill-rule:nonzero;stroke:none"
             id="text188"><tspan
               x="0"
               y="0"
               id="tspan186">r</tspan></text><text
             transform="matrix(1,0,0,-1,375.71631,316.41504)"
             style="font-variant:normal;font-weight:normal;font-size:14px;font-family:Myriad;-inkscape-font-specification:Myriad-Roman;writing-mode:lr-tb;fill:#231f20;fill-opacity:1;fill-rule:nonzero;stroke:none"
             id="text192"><tspan
               x="0"
               y="0"
               id="tspan190">e</tspan></text><text
             transform="matrix(1,0,0,-1,382.72998,316.41504)"
             style="font-variant:normal;font-weight:normal;font-size:14px;font-family:Myriad;-inkscape-font-specification:Myriad-Roman;writing-mode:lr-tb;fill:#231f20;fill-opacity:1;fill-rule:nonzero;stroke:none"
             id="text196"><tspan
               x="0 4.5640001 12.25"
               y="0"
               sodipodi:role="line"
               id="tspan194">tou</tspan></text><text
             transform="matrix(1,0,0,-1,402.69385,316.41504)"
             style="font-variant:normal;font-weight:normal;font-size:14px;font-family:Myriad;-inkscape-font-specification:Myriad-Roman;writing-mode:lr-tb;fill:#231f20;fill-opacity:1;fill-rule:nonzero;stroke:none"
             id="text200"><tspan
               x="0 4.6337199 12.40372 19.417721 31.093719"
               y="0"
               sodipodi:role="line"
               id="tspan198">rneme</tspan></text><text
             transform="matrix(1,0,0,-1,440.80176,316.41504)"
             style="font-variant:normal;font-weight:normal;font-size:14px;font-family:Myriad;-inkscape-font-specification:Myriad-Roman;writing-mode:lr-tb;fill:#231f20;fill-opacity:1;fill-rule:nonzero;stroke:none"
             id="text204"><tspan
               x="0 7.7275801 12.36158 15.32958"
               y="0"
               sodipodi:role="line"
               id="tspan202">nt &gt;</tspan></text></g></g></g></g></svg>
