<?xml version="1.0" encoding="UTF-8" standalone="no"?>
<svg
   xmlns:dc="http://purl.org/dc/elements/1.1/"
   xmlns:cc="http://creativecommons.org/ns#"
   xmlns:rdf="http://www.w3.org/1999/02/22-rdf-syntax-ns#"
   xmlns:svg="http://www.w3.org/2000/svg"
   xmlns="http://www.w3.org/2000/svg"
   xmlns:sodipodi="http://sodipodi.sourceforge.net/DTD/sodipodi-0.dtd"
   xmlns:inkscape="http://www.inkscape.org/namespaces/inkscape"
   version="1.1"
   id="svg2"
   xml:space="preserve"
   width="665.33331"
   height="278.66599"
   viewBox="0 0 665.33331 278.66598"
   sodipodi:docname="retournement.svg"
   inkscape:version="1.0.2-2 (e86c870879, 2021-01-15)"><metadata
     id="metadata8"><rdf:RDF><cc:Work
         rdf:about=""><dc:format>image/svg+xml</dc:format><dc:type
           rdf:resource="http://purl.org/dc/dcmitype/StillImage" /><dc:title></dc:title></cc:Work></rdf:RDF></metadata><defs
     id="defs6"><clipPath
       clipPathUnits="userSpaceOnUse"
       id="clipPath26"><path
         d="M 0,841.89 H 595.276 V 0 H 0 Z"
         id="path24"
         inkscape:connector-curvature="0" /></clipPath></defs><sodipodi:namedview
     pagecolor="#ffffff"
     bordercolor="#666666"
     borderopacity="1"
     objecttolerance="10"
     gridtolerance="10"
     guidetolerance="10"
     inkscape:pageopacity="0"
     inkscape:pageshadow="2"
     inkscape:window-width="1920"
     inkscape:window-height="1001"
     id="namedview4"
     showgrid="false"
     inkscape:zoom="0.73817657"
     inkscape:cx="77.761039"
     inkscape:cy="30.168838"
     inkscape:window-x="-9"
     inkscape:window-y="-9"
     inkscape:window-maximized="1"
     inkscape:current-layer="g10"
     inkscape:document-rotation="0"
     lock-margins="true"
     fit-margin-top="10"
     fit-margin-left="10"
     fit-margin-right="10"
     fit-margin-bottom="10" /><g
     id="g10"
     inkscape:groupmode="layer"
     inkscape:label="retournement"
     transform="matrix(1.3333333,0,0,-1.3333333,-65.333331,699.80398)"><g
   id="g5072"><g
     transform="translate(215.4521,373.8535)"
     id="g12"><path
       inkscape:connector-curvature="0"
       id="path14"
       style="fill:#ffffff;fill-opacity:1;fill-rule:nonzero;stroke:none"
       d="M 0,0 -76.952,-46.5 -153.904,0 V 93 L -76.952,139.5 0,93 Z" /></g><g
     transform="translate(215.4521,373.8535)"
     id="g16"><path
       inkscape:connector-curvature="0"
       id="path18"
       style="fill:none;stroke:#1a171b;stroke-width:1;stroke-linecap:butt;stroke-linejoin:miter;stroke-miterlimit:4;stroke-dasharray:none;stroke-opacity:1"
       d="M 0,0 -76.952,-46.5 -153.904,0 V 93 L -76.952,139.5 0,93 Z" /></g><g
     transform="translate(66,466.853)"
     id="g28"><path
       inkscape:connector-curvature="0"
       id="path30"
       style="fill:#ffffff;fill-opacity:1;fill-rule:nonzero;stroke:none"
       d="M 0,0 C 0,-2.761 -2.015,-5 -4.5,-5 -6.985,-5 -9,-2.761 -9,0 -9,2.761 -6.985,5 -4.5,5 -2.015,5 0,2.761 0,0" /></g><g
     transform="translate(66,466.853)"
     id="g32"><path
       inkscape:connector-curvature="0"
       id="path34"
       style="fill:none;stroke:#1a171b;stroke-width:1;stroke-linecap:butt;stroke-linejoin:miter;stroke-miterlimit:4;stroke-dasharray:none;stroke-opacity:1"
       d="M 0,0 C 0,-2.761 -2.015,-5 -4.5,-5 -6.985,-5 -9,-2.761 -9,0 -9,2.761 -6.985,5 -4.5,5 -2.015,5 0,2.761 0,0 Z" /></g><g
     transform="translate(218,467.853)"
     id="g36"><path
       inkscape:connector-curvature="0"
       id="path38"
       style="fill:#ffffff;fill-opacity:1;fill-rule:nonzero;stroke:none"
       d="M 0,0 C 0,-2.762 -2.015,-5 -4.5,-5 -6.985,-5 -9,-2.762 -9,0 -9,2.761 -6.985,5 -4.5,5 -2.015,5 0,2.761 0,0" /></g><g
     transform="translate(218,467.853)"
     id="g40"><path
       inkscape:connector-curvature="0"
       id="path42"
       style="fill:none;stroke:#1a171b;stroke-width:1;stroke-linecap:butt;stroke-linejoin:miter;stroke-miterlimit:4;stroke-dasharray:none;stroke-opacity:1"
       d="M 0,0 C 0,-2.762 -2.015,-5 -4.5,-5 -6.985,-5 -9,-2.762 -9,0 -9,2.761 -6.985,5 -4.5,5 -2.015,5 0,2.761 0,0 Z" /></g><g
     transform="translate(141,328.8535)"
     id="g44"><path
       inkscape:connector-curvature="0"
       id="path46"
       style="fill:#ffffff;fill-opacity:1;fill-rule:nonzero;stroke:none"
       d="M 0,0 C 0,-2.762 -2.015,-5 -4.5,-5 -6.985,-5 -9,-2.762 -9,0 -9,2.762 -6.985,5 -4.5,5 -2.015,5 0,2.762 0,0" /></g><g
     transform="translate(141,328.8535)"
     id="g48"><path
       inkscape:connector-curvature="0"
       id="path50"
       style="fill:none;stroke:#1a171b;stroke-width:1;stroke-linecap:butt;stroke-linejoin:miter;stroke-miterlimit:4;stroke-dasharray:none;stroke-opacity:1"
       d="M 0,0 C 0,-2.762 -2.015,-5 -4.5,-5 -6.985,-5 -9,-2.762 -9,0 -9,2.762 -6.985,5 -4.5,5 -2.015,5 0,2.762 0,0 Z" /></g><g
     transform="translate(220,374.8535)"
     id="g52"><path
       inkscape:connector-curvature="0"
       id="path54"
       style="fill:#1a171b;fill-opacity:1;fill-rule:nonzero;stroke:none"
       d="M 0,0 C 0,-2.762 -2.015,-5 -4.5,-5 -6.985,-5 -9,-2.762 -9,0 -9,2.761 -6.985,5 -4.5,5 -2.015,5 0,2.761 0,0" /></g><g
     transform="translate(220,374.8535)"
     id="g56"><path
       inkscape:connector-curvature="0"
       id="path58"
       style="fill:none;stroke:#1a171b;stroke-width:1;stroke-linecap:butt;stroke-linejoin:miter;stroke-miterlimit:4;stroke-dasharray:none;stroke-opacity:1"
       d="M 0,0 C 0,-2.762 -2.015,-5 -4.5,-5 -6.985,-5 -9,-2.762 -9,0 -9,2.761 -6.985,5 -4.5,5 -2.015,5 0,2.761 0,0 Z" /></g><g
     transform="translate(142,511.853)"
     id="g60"><path
       inkscape:connector-curvature="0"
       id="path62"
       style="fill:#1a171b;fill-opacity:1;fill-rule:nonzero;stroke:none"
       d="M 0,0 C 0,-2.762 -2.015,-5 -4.5,-5 -6.985,-5 -9,-2.762 -9,0 -9,2.761 -6.985,5 -4.5,5 -2.015,5 0,2.761 0,0" /></g><g
     transform="translate(142,511.853)"
     id="g64"><path
       inkscape:connector-curvature="0"
       id="path66"
       style="fill:none;stroke:#1a171b;stroke-width:1;stroke-linecap:butt;stroke-linejoin:miter;stroke-miterlimit:4;stroke-dasharray:none;stroke-opacity:1"
       d="M 0,0 C 0,-2.762 -2.015,-5 -4.5,-5 -6.985,-5 -9,-2.762 -9,0 -9,2.761 -6.985,5 -4.5,5 -2.015,5 0,2.761 0,0 Z" /></g><g
     transform="translate(67,373.8535)"
     id="g68"><path
       inkscape:connector-curvature="0"
       id="path70"
       style="fill:#1a171b;fill-opacity:1;fill-rule:nonzero;stroke:none"
       d="M 0,0 C 0,-2.762 -2.015,-5 -4.5,-5 -6.985,-5 -9,-2.762 -9,0 -9,2.761 -6.985,5 -4.5,5 -2.015,5 0,2.761 0,0" /></g><g
     transform="translate(67,373.8535)"
     id="g72"><path
       inkscape:connector-curvature="0"
       id="path74"
       style="fill:none;stroke:#1a171b;stroke-width:1;stroke-linecap:butt;stroke-linejoin:miter;stroke-miterlimit:4;stroke-dasharray:none;stroke-opacity:1"
       d="M 0,0 C 0,-2.762 -2.015,-5 -4.5,-5 -6.985,-5 -9,-2.762 -9,0 -9,2.761 -6.985,5 -4.5,5 -2.015,5 0,2.761 0,0 Z" /></g><g
     transform="translate(173.9004,435.7534)"
     id="g76"><path
       inkscape:connector-curvature="0"
       id="path78"
       style="fill:#ffffff;fill-opacity:1;fill-rule:nonzero;stroke:none"
       d="M 0,0 -32,-32 -64,0 -32,32 Z" /></g><g
     transform="translate(173.9004,435.7534)"
     id="g80"><path
       inkscape:connector-curvature="0"
       id="path82"
       style="fill:none;stroke:#1a171b;stroke-width:1;stroke-linecap:butt;stroke-linejoin:miter;stroke-miterlimit:4;stroke-dasharray:none;stroke-opacity:1"
       d="M 0,0 -32,-32 -64,0 -32,32 Z" /></g><g
     transform="translate(141.0996,470.1528)"
     id="g84"><path
       inkscape:connector-curvature="0"
       id="path86"
       style="fill:#1a171b;fill-opacity:1;fill-rule:nonzero;stroke:none"
       d="m 0,0 c 2.21,0 4,-1.611 4,-3.6 0,-1.988 -1.79,-3.6 -4,-3.6 -2.209,0 -4,1.612 -4,3.6 0,1.989 1.791,3.6 4,3.6" /></g><g
     transform="translate(141.0996,470.1528)"
     id="g88"><path
       inkscape:connector-curvature="0"
       id="path90"
       style="fill:none;stroke:#1a171b;stroke-width:1;stroke-linecap:butt;stroke-linejoin:miter;stroke-miterlimit:4;stroke-dasharray:none;stroke-opacity:1"
       d="m 0,0 c 2.21,0 4,-1.611 4,-3.6 0,-1.988 -1.79,-3.6 -4,-3.6 -2.209,0 -4,1.612 -4,3.6 0,1.989 1.791,3.6 4,3.6 z" /></g><g
     transform="translate(141.9004,407.7529)"
     id="g92"><path
       inkscape:connector-curvature="0"
       id="path94"
       style="fill:#1a171b;fill-opacity:1;fill-rule:nonzero;stroke:none"
       d="M 0,0 C 2.209,0 4,-1.612 4,-3.601 4,-5.589 2.209,-7.2 0,-7.2 c -2.21,0 -4,1.611 -4,3.599 C -4,-1.612 -2.21,0 0,0" /></g><g
     transform="translate(141.9004,407.7529)"
     id="g96"><path
       inkscape:connector-curvature="0"
       id="path98"
       style="fill:none;stroke:#1a171b;stroke-width:1;stroke-linecap:butt;stroke-linejoin:miter;stroke-miterlimit:4;stroke-dasharray:none;stroke-opacity:1"
       d="M 0,0 C 2.209,0 4,-1.612 4,-3.601 4,-5.589 2.209,-7.2 0,-7.2 c -2.21,0 -4,1.611 -4,3.599 C -4,-1.612 -2.21,0 0,0 Z" /></g><g
     transform="translate(110.7002,438.9526)"
     id="g100"><path
       inkscape:connector-curvature="0"
       id="path102"
       style="fill:#ffffff;fill-opacity:1;fill-rule:nonzero;stroke:none"
       d="m 0,0 c 2.209,0 4,-1.611 4,-3.6 0,-1.988 -1.791,-3.6 -4,-3.6 -2.209,0 -4,1.612 -4,3.6 0,1.989 1.791,3.6 4,3.6" /></g><g
     transform="translate(110.7002,438.9526)"
     id="g104"><path
       inkscape:connector-curvature="0"
       id="path106"
       style="fill:none;stroke:#1a171b;stroke-width:1;stroke-linecap:butt;stroke-linejoin:miter;stroke-miterlimit:4;stroke-dasharray:none;stroke-opacity:1"
       d="m 0,0 c 2.209,0 4,-1.611 4,-3.6 0,-1.988 -1.791,-3.6 -4,-3.6 -2.209,0 -4,1.612 -4,3.6 0,1.989 1.791,3.6 4,3.6 z" /></g><g
     transform="translate(172.2998,438.9526)"
     id="g108"><path
       inkscape:connector-curvature="0"
       id="path110"
       style="fill:#ffffff;fill-opacity:1;fill-rule:nonzero;stroke:none"
       d="m 0,0 c 2.21,0 4,-1.611 4,-3.6 0,-1.988 -1.79,-3.6 -4,-3.6 -2.209,0 -4,1.612 -4,3.6 0,1.989 1.791,3.6 4,3.6" /></g><g
     transform="translate(172.2998,438.9526)"
     id="g112"><path
       inkscape:connector-curvature="0"
       id="path114"
       style="fill:none;stroke:#1a171b;stroke-width:1;stroke-linecap:butt;stroke-linejoin:miter;stroke-miterlimit:4;stroke-dasharray:none;stroke-opacity:1"
       d="m 0,0 c 2.21,0 4,-1.611 4,-3.6 0,-1.988 -1.79,-3.6 -4,-3.6 -2.209,0 -4,1.612 -4,3.6 0,1.989 1.791,3.6 4,3.6 z" /></g><g
     transform="translate(101,490.853)"
     id="g116"><path
       inkscape:connector-curvature="0"
       id="path118"
       style="fill:none;stroke:#1a171b;stroke-width:3;stroke-linecap:butt;stroke-linejoin:miter;stroke-miterlimit:4;stroke-dasharray:none;stroke-opacity:1"
       d="M 0,0 C 5,-12 16,-33 22,-42" /></g><g
     transform="translate(177,489.853)"
     id="g120"><path
       inkscape:connector-curvature="0"
       id="path122"
       style="fill:none;stroke:#1a171b;stroke-width:3;stroke-linecap:butt;stroke-linejoin:miter;stroke-miterlimit:4;stroke-dasharray:none;stroke-opacity:1"
       d="M 0,0 C -5,-10 -11,-28 -18,-39" /></g><g
     transform="translate(106.1914,373.2773)"
     id="g124"><path
       inkscape:connector-curvature="0"
       id="path126"
       style="fill:none;stroke:#1a171b;stroke-width:3;stroke-linecap:butt;stroke-linejoin:miter;stroke-miterlimit:4;stroke-dasharray:none;stroke-opacity:1"
       d="M 0,0 C -3.057,-8.441 -5.894,-16.172 -8.191,-21.424" /></g><g
     transform="translate(124,420.853)"
     id="g128"><path
       inkscape:connector-curvature="0"
       id="path130"
       style="fill:none;stroke:#1a171b;stroke-width:3;stroke-linecap:butt;stroke-linejoin:miter;stroke-miterlimit:4;stroke-dasharray:none;stroke-opacity:1"
       d="M 0,0 C -4.492,-4.942 -7.266,-18.902 -11.792,-31.072" /></g><g
     transform="translate(170.6104,378.374)"
     id="g132"><path
       inkscape:connector-curvature="0"
       id="path134"
       style="fill:none;stroke:#1a171b;stroke-width:3;stroke-linecap:butt;stroke-linejoin:miter;stroke-miterlimit:4;stroke-dasharray:none;stroke-opacity:1"
       d="M 0,0 C 2.227,-9.71 4.79,-19.041 8.39,-25.521" /></g><g
     transform="translate(158,419.8525)"
     id="g136"><path
       inkscape:connector-curvature="0"
       id="path138"
       style="fill:none;stroke:#1a171b;stroke-width:3;stroke-linecap:butt;stroke-linejoin:miter;stroke-miterlimit:4;stroke-dasharray:none;stroke-opacity:1"
       d="M 0,0 C 3.762,-3.762 6.301,-12.938 8.712,-23.661" /></g><g
     transform="translate(61,419.8525)"
     id="g140"><path
       inkscape:connector-curvature="0"
       id="path142"
       style="fill:none;stroke:#1a171b;stroke-width:3;stroke-linecap:butt;stroke-linejoin:miter;stroke-miterlimit:4;stroke-dasharray:none;stroke-opacity:1"
       d="M 0,0 C 16,-1 52,-50.999 75,-49.999 98,-48.999 131,-3 154,0" /></g></g><text
   transform="scale(1,-1)"
   style="font-variant:normal;font-weight:normal;font-stretch:normal;font-size:14px;font-family:Arial;-inkscape-font-specification:ArialMT;writing-mode:lr-tb;fill:#1a171b;fill-opacity:1;fill-rule:nonzero;stroke:none"
   id="text146"
   x="248.6899"
   y="-415.62601"><tspan
     x="248.6899 256.86591 261.52789 269.31189 273.20389 280.98792 288.77191 293.4339 301.2179 309.00189 320.66391 328.44791 336.2319 340.1239"
     y="-415.62601"
     sodipodi:role="line"
     id="tspan144">&lt;retournement&gt;</tspan></text>
<g
   id="g16966"><g
     id="g148"
     transform="translate(381.5479,466.853)"><path
       d="M 0,0 76.952,46.5 153.904,0 V -93 L 76.952,-139.5 0,-93 Z"
       style="fill:#ffffff;fill-opacity:1;fill-rule:nonzero;stroke:none"
       id="path150"
       inkscape:connector-curvature="0" /></g><g
     id="g152"
     transform="translate(381.5479,466.853)"><path
       d="M 0,0 76.952,46.5 153.904,0 V -93 L 76.952,-139.5 0,-93 Z"
       style="fill:none;stroke:#1a171b;stroke-width:1;stroke-linecap:butt;stroke-linejoin:miter;stroke-miterlimit:4;stroke-dasharray:none;stroke-opacity:1"
       id="path154"
       inkscape:connector-curvature="0" /></g><g
     id="g156"
     transform="translate(531,373.8535)"><path
       d="M 0,0 C 0,2.762 2.015,5 4.5,5 6.985,5 9,2.762 9,0 9,-2.762 6.985,-5 4.5,-5 2.015,-5 0,-2.762 0,0"
       style="fill:#1a171b;fill-opacity:1;fill-rule:nonzero;stroke:none"
       id="path158"
       inkscape:connector-curvature="0" /></g><g
     id="g160"
     transform="translate(531,373.8535)"><path
       d="M 0,0 C 0,2.762 2.015,5 4.5,5 6.985,5 9,2.762 9,0 9,-2.762 6.985,-5 4.5,-5 2.015,-5 0,-2.762 0,0 Z"
       style="fill:none;stroke:#1a171b;stroke-width:1;stroke-linecap:butt;stroke-linejoin:miter;stroke-miterlimit:4;stroke-dasharray:none;stroke-opacity:1"
       id="path162"
       inkscape:connector-curvature="0" /></g><g
     id="g164"
     transform="translate(379,372.8535)"><path
       d="M 0,0 C 0,2.762 2.015,5 4.5,5 6.985,5 9,2.762 9,0 9,-2.762 6.985,-5 4.5,-5 2.015,-5 0,-2.762 0,0"
       style="fill:#1a171b;fill-opacity:1;fill-rule:nonzero;stroke:none"
       id="path166"
       inkscape:connector-curvature="0" /></g><g
     id="g168"
     transform="translate(379,372.8535)"><path
       d="M 0,0 C 0,2.762 2.015,5 4.5,5 6.985,5 9,2.762 9,0 9,-2.762 6.985,-5 4.5,-5 2.015,-5 0,-2.762 0,0 Z"
       style="fill:none;stroke:#1a171b;stroke-width:1;stroke-linecap:butt;stroke-linejoin:miter;stroke-miterlimit:4;stroke-dasharray:none;stroke-opacity:1"
       id="path170"
       inkscape:connector-curvature="0" /></g><g
     id="g172"
     transform="translate(456,511.853)"><path
       d="M 0,0 C 0,2.762 2.015,5 4.5,5 6.985,5 9,2.762 9,0 9,-2.762 6.985,-5 4.5,-5 2.015,-5 0,-2.762 0,0"
       style="fill:#1a171b;fill-opacity:1;fill-rule:nonzero;stroke:none"
       id="path174"
       inkscape:connector-curvature="0" /></g><g
     id="g176"
     transform="translate(456,511.853)"><path
       d="M 0,0 C 0,2.762 2.015,5 4.5,5 6.985,5 9,2.762 9,0 9,-2.762 6.985,-5 4.5,-5 2.015,-5 0,-2.762 0,0 Z"
       style="fill:none;stroke:#1a171b;stroke-width:1;stroke-linecap:butt;stroke-linejoin:miter;stroke-miterlimit:4;stroke-dasharray:none;stroke-opacity:1"
       id="path178"
       inkscape:connector-curvature="0" /></g><g
     id="g180"
     transform="translate(377,465.853)"><path
       d="M 0,0 C 0,2.762 2.015,5 4.5,5 6.985,5 9,2.762 9,0 9,-2.762 6.985,-5 4.5,-5 2.015,-5 0,-2.762 0,0"
       style="fill:#ffffff;fill-opacity:1;fill-rule:nonzero;stroke:none"
       id="path182"
       inkscape:connector-curvature="0" /></g><g
     id="g184"
     transform="translate(377,465.853)"><path
       d="M 0,0 C 0,2.762 2.015,5 4.5,5 6.985,5 9,2.762 9,0 9,-2.762 6.985,-5 4.5,-5 2.015,-5 0,-2.762 0,0 Z"
       style="fill:none;stroke:#1a171b;stroke-width:1;stroke-linecap:butt;stroke-linejoin:miter;stroke-miterlimit:4;stroke-dasharray:none;stroke-opacity:1"
       id="path186"
       inkscape:connector-curvature="0" /></g><g
     id="g188"
     transform="translate(455,328.8535)"><path
       d="M 0,0 C 0,2.762 2.015,5 4.5,5 6.985,5 9,2.762 9,0 9,-2.762 6.985,-5 4.5,-5 2.015,-5 0,-2.762 0,0"
       style="fill:#ffffff;fill-opacity:1;fill-rule:nonzero;stroke:none"
       id="path190"
       inkscape:connector-curvature="0" /></g><g
     id="g192"
     transform="translate(455,328.8535)"><path
       d="M 0,0 C 0,2.762 2.015,5 4.5,5 6.985,5 9,2.762 9,0 9,-2.762 6.985,-5 4.5,-5 2.015,-5 0,-2.762 0,0 Z"
       style="fill:none;stroke:#1a171b;stroke-width:1;stroke-linecap:butt;stroke-linejoin:miter;stroke-miterlimit:4;stroke-dasharray:none;stroke-opacity:1"
       id="path194"
       inkscape:connector-curvature="0" /></g><g
     id="g196"
     transform="translate(530,466.853)"><path
       d="M 0,0 C 0,2.762 2.015,5 4.5,5 6.985,5 9,2.762 9,0 9,-2.762 6.985,-5 4.5,-5 2.015,-5 0,-2.762 0,0"
       style="fill:#ffffff;fill-opacity:1;fill-rule:nonzero;stroke:none"
       id="path198"
       inkscape:connector-curvature="0" /></g><g
     id="g200"
     transform="translate(530,466.853)"><path
       d="M 0,0 C 0,2.762 2.015,5 4.5,5 6.985,5 9,2.762 9,0 9,-2.762 6.985,-5 4.5,-5 2.015,-5 0,-2.762 0,0 Z"
       style="fill:none;stroke:#1a171b;stroke-width:1;stroke-linecap:butt;stroke-linejoin:miter;stroke-miterlimit:4;stroke-dasharray:none;stroke-opacity:1"
       id="path202"
       inkscape:connector-curvature="0" /></g><g
     id="g204"
     transform="translate(423.0996,404.9531)"><path
       d="M 0,0 32,32 64,0 32,-32 Z"
       style="fill:#ffffff;fill-opacity:1;fill-rule:nonzero;stroke:none"
       id="path206"
       inkscape:connector-curvature="0" /></g><g
     id="g208"
     transform="translate(423.0996,404.9531)"><path
       d="M 0,0 32,32 64,0 32,-32 Z"
       style="fill:none;stroke:#1a171b;stroke-width:1;stroke-linecap:butt;stroke-linejoin:miter;stroke-miterlimit:4;stroke-dasharray:none;stroke-opacity:1"
       id="path210"
       inkscape:connector-curvature="0" /></g><g
     id="g212"
     transform="translate(455.9004,370.5527)"><path
       d="M 0,0 C -2.21,0 -4,1.611 -4,3.6 -4,5.588 -2.21,7.201 0,7.201 2.209,7.201 4,5.588 4,3.6 4,1.611 2.209,0 0,0"
       style="fill:#ffffff;fill-opacity:1;fill-rule:nonzero;stroke:none"
       id="path214"
       inkscape:connector-curvature="0" /></g><g
     id="g216"
     transform="translate(455.9004,370.5527)"><path
       d="M 0,0 C -2.21,0 -4,1.611 -4,3.6 -4,5.588 -2.21,7.201 0,7.201 2.209,7.201 4,5.588 4,3.6 4,1.611 2.209,0 0,0 Z"
       style="fill:none;stroke:#1a171b;stroke-width:1;stroke-linecap:butt;stroke-linejoin:miter;stroke-miterlimit:4;stroke-dasharray:none;stroke-opacity:1"
       id="path218"
       inkscape:connector-curvature="0" /></g><g
     id="g220"
     transform="translate(455.0996,432.9526)"><path
       d="M 0,0 C -2.209,0 -4,1.612 -4,3.601 -4,5.589 -2.209,7.2 0,7.2 2.21,7.2 4,5.589 4,3.601 4,1.612 2.21,0 0,0"
       style="fill:#ffffff;fill-opacity:1;fill-rule:nonzero;stroke:none"
       id="path222"
       inkscape:connector-curvature="0" /></g><g
     id="g224"
     transform="translate(455.0996,432.9526)"><path
       d="M 0,0 C -2.209,0 -4,1.612 -4,3.601 -4,5.589 -2.209,7.2 0,7.2 2.21,7.2 4,5.589 4,3.601 4,1.612 2.21,0 0,0 Z"
       style="fill:none;stroke:#1a171b;stroke-width:1;stroke-linecap:butt;stroke-linejoin:miter;stroke-miterlimit:4;stroke-dasharray:none;stroke-opacity:1"
       id="path226"
       inkscape:connector-curvature="0" /></g><g
     id="g228"
     transform="translate(486.2998,401.7539)"><path
       d="M 0,0 C -2.209,0 -4,1.611 -4,3.6 -4,5.588 -2.209,7.199 0,7.199 2.21,7.199 4,5.588 4,3.6 4,1.611 2.21,0 0,0"
       style="fill:#1a171b;fill-opacity:1;fill-rule:nonzero;stroke:none"
       id="path230"
       inkscape:connector-curvature="0" /></g><g
     id="g232"
     transform="translate(486.2998,401.7539)"><path
       d="M 0,0 C -2.209,0 -4,1.611 -4,3.6 -4,5.588 -2.209,7.199 0,7.199 2.21,7.199 4,5.588 4,3.6 4,1.611 2.21,0 0,0 Z"
       style="fill:none;stroke:#1a171b;stroke-width:1;stroke-linecap:butt;stroke-linejoin:miter;stroke-miterlimit:4;stroke-dasharray:none;stroke-opacity:1"
       id="path234"
       inkscape:connector-curvature="0" /></g><g
     id="g236"
     transform="translate(424.7002,401.7539)"><path
       d="M 0,0 C -2.21,0 -4,1.611 -4,3.6 -4,5.588 -2.21,7.199 0,7.199 2.209,7.199 4,5.588 4,3.6 4,1.611 2.209,0 0,0"
       style="fill:#1a171b;fill-opacity:1;fill-rule:nonzero;stroke:none"
       id="path238"
       inkscape:connector-curvature="0" /></g><g
     id="g240"
     transform="translate(424.7002,401.7539)"><path
       d="M 0,0 C -2.21,0 -4,1.611 -4,3.6 -4,5.588 -2.21,7.199 0,7.199 2.209,7.199 4,5.588 4,3.6 4,1.611 2.209,0 0,0 Z"
       style="fill:none;stroke:#1a171b;stroke-width:1;stroke-linecap:butt;stroke-linejoin:miter;stroke-miterlimit:4;stroke-dasharray:none;stroke-opacity:1"
       id="path242"
       inkscape:connector-curvature="0" /></g><g
     id="g244"
     transform="translate(496,349.8535)"><path
       d="M 0,0 C -5,12 -16,33 -22,42"
       style="fill:none;stroke:#1a171b;stroke-width:3;stroke-linecap:butt;stroke-linejoin:miter;stroke-miterlimit:4;stroke-dasharray:none;stroke-opacity:1"
       id="path246"
       inkscape:connector-curvature="0" /></g><g
     id="g248"
     transform="translate(420,350.8535)"><path
       d="M 0,0 C 5,10 11,28 18,39"
       style="fill:none;stroke:#1a171b;stroke-width:3;stroke-linecap:butt;stroke-linejoin:miter;stroke-miterlimit:4;stroke-dasharray:none;stroke-opacity:1"
       id="path250"
       inkscape:connector-curvature="0" /></g><g
     id="g252"
     transform="translate(490.8086,467.4292)"><path
       d="M 0,0 C 3.057,8.44 5.894,16.172 8.191,21.424"
       style="fill:none;stroke:#1a171b;stroke-width:3;stroke-linecap:butt;stroke-linejoin:miter;stroke-miterlimit:4;stroke-dasharray:none;stroke-opacity:1"
       id="path254"
       inkscape:connector-curvature="0" /></g><g
     id="g256"
     transform="translate(473,419.8525)"><path
       d="M 0,0 C 4.492,4.942 7.266,18.903 11.793,31.073"
       style="fill:none;stroke:#1a171b;stroke-width:3;stroke-linecap:butt;stroke-linejoin:miter;stroke-miterlimit:4;stroke-dasharray:none;stroke-opacity:1"
       id="path258"
       inkscape:connector-curvature="0" /></g><g
     id="g260"
     transform="translate(426.3896,462.3315)"><path
       d="M 0,0 C -2.227,9.71 -4.79,19.041 -8.39,25.521"
       style="fill:none;stroke:#1a171b;stroke-width:3;stroke-linecap:butt;stroke-linejoin:miter;stroke-miterlimit:4;stroke-dasharray:none;stroke-opacity:1"
       id="path262"
       inkscape:connector-curvature="0" /></g><g
     id="g264"
     transform="translate(439,420.853)"><path
       d="M 0,0 C -3.762,3.762 -6.301,12.939 -8.712,23.662"
       style="fill:none;stroke:#1a171b;stroke-width:3;stroke-linecap:butt;stroke-linejoin:miter;stroke-miterlimit:4;stroke-dasharray:none;stroke-opacity:1"
       id="path266"
       inkscape:connector-curvature="0" /></g><g
     id="g268"
     transform="translate(536,420.853)"><path
       d="M 0,0 C -16,1 -52,51 -75,50 -98,49 -131,3 -154,0"
       style="fill:none;stroke:#1a171b;stroke-width:3;stroke-linecap:butt;stroke-linejoin:miter;stroke-miterlimit:4;stroke-dasharray:none;stroke-opacity:1"
       id="path270"
       inkscape:connector-curvature="0" /></g></g></g></svg>
