<?xml version="1.0" encoding="UTF-8" standalone="no"?>
<svg
   xmlns:dc="http://purl.org/dc/elements/1.1/"
   xmlns:cc="http://creativecommons.org/ns#"
   xmlns:rdf="http://www.w3.org/1999/02/22-rdf-syntax-ns#"
   xmlns:svg="http://www.w3.org/2000/svg"
   xmlns="http://www.w3.org/2000/svg"
   xmlns:sodipodi="http://sodipodi.sourceforge.net/DTD/sodipodi-0.dtd"
   xmlns:inkscape="http://www.inkscape.org/namespaces/inkscape"
   width="594mm"
   height="420mm"
   viewBox="0 0 594 420"
   version="1.1"
   id="nuemeta9"
   inkscape:version="1.0.2-2 (e86c870879, 2021-01-15)"
   sodipodi:docname="9metaboles.svg">
  
  
  <g>
    <g
       id="14">
      <g
         id="g6543"
         transform="matrix(0.19751792,0.16644701,0.16644701,-0.19751792,231.80726,35.581432)">
        <path
           d="m 0,0 c 2.7,-2.9 4.24,-14.41 -0.28,-18.5 -6.4,-5.77 -16.51,-0.69 -19.18,-6.29 -2.26,-4.75 11.64,-12.6 17,-12.35 21.33,1 27.66,11.68 30,23.35 2.78,13.92 -2.34,33 -17.24,35.07 -20.21,2.82 -16.74,-23.59 -31.43,-26.07 -15.97,-2.73 -11,23 -27.67,23 -16.64,0 -18.17,-16.25 -15.17,-26 3.06,-9.94 10.95,-16.06 21.84,-14 15.61,2.96 6.62,14.94 14.33,23.65 9.61,10.85 24.98,-11.42 22.67,-28 -1.49,-10.73 -19.33,-25.32 -32.33,-19.32 -20.21,9.32 -11.7,64.46 4.53,80.59 8.51,8.47 27.5,7.29 34.8,-1.92 C 6.68,27.13 5.61,17.23 3.15,13.98 -0.89,8.63 -13.02,17.36 -12.13,12.42 -11.25,7.5 -2.82,3.05 0,0 Z"
           style="fill:none;stroke:#1a171b;stroke-width:3;stroke-linecap:round;stroke-linejoin:round;stroke-miterlimit:4;stroke-dasharray:none;stroke-opacity:1"
           id="path6545"
           />
      </g>
      <g
         id="g2373"
         transform="rotate(45.16379,13.555712,704.17957)">
        <g
           transform="matrix(0.35277777,0,0,-0.35277777,-611.70062,564.19514)"
           id="g8633">
          <g
             style="opacity:0.399994"
             id="g8631"
             clip-path="url(#clipPath8625)">
            <g
               id="g8629"
               transform="translate(892.1855,1357.4629)">
              <path
      
                 id="path8627"
                 style="fill:#ffffff;fill-opacity:1;fill-rule:nonzero;stroke:none"
                 d="M 0,0 32.459,32.74 65.197,0.281 32.738,-32.457 Z" />
            </g>
          </g>
        </g>
        <path

           id="path8637"
           style="fill:none;stroke:#162983;stroke-width:0.529167;stroke-linecap:butt;stroke-linejoin:miter;stroke-miterlimit:4;stroke-dasharray:none;stroke-opacity:1"
           d="m -286.40368,73.696419 11.5129,11.30759 -10.54629,11.42047" />
        <path

           id="path8641"
           style="fill:none;stroke:#162983;stroke-width:0.529167;stroke-linecap:butt;stroke-linejoin:miter;stroke-miterlimit:4;stroke-dasharray:none;stroke-opacity:1"
           d="m -285.47972,96.382359 -11.70093,-10.75231 10.77701,-11.93377" />
        <path

           id="path8645"
           style="fill:none;stroke:#162983;stroke-width:0.529167;stroke-linecap:butt;stroke-linejoin:miter;stroke-miterlimit:4;stroke-dasharray:none;stroke-opacity:1"
           d="m -286.31619,94.952659 10.57769,-10.85356" />
        <path

           id="path8649"
           style="fill:none;stroke:#e2001a;stroke-width:0.529167;stroke-linecap:butt;stroke-linejoin:miter;stroke-miterlimit:4;stroke-dasharray:none;stroke-opacity:1"
           d="m -286.84123,94.837579 -0.43286,-19.7051" />
        <path

           id="path8653"
           style="fill:none;stroke:#162983;stroke-width:0.529167;stroke-linecap:butt;stroke-linejoin:miter;stroke-miterlimit:4;stroke-dasharray:none;stroke-opacity:1"
           d="m -286.71994,75.815129 9.72396,9.46503" />
        <path

           id="path8657"
           style="fill:none;stroke:#e2001a;stroke-width:0.529167;stroke-linecap:butt;stroke-linejoin:miter;stroke-miterlimit:4;stroke-dasharray:none;stroke-opacity:1"
           d="m -285.69399,75.525749 0.25894,19.17524" />
        <path

           id="path8661"
           style="fill:none;stroke:#162983;stroke-width:0.529167;stroke-linecap:butt;stroke-linejoin:miter;stroke-miterlimit:4;stroke-dasharray:none;stroke-opacity:1"
           d="m -286.3975,74.906339 10.80805,10.43799" />
        <path

           id="path8665"
           style="fill:#ffffff;fill-opacity:1;fill-rule:nonzero;stroke:none;stroke-width:0.352778"
           d="m -295.48083,84.398259 c 0.52035,0.4893 0.5394,1.29892 0.0406,1.8101 -0.49741,0.51188 -1.32291,0.52916 -1.84291,0.0392 -0.51964,-0.48931 -0.53834,-1.29999 -0.0402,-1.81081 0.49812,-0.51153 1.32291,-0.52917 1.84255,-0.0385" />
        <path

           id="path8669"
           style="fill:none;stroke:#1a171b;stroke-width:0.529167;stroke-linecap:butt;stroke-linejoin:miter;stroke-miterlimit:4;stroke-dasharray:none;stroke-opacity:1"
           d="m -295.48083,84.398259 c 0.52035,0.4893 0.5394,1.29892 0.0406,1.8101 -0.49741,0.51188 -1.32291,0.52916 -1.84291,0.0392 -0.51964,-0.48931 -0.53834,-1.29999 -0.0402,-1.81081 0.49812,-0.51153 1.32291,-0.52917 1.84255,-0.0385 z" />
        <path

           id="path8673"
           style="fill:#ffffff;fill-opacity:1;fill-rule:nonzero;stroke:none;stroke-width:0.352778"
           d="m -285.51348,74.020239 c 0.51964,0.4893 0.53799,1.30139 0.0392,1.81222 -0.49742,0.51117 -1.32362,0.52775 -1.84291,0.0399 -0.51964,-0.49001 -0.53834,-1.3021 -0.0395,-1.81292 0.49812,-0.51047 1.32362,-0.52776 1.84326,-0.0392" />
        <path

           id="path8677"
           style="fill:none;stroke:#1a171b;stroke-width:0.529167;stroke-linecap:butt;stroke-linejoin:miter;stroke-miterlimit:4;stroke-dasharray:none;stroke-opacity:1"
           d="m -285.51348,74.020239 c 0.51964,0.4893 0.53799,1.30139 0.0392,1.81222 -0.49742,0.51117 -1.32362,0.52775 -1.84291,0.0399 -0.51964,-0.49001 -0.53834,-1.3021 -0.0395,-1.81292 0.49812,-0.51047 1.32362,-0.52776 1.84326,-0.0392 z" />
        <path

           id="path8681"
           style="fill:#ffffff;fill-opacity:1;fill-rule:nonzero;stroke:none;stroke-width:0.352778"
           d="m -285.1359,94.458629 c 0.51964,0.49001 0.53728,1.3014 0.0399,1.81292 -0.49812,0.51048 -1.32362,0.52776 -1.84361,0.0378 -0.51964,-0.4893 -0.53764,-1.29998 -0.0402,-1.81222 0.49848,-0.50976 1.32433,-0.52634 1.84397,-0.0385" />
        <path

           id="path8685"
           style="fill:none;stroke:#1a171b;stroke-width:0.529167;stroke-linecap:butt;stroke-linejoin:miter;stroke-miterlimit:4;stroke-dasharray:none;stroke-opacity:1"
           d="m -285.1359,94.458629 c 0.51964,0.49001 0.53728,1.3014 0.0399,1.81292 -0.49812,0.51048 -1.32362,0.52776 -1.84361,0.0378 -0.51964,-0.4893 -0.53764,-1.29998 -0.0402,-1.81222 0.49848,-0.50976 1.32433,-0.52634 1.84397,-0.0385 z" />
        <path

           id="path8689"
           style="fill:#ffffff;fill-opacity:1;fill-rule:nonzero;stroke:none;stroke-width:0.352778"
           d="m -274.72758,84.184649 c 0.52035,0.4893 0.53869,1.29963 0.0406,1.8101 -0.49812,0.51259 -1.32362,0.52917 -1.84362,0.0399 -0.52035,-0.49001 -0.53763,-1.30104 -0.0395,-1.81222 0.49742,-0.51046 1.32221,-0.52705 1.84256,-0.0377" />
        <path

           id="path8693"
           style="fill:none;stroke:#1a171b;stroke-width:0.529167;stroke-linecap:butt;stroke-linejoin:miter;stroke-miterlimit:4;stroke-dasharray:none;stroke-opacity:1"
           d="m -274.72758,84.184649 c 0.52035,0.4893 0.53869,1.29963 0.0406,1.8101 -0.49812,0.51259 -1.32362,0.52917 -1.84362,0.0399 -0.52035,-0.49001 -0.53763,-1.30104 -0.0395,-1.81222 0.49742,-0.51046 1.32221,-0.52705 1.84256,-0.0377 z" />
      </g>
      <g
         id="g6539"
         transform="matrix(0.2455755,0.09914701,0.09914701,-0.2455755,287.56774,50.577548)">
        <path
           d="m 0,0 c 6.39,-4.45 21.199,-5.08 28.14,-1.761 3.29,1.58 6.769,3.79 7.5,7.2 0.88,4.17 0.92,14.601 -3.101,22.71 -1.38,2.79 -11.33,15.441 -18.47,18.58 C 8.81,48.89 -0.67,48.279 -6.701,45.5 -15.561,41.399 -18.951,30.17 -14.4,20.67 -11.591,14.819 -6.091,7.699 -0.75,9.83 c 14.279,5.69 -9.461,36.359 -12.121,41.92 -4.549,9.489 -1.1,20.609 7.701,24.83 4.119,1.98 8.68,2.09 12.829,0.68 C 12.039,75.779 43.59,72.5 47.14,71.76 52.699,70.6 57.819,66.75 60.6,60.949 63.68,54.52 63.989,46.64 59.659,42.069 55.379,37.569 45.5,33.8 38.09,32.189 30.68,30.58 22.25,27.649 16,32 9.76,36.35 11.969,45.319 12.81,50.979 13.649,56.63 14.31,81.069 18.08,85.56 24.369,93.02 37.709,85.5 42.26,76 45.279,69.689 57.5,39.79 59.969,34.63 64.52,25.14 61.069,14.02 52.26,9.81 48.819,8.149 45.069,7.81 41.51,8.55 38.42,9.199 10.129,25.609 0.299,18.229 -3.69,15.229 -9.23,6.43 0,0 Z"
           style="fill:none;stroke:#1a171b;stroke-width:3;stroke-linecap:round;stroke-linejoin:round;stroke-miterlimit:4;stroke-dasharray:none;stroke-opacity:1"
           id="path6541"
           />
      </g>
      <g
         id="g2400"
         transform="rotate(13.200208,277.03539,1569.0452)">
        <g
           transform="matrix(0.35277777,0,0,-0.35277777,-611.70062,564.19514)"
           id="g7721">
          <g
             style="opacity:0.399994"
             id="g7719"
             clip-path="url(#clipPath7713)">
            <g
               id="g7717"
               transform="translate(1508.9355,1387.8633)">
              <path
      
                 id="path7715"
                 style="fill:#ffffff;fill-opacity:1;fill-rule:nonzero;stroke:none"
                 d="m 0,0 30.879,-10.451 6.391,-31.963 -24.491,-21.518 -30.875,10.448 -6.39,31.964 z" />
            </g>
          </g>
        </g>
        <path

           id="path7725"
           style="fill:none;stroke:#e2001a;stroke-width:0.529167;stroke-linecap:butt;stroke-linejoin:miter;stroke-miterlimit:4;stroke-dasharray:none;stroke-opacity:1"
           d="m -78.984837,75.564839 2.38477,10.4902" />
        <path

           id="path7729"
           style="fill:none;stroke:#e2001a;stroke-width:0.529167;stroke-linecap:butt;stroke-linejoin:miter;stroke-miterlimit:4;stroke-dasharray:none;stroke-opacity:1"
           d="m -85.737207,92.674559 -2.16149,-9.89577" />
        <path

           id="path7733"
           style="fill:none;stroke:#006ab2;stroke-width:0.529167;stroke-linecap:butt;stroke-linejoin:miter;stroke-miterlimit:4;stroke-dasharray:none;stroke-opacity:1"
           d="m -74.649527,97.149759 -10.916,-3.9377" />
        <path

           id="path7737"
           style="fill:none;stroke:#e2001a;stroke-width:0.529167;stroke-linecap:butt;stroke-linejoin:miter;stroke-miterlimit:4;stroke-dasharray:none;stroke-opacity:1"
           d="m -79.808187,74.779379 11.02783,3.38914 2.73791,11.40354 -8.60708,7.57766" />
        <path

           id="path7741"
           style="fill:none;stroke:#006ab2;stroke-width:0.529167;stroke-linecap:butt;stroke-linejoin:miter;stroke-miterlimit:4;stroke-dasharray:none;stroke-opacity:1"
           d="m -87.867637,82.153949 8.05955,-7.37446" />
        <path

           id="path7745"
           style="fill:none;stroke:#e2001a;stroke-width:0.529167;stroke-linecap:butt;stroke-linejoin:miter;stroke-miterlimit:4;stroke-dasharray:none;stroke-opacity:1"
           d="m -76.740007,86.199179 1.76176,10.74597" />
        <path

           id="path7749"
           style="fill:none;stroke:#e2001a;stroke-width:0.529167;stroke-linecap:butt;stroke-linejoin:miter;stroke-miterlimit:4;stroke-dasharray:none;stroke-opacity:1"
           d="m -86.890637,81.862489 2.42395,10.99467" />
        <path

           id="path7753"
           style="fill:#ffffff;fill-opacity:1;fill-rule:nonzero;stroke:none;stroke-width:0.352778"
           d="m -69.448087,79.059559 c -0.532,-0.5147 -0.60854,-1.29822 -0.17005,-1.75154 0.43744,-0.45191 1.22344,-0.40287 1.75543,0.11042 0.53198,0.51541 0.60855,1.29928 0.1704,1.75154 -0.43781,0.45261 -1.22381,0.40358 -1.75578,-0.11042" />
        <path

           id="path7757"
           style="fill:none;stroke:#1a171b;stroke-width:0.529167;stroke-linecap:butt;stroke-linejoin:miter;stroke-miterlimit:4;stroke-dasharray:none;stroke-opacity:1"
           d="m -69.448087,79.059559 c -0.532,-0.5147 -0.60854,-1.29822 -0.17005,-1.75154 0.43744,-0.45191 1.22344,-0.40287 1.75543,0.11042 0.53198,0.51541 0.60855,1.29928 0.1704,1.75154 -0.43781,0.45261 -1.22381,0.40358 -1.75578,-0.11042 z" />
        <path

           id="path7761"
           style="fill:#ffffff;fill-opacity:1;fill-rule:nonzero;stroke:none;stroke-width:0.352778"
           d="m -80.170647,76.127099 c -0.53197,-0.51329 -0.60923,-1.29752 -0.17002,-1.75084 0.43672,-0.45261 1.22272,-0.40287 1.75472,0.11113 0.53197,0.51399 0.60923,1.29787 0.17108,1.75048 -0.4385,0.45367 -1.22378,0.40393 -1.75578,-0.11077" />
        <path

           id="path7765"
           style="fill:none;stroke:#1a171b;stroke-width:0.529167;stroke-linecap:butt;stroke-linejoin:miter;stroke-miterlimit:4;stroke-dasharray:none;stroke-opacity:1"
           d="m -80.170647,76.127099 c -0.53197,-0.51329 -0.60923,-1.29752 -0.17002,-1.75084 0.43672,-0.45261 1.22272,-0.40287 1.75472,0.11113 0.53197,0.51399 0.60923,1.29787 0.17108,1.75048 -0.4385,0.45367 -1.22378,0.40393 -1.75578,-0.11077 z" />
        <path

           id="path7769"
           style="fill:#ffffff;fill-opacity:1;fill-rule:nonzero;stroke:none;stroke-width:0.352778"
           d="m -88.148097,83.247419 c -0.4872,-0.47131 -0.55668,-1.18992 -0.15629,-1.60408 0.40077,-0.41416 1.12006,-0.36865 1.60727,0.10195 0.48717,0.47061 0.55737,1.18781 0.15732,1.60268 -0.40111,0.41486 -1.12184,0.37006 -1.6083,-0.10055" />
        <path

           id="path7773"
           style="fill:none;stroke:#1a171b;stroke-width:0.529167;stroke-linecap:butt;stroke-linejoin:miter;stroke-miterlimit:4;stroke-dasharray:none;stroke-opacity:1"
           d="m -88.148097,83.247419 c -0.4872,-0.47131 -0.55668,-1.18992 -0.15629,-1.60408 0.40077,-0.41416 1.12006,-0.36865 1.60727,0.10195 0.48717,0.47061 0.55737,1.18781 0.15732,1.60268 -0.40111,0.41486 -1.12184,0.37006 -1.6083,-0.10055 z" />
        <path

           id="path7777"
           style="fill:#ffffff;fill-opacity:1;fill-rule:nonzero;stroke:none;stroke-width:0.352778"
           d="m -66.846357,90.400129 c -0.53269,-0.5147 -0.60783,-1.29822 -0.17005,-1.75083 0.43675,-0.45262 1.22343,-0.40288 1.75543,0.11112 0.53128,0.514 0.60783,1.29717 0.17111,1.75049 -0.43852,0.45296 -1.22381,0.40393 -1.75649,-0.11078" />
        <path

           id="path7781"
           style="fill:none;stroke:#1a171b;stroke-width:0.529167;stroke-linecap:butt;stroke-linejoin:miter;stroke-miterlimit:4;stroke-dasharray:none;stroke-opacity:1"
           d="m -66.846357,90.400129 c -0.53269,-0.5147 -0.60783,-1.29822 -0.17005,-1.75083 0.43675,-0.45262 1.22343,-0.40288 1.75543,0.11112 0.53128,0.514 0.60783,1.29717 0.17111,1.75049 -0.43852,0.45296 -1.22381,0.40393 -1.75649,-0.11078 z" />
        <path

           id="path7785"
           style="fill:#ffffff;fill-opacity:1;fill-rule:nonzero;stroke:none;stroke-width:0.352778"
           d="m -75.299267,97.988279 c -0.53269,-0.51471 -0.60854,-1.29822 -0.17005,-1.75155 0.43675,-0.45261 1.22344,-0.40287 1.75472,0.11113 0.53271,0.514 0.60854,1.29787 0.17182,1.75084 -0.43852,0.45261 -1.22521,0.40357 -1.75649,-0.11042" />
        <path

           id="path7789"
           style="fill:none;stroke:#1a171b;stroke-width:0.529167;stroke-linecap:butt;stroke-linejoin:miter;stroke-miterlimit:4;stroke-dasharray:none;stroke-opacity:1"
           d="m -75.299267,97.988279 c -0.53269,-0.51471 -0.60854,-1.29822 -0.17005,-1.75155 0.43675,-0.45261 1.22344,-0.40287 1.75472,0.11113 0.53271,0.514 0.60854,1.29787 0.17182,1.75084 -0.43852,0.45261 -1.22521,0.40357 -1.75649,-0.11042 z" />
        <path

           id="path7793"
           style="fill:#ffffff;fill-opacity:1;fill-rule:nonzero;stroke:none;stroke-width:0.352778"
           d="m -86.257437,94.298609 c -0.53268,-0.514 -0.60923,-1.29822 -0.17073,-1.75013 0.43815,-0.45261 1.22343,-0.40358 1.75543,0.11042 0.53197,0.514 0.60923,1.29787 0.17039,1.75013 -0.43709,0.45332 -1.22309,0.40358 -1.75509,-0.11042" />
        <path

           id="path7797"
           style="fill:none;stroke:#1a171b;stroke-width:0.529167;stroke-linecap:butt;stroke-linejoin:miter;stroke-miterlimit:4;stroke-dasharray:none;stroke-opacity:1"
           d="m -86.257437,94.298609 c -0.53268,-0.514 -0.60923,-1.29822 -0.17073,-1.75013 0.43815,-0.45261 1.22343,-0.40358 1.75543,0.11042 0.53197,0.514 0.60923,1.29787 0.17039,1.75013 -0.43709,0.45332 -1.22309,0.40358 -1.75509,-0.11042 z" />
        <path

           id="path7801"
           style="fill:#ffffff;fill-opacity:1;fill-rule:nonzero;stroke:none;stroke-width:0.352778"
           d="m -77.276767,86.614649 c -0.53128,-0.5147 -0.60782,-1.29822 -0.16933,-1.75154 0.43675,-0.45191 1.22272,-0.40287 1.75543,0.11112 0.53197,0.51471 0.60783,1.29858 0.17039,1.75084 -0.43852,0.45261 -1.22449,0.40287 -1.75649,-0.11042" />
        <path

           id="path7805"
           style="fill:none;stroke:#1a171b;stroke-width:0.529167;stroke-linecap:butt;stroke-linejoin:miter;stroke-miterlimit:4;stroke-dasharray:none;stroke-opacity:1"
           d="m -77.276767,86.614649 c -0.53128,-0.5147 -0.60782,-1.29822 -0.16933,-1.75154 0.43675,-0.45191 1.22272,-0.40287 1.75543,0.11112 0.53197,0.51471 0.60783,1.29858 0.17039,1.75084 -0.43852,0.45261 -1.22449,0.40287 -1.75649,-0.11042 z" />
      </g>
    </g>
    
    
    
    
    </g>
    
    
    
    
    
    
      <g
         id="g5437"
         transform="translate(483.54742,97.622937)">
        <g
           id="g8761"
           transform="matrix(0.35277777,0,0,-0.35277777,-611.70062,564.19514)">
          <g
             clip-path="url(#clipPath8753)"
             id="g8759"
             style="opacity:0.399994">
            <g
               transform="translate(767.5703,1475.0342)"
               id="g8757">
              <path
                 d="m 0,0 45.51,-48.604 -65.876,-16.8 z"
                 style="fill:#ffffff;fill-opacity:1;fill-rule:nonzero;stroke:none"
                 id="path8755"
                 />
            </g>
          </g>
        </g>
        <path
           d="m -340.27464,58.193992 0.30797,-14.068779"
           style="fill:none;stroke:#e21151;stroke-width:0.705555;stroke-linecap:butt;stroke-linejoin:miter;stroke-miterlimit:4;stroke-dasharray:none;stroke-opacity:1"
           id="path8765"
           />
        <path
           d="m -324.51747,60.075709 -15.52222,-1.176163"
           style="fill:none;stroke:#e21151;stroke-width:0.705555;stroke-linecap:butt;stroke-linejoin:miter;stroke-miterlimit:4;stroke-dasharray:none;stroke-opacity:1"
           id="path8769"
           />
        <path
           d="m -340.03969,58.899546 -8.5845,8.701973"
           style="fill:none;stroke:#006ab2;stroke-width:0.529167;stroke-linecap:butt;stroke-linejoin:miter;stroke-miterlimit:4;stroke-dasharray:none;stroke-opacity:1"
           id="path8773"
           />
        <path
           d="m -324.16469,60.546313 -11.28889,-5.409494"
           style="fill:none;stroke:#006ab2;stroke-width:0.529167;stroke-linecap:butt;stroke-linejoin:miter;stroke-miterlimit:4;stroke-dasharray:none;stroke-opacity:1"
           id="path8777"
           />
        <path
           d="m -334.86515,54.901517 -5.05671,-11.759141"
           style="fill:none;stroke:#006ab2;stroke-width:0.529167;stroke-linecap:butt;stroke-linejoin:miter;stroke-miterlimit:4;stroke-dasharray:none;stroke-opacity:1"
           id="path8781"
           />
        <path
           d="m -334.86515,54.901517 -5.05671,3.763079"
           style="fill:none;stroke:#006ab2;stroke-width:0.529167;stroke-linecap:butt;stroke-linejoin:miter;stroke-miterlimit:4;stroke-dasharray:none;stroke-opacity:1"
           id="path8785"
           />
        <path
           d="m -324.17986,60.999668 -15.78681,-17.4625"
           style="fill:none;stroke:#e21151;stroke-width:0.705555;stroke-linecap:butt;stroke-linejoin:miter;stroke-miterlimit:4;stroke-dasharray:none;stroke-opacity:1"
           id="path8789"
           />
        <path
           d="m -324.7786,60.827761 -24.27217,6.433608"
           style="fill:none;stroke:#006ab2;stroke-width:0.529167;stroke-linecap:butt;stroke-linejoin:miter;stroke-miterlimit:4;stroke-dasharray:none;stroke-opacity:1"
           id="path8793"
           />
        <path
           d="m -340.2333,43.645012 -8.43562,23.675267"
           style="fill:none;stroke:#006ab2;stroke-width:0.529167;stroke-linecap:butt;stroke-linejoin:miter;stroke-miterlimit:4;stroke-dasharray:none;stroke-opacity:1"
           id="path8797"
           />
        <path
           d="m -349.72729,68.132059 c 0.49953,0.49883 1.30493,0.4953 1.80093,-0.0102 0.49565,-0.50518 0.49213,-1.3201 -0.007,-1.81928 -0.49883,-0.50059 -1.30563,-0.49635 -1.80128,0.009 -0.4953,0.50448 -0.49178,1.31939 0.007,1.82034"
           style="fill:#ffffff;fill-opacity:1;fill-rule:nonzero;stroke:none;stroke-width:0.352778"
           id="path8801"
           />
        <path
           d="m -349.72729,68.132059 c 0.49953,0.49883 1.30493,0.4953 1.80093,-0.0102 0.49565,-0.50518 0.49213,-1.3201 -0.007,-1.81928 -0.49883,-0.50059 -1.30563,-0.49635 -1.80128,0.009 -0.4953,0.50448 -0.49178,1.31939 0.007,1.82034 z"
           style="fill:none;stroke:#1a171b;stroke-width:0.529167;stroke-linecap:butt;stroke-linejoin:miter;stroke-miterlimit:4;stroke-dasharray:none;stroke-opacity:1"
           id="path8805"
           />
        <path
           d="m -341.00295,44.371593 c 0.49812,0.499181 1.30351,0.497064 1.79987,-0.0092 0.49459,-0.503767 0.49036,-1.319742 -0.006,-1.819275 -0.49883,-0.498123 -1.30563,-0.494597 -1.80164,0.0092 -0.49424,0.504121 -0.49142,1.3208 0.008,1.819275"
           style="fill:#ffffff;fill-opacity:1;fill-rule:nonzero;stroke:none;stroke-width:0.352778"
           id="path8809"
           />
        <path
           d="m -341.00295,44.371593 c 0.49812,0.499181 1.30351,0.497064 1.79987,-0.0092 0.49459,-0.503767 0.49036,-1.319742 -0.006,-1.819275 -0.49883,-0.498123 -1.30563,-0.494597 -1.80164,0.0092 -0.49424,0.504121 -0.49142,1.3208 0.008,1.819275 z"
           style="fill:none;stroke:#1a171b;stroke-width:0.529167;stroke-linecap:butt;stroke-linejoin:miter;stroke-miterlimit:4;stroke-dasharray:none;stroke-opacity:1"
           id="path8813"
           />
        <path
           d="m -325.45177,61.660809 c 0.49883,0.49953 1.30563,0.49671 1.79988,-0.01 0.49812,-0.505182 0.49247,-1.319747 -0.006,-1.82069 -0.49883,-0.49883 -1.30493,-0.496007 -1.79988,0.0099 -0.496,0.504825 -0.49247,1.31939 0.006,1.82033"
           style="fill:#ffffff;fill-opacity:1;fill-rule:nonzero;stroke:none;stroke-width:0.352778"
           id="path8817"
           />
        <path
           d="m -325.45177,61.660809 c 0.49883,0.49953 1.30563,0.49671 1.79988,-0.01 0.49812,-0.505182 0.49247,-1.319747 -0.006,-1.82069 -0.49883,-0.49883 -1.30493,-0.496007 -1.79988,0.0099 -0.496,0.504825 -0.49247,1.31939 0.006,1.82033 z"
           style="fill:none;stroke:#1a171b;stroke-width:0.529167;stroke-linecap:butt;stroke-linejoin:miter;stroke-miterlimit:4;stroke-dasharray:none;stroke-opacity:1"
           id="path8821"
           />
        <path
           d="m -341.12008,59.658866 c 0.49813,0.498827 1.30352,0.49671 1.79988,-0.0095 0.49459,-0.503767 0.49036,-1.319742 -0.006,-1.819275 -0.49883,-0.498123 -1.30563,-0.494594 -1.80164,0.0092 -0.49424,0.504118 -0.49142,1.3208 0.008,1.819627"
           style="fill:#ffffff;fill-opacity:1;fill-rule:nonzero;stroke:none;stroke-width:0.352778"
           id="path8825"
           />
        <path
           d="m -341.12008,59.658866 c 0.49813,0.498827 1.30352,0.49671 1.79988,-0.0095 0.49459,-0.503767 0.49036,-1.319742 -0.006,-1.819275 -0.49883,-0.498123 -1.30563,-0.494594 -1.80164,0.0092 -0.49424,0.504118 -0.49142,1.3208 0.008,1.819627 z"
           style="fill:none;stroke:#1a171b;stroke-width:0.529167;stroke-linecap:butt;stroke-linejoin:miter;stroke-miterlimit:4;stroke-dasharray:none;stroke-opacity:1"
           id="path8829"
           />
        <path
           d="m -336.18119,55.425532 c 0.49813,0.498827 1.30352,0.496711 1.79988,-0.0095 0.49459,-0.503766 0.49036,-1.319741 -0.006,-1.819275 -0.49883,-0.498123 -1.30563,-0.494593 -1.80164,0.0092 -0.49424,0.504118 -0.49142,1.3208 0.008,1.819626"
           style="fill:#ffffff;fill-opacity:1;fill-rule:nonzero;stroke:none;stroke-width:0.352778"
           id="path8833"
           />
        <path
           d="m -336.18119,55.425532 c 0.49813,0.498827 1.30352,0.496711 1.79988,-0.0095 0.49459,-0.503766 0.49036,-1.319741 -0.006,-1.819275 -0.49883,-0.498123 -1.30563,-0.494593 -1.80164,0.0092 -0.49424,0.504118 -0.49142,1.3208 0.008,1.819626 z"
           style="fill:none;stroke:#1a171b;stroke-width:0.529167;stroke-linecap:butt;stroke-linejoin:miter;stroke-miterlimit:4;stroke-dasharray:none;stroke-opacity:1"
           id="path8837"
           />
      </g>
    </g>
  </g>
</svg>
