<?xml version="1.0" encoding="UTF-8" standalone="no"?>
<svg
   xmlns:dc="http://purl.org/dc/elements/1.1/"
   xmlns:cc="http://creativecommons.org/ns#"
   xmlns:rdf="http://www.w3.org/1999/02/22-rdf-syntax-ns#"
   xmlns:svg="http://www.w3.org/2000/svg"
   xmlns="http://www.w3.org/2000/svg"
   xmlns:sodipodi="http://sodipodi.sourceforge.net/DTD/sodipodi-0.dtd"
   xmlns:inkscape="http://www.inkscape.org/namespaces/inkscape"
   version="1.1"
   id="svg4660"
   sodipodi:docname="meta8.svg"
   width="108.67039"
   height="68.101845"
   inkscape:version="1.0.2-2 (e86c870879, 2021-01-15)">
  <metadata
     id="metadata4666">
    <rdf:RDF>
      <cc:Work
         rdf:about="">
        <dc:format>image/svg+xml</dc:format>
        <dc:type
           rdf:resource="http://purl.org/dc/dcmitype/StillImage" />
        <dc:title></dc:title>
      </cc:Work>
    </rdf:RDF>
  </metadata>
  <defs
     id="defs4664" />
  <sodipodi:namedview
     pagecolor="#ffffff"
     bordercolor="#666666"
     borderopacity="1"
     objecttolerance="10"
     gridtolerance="10"
     guidetolerance="10"
     inkscape:pageopacity="0"
     inkscape:pageshadow="2"
     inkscape:window-width="1920"
     inkscape:window-height="1001"
     id="namedview4662"
     showgrid="false"
     lock-margins="true"
     fit-margin-top="10"
     fit-margin-left="10"
     fit-margin-right="10"
     fit-margin-bottom="10"
     inkscape:zoom="0.92866691"
     inkscape:cx="4.2499979"
     inkscape:cy="47.265793"
     inkscape:window-x="-9"
     inkscape:window-y="-9"
     inkscape:window-maximized="1"
     inkscape:current-layer="svg4660" />
  <g
     id="8"
     transform="translate(-304.7379,-227.20741)">
    <g
       id="g6511"
       transform="matrix(0.28033509,0,0,-0.28033509,332.29808,244.40983)">
      <path
         d="m 0,0 c -1.087,-1.218 -4.801,-4.33 -6.984,-5.9 -2.618,-1.894 -10.766,-9.097 -11.784,-9.897 -1.314,-1.056 -3.18,-2.311 -6.45,-5.528 -7.636,-7.489 17.216,-7.594 31.341,-8.412 3.063,-0.181 7.686,-0.381 10.639,-0.029 22.53,2.76 24.041,16.006 17.463,28.272 C 29.859,6.651 21.434,14.159 12.08,17.404 0.77,21.335 -17.464,14.007 -24.318,-3.121 c -4.989,-12.456 16.81,-40.814 16.257,-52.033 -0.128,-2.598 -1.787,-5.348 -9.789,-4.825 -15.25,0.98 -37.187,39.358 -24.89,53.746 15.191,17.776 41.416,4.311 53.052,-0.837 10.707,-4.73 20.09,-10.316 25.454,-20.421 10.114,-19.023 -7.912,-33.363 -23.726,-38.226 -5.67,-1.741 -12.08,-0.723 -17.374,1.485 -9.897,4.111 -15.152,10.239 -6.125,14.407 C 3.772,-42.793 18.361,20.487 0,0 Z"
         style="fill:none;stroke:#1a171b;stroke-width:3;stroke-linecap:round;stroke-linejoin:round;stroke-miterlimit:4;stroke-dasharray:none;stroke-opacity:1"
         id="path6513" />
    </g>
    <g
       id="g6507"
       transform="matrix(0.13389158,0.248112,0.248112,-0.13389158,405.34398,240.25452)"
       inkscape:transform-center-x="1.0209948"
       inkscape:transform-center-y="-1.4913388">
      <path
         d="m 0,0 c -10.504,1.271 -21.25,-16.167 -18.473,-30.023 2.787,-13.847 21.599,-14.558 27.327,-17.659 4.81,-2.591 13.674,-11.906 10.384,-22.01 -3.29,-10.095 -30.464,-18.589 -39.897,-14.007 -19.151,9.314 -8.942,40.979 10.537,52.525 19.49,11.545 31,7.253 42.204,-1.251 9.794,-7.424 18.965,-30.104 13.39,-38.768 -5.563,-8.654 -25.982,-11.936 -41.165,-3.852 -15.183,8.074 -42.335,28.053 -42.182,39.368 0.273,19.76 45.69,29.815 60.666,27.514 14.647,-2.241 20.418,-7.324 19.402,-18.009 C 41.188,-36.847 17.38,-63.51 7.761,-62.939 c -9.619,0.58 -4.47,10.985 0.59,19.929 C 13.412,-34.065 23.796,-2.891 0,0 Z"
         style="fill:none;stroke:#1a171b;stroke-width:3;stroke-linecap:round;stroke-linejoin:round;stroke-miterlimit:4;stroke-dasharray:none;stroke-opacity:1"
         id="path6509" />
    </g>
    <g
       id="g2236"
       transform="translate(376.01755,89.09938)">
      <g
         transform="matrix(0.35277777,0,0,-0.35277777,-611.70062,564.19514)"
         id="g7073">
        <g
           style="opacity:0.399994"
           id="g7071"
           clip-path="url(#clipPath7065)">
          <g
             id="g7069"
             transform="translate(1672.9219,1125.1914)">
            <path
               id="path7067"
               style="fill:#ffffff;fill-opacity:1;fill-rule:nonzero;stroke:none"
               d="m 0,0 6.984,-66.215 -62.677,26.332 z" />
          </g>
        </g>
      </g>
      <path
         id="path7077"
         style="fill:none;stroke:#006ab2;stroke-width:0.529167;stroke-linecap:butt;stroke-linejoin:miter;stroke-miterlimit:4;stroke-dasharray:none;stroke-opacity:1"
         d="m -21.728017,167.87549 3.07162,21.844" />
      <path
         id="path7081"
         style="fill:none;stroke:#006ab2;stroke-width:0.529167;stroke-linecap:butt;stroke-linejoin:miter;stroke-miterlimit:4;stroke-dasharray:none;stroke-opacity:1"
         d="m -39.865787,180.43495 18.13771,-12.5596" />
      <path
         id="path7085"
         style="fill:none;stroke:#e2001a;stroke-width:0.529167;stroke-linecap:butt;stroke-linejoin:miter;stroke-miterlimit:4;stroke-dasharray:none;stroke-opacity:1"
         d="m -18.745957,189.41561 -21.05766,-9.14894" />
      <path
         id="path7089"
         style="fill:none;stroke:#e2001a;stroke-width:0.529167;stroke-linecap:butt;stroke-linejoin:miter;stroke-miterlimit:4;stroke-dasharray:none;stroke-opacity:1"
         d="m -40.160667,181.6242 20.93383,9.0364" />
      <path
         id="path7093"
         style="fill:none;stroke:#006ab2;stroke-width:0.529167;stroke-linecap:butt;stroke-linejoin:miter;stroke-miterlimit:4;stroke-dasharray:none;stroke-opacity:1"
         d="m -18.239517,190.33615 -9.02264,-11.47092" />
      <path
         id="path7097"
         style="fill:none;stroke:#006ab2;stroke-width:0.529167;stroke-linecap:butt;stroke-linejoin:miter;stroke-miterlimit:4;stroke-dasharray:none;stroke-opacity:1"
         d="m -39.357287,181.1212 12.09074,-2.37313" />
      <path
         id="path7101"
         style="fill:none;stroke:#006ab2;stroke-width:0.529167;stroke-linecap:butt;stroke-linejoin:miter;stroke-miterlimit:4;stroke-dasharray:none;stroke-opacity:1"
         d="m -39.941567,179.69905 12.08688,-2.49096" />
      <path
         id="path7105"
         style="fill:none;stroke:#e2001a;stroke-width:0.529167;stroke-linecap:butt;stroke-linejoin:miter;stroke-miterlimit:4;stroke-dasharray:none;stroke-opacity:1"
         d="m -27.030747,178.73858 5.52662,-9.66011" />
      <path
         id="path7109"
         style="fill:none;stroke:#e2001a;stroke-width:0.529167;stroke-linecap:butt;stroke-linejoin:miter;stroke-miterlimit:4;stroke-dasharray:none;stroke-opacity:1"
         d="m -28.019467,177.60168 5.99511,-9.79664" />
      <path
         id="path7113"
         style="fill:#ffffff;fill-opacity:1;fill-rule:nonzero;stroke:none;stroke-width:0.352778"
         d="m -18.831417,188.77482 c 0.70557,-0.0282 1.30141,0.52106 1.33033,1.22661 0.0279,0.70626 -0.52139,1.3021 -1.22696,1.33033 -0.70696,0.0289 -1.30103,-0.52035 -1.33067,-1.22661 -0.0289,-0.70591 0.52176,-1.3021 1.2273,-1.33033" />
      <path
         id="path7117"
         style="fill:none;stroke:#1a171b;stroke-width:0.529167;stroke-linecap:butt;stroke-linejoin:miter;stroke-miterlimit:4;stroke-dasharray:none;stroke-opacity:1"
         d="m -18.831417,188.77482 c 0.70557,-0.0282 1.30141,0.52106 1.33033,1.22661 0.0279,0.70626 -0.52139,1.3021 -1.22696,1.33033 -0.70696,0.0289 -1.30103,-0.52035 -1.33067,-1.22661 -0.0289,-0.70591 0.52176,-1.3021 1.2273,-1.33033 z" />
      <path
         id="path7121"
         style="fill:#ffffff;fill-opacity:1;fill-rule:nonzero;stroke:none;stroke-width:0.352778"
         d="m -22.048427,167.23125 c 0.70485,-0.0289 1.3014,0.52105 1.32998,1.22732 0.0289,0.70555 -0.52036,1.30139 -1.2259,1.32891 -0.70628,0.0289 -1.30352,-0.52035 -1.33175,-1.22626 -0.0279,-0.70626 0.52141,-1.30175 1.22767,-1.32997" />
      <path
         id="path7125"
         style="fill:none;stroke:#1a171b;stroke-width:0.529167;stroke-linecap:butt;stroke-linejoin:miter;stroke-miterlimit:4;stroke-dasharray:none;stroke-opacity:1"
         d="m -22.048427,167.23125 c 0.70485,-0.0289 1.3014,0.52105 1.32998,1.22732 0.0289,0.70555 -0.52036,1.30139 -1.2259,1.32891 -0.70628,0.0289 -1.30352,-0.52035 -1.33175,-1.22626 -0.0279,-0.70626 0.52141,-1.30175 1.22767,-1.32997 z" />
      <path
         id="path7129"
         style="fill:#ffffff;fill-opacity:1;fill-rule:nonzero;stroke:none;stroke-width:0.352778"
         d="m -39.785177,179.26842 c 0.70557,-0.0282 1.30141,0.52105 1.33033,1.22766 0.0286,0.70521 -0.5207,1.30105 -1.22695,1.32927 -0.70557,0.0289 -1.30212,-0.52035 -1.3307,-1.2259 -0.0282,-0.70556 0.52176,-1.30281 1.22732,-1.33103" />
      <path
         id="path7133"
         style="fill:none;stroke:#1a171b;stroke-width:0.529167;stroke-linecap:butt;stroke-linejoin:miter;stroke-miterlimit:4;stroke-dasharray:none;stroke-opacity:1"
         d="m -39.785177,179.26842 c 0.70557,-0.0282 1.30141,0.52105 1.33033,1.22766 0.0286,0.70521 -0.5207,1.30105 -1.22695,1.32927 -0.70557,0.0289 -1.30212,-0.52035 -1.3307,-1.2259 -0.0282,-0.70556 0.52176,-1.30281 1.22732,-1.33103 z" />
      <path
         id="path7137"
         style="fill:#ffffff;fill-opacity:1;fill-rule:nonzero;stroke:none;stroke-width:0.352778"
         d="m -27.772797,176.96573 c 0.70625,-0.0282 1.30281,0.52035 1.33032,1.22661 0.0286,0.70732 -0.5207,1.30351 -1.22697,1.33244 -0.70554,0.0282 -1.30138,-0.52176 -1.33102,-1.22873 -0.0279,-0.70555 0.5221,-1.30139 1.22767,-1.33032" />
      <path
         id="path7141"
         style="fill:none;stroke:#1a171b;stroke-width:0.529167;stroke-linecap:butt;stroke-linejoin:miter;stroke-miterlimit:4;stroke-dasharray:none;stroke-opacity:1"
         d="m -27.772797,176.96573 c 0.70625,-0.0282 1.30281,0.52035 1.33032,1.22661 0.0286,0.70732 -0.5207,1.30351 -1.22697,1.33244 -0.70554,0.0282 -1.30138,-0.52176 -1.33102,-1.22873 -0.0279,-0.70555 0.5221,-1.30139 1.22767,-1.33032 z" />
    </g>
    <g
       id="g2265"
       transform="rotate(28.260813,-159.89545,1667.5211)"
       inkscape:label="g2265">
      <g
         transform="matrix(0.35277777,0,0,-0.35277777,-611.70062,564.19514)"
         id="g7157">
        <g
           style="opacity:0.399994"
           id="g7155"
           clip-path="url(#clipPath7149)">
          <g
             id="g7153"
             transform="translate(790.1289,1125.3652)">
            <path
               id="path7151"
               style="fill:#ffffff;fill-opacity:1;fill-rule:nonzero;stroke:none"
               d="m 0,0 18.832,-32.061 -26.016,-28.605 -34.912,14.385 4.442,37.492 z" />
          </g>
        </g>
      </g>
      <path
         id="path7161"
         style="fill:none;stroke:#e2001a;stroke-width:0.492831;stroke-linecap:butt;stroke-linejoin:miter;stroke-miterlimit:4;stroke-dasharray:none;stroke-opacity:1"
         d="m -336.0296,188.59568 -11.50126,-4.8327" />
      <path
         id="path7165"
         style="fill:none;stroke:#e2001a;stroke-width:0.492831;stroke-linecap:butt;stroke-linejoin:miter;stroke-miterlimit:4;stroke-dasharray:none;stroke-opacity:1"
         d="m -326.26277,178.82607 -9.58356,9.84602 -0.18344,-0.0765" />
      <path
         id="path7169"
         style="fill:none;stroke:#162983;stroke-width:0.492831;stroke-linecap:butt;stroke-linejoin:miter;stroke-miterlimit:4;stroke-dasharray:none;stroke-opacity:1"
         d="m -334.13479,166.92257 7.87188,11.90343" />
      <path
         id="path7173"
         style="fill:none;stroke:#e2001a;stroke-width:0.492831;stroke-linecap:butt;stroke-linejoin:miter;stroke-miterlimit:4;stroke-dasharray:none;stroke-opacity:1"
         d="m -346.12165,170.77215 -1.02235,12.37544" />
      <path
         id="path7177"
         style="fill:none;stroke:#e2001a;stroke-width:0.492831;stroke-linecap:butt;stroke-linejoin:miter;stroke-miterlimit:4;stroke-dasharray:none;stroke-opacity:1"
         d="m -338.99653,174.81668 -7.40833,-4.23334" />
      <path
         id="path7181"
         style="fill:none;stroke:#162983;stroke-width:0.492831;stroke-linecap:butt;stroke-linejoin:miter;stroke-miterlimit:4;stroke-dasharray:none;stroke-opacity:1"
         d="m -346.15541,170.77282 12.42024,-3.34327" />
      <path
         id="path7185"
         style="fill:none;stroke:#162983;stroke-width:0.492831;stroke-linecap:butt;stroke-linejoin:miter;stroke-miterlimit:4;stroke-dasharray:none;stroke-opacity:1"
         d="m -338.76123,181.16668 3.24133,6.00004" />
      <path
         id="path7189"
         style="fill:none;stroke:#e2001a;stroke-width:0.492831;stroke-linecap:butt;stroke-linejoin:miter;stroke-miterlimit:4;stroke-dasharray:none;stroke-opacity:1"
         d="m -326.64931,178.34445 -11.87697,-3.6456" />
      <path
         id="path7193"
         style="fill:none;stroke:#162983;stroke-width:0.492831;stroke-linecap:butt;stroke-linejoin:miter;stroke-miterlimit:4;stroke-dasharray:none;stroke-opacity:1"
         d="m -338.76087,175.22251 -2.7e-4,5.70936" />
      <path
         id="path7197"
         style="fill:#ffffff;fill-opacity:1;fill-rule:nonzero;stroke:none;stroke-width:0.352778"
         d="m -334.70255,188.92228 c -0.27835,0.58703 -0.96661,0.87031 -1.53706,0.6276 -0.57079,-0.23954 -0.8075,-0.9137 -0.52916,-1.50213 0.27834,-0.58773 0.96661,-0.86854 1.53564,-0.62759 0.57115,0.24059 0.80821,0.91369 0.53058,1.50212" />
      <path
         id="path7201"
         style="fill:none;stroke:#1a171b;stroke-width:0.492831;stroke-linecap:butt;stroke-linejoin:miter;stroke-miterlimit:4;stroke-dasharray:none;stroke-opacity:1"
         d="m -334.70255,188.92228 c -0.27835,0.58703 -0.96661,0.87031 -1.53706,0.6276 -0.57079,-0.23954 -0.8075,-0.9137 -0.52916,-1.50213 0.27834,-0.58773 0.96661,-0.86854 1.53564,-0.62759 0.57115,0.24059 0.80821,0.91369 0.53058,1.50212 z" />
      <path
         id="path7205"
         style="fill:#ffffff;fill-opacity:1;fill-rule:nonzero;stroke:none;stroke-width:0.352778"
         d="m -346.41245,183.9889 c -0.27834,0.58773 -0.9659,0.8703 -1.53775,0.629 -0.5708,-0.24165 -0.80681,-0.9144 -0.52776,-1.50283 0.27763,-0.58773 0.9652,-0.86924 1.53635,-0.62759 0.57044,0.24059 0.8068,0.91369 0.52916,1.50142" />
      <path
         id="path7209"
         style="fill:none;stroke:#1a171b;stroke-width:0.492831;stroke-linecap:butt;stroke-linejoin:miter;stroke-miterlimit:4;stroke-dasharray:none;stroke-opacity:1"
         d="m -346.41245,183.9889 c -0.27834,0.58773 -0.9659,0.8703 -1.53775,0.629 -0.5708,-0.24165 -0.80681,-0.9144 -0.52776,-1.50283 0.27763,-0.58773 0.9652,-0.86924 1.53635,-0.62759 0.57044,0.24059 0.8068,0.91369 0.52916,1.50142 z" />
      <path
         id="path7213"
         style="fill:#ffffff;fill-opacity:1;fill-rule:nonzero;stroke:none;stroke-width:0.352778"
         d="m -325.60957,179.04105 c -0.27763,0.58985 -0.96661,0.8703 -1.53634,0.62971 -0.5715,-0.24165 -0.80822,-0.9137 -0.52987,-1.50284 0.27834,-0.58772 0.96661,-0.86924 1.53705,-0.62759 0.56974,0.2406 0.80751,0.91299 0.52916,1.50072" />
      <path
         id="path7217"
         style="fill:none;stroke:#1a171b;stroke-width:0.492831;stroke-linecap:butt;stroke-linejoin:miter;stroke-miterlimit:4;stroke-dasharray:none;stroke-opacity:1"
         d="m -325.60957,179.04105 c -0.27763,0.58985 -0.96661,0.8703 -1.53634,0.62971 -0.5715,-0.24165 -0.80822,-0.9137 -0.52987,-1.50284 0.27834,-0.58772 0.96661,-0.86924 1.53705,-0.62759 0.56974,0.2406 0.80751,0.91299 0.52916,1.50072 z" />
      <path
         id="path7221"
         style="fill:#ffffff;fill-opacity:1;fill-rule:nonzero;stroke:none;stroke-width:0.352778"
         d="m -345.18803,170.99468 c -0.27763,0.58844 -0.96661,0.87101 -1.53705,0.62971 -0.57079,-0.24095 -0.80751,-0.91369 -0.52916,-1.50212 0.27834,-0.58773 0.96661,-0.86995 1.53705,-0.62901 0.57044,0.2413 0.80751,0.91511 0.52916,1.50142" />
      <path
         id="path7225"
         style="fill:none;stroke:#1a171b;stroke-width:0.492831;stroke-linecap:butt;stroke-linejoin:miter;stroke-miterlimit:4;stroke-dasharray:none;stroke-opacity:1"
         d="m -345.18803,170.99468 c -0.27763,0.58844 -0.96661,0.87101 -1.53705,0.62971 -0.57079,-0.24095 -0.80751,-0.91369 -0.52916,-1.50212 0.27834,-0.58773 0.96661,-0.86995 1.53705,-0.62901 0.57044,0.2413 0.80751,0.91511 0.52916,1.50142 z" />
      <path
         id="path7229"
         style="fill:#ffffff;fill-opacity:1;fill-rule:nonzero;stroke:none;stroke-width:0.352778"
         d="m -332.69959,167.74458 c -0.27834,0.58914 -0.96661,0.87101 -1.53775,0.63041 -0.5708,-0.24165 -0.80681,-0.9144 -0.52917,-1.50354 0.27905,-0.58772 0.96661,-0.86889 1.53705,-0.62759 0.57044,0.2413 0.80822,0.9137 0.52987,1.50072" />
      <path
         id="path7233"
         style="fill:none;stroke:#1a171b;stroke-width:0.492831;stroke-linecap:butt;stroke-linejoin:miter;stroke-miterlimit:4;stroke-dasharray:none;stroke-opacity:1"
         d="m -332.69959,167.74458 c -0.27834,0.58914 -0.96661,0.87101 -1.53775,0.63041 -0.5708,-0.24165 -0.80681,-0.9144 -0.52917,-1.50354 0.27905,-0.58772 0.96661,-0.86889 1.53705,-0.62759 0.57044,0.2413 0.80822,0.9137 0.52987,1.50072 z" />
      <path
         id="path7237"
         style="fill:#ffffff;fill-opacity:1;fill-rule:nonzero;stroke:none;stroke-width:0.352778"
         d="m -337.72734,181.48499 c -0.27834,0.58843 -0.96732,0.8703 -1.53705,0.62971 -0.57221,-0.24095 -0.80822,-0.9137 -0.52987,-1.50283 0.27834,-0.58844 0.96731,-0.86925 1.53705,-0.6276 0.56973,0.2413 0.80751,0.9137 0.52987,1.50072" />
      <path
         id="path7241"
         style="fill:none;stroke:#1a171b;stroke-width:0.492831;stroke-linecap:butt;stroke-linejoin:miter;stroke-miterlimit:4;stroke-dasharray:none;stroke-opacity:1"
         d="m -337.72734,181.48499 c -0.27834,0.58843 -0.96732,0.8703 -1.53705,0.62971 -0.57221,-0.24095 -0.80822,-0.9137 -0.52987,-1.50283 0.27834,-0.58844 0.96731,-0.86925 1.53705,-0.6276 0.56973,0.2413 0.80751,0.9137 0.52987,1.50072 z" />
      <path
         id="path7245"
         style="fill:#ffffff;fill-opacity:1;fill-rule:nonzero;stroke:none;stroke-width:0.352778"
         d="m -337.717,175.12123 c -0.27835,0.58844 -0.96732,0.8703 -1.53706,0.62971 -0.5722,-0.24095 -0.80821,-0.9137 -0.52987,-1.50283 0.27834,-0.58844 0.96732,-0.86925 1.53705,-0.62759 0.56974,0.2413 0.80751,0.91369 0.52988,1.50071" />
      <path
         id="path7249"
         style="fill:none;stroke:#1a171b;stroke-width:0.492831;stroke-linecap:butt;stroke-linejoin:miter;stroke-miterlimit:4;stroke-dasharray:none;stroke-opacity:1"
         d="m -337.717,175.12123 c -0.27835,0.58844 -0.96732,0.8703 -1.53706,0.62971 -0.5722,-0.24095 -0.80821,-0.9137 -0.52987,-1.50283 0.27834,-0.58844 0.96732,-0.86925 1.53705,-0.62759 0.56974,0.2413 0.80751,0.91369 0.52988,1.50071 z" />
    </g>
  </g>
</svg>
