<?xml version="1.0" encoding="UTF-8" standalone="no"?>
<svg
   xmlns:dc="http://purl.org/dc/elements/1.1/"
   xmlns:cc="http://creativecommons.org/ns#"
   xmlns:rdf="http://www.w3.org/1999/02/22-rdf-syntax-ns#"
   xmlns:svg="http://www.w3.org/2000/svg"
   xmlns="http://www.w3.org/2000/svg"
   xmlns:sodipodi="http://sodipodi.sourceforge.net/DTD/sodipodi-0.dtd"
   xmlns:inkscape="http://www.inkscape.org/namespaces/inkscape"
   version="1.1"
   id="svg10823"
   xml:space="preserve"
   width="405.39438"
   height="310.02585"
   viewBox="0 0 405.39438 310.02584"
   sodipodi:docname="grossis.ai.svg"
   inkscape:version="1.0.2-2 (e86c870879, 2021-01-15)"><metadata
     id="metadata10829"><rdf:RDF><cc:Work
         rdf:about=""><dc:format>image/svg+xml</dc:format><dc:type
           rdf:resource="http://purl.org/dc/dcmitype/StillImage" /><dc:title></dc:title></cc:Work></rdf:RDF></metadata><defs
     id="defs10827"><clipPath
       clipPathUnits="userSpaceOnUse"
       id="clipPath10839"><path
         d="M 0,841.89 H 595.276 V 0 H 0 Z"
         id="path10837" /></clipPath></defs><sodipodi:namedview
     pagecolor="#ffffff"
     bordercolor="#666666"
     borderopacity="1"
     objecttolerance="10"
     gridtolerance="10"
     guidetolerance="10"
     inkscape:pageopacity="0"
     inkscape:pageshadow="2"
     inkscape:window-width="1827"
     inkscape:window-height="1030"
     id="namedview10825"
     showgrid="false"
     inkscape:zoom="1.7184436"
     inkscape:cx="155.08161"
     inkscape:cy="199.44386"
     inkscape:window-x="75"
     inkscape:window-y="0"
     inkscape:window-maximized="0"
     inkscape:current-layer="g10831"
     inkscape:document-rotation="0"
     fit-margin-top="0"
     fit-margin-left="0"
     fit-margin-right="0"
     fit-margin-bottom="0" /><g
     id="g10831"
     inkscape:groupmode="layer"
     inkscape:label="grossis"
     transform="matrix(1.3333333,0,0,-1.3333333,-152.21453,726.60009)"><g
       id="g10833"><g
         id="g10835"
         clip-path="url(#clipPath10839)"><g
           id="g10841"
           transform="translate(284.2329,399.2773)"><path
             d="m 0,0 c -7.553,-14.807 -14.448,-29.611 -14.432,-45.516 0.002,-4.699 0.594,-9.508 1.952,-14.497 3.982,-14.252 12.928,-20.205 23.589,-21.314 1.027,-0.099 2.069,-0.147 3.122,-0.147 13.003,-0.044 27.808,7.559 36.208,18.714 5.019,6.507 8.811,21.495 8.758,35.475 0,3.056 -0.171,6.071 -0.527,8.945"
             style="fill:none;stroke:#1a171b;stroke-width:0.75;stroke-linecap:butt;stroke-linejoin:miter;stroke-miterlimit:4;stroke-dasharray:none;stroke-opacity:1"
             id="path10843" /></g><g
           id="g10845"
           transform="translate(347.7842,382.1797)"><path
             d="M 0,0 C 0.439,-3.295 0.645,-6.723 0.646,-10.188 0.59,-25.065 -2.99,-40.446 -9.126,-48.68 c -9.462,-12.427 -25.318,-20.651 -40.194,-20.694 -1.206,0 -2.405,0.054 -3.595,0.166 -12.4,1.077 -23.683,8.991 -27.94,24.979 -1.477,5.419 -2.129,10.691 -2.127,15.811 0.016,17.101 7.167,32.388 14.602,47.048"
             style="fill:none;stroke:#1a171b;stroke-width:0.75;stroke-linecap:butt;stroke-linejoin:miter;stroke-miterlimit:4;stroke-dasharray:none;stroke-opacity:1"
             id="path10847" /></g><g
           id="g10849"
           transform="translate(224.8398,511.6992)"><path
             d="M 0,0 C 0.376,0.574 0.753,1.144 1.13,1.709"
             style="fill:none;stroke:#1a171b;stroke-width:0.75;stroke-linecap:butt;stroke-linejoin:miter;stroke-miterlimit:4;stroke-dasharray:none;stroke-opacity:1"
             id="path10851" /></g><g
           id="g10853"
           transform="translate(230.4771,511.1558)"><path
             d="M 0,0 C -0.23,-0.344 -0.461,-0.689 -0.691,-1.037"
             style="fill:none;stroke:#1a171b;stroke-width:0.75;stroke-linecap:butt;stroke-linejoin:miter;stroke-miterlimit:4;stroke-dasharray:none;stroke-opacity:1"
             id="path10855" /></g><g
           id="g10857"
           transform="translate(286.2754,414.375)"><path
             d="m 0,0 c 9.268,19.185 17.859,49.184 17.837,74.871 0.013,14.106 -2.591,26.846 -8.694,35.809 -6.124,8.933 -15.511,14.465 -30.529,14.52 -1.779,0 -3.635,-0.08 -5.579,-0.249 -3.458,-0.222 -8.41,-3.326 -13.682,-8.784 -4.839,-4.951 -10.001,-11.701 -15.151,-19.386"
             style="fill:none;stroke:#1a171b;stroke-width:0.75;stroke-linecap:butt;stroke-linejoin:miter;stroke-miterlimit:4;stroke-dasharray:none;stroke-opacity:1"
             id="path10859" /></g><g
           id="g10861"
           transform="translate(225.9702,513.4087)"><path
             d="m 0,0 c 5.372,8.058 10.794,15.21 16.08,20.627 5.677,5.757 11.126,9.724 16.837,10.271 2.07,0.18 4.071,0.268 6.002,0.268 16.274,0.058 27.752,-6.43 34.664,-16.712 6.937,-10.256 9.549,-23.93 9.562,-38.617 -0.024,-26.53 -8.594,-56.581 -18.077,-76.497"
             style="fill:none;stroke:#1a171b;stroke-width:0.75;stroke-linecap:butt;stroke-linejoin:miter;stroke-miterlimit:4;stroke-dasharray:none;stroke-opacity:1"
             id="path10863" /></g><g
           id="g10865"
           transform="translate(159.1665,405.1641)"><path
             d="m 0,0 c 1.436,0.087 2.679,0.105 3.614,0.03 3.583,-0.284 6.898,-1.728 9.172,-3.604 0.868,-0.717 1.464,-0.617 1.754,0.215 0.981,7.945 3.479,16.897 7.749,26.983 1.919,4.515 17.746,40.395 35.923,70.93"
             style="fill:none;stroke:#1a171b;stroke-width:0.75;stroke-linecap:butt;stroke-linejoin:miter;stroke-miterlimit:4;stroke-dasharray:none;stroke-opacity:1"
             id="path10867" /></g><g
           id="g10869"
           transform="translate(122.9741,390.1826)"><path
             d="m 0,0 c 0.471,-0.075 0.829,-0.123 0.993,-0.123 0.702,0 1.652,0.179 1.95,0.413 0.803,0.631 0.327,1.991 0.166,2.417 -2.004,5.329 8.398,7.91 11.809,9.006 2.022,0.649 12.173,2.486 19.363,3.125"
             style="fill:none;stroke:#1a171b;stroke-width:0.75;stroke-linecap:butt;stroke-linejoin:miter;stroke-miterlimit:4;stroke-dasharray:none;stroke-opacity:1"
             id="path10871" /></g><g
           id="g10873"
           transform="translate(115.4224,388.1992)"><path
             d="m 0,0 c -0.311,0.159 -0.536,0.337 -0.625,0.536 -0.536,1.187 1.137,2.358 2.541,2.358 0.601,0 2.867,-0.43 4.605,-0.735"
             style="fill:none;stroke:#1a171b;stroke-width:0.75;stroke-linecap:butt;stroke-linejoin:miter;stroke-miterlimit:4;stroke-dasharray:none;stroke-opacity:1"
             id="path10875" /></g><g
           id="g10877"
           transform="translate(124.2656,386.6113)"><path
             d="m 0,0 c -1.46,0.25 -3.65,0.249 -4.116,0.404 -0.42,0.141 -2.427,0.389 -3.871,0.847"
             style="fill:none;stroke:#1a171b;stroke-width:0.75;stroke-linecap:butt;stroke-linejoin:miter;stroke-miterlimit:4;stroke-dasharray:none;stroke-opacity:1"
             id="path10879" /></g><g
           id="g10881"
           transform="translate(118.7183,382.9541)"><path
             d="m 0,0 c 1.75,-0.15 4.23,-0.397 4.614,-0.397 1.404,0 2.542,1.055 2.542,2.356 0,0.428 -0.05,0.896 -0.309,1.198"
             style="fill:none;stroke:#1a171b;stroke-width:0.75;stroke-linecap:butt;stroke-linejoin:miter;stroke-miterlimit:4;stroke-dasharray:none;stroke-opacity:1"
             id="path10883" /></g><g
           id="g10885"
           transform="translate(117.6489,390.707)"><path
             d="m 0,0 c -0.759,-1.185 -2.127,-3.366 -2.456,-3.702 -0.408,-0.418 -0.657,-0.974 -0.657,-1.581 0,-1.303 1.138,-2.358 2.542,-2.358 0.145,0 0.415,-0.015 0.766,-0.042"
             style="fill:none;stroke:#1a171b;stroke-width:0.75;stroke-linecap:butt;stroke-linejoin:miter;stroke-miterlimit:4;stroke-dasharray:none;stroke-opacity:1"
             id="path10887" /></g><g
           id="g10889"
           transform="translate(120.9893,387.2754)"><path
             d="m 0,0 c 0.775,1.121 1.809,2.965 1.431,3.954 -0.299,0.784 -1.264,1.2 -2.215,1.2 -0.857,0 -1.614,-0.392 -2.075,-0.995 C -2.886,4.124 -2.93,4.062 -2.987,3.976"
             style="fill:none;stroke:#1a171b;stroke-width:0.75;stroke-linecap:butt;stroke-linejoin:miter;stroke-miterlimit:4;stroke-dasharray:none;stroke-opacity:1"
             id="path10891" /></g><g
           id="g10893"
           transform="translate(122.8989,382.2383)"><path
             d="m 0,0 c -0.035,-0.06 -0.063,-0.104 -0.082,-0.13 -0.459,-0.614 -1.224,-1.016 -2.09,-1.016 -1.404,0 -2.56,1.054 -2.542,2.356 0.02,1.469 1.42,2.068 2.131,2.957 0.06,0.062 0.144,0.16 0.246,0.288"
             style="fill:none;stroke:#1a171b;stroke-width:0.75;stroke-linecap:butt;stroke-linejoin:miter;stroke-miterlimit:4;stroke-dasharray:none;stroke-opacity:1"
             id="path10895" /></g><g
           id="g10897"
           transform="translate(136.9526,379.7109)"><path
             d="m 0,0 c -4.488,2.347 -5.983,4.627 -7.786,7.429 -0.65,1.009 -2.99,1.352 -3.37,0.759 -0.159,-0.249 -0.212,-0.549 -0.391,-0.783 -0.3,-0.391 -1.538,-2.997 -2.201,-4.299"
             style="fill:none;stroke:#1a171b;stroke-width:0.75;stroke-linecap:butt;stroke-linejoin:miter;stroke-miterlimit:4;stroke-dasharray:none;stroke-opacity:1"
             id="path10899" /></g><g
           id="g10901"
           transform="translate(168.8164,391.3457)"><path
             d="m 0,0 c 2.103,-3.436 3.537,-6.452 3.751,-8.149 0.791,-6.276 -5.219,-11.522 -11.901,-11.64 -2.395,-0.039 -13.005,2.917 -21.913,7.247"
             style="fill:none;stroke:#1a171b;stroke-width:0.75;stroke-linecap:butt;stroke-linejoin:miter;stroke-miterlimit:4;stroke-dasharray:none;stroke-opacity:1"
             id="path10903" /></g><g
           id="g10905"
           transform="translate(137.9907,402.7656)"><path
             d="M 0,0 C 1.178,4.883 6.427,8.893 11.787,8.161 16.646,7.495 24.866,-2.096 30.001,-10.104"
             style="fill:none;stroke:#1a171b;stroke-width:0.75;stroke-linecap:butt;stroke-linejoin:miter;stroke-miterlimit:4;stroke-dasharray:none;stroke-opacity:1"
             id="path10907" /></g><g
           id="g10909"
           transform="translate(149.4121,383.7725)"><path
             d="m 0,0 c 1.391,0.149 2.562,0.521 3.072,1.512 1.078,2.09 -8.15,6.836 -10.165,8.552 -2.009,1.721 -3.863,2.249 -4.444,5.456 -0.086,0.477 -0.128,0.956 -0.129,1.43"
             style="fill:none;stroke:#1a171b;stroke-width:0.75;stroke-linecap:butt;stroke-linejoin:miter;stroke-miterlimit:4;stroke-dasharray:none;stroke-opacity:1"
             id="path10911" /></g><g
           id="g10913"
           transform="translate(152.5425,372.3818)"><path
             d="m 0,0 c -0.664,-2.488 -2.938,-4.251 -6.589,-4.313 -6.372,-0.113 -9.079,5.947 -8.448,10.952 0.271,2.131 2.593,4.06 7.054,4.539 0.804,0.085 1.704,0.093 2.605,0.107"
             style="fill:none;stroke:#1a171b;stroke-width:0.75;stroke-linecap:butt;stroke-linejoin:miter;stroke-miterlimit:4;stroke-dasharray:none;stroke-opacity:1"
             id="path10915" /></g><g
           id="g10917"
           transform="translate(147.3013,388.7705)"><path
             d="m 0,0 c -2.598,-1.801 2.569,-7.341 4.366,-10.768 0.711,-1.36 1.063,-2.706 1.078,-3.946"
             style="fill:none;stroke:#1a171b;stroke-width:0.75;stroke-linecap:butt;stroke-linejoin:miter;stroke-miterlimit:4;stroke-dasharray:none;stroke-opacity:1"
             id="path10919" /></g><g
           id="g10921"
           transform="translate(262.9961,355.4053)"><path
             d="m 0,0 c -9.876,-3.046 -21.562,-4.917 -33.229,-4.921 -9.742,0.004 -19.472,1.308 -28.109,4.412 -11.269,4.032 -20.805,11.31 -25.41,22.72 -1.875,4.618 -2.929,9.874 -3.02,15.774 -0.061,1.332 -0.375,0.686 -0.926,0.134 -2.242,-2.241 -9.785,-1.864 -12.868,-2.094 -3.321,-0.248 -7.02,-0.607 -9.761,-1.531"
             style="fill:none;stroke:#1a171b;stroke-width:0.75;stroke-linecap:butt;stroke-linejoin:miter;stroke-miterlimit:4;stroke-dasharray:none;stroke-opacity:1"
             id="path10923" /></g><g
           id="g10925"
           transform="translate(221.728,497.2529)"><path
             d="m 0,0 c -17.979,-30.17 -33.833,-66.083 -35.668,-70.417 -5.503,-12.984 -7.84,-23.782 -7.837,-32.608 0.002,-5.681 0.96,-10.545 2.66,-14.734 3.978,-9.813 12.085,-16.14 22.466,-19.891 7.924,-2.855 17.124,-4.121 26.419,-4.118 11.292,-0.003 22.729,1.863 32.171,4.828"
             style="fill:none;stroke:#1a171b;stroke-width:0.75;stroke-linecap:butt;stroke-linejoin:miter;stroke-miterlimit:4;stroke-dasharray:none;stroke-opacity:1"
             id="path10927" /></g><g
           id="g10929"
           transform="translate(310.3789,490.5068)"><path
             d="M 0,0 H 0.002 L 0.003,-0.002 Z M -0.155,5.056 C 6.038,6.193 12.548,6.819 19.057,6.819 29.6,6.815 40.137,5.186 49.271,1.322 56.073,-1.556 62.737,-11.432 65.825,-18.08 l 0.05,-0.081 c 1.17,-2.091 8.13,-2.494 11.437,-4.558 3.433,-2.147 6.88,-12.203 2.65,-15.561 -2.354148,-1.875614 -5.257573,-2.724051 -7.996899,-3.837284 M -34.744,-131.017 c 15.504,4.929 37.059,11.723 56.587,21.074 48.579,23.374 46.522,34.378 49.365,35.346 15.503,5.291 6.037,21.043 0.778,29.735 -2.214902,3.657332 -3.071238,5.988695 -5.58859,9.089292 m -1.928817,2.777497 c -1.657204,2.041162 -2.892334,2.774827 -4.854593,3.197211 -1.539,0.338 -7.399,0.338 -11.785,-5.627 -4.414,-6.015 -5.684,-15.352 0.113,-22.029 2.598,-2.989 8.340227,-10.000987 13.196227,-6.061987 1.667228,1.3502 2.613932,3.044685 2.879746,5.131213 m 0.327331,2.782314 c 0.508081,3.988233 -0.166466,8.011425 2.606696,10.55546 1.461713,1.341496 1.041248,1.113372 2.852826,1.849578 M -35.573,-126.031 c 15.44,4.902 36.44,11.582 55.255,20.596 17.732,8.454 33.37,19.073 40.688,31.635 1.183824,2.03146 -1.214344,5.502766 -2.243519,7.697272 m -1.200214,2.891425 c -0.658252,1.97291 -0.541038,3.413546 0.880733,4.336303 5.824,3.771 16.593662,-1.106445 19.891662,-0.768445 m 2.891425,0.163666 c 4.206,0.433 3.635809,4.049344 5.913809,3.398344 m 2.564094,-0.21822 c 5.259,-1.501 -0.670419,4.579707 0.67801,6.132655 0.44196,0.508994 0.549418,0.881613 1.958986,0.502003 m 2.345873,-0.654663 c 3.399341,-0.915475 10.013151,-1.673452 12.090571,1.833737 1.83626,3.100059 -0.28911,13.69013 -3.71411,10.15113 m -1.90943,-1.254769 c -2.970004,-3.067 -0.0483,-7.018438 -0.20733,-10.389438 m 0.10911,-2.564094 c -0.123,-2.645 -0.34467,-5.275906 -2.50867,-7.208906 -6.605,-5.902 -13.644896,6.617114 -9.395097,7.016559 m 2.345873,0.381886 c 3.095444,0.142756 1.034599,6.410491 -0.09599,11.195937 m -0.490997,2.618649 c -1.423968,4.682222 6.371125,4.297655 8.962208,2.579969 2.09874,-1.391298 6.164,-7.656 0.902,-7.5 m -2.291318,0.436441 c -2.163567,0.06304 -7.391006,3.602746 -15.036456,7.12777 m -2.468885,1.543054 c -3.270227,1.507776 -5.922821,2.650702 -7.661341,2.845735 -4.375,0.49 -9.722,-5.767 -11.879,-5.513 -1.931,0.224 -4.190153,4.768931 -4.153153,6.195931 m 0,2.083123 c 0.077,2.817 3.914153,4.008946 5.085153,6.356946 0.321,0.642 0.37,1.653 -0.163,2.733 -4.217,8.538 -5.356,12.681 -14.606,16.518 C 38.719,0.288 28.939,1.824 19.057,1.82 13.097,1.82 7.104,1.266 1.394,0.257"
             style="fill:none;stroke:#1a171b;stroke-width:0.75;stroke-linecap:butt;stroke-linejoin:miter;stroke-miterlimit:4;stroke-dasharray:none;stroke-opacity:1"
             id="path10931"
             sodipodi:nodetypes="ccccccccccccccccccccccccccccccccccccaccacccccccccaccccccccccccc" /></g><g
           id="g10933"
           transform="translate(191.9712,431.0415)"><path
             d="M 0,0 C 2.734,-0.831 5.251,-1.33 7.315,-1.513 7.967,-1.571 8.619,-1.6 9.275,-1.6 19.306,-1.662 30,5.319 39.799,14.079 c 9.823,8.726 18.641,18.944 25.824,24.842 15.192,12.4 32.086,19.767 39.278,22.196 0.95,0.318 1.916,0.623 2.896,0.914"
             style="fill:none;stroke:#1a171b;stroke-width:0.75;stroke-linecap:butt;stroke-linejoin:miter;stroke-miterlimit:4;stroke-dasharray:none;stroke-opacity:1"
             id="path10935" /></g><g
           id="g10937"
           transform="translate(301.4385,488.3521)"><path
             d="m 0,0 c -1.013,-0.297 -2.007,-0.61 -2.976,-0.934 -6.608,-2.211 -23.21,-9.461 -37.704,-21.326 -6.606,-5.388 -15.567,-15.713 -25.667,-24.707 -10.127,-8.961 -21.501,-16.879 -33.845,-16.943 -0.796,0 -1.598,0.035 -2.405,0.105 -2.914,0.263 -6.285,1.001 -9.888,2.214"
             style="fill:none;stroke:#1a171b;stroke-width:0.75;stroke-linecap:butt;stroke-linejoin:miter;stroke-miterlimit:4;stroke-dasharray:none;stroke-opacity:1"
             id="path10939" /></g><g
           id="g10941"
           transform="translate(178.2231,431.5913)"><path
             d="m 0,0 c -12.366,7.042 -24.464,19.742 -24.476,38.468 0,4.55 0.719,9.418 2.293,14.591 3.261,10.754 9.267,17.975 16.537,22.314 7.269,4.353 15.658,5.882 23.834,5.884 8.661,-0.004 17.128,-1.716 24.021,-3.815 6.921,-2.129 12.126,-4.527 14.709,-6.362 6.119,-4.421 8.897,-11.209 10.388,-18.551 1.265,-6.222 1.682,-13.006 2.302,-19.724"
             style="fill:none;stroke:#1a171b;stroke-width:0.75;stroke-linecap:butt;stroke-linejoin:miter;stroke-miterlimit:4;stroke-dasharray:none;stroke-opacity:1"
             id="path10943" /></g><g
           id="g10945"
           transform="translate(243.0234,462.1665)"><path
             d="m 0,0 c -0.732,7.433 -1.117,14.73 -2.392,20.954 -1.402,6.835 -3.772,12.152 -8.416,15.495 -1.653,1.222 -6.753,3.676 -13.241,5.636 -6.519,1.99 -14.568,3.6 -22.563,3.598 -7.564,0.002 -15.038,-1.435 -21.262,-5.172 -6.221,-3.752 -11.335,-9.743 -14.327,-19.484 -1.441,-4.745 -2.075,-9.112 -2.075,-13.134 -0.013,-16.56 10.798,-27.857 22.392,-34.367"
             style="fill:none;stroke:#1a171b;stroke-width:0.75;stroke-linecap:butt;stroke-linejoin:miter;stroke-miterlimit:4;stroke-dasharray:none;stroke-opacity:1"
             id="path10947" /></g><g
           id="g10949"
           transform="translate(339.4648,393.8721)"><path
             d="m 0,0 c -2.167,4.608 -5.124,7.677 -8.947,8.889 -5.276,1.686 -10.934,2.171 -16.824,2.169 -6.88,0.004 -14.046,-0.658 -21.197,-0.661 -6.953,0.003 -13.938,0.632 -20.587,3.277 l -0.479,0.195 c -5.063,2.125 -9.263,6.602 -13.093,12.224 -3.82,5.64 -7.244,12.517 -10.375,19.701 -1.26,2.888 -2.186,5.909 -2.896,8.992"
             style="fill:none;stroke:#1a171b;stroke-width:0.75;stroke-linecap:butt;stroke-linejoin:miter;stroke-miterlimit:4;stroke-dasharray:none;stroke-opacity:1"
             id="path10951" /></g><g
           id="g10953"
           transform="translate(249.9604,449.6763)"><path
             d="m 0,0 c 0.655,-2.814 1.491,-5.503 2.585,-8.011 3.06,-7.03 6.389,-13.674 9.931,-18.895 3.531,-5.238 7.301,-8.963 10.867,-10.41 l 0.398,-0.16 c 5.771,-2.306 12.091,-2.934 18.755,-2.93 6.839,-0.004 14.006,0.656 21.197,0.66 6.152,-0.002 12.343,-0.49 18.344,-2.406 5.424,-1.729 9.263,-5.937 11.806,-11.206"
             style="fill:none;stroke:#1a171b;stroke-width:0.75;stroke-linecap:butt;stroke-linejoin:miter;stroke-miterlimit:4;stroke-dasharray:none;stroke-opacity:1"
             id="path10955" /></g></g></g></g></svg>
