<?xml version="1.0" encoding="UTF-8" standalone="no"?>
<svg
   xmlns:dc="http://purl.org/dc/elements/1.1/"
   xmlns:cc="http://creativecommons.org/ns#"
   xmlns:rdf="http://www.w3.org/1999/02/22-rdf-syntax-ns#"
   xmlns:svg="http://www.w3.org/2000/svg"
   xmlns="http://www.w3.org/2000/svg"
   xmlns:sodipodi="http://sodipodi.sourceforge.net/DTD/sodipodi-0.dtd"
   xmlns:inkscape="http://www.inkscape.org/namespaces/inkscape"
   version="1.1"
   id="svg2"
   xml:space="preserve"
   width="1000"
   height="550"
   viewBox="0 0 999.99999 550"
   sodipodi:docname="Rductionbis.svg"
   inkscape:version="1.0.2-2 (e86c870879, 2021-01-15)"><metadata
     id="metadata8"><rdf:RDF><cc:Work
         rdf:about=""><dc:format>image/svg+xml</dc:format><dc:type
           rdf:resource="http://purl.org/dc/dcmitype/StillImage" /><dc:title /></cc:Work></rdf:RDF></metadata><defs
     id="defs6"><marker
       inkscape:isstock="true"
       style="overflow:visible"
       id="marker7420"
       refX="0"
       refY="0"
       orient="auto"
       inkscape:stockid="Arrow1Send"><path
         inkscape:connector-curvature="0"
         transform="matrix(-0.2,0,0,-0.2,-1.2,0)"
         style="fill:#000000;fill-opacity:1;fill-rule:evenodd;stroke:#000000;stroke-width:1pt;stroke-opacity:1"
         d="M 0,0 5,-5 -12.5,0 5,5 Z"
         id="path7418" /></marker><marker
       inkscape:isstock="true"
       style="overflow:visible"
       id="marker6147"
       refX="0"
       refY="0"
       orient="auto"
       inkscape:stockid="Arrow1Send"><path
         transform="matrix(-0.2,0,0,-0.2,-1.2,0)"
         style="fill:#000000;fill-opacity:1;fill-rule:evenodd;stroke:#000000;stroke-width:1pt;stroke-opacity:1"
         d="M 0,0 5,-5 -12.5,0 5,5 Z"
         id="path6145"
         inkscape:connector-curvature="0" /></marker><marker
       inkscape:isstock="true"
       style="overflow:visible"
       id="marker5924"
       refX="0"
       refY="0"
       orient="auto"
       inkscape:stockid="Arrow1Send"><path
         transform="matrix(-0.2,0,0,-0.2,-1.2,0)"
         style="fill:#000000;fill-opacity:1;fill-rule:evenodd;stroke:#000000;stroke-width:1pt;stroke-opacity:1"
         d="M 0,0 5,-5 -12.5,0 5,5 Z"
         id="path5922"
         inkscape:connector-curvature="0" /></marker><marker
       inkscape:isstock="true"
       style="overflow:visible"
       id="marker5725"
       refX="0"
       refY="0"
       orient="auto"
       inkscape:stockid="Arrow1Send"><path
         transform="matrix(-0.2,0,0,-0.2,-1.2,0)"
         style="fill:#000000;fill-opacity:1;fill-rule:evenodd;stroke:#000000;stroke-width:1pt;stroke-opacity:1"
         d="M 0,0 5,-5 -12.5,0 5,5 Z"
         id="path5723"
         inkscape:connector-curvature="0" /></marker><marker
       inkscape:isstock="true"
       style="overflow:visible"
       id="marker5550"
       refX="0"
       refY="0"
       orient="auto"
       inkscape:stockid="Arrow1Send"><path
         transform="matrix(-0.2,0,0,-0.2,-1.2,0)"
         style="fill:#000000;fill-opacity:1;fill-rule:evenodd;stroke:#000000;stroke-width:1pt;stroke-opacity:1"
         d="M 0,0 5,-5 -12.5,0 5,5 Z"
         id="path5548"
         inkscape:connector-curvature="0" /></marker><marker
       inkscape:isstock="true"
       style="overflow:visible"
       id="marker5399"
       refX="0"
       refY="0"
       orient="auto"
       inkscape:stockid="Arrow1Send"><path
         transform="matrix(-0.2,0,0,-0.2,-1.2,0)"
         style="fill:#000000;fill-opacity:1;fill-rule:evenodd;stroke:#000000;stroke-width:1pt;stroke-opacity:1"
         d="M 0,0 5,-5 -12.5,0 5,5 Z"
         id="path5397"
         inkscape:connector-curvature="0" /></marker><marker
       inkscape:isstock="true"
       style="overflow:visible"
       id="marker5272"
       refX="0"
       refY="0"
       orient="auto"
       inkscape:stockid="Arrow1Send"><path
         transform="matrix(-0.2,0,0,-0.2,-1.2,0)"
         style="fill:#000000;fill-opacity:1;fill-rule:evenodd;stroke:#000000;stroke-width:1pt;stroke-opacity:1"
         d="M 0,0 5,-5 -12.5,0 5,5 Z"
         id="path5270"
         inkscape:connector-curvature="0" /></marker><marker
       inkscape:isstock="true"
       style="overflow:visible"
       id="marker5169"
       refX="0"
       refY="0"
       orient="auto"
       inkscape:stockid="Arrow1Send"><path
         transform="matrix(-0.2,0,0,-0.2,-1.2,0)"
         style="fill:#000000;fill-opacity:1;fill-rule:evenodd;stroke:#000000;stroke-width:1pt;stroke-opacity:1"
         d="M 0,0 5,-5 -12.5,0 5,5 Z"
         id="path5167"
         inkscape:connector-curvature="0" /></marker><marker
       inkscape:isstock="true"
       style="overflow:visible"
       id="marker5090"
       refX="0"
       refY="0"
       orient="auto"
       inkscape:stockid="Arrow1Send"><path
         transform="matrix(-0.2,0,0,-0.2,-1.2,0)"
         style="fill:#000000;fill-opacity:1;fill-rule:evenodd;stroke:#000000;stroke-width:1pt;stroke-opacity:1"
         d="M 0,0 5,-5 -12.5,0 5,5 Z"
         id="path5088"
         inkscape:connector-curvature="0" /></marker><marker
       inkscape:stockid="Arrow1Send"
       orient="auto"
       refY="0"
       refX="0"
       id="Arrow1Send"
       style="overflow:visible"
       inkscape:isstock="true"
       inkscape:collect="always"><path
         id="path4745"
         d="M 0,0 5,-5 -12.5,0 5,5 Z"
         style="fill:#000000;fill-opacity:1;fill-rule:evenodd;stroke:#000000;stroke-width:1pt;stroke-opacity:1"
         transform="matrix(-0.2,0,0,-0.2,-1.2,0)"
         inkscape:connector-curvature="0" /></marker><marker
       inkscape:stockid="Arrow1Mend"
       orient="auto"
       refY="0"
       refX="0"
       id="Arrow1Mend"
       style="overflow:visible"
       inkscape:isstock="true"><path
         id="path4739"
         d="M 0,0 5,-5 -12.5,0 5,5 Z"
         style="fill:#000000;fill-opacity:1;fill-rule:evenodd;stroke:#000000;stroke-width:1pt;stroke-opacity:1"
         transform="matrix(-0.4,0,0,-0.4,-4,0)"
         inkscape:connector-curvature="0" /></marker><clipPath
       clipPathUnits="userSpaceOnUse"
       id="clipPath18"><path
         d="m 42,-456.3335 c 0,0 101.8252,0 101.8252,0 0,0 0,-91.55664 0,-91.55664 0,0 -101.8252,0 -101.8252,0 0,0 0,91.55664 0,91.55664 z"
         id="path16"
         inkscape:connector-curvature="0" /></clipPath><clipPath
       clipPathUnits="userSpaceOnUse"
       id="clipPath44"><path
         d="m 186.3335,-463.6665 c 0,0 95.00586,0 95.00586,0 0,0 0,-94.33106 0,-94.33106 0,0 -95.00586,0 -95.00586,0 0,0 0,94.33106 0,94.33106 z"
         id="path42"
         inkscape:connector-curvature="0" /></clipPath><clipPath
       clipPathUnits="userSpaceOnUse"
       id="clipPath66"><path
         d="m 311.16406,-406.20605 c 0,0 95.00586,0 95.00586,0 0,0 0,-94.33106 0,-94.33106 0,0 -95.00586,0 -95.00586,0 0,0 0,94.33106 0,94.33106 z"
         id="path64"
         inkscape:connector-curvature="0" /></clipPath><marker
       inkscape:stockid="Arrow1Send"
       orient="auto"
       refY="0"
       refX="0"
       id="Arrow1Send-8"
       style="overflow:visible"
       inkscape:isstock="true"><path
         inkscape:connector-curvature="0"
         id="path4745-9"
         d="M 0,0 5,-5 -12.5,0 5,5 Z"
         style="fill:#000000;fill-opacity:1;fill-rule:evenodd;stroke:#000000;stroke-width:1pt;stroke-opacity:1"
         transform="matrix(-0.2,0,0,-0.2,-1.2,0)" /></marker><marker
       inkscape:stockid="Arrow1Send"
       orient="auto"
       refY="0"
       refX="0"
       id="Arrow1Send-6"
       style="overflow:visible"
       inkscape:isstock="true"><path
         inkscape:connector-curvature="0"
         id="path4745-3"
         d="M 0,0 5,-5 -12.5,0 5,5 Z"
         style="fill:#000000;fill-opacity:1;fill-rule:evenodd;stroke:#000000;stroke-width:1pt;stroke-opacity:1"
         transform="matrix(-0.2,0,0,-0.2,-1.2,0)" /></marker><marker
       inkscape:stockid="Arrow1Send"
       orient="auto"
       refY="0"
       refX="0"
       id="Arrow1Send-5"
       style="overflow:visible"
       inkscape:isstock="true"><path
         inkscape:connector-curvature="0"
         id="path4745-8"
         d="M 0,0 5,-5 -12.5,0 5,5 Z"
         style="fill:#000000;fill-opacity:1;fill-rule:evenodd;stroke:#000000;stroke-width:1pt;stroke-opacity:1"
         transform="matrix(-0.2,0,0,-0.2,-1.2,0)" /></marker><marker
       inkscape:stockid="Arrow1Send"
       orient="auto"
       refY="0"
       refX="0"
       id="Arrow1Send-3"
       style="overflow:visible"
       inkscape:isstock="true"><path
         inkscape:connector-curvature="0"
         id="path4745-95"
         d="M 0,0 5,-5 -12.5,0 5,5 Z"
         style="fill:#000000;fill-opacity:1;fill-rule:evenodd;stroke:#000000;stroke-width:1pt;stroke-opacity:1"
         transform="matrix(-0.2,0,0,-0.2,-1.2,0)" /></marker><marker
       inkscape:stockid="Arrow1Send"
       orient="auto"
       refY="0"
       refX="0"
       id="Arrow1Send-4"
       style="overflow:visible"
       inkscape:isstock="true"><path
         inkscape:connector-curvature="0"
         id="path4745-0"
         d="M 0,0 5,-5 -12.5,0 5,5 Z"
         style="fill:#000000;fill-opacity:1;fill-rule:evenodd;stroke:#000000;stroke-width:1pt;stroke-opacity:1"
         transform="matrix(-0.2,0,0,-0.2,-1.2,0)" /></marker><marker
       inkscape:stockid="Arrow1Send"
       orient="auto"
       refY="0"
       refX="0"
       id="Arrow1Send-7"
       style="overflow:visible"
       inkscape:isstock="true"><path
         inkscape:connector-curvature="0"
         id="path4745-4"
         d="M 0,0 5,-5 -12.5,0 5,5 Z"
         style="fill:#000000;fill-opacity:1;fill-rule:evenodd;stroke:#000000;stroke-width:1pt;stroke-opacity:1"
         transform="matrix(-0.2,0,0,-0.2,-1.2,0)" /></marker><marker
       inkscape:stockid="Arrow1Send"
       orient="auto"
       refY="0"
       refX="0"
       id="Arrow1Send-2"
       style="overflow:visible"
       inkscape:isstock="true"><path
         inkscape:connector-curvature="0"
         id="path4745-2"
         d="M 0,0 5,-5 -12.5,0 5,5 Z"
         style="fill:#000000;fill-opacity:1;fill-rule:evenodd;stroke:#000000;stroke-width:1pt;stroke-opacity:1"
         transform="matrix(-0.2,0,0,-0.2,-1.2,0)" /></marker><marker
       inkscape:stockid="Arrow1Send"
       orient="auto"
       refY="0"
       refX="0"
       id="Arrow1Send-67"
       style="overflow:visible"
       inkscape:isstock="true"><path
         inkscape:connector-curvature="0"
         id="path4745-91"
         d="M 0,0 5,-5 -12.5,0 5,5 Z"
         style="fill:#000000;fill-opacity:1;fill-rule:evenodd;stroke:#000000;stroke-width:1pt;stroke-opacity:1"
         transform="matrix(-0.2,0,0,-0.2,-1.2,0)" /></marker></defs><sodipodi:namedview
     pagecolor="#ffffff"
     bordercolor="#666666"
     borderopacity="1"
     objecttolerance="10"
     gridtolerance="10"
     guidetolerance="10"
     inkscape:pageopacity="0"
     inkscape:pageshadow="2"
     inkscape:window-width="1920"
     inkscape:window-height="1001"
     id="namedview4"
     showgrid="true"
     inkscape:zoom="1"
     inkscape:cx="572.9994"
     inkscape:cy="311.3963"
     inkscape:window-x="-9"
     inkscape:window-y="-9"
     inkscape:window-maximized="1"
     inkscape:current-layer="g10"
     inkscape:document-rotation="0"
     inkscape:snap-global="false"
     fit-margin-top="0"
     fit-margin-left="0"
     fit-margin-right="0"
     fit-margin-bottom="0"><inkscape:grid
       type="xygrid"
       id="grid22258"
       originx="-110.90163"
       originy="-579.99472" /></sodipodi:namedview><g
     inkscape:groupmode="layer"
     id="layer1"
     inkscape:label="ellipse"
     transform="translate(-110.90165,-579.99474)" /><g
     id="g10"
     inkscape:groupmode="layer"
     inkscape:label="Rductionbis"
     transform="matrix(1.3333333,0,0,-1.3333333,-110.90165,540.00526)"><path
       id="rect22532"
       style="fill:#e3dbdb;stroke:#c8b7b7;stroke-width:1.275;stroke-miterlimit:4;stroke-dasharray:none;stop-color:#000000;font-variation-settings:normal;opacity:1;vector-effect:none;fill-opacity:1;stroke-linecap:butt;stroke-linejoin:miter;stroke-dashoffset:0;stroke-opacity:1;stop-opacity:1"
       transform="scale(1,-1)"
       d="m 424.80124,-188.25395 h 189 v 53.625 h -189 z" /><rect
       style="fill:#e3dbdb;stroke:#c8b7b7;stroke-width:1.275;stroke-miterlimit:4;stroke-dasharray:none;stop-color:#000000;font-variation-settings:normal;opacity:1;vector-effect:none;fill-opacity:1;stroke-linecap:butt;stroke-linejoin:miter;stroke-dashoffset:0;stroke-opacity:1;stop-opacity:1"
       id="rect22474"
       width="212.25"
       height="69.75"
       x="604.42627"
       y="-395.25397"
       transform="scale(1,-1)" /><rect
       style="fill:#e3dbdb;stroke:#c8b7b7;stroke-width:1.275;stroke-miterlimit:4;stroke-dasharray:none;stop-color:#000000;font-variation-settings:normal;opacity:1;vector-effect:none;fill-opacity:1;stroke-linecap:butt;stroke-linejoin:miter;stroke-dashoffset:0;stroke-opacity:1;stop-opacity:1"
       id="rect22388"
       width="239.28758"
       height="46.537586"
       x="323.15744"
       y="-394.52277"
       transform="scale(1,-1)" /><rect
       style="fill:#e3dbdb;stroke:#c8b7b7;stroke-width:1.275;stroke-miterlimit:4;stroke-dasharray:none;stop-color:#000000"
       id="rect22390"
       width="190.5"
       height="84.75"
       x="98.176239"
       y="-393.75397"
       transform="scale(1,-1)" /><g
       id="g22364"
       transform="translate(60.000002,-48.000001)"><path
         d="m 150.92397,298.54235 c 5.48279,12.28043 1.07364,33.7558 -28.92636,32.10346 -30,-1.6543 -22.464432,-48.99151 -7.67732,-56.07744 14.78808,-7.08692 30.40012,-1.37294 33.70725,-0.52333"
         style="vector-effect:none;fill:none;fill-opacity:1;stroke:#ff2a2a;stroke-width:1.875;stroke-linecap:butt;stroke-linejoin:miter;stroke-miterlimit:4;stroke-dasharray:none;stroke-dashoffset:0;stroke-opacity:1"
         id="path20"
         inkscape:connector-curvature="0"
         sodipodi:nodetypes="cccc" /><path
         d="m 155.18716,276.80962 c 7.6977,3.14135 7.9125,10.13502 1.06241,14.15064 -6.85059,4.0166 -19.60694,11.90528 -23.14991,14.69336"
         style="vector-effect:none;fill:none;fill-opacity:1;stroke:#000000;stroke-width:1.875;stroke-linecap:butt;stroke-linejoin:miter;stroke-miterlimit:4;stroke-dasharray:none;stroke-dashoffset:0;stroke-opacity:1"
         id="path22"
         inkscape:connector-curvature="0"
         sodipodi:nodetypes="ccc" /><path
         d="m 125.85728,311.38331 c -4.86914,2.9633 -8.20635,8.69641 -5.51348,15.73889"
         style="vector-effect:none;fill:none;fill-opacity:1;stroke:#000000;stroke-width:1.875;stroke-linecap:butt;stroke-linejoin:miter;stroke-miterlimit:4;stroke-dasharray:none;stroke-dashoffset:0;stroke-opacity:1"
         id="path24"
         inkscape:connector-curvature="0"
         sodipodi:nodetypes="cc" /><path
         d="m 123.86692,334.27388 c 4.98079,14.07512 55.63069,26.47838 71.45393,-13.07729 10.771,-26.92871 -8.61886,-31.91036 -14.99667,-24.33165"
         style="vector-effect:none;fill:none;fill-opacity:1;stroke:#000000;stroke-width:1.875;stroke-linecap:butt;stroke-linejoin:miter;stroke-miterlimit:4;stroke-dasharray:none;stroke-dashoffset:0;stroke-opacity:1"
         id="path26"
         inkscape:connector-curvature="0"
         sodipodi:nodetypes="ccc" /><path
         d="m 174.9107,301.68487 c -4.72412,5.6416 -16.77197,28.25196 -25.03906,24.47266"
         style="vector-effect:none;fill:none;fill-opacity:1;stroke:#000000;stroke-width:1.875;stroke-linecap:butt;stroke-linejoin:miter;stroke-miterlimit:4;stroke-dasharray:none;stroke-dashoffset:0;stroke-opacity:1"
         id="path28"
         inkscape:connector-curvature="0" /><path
         d="M 142.67493,322.24832 C 128.33401,313.1462 117.34338,296.93808 122.06701,277.23691"
         style="vector-effect:none;fill:none;fill-opacity:1;stroke:#000000;stroke-width:1.875;stroke-linecap:butt;stroke-linejoin:miter;stroke-miterlimit:4;stroke-dasharray:none;stroke-dashoffset:0;stroke-opacity:1"
         id="path30"
         inkscape:connector-curvature="0"
         sodipodi:nodetypes="cc" /><path
         d="m 124.36101,267.96974 c 3.48769,-15.69987 36.17998,-22.64098 43.41872,-8.10564"
         style="vector-effect:none;fill:none;fill-opacity:1;stroke:#000000;stroke-width:1.875;stroke-linecap:butt;stroke-linejoin:miter;stroke-miterlimit:4;stroke-dasharray:none;stroke-dashoffset:0;stroke-opacity:1"
         id="path32"
         inkscape:connector-curvature="0"
         sodipodi:nodetypes="cc" /><path
         d="m 171.19666,265.36307 c 5.9734,11.35309 1.6584,57.23652 23.9811,36.70089"
         style="vector-effect:none;fill:none;fill-opacity:1;stroke:#000000;stroke-width:1.875;stroke-linecap:butt;stroke-linejoin:miter;stroke-miterlimit:4;stroke-dasharray:none;stroke-dashoffset:0;stroke-opacity:1"
         id="path34"
         inkscape:connector-curvature="0"
         sodipodi:nodetypes="cc" /><path
         d="m 199.9931,298.51826 c 10.3265,-7.34298 -4.62537,-46.53456 -25.36512,-38.03065 -20.74023,8.5039 -30.61425,20.0791 -26.36328,31.18164"
         style="vector-effect:none;fill:none;fill-opacity:1;stroke:#000000;stroke-width:1.875;stroke-linecap:butt;stroke-linejoin:miter;stroke-miterlimit:4;stroke-dasharray:none;stroke-dashoffset:0;stroke-opacity:1"
         id="path36"
         inkscape:connector-curvature="0"
         sodipodi:nodetypes="ccc" /></g><g
       id="g22341"
       transform="translate(162,-12.75)"><path
         d="m 300.85313,298.15662 c 4.88953,11.14791 -8.90593,15.46722 -17.62273,5.15961 -10.86523,-12.85059 1.39199,-37.77023 15.71991,-31.22722"
         style="vector-effect:none;fill:none;fill-opacity:1;stroke:#ff0000;stroke-width:1.875;stroke-linecap:butt;stroke-linejoin:miter;stroke-miterlimit:4;stroke-dasharray:none;stroke-dashoffset:0;stroke-opacity:1"
         id="path68"
         inkscape:connector-curvature="0"
         sodipodi:nodetypes="ccc" /><path
         d="m 304.62158,274.74734 c 15.54655,11.33461 -12.70332,23.65534 -18.05855,27.61008"
         style="vector-effect:none;fill:none;fill-opacity:1;stroke:#000000;stroke-width:1.875;stroke-linecap:butt;stroke-linejoin:miter;stroke-miterlimit:4;stroke-dasharray:none;stroke-dashoffset:0;stroke-opacity:1"
         id="path70"
         inkscape:connector-curvature="0"
         sodipodi:nodetypes="cc" /><path
         d="m 281.35259,305.40619 c -4.12251,3.10598 -6.35452,7.25038 -7.73521,12.5312"
         style="vector-effect:none;fill:none;fill-opacity:1;stroke:#000000;stroke-width:1.875;stroke-linecap:butt;stroke-linejoin:miter;stroke-miterlimit:4;stroke-dasharray:none;stroke-dashoffset:0;stroke-opacity:1"
         id="path72"
         inkscape:connector-curvature="0"
         sodipodi:nodetypes="cc" /><path
         d="m 272.57765,324.03361 c -3.90919,24.97918 57.09904,36.03652 72.92131,-3.51914 10.77246,-26.92969 -6.29585,-29.69311 -12.50686,-25.45318"
         style="vector-effect:none;fill:none;fill-opacity:1;stroke:#000000;stroke-width:1.875;stroke-linecap:butt;stroke-linejoin:miter;stroke-miterlimit:4;stroke-dasharray:none;stroke-dashoffset:0;stroke-opacity:1"
         id="path74"
         inkscape:connector-curvature="0"
         sodipodi:nodetypes="ccc" /><path
         d="m 328.26385,298.75707 c -11.02832,8.36035 -9.03345,25.7242 -28.21411,26.71834 -18.3584,0.95117 -43.74805,-3.45118 -41.8584,-35.48243 0.99317,-16.83105 30.23633,-50.55078 55.27539,-31.18066"
         style="vector-effect:none;fill:none;fill-opacity:1;stroke:#000000;stroke-width:1.875;stroke-linecap:butt;stroke-linejoin:miter;stroke-miterlimit:4;stroke-dasharray:none;stroke-dashoffset:0;stroke-opacity:1"
         id="path76"
         inkscape:connector-curvature="0"
         sodipodi:nodetypes="cccc" /><path
         d="m 319.858,263.74085 c 13.02322,10.7917 5.3015,52.43961 25.2849,37.74723"
         style="vector-effect:none;fill:none;fill-opacity:1;stroke:#000000;stroke-width:1.875;stroke-linecap:butt;stroke-linejoin:miter;stroke-miterlimit:4;stroke-dasharray:none;stroke-dashoffset:0;stroke-opacity:1"
         id="path78"
         inkscape:connector-curvature="0"
         sodipodi:nodetypes="cc" /><path
         d="m 350.22422,297.35304 c 13.15234,-8.84513 -2.74186,-42.32099 -25.41862,-37.54658 -21.93457,4.61719 -30.61426,20.07813 -26.3623,31.18066"
         style="vector-effect:none;fill:none;fill-opacity:1;stroke:#000000;stroke-width:1.875;stroke-linecap:butt;stroke-linejoin:miter;stroke-miterlimit:4;stroke-dasharray:none;stroke-dashoffset:0;stroke-opacity:1"
         id="path80"
         inkscape:connector-curvature="0"
         sodipodi:nodetypes="ccc" /></g><g
       id="g6906"
       transform="translate(198.64075,-155.24402)"
       style="stroke-width:1.875;stroke-miterlimit:4;stroke-dasharray:none"
       inkscape:export-xdpi="300"
       inkscape:export-ydpi="300"><path
         d="m 532.50345,423.66602 c -7.40395,5.5645 -17.44821,29.13625 -40.16947,28 -31.31267,-1.56589 -24.87984,-69.4552 7.13271,-56.81627"
         style="fill:none;stroke:#000000;stroke-width:1.875;stroke-linecap:butt;stroke-linejoin:miter;stroke-miterlimit:4;stroke-dasharray:none;stroke-opacity:1"
         id="path84"
         inkscape:connector-curvature="0"
         sodipodi:nodetypes="csc" /><path
         d="m 505.66699,398 c 6.66699,2.33398 34.33399,35 46.66699,29"
         style="fill:none;stroke:#000000;stroke-width:1.875;stroke-linecap:butt;stroke-linejoin:miter;stroke-miterlimit:4;stroke-dasharray:none;stroke-opacity:1"
         id="path86"
         inkscape:connector-curvature="0" /><path
         d="M 558.79406,424.52072 C 572.67193,417.83645 581.00098,382 560.33398,388"
         style="fill:none;stroke:#000000;stroke-width:1.875;stroke-linecap:butt;stroke-linejoin:miter;stroke-miterlimit:4;stroke-dasharray:none;stroke-opacity:1"
         id="path88"
         inkscape:connector-curvature="0"
         sodipodi:nodetypes="cc" /><path
         d="M 552.65483,390.00275 C 538.99549,393.66602 528.00098,375 544.00098,368 c 15.37793,-6.72852 51.50353,13.9902 30.50687,23.1619"
         style="fill:none;stroke:#000000;stroke-width:1.875;stroke-linecap:butt;stroke-linejoin:miter;stroke-miterlimit:4;stroke-dasharray:none;stroke-opacity:1"
         id="path90"
         inkscape:connector-curvature="0"
         sodipodi:nodetypes="ccc" /><path
         d="M 568.82378,393.33635 C 556.83869,397.16621 552,378.66602 540.66699,378"
         style="fill:none;stroke:#000000;stroke-width:1.875;stroke-linecap:butt;stroke-linejoin:miter;stroke-miterlimit:4;stroke-dasharray:none;stroke-opacity:1"
         id="path92"
         inkscape:connector-curvature="0"
         sodipodi:nodetypes="cc" /><path
         d="m 533.32024,377.33635 c -32.33182,-2.99176 -47.73847,47.61686 -38.40449,70.61686"
         style="fill:none;stroke:#000000;stroke-width:1.875;stroke-linecap:butt;stroke-linejoin:miter;stroke-miterlimit:4;stroke-dasharray:none;stroke-opacity:1"
         id="path94"
         inkscape:connector-curvature="0"
         sodipodi:nodetypes="cc" /><path
         d="m 499.55024,455.29555 c 4,9.33398 22.98215,18.36283 44.11675,5.03843 22.88981,-14.43098 12.97039,-56.88727 -6.43647,-41.02854"
         style="fill:none;stroke:#000000;stroke-width:1.875;stroke-linecap:butt;stroke-linejoin:miter;stroke-miterlimit:4;stroke-dasharray:none;stroke-opacity:1"
         id="path96"
         inkscape:connector-curvature="0"
         sodipodi:nodetypes="csc" /></g><g
       id="g7272"
       transform="translate(165.24229,-203.82189)"
       style="stroke-width:1.875;stroke-miterlimit:4;stroke-dasharray:none"
       inkscape:export-xdpi="300"
       inkscape:export-ydpi="300"><path
         d="m 563.33398,280.66602 c -11.12402,16.25683 -23.10839,36.13281 -45.93847,25.60449 -21.89551,-10.09668 -22.29317,-61.81362 9.59625,-53.93535"
         style="fill:none;stroke:#000000;stroke-width:1.875;stroke-linecap:butt;stroke-linejoin:miter;stroke-miterlimit:4;stroke-dasharray:none;stroke-opacity:1"
         id="path112"
         inkscape:connector-curvature="0"
         sodipodi:nodetypes="ccc" /><path
         d="m 534.34066,253.83654 c 10.77734,3.40332 40.81305,38.99957 53.64835,29.49922"
         style="fill:none;stroke:#000000;stroke-width:1.875;stroke-linecap:butt;stroke-linejoin:miter;stroke-miterlimit:4;stroke-dasharray:none;stroke-opacity:1"
         id="path114"
         inkscape:connector-curvature="0"
         sodipodi:nodetypes="cc" /><path
         d="m 592.48841,278.64263 c 18.02889,-17.42791 11.0291,-51.0131 -6.79803,-40.19189"
         style="fill:none;stroke:#000000;stroke-width:1.875;stroke-linecap:butt;stroke-linejoin:miter;stroke-miterlimit:4;stroke-dasharray:none;stroke-opacity:1"
         id="path116"
         inkscape:connector-curvature="0"
         sodipodi:nodetypes="cc" /><path
         d="m 582.50925,240.74537 c -13.53792,9.45449 4.10591,-21.29149 7.51032,-5.92268"
         style="fill:none;stroke:#000000;stroke-width:1.875;stroke-linecap:butt;stroke-linejoin:miter;stroke-miterlimit:4;stroke-dasharray:none;stroke-opacity:1"
         id="path118"
         inkscape:connector-curvature="0"
         sodipodi:nodetypes="cc" /><path
         d="m 590.46812,238.47494 c 1.42734,5.65272 -5.22925,1.9176 -9.58488,-0.92568"
         style="fill:none;stroke:#000000;stroke-width:1.875;stroke-linecap:butt;stroke-linejoin:miter;stroke-miterlimit:4;stroke-dasharray:none;stroke-opacity:1"
         id="path120"
         inkscape:connector-curvature="0"
         sodipodi:nodetypes="cc" /><path
         d="m 577.26871,235.47286 c -8.86285,-5.38134 -66.79044,-6.33403 -48.93629,70.5189"
         style="fill:none;stroke:#000000;stroke-width:1.875;stroke-linecap:butt;stroke-linejoin:miter;stroke-miterlimit:4;stroke-dasharray:none;stroke-opacity:1"
         id="path122"
         inkscape:connector-curvature="0"
         sodipodi:nodetypes="cc" /><path
         d="m 530.66974,313.67092 c 4.6252,18.23043 36.07049,12.72459 44.64569,4.19431 6.68848,-6.65429 15.07715,-20.79101 16.46289,-30.41601 1.4375,-9.98047 -15.5474,-23.55721 -23.93413,-12.78654"
         style="fill:none;stroke:#000000;stroke-width:1.875;stroke-linecap:butt;stroke-linejoin:miter;stroke-miterlimit:4;stroke-dasharray:none;stroke-opacity:1"
         id="path124"
         inkscape:connector-curvature="0"
         sodipodi:nodetypes="cccc" /></g><g
       id="g7281"
       transform="translate(-139.9954,-123.88761)"
       style="stroke-width:1.875;stroke-miterlimit:4;stroke-dasharray:none"
       inkscape:export-xdpi="300"
       inkscape:export-ydpi="300"><path
         d="m 642.33496,216.66504 c -4,-9.66699 -43.33398,-19.99902 -35.66699,-42.33301 7.66699,-22.33398 31.33301,-32.33301 47.33301,-29"
         style="fill:none;stroke:#000000;stroke-width:1.875;stroke-linecap:butt;stroke-linejoin:miter;stroke-miterlimit:4;stroke-dasharray:none;stroke-opacity:1"
         id="path126"
         inkscape:connector-curvature="0" /><path
         d="m 659.33496,146.66504 c 6,1.66699 12,14.33301 12.33301,5"
         style="fill:none;stroke:#000000;stroke-width:1.875;stroke-linecap:butt;stroke-linejoin:miter;stroke-miterlimit:4;stroke-dasharray:none;stroke-opacity:1"
         id="path128"
         inkscape:connector-curvature="0" /><path
         d="m 671.76491,148.2145 c 0.25564,-5.70313 -12.65456,-8.5397 -14.76393,-2.21645 -1.33399,4 0.52887,8.00097 6.05673,5.80511"
         style="fill:none;stroke:#000000;stroke-width:1.875;stroke-linecap:butt;stroke-linejoin:miter;stroke-miterlimit:4;stroke-dasharray:none;stroke-opacity:1"
         id="path130"
         inkscape:connector-curvature="0"
         sodipodi:nodetypes="ccc" /><path
         d="m 667.66797,150.33203 c 7,-1.66699 18.05859,0.35742 24,12.66602 9.33301,19.33398 11.33203,55 -35.66699,53.66699"
         style="fill:none;stroke:#000000;stroke-width:1.875;stroke-linecap:butt;stroke-linejoin:miter;stroke-miterlimit:4;stroke-dasharray:none;stroke-opacity:1"
         id="path132"
         inkscape:connector-curvature="0" /><path
         d="m 637.5459,213.74024 c -3.70313,5.56835 4.51465,7.27433 9.07227,2.02238"
         style="fill:none;stroke:#000000;stroke-width:1.875;stroke-linecap:butt;stroke-linejoin:miter;stroke-miterlimit:4;stroke-dasharray:none;stroke-opacity:1"
         id="path134"
         inkscape:connector-curvature="0"
         sodipodi:nodetypes="cc" /><path
         d="m 648.72558,213.19336 c 3.74219,-4.62696 6.56446,-0.0254 5.56446,4.97461 -1,5 -8.61231,6.85449 -10.85156,1.875"
         style="fill:none;stroke:#000000;stroke-width:1.875;stroke-linecap:butt;stroke-linejoin:miter;stroke-miterlimit:4;stroke-dasharray:none;stroke-opacity:1"
         id="path136"
         inkscape:connector-curvature="0"
         sodipodi:nodetypes="csc" /><path
         d="m 639.46192,210.7168 c 3.25781,-5.00977 7.27636,6.57617 13.3496,6.01367"
         style="fill:none;stroke:#000000;stroke-width:1.875;stroke-linecap:butt;stroke-linejoin:miter;stroke-miterlimit:4;stroke-dasharray:none;stroke-opacity:1"
         id="path138"
         inkscape:connector-curvature="0"
         sodipodi:nodetypes="cc" /></g><path
       inkscape:connector-curvature="0"
       id="path140"
       style="fill:#000000;fill-opacity:1;fill-rule:nonzero;stroke:none"
       d="m 371.15734,62.739069 c 1.17187,-6.7334 -0.56836,-12.863279 -5.17188,-18.219729 -8.0957,-9.41992 -20.43847,-13.94238 -30.37695,-14.69629 -1.23438,-0.0937 -0.33399,3 -3.66797,3 -2.50488,0 -2.5,-3.16699 -3.81738,-3.13476 -11.05958,0.27051 -27.41896,0.52832 -36.33302,26.630859 -2.37109,6.94238 -1.68945,13.34472 2.02344,19.0293 6.73144,10.30664 22.05078,15.99316 30.64259,18.07812 2.12109,0.51465 3.15527,-2.22656 5.48437,-2.10352 3.16797,0.167 2.71289,3.19434 4.33398,3.15723 8.08204,-0.18359 15.68457,-2.53906 21.79688,-6.81445 8.00781,-5.60156 13.22461,-14.22071 15.08594,-24.92676 z m -37.55078,32.75195 c -1.43164,0.0108 -2.87793,2.62207 -4.33204,2.49903 -1.06835,-0.0908 -2.55273,-2.99512 -4.32421,-3.38868 -8.85158,-1.96875 -24.87404,-7.83496 -31.97462,-18.70605 -3.88965,-5.95605 -4.60743,-12.65039 -2.13184,-19.89844 9.13965,-26.766599 22.1709,-27.017579 37.25978,-27.308589 0,0 1.67089,-0.53223 1.67089,-0.53223 1.63477,-1.00195 1.5254,-1.53808 2.33399,-1.5 1.00195,0.0469 2,1.66602 3,1.83301 9.98437,1.66797 23.86719,6.33887 31.63672,15.37891 4.80664,5.59375 6.62304,11.999999 5.39844,19.042969 -1.90918,10.97363 -7.26758,19.81738 -15.49805,25.57421 -6.44922,4.51075 -14.50391,6.93946 -23.03906,7.00586 z"
       inkscape:export-xdpi="300"
       inkscape:export-ydpi="300" /><path
       inkscape:connector-curvature="0"
       id="path142"
       style="fill:#000000;fill-opacity:1;fill-rule:nonzero;stroke:none"
       d="m 209.42379,89.489069 c 1.41602,-1.16699 3.18262,1.93653 4.3418,1.25977 1.02343,-0.59863 8.11523,-8.16113 10.69922,-18.02832 0.33789,-1.29102 -3.36719,-2.78906 -3.20704,-4.14844 0.25586,-1.47461 3.96875,-2.66699 4.31739,-4.16699 0.34863,-1.5 -1.92871,-9.702149 -5.52344,-13.885739 -8.0957,-9.41993 -20.43848,-13.94239 -30.37793,-14.69629 -1.23437,-0.0937 -0.33398,3 -3.66699,3 -2.50487,0 -2.49999,-3.167 -3.81737,-3.13477 -10.81739,0.26465 -26.70313,0.5166 -35.73536,24.947269 -0.20312,0.54882 1.91504,1.94629 1.71973,2.51953 -0.34668,1.01367 -2.94531,1.17969 -3.16113,2.16992 -1.26367,5.79102 -0.0605,11.01758 2.86621,16.02344 2.04492,1.16113 4.73242,-0.27637 6.29492,2.22363 0.4375,1.8125 -1.0791,3.49805 -0.41406,4.21777 0.66406,0.71973 18.16406,10.03516 24.76172,11.63672 2.12207,0.51465 3.15625,-2.22656 5.48535,-2.10351 3.16698,0.16699 2.7119,3.194331 4.333,3.157221 8.08203,-0.18359 21.42773,-5.470701 21.79785,-6.814451 0.37011,-1.34375 -2.12989,-3.00977 -0.71387,-4.17676 z m -21.75195,12.001961 c -1.43164,0.0107 -2.87695,2.62207 -4.33202,2.49902 -1.06836,-0.0908 -2.55274,-2.99512 -4.32422,-3.38867 -6.78125,-1.508791 -17.77344,-5.304691 -25.73535,-11.885751 -0.39942,-0.33007 -0.72364,-0.1748 -1.10645,-0.51855 -0.5625,-0.50586 -2.1875,0.75 -3.3125,-0.25 -1.37891,-1.22559 -0.83203,-4.54004 -1.81934,-6.05176 -3.31738,-5.08008 -4.32714,-10.69726 -3.01757,-16.73633 0.22558,-1.04199 -1.71582,-2.4375 -1.35059,-3.5039 0.27832,-0.81641 2.79688,-1.26563 3.08203,-2.03321 9.09082,-24.407219 21.78516,-24.651359 36.41406,-24.933589 0,0 1.66993,-0.53223 1.66993,-0.53223 1.63476,-1.00195 1.52636,-1.53808 2.33397,-1.5 1.00195,0.0469 2,1.66602 3,1.83301 9.98535,1.66797 23.86719,6.33887 31.63672,15.37891 3.97656,4.62793 5.90723,9.812499 5.76074,15.454099 -0.0303,1.17676 1.14746,2.36719 0.93652,3.58301 -0.18359,1.05566 -1.69824,2.09765 -1.94531,3.11328 -2.00195,8.22949 -6.0664,15.1084 -11.92187,20.18457 -0.48828,0.42285 0.2959,2.05469 -0.2168,2.45215 -0.4668,0.36133 -2.22656,-0.50977 -2.71289,-0.16992 -6.44922,4.51074 -14.50293,6.939451 -23.03906,7.005861 z"
       inkscape:export-xdpi="300"
       inkscape:export-ydpi="300" /><path
       inkscape:connector-curvature="0"
       id="path144"
       style="fill:none;stroke:#000000;stroke-width:2.00025;stroke-linecap:round;stroke-linejoin:miter;stroke-miterlimit:4;stroke-dasharray:none;stroke-opacity:1;marker-end:url(#Arrow1Send)"
       d="m 311.87086,265.51829 48.54825,9.48133"
       inkscape:export-xdpi="300"
       inkscape:export-ydpi="300"
       sodipodi:nodetypes="cc" /><path
       inkscape:connector-curvature="0"
       id="path150"
       style="opacity:1;vector-effect:none;fill:none;fill-opacity:1;stroke:#000000;stroke-width:2.00025;stroke-linecap:round;stroke-linejoin:miter;stroke-miterlimit:4;stroke-dasharray:none;stroke-dashoffset:0;stroke-opacity:1;marker-end:url(#marker5090)"
       d="m 555.59372,278.10601 51.3755,-5.76634"
       inkscape:export-xdpi="300"
       inkscape:export-ydpi="300"
       sodipodi:nodetypes="cc" /><path
       inkscape:connector-curvature="0"
       id="path156"
       style="opacity:1;vector-effect:none;fill:none;fill-opacity:1;stroke:#000000;stroke-width:2.00025;stroke-linecap:round;stroke-linejoin:miter;stroke-miterlimit:4;stroke-dasharray:none;stroke-dashoffset:0;stroke-opacity:1;marker-end:url(#marker5399)"
       d="m 706.73836,208.30075 -1.45944,-44.52134"
       inkscape:export-xdpi="300"
       inkscape:export-ydpi="300"
       sodipodi:nodetypes="cc" /><path
       inkscape:connector-curvature="0"
       id="path162"
       style="opacity:1;vector-effect:none;fill:none;fill-opacity:1;stroke:#000000;stroke-width:2.00025;stroke-linecap:round;stroke-linejoin:miter;stroke-miterlimit:4;stroke-dasharray:none;stroke-dashoffset:0;stroke-opacity:1;marker-end:url(#marker5169)"
       d="m 645.85094,60.442689 -64.93949,0.16506"
       inkscape:export-xdpi="300"
       inkscape:export-ydpi="300"
       sodipodi:nodetypes="cc" /><path
       inkscape:connector-curvature="0"
       id="path168"
       style="opacity:1;vector-effect:none;fill:none;fill-opacity:1;stroke:#000000;stroke-width:2.00025;stroke-linecap:round;stroke-linejoin:miter;stroke-miterlimit:4;stroke-dasharray:none;stroke-dashoffset:0;stroke-opacity:1;marker-end:url(#marker5272)"
       d="m 438.10361,57.809609 -44.62839,-0.831"
       inkscape:export-xdpi="300"
       inkscape:export-ydpi="300"
       sodipodi:nodetypes="cc" /><path
       inkscape:connector-curvature="0"
       id="path192"
       style="opacity:1;vector-effect:none;fill:none;fill-opacity:1;stroke:#000000;stroke-width:2.00025;stroke-linecap:round;stroke-linejoin:miter;stroke-miterlimit:4;stroke-dasharray:none;stroke-dashoffset:0;stroke-opacity:1;marker-end:url(#marker6147)"
       d="m 261.99864,65.443949 c 0,0 -14.25423,-0.0169 -14.25423,-0.0169"
       inkscape:export-xdpi="300"
       inkscape:export-ydpi="300" /><text
       xml:space="preserve"
       style="font-size:12px;line-height:1.25;font-family:Arial;-inkscape-font-specification:Arial;letter-spacing:0px;word-spacing:0px;stroke-width:0.750003"
       x="104.17624"
       y="-378.00397"
       id="text22310"
       transform="scale(0.99999999,-1)"><tspan
         sodipodi:role="line"
         id="tspan22314"
         x="104.17624"
         y="-378.00397"
         style="font-style:normal;font-variant:normal;font-weight:normal;font-stretch:normal;font-size:12px;font-family:Calibri;-inkscape-font-specification:'Calibri, Normal';font-variant-ligatures:normal;font-variant-caps:normal;font-variant-numeric:normal;font-variant-east-asian:normal;stroke-width:0.750003">cet état à 1 rond et 9 croisements </tspan><tspan
         sodipodi:role="line"
         x="104.17624"
         y="-362.69492"
         style="font-style:normal;font-variant:normal;font-weight:normal;font-stretch:normal;font-size:12px;font-family:Calibri;-inkscape-font-specification:'Calibri, Normal';font-variant-ligatures:normal;font-variant-caps:normal;font-variant-numeric:normal;font-variant-east-asian:normal;stroke-width:0.750003"
         id="tspan22366">comporte un arc de portée 3.</tspan><tspan
         sodipodi:role="line"
         id="tspan22316"
         x="104.17624"
         y="-347.38586"
         style="font-style:normal;font-variant:normal;font-weight:normal;font-stretch:normal;font-size:12px;font-family:Calibri;-inkscape-font-specification:'Calibri, Normal';font-variant-ligatures:normal;font-variant-caps:normal;font-variant-numeric:normal;font-variant-east-asian:normal;stroke-width:0.750003">la formule nous donne : 9 ≥ 5x3 -1-1 </tspan><tspan
         sodipodi:role="line"
         x="104.17624"
         y="-332.07681"
         style="font-style:normal;font-variant:normal;font-weight:normal;font-stretch:normal;font-size:12px;font-family:Calibri;-inkscape-font-specification:'Calibri, Normal';font-variant-ligatures:normal;font-variant-caps:normal;font-variant-numeric:normal;font-variant-east-asian:normal;stroke-width:0.750003"
         id="tspan22368">soit 9 ≥ 12 ce qui est faux,</tspan><tspan
         sodipodi:role="line"
         x="104.17624"
         y="-316.76776"
         id="tspan22318"
         style="font-style:normal;font-variant:normal;font-weight:normal;font-stretch:normal;font-size:12px;font-family:Calibri;-inkscape-font-specification:'Calibri, Normal';font-variant-ligatures:normal;font-variant-caps:normal;font-variant-numeric:normal;font-variant-east-asian:normal;stroke-width:0.750003">donc cet état est réductible.</tspan></text><text
       xml:space="preserve"
       style="font-size:12px;line-height:1.25;font-family:Arial;-inkscape-font-specification:Arial;stroke-width:0.75"
       x="329.92627"
       y="-381.75397"
       id="text22322"
       transform="scale(1,-1)"><tspan
         sodipodi:role="line"
         id="tspan22320"
         x="329.92627"
         y="-381.75397"
         style="font-style:normal;font-variant:normal;font-weight:normal;font-stretch:normal;font-family:Calibri;-inkscape-font-specification:Calibri;stroke-width:0.75">nous effectuons la réduction de l'arc trop long</tspan><tspan
         sodipodi:role="line"
         x="329.92627"
         y="-366.44492"
         style="font-style:normal;font-variant:normal;font-weight:normal;font-stretch:normal;font-family:Calibri;-inkscape-font-specification:Calibri;stroke-width:0.75"
         id="tspan22324">et nous obtenons un état à 7 croisements,</tspan><tspan
         sodipodi:role="line"
         x="329.92627"
         y="-351.13586"
         style="font-style:normal;font-variant:normal;font-weight:normal;font-stretch:normal;font-family:Calibri;-inkscape-font-specification:Calibri;stroke-width:0.75"
         id="tspan22326">et un arc de portée 2.</tspan></text><text
       xml:space="preserve"
       style="font-size:12px;line-height:1.25;font-family:Caladea;-inkscape-font-specification:'Caladea, Normal';stroke-width:0.75"
       x="647.92627"
       y="-379.50397"
       id="text22442"
       transform="scale(1,-1)"><tspan
         sodipodi:role="line"
         id="tspan22440"
         x="647.92627"
         y="-379.50397"
         style="stroke-width:0.75"> </tspan></text><text
       xml:space="preserve"
       style="font-size:12px;line-height:1.25;font-family:Calibri;-inkscape-font-specification:'Calibri, Normal';stroke-width:0.75"
       x="612.67627"
       y="-380.25397"
       id="text22450"
       transform="scale(1,-1)"><tspan
         sodipodi:role="line"
         id="tspan22466"
         x="612.67627"
         y="-380.25397">cet état apparaît composé d'un trèfle</tspan><tspan
         sodipodi:role="line"
         id="tspan22468"
         x="612.67627"
         y="-365.25397">et d'un listing; en faisant glisser le trèfle,</tspan><tspan
         sodipodi:role="line"
         id="tspan22470"
         x="612.67627"
         y="-350.25397">il devient alterné, </tspan><tspan
         sodipodi:role="line"
         x="612.67627"
         y="-335.25397"
         id="tspan22472">donc trivial selon la nœudienne.</tspan></text><text
       xml:space="preserve"
       style="font-size:12px;line-height:1.25;font-family:Calibri;-inkscape-font-specification:'Calibri, Normal';stroke-width:0.75"
       x="432.12115"
       y="-172.84015"
       id="text22478"
       transform="scale(1,-1)"><tspan
         sodipodi:role="line"
         id="tspan22484"
         x="432.12115"
         y="-172.84015">en resserrant le trèfle puis le listing,</tspan><tspan
         sodipodi:role="line"
         id="tspan22486"
         x="432.12115"
         y="-157.84015">nous faisons apparaître la dimension</tspan><tspan
         sodipodi:role="line"
         id="tspan22488"
         x="432.12115"
         y="-142.84015">cachée du nœud.</tspan></text></g></svg>
