<?xml version="1.0" encoding="UTF-8" standalone="no"?>
<svg
   xmlns:dc="http://purl.org/dc/elements/1.1/"
   xmlns:cc="http://creativecommons.org/ns#"
   xmlns:rdf="http://www.w3.org/1999/02/22-rdf-syntax-ns#"
   xmlns:svg="http://www.w3.org/2000/svg"
   xmlns="http://www.w3.org/2000/svg"
   xmlns:sodipodi="http://sodipodi.sourceforge.net/DTD/sodipodi-0.dtd"
   xmlns:inkscape="http://www.inkscape.org/namespaces/inkscape"
   version="1.1"
   id="svg2"
   xml:space="preserve"
   width="327.45316"
   height="279.55624"
   viewBox="0 0 327.45315 279.55626"
   sodipodi:docname="testrare.svg"
   inkscape:version="1.0.2-2 (e86c870879, 2021-01-15)"><metadata
     id="metadata8"><rdf:RDF><cc:Work
         rdf:about=""><dc:format>image/svg+xml</dc:format><dc:type
           rdf:resource="http://purl.org/dc/dcmitype/StillImage" /><dc:title></dc:title></cc:Work></rdf:RDF></metadata><defs
     id="defs6"><marker
       inkscape:stockid="Arrow1Mend"
       orient="auto"
       refY="0"
       refX="0"
       id="Arrow1Mend"
       style="overflow:visible"
       inkscape:isstock="true"><path
         id="path4718"
         d="M 0,0 5,-5 -12.5,0 5,5 Z"
         style="fill:#000000;fill-opacity:1;fill-rule:evenodd;stroke:#000000;stroke-width:1pt;stroke-opacity:1"
         transform="matrix(-0.4,0,0,-0.4,-4,0)" /></marker><marker
       inkscape:stockid="Arrow1Mend"
       orient="auto"
       refY="0"
       refX="0"
       id="Arrow1Mend-7"
       style="overflow:visible"
       inkscape:isstock="true"><path
         inkscape:connector-curvature="0"
         id="path4718-6"
         d="M 0,0 5,-5 -12.5,0 5,5 Z"
         style="fill:#000000;fill-opacity:1;fill-rule:evenodd;stroke:#000000;stroke-width:1pt;stroke-opacity:1"
         transform="matrix(-0.4,0,0,-0.4,-4,0)" /></marker></defs><sodipodi:namedview
     pagecolor="#e3ecc7"
     bordercolor="#666666"
     borderopacity="1"
     objecttolerance="10"
     gridtolerance="10"
     guidetolerance="10"
     inkscape:pageopacity="0.76078431"
     inkscape:pageshadow="2"
     inkscape:window-width="1920"
     inkscape:window-height="1001"
     id="namedview4"
     showgrid="true"
     inkscape:zoom="2.8284271"
     inkscape:cx="268.02782"
     inkscape:cy="139.63563"
     inkscape:window-x="-9"
     inkscape:window-y="-9"
     inkscape:window-maximized="1"
     inkscape:current-layer="g10"
     inkscape:pagecheckerboard="0"
     units="px"
     inkscape:document-rotation="0"
     fit-margin-top="10"
     fit-margin-left="10"
     fit-margin-right="10"
     fit-margin-bottom="10"><inkscape:grid
       type="xygrid"
       id="grid4705"
       originx="-25.606732"
       originy="-54.885948" /></sodipodi:namedview><g
     id="g10"
     inkscape:groupmode="layer"
     inkscape:label="testrare"
     transform="matrix(1.3333333,0,0,-1.3333333,-25.606732,1067.6338)"><g
       id="g5186"
       inkscape:export-xdpi="300"
       inkscape:export-ydpi="300"
       transform="matrix(1.2,0,0,1.2,-243.80002,226.52182)"><g
         id="g4686"><path
           inkscape:connector-curvature="0"
           id="path14"
           style="fill:none;stroke:#231f20;stroke-width:0.5;stroke-linecap:butt;stroke-linejoin:miter;stroke-miterlimit:4;stroke-dasharray:none;stroke-opacity:1"
           d="m 413.37891,438.25879 c 0,0 -32.04102,-31.24121 -32.04102,-31.24121 0,0 -30.7168,31.50293 -30.7168,31.50293 0,0 32.04102,31.24121 32.04102,31.24121 0,0 30.7168,-31.50293 30.7168,-31.50293 z" /><path
           inkscape:connector-curvature="0"
           id="path16"
           style="fill:#ffffff;fill-opacity:1;fill-rule:nonzero;stroke:none"
           d="m 353.07129,438.52051 c 0,-1.30469 -1.09668,-2.36231 -2.4502,-2.36231 -1.35254,0 -2.45019,1.05762 -2.45019,2.36231 0,1.30566 1.09765,2.36328 2.45019,2.36328 1.35352,0 2.4502,-1.05762 2.4502,-2.36328 z" /><path
           inkscape:connector-curvature="0"
           id="path18"
           style="fill:none;stroke:#231f20;stroke-width:0.5;stroke-linecap:butt;stroke-linejoin:miter;stroke-miterlimit:4;stroke-dasharray:none;stroke-opacity:1"
           d="m 353.07129,438.52051 c 0,-1.30469 -1.09668,-2.36231 -2.4502,-2.36231 -1.35254,0 -2.45019,1.05762 -2.45019,2.36231 0,1.30566 1.09765,2.36328 2.45019,2.36328 1.35352,0 2.4502,-1.05762 2.4502,-2.36328 z" /><path
           inkscape:connector-curvature="0"
           id="path20"
           style="fill:#ffffff;fill-opacity:1;fill-rule:nonzero;stroke:none"
           d="m 415.8291,438.25879 c 0,-1.30566 -1.09765,-2.36328 -2.45019,-2.36328 -1.35254,0 -2.4502,1.05762 -2.4502,2.36328 0,1.30469 1.09766,2.3623 2.4502,2.3623 1.35254,0 2.45019,-1.05761 2.45019,-2.3623 z" /><path
           inkscape:connector-curvature="0"
           id="path22"
           style="fill:none;stroke:#231f20;stroke-width:0.5;stroke-linecap:butt;stroke-linejoin:miter;stroke-miterlimit:4;stroke-dasharray:none;stroke-opacity:1"
           d="m 415.8291,438.25879 c 0,-1.30566 -1.09765,-2.36328 -2.45019,-2.36328 -1.35254,0 -2.4502,1.05762 -2.4502,2.36328 0,1.30469 1.09766,2.3623 2.4502,2.3623 1.35254,0 2.45019,-1.05761 2.45019,-2.3623 z" /><path
           inkscape:connector-curvature="0"
           id="path24"
           style="fill:#231f20;fill-opacity:1;fill-rule:nonzero;stroke:none"
           d="m 384.21094,407.39258 c 0,-1.30469 -1.09766,-2.36231 -2.4502,-2.36231 -1.35254,0 -2.45019,1.05762 -2.45019,2.36231 0,1.30469 1.09765,2.3623 2.45019,2.3623 1.35254,0 2.4502,-1.05761 2.4502,-2.3623 z" /><path
           inkscape:connector-curvature="0"
           id="path26"
           style="fill:none;stroke:#231f20;stroke-width:0.5;stroke-linecap:butt;stroke-linejoin:miter;stroke-miterlimit:4;stroke-dasharray:none;stroke-opacity:1"
           d="m 384.21094,407.39258 c 0,-1.30469 -1.09766,-2.36231 -2.4502,-2.36231 -1.35254,0 -2.45019,1.05762 -2.45019,2.36231 0,1.30469 1.09765,2.3623 2.45019,2.3623 1.35254,0 2.4502,-1.05761 2.4502,-2.3623 z" /><path
           inkscape:connector-curvature="0"
           id="path28"
           style="fill:#231f20;fill-opacity:1;fill-rule:nonzero;stroke:none"
           d="m 385.42383,469.64063 c 0,-1.30567 -1.09668,-2.36231 -2.44922,-2.36231 -1.35352,0 -2.4502,1.05664 -2.4502,2.36231 0,1.30468 1.09668,2.3623 2.4502,2.3623 1.35254,0 2.44922,-1.05762 2.44922,-2.3623 z" /><path
           inkscape:connector-curvature="0"
           id="path30"
           style="fill:none;stroke:#231f20;stroke-width:0.5;stroke-linecap:butt;stroke-linejoin:miter;stroke-miterlimit:4;stroke-dasharray:none;stroke-opacity:1"
           d="m 385.42383,469.64063 c 0,-1.30567 -1.09668,-2.36231 -2.44922,-2.36231 -1.35352,0 -2.4502,1.05664 -2.4502,2.36231 0,1.30468 1.09668,2.3623 2.4502,2.3623 1.35254,0 2.44922,-1.05762 2.44922,-2.3623 z" /><path
           inkscape:connector-curvature="0"
           id="path32"
           style="fill:none;stroke:#231f20;stroke-width:2;stroke-linecap:butt;stroke-linejoin:miter;stroke-miterlimit:4;stroke-dasharray:none;stroke-opacity:1"
           d="m 399.25,452.3916 c -7.75,-9.75 -26.41797,-11.65527 -34.75,-0.75" /><path
           inkscape:connector-curvature="0"
           id="path34"
           style="fill:none;stroke:#231f20;stroke-width:2;stroke-linecap:butt;stroke-linejoin:miter;stroke-miterlimit:4;stroke-dasharray:none;stroke-opacity:1"
           d="m 398.75,424.6416 c -6,8 -25.75,9.25 -33.5,0" /></g></g><g
       id="g5172"
       inkscape:export-xdpi="300"
       inkscape:export-ydpi="300"
       transform="matrix(1.2,0,0,1.2,-243.80002,226.52182)"><g
         id="g4703"><path
           inkscape:connector-curvature="0"
           id="path36"
           style="fill:none;stroke:#231f20;stroke-width:0.5;stroke-linecap:butt;stroke-linejoin:miter;stroke-miterlimit:4;stroke-dasharray:none;stroke-opacity:1"
           d="m 231.37109,438.14551 c 0,0 32.04102,-31.24121 32.04102,-31.24121 0,0 30.7168,31.50293 30.7168,31.50293 0,0 -32.04102,31.24121 -32.04102,31.24121 0,0 -30.7168,-31.50293 -30.7168,-31.50293 z" /><path
           inkscape:connector-curvature="0"
           id="path38"
           style="fill:#ffffff;fill-opacity:1;fill-rule:nonzero;stroke:none"
           d="m 291.67871,438.40723 c 0,-1.30567 1.09668,-2.36231 2.4502,-2.36231 1.35254,0 2.44922,1.05664 2.44922,2.36231 0,1.30468 -1.09668,2.3623 -2.44922,2.3623 -1.35352,0 -2.4502,-1.05762 -2.4502,-2.3623 z" /><path
           inkscape:connector-curvature="0"
           id="path40"
           style="fill:none;stroke:#231f20;stroke-width:0.5;stroke-linecap:butt;stroke-linejoin:miter;stroke-miterlimit:4;stroke-dasharray:none;stroke-opacity:1"
           d="m 291.67871,438.40723 c 0,-1.30567 1.09668,-2.36231 2.4502,-2.36231 1.35254,0 2.44922,1.05664 2.44922,2.36231 0,1.30468 -1.09668,2.3623 -2.44922,2.3623 -1.35352,0 -2.4502,-1.05762 -2.4502,-2.3623 z" /><path
           inkscape:connector-curvature="0"
           id="path42"
           style="fill:#ffffff;fill-opacity:1;fill-rule:nonzero;stroke:none"
           d="m 228.55029,437.90137 c 0,-1.30469 1.09717,-2.36231 2.44971,-2.36231 1.35303,0 2.4502,1.05762 2.4502,2.36231 0,1.30468 -1.09717,2.3623 -2.4502,2.3623 -1.35254,0 -2.44971,-1.05762 -2.44971,-2.3623 z" /><path
           inkscape:connector-curvature="0"
           id="path44"
           style="fill:none;stroke:#231f20;stroke-width:0.5;stroke-linecap:butt;stroke-linejoin:miter;stroke-miterlimit:4;stroke-dasharray:none;stroke-opacity:1"
           d="m 228.55029,437.90137 c 0,-1.30469 1.09717,-2.36231 2.44971,-2.36231 1.35303,0 2.4502,1.05762 2.4502,2.36231 0,1.30468 -1.09717,2.3623 -2.4502,2.3623 -1.35254,0 -2.44971,-1.05762 -2.44971,-2.3623 z" /><path
           inkscape:connector-curvature="0"
           id="path46"
           style="fill:#231f20;fill-opacity:1;fill-rule:nonzero;stroke:none"
           d="m 260.6748,407.63184 c 0,-1.30469 1.09717,-2.36231 2.4502,-2.36231 1.35254,0 2.44971,1.05762 2.44971,2.36231 0,1.30566 -1.09717,2.3623 -2.44971,2.3623 -1.35303,0 -2.4502,-1.05664 -2.4502,-2.3623 z" /><path
           inkscape:connector-curvature="0"
           id="path48"
           style="fill:none;stroke:#231f20;stroke-width:0.5;stroke-linecap:butt;stroke-linejoin:miter;stroke-miterlimit:4;stroke-dasharray:none;stroke-opacity:1"
           d="m 260.6748,407.63184 c 0,-1.30469 1.09717,-2.36231 2.4502,-2.36231 1.35254,0 2.44971,1.05762 2.44971,2.36231 0,1.30566 -1.09717,2.3623 -2.44971,2.3623 -1.35303,0 -2.4502,-1.05664 -2.4502,-2.3623 z" /><path
           inkscape:connector-curvature="0"
           id="path50"
           style="fill:#231f20;fill-opacity:1;fill-rule:nonzero;stroke:none"
           d="m 260.2998,469.40137 c 0,-1.30469 1.09717,-2.36231 2.4502,-2.36231 1.35303,0 2.4502,1.05762 2.4502,2.36231 0,1.30468 -1.09717,2.3623 -2.4502,2.3623 -1.35303,0 -2.4502,-1.05762 -2.4502,-2.3623 z" /><path
           inkscape:connector-curvature="0"
           id="path52"
           style="fill:none;stroke:#231f20;stroke-width:0.5;stroke-linecap:butt;stroke-linejoin:miter;stroke-miterlimit:4;stroke-dasharray:none;stroke-opacity:1"
           d="m 260.2998,469.40137 c 0,-1.30469 1.09717,-2.36231 2.4502,-2.36231 1.35303,0 2.4502,1.05762 2.4502,2.36231 0,1.30468 -1.09717,2.3623 -2.4502,2.3623 -1.35303,0 -2.4502,-1.05762 -2.4502,-2.3623 z" /><path
           inkscape:connector-curvature="0"
           id="path54"
           style="fill:none;stroke:#231f20;stroke-width:2;stroke-linecap:butt;stroke-linejoin:miter;stroke-miterlimit:4;stroke-dasharray:none;stroke-opacity:1"
           d="m 255.36426,438.66309 c 5.89551,-11.2002 19.57031,-2.14844 23.96777,14.19238" /><path
           inkscape:connector-curvature="0"
           id="path56"
           style="fill:none;stroke:#231f20;stroke-width:2;stroke-linecap:butt;stroke-linejoin:miter;stroke-miterlimit:4;stroke-dasharray:none;stroke-opacity:1"
           d="m 246.10742,453.33203 c 1.90137,-3.8125 3.67969,-7 5.37696,-9.60156" /><path
           inkscape:connector-curvature="0"
           id="path58"
           style="fill:none;stroke:#231f20;stroke-width:2;stroke-linecap:butt;stroke-linejoin:miter;stroke-miterlimit:4;stroke-dasharray:none;stroke-opacity:1"
           d="m 271.60449,434.58203 c 2.38965,-2.73047 5.01856,-6.07812 7.91797,-10.04492" /><path
           inkscape:connector-curvature="0"
           id="path60"
           style="fill:none;stroke:#231f20;stroke-width:2;stroke-linecap:butt;stroke-linejoin:miter;stroke-miterlimit:4;stroke-dasharray:none;stroke-opacity:1"
           d="m 254.98535,442.42969 c 3.33008,2.62207 7.41699,1.34863 12.90137,-3.91797" /><path
           inkscape:connector-curvature="0"
           id="path62"
           style="fill:none;stroke:#231f20;stroke-width:2;stroke-linecap:butt;stroke-linejoin:miter;stroke-miterlimit:4;stroke-dasharray:none;stroke-opacity:1"
           d="m 251.56152,437.91797 c 1.06153,2.03516 2.19043,3.54004 3.42383,4.51172" /><path
           inkscape:connector-curvature="0"
           id="path64"
           style="fill:none;stroke:#231f20;stroke-width:2;stroke-linecap:butt;stroke-linejoin:miter;stroke-miterlimit:4;stroke-dasharray:none;stroke-opacity:1"
           d="m 246.79199,423.7002 c 1.49512,6.1416 3.03711,10.88769 4.76953,14.21777" /></g></g><g
       id="g4659"
       transform="matrix(1.2,0,0,1.2,-243.80003,226.52182)"
       inkscape:export-xdpi="300"
       inkscape:export-ydpi="300"><path
         d="m 290.87891,343.50879 c 0,0 -32.04102,-31.24121 -32.04102,-31.24121 0,0 -30.7168,31.50293 -30.7168,31.50293 0,0 32.04102,31.24121 32.04102,31.24121 0,0 30.7168,-31.50293 30.7168,-31.50293 z"
         style="fill:none;stroke:#231f20;stroke-width:0.5;stroke-linecap:butt;stroke-linejoin:miter;stroke-miterlimit:4;stroke-dasharray:none;stroke-opacity:1"
         id="path66"
         inkscape:connector-curvature="0" /><path
         d="m 230.57129,343.77051 c 0,-1.30469 -1.09668,-2.36231 -2.4502,-2.36231 -1.35254,0 -2.45019,1.05762 -2.45019,2.36231 0,1.30566 1.09765,2.36328 2.45019,2.36328 1.35352,0 2.4502,-1.05762 2.4502,-2.36328 z"
         style="fill:#ffffff;fill-opacity:1;fill-rule:nonzero;stroke:none"
         id="path68"
         inkscape:connector-curvature="0" /><path
         d="m 230.57129,343.77051 c 0,-1.30469 -1.09668,-2.36231 -2.4502,-2.36231 -1.35254,0 -2.45019,1.05762 -2.45019,2.36231 0,1.30566 1.09765,2.36328 2.45019,2.36328 1.35352,0 2.4502,-1.05762 2.4502,-2.36328 z"
         style="fill:none;stroke:#231f20;stroke-width:0.5;stroke-linecap:butt;stroke-linejoin:miter;stroke-miterlimit:4;stroke-dasharray:none;stroke-opacity:1"
         id="path70"
         inkscape:connector-curvature="0" /><path
         d="m 293.3291,343.50879 c 0,-1.30566 -1.09765,-2.36328 -2.45019,-2.36328 -1.35254,0 -2.4502,1.05762 -2.4502,2.36328 0,1.30469 1.09766,2.3623 2.4502,2.3623 1.35254,0 2.45019,-1.05761 2.45019,-2.3623 z"
         style="fill:#ffffff;fill-opacity:1;fill-rule:nonzero;stroke:none"
         id="path72"
         inkscape:connector-curvature="0" /><path
         d="m 293.3291,343.50879 c 0,-1.30566 -1.09765,-2.36328 -2.45019,-2.36328 -1.35254,0 -2.4502,1.05762 -2.4502,2.36328 0,1.30469 1.09766,2.3623 2.4502,2.3623 1.35254,0 2.45019,-1.05761 2.45019,-2.3623 z"
         style="fill:none;stroke:#231f20;stroke-width:0.5;stroke-linecap:butt;stroke-linejoin:miter;stroke-miterlimit:4;stroke-dasharray:none;stroke-opacity:1"
         id="path74"
         inkscape:connector-curvature="0" /><path
         d="m 261.71094,312.64258 c 0,-1.30469 -1.09766,-2.36231 -2.4502,-2.36231 -1.35254,0 -2.45019,1.05762 -2.45019,2.36231 0,1.30469 1.09765,2.3623 2.45019,2.3623 1.35254,0 2.4502,-1.05761 2.4502,-2.3623 z"
         style="fill:#231f20;fill-opacity:1;fill-rule:nonzero;stroke:none"
         id="path76"
         inkscape:connector-curvature="0" /><path
         d="m 261.71094,312.64258 c 0,-1.30469 -1.09766,-2.36231 -2.4502,-2.36231 -1.35254,0 -2.45019,1.05762 -2.45019,2.36231 0,1.30469 1.09765,2.3623 2.45019,2.3623 1.35254,0 2.4502,-1.05761 2.4502,-2.3623 z"
         style="fill:none;stroke:#231f20;stroke-width:0.5;stroke-linecap:butt;stroke-linejoin:miter;stroke-miterlimit:4;stroke-dasharray:none;stroke-opacity:1"
         id="path78"
         inkscape:connector-curvature="0" /><path
         d="m 262.92383,374.89063 c 0,-1.30567 -1.09668,-2.36231 -2.44922,-2.36231 -1.35352,0 -2.4502,1.05664 -2.4502,2.36231 0,1.30468 1.09668,2.3623 2.4502,2.3623 1.35254,0 2.44922,-1.05762 2.44922,-2.3623 z"
         style="fill:#231f20;fill-opacity:1;fill-rule:nonzero;stroke:none"
         id="path80"
         inkscape:connector-curvature="0" /><path
         d="m 262.92383,374.89063 c 0,-1.30567 -1.09668,-2.36231 -2.44922,-2.36231 -1.35352,0 -2.4502,1.05664 -2.4502,2.36231 0,1.30468 1.09668,2.3623 2.4502,2.3623 1.35254,0 2.44922,-1.05762 2.44922,-2.3623 z"
         style="fill:none;stroke:#231f20;stroke-width:0.5;stroke-linecap:butt;stroke-linejoin:miter;stroke-miterlimit:4;stroke-dasharray:none;stroke-opacity:1"
         id="path82"
         inkscape:connector-curvature="0" /><path
         d="m 262.70801,344.17871 c 14.95849,3.54395 8.62549,-11.95605 11.62549,-16.79004"
         style="fill:none;stroke:#231f20;stroke-width:2;stroke-linecap:butt;stroke-linejoin:miter;stroke-miterlimit:4;stroke-dasharray:none;stroke-opacity:1"
         id="path84"
         inkscape:connector-curvature="0" /><path
         d="m 242.6665,357.72266 c 2.8335,-3.33399 0.5,-15.33399 14.46192,-13.85645"
         style="fill:none;stroke:#231f20;stroke-width:2;stroke-linecap:butt;stroke-linejoin:miter;stroke-miterlimit:4;stroke-dasharray:none;stroke-opacity:1"
         id="path86"
         inkscape:connector-curvature="0" /><path
         d="m 250.48486,341.18848 c -0.49414,-3.41016 -3.79736,-9.23633 -7.6582,-12.98145"
         style="fill:none;stroke:#231f20;stroke-width:2;stroke-linecap:butt;stroke-linejoin:miter;stroke-miterlimit:4;stroke-dasharray:none;stroke-opacity:1"
         id="path88"
         inkscape:connector-curvature="0" /><path
         d="m 267.8335,341.72266 c -0.085,-0.55469 -0.167,-4.83399 -3.87793,-4.71582 -6.52149,0.208 -0.95557,12.54882 -7.21729,12.82324 -1.98779,0.0869 -4.21582,-1.84375 -4.59131,-3.44043"
         style="fill:none;stroke:#231f20;stroke-width:2;stroke-linecap:butt;stroke-linejoin:miter;stroke-miterlimit:4;stroke-dasharray:none;stroke-opacity:1"
         id="path90"
         inkscape:connector-curvature="0" /><path
         d="M 275.37842,359.80371 C 271.1665,355.72266 268.0874,348.21875 268,347.38867"
         style="fill:none;stroke:#231f20;stroke-width:2;stroke-linecap:butt;stroke-linejoin:miter;stroke-miterlimit:4;stroke-dasharray:none;stroke-opacity:1"
         id="path92"
         inkscape:connector-curvature="0" /></g><g
       id="g4673"
       transform="matrix(1.2,0,0,1.2,-243.79999,226.52182)"
       inkscape:export-xdpi="300"
       inkscape:export-ydpi="300"><path
         d="m 414.87891,343.50879 c 0,0 -32.04102,-31.24121 -32.04102,-31.24121 0,0 -30.7168,31.50293 -30.7168,31.50293 0,0 32.04102,31.24121 32.04102,31.24121 0,0 30.7168,-31.50293 30.7168,-31.50293 z"
         style="fill:none;stroke:#231f20;stroke-width:0.5;stroke-linecap:butt;stroke-linejoin:miter;stroke-miterlimit:4;stroke-dasharray:none;stroke-opacity:1"
         id="path94"
         inkscape:connector-curvature="0" /><path
         d="m 354.57129,343.77051 c 0,-1.30469 -1.09668,-2.36231 -2.4502,-2.36231 -1.35254,0 -2.45019,1.05762 -2.45019,2.36231 0,1.30566 1.09765,2.36328 2.45019,2.36328 1.35352,0 2.4502,-1.05762 2.4502,-2.36328 z"
         style="fill:#ffffff;fill-opacity:1;fill-rule:nonzero;stroke:none"
         id="path96"
         inkscape:connector-curvature="0" /><path
         d="m 354.57129,343.77051 c 0,-1.30469 -1.09668,-2.36231 -2.4502,-2.36231 -1.35254,0 -2.45019,1.05762 -2.45019,2.36231 0,1.30566 1.09765,2.36328 2.45019,2.36328 1.35352,0 2.4502,-1.05762 2.4502,-2.36328 z"
         style="fill:none;stroke:#231f20;stroke-width:0.5;stroke-linecap:butt;stroke-linejoin:miter;stroke-miterlimit:4;stroke-dasharray:none;stroke-opacity:1"
         id="path98"
         inkscape:connector-curvature="0" /><path
         d="m 417.3291,343.50879 c 0,-1.30566 -1.09765,-2.36328 -2.45019,-2.36328 -1.35254,0 -2.4502,1.05762 -2.4502,2.36328 0,1.30469 1.09766,2.3623 2.4502,2.3623 1.35254,0 2.45019,-1.05761 2.45019,-2.3623 z"
         style="fill:#ffffff;fill-opacity:1;fill-rule:nonzero;stroke:none"
         id="path100"
         inkscape:connector-curvature="0" /><path
         d="m 417.3291,343.50879 c 0,-1.30566 -1.09765,-2.36328 -2.45019,-2.36328 -1.35254,0 -2.4502,1.05762 -2.4502,2.36328 0,1.30469 1.09766,2.3623 2.4502,2.3623 1.35254,0 2.45019,-1.05761 2.45019,-2.3623 z"
         style="fill:none;stroke:#231f20;stroke-width:0.5;stroke-linecap:butt;stroke-linejoin:miter;stroke-miterlimit:4;stroke-dasharray:none;stroke-opacity:1"
         id="path102"
         inkscape:connector-curvature="0" /><path
         d="m 385.71094,312.64258 c 0,-1.30469 -1.09766,-2.36231 -2.4502,-2.36231 -1.35254,0 -2.45019,1.05762 -2.45019,2.36231 0,1.30469 1.09765,2.3623 2.45019,2.3623 1.35254,0 2.4502,-1.05761 2.4502,-2.3623 z"
         style="fill:#231f20;fill-opacity:1;fill-rule:nonzero;stroke:none"
         id="path104"
         inkscape:connector-curvature="0" /><path
         d="m 385.71094,312.64258 c 0,-1.30469 -1.09766,-2.36231 -2.4502,-2.36231 -1.35254,0 -2.45019,1.05762 -2.45019,2.36231 0,1.30469 1.09765,2.3623 2.45019,2.3623 1.35254,0 2.4502,-1.05761 2.4502,-2.3623 z"
         style="fill:none;stroke:#231f20;stroke-width:0.5;stroke-linecap:butt;stroke-linejoin:miter;stroke-miterlimit:4;stroke-dasharray:none;stroke-opacity:1"
         id="path106"
         inkscape:connector-curvature="0" /><path
         d="m 386.92383,374.89063 c 0,-1.30567 -1.09668,-2.36231 -2.44922,-2.36231 -1.35352,0 -2.4502,1.05664 -2.4502,2.36231 0,1.30468 1.09668,2.3623 2.4502,2.3623 1.35254,0 2.44922,-1.05762 2.44922,-2.3623 z"
         style="fill:#231f20;fill-opacity:1;fill-rule:nonzero;stroke:none"
         id="path108"
         inkscape:connector-curvature="0" /><path
         d="m 386.92383,374.89063 c 0,-1.30567 -1.09668,-2.36231 -2.44922,-2.36231 -1.35352,0 -2.4502,1.05664 -2.4502,2.36231 0,1.30468 1.09668,2.3623 2.4502,2.3623 1.35254,0 2.44922,-1.05762 2.44922,-2.3623 z"
         style="fill:none;stroke:#231f20;stroke-width:0.5;stroke-linecap:butt;stroke-linejoin:miter;stroke-miterlimit:4;stroke-dasharray:none;stroke-opacity:1"
         id="path110"
         inkscape:connector-curvature="0" /><path
         d="m 368,359.13965 c 9,-9.5 23,-25 29,-32"
         style="fill:none;stroke:#231f20;stroke-width:2;stroke-linecap:butt;stroke-linejoin:miter;stroke-miterlimit:4;stroke-dasharray:none;stroke-opacity:1"
         id="path112"
         inkscape:connector-curvature="0" /><path
         d="m 367,328.63965 c 4,4.5 5.5,5.5 11.5,12.5"
         style="fill:none;stroke:#231f20;stroke-width:2;stroke-linecap:butt;stroke-linejoin:miter;stroke-miterlimit:4;stroke-dasharray:none;stroke-opacity:1"
         id="path114"
         inkscape:connector-curvature="0" /><path
         d="m 386.5,347.63965 c 3.5,4 4.5,8.5 11.5,13"
         style="fill:none;stroke:#231f20;stroke-width:2;stroke-linecap:butt;stroke-linejoin:miter;stroke-miterlimit:4;stroke-dasharray:none;stroke-opacity:1"
         id="path116"
         inkscape:connector-curvature="0" /></g><g
       id="g5154"
       transform="matrix(1.2,0,0,1.2,-243.80002,223.94427)"
       inkscape:export-xdpi="300"
       inkscape:export-ydpi="300"><path
   inkscape:connector-curvature="0"
   id="path4707"
   d="m 307.50001,435.00005 h 22.5"
   style="fill:none;stroke:#000000;stroke-width:1.5;stroke-linecap:butt;stroke-linejoin:miter;stroke-miterlimit:4;stroke-dasharray:none;stroke-opacity:1;marker-end:url(#Arrow1Mend)" /><text
   transform="scale(1,-1)"
   id="text4999"
   y="-442.50006"
   x="312"
   style="font-style:normal;font-variant:normal;font-weight:normal;font-stretch:normal;font-size:11px;line-height:1.25;font-family:'Times New Roman';-inkscape-font-specification:'Times New Roman, ';font-variant-ligatures:normal;font-variant-caps:normal;font-variant-numeric:normal;font-feature-settings:normal;text-align:start;letter-spacing:0px;word-spacing:0px;writing-mode:lr-tb;text-anchor:start;fill:#000000;fill-opacity:1;stroke:none;stroke-width:0.75"
   xml:space="preserve"><tspan
     style="stroke-width:0.75"
     y="-442.50006"
     x="312"
     id="tspan4997"
     sodipodi:role="line">idd</tspan></text>
</g><g
       id="g5149"
       transform="matrix(1.2,0,0,1.2,-242.27365,227.24426)"
       inkscape:export-xdpi="300"
       inkscape:export-ydpi="300"><path
   inkscape:connector-curvature="0"
   id="path4707-2"
   d="m 307.50001,337.50007 h 22.5"
   style="fill:none;stroke:#000000;stroke-width:1.5;stroke-linecap:butt;stroke-linejoin:miter;stroke-miterlimit:4;stroke-dasharray:none;stroke-opacity:1;marker-end:url(#Arrow1Mend-7)" /><text
   transform="scale(1,-1)"
   id="text4999-1"
   y="-345.00006"
   x="312"
   style="font-style:normal;font-variant:normal;font-weight:normal;font-stretch:normal;font-size:11px;line-height:1.25;font-family:'Times New Roman';-inkscape-font-specification:'Times New Roman, ';font-variant-ligatures:normal;font-variant-caps:normal;font-variant-numeric:normal;font-feature-settings:normal;text-align:start;letter-spacing:0px;word-spacing:0px;writing-mode:lr-tb;text-anchor:start;fill:#000000;fill-opacity:1;stroke:none;stroke-width:0.75"
   xml:space="preserve"><tspan
     style="stroke-width:0.75"
     y="-345.00006"
     x="312"
     id="tspan4997-8"
     sodipodi:role="line">idd</tspan></text>
</g></g></svg>
