<?xml version="1.0" encoding="UTF-8" standalone="no"?>
<svg
   xmlns:dc="http://purl.org/dc/elements/1.1/"
   xmlns:cc="http://creativecommons.org/ns#"
   xmlns:rdf="http://www.w3.org/1999/02/22-rdf-syntax-ns#"
   xmlns:svg="http://www.w3.org/2000/svg"
   xmlns="http://www.w3.org/2000/svg"
   xmlns:sodipodi="http://sodipodi.sourceforge.net/DTD/sodipodi-0.dtd"
   xmlns:inkscape="http://www.inkscape.org/namespaces/inkscape"
   version="1.1"
   id="svg2"
   xml:space="preserve"
   width="925.5307"
   height="228.69254"
   viewBox="0 0 925.53068 228.69253"
   sodipodi:docname="torsades.svg"
   inkscape:version="1.0.2-2 (e86c870879, 2021-01-15)"><metadata
     id="metadata8"><rdf:RDF><cc:Work
         rdf:about=""><dc:format>image/svg+xml</dc:format><dc:type
           rdf:resource="http://purl.org/dc/dcmitype/StillImage" /><dc:title></dc:title></cc:Work></rdf:RDF></metadata><defs
     id="defs6"><marker
       style="overflow:visible"
       id="Arrow1Send"
       refX="0"
       refY="0"
       orient="auto"
       inkscape:stockid="Arrow1Send"
       inkscape:isstock="true"><path
         transform="matrix(-0.2,0,0,-0.2,-1.2,0)"
         style="fill:#ffffff;fill-opacity:1;fill-rule:evenodd;stroke:#000000;stroke-width:1pt;stroke-opacity:1"
         d="M 0,0 5,-5 -12.5,0 5,5 Z"
         id="path2063" /></marker><marker
       style="overflow:visible"
       id="Arrow2Sstart"
       refX="0"
       refY="0"
       orient="auto"
       inkscape:stockid="Arrow2Sstart"
       inkscape:isstock="true"><path
         transform="matrix(0.3,0,0,0.3,-0.69,0)"
         d="M 8.7185878,4.0337352 -2.2072895,0.01601326 8.7185884,-4.0017078 c -1.7454984,2.3720609 -1.7354408,5.6174519 -6e-7,8.035443 z"
         style="fill:#ffffff;fill-opacity:1;fill-rule:evenodd;stroke:#000000;stroke-width:0.625;stroke-linejoin:round;stroke-opacity:1"
         id="path2078" /></marker><marker
       style="overflow:visible"
       id="Arrow2Send"
       refX="0"
       refY="0"
       orient="auto"
       inkscape:stockid="Arrow2Send"
       inkscape:isstock="true"><path
         transform="matrix(-0.3,0,0,-0.3,0.69,0)"
         d="M 8.7185878,4.0337352 -2.2072895,0.01601326 8.7185884,-4.0017078 c -1.7454984,2.3720609 -1.7354408,5.6174519 -6e-7,8.035443 z"
         style="fill:#ffffff;fill-opacity:1;fill-rule:evenodd;stroke:#000000;stroke-width:0.625;stroke-linejoin:round;stroke-opacity:1"
         id="path2081" /></marker><marker
       style="overflow:visible"
       id="Arrow1Mend"
       refX="0"
       refY="0"
       orient="auto"
       inkscape:stockid="Arrow1Mend"
       inkscape:isstock="true"><path
         transform="matrix(-0.4,0,0,-0.4,-4,0)"
         style="fill:#ffffff;fill-opacity:1;fill-rule:evenodd;stroke:#000000;stroke-width:1pt;stroke-opacity:1"
         d="M 0,0 5,-5 -12.5,0 5,5 Z"
         id="path2057" /></marker><clipPath
       clipPathUnits="userSpaceOnUse"
       id="clipPath18"><path
         d="M 0,595.276 H 841.89 V 0 H 0 Z"
         id="path16"
         inkscape:connector-curvature="0" /></clipPath></defs><sodipodi:namedview
     pagecolor="#ffffff"
     bordercolor="#666666"
     borderopacity="1"
     objecttolerance="10"
     gridtolerance="10"
     guidetolerance="10"
     inkscape:pageopacity="0"
     inkscape:pageshadow="2"
     inkscape:window-width="1920"
     inkscape:window-height="1001"
     id="namedview4"
     showgrid="false"
     inkscape:zoom="1"
     inkscape:cx="406.21397"
     inkscape:cy="217.70091"
     inkscape:window-x="-9"
     inkscape:window-y="-9"
     inkscape:window-maximized="1"
     inkscape:current-layer="g10"
     inkscape:document-rotation="0"
     lock-margins="true"
     fit-margin-top="10"
     fit-margin-left="10"
     fit-margin-right="10"
     fit-margin-bottom="10" /><g
     id="g10"
     inkscape:groupmode="layer"
     inkscape:label="torsades"
     transform="matrix(1.3333333,0,0,-1.3333333,-88.327998,482.31599)"><path
       style="fill:#ffffff;stroke:#000000;stroke-width:1.87895;stroke-miterlimit:4;stroke-dasharray:none;stroke-dashoffset:0;marker-end:url(#Arrow1Send);stop-color:#000000"
       d="m 304.31561,201.07216 c 0,13.59081 7.88521,24.60832 17.6121,24.60832 9.72689,0 17.61209,-11.01753 17.61209,-24.60832"
       id="path2046" /><g
       id="g14"
       clip-path="url(#clipPath18)"><text
   transform="matrix(1,0,0,-1,212,202.9873)"
   style="font-variant:normal;font-weight:normal;font-stretch:normal;font-size:12px;font-family:Myriad;-inkscape-font-specification:Myriad-Roman;writing-mode:lr-tb;fill:#1a171b;fill-opacity:1;fill-rule:nonzero;stroke:none"
   id="text22"
   y="0"><tspan
     x="0 3.9000001 10.488 14.34 21.108 26.892 33.66 39.672001 42.216 48.875999 55.487999 58.296001 61.104"
     y="0"
     sodipodi:role="line"
     id="tspan20">tordade nulle</tspan></text>
<text
   transform="matrix(1,0,0,-1,358.5732,202.9873)"
   style="font-variant:normal;font-weight:normal;font-stretch:normal;font-size:12px;font-family:Myriad;-inkscape-font-specification:Myriad-Roman;writing-mode:lr-tb;fill:#1a171b;fill-opacity:1;fill-rule:nonzero;stroke:none"
   id="text26"
   y="0"><tspan
     x="0 3.9000001 10.488 14.412 19.164 24.948 31.716 37.728001 40.271999 45.023998 47.832001 57.84 64.667999 67.475998"
     y="0"
     sodipodi:role="line"
     id="tspan24">torsade simple</tspan></text>
<text
   transform="matrix(1,0,0,-1,507.1328,202.9873)"
   style="font-variant:normal;font-weight:normal;font-stretch:normal;font-size:12px;font-family:Myriad;-inkscape-font-specification:Myriad-Roman;writing-mode:lr-tb;fill:#1a171b;fill-opacity:1;fill-rule:nonzero;stroke:none"
   id="text30"
   y="0"><tspan
     x="0 3.9000001 10.488 14.412 19.164 24.948 31.716 37.728001 40.271999 47.040001 53.627998 60.240002 67.068001 69.875999"
     y="0"
     sodipodi:role="line"
     id="tspan28">torsade double</tspan></text>
<text
   transform="matrix(1,0,0,-1,661.5,202.9873)"
   style="font-variant:normal;font-weight:normal;font-stretch:normal;font-size:12px;font-family:Myriad;-inkscape-font-specification:Myriad-Roman;writing-mode:lr-tb;fill:#1a171b;fill-opacity:1;fill-rule:nonzero;stroke:none"
   id="text34"
   y="0"><tspan
     x="0 3.9000001 10.488 14.412 19.164 24.948 31.716 37.728001 40.271999 44.243999 48.216 51.023998 57.852001 60.66"
     y="0"
     sodipodi:role="line"
     id="tspan32">torsade triple</tspan></text>
<text
   transform="matrix(1,0,0,-1,308.1875,202.6035)"
   style="font-variant:normal;font-weight:normal;font-stretch:normal;font-size:14px;font-family:'Comic Sans MS';-inkscape-font-specification:ComicSansMS;writing-mode:lr-tb;fill:#1a171b;fill-opacity:1;fill-rule:nonzero;stroke:none"
   id="text38"
   y="0"><tspan
     x="0 8.7919998 15.96"
     y="0"
     sodipodi:role="line"
     id="tspan36">π/2</tspan></text>
<text
   transform="matrix(1,0,0,-1,457.9463,202.6035)"
   style="font-variant:normal;font-weight:normal;font-stretch:normal;font-size:14px;font-family:'Comic Sans MS';-inkscape-font-specification:ComicSansMS;writing-mode:lr-tb;fill:#1a171b;fill-opacity:1;fill-rule:nonzero;stroke:none"
   id="text42"
   y="0"><tspan
     x="0 8.7919998 15.96"
     y="0"
     sodipodi:role="line"
     id="tspan40">π/2</tspan></text>
<text
   transform="matrix(1,0,0,-1,607.7061,202.6035)"
   style="font-variant:normal;font-weight:normal;font-stretch:normal;font-size:14px;font-family:'Comic Sans MS';-inkscape-font-specification:ComicSansMS;writing-mode:lr-tb;fill:#1a171b;fill-opacity:1;fill-rule:nonzero;stroke:none"
   id="text46"
   y="0"><tspan
     x="0 8.7919998 15.96"
     y="0"
     sodipodi:role="line"
     id="tspan44">π/2</tspan></text>
<path
   d="m 176.352,285.872 -49.788,-49.788 -48.407,48.407 49.788,49.788 z"
   style="fill:none;stroke:#1a171b;stroke-width:1;stroke-linecap:butt;stroke-linejoin:miter;stroke-miterlimit:4;stroke-dasharray:none;stroke-opacity:1"
   id="path48"
   inkscape:connector-curvature="0" /><path
   d="m 130.476,236.084 c 0,-2.16 -1.751,-3.912 -3.912,-3.912 -2.16,0 -3.912,1.752 -3.912,3.912 0,2.162 1.752,3.912 3.912,3.912 2.161,0 3.912,-1.75 3.912,-3.912"
   style="fill:#ffffff;fill-opacity:1;fill-rule:nonzero;stroke:none"
   id="path50"
   inkscape:connector-curvature="0" /><path
   d="m 130.476,236.084 c 0,-2.16 -1.751,-3.912 -3.912,-3.912 -2.16,0 -3.912,1.752 -3.912,3.912 0,2.162 1.752,3.912 3.912,3.912 2.161,0 3.912,-1.75 3.912,-3.912 z"
   style="fill:none;stroke:#1a171b;stroke-width:1;stroke-linecap:butt;stroke-linejoin:miter;stroke-miterlimit:4;stroke-dasharray:none;stroke-opacity:1"
   id="path52"
   inkscape:connector-curvature="0" /><path
   d="m 180.264,285.872 c 0,-2.161 -1.752,-3.911 -3.912,-3.911 -2.161,0 -3.912,1.75 -3.912,3.911 0,2.161 1.751,3.911 3.912,3.911 2.16,0 3.912,-1.75 3.912,-3.911"
   style="fill:#1a171b;fill-opacity:1;fill-rule:nonzero;stroke:none"
   id="path54"
   inkscape:connector-curvature="0" /><path
   d="m 180.264,285.872 c 0,-2.161 -1.752,-3.911 -3.912,-3.911 -2.161,0 -3.912,1.75 -3.912,3.911 0,2.161 1.751,3.911 3.912,3.911 2.16,0 3.912,-1.75 3.912,-3.911 z"
   style="fill:none;stroke:#1a171b;stroke-width:1;stroke-linecap:butt;stroke-linejoin:miter;stroke-miterlimit:4;stroke-dasharray:none;stroke-opacity:1"
   id="path56"
   inkscape:connector-curvature="0" /><path
   d="m 131.856,334.279 c 0,-2.161 -1.751,-3.911 -3.912,-3.911 -2.16,0 -3.911,1.75 -3.911,3.911 0,2.161 1.751,3.912 3.911,3.912 2.161,0 3.912,-1.751 3.912,-3.912"
   style="fill:#ffffff;fill-opacity:1;fill-rule:nonzero;stroke:none"
   id="path58"
   inkscape:connector-curvature="0" /><path
   d="m 131.856,334.279 c 0,-2.161 -1.751,-3.911 -3.912,-3.911 -2.16,0 -3.911,1.75 -3.911,3.911 0,2.161 1.751,3.912 3.911,3.912 2.161,0 3.912,-1.751 3.912,-3.912 z"
   style="fill:none;stroke:#1a171b;stroke-width:1;stroke-linecap:butt;stroke-linejoin:miter;stroke-miterlimit:4;stroke-dasharray:none;stroke-opacity:1"
   id="path60"
   inkscape:connector-curvature="0" /><path
   d="m 82.069,284.491 c 0,-2.161 -1.752,-3.911 -3.912,-3.911 -2.16,0 -3.911,1.75 -3.911,3.911 0,2.161 1.751,3.911 3.911,3.911 2.16,0 3.912,-1.75 3.912,-3.911"
   style="fill:#1a171b;fill-opacity:1;fill-rule:nonzero;stroke:none"
   id="path62"
   inkscape:connector-curvature="0" /><path
   d="m 82.069,284.491 c 0,-2.161 -1.752,-3.911 -3.912,-3.911 -2.16,0 -3.911,1.75 -3.911,3.911 0,2.161 1.751,3.911 3.911,3.911 2.16,0 3.912,-1.75 3.912,-3.911 z"
   style="fill:none;stroke:#1a171b;stroke-width:1;stroke-linecap:butt;stroke-linejoin:miter;stroke-miterlimit:4;stroke-dasharray:none;stroke-opacity:1"
   id="path64"
   inkscape:connector-curvature="0" /><path
   d="m 99.664,306.801 c 9.66,-8.28 15.18,-37.26 6.21,-49.68"
   style="fill:none;stroke:#1a171b;stroke-width:4;stroke-linecap:butt;stroke-linejoin:miter;stroke-miterlimit:4;stroke-dasharray:none;stroke-opacity:1"
   id="path66"
   inkscape:connector-curvature="0" /><path
   d="m 151.414,310.25 c -9.66,-10.35 -16.56,-35.879 -4.83,-53.82"
   style="fill:#ffffff;fill-opacity:1;fill-rule:nonzero;stroke:none"
   id="path68"
   inkscape:connector-curvature="0" /><path
   d="m 151.414,310.25 c -9.66,-10.35 -16.56,-35.879 -4.83,-53.82"
   style="fill:none;stroke:#1a171b;stroke-width:4;stroke-linecap:butt;stroke-linejoin:miter;stroke-miterlimit:4;stroke-dasharray:none;stroke-opacity:1"
   id="path70"
   inkscape:connector-curvature="0" /><path
   d="m 544.405,271.626 v -55"
   style="fill:none;stroke:#1a171b;stroke-width:0.5;stroke-linecap:butt;stroke-linejoin:miter;stroke-miterlimit:4;stroke-dasharray:6;stroke-dashoffset:0;stroke-opacity:1"
   id="path72"
   inkscape:connector-curvature="0" /><path
   d="M 577.25,266.025 518.802,240.434"
   style="fill:none;stroke:#1a171b;stroke-width:0.5;stroke-linecap:butt;stroke-linejoin:miter;stroke-miterlimit:4;stroke-dasharray:1;stroke-dashoffset:0;stroke-opacity:1"
   id="path74"
   inkscape:connector-curvature="0" /><path
   d="m 573.071,251.214 c 0,-3.498 -13.012,-6.333 -29.065,-6.333 -16.051,0 -29.065,2.835 -29.065,6.333 0,3.498 13.014,6.333 29.065,6.333 16.053,0 29.065,-2.835 29.065,-6.333 z"
   style="fill:none;stroke:#1a171b;stroke-width:0.25;stroke-linecap:butt;stroke-linejoin:miter;stroke-miterlimit:4;stroke-dasharray:none;stroke-opacity:1"
   id="path76"
   inkscape:connector-curvature="0" /><text
   transform="matrix(1,0,0,-1,514.9414,238.6279)"
   style="font-variant:normal;font-weight:normal;font-stretch:normal;font-size:5px;font-family:'Comic Sans MS';-inkscape-font-specification:ComicSansMS;writing-mode:lr-tb;fill:#1a171b;fill-opacity:1;fill-rule:nonzero;stroke:none"
   id="text80"><tspan
     x="0"
     y="0"
     id="tspan78">z</tspan></text>
<text
   transform="matrix(1,0,0,-1,544.6074,273.2939)"
   style="font-variant:normal;font-weight:normal;font-stretch:normal;font-size:5px;font-family:'Comic Sans MS';-inkscape-font-specification:ComicSansMS;writing-mode:lr-tb;fill:#1a171b;fill-opacity:1;fill-rule:nonzero;stroke:none"
   id="text84"><tspan
     x="0"
     y="0"
     id="tspan82">y</tspan></text>
<path
   d="M 603.107,250.851 489.75,252.275"
   style="fill:none;stroke:#1a171b;stroke-width:0.5;stroke-linecap:butt;stroke-linejoin:miter;stroke-miterlimit:4;stroke-dasharray:2;stroke-dashoffset:0;stroke-opacity:1"
   id="path86"
   inkscape:connector-curvature="0" /><text
   transform="matrix(1,0,0,-1,605.7754,248.0176)"
   style="font-variant:normal;font-weight:normal;font-stretch:normal;font-size:5px;font-family:'Comic Sans MS';-inkscape-font-specification:ComicSansMS;writing-mode:lr-tb;fill:#1a171b;fill-opacity:1;fill-rule:nonzero;stroke:none"
   id="text90"><tspan
     x="0"
     y="0"
     id="tspan88">x</tspan></text>
<path
   d="m 489.726,349.374 55.199,0.452 50.716,-1.142"
   style="fill:none;stroke:#1a171b;stroke-width:1;stroke-linecap:butt;stroke-linejoin:miter;stroke-miterlimit:4;stroke-dasharray:none;stroke-opacity:1"
   id="path92"
   inkscape:connector-curvature="0" /><path
   d="m 594.899,344.99 c -1.919,0.993 -2.669,3.354 -1.675,5.272 0.993,1.919 3.352,2.67 5.271,1.676"
   style="fill:#1a171b;fill-opacity:1;fill-rule:nonzero;stroke:none"
   id="path94"
   inkscape:connector-curvature="0" /><path
   d="m 594.899,344.99 c -1.919,0.993 -2.669,3.354 -1.675,5.272 0.993,1.919 3.352,2.67 5.271,1.676"
   style="fill:none;stroke:#1a171b;stroke-width:1;stroke-linecap:butt;stroke-linejoin:miter;stroke-miterlimit:4;stroke-dasharray:none;stroke-opacity:1"
   id="path96"
   inkscape:connector-curvature="0" /><path
   d="m 548.838,349.826 c 0,-2.161 -1.752,-3.912 -3.913,-3.912 -2.16,0 -3.911,1.751 -3.911,3.912 0,2.161 1.751,3.911 3.911,3.911 2.161,0 3.913,-1.75 3.913,-3.911"
   style="fill:#ffffff;fill-opacity:1;fill-rule:nonzero;stroke:none"
   id="path98"
   inkscape:connector-curvature="0" /><path
   d="m 548.838,349.826 c 0,-2.161 -1.752,-3.912 -3.913,-3.912 -2.16,0 -3.911,1.751 -3.911,3.912 0,2.161 1.751,3.911 3.911,3.911 2.161,0 3.913,-1.75 3.913,-3.911 z"
   style="fill:none;stroke:#1a171b;stroke-width:1;stroke-linecap:butt;stroke-linejoin:miter;stroke-miterlimit:4;stroke-dasharray:none;stroke-opacity:1"
   id="path100"
   inkscape:connector-curvature="0" /><path
   d="m 487.733,351.983 c 1.809,1.183 4.232,0.675 5.415,-1.132 1.183,-1.809 0.677,-4.233 -1.131,-5.415"
   style="fill:#1a171b;fill-opacity:1;fill-rule:nonzero;stroke:none"
   id="path102"
   inkscape:connector-curvature="0" /><path
   d="m 487.733,351.983 c 1.809,1.183 4.232,0.675 5.415,-1.132 1.183,-1.809 0.677,-4.233 -1.131,-5.415"
   style="fill:none;stroke:#1a171b;stroke-width:1;stroke-linecap:butt;stroke-linejoin:miter;stroke-miterlimit:4;stroke-dasharray:none;stroke-opacity:1"
   id="path104"
   inkscape:connector-curvature="0" /><path
   d="m 549.923,312.504 c 4.308,-4.357 7.143,-9.091 7.018,-14.486 -0.44,-18.944 -42.455,-27.701 -41.691,-45.743"
   style="fill:none;stroke:#1a171b;stroke-width:4;stroke-linecap:butt;stroke-linejoin:miter;stroke-miterlimit:4;stroke-dasharray:none;stroke-opacity:1"
   id="path106"
   inkscape:connector-curvature="0" /><path
   d="m 511.46,348.921 c -0.289,-10.242 13.985,-18.191 26.615,-26.933"
   style="fill:none;stroke:#1a171b;stroke-width:4;stroke-linecap:butt;stroke-linejoin:miter;stroke-miterlimit:4;stroke-dasharray:none;stroke-opacity:1"
   id="path108"
   inkscape:connector-curvature="0" /><path
   d="M 553.275,278.851 C 563.752,270.972 572.5,262.525 572,251.525"
   style="fill:none;stroke:#1a171b;stroke-width:4;stroke-linecap:butt;stroke-linejoin:miter;stroke-miterlimit:4;stroke-dasharray:none;stroke-opacity:1"
   id="path110"
   inkscape:connector-curvature="0" /><path
   d="m 573.905,349.266 c 1.536,-24.748 -64.964,-38.748 -33.297,-62.748"
   style="fill:none;stroke:#1a171b;stroke-width:4;stroke-linecap:butt;stroke-linejoin:miter;stroke-miterlimit:4;stroke-dasharray:none;stroke-opacity:1"
   id="path112"
   inkscape:connector-curvature="0" /><path
   d="m 592.88,251.049 -49.335,0.582 -43.47,0.453"
   style="fill:none;stroke:#1a171b;stroke-width:1;stroke-linecap:butt;stroke-linejoin:miter;stroke-miterlimit:4;stroke-dasharray:none;stroke-opacity:1"
   id="path114"
   inkscape:connector-curvature="0" /><path
   d="m 595.726,247.729 c -2.096,-0.524 -4.219,0.75 -4.744,2.845 -0.523,2.096 0.75,4.22 2.847,4.744"
   style="fill:#1a171b;fill-opacity:1;fill-rule:nonzero;stroke:none"
   id="path116"
   inkscape:connector-curvature="0" /><path
   d="m 595.726,247.729 c -2.096,-0.524 -4.219,0.75 -4.744,2.845 -0.523,2.096 0.75,4.22 2.847,4.744"
   style="fill:none;stroke:#1a171b;stroke-width:1;stroke-linecap:butt;stroke-linejoin:miter;stroke-miterlimit:4;stroke-dasharray:none;stroke-opacity:1"
   id="path118"
   inkscape:connector-curvature="0" /><path
   d="m 547.457,251.631 c 0,-2.16 -1.752,-3.911 -3.912,-3.911 -2.16,0 -3.912,1.751 -3.912,3.911 0,2.162 1.752,3.912 3.912,3.912 2.16,0 3.912,-1.75 3.912,-3.912"
   style="fill:#ffffff;fill-opacity:1;fill-rule:nonzero;stroke:none"
   id="path120"
   inkscape:connector-curvature="0" /><path
   d="m 547.457,251.631 c 0,-2.16 -1.752,-3.911 -3.912,-3.911 -2.16,0 -3.912,1.751 -3.912,3.911 0,2.162 1.752,3.912 3.912,3.912 2.16,0 3.912,-1.75 3.912,-3.912 z"
   style="fill:none;stroke:#1a171b;stroke-width:1;stroke-linecap:butt;stroke-linejoin:miter;stroke-miterlimit:4;stroke-dasharray:none;stroke-opacity:1"
   id="path122"
   inkscape:connector-curvature="0" /><path
   d="m 500.075,256.457 c 1.933,-0.967 2.715,-3.315 1.749,-5.248 -0.966,-1.933 -3.314,-2.715 -5.247,-1.75"
   style="fill:#1a171b;fill-opacity:1;fill-rule:nonzero;stroke:none"
   id="path124"
   inkscape:connector-curvature="0" /><path
   d="m 500.075,256.457 c 1.933,-0.967 2.715,-3.315 1.749,-5.248 -0.966,-1.933 -3.314,-2.715 -5.247,-1.75"
   style="fill:none;stroke:#1a171b;stroke-width:1;stroke-linecap:butt;stroke-linejoin:miter;stroke-miterlimit:4;stroke-dasharray:none;stroke-opacity:1"
   id="path126"
   inkscape:connector-curvature="0" /><path
   d="m 691.464,271.626 v -55"
   style="fill:none;stroke:#1a171b;stroke-width:0.5;stroke-linecap:butt;stroke-linejoin:miter;stroke-miterlimit:4;stroke-dasharray:6;stroke-dashoffset:0;stroke-opacity:1"
   id="path128"
   inkscape:connector-curvature="0" /><path
   d="M 726.25,266.275 665.86,240.434"
   style="fill:none;stroke:#1a171b;stroke-width:0.5;stroke-linecap:butt;stroke-linejoin:miter;stroke-miterlimit:4;stroke-dasharray:1;stroke-dashoffset:0;stroke-opacity:1"
   id="path130"
   inkscape:connector-curvature="0" /><path
   d="m 720.13,251.214 c 0,-3.498 -13.013,-6.333 -29.066,-6.333 -16.05,0 -29.064,2.835 -29.064,6.333 0,3.498 13.014,6.333 29.064,6.333 16.053,0 29.066,-2.835 29.066,-6.333 z"
   style="fill:none;stroke:#1a171b;stroke-width:0.25;stroke-linecap:butt;stroke-linejoin:miter;stroke-miterlimit:4;stroke-dasharray:none;stroke-opacity:1"
   id="path132"
   inkscape:connector-curvature="0" /><text
   transform="matrix(1,0,0,-1,662,238.6279)"
   style="font-variant:normal;font-weight:normal;font-stretch:normal;font-size:5px;font-family:'Comic Sans MS';-inkscape-font-specification:ComicSansMS;writing-mode:lr-tb;fill:#1a171b;fill-opacity:1;fill-rule:nonzero;stroke:none"
   id="text136"><tspan
     x="0"
     y="0"
     id="tspan134">z</tspan></text>
<text
   transform="matrix(1,0,0,-1,689,274.6279)"
   style="font-variant:normal;font-weight:normal;font-stretch:normal;font-size:5px;font-family:'Comic Sans MS';-inkscape-font-specification:ComicSansMS;writing-mode:lr-tb;fill:#1a171b;fill-opacity:1;fill-rule:nonzero;stroke:none"
   id="text140"><tspan
     x="0"
     y="0"
     id="tspan138">y</tspan></text>
<path
   d="M 749.75,251.025 630,252.275"
   style="fill:none;stroke:#1a171b;stroke-width:0.5;stroke-linecap:butt;stroke-linejoin:miter;stroke-miterlimit:4;stroke-dasharray:2;stroke-dashoffset:0;stroke-opacity:1"
   id="path142"
   inkscape:connector-curvature="0" /><text
   transform="matrix(1,0,0,-1,750.084,247.7676)"
   style="font-variant:normal;font-weight:normal;font-stretch:normal;font-size:5px;font-family:'Comic Sans MS';-inkscape-font-specification:ComicSansMS;writing-mode:lr-tb;fill:#1a171b;fill-opacity:1;fill-rule:nonzero;stroke:none"
   id="text146"><tspan
     x="0"
     y="0"
     id="tspan144">x</tspan></text>
<path
   d="m 636.784,349.374 55.199,0.452 50.716,-1.142"
   style="fill:none;stroke:#1a171b;stroke-width:1;stroke-linecap:butt;stroke-linejoin:miter;stroke-miterlimit:4;stroke-dasharray:none;stroke-opacity:1"
   id="path148"
   inkscape:connector-curvature="0" /><path
   d="m 741.958,344.99 c -1.919,0.993 -2.669,3.354 -1.676,5.272 0.993,1.919 3.353,2.67 5.272,1.676"
   style="fill:#1a171b;fill-opacity:1;fill-rule:nonzero;stroke:none"
   id="path150"
   inkscape:connector-curvature="0" /><path
   d="m 741.958,344.99 c -1.919,0.993 -2.669,3.354 -1.676,5.272 0.993,1.919 3.353,2.67 5.272,1.676"
   style="fill:none;stroke:#1a171b;stroke-width:1;stroke-linecap:butt;stroke-linejoin:miter;stroke-miterlimit:4;stroke-dasharray:none;stroke-opacity:1"
   id="path152"
   inkscape:connector-curvature="0" /><path
   d="m 695.896,349.826 c 0,-2.161 -1.751,-3.912 -3.913,-3.912 -2.16,0 -3.911,1.751 -3.911,3.912 0,2.161 1.751,3.911 3.911,3.911 2.162,0 3.913,-1.75 3.913,-3.911"
   style="fill:#ffffff;fill-opacity:1;fill-rule:nonzero;stroke:none"
   id="path154"
   inkscape:connector-curvature="0" /><path
   d="m 695.896,349.826 c 0,-2.161 -1.751,-3.912 -3.913,-3.912 -2.16,0 -3.911,1.751 -3.911,3.912 0,2.161 1.751,3.911 3.911,3.911 2.162,0 3.913,-1.75 3.913,-3.911 z"
   style="fill:none;stroke:#1a171b;stroke-width:1;stroke-linecap:butt;stroke-linejoin:miter;stroke-miterlimit:4;stroke-dasharray:none;stroke-opacity:1"
   id="path156"
   inkscape:connector-curvature="0" /><path
   d="m 634.792,351.983 c 1.809,1.183 4.231,0.675 5.415,-1.132 1.183,-1.809 0.677,-4.233 -1.132,-5.415"
   style="fill:#1a171b;fill-opacity:1;fill-rule:nonzero;stroke:none"
   id="path158"
   inkscape:connector-curvature="0" /><path
   d="m 634.792,351.983 c 1.809,1.183 4.231,0.675 5.415,-1.132 1.183,-1.809 0.677,-4.233 -1.132,-5.415"
   style="fill:none;stroke:#1a171b;stroke-width:1;stroke-linecap:butt;stroke-linejoin:miter;stroke-miterlimit:4;stroke-dasharray:none;stroke-opacity:1"
   id="path160"
   inkscape:connector-curvature="0" /><path
   d="m 699,268.018 c 2,-7.5 20.667,-6.5 20.667,-16.5"
   style="fill:none;stroke:#1a171b;stroke-width:4;stroke-linecap:butt;stroke-linejoin:miter;stroke-miterlimit:4;stroke-dasharray:none;stroke-opacity:1"
   id="path162"
   inkscape:connector-curvature="0" /><path
   d="m 694,316.018 c 15,-15 -9,-21.5 0,-37.5"
   style="fill:none;stroke:#1a171b;stroke-width:4;stroke-linecap:butt;stroke-linejoin:miter;stroke-miterlimit:4;stroke-dasharray:none;stroke-opacity:1"
   id="path164"
   inkscape:connector-curvature="0" /><path
   d="M 658.519,348.921 C 661,333.518 682,337.518 688,326.518"
   style="fill:none;stroke:#1a171b;stroke-width:4;stroke-linecap:butt;stroke-linejoin:miter;stroke-miterlimit:4;stroke-dasharray:none;stroke-opacity:1"
   id="path166"
   inkscape:connector-curvature="0" /><path
   d="m 702.5,291.018 c 31.167,-14.5 -40.166,-24.834 -40.166,-38.834"
   style="fill:none;stroke:#1a171b;stroke-width:4;stroke-linecap:butt;stroke-linejoin:miter;stroke-miterlimit:4;stroke-dasharray:none;stroke-opacity:1"
   id="path168"
   inkscape:connector-curvature="0" /><path
   d="M 720.964,349.266 C 721,322.018 651,322.018 690.5,297.518"
   style="fill:none;stroke:#1a171b;stroke-width:4;stroke-linecap:butt;stroke-linejoin:miter;stroke-miterlimit:4;stroke-dasharray:none;stroke-opacity:1"
   id="path170"
   inkscape:connector-curvature="0" /><path
   d="m 739.938,251.049 -49.334,0.582 -43.47,0.453"
   style="fill:none;stroke:#1a171b;stroke-width:1;stroke-linecap:butt;stroke-linejoin:miter;stroke-miterlimit:4;stroke-dasharray:none;stroke-opacity:1"
   id="path172"
   inkscape:connector-curvature="0" /><path
   d="m 742.784,247.729 c -2.096,-0.524 -4.219,0.75 -4.743,2.845 -0.523,2.096 0.75,4.22 2.847,4.744"
   style="fill:#1a171b;fill-opacity:1;fill-rule:nonzero;stroke:none"
   id="path174"
   inkscape:connector-curvature="0" /><path
   d="m 742.784,247.729 c -2.096,-0.524 -4.219,0.75 -4.743,2.845 -0.523,2.096 0.75,4.22 2.847,4.744"
   style="fill:none;stroke:#1a171b;stroke-width:1;stroke-linecap:butt;stroke-linejoin:miter;stroke-miterlimit:4;stroke-dasharray:none;stroke-opacity:1"
   id="path176"
   inkscape:connector-curvature="0" /><path
   d="m 694.516,251.631 c 0,-2.16 -1.752,-3.911 -3.912,-3.911 -2.161,0 -3.913,1.751 -3.913,3.911 0,2.162 1.752,3.912 3.913,3.912 2.16,0 3.912,-1.75 3.912,-3.912"
   style="fill:#ffffff;fill-opacity:1;fill-rule:nonzero;stroke:none"
   id="path178"
   inkscape:connector-curvature="0" /><path
   d="m 694.516,251.631 c 0,-2.16 -1.752,-3.911 -3.912,-3.911 -2.161,0 -3.913,1.751 -3.913,3.911 0,2.162 1.752,3.912 3.913,3.912 2.16,0 3.912,-1.75 3.912,-3.912 z"
   style="fill:none;stroke:#1a171b;stroke-width:1;stroke-linecap:butt;stroke-linejoin:miter;stroke-miterlimit:4;stroke-dasharray:none;stroke-opacity:1"
   id="path180"
   inkscape:connector-curvature="0" /><path
   d="m 647.134,256.457 c 1.932,-0.967 2.715,-3.315 1.749,-5.248 -0.966,-1.933 -3.315,-2.715 -5.247,-1.75"
   style="fill:#1a171b;fill-opacity:1;fill-rule:nonzero;stroke:none"
   id="path182"
   inkscape:connector-curvature="0" /><path
   d="m 647.134,256.457 c 1.932,-0.967 2.715,-3.315 1.749,-5.248 -0.966,-1.933 -3.315,-2.715 -5.247,-1.75"
   style="fill:none;stroke:#1a171b;stroke-width:1;stroke-linecap:butt;stroke-linejoin:miter;stroke-miterlimit:4;stroke-dasharray:none;stroke-opacity:1"
   id="path184"
   inkscape:connector-curvature="0" /><path
   d="m 261.9,271.835 v -55"
   style="fill:none;stroke:#1a171b;stroke-width:0.5;stroke-linecap:butt;stroke-linejoin:miter;stroke-miterlimit:4;stroke-dasharray:6;stroke-dashoffset:0;stroke-opacity:1"
   id="path186"
   inkscape:connector-curvature="0" /><path
   d="m 290.566,251.423 c 0,-3.498 -13.012,-6.333 -29.065,-6.333 -16.051,0 -29.064,2.835 -29.064,6.333 0,3.498 13.013,6.333 29.064,6.333 16.053,0 29.065,-2.835 29.065,-6.333 z"
   style="fill:none;stroke:#1a171b;stroke-width:0.25;stroke-linecap:butt;stroke-linejoin:miter;stroke-miterlimit:4;stroke-dasharray:none;stroke-opacity:1"
   id="path188"
   inkscape:connector-curvature="0" /><path
   d="m 283.297,260.976 -47,-20.333"
   style="fill:none;stroke:#1a171b;stroke-width:0.5;stroke-linecap:butt;stroke-linejoin:miter;stroke-miterlimit:4;stroke-dasharray:2;stroke-dashoffset:0;stroke-opacity:1"
   id="path190"
   inkscape:connector-curvature="0" /><path
   d="m 321.103,251.06 -113.666,0.667"
   style="fill:none;stroke:#1a171b;stroke-width:0.5;stroke-linecap:butt;stroke-linejoin:miter;stroke-miterlimit:4;stroke-dasharray:2;stroke-dashoffset:0;stroke-opacity:1"
   id="path192"
   inkscape:connector-curvature="0" /><path
   d="m 208.081,349.165 55.2,0.452 50.715,-1.142"
   style="fill:none;stroke:#1a171b;stroke-width:1;stroke-linecap:butt;stroke-linejoin:miter;stroke-miterlimit:4;stroke-dasharray:none;stroke-opacity:1"
   id="path194"
   inkscape:connector-curvature="0" /><path
   d="m 313.255,344.781 c -1.92,0.993 -2.669,3.354 -1.676,5.272 0.993,1.92 3.352,2.67 5.272,1.676"
   style="fill:#1a171b;fill-opacity:1;fill-rule:nonzero;stroke:none"
   id="path196"
   inkscape:connector-curvature="0" /><path
   d="m 313.255,344.781 c -1.92,0.993 -2.669,3.354 -1.676,5.272 0.993,1.92 3.352,2.67 5.272,1.676"
   style="fill:none;stroke:#1a171b;stroke-width:1;stroke-linecap:butt;stroke-linejoin:miter;stroke-miterlimit:4;stroke-dasharray:none;stroke-opacity:1"
   id="path198"
   inkscape:connector-curvature="0" /><path
   d="m 267.192,349.617 c 0,-2.161 -1.751,-3.911 -3.912,-3.911 -2.16,0 -3.911,1.75 -3.911,3.911 0,2.161 1.751,3.911 3.911,3.911 2.161,0 3.912,-1.75 3.912,-3.911"
   style="fill:#ffffff;fill-opacity:1;fill-rule:nonzero;stroke:none"
   id="path200"
   inkscape:connector-curvature="0" /><path
   d="m 267.192,349.617 c 0,-2.161 -1.751,-3.911 -3.912,-3.911 -2.16,0 -3.911,1.75 -3.911,3.911 0,2.161 1.751,3.911 3.911,3.911 2.161,0 3.912,-1.75 3.912,-3.911 z"
   style="fill:none;stroke:#1a171b;stroke-width:1;stroke-linecap:butt;stroke-linejoin:miter;stroke-miterlimit:4;stroke-dasharray:none;stroke-opacity:1"
   id="path202"
   inkscape:connector-curvature="0" /><path
   d="m 206.088,351.774 c 1.809,1.183 4.232,0.675 5.415,-1.132 1.183,-1.808 0.677,-4.232 -1.132,-5.415"
   style="fill:#1a171b;fill-opacity:1;fill-rule:nonzero;stroke:none"
   id="path204"
   inkscape:connector-curvature="0" /><path
   d="m 206.088,351.774 c 1.809,1.183 4.232,0.675 5.415,-1.132 1.183,-1.808 0.677,-4.232 -1.132,-5.415"
   style="fill:none;stroke:#1a171b;stroke-width:1;stroke-linecap:butt;stroke-linejoin:miter;stroke-miterlimit:4;stroke-dasharray:none;stroke-opacity:1"
   id="path206"
   inkscape:connector-curvature="0" /><path
   d="m 230.851,348.475 c 1.724,-10.35 1.574,-78.82 1.919,-96.415"
   style="fill:none;stroke:#1a171b;stroke-width:4;stroke-linecap:butt;stroke-linejoin:miter;stroke-miterlimit:4;stroke-dasharray:none;stroke-opacity:1"
   id="path208"
   inkscape:connector-curvature="0" /><path
   d="M 293.295,348.819 C 291.57,332.95 288.121,269.47 289.845,251.53"
   style="fill:none;stroke:#1a171b;stroke-width:4;stroke-linecap:butt;stroke-linejoin:miter;stroke-miterlimit:4;stroke-dasharray:none;stroke-opacity:1"
   id="path210"
   inkscape:connector-curvature="0" /><path
   d="m 311.235,250.84 -49.335,0.582 -43.47,0.453"
   style="fill:none;stroke:#1a171b;stroke-width:1;stroke-linecap:butt;stroke-linejoin:miter;stroke-miterlimit:4;stroke-dasharray:none;stroke-opacity:1"
   id="path212"
   inkscape:connector-curvature="0" /><path
   d="m 314.081,247.52 c -2.096,-0.524 -4.219,0.75 -4.743,2.845 -0.524,2.096 0.75,4.22 2.846,4.744"
   style="fill:#1a171b;fill-opacity:1;fill-rule:nonzero;stroke:none"
   id="path214"
   inkscape:connector-curvature="0" /><path
   d="m 314.081,247.52 c -2.096,-0.524 -4.219,0.75 -4.743,2.845 -0.524,2.096 0.75,4.22 2.846,4.744"
   style="fill:none;stroke:#1a171b;stroke-width:1;stroke-linecap:butt;stroke-linejoin:miter;stroke-miterlimit:4;stroke-dasharray:none;stroke-opacity:1"
   id="path216"
   inkscape:connector-curvature="0" /><path
   d="m 265.812,251.422 c 0,-2.16 -1.751,-3.91 -3.912,-3.91 -2.16,0 -3.912,1.75 -3.912,3.91 0,2.162 1.752,3.912 3.912,3.912 2.161,0 3.912,-1.75 3.912,-3.912"
   style="fill:#ffffff;fill-opacity:1;fill-rule:nonzero;stroke:none"
   id="path218"
   inkscape:connector-curvature="0" /><path
   d="m 265.812,251.422 c 0,-2.16 -1.751,-3.91 -3.912,-3.91 -2.16,0 -3.912,1.75 -3.912,3.91 0,2.162 1.752,3.912 3.912,3.912 2.161,0 3.912,-1.75 3.912,-3.912 z"
   style="fill:none;stroke:#1a171b;stroke-width:1;stroke-linecap:butt;stroke-linejoin:miter;stroke-miterlimit:4;stroke-dasharray:none;stroke-opacity:1"
   id="path220"
   inkscape:connector-curvature="0" /><path
   d="m 218.43,256.248 c 1.933,-0.966 2.715,-3.315 1.749,-5.248 -0.966,-1.933 -3.315,-2.715 -5.247,-1.75"
   style="fill:#1a171b;fill-opacity:1;fill-rule:nonzero;stroke:none"
   id="path222"
   inkscape:connector-curvature="0" /><path
   d="m 218.43,256.248 c 1.933,-0.966 2.715,-3.315 1.749,-5.248 -0.966,-1.933 -3.315,-2.715 -5.247,-1.75"
   style="fill:none;stroke:#1a171b;stroke-width:1;stroke-linecap:butt;stroke-linejoin:miter;stroke-miterlimit:4;stroke-dasharray:none;stroke-opacity:1"
   id="path224"
   inkscape:connector-curvature="0" /><text
   transform="matrix(1,0,0,-1,232.4365,238.8369)"
   style="font-variant:normal;font-weight:normal;font-stretch:normal;font-size:5px;font-family:'Comic Sans MS';-inkscape-font-specification:ComicSansMS;writing-mode:lr-tb;fill:#1a171b;fill-opacity:1;fill-rule:nonzero;stroke:none"
   id="text228"><tspan
     x="0"
     y="0"
     id="tspan226">z</tspan></text>
<text
   transform="matrix(1,0,0,-1,259.4365,274.8369)"
   style="font-variant:normal;font-weight:normal;font-stretch:normal;font-size:5px;font-family:'Comic Sans MS';-inkscape-font-specification:ComicSansMS;writing-mode:lr-tb;fill:#1a171b;fill-opacity:1;fill-rule:nonzero;stroke:none"
   id="text232"><tspan
     x="0"
     y="0"
     id="tspan230">y</tspan></text>
<text
   transform="matrix(1,0,0,-1,323.7705,248.2266)"
   style="font-variant:normal;font-weight:normal;font-stretch:normal;font-size:5px;font-family:'Comic Sans MS';-inkscape-font-specification:ComicSansMS;writing-mode:lr-tb;fill:#1a171b;fill-opacity:1;fill-rule:nonzero;stroke:none"
   id="text236"><tspan
     x="0"
     y="0"
     id="tspan234">x</tspan></text>
<path
   d="m 407.278,271.834 v -55"
   style="fill:none;stroke:#1a171b;stroke-width:0.5;stroke-linecap:butt;stroke-linejoin:miter;stroke-miterlimit:4;stroke-dasharray:6;stroke-dashoffset:0;stroke-opacity:1"
   id="path238"
   inkscape:connector-curvature="0" /><path
   d="m 428.675,260.975 -47,-20.333"
   style="fill:none;stroke:#1a171b;stroke-width:0.5;stroke-linecap:butt;stroke-linejoin:miter;stroke-miterlimit:4;stroke-dasharray:1;stroke-dashoffset:0;stroke-opacity:1"
   id="path240"
   inkscape:connector-curvature="0" /><path
   d="m 353.459,349.165 55.199,0.452 50.716,-1.142"
   style="fill:none;stroke:#1a171b;stroke-width:1;stroke-linecap:butt;stroke-linejoin:miter;stroke-miterlimit:4;stroke-dasharray:none;stroke-opacity:1"
   id="path242"
   inkscape:connector-curvature="0" /><path
   d="m 458.633,344.782 c -1.919,0.993 -2.669,3.353 -1.676,5.272 0.993,1.919 3.353,2.669 5.272,1.675"
   style="fill:#1a171b;fill-opacity:1;fill-rule:nonzero;stroke:none"
   id="path244"
   inkscape:connector-curvature="0" /><path
   d="m 458.633,344.782 c -1.919,0.993 -2.669,3.353 -1.676,5.272 0.993,1.919 3.353,2.669 5.272,1.675"
   style="fill:none;stroke:#1a171b;stroke-width:1;stroke-linecap:butt;stroke-linejoin:miter;stroke-miterlimit:4;stroke-dasharray:none;stroke-opacity:1"
   id="path246"
   inkscape:connector-curvature="0" /><path
   d="m 412.571,349.617 c 0,-2.16 -1.752,-3.911 -3.913,-3.911 -2.16,0 -3.911,1.751 -3.911,3.911 0,2.161 1.751,3.912 3.911,3.912 2.161,0 3.913,-1.751 3.913,-3.912"
   style="fill:#ffffff;fill-opacity:1;fill-rule:nonzero;stroke:none"
   id="path248"
   inkscape:connector-curvature="0" /><path
   d="m 412.571,349.617 c 0,-2.16 -1.752,-3.911 -3.913,-3.911 -2.16,0 -3.911,1.751 -3.911,3.911 0,2.161 1.751,3.912 3.911,3.912 2.161,0 3.913,-1.751 3.913,-3.912 z"
   style="fill:none;stroke:#1a171b;stroke-width:1;stroke-linecap:butt;stroke-linejoin:miter;stroke-miterlimit:4;stroke-dasharray:none;stroke-opacity:1"
   id="path250"
   inkscape:connector-curvature="0" /><path
   d="m 351.467,351.774 c 1.808,1.183 4.231,0.676 5.415,-1.131 1.182,-1.809 0.677,-4.233 -1.132,-5.415"
   style="fill:#1a171b;fill-opacity:1;fill-rule:nonzero;stroke:none"
   id="path252"
   inkscape:connector-curvature="0" /><path
   d="m 351.467,351.774 c 1.808,1.183 4.231,0.676 5.415,-1.131 1.182,-1.809 0.677,-4.233 -1.132,-5.415"
   style="fill:none;stroke:#1a171b;stroke-width:1;stroke-linecap:butt;stroke-linejoin:miter;stroke-miterlimit:4;stroke-dasharray:none;stroke-opacity:1"
   id="path254"
   inkscape:connector-curvature="0" /><path
   d="m 414.868,291.441 c 10.843,-12.129 20.382,-24.616 20.382,-39.916"
   style="fill:none;stroke:#1a171b;stroke-width:4;stroke-linecap:butt;stroke-linejoin:miter;stroke-miterlimit:4;stroke-dasharray:none;stroke-opacity:1"
   id="path256"
   inkscape:connector-curvature="0" /><path
   d="m 375.193,348.712 c 0.473,-15.803 12.886,-29.33 26.238,-43.11"
   style="fill:none;stroke:#1a171b;stroke-width:4;stroke-linecap:butt;stroke-linejoin:miter;stroke-miterlimit:4;stroke-dasharray:none;stroke-opacity:1"
   id="path258"
   inkscape:connector-curvature="0" /><path
   d="M 437.639,349.058 C 442.675,311.419 379.667,281.858 379,251.525"
   style="fill:none;stroke:#1a171b;stroke-width:4;stroke-linecap:butt;stroke-linejoin:miter;stroke-miterlimit:4;stroke-dasharray:none;stroke-opacity:1"
   id="path260"
   inkscape:connector-curvature="0" /><path
   d="m 454.342,251.642 -47.064,-0.22 -44.937,0.22"
   style="fill:none;stroke:#1a171b;stroke-width:1;stroke-linecap:butt;stroke-linejoin:miter;stroke-miterlimit:4;stroke-dasharray:none;stroke-opacity:1"
   id="path262"
   inkscape:connector-curvature="0" /><path
   d="m 455.938,247.739 c -2.095,-0.523 -4.218,0.75 -4.743,2.846 -0.523,2.096 0.75,4.22 2.847,4.744"
   style="fill:#1a171b;fill-opacity:1;fill-rule:nonzero;stroke:none"
   id="path264"
   inkscape:connector-curvature="0" /><path
   d="m 455.938,247.739 c -2.095,-0.523 -4.218,0.75 -4.743,2.846 -0.523,2.096 0.75,4.22 2.847,4.744"
   style="fill:none;stroke:#1a171b;stroke-width:1;stroke-linecap:butt;stroke-linejoin:miter;stroke-miterlimit:4;stroke-dasharray:none;stroke-opacity:1"
   id="path266"
   inkscape:connector-curvature="0" /><path
   d="m 411.19,251.422 c 0,-2.16 -1.752,-3.911 -3.912,-3.911 -2.16,0 -3.912,1.751 -3.912,3.911 0,2.162 1.752,3.912 3.912,3.912 2.16,0 3.912,-1.75 3.912,-3.912"
   style="fill:#ffffff;fill-opacity:1;fill-rule:nonzero;stroke:none"
   id="path268"
   inkscape:connector-curvature="0" /><path
   d="m 411.19,251.422 c 0,-2.16 -1.752,-3.911 -3.912,-3.911 -2.16,0 -3.912,1.751 -3.912,3.911 0,2.162 1.752,3.912 3.912,3.912 2.16,0 3.912,-1.75 3.912,-3.912 z"
   style="fill:none;stroke:#1a171b;stroke-width:1;stroke-linecap:butt;stroke-linejoin:miter;stroke-miterlimit:4;stroke-dasharray:none;stroke-opacity:1"
   id="path270"
   inkscape:connector-curvature="0" /><path
   d="m 363.343,255.349 c 1.932,-0.967 2.715,-3.316 1.749,-5.248 -0.966,-1.933 -3.315,-2.715 -5.247,-1.75"
   style="fill:#1a171b;fill-opacity:1;fill-rule:nonzero;stroke:none"
   id="path272"
   inkscape:connector-curvature="0" /><path
   d="m 363.343,255.349 c 1.932,-0.967 2.715,-3.316 1.749,-5.248 -0.966,-1.933 -3.315,-2.715 -5.247,-1.75"
   style="fill:none;stroke:#1a171b;stroke-width:1;stroke-linecap:butt;stroke-linejoin:miter;stroke-miterlimit:4;stroke-dasharray:none;stroke-opacity:1"
   id="path274"
   inkscape:connector-curvature="0" /><path
   d="m 435.944,251.755 c 0,-3.498 -12.759,-6.333 -28.5,-6.333 -15.739,0 -28.499,2.835 -28.499,6.333 0,3.498 12.76,6.333 28.499,6.333 15.741,0 28.5,-2.835 28.5,-6.333 z"
   style="fill:none;stroke:#1a171b;stroke-width:0.25;stroke-linecap:butt;stroke-linejoin:miter;stroke-miterlimit:4;stroke-dasharray:none;stroke-opacity:1"
   id="path276"
   inkscape:connector-curvature="0" /><text
   transform="matrix(1,0,0,-1,377.0083,237.0859)"
   style="font-variant:normal;font-weight:normal;font-stretch:normal;font-size:5px;font-family:'Comic Sans MS';-inkscape-font-specification:ComicSansMS;writing-mode:lr-tb;fill:#1a171b;fill-opacity:1;fill-rule:nonzero;stroke:none"
   id="text280"><tspan
     x="0"
     y="0"
     id="tspan278">z</tspan></text>
<text
   transform="matrix(1,0,0,-1,406.3403,275.085)"
   style="font-variant:normal;font-weight:normal;font-stretch:normal;font-size:5px;font-family:'Comic Sans MS';-inkscape-font-specification:ComicSansMS;writing-mode:lr-tb;fill:#1a171b;fill-opacity:1;fill-rule:nonzero;stroke:none"
   id="text284"><tspan
     x="0"
     y="0"
     id="tspan282">y</tspan></text>
<text
   transform="matrix(1,0,0,-1,464.0088,248.3086)"
   style="font-variant:normal;font-weight:normal;font-stretch:normal;font-size:5px;font-family:'Comic Sans MS';-inkscape-font-specification:ComicSansMS;writing-mode:lr-tb;fill:#1a171b;fill-opacity:1;fill-rule:nonzero;stroke:none"
   id="text288"><tspan
     x="0"
     y="0"
     id="tspan286">x</tspan></text>
<path
   d="m 461.341,251.142 -113.666,0.667"
   style="fill:none;stroke:#1a171b;stroke-width:0.5;stroke-linecap:butt;stroke-linejoin:miter;stroke-miterlimit:4;stroke-dasharray:2;stroke-dashoffset:0;stroke-opacity:1"
   id="path290"
   inkscape:connector-curvature="0" /></g></g></svg>
