<?xml version="1.0" encoding="UTF-8" standalone="no"?>
<svg
   xmlns:dc="http://purl.org/dc/elements/1.1/"
   xmlns:cc="http://creativecommons.org/ns#"
   xmlns:rdf="http://www.w3.org/1999/02/22-rdf-syntax-ns#"
   xmlns:svg="http://www.w3.org/2000/svg"
   xmlns="http://www.w3.org/2000/svg"
   xmlns:sodipodi="http://sodipodi.sourceforge.net/DTD/sodipodi-0.dtd"
   xmlns:inkscape="http://www.inkscape.org/namespaces/inkscape"
   width="500"
   height="150.345"
   viewBox="0 0 132.29166 39.778782"
   version="1.1"
   id="svg17852"
   inkscape:version="1.0.2-2 (e86c870879, 2021-01-15)"
   sodipodi:docname="annulunule.svg">
  <defs
     id="defs17846" />
  <sodipodi:namedview
     id="base"
     pagecolor="#ffffff"
     bordercolor="#666666"
     borderopacity="1.0"
     inkscape:pageopacity="0.0"
     inkscape:pageshadow="2"
     inkscape:zoom="1.4"
     inkscape:cx="398.31896"
     inkscape:cy="91.921453"
     inkscape:document-units="mm"
     inkscape:current-layer="layer1"
     inkscape:document-rotation="0"
     showgrid="false"
     units="px"
     fit-margin-top="0"
     fit-margin-left="0"
     fit-margin-right="0"
     fit-margin-bottom="0"
     inkscape:window-width="1920"
     inkscape:window-height="1001"
     inkscape:window-x="-9"
     inkscape:window-y="-9"
     inkscape:window-maximized="1" />
  <metadata
     id="metadata17849">
    <rdf:RDF>
      <cc:Work
         rdf:about="">
        <dc:format>image/svg+xml</dc:format>
        <dc:type
           rdf:resource="http://purl.org/dc/dcmitype/StillImage" />
        <dc:title></dc:title>
      </cc:Work>
    </rdf:RDF>
  </metadata>
  <g
     inkscape:label="Calque 1"
     inkscape:groupmode="layer"
     id="layer1"
     transform="translate(-14.574697,-93.67105)">
    <path
       d="m 26.279656,106.56873 c -3.890546,6.68348 -5.332663,20.46989 1.366668,20.96771 m 13.667384,-26.85108 c -2.381907,-4.411331 -10.265707,-4.74432 -13.74352,2.81724 m 5.847362,18.56372 c -2.657549,1.49207 -4.496397,5.48267 -2.733686,7.45863 3.684568,4.13032 13.076905,0.70625 16.13929,-3.90433 4.070521,-6.12838 -0.883373,-16.59295 -3.534716,-21.78626 m -3.090302,7.73116 c 1.13895,4.97214 -1.541286,7.68237 -4.654963,9.34049 m 12.462141,-9.92271 c 4.714219,0.35297 5.087726,-6.80707 2.715964,-8.71137 -3.268251,-2.624084 -12.27896,-2.03903 -10.911946,6.2478 m -14.288286,3.93288 c 4.555793,0.16622 8.503528,-4.64106 18.678274,-1.98868 m -15.199908,-0.62509 c -2.233408,-8.36597 -6.123333,-8.94114 -9.2489,-6.75052 -2.554065,1.79007 -1.644986,7.82617 2.606607,8.98631 m 9.845002,15.46181 c 2.733336,-0.66352 3.037882,-1.82452 3.047873,-3.38412 0.01722,-2.8143 -3.807174,-6.72723 -5.021224,-10.53906"
       style="fill:none;stroke:#000000;stroke-width:0.705556;stroke-linecap:square;stroke-linejoin:bevel;stroke-miterlimit:10;stroke-dasharray:none;stroke-opacity:1"
       id="path66"
       inkscape:connector-curvature="0"
       sodipodi:nodetypes="cccccaaccccaccccacccc" />
    <path
       d="m 71.497048,106.56873 c -3.890546,6.68348 -5.332663,20.46989 1.366668,20.96771 M 86.5311,100.68536 C 84.149193,96.274026 76.265393,95.941036 72.78758,103.5026 m 12.627948,8.06292 c 1.13895,4.97214 -1.541286,7.68237 -5.717774,9.92065 -3.720361,2.07222 -5.559209,6.06282 -3.796498,8.03878 3.684568,4.13032 13.076905,0.70625 16.13929,-3.90433 4.070521,-6.12838 -0.883373,-16.59295 -3.534716,-21.78626 m 4.716876,7.14894 c 4.714219,0.35297 5.087727,-6.80707 2.715964,-8.71138 -3.268251,-2.624083 -12.27896,-2.03903 -10.911946,6.24781 m -14.288286,3.93288 c 4.555793,0.16622 8.503528,-4.64106 18.678274,-1.98868 m -15.199908,-0.62509 c -2.233408,-8.36598 -6.123333,-8.94114 -9.2489,-6.75052 -2.554065,1.79007 -1.644986,7.82617 2.606607,8.98631 m 9.477506,15.86271 c 2.733336,-0.0956 3.672648,-1.99156 3.682639,-3.55116 0.0031,-0.50276 -0.12498,-1.04805 -0.344335,-1.62636 m -1.27168,-2.46968 c -1.279434,-2.11928 -2.964815,-4.45498 -3.672479,-6.67688"
       style="fill:none;stroke:#000000;stroke-width:0.705556;stroke-linecap:square;stroke-linejoin:bevel;stroke-miterlimit:10;stroke-dasharray:none;stroke-opacity:1"
       id="path66-9"
       inkscape:connector-curvature="0"
       sodipodi:nodetypes="ccccccaaccaccccacccccc" />
    <path
       d="m 116.71444,108.38807 c -3.89054,6.68348 -5.33266,20.46989 3.46082,21.16816 4.82749,0.10485 5.7668,-1.79111 5.77679,-3.35071 -0.55555,-3.72279 -4.03078,-7.00771 -5.28849,-10.77292 m 11.08494,-12.9279 c -2.38191,-4.41133 -10.26571,-4.74432 -13.74353,2.81724 m 12.62795,8.06292 c 2.90832,7.91672 -3.93367,12.22177 0.21862,12.47878 6.79131,0.42034 8.83838,-8.42405 2.87168,-20.20994 m 4.71688,7.14894 c 4.71422,0.35297 5.08773,-6.80707 2.71596,-8.71138 -3.26825,-2.62408 -12.27896,-2.03903 -10.91194,6.24781 m -14.28829,3.93288 c 4.5558,0.16622 8.50353,-4.64106 18.67828,-1.98868 m -15.19991,-0.62509 c -2.23341,-8.36598 -6.12333,-8.94114 -9.2489,-6.75052 -2.55407,1.79007 -1.64499,7.82617 2.60661,8.98631"
       style="fill:none;stroke:#000000;stroke-width:0.705556;stroke-linecap:square;stroke-linejoin:bevel;stroke-miterlimit:10;stroke-dasharray:none;stroke-opacity:1"
       id="path66-9-6"
       inkscape:connector-curvature="0"
       sodipodi:nodetypes="cccccccaccaccccac" />
  </g>
</svg>
