<?xml version="1.0" encoding="UTF-8" standalone="no"?>
<!-- Created with Inkscape (http://www.inkscape.org/) -->

<svg
   version="1.1"
   id="svg3710"
   xml:space="preserve"
   width="600"
   height="400"
   viewBox="0 0 600 400"
   sodipodi:docname="lunulerare.svg"
   inkscape:version="1.1 (c68e22c387, 2021-05-23)"
   xmlns:inkscape="http://www.inkscape.org/namespaces/inkscape"
   xmlns:sodipodi="http://sodipodi.sourceforge.net/DTD/sodipodi-0.dtd"
   xmlns="http://www.w3.org/2000/svg"
   xmlns:svg="http://www.w3.org/2000/svg"
   xmlns:rdf="http://www.w3.org/1999/02/22-rdf-syntax-ns#"
   xmlns:cc="http://creativecommons.org/ns#"
   xmlns:dc="http://purl.org/dc/elements/1.1/"><metadata
     id="metadata3716"><rdf:RDF><cc:Work
         rdf:about=""><dc:format>image/svg+xml</dc:format><dc:type
           rdf:resource="http://purl.org/dc/dcmitype/StillImage" /></cc:Work></rdf:RDF></metadata><defs
     id="defs3714"><marker
       style="overflow:visible"
       id="Arrow1Lstart"
       refX="0"
       refY="0"
       orient="auto"
       inkscape:stockid="Arrow1Lstart"
       inkscape:isstock="true"><path
         transform="matrix(0.8,0,0,0.8,10,0)"
         style="fill:context-stroke;fill-rule:evenodd;stroke:context-stroke;stroke-width:1pt"
         d="M 0,0 5,-5 -12.5,0 5,5 Z"
         id="path17481" /></marker><clipPath
       clipPathUnits="userSpaceOnUse"
       id="clipPath3726"><path
         d="M 0,595.446 H 841.89 V 0 H 0 Z"
         id="path3724"
         inkscape:connector-curvature="0" /></clipPath></defs><sodipodi:namedview
     pagecolor="#ffffff"
     bordercolor="#666666"
     borderopacity="1"
     objecttolerance="10"
     gridtolerance="10"
     guidetolerance="10"
     inkscape:pageopacity="0"
     inkscape:pageshadow="2"
     inkscape:window-width="1920"
     inkscape:window-height="1001"
     id="namedview3712"
     showgrid="false"
     inkscape:zoom="1"
     inkscape:cx="435"
     inkscape:cy="277.5"
     inkscape:window-x="-9"
     inkscape:window-y="-9"
     inkscape:window-maximized="1"
     inkscape:current-layer="g3718"
     inkscape:pagecheckerboard="0" /><g
     id="g3718"
     inkscape:groupmode="layer"
     inkscape:label="lunulerare"
     transform="matrix(1.3333333,0,0,-1.3333333,-81.427528,537.28127)"><g
       id="g46450"
       transform="matrix(1.44,0,0,1.44,-58.794408,-170.32921)"><path
         d="m 101.35669,301.05884 c -6.75,7.208 -1.597533,20.39415 5.73925,24.375 7.2133,3.91384 18.86858,-1.34205 23.167,-8.333 5.382,-8.7533 7.07325,-27.30275 -3.78125,-30.59375"
         style="fill:none;stroke:#231f20;stroke-width:0.9975;stroke-linecap:butt;stroke-linejoin:miter;stroke-miterlimit:4;stroke-dasharray:none;stroke-opacity:1"
         id="path3730"
         inkscape:connector-curvature="0"
         sodipodi:nodetypes="caac" /><path
         d="m 122.69019,285.46509 c -5.875,-1.8955 -10.084,6.67675 -7.51075,18.84375"
         style="fill:none;stroke:#231f20;stroke-width:1;stroke-linecap:butt;stroke-linejoin:miter;stroke-miterlimit:4;stroke-dasharray:none;stroke-opacity:1"
         id="path3734"
         inkscape:connector-curvature="0"
         sodipodi:nodetypes="cc" /><path
         d="m 115.92944,308.43384 c 0.833,3.5 7.73925,7.59375 11.23925,9.42675"
         style="fill:none;stroke:#231f20;stroke-width:0.9975;stroke-linecap:butt;stroke-linejoin:miter;stroke-miterlimit:4;stroke-dasharray:none;stroke-opacity:1"
         id="path3738"
         inkscape:connector-curvature="0"
         sodipodi:nodetypes="cc" /><path
         d="m 130.76294,319.81909 c 9.71176,5.98392 20.444,-1.50766 23.16909,-9.38156 4.35463,-12.5823 -15.00209,-31.67019 -19.83609,-34.67019"
         style="fill:none;stroke:#231f20;stroke-width:1;stroke-linecap:butt;stroke-linejoin:miter;stroke-miterlimit:4;stroke-dasharray:none;stroke-opacity:1"
         id="path3742"
         inkscape:connector-curvature="0"
         sodipodi:nodetypes="cac" /><path
         d="m 129.80515,272.61154 c -15.4504,-9.47552 -31.32664,4.14531 -31.045896,15.74539 0.290181,11.99003 18.121956,25.32734 32.839276,14.70329"
         style="fill:none;stroke:#231f20;stroke-width:0.9975;stroke-linecap:butt;stroke-linejoin:miter;stroke-miterlimit:4;stroke-dasharray:none;stroke-opacity:1"
         id="path3746"
         inkscape:connector-curvature="0"
         sodipodi:nodetypes="cac" /><path
         d="m 136.54419,300.73559 c 3.333,-2 8.1875,-6.6455 10.3545,-8.8125"
         style="fill:none;stroke:#231f20;stroke-width:0.9975;stroke-linecap:butt;stroke-linejoin:miter;stroke-miterlimit:4;stroke-dasharray:none;stroke-opacity:1"
         id="path3750"
         inkscape:connector-curvature="0"
         sodipodi:nodetypes="cc" /><path
         d="m 149.65428,289.35569 c 5.58233,-5.07063 4.59087,-14.88649 -0.55784,-17.92185 -7.83837,-4.62101 -22.88424,-2.38037 -24.28406,12.46708 -0.56642,6.00798 -1.04894,10.82492 -7.80969,10.03292"
         style="fill:none;stroke:#231f20;stroke-width:0.9975;stroke-linecap:butt;stroke-linejoin:miter;stroke-miterlimit:4;stroke-dasharray:none;stroke-opacity:1"
         id="path3754"
         inkscape:connector-curvature="0"
         sodipodi:nodetypes="casc" /><path
         d="m 112.13794,293.56909 c -2.8545,-0.53125 -5.26075,2.1875 -7.26075,4.0205"
         style="fill:none;stroke:#231f20;stroke-width:0.9975;stroke-linecap:butt;stroke-linejoin:miter;stroke-miterlimit:4;stroke-dasharray:none;stroke-opacity:1"
         id="path3758"
         inkscape:connector-curvature="0"
         sodipodi:nodetypes="cc" /></g><g
       id="g46470"
       transform="matrix(1.44,0,0,1.44,-88.794409,-171.07921)"><path
         d="m 187.24004,343.36365 c -9.40556,8.38239 -2.72238,21.89567 5.0375,26.32019 7.12924,4.06494 18.89783,-1.32414 23.167,-8.333 5.36948,-8.81528 9.26362,-29.69233 -4.05503,-30.69887"
         style="fill:none;stroke:#231f20;stroke-width:0.9975;stroke-linecap:butt;stroke-linejoin:miter;stroke-miterlimit:4;stroke-dasharray:none;stroke-opacity:1"
         id="path3762"
         inkscape:connector-curvature="0"
         sodipodi:nodetypes="caac" /><path
         d="m 199.45924,340.85234 c -0.112,1.394 0.32475,4.31241 0.54975,5.79041"
         style="fill:none;stroke:#231f20;stroke-width:0.9975;stroke-linecap:butt;stroke-linejoin:miter;stroke-miterlimit:4;stroke-dasharray:none;stroke-opacity:1"
         id="path3766"
         inkscape:connector-curvature="0"
         sodipodi:nodetypes="cc" /><path
         d="m 207.67016,330.11755 c -3.83658,-1.17154 -7.36098,1.39979 -7.54203,6.6897"
         style="fill:none;stroke:#231f20;stroke-width:0.9975;stroke-linecap:butt;stroke-linejoin:miter;stroke-miterlimit:4;stroke-dasharray:none;stroke-opacity:1"
         id="path3770"
         inkscape:connector-curvature="0"
         sodipodi:nodetypes="cc" /><path
         d="m 200.58071,351.29172 c 0.70042,6.48311 7.39366,9.15729 10.89366,10.99029"
         style="fill:none;stroke:#231f20;stroke-width:0.9975;stroke-linecap:butt;stroke-linejoin:miter;stroke-miterlimit:4;stroke-dasharray:none;stroke-opacity:1"
         id="path3774"
         inkscape:connector-curvature="0"
         sodipodi:nodetypes="cc" /><path
         d="m 216.31759,364.28405 c 6.61414,3.28832 18.95995,-4.10071 20.79395,-13.60071 1.833,-9.5 -13.06629,-28.19633 -19.82274,-31.66037"
         style="fill:none;stroke:#231f20;stroke-width:1;stroke-linecap:butt;stroke-linejoin:miter;stroke-miterlimit:4;stroke-dasharray:none;stroke-opacity:1"
         id="path3778"
         inkscape:connector-curvature="0"
         sodipodi:nodetypes="ccc" /><path
         d="m 214.1342,317.00967 c -5.59508,-3.8577 -16.72201,-6.05155 -22.35616,-1.15883 -6.73567,5.84928 -7.98247,19.71934 -2.37459,26.65728 6.1548,7.61458 16.32019,8.08627 29.15319,3.58627"
         style="fill:none;stroke:#231f20;stroke-width:0.9975;stroke-linecap:butt;stroke-linejoin:miter;stroke-miterlimit:4;stroke-dasharray:none;stroke-opacity:1"
         id="path3782"
         inkscape:connector-curvature="0"
         sodipodi:nodetypes="caac" /><path
         d="m 222.94454,344.51684 c 3.333,-2 5,-3.833 7.167,-6"
         style="fill:none;stroke:#231f20;stroke-width:0.9975;stroke-linecap:butt;stroke-linejoin:miter;stroke-miterlimit:4;stroke-dasharray:none;stroke-opacity:1"
         id="path3786"
         inkscape:connector-curvature="0" /><path
         d="m 235.77804,333.01684 c 2.167,-2.833 4.5,-13 -1.5,-17.333 -6,-4.334 -14.834,-3.334 -17.667,0.666 -2.833,4 -7,10.834 -7.333,15.5 -0.333,4.667 -3.312,6.205 -5.5,6.334 -2.833,0.167 -9.5,0.5 -12.5,2.833"
         style="fill:none;stroke:#231f20;stroke-width:0.9975;stroke-linecap:butt;stroke-linejoin:miter;stroke-miterlimit:4;stroke-dasharray:none;stroke-opacity:1"
         id="path3790"
         inkscape:connector-curvature="0" /></g><g
       id="g46478"
       transform="matrix(1.44,0,0,1.44,-88.794409,-171.07921)"><path
         d="m 266.37574,345.70294 c -4.5,5.333 -7.833,17 5.833,24 17.47014,8.41062 31.38393,-16.0237 25.167,-26.5 -2.75779,-4.64722 -13.949,-2.433 -15.667,4.167"
         style="fill:none;stroke:#231f20;stroke-width:0.9975;stroke-linecap:butt;stroke-linejoin:miter;stroke-miterlimit:4;stroke-dasharray:0.9975, 0.9975;stroke-dashoffset:0;stroke-opacity:1"
         id="path3794"
         inkscape:connector-curvature="0"
         sodipodi:nodetypes="ccac" /><path
         d="m 281.04224,352.70294 c 0.833,3.5 6.333,7.5 9.833,9.333"
         style="fill:none;stroke:#231f20;stroke-width:0.9975;stroke-linecap:butt;stroke-linejoin:miter;stroke-miterlimit:4;stroke-dasharray:none;stroke-opacity:1"
         id="path3798"
         inkscape:connector-curvature="0" /><path
         d="m 297.37574,364.36944 c 3.167,1.167 17.833,-4.167 19.667,-13.667 1.833,-9.5 -13,-27.666 -17.834,-30.666"
         style="fill:none;stroke:#231f20;stroke-width:1;stroke-linecap:butt;stroke-linejoin:miter;stroke-miterlimit:4;stroke-dasharray:none;stroke-opacity:1"
         id="path3802"
         inkscape:connector-curvature="0" /><path
         d="m 292.20924,315.70294 c -4.667,-2.333 -13.833,-4.667 -20.5,0.167 -6.667,4.833 -6.833,19.333 -3.833,25 3,5.666 14,11.666 26.833,7.166"
         style="fill:none;stroke:#231f20;stroke-width:0.9975;stroke-linecap:butt;stroke-linejoin:miter;stroke-miterlimit:4;stroke-dasharray:none;stroke-opacity:1"
         id="path3806"
         inkscape:connector-curvature="0" /><path
         d="m 302.87574,344.53594 c 3.333,-2 5,-3.833 7.167,-6"
         style="fill:none;stroke:#231f20;stroke-width:0.9975;stroke-linecap:butt;stroke-linejoin:miter;stroke-miterlimit:4;stroke-dasharray:none;stroke-opacity:1"
         id="path3810"
         inkscape:connector-curvature="0" /><path
         d="m 315.70924,333.03594 c 2.167,-2.833 4.5,-13 -1.5,-17.333 -6,-4.334 -13.696,-2.907 -17.667,0.666 -4.295,3.866 -22.333,22.334 -25.333,24.667"
         style="fill:none;stroke:#231f20;stroke-width:1;stroke-linecap:butt;stroke-linejoin:miter;stroke-miterlimit:4;stroke-dasharray:none;stroke-opacity:1"
         id="path3814"
         inkscape:connector-curvature="0" /></g><g
       id="g46485"
       transform="matrix(1.44,0,0,1.44,-88.794409,-171.07921)"><path
         d="m 349.51181,346.94773 c -2.583,2.349 -5.74887,8.59831 -1.24887,11.09831 3.249,1.805 7.25,1.948 9.75,-4.599 3.5,-9.167 11.22512,-9.60634 12.29704,-2.70859"
         style="fill:none;stroke:#231f20;stroke-width:1;stroke-linecap:butt;stroke-linejoin:miter;stroke-miterlimit:4;stroke-dasharray:1, 1;stroke-dashoffset:0;stroke-opacity:1"
         id="path3818"
         inkscape:connector-curvature="0"
         sodipodi:nodetypes="cscc" /><path
         d="m 370.84644,354.94704 c 1.49955,13.50024 22.39366,9.34009 27.33324,1.66415 7.18121,-11.15937 -11.33348,-31.1646 -18.66576,-35.16391"
         style="fill:none;stroke:#231f20;stroke-width:1;stroke-linecap:butt;stroke-linejoin:miter;stroke-miterlimit:4;stroke-dasharray:none;stroke-opacity:1"
         id="path3822"
         inkscape:connector-curvature="0"
         sodipodi:nodetypes="cac" /><path
         d="m 374.90864,318.2785 c -5.59507,-4.05658 -15.36458,-4.12485 -21.2292,-0.16446 -5.78872,3.90914 -9.03991,12.64688 -7.67789,19.49783 1.11109,5.58882 8.95104,10.67154 11.87104,12.30054"
         style="fill:none;stroke:#231f20;stroke-width:1;stroke-linecap:butt;stroke-linejoin:miter;stroke-miterlimit:4;stroke-dasharray:none;stroke-opacity:1"
         id="path3826"
         inkscape:connector-curvature="0"
         sodipodi:nodetypes="caac" /><path
         d="m 361.25341,351.28413 c 14.72511,5.84489 28.99028,-7.54159 32.54939,-11.89621"
         style="fill:none;stroke:#231f20;stroke-width:1;stroke-linecap:butt;stroke-linejoin:miter;stroke-miterlimit:4;stroke-dasharray:none;stroke-opacity:1"
         id="path3830"
         inkscape:connector-curvature="0"
         sodipodi:nodetypes="cc" /><path
         d="m 396.81765,337.00361 c 4.81865,-4.2914 5.48608,-14.39018 1.08536,-18.92399 -4.50352,-4.63972 -15.7237,-2.63274 -19.39057,0.53342 -4.37413,3.77684 -22.333,22.334 -25.333,24.667"
         style="fill:none;stroke:#231f20;stroke-width:1;stroke-linecap:butt;stroke-linejoin:miter;stroke-miterlimit:4;stroke-dasharray:none;stroke-opacity:1"
         id="path3834"
         inkscape:connector-curvature="0"
         sodipodi:nodetypes="casc" /></g><g
       id="g46460"
       transform="matrix(1.44,0,0,1.44,-88.794409,-171.07921)"><path
         d="m 189.10474,255.92314 c -4.5,5.333 -7.833,17 5.833,24 13.667,7 20.834,-5.167 23.167,-8.333 2.333,-3.167 8.667,-22.334 -2,-30.5"
         style="fill:none;stroke:#231f20;stroke-width:0.9975;stroke-linecap:butt;stroke-linejoin:miter;stroke-miterlimit:4;stroke-dasharray:none;stroke-opacity:1"
         id="path3870"
         inkscape:connector-curvature="0" /><path
         d="m 208.93824,240.42314 c -4,0.167 -7.834,7.333 -6.667,15"
         style="fill:none;stroke:#231f20;stroke-width:1;stroke-linecap:butt;stroke-linejoin:miter;stroke-miterlimit:4;stroke-dasharray:none;stroke-opacity:1"
         id="path3874"
         inkscape:connector-curvature="0" /><path
         d="m 203.77124,262.92314 c 0.833,3.5 6.333,7.499 9.833,9.333"
         style="fill:none;stroke:#231f20;stroke-width:0.9975;stroke-linecap:butt;stroke-linejoin:miter;stroke-miterlimit:4;stroke-dasharray:none;stroke-opacity:1"
         id="path3878"
         inkscape:connector-curvature="0" /><path
         d="m 233.65944,243.61064 c -4.141,-6.296 -9.244,-11.817 -11.721,-13.354"
         style="fill:none;stroke:#231f20;stroke-width:0.9975;stroke-linecap:butt;stroke-linejoin:miter;stroke-miterlimit:4;stroke-dasharray:none;stroke-opacity:1"
         id="path3882"
         inkscape:connector-curvature="0" /><path
         d="m 220.10474,274.59014 c 3.167,1.166 17.833,-4.167 19.667,-13.667 0.605,-3.137 -0.606,-7.217 -2.674,-11.385"
         style="fill:none;stroke:#231f20;stroke-width:1;stroke-linecap:butt;stroke-linejoin:miter;stroke-miterlimit:4;stroke-dasharray:none;stroke-opacity:1"
         id="path3886"
         inkscape:connector-curvature="0" /><path
         d="m 214.93824,225.92314 c -4.667,-2.333 -13.833,-4.667 -20.5,0.167 -6.667,4.833 -6.833,19.333 -3.833,25 3,5.666 14,11.666 26.833,7.166"
         style="fill:none;stroke:#231f20;stroke-width:0.9975;stroke-linecap:butt;stroke-linejoin:miter;stroke-miterlimit:4;stroke-dasharray:none;stroke-opacity:1"
         id="path3890"
         inkscape:connector-curvature="0" /><path
         d="m 225.77124,255.86844 c 11.667,-6 17.06352,-15.04667 14.7295,-22.07 -2.25,-6.7705 -12.0215,-12.333 -18.6045,-8.708 -4.29368,2.36436 -9.625,12.333 -9.958,17 -0.334,4.666 -3.333,6 -5.5,6.333"
         style="fill:none;stroke:#231f20;stroke-width:0.9975;stroke-linecap:butt;stroke-linejoin:miter;stroke-miterlimit:4;stroke-dasharray:none;stroke-opacity:1"
         id="path3894"
         inkscape:connector-curvature="0"
         sodipodi:nodetypes="csscc" /><path
         d="m 199.60474,249.09014 c -2.667,0.5 -3.667,0.5 -5.667,2.333"
         style="fill:none;stroke:#231f20;stroke-width:0.9975;stroke-linecap:butt;stroke-linejoin:miter;stroke-miterlimit:4;stroke-dasharray:none;stroke-opacity:1"
         id="path3898"
         inkscape:connector-curvature="0" /></g><g
       id="g46500"
       transform="matrix(1.44,0,0,1.44,-88.794409,-171.07921)"><path
         d="m 266.16524,253.71799 c -6.70313,5.1455 -4.45987,19.89774 2.32151,24.53309 7.31126,4.99753 20.68819,0.12756 25.55349,-7.27234 5.34615,-8.13124 7.31314,-27.8703 -3.7932,-28.94646"
         style="fill:none;stroke:#231f20;stroke-width:0.9975;stroke-linecap:butt;stroke-linejoin:miter;stroke-miterlimit:4;stroke-dasharray:none;stroke-opacity:1"
         id="path3902"
         inkscape:connector-curvature="0"
         sodipodi:nodetypes="caac" /><path
         d="m 285.81124,240.93674 c -4.46875,-0.7705 -8.91163,6.46387 -6.94825,17.39062"
         style="fill:none;stroke:#231f20;stroke-width:1;stroke-linecap:butt;stroke-linejoin:miter;stroke-miterlimit:4;stroke-dasharray:none;stroke-opacity:1"
         id="path3906"
         inkscape:connector-curvature="0"
         sodipodi:nodetypes="cc" /><path
         d="m 279.70674,262.31174 c 0.833,3.5 6.333,7.499 9.833,9.333"
         style="fill:none;stroke:#231f20;stroke-width:0.9975;stroke-linecap:butt;stroke-linejoin:miter;stroke-miterlimit:4;stroke-dasharray:none;stroke-opacity:1"
         id="path3910"
         inkscape:connector-curvature="0" /><path
         d="m 296.04024,273.97874 c 18.26714,4.99736 29.05133,-18.77612 22.66288,-34.3833 -10,-21.667 -41.66288,-18.9507 -48.32988,-14.1167 -6.666,4.833 -6.833,19.333 -3.833,25 3,5.666 13.15625,15.93163 29.36425,6.46288"
         style="fill:none;stroke:#231f20;stroke-width:0.9975;stroke-linecap:butt;stroke-linejoin:miter;stroke-miterlimit:4;stroke-dasharray:0.9975, 0.9975;stroke-dashoffset:0;stroke-opacity:1"
         id="path3914"
         inkscape:connector-curvature="0"
         sodipodi:nodetypes="ccccc" /><path
         d="m 299.55049,255.86652 c 5.73979,-2.95181 10.24469,-11.05863 7.93766,-15.55838 -2.38235,-4.64668 -11.72697,-5.62112 -15.06754,-4.30588 -6.06635,2.38844 -3.74668,12.33424 -11.6875,11.85675"
         style="fill:none;stroke:#231f20;stroke-width:1;stroke-linecap:butt;stroke-linejoin:miter;stroke-miterlimit:4;stroke-dasharray:none;stroke-opacity:1"
         id="path3918"
         inkscape:connector-curvature="0"
         sodipodi:nodetypes="cssc" /><path
         d="m 276.89961,247.40061 c -3.37012,-0.67187 -5.58887,1.53125 -7.58887,3.36425"
         style="fill:none;stroke:#231f20;stroke-width:0.9975;stroke-linecap:butt;stroke-linejoin:miter;stroke-miterlimit:4;stroke-dasharray:none;stroke-opacity:1"
         id="path3922"
         inkscape:connector-curvature="0"
         sodipodi:nodetypes="cc" /></g><g
       id="g46492"
       transform="matrix(1.44,0,0,1.44,-88.794409,-171.07921)"><path
         d="m 376.09228,256.82462 c 2.12889,-8.81863 3.58176,-16.46618 -4.91324,-22.96918"
         style="fill:none;stroke:#231f20;stroke-width:1;stroke-linecap:butt;stroke-linejoin:miter;stroke-miterlimit:4;stroke-dasharray:none;stroke-opacity:1"
         id="path3926"
         inkscape:connector-curvature="0"
         sodipodi:nodetypes="cc" /><path
         d="m 351.515,241.13617 c -20.82647,-1.66504 -19.99907,29.71599 -6.33207,36.71599 10.61167,5.10685 25.48284,-6.62268 28.90925,-16.02726"
         style="fill:none;stroke:#231f20;stroke-width:1;stroke-linecap:butt;stroke-linejoin:miter;stroke-miterlimit:4;stroke-dasharray:none;stroke-opacity:1"
         id="path3930"
         inkscape:connector-curvature="0"
         sodipodi:nodetypes="ccc" /><path
         d="m 365.67846,232.02287 c -10.6637,-4.3839 -20.16552,31.94487 -2.83252,37.27887"
         style="fill:none;stroke:#231f20;stroke-width:1;stroke-linecap:butt;stroke-linejoin:miter;stroke-miterlimit:4;stroke-dasharray:none;stroke-opacity:1"
         id="path3934"
         inkscape:connector-curvature="0"
         sodipodi:nodetypes="cc" /><path
         d="m 370.18081,271.13549 c 6.49805,2.66497 15.50858,-0.80595 15.83208,-6.50182 0.39194,-6.90097 -18.17161,-3.08655 -18.16645,-9.99863 0.002,-2.85084 3.49876,-2.49966 7.49876,-4.11266"
         style="fill:none;stroke:#231f20;stroke-width:1;stroke-linecap:butt;stroke-linejoin:miter;stroke-miterlimit:4;stroke-dasharray:1, 1;stroke-dashoffset:0;stroke-opacity:1"
         id="path3938"
         inkscape:connector-curvature="0"
         sodipodi:nodetypes="caac" /><path
         d="m 380.84594,248.63404 c 7.98415,-2.86958 8.21554,-10.91699 4.99572,-15.14802 -3.60339,-4.73504 -15.53598,-6.27445 -17.82941,0.87036 -1.26304,3.9348 -4.99852,7.99863 -9.99691,7.33232"
         style="fill:none;stroke:#231f20;stroke-width:1;stroke-linecap:butt;stroke-linejoin:miter;stroke-miterlimit:4;stroke-dasharray:none;stroke-opacity:1"
         id="path3942"
         inkscape:connector-curvature="0"
         sodipodi:nodetypes="casc" /></g><text
       xml:space="preserve"
       style="font-size:11.52px;line-height:1.25;font-family:Arial;-inkscape-font-specification:Arial;stroke-width:1.08"
       x="206.84456"
       y="-250.41373"
       id="text2795"
       transform="scale(1,-1)"><tspan
         sodipodi:role="line"
         id="tspan2793"
         style="font-size:11.52px;stroke-width:1.08"
         x="206.84456"
         y="-250.41373">idd</tspan></text><text
       xml:space="preserve"
       style="font-size:11.52px;line-height:1.25;font-family:Arial;-inkscape-font-specification:Arial;stroke-width:1.08"
       x="307.12103"
       y="-247.0574"
       id="text10701"
       transform="scale(1,-1)"><tspan
         sodipodi:role="line"
         id="tspan10699"
         style="font-size:11.52px;stroke-width:1.08"
         x="307.12103"
         y="-247.0574">-2c</tspan></text><text
       xml:space="preserve"
       style="font-size:11.52px;line-height:1.25;font-family:Arial;-inkscape-font-specification:Arial;stroke-width:1.08"
       x="107.80589"
       y="-190.3779"
       id="text27365"
       transform="scale(1,-1)"><tspan
         sodipodi:role="line"
         id="tspan27363"
         style="font-size:11.52px;stroke-width:1.08"
         x="107.80589"
         y="-190.3779">c=8</tspan></text><text
       xml:space="preserve"
       style="font-size:11.52px;line-height:1.25;font-family:Arial;-inkscape-font-specification:Arial;stroke-width:1.08"
       x="430.24207"
       y="-256.06766"
       id="text31827"
       transform="scale(1,-1)"><tspan
         sodipodi:role="line"
         id="tspan31825"
         style="font-size:11.52px;stroke-width:1.08"
         x="430.24207"
         y="-256.06766">réduction</tspan><tspan
         sodipodi:role="line"
         style="font-size:11.52px;stroke-width:1.08"
         x="430.24207"
         y="-241.66766"
         id="tspan34805">c = 5</tspan></text></g></svg>
