<?xml version="1.0" encoding="UTF-8" standalone="no"?>
<!-- Created with Inkscape (http://www.inkscape.org/) -->

<svg
   version="1.1"
   id="svg2"
   xml:space="preserve"
   width="1122.5197"
   height="400"
   viewBox="0 0 1122.5197 400"
   sodipodi:docname="nœuds1.svg"
   inkscape:version="1.1 (c68e22c387, 2021-05-23)"
   xmlns:inkscape="http://www.inkscape.org/namespaces/inkscape"
   xmlns:sodipodi="http://sodipodi.sourceforge.net/DTD/sodipodi-0.dtd"
   xmlns="http://www.w3.org/2000/svg"
   xmlns:svg="http://www.w3.org/2000/svg"
   xmlns:rdf="http://www.w3.org/1999/02/22-rdf-syntax-ns#"
   xmlns:cc="http://creativecommons.org/ns#"
   xmlns:dc="http://purl.org/dc/elements/1.1/"><metadata
     id="metadata8"><rdf:RDF><cc:Work
         rdf:about=""><dc:format>image/svg+xml</dc:format><dc:type
           rdf:resource="http://purl.org/dc/dcmitype/StillImage" /></cc:Work></rdf:RDF></metadata><defs
     id="defs6" /><sodipodi:namedview
     pagecolor="#ffffff"
     bordercolor="#666666"
     borderopacity="1"
     objecttolerance="10"
     gridtolerance="10"
     guidetolerance="10"
     inkscape:pageopacity="0"
     inkscape:pageshadow="2"
     inkscape:window-width="1920"
     inkscape:window-height="1001"
     id="namedview4"
     showgrid="false"
     inkscape:zoom="0.96167344"
     inkscape:cx="879.71651"
     inkscape:cy="190.81321"
     inkscape:window-x="-9"
     inkscape:window-y="-9"
     inkscape:window-maximized="1"
     inkscape:current-layer="g12"
     inkscape:pagecheckerboard="0"
     showguides="true"
     inkscape:guide-bbox="true"><sodipodi:guide
       position="658.81793,126.47293"
       orientation="0,-1"
       id="guide3264" /></sodipodi:namedview><g
     id="g10"
     inkscape:groupmode="layer"
     inkscape:label="nœuds1"
     transform="matrix(1.3333333,0,0,-1.3333333,0,793.70076)"><g
       id="g12"
       transform="scale(1,-1)"><path
   d="m 60.258033,-440.8684 c -0.24414,1.65283 -0.36621,3.32324 -0.36621,4.99658 0,17.61475 13.30029,31.91065 29.68848,31.91065 16.387197,0 29.687497,-14.2959 29.687497,-31.91065 0,-17.61523 -13.3003,-31.91162 -29.687497,-31.91162 -9.58838,0 -18.58594,4.97705 -24.15869,13.36377 m 14.10693,44.4585 c 2.9502,-4.08985 4.55127,-9.11768 4.55127,-14.29199 0,-12.87354 -9.72022,-23.32129 -21.69629,-23.32129 -11.97607,0 -21.6958,10.44775 -21.6958,23.32129 0,12.87402 9.71973,23.32128 21.6958,23.32128 3.50635,0 6.96094,-0.91406 10.06689,-2.66308"
   style="fill:none;stroke:#000000;stroke-width:2;stroke-linecap:butt;stroke-linejoin:bevel;stroke-miterlimit:10;stroke-dasharray:none;stroke-opacity:1"
   id="path14"
   inkscape:connector-curvature="0" />
<path
   d="m 171.23655,-425.68285 c -7.79346,23.8457 32.98193,35.07226 40.36035,12.49023 4.73828,-14.50195 -7.02441,-36.13379 -17.85889,-44.41699 m 20.11621,27.2627 c 16.55371,-8.24219 15.39405,-33.63868 -4.125,-35.69336 -17.70263,-1.86328 -29.39355,14.92968 -35.25244,30.35644 m 12.55567,-26.20508 c -13.41211,-5.54882 -31.39014,1.29883 -25.50733,20.20899 5.59424,17.98242 32.0625,20.54297 46.1416,14.62695"
   style="fill:none;stroke:#000000;stroke-width:2;stroke-linecap:butt;stroke-linejoin:bevel;stroke-miterlimit:10;stroke-dasharray:none;stroke-opacity:1"
   id="path26"
   inkscape:connector-curvature="0" /><text
   id="text34"
   style="font-variant:normal;font-weight:normal;font-size:12px;font-family:Courier;-inkscape-font-specification:Courier;writing-mode:lr-tb;fill:#000000;fill-opacity:1;fill-rule:nonzero;stroke:none"
   x="154.86644"
   y="-385.9436"><tspan
     id="tspan30"
     sodipodi:role="line"
     y="-385.9436"
     x="154.86644 162.06644 169.26643 176.46645 183.66644 190.86644 198.06644 205.26643 212.46643">“trèfle” </tspan><tspan
     id="tspan32"
     sodipodi:role="line"
     y="-371.54324"
     x="162.06644 169.26643 176.46645 183.66644 190.86644 198.06644 205.26643 212.46643 219.66644 226.86644">R=1 ; C=3 </tspan></text>
<path
   d="m 321.95188,-467.56469 c -1.19141,-16.50439 -14.60889,-29.27148 -30.76221,-29.27148 -17.02588,0 -30.84472,14.15771 -30.84472,31.60205 0,13.80224 8.74414,26.0083 21.59668,30.14746 m 8.89404,1.45117 c 0.11816,0.002 0.23633,0.003 0.354,0.003 15.15967,0 28.07276,-11.28662 30.46045,-26.62353 m -13.11523,-26.70264 c -4.87891,5.75049 -7.56641,13.11377 -7.56641,20.73291 0,8.16113 3.08106,16.00635 8.59961,21.8916 m 6.24023,5.12305 c 4.82471,3.00049 10.36133,4.5874 16.00538,4.5874 17.02636,0 30.84521,-14.15771 30.84521,-31.60205 0,-17.44385 -13.81885,-31.60156 -30.84521,-31.60156 -6.55079,0 -12.93213,2.1372 -18.21778,6.10058 m 32.12354,49.57227 c -4.08496,-13.09375 -15.96387,-21.98096 -29.38135,-21.98096 -3.93164,0 -7.82715,0.771 -11.47705,2.26904 m -6.70117,3.80225 c -7.95996,5.94922 -12.66699,15.43604 -12.66699,25.53076 0,17.44531 13.81835,31.60156 30.84521,31.60156 17.02637,0 30.84521,-14.15625 30.84521,-31.60156 0,-0.17773 -0.002,-0.35595 -0.004,-0.53369"
   style="fill:none;stroke:#000000;stroke-width:2;stroke-linecap:butt;stroke-linejoin:bevel;stroke-miterlimit:10;stroke-dasharray:none;stroke-opacity:1"
   id="path38"
   inkscape:connector-curvature="0" />
<path
   d="m 750.5051,-429.72094 c -20.4873,-0.5166 -51.62011,8.02246 -62.11035,-15.60986 -12.25391,-27.60596 20.50488,-44.7085 43.4082,-39.34326 m -9.82519,58.71191 c 1.21484,21.31738 32.52637,35.01953 46.86133,15.96094 6.958,-9.25 3.59472,-21.3877 -9.32715,-19.99805 m -36.12793,-24.67383 c -1.5918,7.20704 -2.2002,14.65528 -1.63965,22.01954 m 76.47266,-47.10743 c 16.11914,-13.26757 3.15429,-30.5166 -14.28223,-29.51465 -21.26855,1.22168 -54.14063,24.07129 -58.44531,45.83301 m 52.84961,-1.94531 c 4.54297,-3.60059 6.875,-5.32715 11.833,-8.33301 m -26.56835,64.49121 c -15.97657,-12.90722 -9.65333,-42.82031 7.25292,-51.60742 m -4.44335,-38.91406 c 38.64453,12.8667 57.14062,103.55371 4.49804,93.46289 m -55.01074,-83.69336 c 3.65234,-19.82861 27.49414,-24.51465 43.0293,-15.30859 m -4.13965,57.28418 c -16.0586,-5.32325 -45.86719,-8.53565 -40.75977,-31.82178 m 27.36035,-1.61572 c 8.58106,3.95214 45.11426,16.55566 39.26172,33.68554 -2.52246,7.3833 -13.79101,4.52442 -19.82812,1.73633"
   style="fill:none;stroke:#000000;stroke-width:2;stroke-linecap:butt;stroke-linejoin:bevel;stroke-miterlimit:10;stroke-dasharray:none;stroke-opacity:1"
   id="path50"
   inkscape:connector-curvature="0" /><text
   id="text56"
   style="font-variant:normal;font-weight:normal;font-size:12px;font-family:Courier;-inkscape-font-specification:Courier;writing-mode:lr-tb;fill:#000000;fill-opacity:1;fill-rule:nonzero;stroke:none"
   x="721.69067"
   y="-385.9436"><tspan
     id="tspan54"
     sodipodi:role="line"
     y="-385.9436"
     x="721.69067 728.89069 736.0907 743.29065 750.49066 757.69067 764.89069 772.0907 779.29065 786.49066">R=1 ; C=10</tspan></text>
<path
   d="m 629.17209,-457.49291 c 18.17969,3.46191 36.42383,25.41992 12.57422,30.55518 m -38.40722,-33.05518 c -13.18262,11.23633 -22.87012,25.19775 -12.75879,42.05518 m 27.63183,-17.41211 c 9.53418,-16.08789 9.89746,-41.47461 -10.13183,-29.25489 m -37.0752,-9.22168 c 7.11035,10.01758 37.91406,10.82569 50.24121,14.55518 m -24.98925,12.34766 c 9.39746,10.7583 23.38964,19.71923 37.92285,20.50537 m -46.8418,-35.40821 c 1.25879,4.45606 3.08105,4.49121 5.0127,8.70606 m 21.44043,24.46582 c -25.1504,29.35547 -66.31934,11.86523 -59.89161,-28.58154 1.96582,-12.36866 27.73047,-37.61377 32.00586,-14.29932 m 53.667,13.15332 c 0.3955,-21.67676 -10.42188,-37.99707 -32.73926,-41.28906 -13.17676,-1.94385 -44.19727,4.04687 -39.25293,18.5664 m 28.58496,70.33887 c 7.46484,7.58008 20.69043,13.12891 31.0293,7.58984 14.97949,-8.02636 11.25683,-31.82519 12.05175,-46.42871"
   style="fill:none;stroke:#000000;stroke-width:2;stroke-linecap:butt;stroke-linejoin:bevel;stroke-miterlimit:10;stroke-dasharray:none;stroke-opacity:1"
   id="path60"
   inkscape:connector-curvature="0" /><text
   id="text66"
   style="font-variant:normal;font-weight:normal;font-size:12px;font-family:Courier;-inkscape-font-specification:Courier;writing-mode:lr-tb;fill:#000000;fill-opacity:1;fill-rule:nonzero;stroke:none"
   x="565.49634"
   y="-385.9436"><tspan
     id="tspan64"
     sodipodi:role="line"
     y="-385.9436"
     x="565.49634 572.69635 579.89636 587.09631 594.29633 601.49634 608.69635 615.89636 623.09631 630.29633">R=1 ; C=9 </tspan></text>
<g
   id="g4762"
   transform="translate(14.338113,-121.3225)"><path
     inkscape:connector-curvature="0"
     id="path70"
     style="fill:none;stroke:#000000;stroke-width:2;stroke-linecap:butt;stroke-linejoin:bevel;stroke-miterlimit:10;stroke-dasharray:none;stroke-opacity:1"
     d="m 431.23008,-369.25256 c 7.33398,-5 9.9916,-6.35584 19.10293,-6.35584 16.20019,0 28.83301,15.73047 28.83301,32.66651 0,16.93603 -13.13282,30.66601 -29.33301,30.66601 -13.37988,0 -24.66797,-9.36572 -28.19287,-22.16846"
     sodipodi:nodetypes="csssc" /><path
     inkscape:connector-curvature="0"
     id="path72"
     style="fill:none;stroke:#000000;stroke-width:2;stroke-linecap:butt;stroke-linejoin:bevel;stroke-miterlimit:10;stroke-dasharray:none;stroke-opacity:1"
     d="m 419.21797,-341.50547 c -1.79227,-7.9621 1.02268,-17.33078 7.96555,-23.59712"
     sodipodi:nodetypes="cc" /><path
     inkscape:connector-curvature="0"
     id="path74"
     style="fill:none;stroke:#000000;stroke-width:2;stroke-linecap:butt;stroke-linejoin:bevel;stroke-miterlimit:10;stroke-dasharray:none;stroke-opacity:1"
     d="m 427.62988,-318.33008 c -5.41015,3.47412 -12.00146,5.38819 -18.62988,5.38819 -16.2002,0 -29.3335,-13.72999 -29.3335,-30.66602 0,-16.93604 13.1333,-30.6665 29.3335,-30.6665 16.2002,0 31,11.33252 31.66699,30.99902" /><path
     inkscape:connector-curvature="0"
     id="path76"
     style="fill:none;stroke:#000000;stroke-width:2;stroke-linecap:butt;stroke-linejoin:bevel;stroke-miterlimit:10;stroke-dasharray:none;stroke-opacity:1"
     d="m 440.90779,-336.32055 c -1.58105,7.10449 -3.42432,11.88308 -7.08059,14.95295"
     sodipodi:nodetypes="cc" /><path
     inkscape:connector-curvature="0"
     id="path78"
     style="fill:none;stroke:#000000;stroke-width:2;stroke-linecap:butt;stroke-linejoin:bevel;stroke-miterlimit:10;stroke-dasharray:none;stroke-opacity:1"
     d="m 462.66602,-310.2749 c 0,16.93603 -13.13282,30.66552 -29.33301,30.66552 -16.2002,0 -29.3335,-13.72949 -29.3335,-30.66552" /><path
     inkscape:connector-curvature="0"
     id="path80"
     style="fill:none;stroke:#000000;stroke-width:2;stroke-linecap:butt;stroke-linejoin:bevel;stroke-miterlimit:10;stroke-dasharray:none;stroke-opacity:1"
     d="m 404.59521,-316.45508 c 2.73536,-13.97412 14.5625,-24.48633 28.7378,-24.48633 13.05957,0 24.12597,8.92334 27.92578,21.25537" /></g><text
   xml:space="preserve"
   style="font-size:12px;line-height:1.25;font-family:Arial;-inkscape-font-specification:Arial;stroke-width:0.75"
   x="274.91144"
   y="-387.82468"
   id="text11928"><tspan
     sodipodi:role="line"
     id="tspan11926"
     style="font-style:normal;font-variant:normal;font-weight:normal;font-stretch:normal;font-family:'Courier New';-inkscape-font-specification:'Courier New';stroke-width:0.75"
     x="274.91144"
     y="-387.82468">&quot;borroméen&quot;</tspan><tspan
     sodipodi:role="line"
     style="font-style:normal;font-variant:normal;font-weight:normal;font-stretch:normal;font-family:'Courier New';-inkscape-font-specification:'Courier New';stroke-width:0.75"
     x="274.91144"
     y="-372.69296"
     id="tspan11930">R=3  ;  C=6</tspan></text><text
   xml:space="preserve"
   style="font-style:normal;font-variant:normal;font-weight:normal;font-stretch:normal;font-size:12px;line-height:1.25;font-family:'Courier New';-inkscape-font-specification:'Courier New';stroke-width:0.75"
   x="419.97104"
   y="-390.13028"
   id="text20064"><tspan
     sodipodi:role="line"
     style="font-style:normal;font-variant:normal;font-weight:normal;font-stretch:normal;font-family:'Courier New';-inkscape-font-specification:'Courier New';stroke-width:0.75"
     x="419.97104"
     y="-390.13028"
     id="tspan21848" /></text><text
   xml:space="preserve"
   style="font-size:12px;line-height:1.25;font-family:'Courier New';-inkscape-font-specification:'Courier New, Normal';stroke-width:0.75"
   x="414.12192"
   y="-387.43475"
   id="text43834"><tspan
     sodipodi:role="line"
     id="tspan43832"
     style="stroke-width:0.75"
     x="414.12192"
     y="-387.43475">&quot;maja&quot;</tspan><tspan
     sodipodi:role="line"
     style="stroke-width:0.75"
     x="414.12192"
     y="-372.43475"
     id="tspan44628">R=3  ; C=6</tspan></text><text
   xml:space="preserve"
   style="font-size:12px;line-height:1.25;font-family:'Courier New';-inkscape-font-specification:'Courier New, Normal';stroke-width:0.75"
   x="39.774418"
   y="-385.87497"
   id="text45606"><tspan
     sodipodi:role="line"
     id="tspan45604"
     style="stroke-width:0.75"
     x="39.774418"
     y="-385.87497">&quot;enlacement&quot;</tspan><tspan
     sodipodi:role="line"
     style="stroke-width:0.75"
     x="39.774418"
     y="-370.87497"
     id="tspan45608">R=2  ; C=2</tspan></text></g></g></svg>
