<?xml version="1.0" encoding="UTF-8" standalone="no"?>
<svg
   xmlns:dc="http://purl.org/dc/elements/1.1/"
   xmlns:cc="http://creativecommons.org/ns#"
   xmlns:rdf="http://www.w3.org/1999/02/22-rdf-syntax-ns#"
   xmlns:svg="http://www.w3.org/2000/svg"
   xmlns="http://www.w3.org/2000/svg"
   xmlns:sodipodi="http://sodipodi.sourceforge.net/DTD/sodipodi-0.dtd"
   xmlns:inkscape="http://www.inkscape.org/namespaces/inkscape"
   version="1.1"
   id="svg2"
   xml:space="preserve"
   width="1043.9023"
   height="157.9375"
   viewBox="0 0 1043.9024 157.9375"
   sodipodi:docname="présentation.svg"
   inkscape:export-filename="C:\Users\o\Documents\noeudienne\dessins\Adobe Illustrator\livre\présentation-normalisation\présentation.ai.png"
   inkscape:export-xdpi="1174"
   inkscape:export-ydpi="1174"
   inkscape:version="1.0.2-2 (e86c870879, 2021-01-15)"><metadata
     id="metadata8"><rdf:RDF><cc:Work
         rdf:about=""><dc:format>image/svg+xml</dc:format><dc:type
           rdf:resource="http://purl.org/dc/dcmitype/StillImage" /><dc:title></dc:title></cc:Work></rdf:RDF></metadata><defs
     id="defs6"><clipPath
       clipPathUnits="userSpaceOnUse"
       id="clipPath30"><path
         d="M 23.72363,372.41211 H 133.67578 V 263.08496 H 23.72363 Z"
         id="path28"
         inkscape:connector-curvature="0" /></clipPath><radialGradient
       fx="0"
       fy="0"
       cx="0"
       cy="0"
       r="1"
       gradientUnits="userSpaceOnUse"
       gradientTransform="matrix(53.82005,0,0,53.82005,78.69971,-317.74854)"
       spreadMethod="pad"
       id="radialGradient42"><stop
         style="stop-opacity:1;stop-color:#ffffff"
         offset="0"
         id="stop36" /><stop
         style="stop-opacity:1;stop-color:#ffffff"
         offset="0.48659236"
         id="stop38" /><stop
         style="stop-opacity:1;stop-color:#000000"
         offset="1"
         id="stop40" /></radialGradient><clipPath
       clipPathUnits="userSpaceOnUse"
       id="clipPath68"><path
         d="M 156.56299,375.45361 H 266.51758 V 266.12305 H 156.56299 Z"
         id="path66"
         inkscape:connector-curvature="0" /></clipPath><radialGradient
       fx="0"
       fy="0"
       cx="0"
       cy="0"
       r="1"
       gradientUnits="userSpaceOnUse"
       gradientTransform="matrix(53.77069,-2.31602,2.31602,53.77068,211.54004,-320.78809)"
       spreadMethod="pad"
       id="radialGradient80"><stop
         style="stop-opacity:1;stop-color:#ffffff"
         offset="0"
         id="stop74" /><stop
         style="stop-opacity:1;stop-color:#ffffff"
         offset="0.48659236"
         id="stop76" /><stop
         style="stop-opacity:1;stop-color:#000000"
         offset="1"
         id="stop78" /></radialGradient><clipPath
       clipPathUnits="userSpaceOnUse"
       id="clipPath114"><path
         d="m 248.9668,344.90527 h 15.3164 v -42.18554 h -15.3164 z"
         id="path112"
         inkscape:connector-curvature="0" /></clipPath><clipPath
       clipPathUnits="userSpaceOnUse"
       id="clipPath134"><path
         d="M 303.24902,376.93359 H 413.20215 V 267.60547 H 303.24902 Z"
         id="path132"
         inkscape:connector-curvature="0" /></clipPath><radialGradient
       fx="0"
       fy="0"
       cx="0"
       cy="0"
       r="1"
       gradientUnits="userSpaceOnUse"
       gradientTransform="matrix(53.82054,0,0,53.82054,358.22559,-322.27002)"
       spreadMethod="pad"
       id="radialGradient146"><stop
         style="stop-opacity:1;stop-color:#ffffff"
         offset="0"
         id="stop140" /><stop
         style="stop-opacity:1;stop-color:#ffffff"
         offset="0.48659236"
         id="stop142" /><stop
         style="stop-opacity:1;stop-color:#000000"
         offset="1"
         id="stop144" /></radialGradient><clipPath
       clipPathUnits="userSpaceOnUse"
       id="clipPath180"><path
         d="m 369.03613,373.98096 h 21.25098 v -94.79541 h -21.25098 z"
         id="path178"
         inkscape:connector-curvature="0" /></clipPath><clipPath
       clipPathUnits="userSpaceOnUse"
       id="clipPath200"><path
         d="M 437.87695,378.53809 H 547.83008 V 269.21094 H 437.87695 Z"
         id="path198"
         inkscape:connector-curvature="0" /></clipPath><radialGradient
       fx="0"
       fy="0"
       cx="0"
       cy="0"
       r="1"
       gradientUnits="userSpaceOnUse"
       gradientTransform="matrix(53.82054,0,0,53.82054,492.85352,-323.875)"
       spreadMethod="pad"
       id="radialGradient212"><stop
         style="stop-opacity:1;stop-color:#ffffff"
         offset="0"
         id="stop206" /><stop
         style="stop-opacity:1;stop-color:#ffffff"
         offset="0.48659236"
         id="stop208" /><stop
         style="stop-opacity:1;stop-color:#000000"
         offset="1"
         id="stop210" /></radialGradient><clipPath
       clipPathUnits="userSpaceOnUse"
       id="clipPath246"><path
         d="m 481.88184,377.0625 h 16.28515 V 270.22949 h -16.28515 z"
         id="path244"
         inkscape:connector-curvature="0" /></clipPath><clipPath
       clipPathUnits="userSpaceOnUse"
       id="clipPath266"><path
         d="m 576.09766,372.67188 h 99.75195 V 271.14355 h -99.75195 z"
         id="path264"
         inkscape:connector-curvature="0" /></clipPath><radialGradient
       fx="0"
       fy="0"
       cx="0"
       cy="0"
       r="1"
       gradientUnits="userSpaceOnUse"
       gradientTransform="matrix(48.73528,0,0,49.90916,625.97461,-321.90771)"
       spreadMethod="pad"
       id="radialGradient278"><stop
         style="stop-opacity:1;stop-color:#ffffff"
         offset="0"
         id="stop272" /><stop
         style="stop-opacity:1;stop-color:#ffffff"
         offset="0.48659236"
         id="stop274" /><stop
         style="stop-opacity:1;stop-color:#000000"
         offset="1"
         id="stop276" /></radialGradient><clipPath
       clipPathUnits="userSpaceOnUse"
       id="clipPath312"><path
         d="m 598.55566,369.35254 h 25.33301 V 272.3584 h -25.33301 z"
         id="path310"
         inkscape:connector-curvature="0" /></clipPath><clipPath
       clipPathUnits="userSpaceOnUse"
       id="clipPath332"><path
         d="m 703.89648,374.47168 h 99.75391 V 272.94434 h -99.75391 z"
         id="path330"
         inkscape:connector-curvature="0" /></clipPath><radialGradient
       fx="0"
       fy="0"
       cx="0"
       cy="0"
       r="1"
       gradientUnits="userSpaceOnUse"
       gradientTransform="matrix(48.73483,0,0,49.90871,753.77441,-323.70752)"
       spreadMethod="pad"
       id="radialGradient344"><stop
         style="stop-opacity:1;stop-color:#ffffff"
         offset="0"
         id="stop338" /><stop
         style="stop-opacity:1;stop-color:#ffffff"
         offset="0.48659236"
         id="stop340" /><stop
         style="stop-opacity:1;stop-color:#000000"
         offset="1"
         id="stop342" /></radialGradient></defs><sodipodi:namedview
     pagecolor="#ffffff"
     bordercolor="#666666"
     borderopacity="1"
     objecttolerance="10"
     gridtolerance="10"
     guidetolerance="10"
     inkscape:pageopacity="0"
     inkscape:pageshadow="2"
     inkscape:window-width="1920"
     inkscape:window-height="1001"
     id="namedview4"
     showgrid="false"
     inkscape:zoom="0.80258917"
     inkscape:cx="531.62832"
     inkscape:cy="109.86705"
     inkscape:window-x="-9"
     inkscape:window-y="-9"
     inkscape:window-maximized="1"
     inkscape:current-layer="g10"
     inkscape:document-rotation="0"
     fit-margin-top="2"
     fit-margin-left="2"
     fit-margin-right="2"
     fit-margin-bottom="2" /><g
     id="g10"
     inkscape:groupmode="layer"
     inkscape:label="présentation"
     transform="matrix(1.3333333,0,0,-1.3333333,-29.631506,506.71744)"><g
       id="g12"
       transform="scale(1,-1)"><path
         d="m 51.69531,-320.82373 c 1.66651,-0.97119 3.53418,-1.85449 5.61963,-2.62793 16.68506,-6.18506 23.07324,-8.49414 27.48145,-15.24854 2.79101,-4.27685 4.4082,-9.00537 0.62939,-13.34765"
         style="fill:none;stroke:#000000;stroke-width:2;stroke-linecap:butt;stroke-linejoin:miter;stroke-miterlimit:4;stroke-dasharray:none;stroke-opacity:1"
         id="path14"
         inkscape:connector-curvature="0" /><path
         d="m 79.14893,-295.7793 c 3.93066,2.7041 5.33935,4.67774 1.84814,6.96485 -15.18408,9.94824 -38.71973,1.04492 -41.44287,-5.77149 -3.125,-7.82177 -4.4209,-16.24902 7.24902,-23.04687"
         style="fill:none;stroke:#000000;stroke-width:2;stroke-linecap:butt;stroke-linejoin:miter;stroke-miterlimit:4;stroke-dasharray:none;stroke-opacity:1"
         id="path16"
         inkscape:connector-curvature="0" /><path
         d="m 82.46484,-354.59326 c -2.50146,-1.26172 -5.99414,-2.0166 -10.61816,-2.25879 -10.13721,-0.53027 -26.30225,6.25146 -27.9873,19.38037 -1.22901,9.58057 3.76806,21.44287 13.45556,28.86475 5.72608,4.38769 10.79199,5.12109 16.47266,9.02978"
         style="fill:none;stroke:#000000;stroke-width:2;stroke-linecap:butt;stroke-linejoin:miter;stroke-miterlimit:4;stroke-dasharray:none;stroke-opacity:1"
         id="path18"
         inkscape:connector-curvature="0" /><path
         d="m 80.0127,-285.64063 c 12.03808,8.14942 40.8872,-2.08007 45.29492,-24.43359 1.94873,-9.87939 -5.01905,-32.63135 -10.0752,-36.82764 -4.51025,-3.74365 -5.87695,-6.91503 -18.26123,-7.55859 -9.42431,-0.48926 -24.979,2.4126 -24.76904,7.88037 0.13867,3.60694 4.93555,5.60449 9.75098,7.74658"
         style="fill:none;stroke:#000000;stroke-width:2;stroke-linecap:butt;stroke-linejoin:miter;stroke-miterlimit:4;stroke-dasharray:none;stroke-opacity:1"
         id="path20"
         inkscape:connector-curvature="0" /><path
         d="m 86.05566,-336.77002 c 13.64454,7.23633 14.18506,15.70752 11.07325,24.61133 -2.2461,6.42676 -35.21241,16.55713 -20.72852,23.47314"
         style="fill:none;stroke:#000000;stroke-width:2;stroke-linecap:butt;stroke-linejoin:miter;stroke-miterlimit:4;stroke-dasharray:none;stroke-opacity:1"
         id="path22"
         inkscape:connector-curvature="0" /><g
         id="g24"
         transform="scale(1,-1)"><g
           id="g26" /><g
           id="g60"><g
             clip-path="url(#clipPath30)"
             id="g58"
             style="opacity:0.3"><g
               transform="scale(1,-1)"
               id="g52"><g
                 id="g50"><g
                   id="g48"><g
                     id="g46"><path
                       d="m 24.72363,-317.74854 c 0,1.6128 0.07178,3.20801 0.21143,4.7837 2.43457,27.39648 25.5791,48.87988 53.7666,48.87988 29.81006,0 53.97412,-24.02637 53.97412,-53.66358 0,-29.6372 -24.16406,-53.66357 -53.97412,-53.66357 -29.80957,0 -53.97803,24.02637 -53.97803,53.66357 z"
                       style="fill:url(#radialGradient42);stroke:none"
                       id="path44"
                       inkscape:connector-curvature="0" /></g></g></g></g><g
               transform="scale(1,-1)"
               id="g56"><path
                 d="m 24.72363,-317.74854 c 0,1.6128 0.07178,3.20801 0.21143,4.7837 2.43457,27.39648 25.5791,48.87988 53.7666,48.87988 29.81006,0 53.97412,-24.02637 53.97412,-53.66358 0,-29.6372 -24.16406,-53.66357 -53.97412,-53.66357 -29.80957,0 -53.97803,24.02637 -53.97803,53.66357 z"
                 style="fill:none;stroke:#000000;stroke-width:2;stroke-linecap:butt;stroke-linejoin:miter;stroke-miterlimit:4;stroke-dasharray:none;stroke-opacity:1"
                 id="path54"
                 inkscape:connector-curvature="0" /></g></g></g></g><g
         id="g62"
         transform="scale(1,-1)"><g
           id="g64" /><g
           id="g98"><g
             clip-path="url(#clipPath68)"
             id="g96"
             style="opacity:0.3"><g
               transform="scale(1,-1)"
               id="g90"><g
                 id="g88"><g
                   id="g86"><g
                     id="g84"><path
                       d="m 157.61328,-318.46533 c 0.0693,1.61084 0.20996,3.20166 0.41797,4.76953 3.61084,27.26709 27.6582,47.73486 55.82031,46.52197 29.78223,-1.2832 52.89063,-26.32715 51.61524,-55.93701 -1.27539,-29.61035 -26.45117,-52.57471 -56.23438,-51.2915 -29.78222,1.28271 -52.89453,26.32666 -51.61914,55.93701 z"
                       style="fill:url(#radialGradient80);stroke:none"
                       id="path82"
                       inkscape:connector-curvature="0" /></g></g></g></g><g
               transform="scale(1,-1)"
               id="g94"><path
                 d="m 157.61328,-318.46533 c 0.0693,1.61084 0.20996,3.20166 0.41797,4.76953 3.61084,27.26709 27.6582,47.73486 55.82031,46.52197 29.78223,-1.2832 52.89063,-26.32715 51.61524,-55.93701 -1.27539,-29.61035 -26.45117,-52.57471 -56.23438,-51.2915 -29.78222,1.28271 -52.89453,26.32666 -51.61914,55.93701 z"
                 style="fill:none;stroke:#000000;stroke-width:2;stroke-linecap:butt;stroke-linejoin:miter;stroke-miterlimit:4;stroke-dasharray:none;stroke-opacity:1"
                 id="path92"
                 inkscape:connector-curvature="0" /></g></g></g></g><path
         d="m 187.82227,-323.15479 c 1.62402,-1.04248 3.45117,-2.00488 5.50195,-2.86767 16.40332,-6.89746 22.68652,-9.47949 26.7998,-16.41699 2.6045,-4.39258 4.01661,-9.18701 0.0537,-13.3628"
         style="fill:none;stroke:#000000;stroke-width:2;stroke-linecap:butt;stroke-linejoin:miter;stroke-miterlimit:4;stroke-dasharray:none;stroke-opacity:1"
         id="path100"
         inkscape:connector-curvature="0" /><path
         d="m 216.3291,-299.31543 c 4.04297,2.53223 5.53516,4.44434 2.14551,6.87988 -14.74121,10.5918 -38.63867,2.70899 -41.65283,-3.98437 -3.45899,-7.67969 -5.11621,-16.04297 6.25097,-23.33692"
         style="fill:none;stroke:#000000;stroke-width:2;stroke-linecap:butt;stroke-linejoin:miter;stroke-miterlimit:4;stroke-dasharray:none;stroke-opacity:1"
         id="path102"
         inkscape:connector-curvature="0" /><path
         d="m 217.11035,-358.21777 c -2.55371,-1.15235 -6.07519,-1.75635 -10.70605,-1.79932 -10.14942,-0.0937 -26.0083,7.37695 -27.12647,20.56689 -0.81592,9.62403 4.68701,21.26075 14.68506,28.25879 5.90918,4.13672 11.00293,4.65137 16.8457,8.31202"
         style="fill:none;stroke:#000000;stroke-width:2;stroke-linecap:butt;stroke-linejoin:miter;stroke-miterlimit:4;stroke-dasharray:none;stroke-opacity:1"
         id="path104"
         inkscape:connector-curvature="0" /><path
         d="m 260.34473,-344.49707 c -0.19434,-0.43408 -0.45508,-0.85742 -0.78907,-1.26807 -1.0332,-1.26806 -2.00781,-2.26953 -2.85449,-2.91259 -4.66699,-3.5459 -12.6914,-9.9209 -25.09179,-10.03125 -9.4375,-0.0835 -24.85254,3.48486 -24.40723,8.93847 0.29394,3.59766 5.17187,5.38721 10.07519,7.31983"
         style="fill:none;stroke:#000000;stroke-width:2;stroke-linecap:butt;stroke-linejoin:miter;stroke-miterlimit:4;stroke-dasharray:none;stroke-opacity:1"
         id="path106"
         inkscape:connector-curvature="0" /><g
         id="g108"
         transform="scale(1,-1)"><g
           id="g110" /><g
           id="g122"><g
             clip-path="url(#clipPath114)"
             id="g120"
             style="opacity:0.44"><g
               transform="scale(1,-1)"
               id="g118"><path
                 d="m 263.15918,-303.0459 c 1.55762,-4.51074 -12.01172,-10.96045 -13.12012,-18.11963 -1.21093,-7.82031 13.21875,-16.81982 10.30567,-23.33154"
                 style="fill:none;stroke:#000000;stroke-width:2;stroke-linecap:butt;stroke-linejoin:miter;stroke-miterlimit:4;stroke-dasharray:2;stroke-dashoffset:0;stroke-opacity:1"
                 id="path116"
                 inkscape:connector-curvature="0" /></g></g></g></g><path
         d="m 217.62793,-289.22363 c 9.30078,5.72851 32.56348,-0.16602 45.01465,-13.00586 0.24707,-0.25537 0.41699,-0.52783 0.5166,-0.81641"
         style="fill:none;stroke:#000000;stroke-width:2;stroke-linecap:butt;stroke-linejoin:miter;stroke-miterlimit:4;stroke-dasharray:none;stroke-opacity:1"
         id="path124"
         inkscape:connector-curvature="0" /><path
         d="m 221.46484,-340.56543 c 13.94336,6.64307 14.84864,15.08301 12.12207,24.1123 -1.96777,6.51709 -34.46679,18.05665 -19.69921,24.34375"
         style="fill:none;stroke:#000000;stroke-width:2;stroke-linecap:butt;stroke-linejoin:miter;stroke-miterlimit:4;stroke-dasharray:none;stroke-opacity:1"
         id="path126"
         inkscape:connector-curvature="0" /><g
         id="g128"
         transform="scale(1,-1)"><g
           id="g130" /><g
           id="g164"><g
             clip-path="url(#clipPath134)"
             id="g162"
             style="opacity:0.3"><g
               transform="scale(1,-1)"
               id="g156"><g
                 id="g154"><g
                   id="g152"><g
                     id="g150"><path
                       d="m 304.24902,-322.27002 c 0,1.61279 0.0723,3.20801 0.21289,4.78369 2.43457,27.39649 25.57813,48.88086 53.76563,48.88086 29.81055,0 53.97461,-24.02734 53.97461,-53.66455 0,-29.63721 -24.16406,-53.66357 -53.97461,-53.66357 -29.80957,0 -53.97852,24.02636 -53.97852,53.66357 z"
                       style="fill:url(#radialGradient146);stroke:none"
                       id="path148"
                       inkscape:connector-curvature="0" /></g></g></g></g><g
               transform="scale(1,-1)"
               id="g160"><path
                 d="m 304.24902,-322.27002 c 0,1.61279 0.0723,3.20801 0.21289,4.78369 2.43457,27.39649 25.57813,48.88086 53.76563,48.88086 29.81055,0 53.97461,-24.02734 53.97461,-53.66455 0,-29.63721 -24.16406,-53.66357 -53.97461,-53.66357 -29.80957,0 -53.97852,24.02636 -53.97852,53.66357 z"
                 style="fill:none;stroke:#000000;stroke-width:2;stroke-linecap:butt;stroke-linejoin:miter;stroke-miterlimit:4;stroke-dasharray:none;stroke-opacity:1"
                 id="path158"
                 inkscape:connector-curvature="0" /></g></g></g></g><path
         d="m 334.63281,-325.65527 c 1.66602,-0.97119 3.53418,-1.8545 5.61914,-2.62793 16.68457,-6.18506 23.07325,-8.49414 27.48145,-15.24805 2.79101,-4.27686 1.05273,-18.09814 -4.70801,-17.77832"
         style="fill:none;stroke:#000000;stroke-width:2;stroke-linecap:butt;stroke-linejoin:miter;stroke-miterlimit:4;stroke-dasharray:none;stroke-opacity:1"
         id="path166"
         inkscape:connector-curvature="0" /><path
         d="m 362.08594,-300.61084 c 3.93066,2.7041 5.33886,4.67725 1.84863,6.96436 -15.18457,9.94921 -38.71973,1.04492 -41.44336,-5.771 -3.125,-7.82178 -4.4209,-16.24854 7.24902,-23.04688"
         style="fill:none;stroke:#000000;stroke-width:2;stroke-linecap:butt;stroke-linejoin:miter;stroke-miterlimit:4;stroke-dasharray:none;stroke-opacity:1"
         id="path168"
         inkscape:connector-curvature="0" /><path
         d="m 356.94531,-361.62988 c -10.13672,-0.53076 -28.46386,6.19775 -30.14843,19.32715 -1.2295,9.58007 3.76757,21.44287 13.45507,28.86425 5.72657,4.3877 10.792,5.1211 16.47266,9.02979"
         style="fill:none;stroke:#000000;stroke-width:2;stroke-linecap:butt;stroke-linejoin:miter;stroke-miterlimit:4;stroke-dasharray:none;stroke-opacity:1"
         id="path170"
         inkscape:connector-curvature="0" /><path
         d="m 376.62598,-373.1499 c -9.42481,-0.48926 -21.69629,16.27002 -21.48633,21.73828 0.13867,3.60693 4.93457,5.60449 9.75098,7.74658"
         style="fill:none;stroke:#000000;stroke-width:2;stroke-linecap:butt;stroke-linejoin:miter;stroke-miterlimit:4;stroke-dasharray:none;stroke-opacity:1"
         id="path172"
         inkscape:connector-curvature="0" /><g
         id="g174"
         transform="scale(1,-1)"><g
           id="g176" /><g
           id="g188"><g
             clip-path="url(#clipPath180)"
             id="g186"
             style="opacity:0.45"><g
               transform="scale(1,-1)"
               id="g184"><path
                 d="m 389.10547,-279.39063 c 1.43945,-6.8789 -5.75977,-16.08007 -18.63965,-41.67919 -3.55664,-7.06885 16.40039,-50.64014 6.79981,-51.91993"
                 style="fill:none;stroke:#000000;stroke-width:2;stroke-linecap:butt;stroke-linejoin:miter;stroke-miterlimit:4;stroke-dasharray:2;stroke-dashoffset:0;stroke-opacity:1"
                 id="path182"
                 inkscape:connector-curvature="0" /></g></g></g></g><path
         d="m 362.9502,-290.47266 c 9.04492,6.12305 13.00293,24.81641 25.99511,12.52344"
         style="fill:none;stroke:#000000;stroke-width:2;stroke-linecap:butt;stroke-linejoin:miter;stroke-miterlimit:4;stroke-dasharray:none;stroke-opacity:1"
         id="path190"
         inkscape:connector-curvature="0" /><path
         d="m 368.99219,-341.60156 c 13.64551,7.23633 14.18554,15.70752 11.07422,24.61181 -2.24707,6.42627 -35.21289,16.55713 -20.72852,23.47217"
         style="fill:none;stroke:#000000;stroke-width:2;stroke-linecap:butt;stroke-linejoin:miter;stroke-miterlimit:4;stroke-dasharray:none;stroke-opacity:1"
         id="path192"
         inkscape:connector-curvature="0" /><g
         id="g194"
         transform="scale(1,-1)"><g
           id="g196" /><g
           id="g230"><g
             clip-path="url(#clipPath200)"
             id="g228"
             style="opacity:0.3"><g
               transform="scale(1,-1)"
               id="g222"><g
                 id="g220"><g
                   id="g218"><g
                     id="g216"><path
                       d="m 438.87695,-323.87402 c 0,1.61328 0.0723,3.20703 0.21289,4.7832 2.43457,27.39746 25.57813,48.87988 53.76563,48.87988 29.81055,0 53.97461,-24.02636 53.97461,-53.66308 0,-29.6377 -24.16406,-53.66407 -53.97461,-53.66407 -29.80957,0 -53.97852,24.02637 -53.97852,53.66407 z"
                       style="fill:url(#radialGradient212);stroke:none"
                       id="path214"
                       inkscape:connector-curvature="0" /></g></g></g></g><g
               transform="scale(1,-1)"
               id="g226"><path
                 d="m 438.87695,-323.87402 c 0,1.61328 0.0723,3.20703 0.21289,4.7832 2.43457,27.39746 25.57813,48.87988 53.76563,48.87988 29.81055,0 53.97461,-24.02636 53.97461,-53.66308 0,-29.6377 -24.16406,-53.66407 -53.97461,-53.66407 -29.80957,0 -53.97852,24.02637 -53.97852,53.66407 z"
                 style="fill:none;stroke:#000000;stroke-width:2;stroke-linecap:butt;stroke-linejoin:miter;stroke-miterlimit:4;stroke-dasharray:none;stroke-opacity:1"
                 id="path224"
                 inkscape:connector-curvature="0" /></g></g></g></g><path
         d="m 481.86035,-327.85938 c 1.66699,-0.97167 3.53418,-1.85449 5.62012,-2.62792 16.68457,-6.18555 23.07324,-8.49415 27.48047,-15.24805 2.79199,-4.27735 6.88965,-17.64258 -11.11035,-18.24219"
         style="fill:none;stroke:#000000;stroke-width:2;stroke-linecap:butt;stroke-linejoin:miter;stroke-miterlimit:4;stroke-dasharray:none;stroke-opacity:1"
         id="path232"
         inkscape:connector-curvature="0" /><path
         d="m 509.4502,-304.37695 c 4.00097,4.39941 6.29199,10.51172 2.80078,12.7998 -15.18457,9.94824 -39.8086,-3.22851 -42.53125,-10.04492 -3.12598,-7.82129 -4.4209,-16.24805 7.24902,-23.04688"
         style="fill:none;stroke:#000000;stroke-width:2;stroke-linecap:butt;stroke-linejoin:miter;stroke-miterlimit:4;stroke-dasharray:none;stroke-opacity:1"
         id="path234"
         inkscape:connector-curvature="0" /><path
         d="m 496.65039,-363.37793 c -10.13672,-0.53027 -20.94141,5.74219 -22.62598,18.87012 -1.22851,9.58105 3.76758,21.44433 13.45606,28.86523 5.72558,4.3877 10.79199,5.1211 16.47266,9.03028"
         style="fill:none;stroke:#000000;stroke-width:2;stroke-linecap:butt;stroke-linejoin:miter;stroke-miterlimit:4;stroke-dasharray:none;stroke-opacity:1"
         id="path236"
         inkscape:connector-curvature="0" /><path
         d="m 490.25098,-376.17773 c 8.87988,-3.19239 11.58984,11.93261 11.7998,17.40039 0.13867,3.60742 0.2002,10.60058 5.19922,16.39941"
         style="fill:none;stroke:#000000;stroke-width:2;stroke-linecap:butt;stroke-linejoin:miter;stroke-miterlimit:4;stroke-dasharray:none;stroke-opacity:1"
         id="path238"
         inkscape:connector-curvature="0" /><g
         id="g240"
         transform="scale(1,-1)"><g
           id="g242" /><g
           id="g254"><g
             clip-path="url(#clipPath246)"
             id="g252"
             style="opacity:0.45"><g
               transform="scale(1,-1)"
               id="g250"><path
                 d="m 497.85059,-271.17773 c -13.79981,-4.59961 7.67968,-23.59961 -5.2002,-49.19922 -3.55664,-7.06934 -18.19922,-47.80078 -3,-55.80078"
                 style="fill:none;stroke:#000000;stroke-width:2;stroke-linecap:butt;stroke-linejoin:miter;stroke-miterlimit:4;stroke-dasharray:2;stroke-dashoffset:0;stroke-opacity:1"
                 id="path248"
                 inkscape:connector-curvature="0" /></g></g></g></g><path
         d="m 508.05078,-287.17773 c 3.87305,8.69921 0.2002,17.60058 -9.40039,16.40039"
         style="fill:none;stroke:#000000;stroke-width:2;stroke-linecap:butt;stroke-linejoin:miter;stroke-miterlimit:4;stroke-dasharray:none;stroke-opacity:1"
         id="path256"
         inkscape:connector-curvature="0" /><path
         d="m 510.85059,-337.77734 c 10.7998,10.20019 -8.51465,32.34472 -3.39942,43.7998"
         style="fill:none;stroke:#000000;stroke-width:2;stroke-linecap:butt;stroke-linejoin:miter;stroke-miterlimit:4;stroke-dasharray:none;stroke-opacity:1"
         id="path258"
         inkscape:connector-curvature="0" /><g
         id="g260"
         transform="scale(1,-1)"><g
           id="g262" /><g
           id="g296"><g
             clip-path="url(#clipPath266)"
             id="g294"
             style="opacity:0.3"><g
               transform="scale(1,-1)"
               id="g288"><g
                 id="g286"><g
                   id="g284"><g
                     id="g282"><path
                       d="m 577.09766,-321.90723 c 0,1.4961 0.0644,2.97364 0.1914,4.43555 2.20508,25.40625 23.16211,45.32813 48.68653,45.32813 26.99316,0 48.87402,-22.28028 48.87402,-49.76368 0,-27.48437 -21.88086,-49.76465 -48.87402,-49.76465 -26.99317,0 -48.87793,22.28028 -48.87793,49.76465 z"
                       style="fill:url(#radialGradient278);stroke:none"
                       id="path280"
                       inkscape:connector-curvature="0" /></g></g></g></g><g
               transform="scale(1,-1)"
               id="g292"><path
                 d="m 577.09766,-321.90723 c 0,1.4961 0.0644,2.97364 0.1914,4.43555 2.20508,25.40625 23.16211,45.32813 48.68653,45.32813 26.99316,0 48.87402,-22.28028 48.87402,-49.76368 0,-27.48437 -21.88086,-49.76465 -48.87402,-49.76465 -26.99317,0 -48.87793,22.28028 -48.87793,49.76465 z"
                 style="fill:none;stroke:#000000;stroke-width:2;stroke-linecap:butt;stroke-linejoin:miter;stroke-miterlimit:4;stroke-dasharray:none;stroke-opacity:1"
                 id="path290"
                 inkscape:connector-curvature="0" /></g></g></g></g><path
         d="m 620.38086,-326.49219 c 1.66602,-0.97168 3.5332,-1.85449 5.61914,-2.62793 16.68457,-6.18554 23.07324,-8.49414 27.48047,-15.24902 2.79199,-4.27637 6.88965,-17.6416 -11.11035,-18.24121"
         style="fill:none;stroke:#000000;stroke-width:2;stroke-linecap:butt;stroke-linejoin:miter;stroke-miterlimit:4;stroke-dasharray:none;stroke-opacity:1"
         id="path298"
         inkscape:connector-curvature="0" /><path
         d="m 647.9707,-303.01074 c 3.99903,4.40039 6.29004,10.51269 2.79981,12.7998 -15.18457,9.94824 -39.80762,-3.22851 -42.53223,-10.04394 -3.125,-7.82227 -4.41992,-16.24805 7.25,-23.04688"
         style="fill:none;stroke:#000000;stroke-width:2;stroke-linecap:butt;stroke-linejoin:miter;stroke-miterlimit:4;stroke-dasharray:none;stroke-opacity:1"
         id="path300"
         inkscape:connector-curvature="0" /><path
         d="m 635.16992,-362.01074 c -10.13672,-0.53028 -20.9414,5.74121 -22.625,18.87011 -1.23047,9.58106 3.76758,21.44336 13.45508,28.86524 6.09766,4.67187 10.77148,5.10644 16.47266,9.0293"
         style="fill:none;stroke:#000000;stroke-width:2;stroke-linecap:butt;stroke-linejoin:miter;stroke-miterlimit:4;stroke-dasharray:none;stroke-opacity:1"
         id="path302"
         inkscape:connector-curvature="0" /><path
         d="m 616.57324,-369.10742 c 11.2002,-6.39942 20.39942,1.20019 23.99707,11.69726 1.1709,3.41407 2.20313,6.10352 5.19922,16.39942"
         style="fill:none;stroke:#000000;stroke-width:2;stroke-linecap:butt;stroke-linejoin:miter;stroke-miterlimit:4;stroke-dasharray:none;stroke-opacity:1"
         id="path304"
         inkscape:connector-curvature="0" /><g
         id="g306"
         transform="scale(1,-1)"><g
           id="g308" /><g
           id="g320"><g
             clip-path="url(#clipPath312)"
             id="g318"
             style="opacity:0.45"><g
               transform="scale(1,-1)"
               id="g316"><path
                 d="m 623.57227,-273.30664 c -13.79883,-4.60059 -22.41211,-24.51563 -24,-49.60059 -0.0215,-0.35449 -0.99903,-35 15.80078,-45.59961"
                 style="fill:none;stroke:#000000;stroke-width:2;stroke-linecap:butt;stroke-linejoin:miter;stroke-miterlimit:4;stroke-dasharray:2;stroke-dashoffset:0;stroke-opacity:1"
                 id="path314"
                 inkscape:connector-curvature="0" /></g></g></g></g><path
         d="m 639.77344,-284.30664 c -1.60059,9 -6.2002,12.59961 -15.80078,11.40039"
         style="fill:none;stroke:#000000;stroke-width:2;stroke-linecap:butt;stroke-linejoin:miter;stroke-miterlimit:4;stroke-dasharray:none;stroke-opacity:1"
         id="path322"
         inkscape:connector-curvature="0" /><path
         d="m 647.17285,-334.90723 c 4.40039,15.60059 -5.59961,37.2002 -7.59961,45.80078"
         style="fill:none;stroke:#000000;stroke-width:2;stroke-linecap:butt;stroke-linejoin:miter;stroke-miterlimit:4;stroke-dasharray:none;stroke-opacity:1"
         id="path324"
         inkscape:connector-curvature="0" /><g
         id="g326"
         transform="scale(1,-1)"><g
           id="g328" /><g
           id="g362"><g
             clip-path="url(#clipPath332)"
             id="g360"
             style="opacity:0.3"><g
               transform="scale(1,-1)"
               id="g354"><g
                 id="g352"><g
                   id="g350"><g
                     id="g348"><path
                       d="m 704.89648,-323.70703 c 0,1.49512 0.0664,2.97363 0.19239,4.43555 2.2041,25.40625 23.16113,45.32714 48.68652,45.32714 26.99414,0 48.875,-22.28027 48.875,-49.76269 0,-27.48438 -21.88086,-49.76465 -48.875,-49.76465 -26.99414,0 -48.87891,22.28027 -48.87891,49.76465 z"
                       style="fill:url(#radialGradient344);stroke:none"
                       id="path346"
                       inkscape:connector-curvature="0" /></g></g></g></g><g
               transform="scale(1,-1)"
               id="g358"><path
                 d="m 704.89648,-323.70703 c 0,1.49512 0.0664,2.97363 0.19239,4.43555 2.2041,25.40625 23.16113,45.32714 48.68652,45.32714 26.99414,0 48.875,-22.28027 48.875,-49.76269 0,-27.48438 -21.88086,-49.76465 -48.875,-49.76465 -26.99414,0 -48.87891,22.28027 -48.87891,49.76465 z"
                 style="fill:none;stroke:#000000;stroke-width:2;stroke-linecap:butt;stroke-linejoin:miter;stroke-miterlimit:4;stroke-dasharray:none;stroke-opacity:1"
                 id="path356"
                 inkscape:connector-curvature="0" /></g></g></g></g><path
         d="m 752.37988,-326.49219 c 1.667,-0.97168 3.53418,-1.85449 5.62012,-2.62793 17.04102,-6.31836 24.90527,-9.22851 25.97266,-15.1875 3.80078,-21.20019 -31.19922,-15.59961 -36,-6.20019"
         style="fill:none;stroke:#000000;stroke-width:2;stroke-linecap:butt;stroke-linejoin:miter;stroke-miterlimit:4;stroke-dasharray:none;stroke-opacity:1"
         id="path364"
         inkscape:connector-curvature="0" /><path
         d="m 769.37305,-298.70703 c 3,5.59961 3.29101,10.51172 -0.19922,12.7998 -15.18457,9.94727 -26.21094,-7.53222 -28.93555,-14.34863 -3.125,-7.82129 -4.41992,-16.24805 7.25,-23.0459"
         style="fill:none;stroke:#000000;stroke-width:2;stroke-linecap:butt;stroke-linejoin:miter;stroke-miterlimit:4;stroke-dasharray:none;stroke-opacity:1"
         id="path366"
         inkscape:connector-curvature="0" /><path
         d="m 745.97266,-344.10742 c -3.05469,9.16308 2.33984,22.41015 12.02734,29.83203 6.09766,4.67187 7.37305,3.16797 8.97266,12.16797"
         style="fill:none;stroke:#000000;stroke-width:2;stroke-linecap:butt;stroke-linejoin:miter;stroke-miterlimit:4;stroke-dasharray:none;stroke-opacity:1"
         id="path368"
         inkscape:connector-curvature="0" /><path
         d="m 740.17383,-293.90723 c -21,-0.80078 -45.40039,-46 -0.20117,-53.20019 3.56543,-0.56836 30,-4.2002 36.60058,7.39941"
         style="fill:none;stroke:#000000;stroke-width:2;stroke-linecap:butt;stroke-linejoin:miter;stroke-miterlimit:4;stroke-dasharray:none;stroke-opacity:1"
         id="path370"
         inkscape:connector-curvature="0" /><path
         d="m 779.17285,-334.90723 c 4.39942,15.59961 11.2002,33.39942 -29.99902,38.79981"
         style="fill:none;stroke:#000000;stroke-width:2;stroke-linecap:butt;stroke-linejoin:miter;stroke-miterlimit:4;stroke-dasharray:none;stroke-opacity:1"
         id="path372"
         inkscape:connector-curvature="0" /></g></g></svg>
