<?xml version="1.0" encoding="UTF-8" standalone="no"?>
<svg
   xmlns:dc="http://purl.org/dc/elements/1.1/"
   xmlns:cc="http://creativecommons.org/ns#"
   xmlns:rdf="http://www.w3.org/1999/02/22-rdf-syntax-ns#"
   xmlns:svg="http://www.w3.org/2000/svg"
   xmlns="http://www.w3.org/2000/svg"
   xmlns:sodipodi="http://sodipodi.sourceforge.net/DTD/sodipodi-0.dtd"
   xmlns:inkscape="http://www.inkscape.org/namespaces/inkscape"
   version="1.1"
   id="svg2"
   xml:space="preserve"
   width="1035.9386"
   height="155.09586"
   viewBox="0 0 1035.9386 155.09585"
   sodipodi:docname="présentation2.ai.svg"
   inkscape:version="1.0.2-2 (e86c870879, 2021-01-15)"><metadata
     id="metadata8"><rdf:RDF><cc:Work
         rdf:about=""><dc:format>image/svg+xml</dc:format><dc:type
           rdf:resource="http://purl.org/dc/dcmitype/StillImage" /><dc:title></dc:title></cc:Work></rdf:RDF></metadata><defs
     id="defs6"><clipPath
       clipPathUnits="userSpaceOnUse"
       id="clipPath18"><path
         d="M 0,595.276 H 841.89 V 0 H 0 Z"
         id="path16" /></clipPath><clipPath
       clipPathUnits="userSpaceOnUse"
       id="clipPath26"><path
         d="M 45.2314,255.418 H 155.184 V 146.091 H 45.2314 Z"
         id="path24" /></clipPath><radialGradient
       fx="0"
       fy="0"
       cx="0"
       cy="0"
       r="1"
       gradientUnits="userSpaceOnUse"
       gradientTransform="matrix(53.819809,0,0,-53.819809,100.20752,200.75391)"
       spreadMethod="pad"
       id="radialGradient38"><stop
         style="stop-opacity:1;stop-color:#ffffff"
         offset="0"
         id="stop32" /><stop
         style="stop-opacity:1;stop-color:#ffffff"
         offset="0.74013284"
         id="stop34" /><stop
         style="stop-opacity:1;stop-color:#000000"
         offset="1"
         id="stop36" /></radialGradient><clipPath
       clipPathUnits="userSpaceOnUse"
       id="clipPath100"><path
         d="M 297.233,252.923 H 407.185 V 143.596 H 297.233 Z"
         id="path98" /></clipPath><radialGradient
       fx="0"
       fy="0"
       cx="0"
       cy="0"
       r="1"
       gradientUnits="userSpaceOnUse"
       gradientTransform="matrix(53.820297,0,0,-53.820297,352.20898,198.25977)"
       spreadMethod="pad"
       id="radialGradient112"><stop
         style="stop-opacity:1;stop-color:#ffffff"
         offset="0"
         id="stop106" /><stop
         style="stop-opacity:1;stop-color:#ffffff"
         offset="0.74013284"
         id="stop108" /><stop
         style="stop-opacity:1;stop-color:#000000"
         offset="1"
         id="stop110" /></radialGradient><clipPath
       clipPathUnits="userSpaceOnUse"
       id="clipPath178"><path
         d="M 169.007,253.461 H 278.959 V 144.134 H 169.007 Z"
         id="path176" /></clipPath><radialGradient
       fx="0"
       fy="0"
       cx="0"
       cy="0"
       r="1"
       gradientUnits="userSpaceOnUse"
       gradientTransform="matrix(53.819809,0,0,-53.819809,223.98291,198.79687)"
       spreadMethod="pad"
       id="radialGradient190"><stop
         style="stop-opacity:1;stop-color:#ffffff"
         offset="0"
         id="stop184" /><stop
         style="stop-opacity:1;stop-color:#ffffff"
         offset="0.74013284"
         id="stop186" /><stop
         style="stop-opacity:1;stop-color:#000000"
         offset="1"
         id="stop188" /></radialGradient><clipPath
       clipPathUnits="userSpaceOnUse"
       id="clipPath256"><path
         d="M 428.732,254.423 H 538.686 V 145.096 H 428.732 Z"
         id="path254" /></clipPath><radialGradient
       fx="0"
       fy="0"
       cx="0"
       cy="0"
       r="1"
       gradientUnits="userSpaceOnUse"
       gradientTransform="matrix(53.820541,0,0,-53.820541,483.70898,199.75977)"
       spreadMethod="pad"
       id="radialGradient268"><stop
         style="stop-opacity:1;stop-color:#ffffff"
         offset="0"
         id="stop262" /><stop
         style="stop-opacity:1;stop-color:#ffffff"
         offset="0.74013284"
         id="stop264" /><stop
         style="stop-opacity:1;stop-color:#000000"
         offset="1"
         id="stop266" /></radialGradient><clipPath
       clipPathUnits="userSpaceOnUse"
       id="clipPath334"><path
         d="M 565.732,251.423 H 675.686 V 142.096 H 565.732 Z"
         id="path332" /></clipPath><radialGradient
       fx="0"
       fy="0"
       cx="0"
       cy="0"
       r="1"
       gradientUnits="userSpaceOnUse"
       gradientTransform="matrix(53.820541,0,0,-53.820541,620.70898,196.75977)"
       spreadMethod="pad"
       id="radialGradient346"><stop
         style="stop-opacity:1;stop-color:#ffffff"
         offset="0"
         id="stop340" /><stop
         style="stop-opacity:1;stop-color:#ffffff"
         offset="0.74013284"
         id="stop342" /><stop
         style="stop-opacity:1;stop-color:#000000"
         offset="1"
         id="stop344" /></radialGradient><clipPath
       clipPathUnits="userSpaceOnUse"
       id="clipPath408"><path
         d="M 709.232,254.423 H 819.186 V 145.096 H 709.232 Z"
         id="path406" /></clipPath><radialGradient
       fx="0"
       fy="0"
       cx="0"
       cy="0"
       r="1"
       gradientUnits="userSpaceOnUse"
       gradientTransform="matrix(53.820541,0,0,-53.820541,764.20898,199.75977)"
       spreadMethod="pad"
       id="radialGradient420"><stop
         style="stop-opacity:1;stop-color:#ffffff"
         offset="0"
         id="stop414" /><stop
         style="stop-opacity:1;stop-color:#ffffff"
         offset="0.74013284"
         id="stop416" /><stop
         style="stop-opacity:1;stop-color:#000000"
         offset="1"
         id="stop418" /></radialGradient></defs><sodipodi:namedview
     pagecolor="#ffffff"
     bordercolor="#666666"
     borderopacity="1"
     objecttolerance="10"
     gridtolerance="10"
     guidetolerance="10"
     inkscape:pageopacity="0"
     inkscape:pageshadow="2"
     inkscape:window-width="1816"
     inkscape:window-height="1030"
     id="namedview4"
     showgrid="false"
     inkscape:zoom="0.85926526"
     inkscape:cx="502.95148"
     inkscape:cy="-54.293459"
     inkscape:window-x="86"
     inkscape:window-y="0"
     inkscape:window-maximized="0"
     inkscape:current-layer="g10"
     inkscape:document-rotation="0"
     fit-margin-top="2"
     fit-margin-left="2"
     fit-margin-right="2"
     fit-margin-bottom="2" /><g
     id="g10"
     inkscape:groupmode="layer"
     inkscape:label="présentation2"
     transform="matrix(1.3333333,0,0,-1.3333333,-58.308532,342.55719)"><g
       id="g12"><g
         id="g14"
         clip-path="url(#clipPath18)"><g
           id="g20"><g
             id="g22" /><g
             id="g56"><g
               clip-path="url(#clipPath26)"
               opacity="0.300003"
               id="g54"><g
                 id="g48"><g
                   id="g46"><g
                     id="g44"><g
                       id="g42"><path
                         d="m 46.231,200.754 c 0,-1.612 0.072,-3.207 0.212,-4.783 2.434,-27.397 25.579,-48.88 53.766,-48.88 29.811,0 53.975,24.026 53.975,53.663 0,29.638 -24.164,53.664 -53.975,53.664 -29.809,0 -53.978,-24.026 -53.978,-53.664"
                         style="fill:url(#radialGradient38);stroke:none"
                         id="path40" /></g></g></g></g><g
                 transform="translate(46.2314,200.7539)"
                 id="g52"><path
                   d="m 0,0 c 0,-1.612 0.072,-3.207 0.211,-4.783 2.435,-27.397 25.58,-48.88 53.767,-48.88 29.81,0 53.974,24.026 53.974,53.663 0,29.638 -24.164,53.664 -53.974,53.664 C 24.168,53.664 0,29.638 0,0 Z"
                   style="fill:none;stroke:#000000;stroke-width:2;stroke-linecap:butt;stroke-linejoin:miter;stroke-miterlimit:4;stroke-dasharray:none;stroke-opacity:1"
                   id="path50" /></g></g></g></g><g
           id="g58"
           transform="translate(121.8003,215.2207)"><path
             d="m 0,0 c -0.079,3.627 -1.287,6.914 -3.753,8.15 -4.134,2.073 -12.473,-2.541 -15.648,-8.113 -2.925,-5.129 -4.566,-11.594 -5.165,-18.066"
             style="fill:none;stroke:#0a71b3;stroke-width:2;stroke-linecap:butt;stroke-linejoin:miter;stroke-miterlimit:4;stroke-dasharray:none;stroke-opacity:1"
             id="path60" /></g><g
           id="g62"
           transform="translate(74.2925,196.7832)"><path
             d="M 0,0 C 4.109,-2.086 8.729,-3.531 13.287,-4.254 27.629,-6.52 37.213,-2.945 45.041,9.016"
             style="fill:none;stroke:#0a71b3;stroke-width:2;stroke-linecap:butt;stroke-linejoin:miter;stroke-miterlimit:4;stroke-dasharray:none;stroke-opacity:1"
             id="path64" /></g><g
           id="g66"
           transform="translate(98.4585,225.291)"><path
             d="M 0,0 C 0.628,1.865 0.854,3.809 0.495,5.664 0.049,7.973 -1.65,9.631 -4.1,10.656 c -8.62,3.61 -26.536,-0.592 -31.887,-11.689 -4.062,-8.424 -2.069,-15.567 2.935,-20.973"
             style="fill:none;stroke:#0a71b3;stroke-width:2;stroke-linecap:butt;stroke-linejoin:miter;stroke-miterlimit:4;stroke-dasharray:none;stroke-opacity:1"
             id="path68" /></g><g
           id="g70"
           transform="translate(133.5161,189.3906)"><path
             d="m 0,0 c -2.728,-2.428 -5.654,-4.693 -8.513,-6.836 -14.706,-11.031 -49.242,-34.703 -63.699,-4.768 -7.982,16.538 21.157,34.356 28.992,37.993 1.213,0.562 2.433,1.418 3.563,2.476"
             style="fill:none;stroke:#0a71b3;stroke-width:3;stroke-linecap:butt;stroke-linejoin:miter;stroke-miterlimit:4;stroke-dasharray:none;stroke-opacity:1"
             id="path72" /></g><g
           id="g74"
           transform="translate(96.0103,242.957)"><path
             d="m 0,0 c 8.615,6.24 36.259,-0.355 46.287,-18.299 5.432,-9.724 4.442,-17.752 0.427,-24.596"
             style="fill:none;stroke:#0a71b3;stroke-width:1;stroke-linecap:butt;stroke-linejoin:miter;stroke-miterlimit:4;stroke-dasharray:none;stroke-opacity:1"
             id="path76" /></g><g
           id="g78"
           transform="translate(101.0034,218.8867)"><path
             d="m 0,0 c -9.766,4.371 -8.672,4.373 -10.765,7.82 -1.503,2.475 -1.946,4.711 -1.631,6.752"
             style="fill:none;stroke:#0a71b3;stroke-width:2;stroke-linecap:butt;stroke-linejoin:miter;stroke-miterlimit:4;stroke-dasharray:none;stroke-opacity:1"
             id="path80" /></g><g
           id="g82"
           transform="translate(106.1206,165.6973)"><path
             d="M 0,0 C 5.682,-5.281 13.816,-7.387 23.63,-3.096 43.954,5.791 38.445,22.65 27.379,35.771 22.592,41.445 10.699,46.727 2.216,50.523"
             style="fill:none;stroke:#0a71b3;stroke-width:3;stroke-linecap:butt;stroke-linejoin:miter;stroke-miterlimit:4;stroke-dasharray:none;stroke-opacity:1"
             id="path84" /></g><g
           id="g86"
           transform="translate(97.6069,182.752)"><path
             d="M 0,0 C 0.477,-3.104 1.383,-6.123 2.679,-8.889"
             style="fill:none;stroke:#0a71b3;stroke-width:1;stroke-linecap:butt;stroke-linejoin:miter;stroke-miterlimit:4;stroke-dasharray:none;stroke-opacity:1"
             id="path88" /></g><g
           id="g90"
           transform="translate(335,248.9414)"><path
             d="m 0,0 c -3.167,-14 4.631,-41.49 21,-48.166 11.267,-4.596 39,8.333 47.5,9.5"
             style="fill:none;stroke:#0a71b3;stroke-width:1;stroke-linecap:butt;stroke-linejoin:miter;stroke-miterlimit:4;stroke-dasharray:1, 2;stroke-dashoffset:0;stroke-opacity:1"
             id="path92" /></g><g
           id="g94"><g
             id="g96" /><g
             id="g130"><g
               clip-path="url(#clipPath100)"
               opacity="0.300003"
               id="g128"><g
                 id="g122"><g
                   id="g120"><g
                     id="g118"><g
                       id="g116"><path
                         d="m 298.233,198.259 c 0,-1.613 0.072,-3.207 0.211,-4.783 2.435,-27.397 25.579,-48.88 53.767,-48.88 29.81,0 53.974,24.026 53.974,53.663 0,29.637 -24.164,53.664 -53.974,53.664 -29.81,0 -53.978,-24.027 -53.978,-53.664"
                         style="fill:url(#radialGradient112);stroke:none"
                         id="path114" /></g></g></g></g><g
                 transform="translate(298.2329,198.2588)"
                 id="g126"><path
                   d="m 0,0 c 0,-1.612 0.072,-3.207 0.211,-4.783 2.435,-27.397 25.58,-48.88 53.767,-48.88 29.81,0 53.974,24.026 53.974,53.663 0,29.638 -24.164,53.664 -53.974,53.664 C 24.168,53.664 0,29.638 0,0 Z"
                   style="fill:none;stroke:#000000;stroke-width:2;stroke-linecap:butt;stroke-linejoin:miter;stroke-miterlimit:4;stroke-dasharray:none;stroke-opacity:1"
                   id="path124" /></g></g></g></g><g
           id="g132"
           transform="translate(373.8018,212.7256)"><path
             d="m 0,0 c -0.079,3.627 -1.287,6.914 -3.753,8.15 -4.134,2.073 -12.473,-2.541 -15.648,-8.113 -2.925,-5.129 -4.566,-11.594 -5.165,-18.066"
             style="fill:none;stroke:#0a71b3;stroke-width:2;stroke-linecap:butt;stroke-linejoin:miter;stroke-miterlimit:4;stroke-dasharray:none;stroke-opacity:1"
             id="path134" /></g><g
           id="g136"
           transform="translate(326.2939,194.2881)"><path
             d="M 0,0 C 4.109,-2.086 8.729,-3.531 13.287,-4.254 27.629,-6.52 37.213,-2.945 45.041,9.016"
             style="fill:none;stroke:#0a71b3;stroke-width:2;stroke-linecap:butt;stroke-linejoin:miter;stroke-miterlimit:4;stroke-dasharray:none;stroke-opacity:1"
             id="path138" /></g><g
           id="g140"
           transform="translate(350.46,222.7959)"><path
             d="M 0,0 C 0.628,1.865 0.854,3.809 0.495,5.664 0.049,7.973 -1.65,9.631 -4.1,10.656 c -8.62,3.61 -26.536,-0.592 -31.887,-11.689 -4.062,-8.424 -2.069,-15.567 2.935,-20.973"
             style="fill:none;stroke:#0a71b3;stroke-width:2;stroke-linecap:butt;stroke-linejoin:miter;stroke-miterlimit:4;stroke-dasharray:none;stroke-opacity:1"
             id="path142" /></g><g
           id="g144"
           transform="translate(385.5176,186.8955)"><path
             d="m 0,0 c -2.728,-2.428 -5.654,-4.693 -8.513,-6.836 -14.706,-11.031 -49.242,-34.703 -63.699,-4.768 -7.982,16.538 28.944,34.234 32.944,41.234"
             style="fill:none;stroke:#0a71b3;stroke-width:3;stroke-linecap:butt;stroke-linejoin:miter;stroke-miterlimit:4;stroke-dasharray:none;stroke-opacity:1"
             id="path146" /></g><g
           id="g148"
           transform="translate(406,210.9414)"><path
             d="M 0,0 C 2,1.167 5.185,0.129 5.667,-2.5 6.75,-8.416 -5.75,-9.666 -12.5,-16.666"
             style="fill:none;stroke:#0a71b3;stroke-width:1;stroke-linecap:butt;stroke-linejoin:miter;stroke-miterlimit:4;stroke-dasharray:none;stroke-opacity:1"
             id="path150" /></g><g
           id="g152"
           transform="translate(343.6665,238.2754)"><path
             d="M 0,0 C 2.667,9.833 -9.509,22.932 -8.5,11.833"
             style="fill:none;stroke:#0a71b3;stroke-width:1;stroke-linecap:butt;stroke-linejoin:miter;stroke-miterlimit:4;stroke-dasharray:none;stroke-opacity:1"
             id="path154" /></g><g
           id="g156"
           transform="translate(353.0049,216.3916)"><path
             d="M 0,0 C -9.766,4.371 -12.255,9.384 -10.255,15.384"
             style="fill:none;stroke:#0a71b3;stroke-width:2;stroke-linecap:butt;stroke-linejoin:miter;stroke-miterlimit:4;stroke-dasharray:none;stroke-opacity:1"
             id="path158" /></g><g
           id="g160"
           transform="translate(358.1221,163.2021)"><path
             d="M 0,0 C 5.682,-5.281 13.816,-7.387 23.63,-3.096 43.954,5.791 38.445,22.65 27.379,35.771 22.592,41.445 10.699,46.727 2.216,50.523"
             style="fill:none;stroke:#0a71b3;stroke-width:3;stroke-linecap:butt;stroke-linejoin:miter;stroke-miterlimit:4;stroke-dasharray:none;stroke-opacity:1"
             id="path162" /></g><g
           id="g164"
           transform="translate(349.6084,180.2568)"><path
             d="M 0,0 C 0.477,-3.104 1.383,-6.123 2.679,-8.889"
             style="fill:none;stroke:#0a71b3;stroke-width:1;stroke-linecap:butt;stroke-linejoin:miter;stroke-miterlimit:4;stroke-dasharray:none;stroke-opacity:1"
             id="path166" /></g><g
           id="g168"
           transform="translate(247.7427,247.8232)"><path
             d="m 0,0 c 0.015,-0.164 0.025,-0.334 0.031,-0.51 0.393,-12.162 11.75,-16 20.908,-16.871"
             style="fill:none;stroke:#0a71b3;stroke-width:1;stroke-linecap:butt;stroke-linejoin:miter;stroke-miterlimit:4;stroke-dasharray:1, 2;stroke-dashoffset:0;stroke-opacity:1"
             id="path170" /></g><g
           id="g172"><g
             id="g174" /><g
             id="g208"><g
               clip-path="url(#clipPath178)"
               opacity="0.300003"
               id="g206"><g
                 id="g200"><g
                   id="g198"><g
                     id="g196"><g
                       id="g194"><path
                         d="m 170.007,198.797 c 0,-1.612 0.072,-3.207 0.211,-4.783 2.435,-27.397 25.579,-48.88 53.767,-48.88 29.81,0 53.974,24.026 53.974,53.663 0,29.638 -24.164,53.664 -53.974,53.664 -29.81,0 -53.978,-24.026 -53.978,-53.664"
                         style="fill:url(#radialGradient190);stroke:none"
                         id="path192" /></g></g></g></g><g
                 transform="translate(170.0068,198.7969)"
                 id="g204"><path
                   d="m 0,0 c 0,-1.612 0.072,-3.207 0.211,-4.783 2.435,-27.397 25.58,-48.88 53.767,-48.88 29.81,0 53.974,24.026 53.974,53.663 0,29.638 -24.164,53.664 -53.974,53.664 C 24.168,53.664 0,29.638 0,0 Z"
                   style="fill:none;stroke:#000000;stroke-width:2;stroke-linecap:butt;stroke-linejoin:miter;stroke-miterlimit:4;stroke-dasharray:none;stroke-opacity:1"
                   id="path202" /></g></g></g></g><g
           id="g210"
           transform="translate(245.5757,213.2637)"><path
             d="m 0,0 c -0.079,3.627 -1.287,6.914 -3.753,8.15 -4.134,2.073 -12.473,-2.541 -15.648,-8.113 -2.925,-5.129 -4.566,-11.594 -5.165,-18.066"
             style="fill:none;stroke:#0a71b3;stroke-width:2;stroke-linecap:butt;stroke-linejoin:miter;stroke-miterlimit:4;stroke-dasharray:none;stroke-opacity:1"
             id="path212" /></g><g
           id="g214"
           transform="translate(198.0679,194.8262)"><path
             d="M 0,0 C 4.109,-2.086 8.729,-3.531 13.287,-4.254 27.629,-6.52 37.213,-2.945 45.041,9.016"
             style="fill:none;stroke:#0a71b3;stroke-width:2;stroke-linecap:butt;stroke-linejoin:miter;stroke-miterlimit:4;stroke-dasharray:none;stroke-opacity:1"
             id="path216" /></g><g
           id="g218"
           transform="translate(222.2339,223.334)"><path
             d="M 0,0 C 0.628,1.865 0.854,3.809 0.495,5.664 0.049,7.973 -1.65,9.631 -4.1,10.656 c -8.62,3.61 -26.536,-0.592 -31.887,-11.689 -4.062,-8.424 -2.069,-15.567 2.935,-20.973"
             style="fill:none;stroke:#0a71b3;stroke-width:2;stroke-linecap:butt;stroke-linejoin:miter;stroke-miterlimit:4;stroke-dasharray:none;stroke-opacity:1"
             id="path220" /></g><g
           id="g222"
           transform="translate(257.2915,187.4336)"><path
             d="m 0,0 c -2.728,-2.428 -5.654,-4.693 -8.513,-6.836 -14.706,-11.031 -49.242,-34.703 -63.699,-4.768 -7.982,16.538 21.157,34.356 28.992,37.993 1.213,0.562 2.433,1.418 3.563,2.476"
             style="fill:none;stroke:#0a71b3;stroke-width:3;stroke-linecap:butt;stroke-linejoin:miter;stroke-miterlimit:4;stroke-dasharray:none;stroke-opacity:1"
             id="path224" /></g><g
           id="g226"
           transform="translate(268.6816,230.4424)"><path
             d="m 0,0 c 2.066,-0.951 3.721,-2.07 4.592,-3.629 5.432,-9.725 -2.759,-21.864 -6.774,-28.708"
             style="fill:none;stroke:#0a71b3;stroke-width:1;stroke-linecap:butt;stroke-linejoin:miter;stroke-miterlimit:4;stroke-dasharray:none;stroke-opacity:1"
             id="path228" /></g><g
           id="g230"
           transform="translate(219.7856,241)"><path
             d="M 0,0 C 5.065,3.669 26.948,17.922 27.957,6.823"
             style="fill:none;stroke:#0a71b3;stroke-width:1;stroke-linecap:butt;stroke-linejoin:miter;stroke-miterlimit:4;stroke-dasharray:none;stroke-opacity:1"
             id="path232" /></g><g
           id="g234"
           transform="translate(224.7788,216.9297)"><path
             d="m 0,0 c -9.766,4.371 -8.672,4.373 -10.765,7.82 -1.503,2.475 -1.946,4.711 -1.631,6.752"
             style="fill:none;stroke:#0a71b3;stroke-width:2;stroke-linecap:butt;stroke-linejoin:miter;stroke-miterlimit:4;stroke-dasharray:none;stroke-opacity:1"
             id="path236" /></g><g
           id="g238"
           transform="translate(229.896,163.7402)"><path
             d="M 0,0 C 5.682,-5.281 13.816,-7.387 23.63,-3.096 43.954,5.791 38.445,22.65 27.379,35.771 22.592,41.445 10.699,46.727 2.216,50.523"
             style="fill:none;stroke:#0a71b3;stroke-width:3;stroke-linecap:butt;stroke-linejoin:miter;stroke-miterlimit:4;stroke-dasharray:none;stroke-opacity:1"
             id="path240" /></g><g
           id="g242"
           transform="translate(221.3823,180.7949)"><path
             d="M 0,0 C 0.477,-3.104 1.383,-6.123 2.679,-8.889"
             style="fill:none;stroke:#0a71b3;stroke-width:1;stroke-linecap:butt;stroke-linejoin:miter;stroke-miterlimit:4;stroke-dasharray:none;stroke-opacity:1"
             id="path244" /></g><g
           id="g246"
           transform="translate(454.667,243.6084)"><path
             d="M 0,0 C 0.667,-14 3.855,-54.427 19.667,-62.333 41,-73 58.333,-77.833 67.083,-82.333"
             style="fill:none;stroke:#0a71b3;stroke-width:1;stroke-linecap:butt;stroke-linejoin:miter;stroke-miterlimit:4;stroke-dasharray:1, 2;stroke-dashoffset:0;stroke-opacity:1"
             id="path248" /></g><g
           id="g250"><g
             id="g252" /><g
             id="g286"><g
               clip-path="url(#clipPath256)"
               opacity="0.300003"
               id="g284"><g
                 id="g278"><g
                   id="g276"><g
                     id="g274"><g
                       id="g272"><path
                         d="m 429.732,199.759 c 0,-1.613 0.073,-3.207 0.212,-4.783 2.435,-27.397 25.579,-48.88 53.767,-48.88 29.81,0 53.975,24.026 53.975,53.663 0,29.637 -24.165,53.664 -53.975,53.664 -29.81,0 -53.979,-24.027 -53.979,-53.664"
                         style="fill:url(#radialGradient268);stroke:none"
                         id="path270" /></g></g></g></g><g
                 transform="translate(429.7324,199.7588)"
                 id="g282"><path
                   d="m 0,0 c 0,-1.612 0.072,-3.207 0.212,-4.783 2.434,-27.397 25.579,-48.88 53.767,-48.88 29.81,0 53.974,24.026 53.974,53.663 0,29.638 -24.164,53.664 -53.974,53.664 C 24.169,53.664 0,29.638 0,0 Z"
                   style="fill:none;stroke:#000000;stroke-width:2;stroke-linecap:butt;stroke-linejoin:miter;stroke-miterlimit:4;stroke-dasharray:none;stroke-opacity:1"
                   id="path280" /></g></g></g></g><g
           id="g288"
           transform="translate(505.3018,214.2256)"><path
             d="m 0,0 c -0.079,3.627 -1.287,6.914 -3.753,8.15 -4.134,2.073 -12.473,-2.541 -15.648,-8.113 -2.925,-5.129 -4.566,-11.594 -5.165,-18.066"
             style="fill:none;stroke:#0a71b3;stroke-width:2;stroke-linecap:butt;stroke-linejoin:miter;stroke-miterlimit:4;stroke-dasharray:none;stroke-opacity:1"
             id="path290" /></g><g
           id="g292"
           transform="translate(457.7939,195.7881)"><path
             d="M 0,0 C 4.109,-2.086 8.729,-3.531 13.287,-4.254 27.629,-6.52 37.213,-2.945 45.041,9.016"
             style="fill:none;stroke:#0a71b3;stroke-width:2;stroke-linecap:butt;stroke-linejoin:miter;stroke-miterlimit:4;stroke-dasharray:none;stroke-opacity:1"
             id="path294" /></g><g
           id="g296"
           transform="translate(481.96,224.2959)"><path
             d="M 0,0 C 0.628,1.865 0.854,3.809 0.495,5.664 0.049,7.973 -1.65,9.631 -4.1,10.656 c -8.62,3.61 -26.536,-0.592 -31.887,-11.689 -4.062,-8.424 -2.069,-15.567 2.935,-20.973"
             style="fill:none;stroke:#0a71b3;stroke-width:2;stroke-linecap:butt;stroke-linejoin:miter;stroke-miterlimit:4;stroke-dasharray:none;stroke-opacity:1"
             id="path298" /></g><g
           id="g300"
           transform="translate(521.5,178.0254)"><path
             d="M 0,0 C -7.25,4.75 -21.177,-1.312 -24,-3.5 -34,-11.25 -57.806,-19.267 -71.5,4.75 -80.596,20.702 -47.75,33 -43.75,40"
             style="fill:none;stroke:#0a71b3;stroke-width:3;stroke-linecap:butt;stroke-linejoin:miter;stroke-miterlimit:4;stroke-dasharray:none;stroke-opacity:1"
             id="path302" /></g><g
           id="g304"
           transform="translate(524.25,161.0254)"><path
             d="m 0,0 c 7.5,-2.75 11.882,-1.326 13.5,4.5 1.25,4.5 -3.25,7 -8.25,10"
             style="fill:none;stroke:#0a71b3;stroke-width:1;stroke-linecap:butt;stroke-linejoin:miter;stroke-miterlimit:4;stroke-dasharray:none;stroke-opacity:1"
             id="path306" /></g><g
           id="g308"
           transform="translate(463.25,239.5254)"><path
             d="M 0,0 C 2.834,15.166 -10.591,16.849 -9.583,5.75"
             style="fill:none;stroke:#0a71b3;stroke-width:1;stroke-linecap:butt;stroke-linejoin:miter;stroke-miterlimit:4;stroke-dasharray:none;stroke-opacity:1"
             id="path310" /></g><g
           id="g312"
           transform="translate(484.5049,217.8916)"><path
             d="M 0,0 C -9.766,4.371 -17.505,6.634 -19.755,14.384"
             style="fill:none;stroke:#0a71b3;stroke-width:2;stroke-linecap:butt;stroke-linejoin:miter;stroke-miterlimit:4;stroke-dasharray:none;stroke-opacity:1"
             id="path314" /></g><g
           id="g316"
           transform="translate(489.6221,164.7021)"><path
             d="M 0,0 C 5.682,-5.281 13.816,-7.387 23.63,-3.096 43.954,5.791 38.445,22.65 27.379,35.771 22.592,41.445 10.699,46.727 2.216,50.523"
             style="fill:none;stroke:#0a71b3;stroke-width:3;stroke-linecap:butt;stroke-linejoin:miter;stroke-miterlimit:4;stroke-dasharray:none;stroke-opacity:1"
             id="path318" /></g><g
           id="g320"
           transform="translate(481.1084,181.7568)"><path
             d="M 0,0 C 0.477,-3.104 1.383,-6.123 2.679,-8.889"
             style="fill:none;stroke:#0a71b3;stroke-width:1;stroke-linecap:butt;stroke-linejoin:miter;stroke-miterlimit:4;stroke-dasharray:none;stroke-opacity:1"
             id="path322" /></g><g
           id="g324"
           transform="translate(567.75,211.0254)"><path
             d="M 0,0 C 0.667,-14 17.188,-40.094 33,-48 54.333,-58.667 62,-59.75 70.75,-64.25"
             style="fill:none;stroke:#0a71b3;stroke-width:1;stroke-linecap:butt;stroke-linejoin:miter;stroke-miterlimit:4;stroke-dasharray:1, 2;stroke-dashoffset:0;stroke-opacity:1"
             id="path326" /></g><g
           id="g328"><g
             id="g330" /><g
             id="g364"><g
               clip-path="url(#clipPath334)"
               opacity="0.300003"
               id="g362"><g
                 id="g356"><g
                   id="g354"><g
                     id="g352"><g
                       id="g350"><path
                         d="m 566.732,196.759 c 0,-1.613 0.073,-3.207 0.212,-4.783 2.435,-27.397 25.579,-48.88 53.767,-48.88 29.81,0 53.975,24.026 53.975,53.663 0,29.637 -24.165,53.664 -53.975,53.664 -29.81,0 -53.979,-24.027 -53.979,-53.664"
                         style="fill:url(#radialGradient346);stroke:none"
                         id="path348" /></g></g></g></g><g
                 transform="translate(566.7324,196.7588)"
                 id="g360"><path
                   d="m 0,0 c 0,-1.612 0.072,-3.207 0.212,-4.783 2.434,-27.397 25.579,-48.88 53.767,-48.88 29.81,0 53.974,24.026 53.974,53.663 0,29.638 -24.164,53.664 -53.974,53.664 C 24.169,53.664 0,29.638 0,0 Z"
                   style="fill:none;stroke:#000000;stroke-width:2;stroke-linecap:butt;stroke-linejoin:miter;stroke-miterlimit:4;stroke-dasharray:none;stroke-opacity:1"
                   id="path358" /></g></g></g></g><g
           id="g366"
           transform="translate(649,220.4414)"><path
             d="m 0,0 c 3.5,6.584 -1.034,12.598 -3.5,13.834 -4.134,2.072 -12.75,-2.75 -16.35,-12.263 -2.089,-5.522 -4.565,-11.593 -5.165,-18.066"
             style="fill:none;stroke:#0a71b3;stroke-width:2;stroke-linecap:butt;stroke-linejoin:miter;stroke-miterlimit:4;stroke-dasharray:none;stroke-opacity:1"
             id="path368" /></g><g
           id="g370"
           transform="translate(601.0439,203.5381)"><path
             d="M 0,0 C 4.109,-2.086 8.729,-3.531 13.287,-4.254 27.629,-6.52 34.878,-4.724 42.706,7.237"
             style="fill:none;stroke:#0a71b3;stroke-width:2;stroke-linecap:butt;stroke-linejoin:miter;stroke-miterlimit:4;stroke-dasharray:none;stroke-opacity:1"
             id="path372" /></g><g
           id="g374"
           transform="translate(613.5,234.2744)"><path
             d="m 0,0 c 1.667,9.834 -18.926,7.836 -24.277,-3.262 -4.062,-8.424 -2.069,-15.566 2.935,-20.972"
             style="fill:none;stroke:#0a71b3;stroke-width:2;stroke-linecap:butt;stroke-linejoin:miter;stroke-miterlimit:4;stroke-dasharray:none;stroke-opacity:1"
             id="path376" /></g><g
           id="g378"
           transform="translate(652.5,173.0254)"><path
             d="M 0,0 C 1.75,7.5 -9.75,9 -15.75,6 -27.066,0.342 -45.556,-6.517 -59.25,17.5 -68.346,33.452 -41.5,45.082 -40,54.416"
             style="fill:none;stroke:#0a71b3;stroke-width:3;stroke-linecap:butt;stroke-linejoin:miter;stroke-miterlimit:4;stroke-dasharray:none;stroke-opacity:1"
             id="path380" /></g><g
           id="g382"
           transform="translate(640.75,145.5254)"><path
             d="M 0,0 C 12.25,-6.5 12,12 12.145,19.676"
             style="fill:none;stroke:#0a71b3;stroke-width:1;stroke-linecap:butt;stroke-linejoin:miter;stroke-miterlimit:4;stroke-dasharray:none;stroke-opacity:1"
             id="path384" /></g><g
           id="g386"
           transform="translate(584.25,223.5254)"><path
             d="M 0,0 C -8,-3.25 -21.333,6.333 -16.583,-12.917"
             style="fill:none;stroke:#0a71b3;stroke-width:1;stroke-linecap:butt;stroke-linejoin:miter;stroke-miterlimit:4;stroke-dasharray:none;stroke-opacity:1"
             id="path388" /></g><g
           id="g390"
           transform="translate(627.7549,225.6416)"><path
             d="M 0,0 C -13.755,8.134 -27.755,8.634 -36.505,2.134"
             style="fill:none;stroke:#0a71b3;stroke-width:2;stroke-linecap:butt;stroke-linejoin:miter;stroke-miterlimit:4;stroke-dasharray:none;stroke-opacity:1"
             id="path392" /></g><g
           id="g394"
           transform="translate(632.8721,172.4521)"><path
             d="M 0,0 C 5.682,-5.281 13.816,-7.387 23.63,-3.096 43.954,5.791 21.378,42.073 2.216,50.523"
             style="fill:none;stroke:#0a71b3;stroke-width:3;stroke-linecap:butt;stroke-linejoin:miter;stroke-miterlimit:4;stroke-dasharray:none;stroke-opacity:1"
             id="path396" /></g><g
           id="g398"
           transform="translate(624.3584,189.5068)"><path
             d="M 0,0 C 0.477,-3.104 1.383,-6.123 2.679,-8.889"
             style="fill:none;stroke:#0a71b3;stroke-width:1;stroke-linecap:butt;stroke-linejoin:miter;stroke-miterlimit:4;stroke-dasharray:none;stroke-opacity:1"
             id="path400" /></g><g
           id="g402"><g
             id="g404" /><g
             id="g438"><g
               clip-path="url(#clipPath408)"
               opacity="0.300003"
               id="g436"><g
                 id="g430"><g
                   id="g428"><g
                     id="g426"><g
                       id="g424"><path
                         d="m 710.232,199.759 c 0,-1.613 0.073,-3.207 0.212,-4.783 2.435,-27.397 25.579,-48.88 53.767,-48.88 29.81,0 53.975,24.026 53.975,53.663 0,29.637 -24.165,53.664 -53.975,53.664 -29.81,0 -53.979,-24.027 -53.979,-53.664"
                         style="fill:url(#radialGradient420);stroke:none"
                         id="path422" /></g></g></g></g><g
                 transform="translate(710.2324,199.7588)"
                 id="g434"><path
                   d="m 0,0 c 0,-1.612 0.072,-3.207 0.212,-4.783 2.434,-27.397 25.579,-48.88 53.767,-48.88 29.81,0 53.974,24.026 53.974,53.663 0,29.638 -24.164,53.664 -53.974,53.664 C 24.169,53.664 0,29.638 0,0 Z"
                   style="fill:none;stroke:#000000;stroke-width:2;stroke-linecap:butt;stroke-linejoin:miter;stroke-miterlimit:4;stroke-dasharray:none;stroke-opacity:1"
                   id="path432" /></g></g></g></g><g
           id="g440"
           transform="translate(765.5,212.5254)"><path
             d="M 0,0 C -1.504,10.098 2.915,25.596 17.25,23.5 29.079,21.761 34.5,5.75 27.429,1.017"
             style="fill:none;stroke:#0a71b3;stroke-width:2;stroke-linecap:butt;stroke-linejoin:miter;stroke-miterlimit:4;stroke-dasharray:none;stroke-opacity:1"
             id="path442" /></g><g
           id="g444"
           transform="translate(762.8438,190.7891)"><path
             d="M 0,0 C 1.071,3.5 3.906,6.736 2.656,13.236"
             style="fill:none;stroke:#0a71b3;stroke-width:1;stroke-linecap:butt;stroke-linejoin:miter;stroke-miterlimit:4;stroke-dasharray:none;stroke-opacity:1"
             id="path446" /></g><g
           id="g448"
           transform="translate(770.3555,223.5332)"><path
             d="m 0,0 c 17.469,-9.818 40.233,-29.727 25.093,-48.312 -6.941,-8.521 -43.948,-20.196 -35.698,6.804"
             style="fill:none;stroke:#0a71b3;stroke-width:3;stroke-linecap:butt;stroke-linejoin:miter;stroke-miterlimit:4;stroke-dasharray:none;stroke-opacity:1"
             id="path450" /></g><g
           id="g452"
           transform="translate(731.8564,183.71)"><path
             d="m 0,0 c -1.263,3.283 -2.274,6.507 -3.003,9.376 -7.003,27.634 1.932,46.854 31.61,35.197"
             style="fill:none;stroke:#0a71b3;stroke-width:2;stroke-linecap:butt;stroke-linejoin:miter;stroke-miterlimit:4;stroke-dasharray:none;stroke-opacity:1"
             id="path454" /></g><g
           id="g456"
           transform="translate(760.0137,161.6885)"><path
             d="M 0,0 C -9.56,-6.007 -17.884,1.889 -23.713,12.404"
             style="fill:none;stroke:#0a71b3;stroke-width:1;stroke-linecap:butt;stroke-linejoin:miter;stroke-miterlimit:4;stroke-dasharray:none;stroke-opacity:1"
             id="path458" /></g><g
           id="g460"
           transform="translate(730.8291,203.6025)"><path
             d="m 0,0 c 7.756,3.158 16.647,-4.735 22.453,-11.694 5.828,-6.984 22.715,-10.557 15.012,-21.681 -0.314,-0.45 -0.626,-0.888 -0.939,-1.309"
             style="fill:none;stroke:#0a71b3;stroke-width:3;stroke-linecap:butt;stroke-linejoin:miter;stroke-miterlimit:4;stroke-dasharray:none;stroke-opacity:1"
             id="path462" /></g><g
           id="g464"
           transform="translate(746.5908,189.9209)"><path
             d="m 0,0 c -1.769,-4.444 -3.937,-8.438 -8.361,-10.164 -10.803,-4.213 -19.497,8.561 -14.056,17.54"
             style="fill:none;stroke:#0a71b3;stroke-width:2;stroke-linecap:butt;stroke-linejoin:miter;stroke-miterlimit:4;stroke-dasharray:none;stroke-opacity:1"
             id="path466" /></g><g
           id="g468"
           transform="translate(786,207.7754)"><path
             d="m 0,0 c -7.203,-4.155 -17.159,0.765 -24.817,-0.23 -5.688,-0.739 -8.685,-4.054 -10.791,-8.184"
             style="fill:none;stroke:#0a71b3;stroke-width:2;stroke-linecap:butt;stroke-linejoin:miter;stroke-miterlimit:4;stroke-dasharray:none;stroke-opacity:1"
             id="path470" /></g></g></g></g></svg>
