<?xml version="1.0" encoding="UTF-8" standalone="no"?>
<svg
   xmlns:dc="http://purl.org/dc/elements/1.1/"
   xmlns:cc="http://creativecommons.org/ns#"
   xmlns:rdf="http://www.w3.org/1999/02/22-rdf-syntax-ns#"
   xmlns:svg="http://www.w3.org/2000/svg"
   xmlns="http://www.w3.org/2000/svg"
   xmlns:sodipodi="http://sodipodi.sourceforge.net/DTD/sodipodi-0.dtd"
   xmlns:inkscape="http://www.inkscape.org/namespaces/inkscape"
   version="1.1"
   id="svg4585"
   xml:space="preserve"
   width="500"
   height="300"
   viewBox="0 0 500 299.99999"
   sodipodi:docname="portance.svg"
   inkscape:version="1.0.2-2 (e86c870879, 2021-01-15)"><metadata
     id="metadata4591"><rdf:RDF><cc:Work
         rdf:about=""><dc:format>image/svg+xml</dc:format><dc:type
           rdf:resource="http://purl.org/dc/dcmitype/StillImage" /><dc:title></dc:title></cc:Work></rdf:RDF></metadata><defs
     id="defs4589" /><sodipodi:namedview
     pagecolor="#ffffff"
     bordercolor="#666666"
     borderopacity="1"
     objecttolerance="10"
     gridtolerance="10"
     guidetolerance="10"
     inkscape:pageopacity="0"
     inkscape:pageshadow="2"
     inkscape:window-width="1920"
     inkscape:window-height="1001"
     id="namedview4587"
     showgrid="true"
     inkscape:zoom="1.335"
     inkscape:cx="242.99255"
     inkscape:cy="150"
     inkscape:window-x="-9"
     inkscape:window-y="-9"
     inkscape:window-maximized="1"
     inkscape:current-layer="g4593"
     inkscape:pagecheckerboard="0"
     units="px"
     inkscape:document-units="mm"
     inkscape:document-rotation="0"
     fit-margin-top="0"
     fit-margin-left="0"
     fit-margin-right="0"
     fit-margin-bottom="0"><inkscape:grid
       type="xygrid"
       id="grid4825"
       originx="-49.678244"
       originy="-57.108347" /></sodipodi:namedview><g
     id="g4593"
     inkscape:groupmode="layer"
     inkscape:label="portance"
     transform="matrix(1.3333333,0,0,-1.3333333,-49.678241,736.81872)"><g
       id="g4900"
       transform="matrix(0.69302689,0,0,0.69302689,-131.67682,158.6464)"
       inkscape:export-filename="C:\Users\o\Desktop\portance.png"
       inkscape:export-xdpi="1174"
       inkscape:export-ydpi="1174"><path
   inkscape:connector-curvature="0"
   id="path4637"
   style="fill:none;stroke:#231f20;stroke-width:2.56819;stroke-linecap:butt;stroke-linejoin:miter;stroke-miterlimit:4;stroke-dasharray:none;stroke-opacity:1"
   d="m 422.89355,500.3501 c 8.69434,-12.10938 15.46583,-27.1128 19.44043,-44.82129" /><path
   inkscape:connector-curvature="0"
   id="path4639"
   style="fill:none;stroke:#231f20;stroke-width:2.56819;stroke-linecap:butt;stroke-linejoin:miter;stroke-miterlimit:4;stroke-dasharray:none;stroke-opacity:1"
   d="m 340.85352,534.85254 c 27.15332,6.16162 53.12793,-2.55859 73.72265,-24.39307" /><path
   inkscape:connector-curvature="0"
   id="path4641"
   style="fill:none;stroke:#231f20;stroke-width:2.56819;stroke-linecap:butt;stroke-linejoin:miter;stroke-miterlimit:4;stroke-dasharray:none;stroke-opacity:1"
   d="m 289.42334,503.74951 c 12.4248,14.33643 23.69043,21.85596 38.4458,26.84961" /><path
   inkscape:connector-curvature="0"
   id="path4643"
   style="fill:none;stroke:#231f20;stroke-width:2.56819;stroke-linecap:butt;stroke-linejoin:miter;stroke-miterlimit:4;stroke-dasharray:none;stroke-opacity:1"
   d="m 263.66699,459.52881 c 5.24658,13.63232 11.58838,25.37549 18.71729,35.29639" /><path
   inkscape:connector-curvature="0"
   id="path4645"
   style="fill:none;stroke:#231f20;stroke-width:2.85165;stroke-linecap:butt;stroke-linejoin:miter;stroke-miterlimit:4;stroke-dasharray:none;stroke-opacity:1"
   d="M 439.87793,545.74805 C 398.89941,435.23633 285.08105,446.83984 261.17578,547.5542" /><path
   inkscape:connector-curvature="0"
   id="path4647"
   style="fill:none;stroke:#231f20;stroke-width:2.56819;stroke-linecap:butt;stroke-linejoin:miter;stroke-miterlimit:4;stroke-dasharray:none;stroke-opacity:1"
   d="m 347.12109,459.49121 c 3.65625,-5.48584 10.62379,-18.60078 21.44588,-24.01183"
   sodipodi:nodetypes="cc" /><path
   inkscape:connector-curvature="0"
   id="path4649"
   style="fill:none;stroke:#231f20;stroke-width:2.56819;stroke-linecap:butt;stroke-linejoin:miter;stroke-miterlimit:4;stroke-dasharray:none;stroke-opacity:1"
   d="m 355.66699,562.19531 c -24.36914,-13.96142 -31.5332,-51.79345 -17.22363,-84.45898" /><path
   inkscape:connector-curvature="0"
   id="path4651"
   style="fill:none;stroke:#231f20;stroke-width:1;stroke-linecap:butt;stroke-linejoin:miter;stroke-miterlimit:4;stroke-dasharray:none;stroke-opacity:1"
   d="m 265,456.86182 c 0,-1.84082 -1.56689,-3.33301 -3.5,-3.33301 -1.93311,0 -3.5,1.49219 -3.5,3.33301 0,1.84131 1.56689,3.33349 3.5,3.33349 1.93311,0 3.5,-1.49218 3.5,-3.33349 z" /><path
   inkscape:connector-curvature="0"
   id="path4653"
   style="fill:none;stroke:#231f20;stroke-width:1;stroke-linecap:butt;stroke-linejoin:miter;stroke-miterlimit:4;stroke-dasharray:none;stroke-opacity:1"
   d="m 446.00098,453.02881 c 0,-1.56494 -1.34278,-2.8335 -3,-2.8335 -1.65723,0 -3,1.26856 -3,2.8335 0,1.56445 1.34277,2.83301 3,2.83301 1.65722,0 3,-1.26856 3,-2.83301 z" /><path
   inkscape:connector-curvature="0"
   id="path4655"
   style="fill:none;stroke:#231f20;stroke-width:1;stroke-linecap:butt;stroke-linejoin:miter;stroke-miterlimit:4;stroke-dasharray:none;stroke-opacity:1"
   d="m 444,548.19531 c 0,-1.65674 -1.41797,-3 -3.16602,-3 -1.74902,0 -3.16699,1.34326 -3.16699,3 0,1.65674 1.41797,3 3.16699,3 1.74805,0 3.16602,-1.34326 3.16602,-3 z" /><path
   inkscape:connector-curvature="0"
   id="path4657"
   style="fill:none;stroke:#231f20;stroke-width:1;stroke-linecap:butt;stroke-linejoin:miter;stroke-miterlimit:4;stroke-dasharray:none;stroke-opacity:1"
   d="m 263.66602,550.19531 c 0,-1.65674 -1.41797,-3 -3.16602,-3 -1.74902,0 -3.16699,1.34326 -3.16699,3 0,1.65674 1.41797,3 3.16699,3 1.74805,0 3.16602,-1.34326 3.16602,-3 z" /><text
   y="-552.07629"
   x="248.299"
   id="text4661"
   style="font-variant:normal;font-weight:normal;font-size:18px;font-family:'Myriad Pro';-inkscape-font-specification:Myriad-Roman;writing-mode:lr-tb;fill:#231f20;fill-opacity:1;fill-rule:nonzero;stroke:none;stroke-width:1"
   transform="scale(1,-1)"><tspan
     style="stroke-width:1"
     id="tspan4659"
     y="-552.07629"
     x="248.299">a</tspan></text>
<text
   y="-556.48584"
   x="437.36899"
   id="text4665"
   style="font-variant:normal;font-weight:normal;font-size:18px;font-family:'Myriad Pro';-inkscape-font-specification:Myriad-Roman;writing-mode:lr-tb;fill:#231f20;fill-opacity:1;fill-rule:nonzero;stroke:none;stroke-width:1"
   transform="scale(1,-1)"><tspan
     style="stroke-width:1"
     id="tspan4663"
     sodipodi:role="line"
     y="-556.48584"
     x="437.36899 446.04498">a'</tspan></text>
<text
   y="-443.0983"
   x="248.19997"
   id="text4669"
   style="font-variant:normal;font-weight:normal;font-size:18px;font-family:'Myriad Pro';-inkscape-font-specification:Myriad-Roman;writing-mode:lr-tb;fill:#231f20;fill-opacity:1;fill-rule:nonzero;stroke:none;stroke-width:1"
   transform="scale(1,-1)"><tspan
     style="stroke-width:1"
     id="tspan4667"
     y="-443.0983"
     x="248.19997">b</tspan></text>
<text
   y="-440.4313"
   x="448.672"
   id="text4673"
   style="font-variant:normal;font-weight:normal;font-size:18px;font-family:'Myriad Pro';-inkscape-font-specification:Myriad-Roman;writing-mode:lr-tb;fill:#231f20;fill-opacity:1;fill-rule:nonzero;stroke:none;stroke-width:1"
   transform="scale(1,-1)"><tspan
     style="stroke-width:1"
     id="tspan4671"
     sodipodi:role="line"
     y="-440.4313"
     x="448.672 458.914">b'</tspan></text>
<text
   y="-451.52881"
   x="315.66699"
   id="text4677"
   style="font-variant:normal;font-weight:normal;font-size:21px;font-family:'Myriad Pro';-inkscape-font-specification:Myriad-Roman;writing-mode:lr-tb;fill:#231f20;fill-opacity:1;fill-rule:nonzero;stroke:none"
   transform="scale(1,-1)"><tspan
     id="tspan4675"
     y="-451.52881"
     x="315.66699">3</tspan></text>
<text
   id="text4681"
   style="font-variant:normal;font-weight:normal;font-size:21px;font-family:'Myriad Pro';-inkscape-font-specification:Myriad-Roman;writing-mode:lr-tb;fill:#231f20;fill-opacity:1;fill-rule:nonzero;stroke:none"
   transform="matrix(0.88536143,0,0,-1,310.80664,537.21484)"><tspan
     id="tspan4679"
     y="0"
     x="0">0</tspan></text>
<text
   id="text4685"
   style="font-variant:normal;font-weight:normal;font-size:21.7607px;font-family:'Myriad Pro';-inkscape-font-specification:Myriad-Roman;writing-mode:lr-tb;fill:#231f20;fill-opacity:1;fill-rule:nonzero;stroke:none"
   transform="matrix(1,0,0,-0.96504337,374.13965,541.95654)"><tspan
     id="tspan4683"
     y="0"
     x="0">0</tspan></text>
<path
   inkscape:connector-curvature="0"
   id="path4687"
   style="fill:none;stroke:#231f20;stroke-width:1;stroke-linecap:butt;stroke-linejoin:miter;stroke-miterlimit:4;stroke-dasharray:none;stroke-opacity:1"
   d="m 269.86816,565.34033 c 4.17041,-3.05322 6.79883,-7.5122 6.79883,-12.47851 0,-9.20459 -9.02881,-16.66651 -20.16699,-16.66651 -4.7041,0 -9.03223,1.33106 -12.4624,3.5625" /><path
   inkscape:connector-curvature="0"
   id="path4689"
   style="fill:none;stroke:#231f20;stroke-width:1;stroke-linecap:butt;stroke-linejoin:miter;stroke-miterlimit:4;stroke-dasharray:none;stroke-opacity:1"
   d="m 431.83594,562.00732 c -4.1709,-3.05322 -6.79883,-7.5122 -6.79883,-12.47851 0,-9.20459 9.02832,-16.66651 20.16699,-16.66651 4.7041,0 9.03223,1.33106 12.46289,3.5625" /></g><g
       id="g4871"
       transform="matrix(0.69302689,0,0,0.69302689,-107.42072,156.69726)"
       inkscape:export-filename="C:\Users\o\Desktop\portance.png"
       inkscape:export-xdpi="1174"
       inkscape:export-ydpi="1174"><path
   inkscape:connector-curvature="0"
   id="path4691"
   style="fill:none;stroke:#231f20;stroke-width:2.85165;stroke-linecap:butt;stroke-linejoin:miter;stroke-miterlimit:4;stroke-dasharray:none;stroke-opacity:1"
   d="m 387.89355,313.95947 c 8.69434,-12.10937 15.46583,-27.11279 19.44043,-44.8208" /><path
   inkscape:connector-curvature="0"
   id="path4693"
   style="fill:none;stroke:#231f20;stroke-width:2.85165;stroke-linecap:butt;stroke-linejoin:miter;stroke-miterlimit:4;stroke-dasharray:none;stroke-opacity:1"
   d="m 254.42383,317.35889 c 12.42383,14.33642 23.68945,21.85595 38.44531,26.84961 l 12.98438,4.25341 c 27.15332,6.16163 53.12793,-2.55859 73.72265,-24.39306" /><path
   inkscape:connector-curvature="0"
   id="path4695"
   style="fill:none;stroke:#231f20;stroke-width:2.85165;stroke-linecap:butt;stroke-linejoin:miter;stroke-miterlimit:4;stroke-dasharray:none;stroke-opacity:1"
   d="m 228.66699,273.13867 c 5.24707,13.63184 11.58887,25.375 18.71778,35.2959" /><path
   inkscape:connector-curvature="0"
   id="path4697"
   style="fill:none;stroke:#231f20;stroke-width:2.85165;stroke-linecap:butt;stroke-linejoin:miter;stroke-miterlimit:4;stroke-dasharray:none;stroke-opacity:1"
   d="M 404.87793,359.35742 C 363.89941,248.8457 250.08105,260.44922 226.17578,361.16357" /><path
   inkscape:connector-curvature="0"
   id="path4699"
   style="fill:none;stroke:#231f20;stroke-width:1;stroke-linecap:butt;stroke-linejoin:miter;stroke-miterlimit:4;stroke-dasharray:none;stroke-opacity:1"
   d="m 230,270.4707 c 0,-1.83984 -1.56641,-3.33203 -3.5,-3.33203 -1.93359,0 -3.5,1.49219 -3.5,3.33203 0,1.8418 1.56641,3.33399 3.5,3.33399 1.93359,0 3.5,-1.49219 3.5,-3.33399 z" /><path
   inkscape:connector-curvature="0"
   id="path4701"
   style="fill:none;stroke:#231f20;stroke-width:1;stroke-linecap:butt;stroke-linejoin:miter;stroke-miterlimit:4;stroke-dasharray:none;stroke-opacity:1"
   d="m 411.00098,266.63867 c 0,-1.56543 -1.34278,-2.83398 -3,-2.83398 -1.65723,0 -3,1.26855 -3,2.83398 0,1.56446 1.34277,2.83203 3,2.83203 1.65722,0 3,-1.26757 3,-2.83203 z" /><path
   inkscape:connector-curvature="0"
   id="path4703"
   style="fill:none;stroke:#231f20;stroke-width:1;stroke-linecap:butt;stroke-linejoin:miter;stroke-miterlimit:4;stroke-dasharray:none;stroke-opacity:1"
   d="m 409,361.80469 c 0,-1.65674 -1.41797,-3 -3.16602,-3 -1.74902,0 -3.16699,1.34326 -3.16699,3 0,1.65674 1.41797,3 3.16699,3 1.74805,0 3.16602,-1.34326 3.16602,-3 z" /><path
   inkscape:connector-curvature="0"
   id="path4705"
   style="fill:none;stroke:#231f20;stroke-width:1;stroke-linecap:butt;stroke-linejoin:miter;stroke-miterlimit:4;stroke-dasharray:none;stroke-opacity:1"
   d="m 228.66602,363.80469 c 0,-1.65674 -1.41797,-3 -3.16602,-3 -1.74902,0 -3.16699,1.34326 -3.16699,3 0,1.65674 1.41797,3 3.16699,3 1.74805,0 3.16602,-1.34326 3.16602,-3 z" /><text
   y="-365.6857"
   x="213.299"
   id="text4709"
   style="font-variant:normal;font-weight:normal;font-size:18px;font-family:'Myriad Pro';-inkscape-font-specification:Myriad-Roman;writing-mode:lr-tb;fill:#231f20;fill-opacity:1;fill-rule:nonzero;stroke:none;stroke-width:1"
   transform="scale(1,-1)"><tspan
     style="stroke-width:1"
     id="tspan4707"
     y="-365.6857"
     x="213.299">a</tspan></text>
<text
   y="-370.09518"
   x="402.36899"
   id="text4713"
   style="font-variant:normal;font-weight:normal;font-size:18px;font-family:'Myriad Pro';-inkscape-font-specification:Myriad-Roman;writing-mode:lr-tb;fill:#231f20;fill-opacity:1;fill-rule:nonzero;stroke:none;stroke-width:1"
   transform="scale(1,-1)"><tspan
     style="stroke-width:1"
     id="tspan4711"
     sodipodi:role="line"
     y="-370.09518"
     x="402.36899 411.04498">a'</tspan></text>
<text
   y="-256.7077"
   x="213.19997"
   id="text4717"
   style="font-variant:normal;font-weight:normal;font-size:18px;font-family:'Myriad Pro';-inkscape-font-specification:Myriad-Roman;writing-mode:lr-tb;fill:#231f20;fill-opacity:1;fill-rule:nonzero;stroke:none;stroke-width:1"
   transform="scale(1,-1)"><tspan
     style="stroke-width:1"
     id="tspan4715"
     y="-256.7077"
     x="213.19997">b</tspan></text>
<text
   y="-254.0407"
   x="413.672"
   id="text4721"
   style="font-variant:normal;font-weight:normal;font-size:18px;font-family:'Myriad Pro';-inkscape-font-specification:Myriad-Roman;writing-mode:lr-tb;fill:#231f20;fill-opacity:1;fill-rule:nonzero;stroke:none;stroke-width:1"
   transform="scale(1,-1)"><tspan
     style="stroke-width:1"
     id="tspan4719"
     sodipodi:role="line"
     y="-254.0407"
     x="413.672 423.914">b'</tspan></text>
<path
   inkscape:connector-curvature="0"
   id="path4723"
   style="fill:none;stroke:#231f20;stroke-width:1;stroke-linecap:butt;stroke-linejoin:miter;stroke-miterlimit:4;stroke-dasharray:none;stroke-opacity:1"
   d="m 234.86816,378.94971 c 4.1709,-3.05323 6.79883,-7.51221 6.79883,-12.47852 0,-9.20459 -9.02832,-16.6665 -20.16699,-16.6665 -4.7041,0 -9.03223,1.33105 -12.46289,3.5625" /><path
   inkscape:connector-curvature="0"
   id="path4725"
   style="fill:none;stroke:#231f20;stroke-width:1;stroke-linecap:butt;stroke-linejoin:miter;stroke-miterlimit:4;stroke-dasharray:none;stroke-opacity:1"
   d="m 396.83594,375.6167 c -4.1709,-3.05322 -6.79883,-7.51221 -6.79883,-12.47852 0,-9.20459 9.02832,-16.6665 20.16699,-16.6665 4.7041,0 9.03223,1.33105 12.46289,3.5625" /><text
   y="-262.13867"
   x="311.16699"
   id="text4729"
   style="font-variant:normal;font-weight:normal;font-size:21px;font-family:'Myriad Pro';-inkscape-font-specification:Myriad-Roman;writing-mode:lr-tb;fill:#231f20;fill-opacity:1;fill-rule:nonzero;stroke:none"
   transform="scale(1,-1)"><tspan
     id="tspan4727"
     y="-262.13867"
     x="311.16699">2</tspan></text>
<text
   id="text4733"
   style="font-variant:normal;font-weight:normal;font-size:21px;font-family:'Myriad Pro';-inkscape-font-specification:Myriad-Roman;writing-mode:lr-tb;fill:#231f20;fill-opacity:1;fill-rule:nonzero;stroke:none"
   transform="matrix(0.88536143,0,0,-1,307.80664,358.32422)"><tspan
     id="tspan4731"
     y="0"
     x="0">0</tspan></text>
</g><g
       id="g5007"
       inkscape:export-filename="C:\Users\o\Desktop\portance.png"
       inkscape:export-xdpi="1174"
       inkscape:export-ydpi="1174"
       transform="matrix(0.69302689,0,0,0.69302689,-119.54869,158.6464)"><text
   y="-553.95856"
   x="735.61896"
   id="text4759"
   style="font-variant:normal;font-weight:normal;font-size:18px;font-family:'Myriad Pro';-inkscape-font-specification:Myriad-Roman;writing-mode:lr-tb;fill:#231f20;fill-opacity:1;fill-rule:nonzero;stroke:none;stroke-width:1"
   transform="scale(1,-1)"><tspan
     style="stroke-width:1"
     id="tspan4757"
     sodipodi:role="line"
     y="-553.95856"
     x="735.61896 744.29498">a'</tspan></text>
<g
   transform="translate(-9.7500004,1.5990283)"
   id="g4925"><path
   d="m 653,475.19531 c 16,0.5 85.85938,-1.95801 89.83398,-19.6665"
   style="fill:none;stroke:#231f20;stroke-width:2.85165;stroke-linecap:butt;stroke-linejoin:miter;stroke-miterlimit:4;stroke-dasharray:none;stroke-opacity:1"
   id="path4735"
   inkscape:connector-curvature="0" /><path
   d="m 564.16699,459.52881 c 5.24707,13.63232 51.33301,15.1665 68.33301,15.6665"
   style="fill:none;stroke:#231f20;stroke-width:2.85165;stroke-linecap:butt;stroke-linejoin:miter;stroke-miterlimit:4;stroke-dasharray:none;stroke-opacity:1"
   id="path4737"
   inkscape:connector-curvature="0" /><path
   d="M 740.37793,545.74805 C 706,532.19531 626.5,497.19531 561.67578,547.5542"
   style="fill:none;stroke:#231f20;stroke-width:2.85165;stroke-linecap:butt;stroke-linejoin:miter;stroke-miterlimit:4;stroke-dasharray:none;stroke-opacity:1"
   id="path4739"
   inkscape:connector-curvature="0" /><path
   d="m 636.5,509.69531 c -3.5,-26 17.17285,-57.74951 22.33398,-62.1665"
   style="fill:none;stroke:#231f20;stroke-width:2.85165;stroke-linecap:butt;stroke-linejoin:miter;stroke-miterlimit:4;stroke-dasharray:none;stroke-opacity:1"
   id="path4741"
   inkscape:connector-curvature="0" /><path
   d="m 656.16699,562.19531 c -6.16699,-2 -17.66699,-17 -18.66699,-33"
   style="fill:none;stroke:#231f20;stroke-width:2.85165;stroke-linecap:butt;stroke-linejoin:miter;stroke-miterlimit:4;stroke-dasharray:none;stroke-opacity:1"
   id="path4743"
   inkscape:connector-curvature="0" /><path
   d="m 565.5,456.86182 c 0,-1.84082 -1.56641,-3.33301 -3.5,-3.33301 -1.93359,0 -3.5,1.49219 -3.5,3.33301 0,1.84131 1.56641,3.33349 3.5,3.33349 1.93359,0 3.5,-1.49218 3.5,-3.33349 z"
   style="fill:none;stroke:#231f20;stroke-width:1;stroke-linecap:butt;stroke-linejoin:miter;stroke-miterlimit:4;stroke-dasharray:none;stroke-opacity:1"
   id="path4745"
   inkscape:connector-curvature="0" /><path
   d="m 746.50098,453.02881 c 0,-1.56494 -1.34278,-2.8335 -3,-2.8335 -1.65723,0 -3,1.26856 -3,2.8335 0,1.56445 1.34277,2.83301 3,2.83301 1.65722,0 3,-1.26856 3,-2.83301 z"
   style="fill:none;stroke:#231f20;stroke-width:1;stroke-linecap:butt;stroke-linejoin:miter;stroke-miterlimit:4;stroke-dasharray:none;stroke-opacity:1"
   id="path4747"
   inkscape:connector-curvature="0" /><path
   d="m 746,546.69531 c 0,-1.65674 -1.41797,-3 -3.16602,-3 -1.74902,0 -3.16699,1.34326 -3.16699,3 0,1.65674 1.41797,3 3.16699,3 1.74805,0 3.16602,-1.34326 3.16602,-3 z"
   style="fill:none;stroke:#231f20;stroke-width:1;stroke-linecap:butt;stroke-linejoin:miter;stroke-miterlimit:4;stroke-dasharray:none;stroke-opacity:1"
   id="path4749"
   inkscape:connector-curvature="0" /><path
   d="m 562.66602,550.19531 c 0,-1.65674 -1.41797,-3 -3.16602,-3 -1.74902,0 -3.16699,1.34326 -3.16699,3 0,1.65674 1.41797,3 3.16699,3 1.74805,0 3.16602,-1.34326 3.16602,-3 z"
   style="fill:none;stroke:#231f20;stroke-width:1;stroke-linecap:butt;stroke-linejoin:miter;stroke-miterlimit:4;stroke-dasharray:none;stroke-opacity:1"
   id="path4751"
   inkscape:connector-curvature="0" /><text
   transform="scale(1,-1)"
   style="font-variant:normal;font-weight:normal;font-size:18px;font-family:'Myriad Pro';-inkscape-font-specification:Myriad-Roman;writing-mode:lr-tb;fill:#231f20;fill-opacity:1;fill-rule:nonzero;stroke:none;stroke-width:1"
   id="text4755"
   x="547.29901"
   y="-553.57629"><tspan
     x="547.29901"
     y="-553.57629"
     id="tspan4753"
     style="stroke-width:1">a</tspan></text>
<text
   transform="scale(1,-1)"
   style="font-variant:normal;font-weight:normal;font-size:18px;font-family:'Myriad Pro';-inkscape-font-specification:Myriad-Roman;writing-mode:lr-tb;fill:#231f20;fill-opacity:1;fill-rule:nonzero;stroke:none;stroke-width:1"
   id="text4763"
   x="548.69995"
   y="-443.0983"><tspan
     x="548.69995"
     y="-443.0983"
     id="tspan4761"
     style="stroke-width:1">b</tspan></text>
<text
   transform="scale(1,-1)"
   style="font-variant:normal;font-weight:normal;font-size:18px;font-family:'Myriad Pro';-inkscape-font-specification:Myriad-Roman;writing-mode:lr-tb;fill:#231f20;fill-opacity:1;fill-rule:nonzero;stroke:none;stroke-width:1"
   id="text4767"
   x="749.172"
   y="-440.4313"><tspan
     x="749.172 759.414"
     y="-440.4313"
     sodipodi:role="line"
     id="tspan4765"
     style="stroke-width:1">b'</tspan></text>
<text
   transform="scale(1.0179503,-0.98236621)"
   style="font-variant:normal;font-weight:normal;font-size:21.377px;font-family:'Myriad Pro';-inkscape-font-specification:Myriad-Roman;writing-mode:lr-tb;fill:#231f20;fill-opacity:1;fill-rule:nonzero;stroke:none;stroke-width:0.982366"
   id="text4771"
   x="645.48016"
   y="-538.48724"><tspan
     x="645.48016"
     y="-538.48724"
     id="tspan4769"
     style="stroke-width:0.982366">1</tspan></text>
<path
   d="m 570.36816,565.34033 c 4.1709,-3.05322 6.79883,-7.5122 6.79883,-12.47851 0,-9.20459 -9.02832,-16.66651 -20.16699,-16.66651 -4.7041,0 -9.03223,1.33106 -12.46289,3.5625"
   style="fill:none;stroke:#231f20;stroke-width:1;stroke-linecap:butt;stroke-linejoin:miter;stroke-miterlimit:4;stroke-dasharray:none;stroke-opacity:1"
   id="path4773"
   inkscape:connector-curvature="0" /><path
   d="m 732.33594,562.00732 c -4.1709,-3.05322 -6.79883,-7.5122 -6.79883,-12.47851 0,-9.20459 9.02832,-16.66651 20.16699,-16.66651 4.7041,0 9.03223,1.33106 12.46289,3.5625"
   style="fill:none;stroke:#231f20;stroke-width:1;stroke-linecap:butt;stroke-linejoin:miter;stroke-miterlimit:4;stroke-dasharray:none;stroke-opacity:1"
   id="path4775"
   inkscape:connector-curvature="0" /><text
   transform="scale(1.0179502,-0.98236633)"
   style="font-variant:normal;font-weight:normal;font-size:24.4308px;font-family:'Myriad Pro';-inkscape-font-specification:Myriad-Roman;writing-mode:lr-tb;fill:#231f20;fill-opacity:1;fill-rule:nonzero;stroke:none;stroke-width:0.982366"
   id="text4779"
   x="586.8042"
   y="-463.66922"><tspan
     x="586.8042"
     y="-463.66922"
     id="tspan4777"
     style="stroke-width:0.982366">x</tspan></text>
<text
   transform="scale(1.0179501,-0.98236641)"
   style="font-variant:normal;font-weight:normal;font-size:24.4308px;font-family:'Myriad Pro';-inkscape-font-specification:Myriad-Roman;writing-mode:lr-tb;fill:#231f20;fill-opacity:1;fill-rule:nonzero;stroke:none;stroke-width:0.982366"
   id="text4783"
   x="679.79315"
   y="-462.2326"><tspan
     x="679.79315"
     y="-462.2326"
     id="tspan4781"
     style="stroke-width:0.982366">y</tspan></text>
</g></g><g
       id="g4847"
       transform="matrix(0.69302689,0,0,0.69302689,-112.79168,160.59537)"
       inkscape:export-filename="C:\Users\o\Desktop\portance.png"
       inkscape:export-xdpi="1174"
       inkscape:export-ydpi="1174"><path
   inkscape:connector-curvature="0"
   id="path4785"
   style="fill:none;stroke:#231f20;stroke-width:2.56819;stroke-linecap:butt;stroke-linejoin:miter;stroke-miterlimit:4;stroke-dasharray:none;stroke-opacity:1"
   d="M 544.66699,267.51367 C 560.93248,307.14891 699.39545,310.30912 720.5,261.17969"
   sodipodi:nodetypes="cc" /><path
   inkscape:connector-curvature="0"
   id="path4787"
   style="fill:none;stroke:#231f20;stroke-width:2.85165;stroke-linecap:butt;stroke-linejoin:miter;stroke-miterlimit:4;stroke-dasharray:none;stroke-opacity:1"
   d="M 720.87793,353.73291 C 671.03378,309.57725 583.90049,304.76926 542.17578,355.53906"
   sodipodi:nodetypes="cc" /><path
   inkscape:connector-curvature="0"
   id="path4789"
   style="fill:none;stroke:#231f20;stroke-width:1;stroke-linecap:butt;stroke-linejoin:miter;stroke-miterlimit:4;stroke-dasharray:none;stroke-opacity:1"
   d="m 546,264.8457 c 0,-1.83984 -1.56641,-3.33203 -3.5,-3.33203 -1.93359,0 -3.5,1.49219 -3.5,3.33203 0,1.8418 1.56641,3.33399 3.5,3.33399 1.93359,0 3.5,-1.49219 3.5,-3.33399 z" /><path
   inkscape:connector-curvature="0"
   id="path4791"
   style="fill:none;stroke:#231f20;stroke-width:1;stroke-linecap:butt;stroke-linejoin:miter;stroke-miterlimit:4;stroke-dasharray:none;stroke-opacity:1"
   d="m 725.50098,259.51367 c 0,-1.56543 -1.34278,-2.83398 -3,-2.83398 -1.65723,0 -3,1.26855 -3,2.83398 0,1.56446 1.34277,2.83203 3,2.83203 1.65722,0 3,-1.26757 3,-2.83203 z" /><path
   inkscape:connector-curvature="0"
   id="path4793"
   style="fill:none;stroke:#231f20;stroke-width:1;stroke-linecap:butt;stroke-linejoin:miter;stroke-miterlimit:4;stroke-dasharray:none;stroke-opacity:1"
   d="m 726.5,354.68018 c 0,-1.65674 -1.41797,-3 -3.16602,-3 -1.74902,0 -3.16699,1.34326 -3.16699,3 0,1.65673 1.41797,3 3.16699,3 1.74805,0 3.16602,-1.34327 3.16602,-3 z" /><path
   inkscape:connector-curvature="0"
   id="path4795"
   style="fill:none;stroke:#231f20;stroke-width:1;stroke-linecap:butt;stroke-linejoin:miter;stroke-miterlimit:4;stroke-dasharray:none;stroke-opacity:1"
   d="m 543.16602,356.68018 c 0,-1.65674 -1.41797,-3 -3.16602,-3 -1.74902,0 -3.16699,1.34326 -3.16699,3 0,1.65673 1.41797,3 3.16699,3 1.74805,0 3.16602,-1.34327 3.16602,-3 z" /><text
   y="-363.06119"
   x="527.79901"
   id="text4799"
   style="font-variant:normal;font-weight:normal;font-size:18px;font-family:'Myriad Pro';-inkscape-font-specification:Myriad-Roman;writing-mode:lr-tb;fill:#231f20;fill-opacity:1;fill-rule:nonzero;stroke:none;stroke-width:1"
   transform="scale(1,-1)"><tspan
     style="stroke-width:1"
     id="tspan4797"
     y="-363.06119"
     x="527.79901">a</tspan></text>
<text
   y="-364.47067"
   x="718.36896"
   id="text4803"
   style="font-variant:normal;font-weight:normal;font-size:18px;font-family:'Myriad Pro';-inkscape-font-specification:Myriad-Roman;writing-mode:lr-tb;fill:#231f20;fill-opacity:1;fill-rule:nonzero;stroke:none;stroke-width:1"
   transform="scale(1,-1)"><tspan
     style="stroke-width:1"
     id="tspan4801"
     sodipodi:role="line"
     y="-364.47067"
     x="718.36896 727.04498">a'</tspan></text>
<text
   y="-251.08269"
   x="529.19995"
   id="text4807"
   style="font-variant:normal;font-weight:normal;font-size:18px;font-family:'Myriad Pro';-inkscape-font-specification:Myriad-Roman;writing-mode:lr-tb;fill:#231f20;fill-opacity:1;fill-rule:nonzero;stroke:none;stroke-width:1"
   transform="scale(1,-1)"><tspan
     style="stroke-width:1"
     id="tspan4805"
     y="-251.08269"
     x="529.19995">b</tspan></text>
<text
   y="-248.4157"
   x="729.672"
   id="text4811"
   style="font-variant:normal;font-weight:normal;font-size:18px;font-family:'Myriad Pro';-inkscape-font-specification:Myriad-Roman;writing-mode:lr-tb;fill:#231f20;fill-opacity:1;fill-rule:nonzero;stroke:none;stroke-width:1"
   transform="scale(1,-1)"><tspan
     style="stroke-width:1"
     id="tspan4809"
     sodipodi:role="line"
     y="-248.4157"
     x="729.672 739.914">b'</tspan></text>
<path
   inkscape:connector-curvature="0"
   id="path4813"
   style="fill:none;stroke:#231f20;stroke-width:1;stroke-linecap:butt;stroke-linejoin:miter;stroke-miterlimit:4;stroke-dasharray:none;stroke-opacity:1"
   d="m 550.86816,373.3252 c 4.1709,-3.05323 6.79883,-7.51221 6.79883,-12.47852 0,-9.20459 -9.02832,-16.6665 -20.16699,-16.6665 -4.7041,0 -9.03223,1.33105 -12.46289,3.5625" /><path
   inkscape:connector-curvature="0"
   id="path4815"
   style="fill:none;stroke:#231f20;stroke-width:1;stroke-linecap:butt;stroke-linejoin:miter;stroke-miterlimit:4;stroke-dasharray:none;stroke-opacity:1"
   d="m 712.83594,369.99219 c -4.1709,-3.05323 -6.79883,-7.51221 -6.79883,-12.47852 0,-9.20459 9.02832,-16.6665 20.16699,-16.6665 4.7041,0 9.03223,1.33105 12.46289,3.5625" /><text
   id="text4819"
   style="font-variant:normal;font-weight:normal;font-size:21px;font-family:'Myriad Pro';-inkscape-font-specification:Myriad-Roman;writing-mode:lr-tb;fill:#231f20;fill-opacity:1;fill-rule:nonzero;stroke:none"
   transform="matrix(0.88536143,0,0,-1,623.80664,352.69971)"><tspan
     id="tspan4817"
     y="0"
     x="0">0</tspan></text>
<text
   y="-272.2157"
   x="608.67175"
   id="text4823"
   style="font-variant:normal;font-weight:normal;font-size:24.4308px;font-family:'Myriad Pro';-inkscape-font-specification:Myriad-Roman;writing-mode:lr-tb;fill:#231f20;fill-opacity:1;fill-rule:nonzero;stroke:none;stroke-width:0.982366"
   transform="scale(1.0179501,-0.98236639)"><tspan
     style="stroke-width:0.982366"
     id="tspan4821"
     y="-272.2157"
     x="608.67175">x</tspan></text>
</g></g></svg>
