<!--?xml version="1.0" encoding="UTF-8" standalone="no"?-->
<svg xmlns:dc="http://purl.org/dc/elements/1.1/" xmlns:cc="http://creativecommons.org/ns#" xmlns:rdf="http://www.w3.org/1999/02/22-rdf-syntax-ns#" xmlns:svg="http://www.w3.org/2000/svg" xmlns="http://www.w3.org/2000/svg" 
xmlns:sodipodi="http://sodipodi.sourceforge.net/DTD/sodipodi-0.dtd" xmlns:inkscape="http://www.inkscape.org/namespaces/inkscape" 
width="100%" height="100%" 
viewBox="0 0 98.805031 96.63475" version="1.1" id="svg26271" 
inkscape:version="1.0.2-2 (e86c870879, 2021-01-15)" sodipodi:docname="animation2.svg">
    
    <g inkscape:label="Calque 1" inkscape:groupmode="layer" id="layer1">
      <path inkscape:connector-curvature="0" id="path1426" 
      style="fill: none; stroke: rgb(231, 81, 31); stroke-width: 1.70156; stroke-linecap: butt; stroke-linejoin: miter; stroke-miterlimit: 4; stroke-opacity: 1;" d="m 69.55012,42.458828 c 1.95379,-2.83131 -0.76158,-7.84539 -3.79919,-9.02547 -3.03761,-1.18007 -14.16818,5.11413 -17.73018,9.24462 -3.37949,3.91254 -5.13094,7.04783 -6.07888,10.68203" sodipodi:nodetypes="czcc" 
      class="svg-elem-1"></path>
      <path inkscape:connector-curvature="0" id="path1430" 
      style="opacity: 1; fill: none; stroke: rgb(231, 81, 31); stroke-width: 2.55234; stroke-linecap: butt; stroke-linejoin: miter; stroke-miterlimit: 4; stroke-opacity: 1;" d="m 40.58792,12.885244 c -5.61069,-5.3688754 -18.32668,3.968622 -22.279929,9.243994 -9.7774204,13.04532 5.161149,29.32833 18.367959,34.16255 11.60372,4.24209 20.43189,-0.37287 28.92658,-9.075" sodipodi:nodetypes="cccc" 
      class="svg-elem-2"></path>
      <path inkscape:connector-curvature="0" id="path1434" 
      style="fill: none; stroke: rgb(231, 81, 31); stroke-width: 1.70156; stroke-linecap: butt; stroke-linejoin: miter; stroke-miterlimit: 4; stroke-opacity: 1;" d="m 24.12046,43.172928 c 5.8071,-2.89502 13.54071,-8.05614 16.02873,-9.40584 6.30996,-3.42413 9.69864,-6.05 9.7144,-11.25053 0.005,-1.62804 -1.93119,-3.47234 -3.81256,-5.501378" sodipodi:nodetypes="cccc" 
      class="svg-elem-3"></path>
      <path inkscape:connector-curvature="0" id="path1438" 
      style="fill: none; stroke: rgb(231, 81, 31); stroke-width: 1.70156; stroke-linecap: butt; stroke-linejoin: miter; stroke-miterlimit: 4; stroke-opacity: 1;" d="m 71.29199,60.797388 c -4.36681,2.77686 -8.92927,5.15196 -12.4965,7.40496 -13.21863,8.35682 -41.912815,19.89226 -49.0761884,-7.46929 -1.416659,-5.41191 0.8130894,-10.54673 6.3010214,-13.72148" sodipodi:nodetypes="cccc" 
      class="svg-elem-4"></path>
      <path inkscape:connector-curvature="0" id="path1442" 
      style="fill: none; stroke: rgb(231, 81, 31); stroke-width: 1.70156; stroke-linecap: butt; stroke-linejoin: miter; stroke-miterlimit: 4; stroke-opacity: 1;" d="m 44.52033,27.941338 c -5.86737,-4.2912 -2.69632,-14.124673 2.3256,-16.48979 13.50534,-6.3604534 32.37765,9.66506 38.17056,23.42339 2.78171,6.60665 1.9287,18.02481 -4.76363,20.97093" sodipodi:nodetypes="caac" 
      class="svg-elem-5"></path>
      <path inkscape:connector-curvature="0" id="path1454-4" 
      style="fill: none; stroke: rgb(231, 81, 31); stroke-width: 0.850782; stroke-linecap: butt; stroke-linejoin: miter; stroke-miterlimit: 4; stroke-opacity: 1;" d="m 53.26387,35.140508 c -1.64998,-1.96023 -3.42208,-2.23668 -4.74584,-3.78006" sodipodi:nodetypes="cc" 
      class="svg-elem-6"></path>
      <path inkscape:connector-curvature="0" id="path1450" 
      style="fill: none; stroke: rgb(231, 81, 31); stroke-width: 2.55234; stroke-linecap: butt; stroke-linejoin: miter; stroke-miterlimit: 4; stroke-opacity: 1;" d="m 45.01537,78.943578 c 2.32309,6.46261 11.89461,7.33879 19.35732,5.68449 18.42442,-4.08979 16.58762,-19.06643 9.49778,-31.83472 -2.74273,-4.94189 -8.35683,-9.6028 -14.13506,-13.79763" sodipodi:nodetypes="cccc" class="svg-elem-7"></path>
      <path inkscape:connector-curvature="0" id="path1454" 
      style="fill: none; stroke: rgb(231, 81, 31); stroke-width: 0.850782; stroke-linecap: butt; stroke-linejoin: miter; stroke-miterlimit: 4; stroke-opacity: 1;" d="m 40.83992,62.535458 c -0.12736,3.08276 0.24157,6.16554 1.09761,9.01854" 
      class="svg-elem-8"></path>
    </g>
  </svg>
  