<?xml version="1.0" encoding="UTF-8" standalone="no"?>
<svg
   xmlns:dc="http://purl.org/dc/elements/1.1/"
   xmlns:cc="http://creativecommons.org/ns#"
   xmlns:rdf="http://www.w3.org/1999/02/22-rdf-syntax-ns#"
   xmlns:svg="http://www.w3.org/2000/svg"
   xmlns="http://www.w3.org/2000/svg"
   xmlns:sodipodi="http://sodipodi.sourceforge.net/DTD/sodipodi-0.dtd"
   xmlns:inkscape="http://www.inkscape.org/namespaces/inkscape"
   width="100%"
   height="100%"
   viewBox="0 0 78.492723 79.360109"
   version="1.1"
   id="svg25629"
   inkscape:version="1.0.2-2 (e86c870879, 2021-01-15)"
   sodipodi:docname="animation3.svg">
  <metadata
     id="metadata28709">
    <rdf:RDF>
      <cc:Work
         rdf:about="">
        <dc:format>image/svg+xml</dc:format>
        <dc:type
           rdf:resource="http://purl.org/dc/dcmitype/StillImage" />
        <dc:title></dc:title>
      </cc:Work>
    </rdf:RDF>
  </metadata>
  <sodipodi:namedview
     pagecolor="#ffffff"
     bordercolor="#666666"
     borderopacity="1"
     objecttolerance="10"
     gridtolerance="10"
     guidetolerance="10"
     inkscape:pageopacity="0"
     inkscape:pageshadow="2"
     inkscape:window-width="1920"
     inkscape:window-height="1001"
     id="namedview28707"
     showgrid="false"
     inkscape:zoom="3.9204455"
     inkscape:cx="88.347924"
     inkscape:cy="39.680054"
     inkscape:window-x="-9"
     inkscape:window-y="-9"
     inkscape:window-maximized="1"
     inkscape:current-layer="layer1" />
  <defs
     id="defs25623" />
  <g
     inkscape:label="Calque 1"
     inkscape:groupmode="layer"
     id="layer1">
    <path
       inkscape:connector-curvature="0"
       id="path54"
       style="fill:none;stroke:#d40000;stroke-width:0.828376;stroke-linecap:butt;stroke-linejoin:miter;stroke-miterlimit:4;stroke-dasharray:none;stroke-opacity:1"
       d="m 33.078177,45.278865 c 3.333542,0.18976 6.663266,0.137049 9.815853,-0.102515" />
    <path
       inkscape:connector-curvature="0"
       id="path58"
       style="fill:none;stroke:#d40000;stroke-width:1.65675;stroke-linecap:butt;stroke-linejoin:miter;stroke-miterlimit:4;stroke-dasharray:none;stroke-opacity:1"
       d="M 32.991644,7.2740766 C 29.242688,4.8695363 24.787761,3.6191535 19.866453,4.365508 7.9938854,6.1737572 0.9610807,18.741638 4.2691353,29.5526 7.019053,38.538663 16.424597,42.988689 26.8776,44.627645" />
    <path
       inkscape:connector-curvature="0"
       id="path62"
       style="fill:none;stroke:#d40000;stroke-width:0.828376;stroke-linecap:butt;stroke-linejoin:miter;stroke-miterlimit:4;stroke-dasharray:none;stroke-opacity:1"
       d="M 45.463899,27.270895 C 45.030635,25.35108 44.50945,23.492809 43.910532,21.712806 42.812095,18.445147 41.019169,15.167236 38.66301,12.340752" />
    <path
       inkscape:connector-curvature="0"
       id="path66"
       style="fill:none;stroke:#d40000;stroke-width:2.48513;stroke-linecap:butt;stroke-linejoin:miter;stroke-miterlimit:4;stroke-dasharray:none;stroke-opacity:1"
       d="M 9.9710749,41.497871 C 0.91979369,55.888106 9.1861122,80.037696 29.217963,73.8153 41.00515,70.153943 44.593556,60.906287 46.225921,50.805799 47.145964,45.123312 47.2084,39.340819 46.577637,33.8494" />
    <path
       inkscape:connector-curvature="0"
       id="path70"
       style="fill:none;stroke:#d40000;stroke-width:2.48513;stroke-linecap:butt;stroke-linejoin:miter;stroke-miterlimit:4;stroke-dasharray:none;stroke-opacity:1"
       d="M 62.267333,36.329372 C 51.274023,28.152554 36.204261,29.061804 23.052312,32.240981 19.87168,33.011728 17.170184,34.331363 14.927428,36.045968" />
    <path
       inkscape:connector-curvature="0"
       id="path74"
       style="fill:none;stroke:#d40000;stroke-width:0.828376;stroke-linecap:butt;stroke-linejoin:miter;stroke-miterlimit:4;stroke-dasharray:none;stroke-opacity:1"
       d="m 42.395786,69.720366 c 14.627579,10.909659 39.393415,-3.698583 28.652425,-23.1339 -1.295953,-2.348157 -2.749925,-4.398769 -4.335137,-6.1775" />
    <path
       inkscape:connector-curvature="0"
       id="path78"
       style="fill:none;stroke:#d40000;stroke-width:1.65675;stroke-linecap:butt;stroke-linejoin:miter;stroke-miterlimit:4;stroke-dasharray:none;stroke-opacity:1"
       d="m 29.048733,33.074436 c 1.055113,9.032195 2.828927,19.144242 6.435176,27.553172 0.507162,1.183676 1.072946,2.278906 1.68843,3.283036" />
    <path
       inkscape:connector-curvature="0"
       id="path82"
       style="fill:none;stroke:#d40000;stroke-width:2.48513;stroke-linecap:butt;stroke-linejoin:miter;stroke-miterlimit:4;stroke-dasharray:none;stroke-opacity:1"
       d="M 51.719005,45.20616 C 84.473373,39.112016 66.135056,-5.9374267 40.509074,6.4085948 31.462879,10.767594 28.781773,18.882868 28.710411,27.190483" />
  </g>
</svg>
