<?xml version="1.0" encoding="UTF-8" standalone="no"?>
<svg
   xmlns:dc="http://purl.org/dc/elements/1.1/"
   xmlns:cc="http://creativecommons.org/ns#"
   xmlns:rdf="http://www.w3.org/1999/02/22-rdf-syntax-ns#"
   xmlns:svg="http://www.w3.org/2000/svg"
   xmlns="http://www.w3.org/2000/svg"
   xmlns:sodipodi="http://sodipodi.sourceforge.net/DTD/sodipodi-0.dtd"
   xmlns:inkscape="http://www.inkscape.org/namespaces/inkscape"
   version="1.1"
   id="svg2"
   xml:space="preserve"
   width="352.03625"
   height="957.5191"
   viewBox="0 0 352.03625 957.51907"
   sodipodi:docname="boro 3-4-5-6.svg"
   inkscape:version="1.0.2-2 (e86c870879, 2021-01-15)"><metadata
     id="metadata8"><rdf:RDF><cc:Work
         rdf:about=""><dc:format>image/svg+xml</dc:format><dc:type
           rdf:resource="http://purl.org/dc/dcmitype/StillImage" /><dc:title></dc:title></cc:Work></rdf:RDF></metadata><defs
     id="defs6"><clipPath
       clipPathUnits="userSpaceOnUse"
       id="clipPath18"><path
         d="m 0,-841.89014 c 0,0 595.28027,0 595.28027,0 0,0 0,841.89014 0,841.89014 C 595.28027,0 0,0 0,0 0,0 0,-841.89014 0,-841.89014 Z"
         id="path16"
         inkscape:connector-curvature="0" /></clipPath><clipPath
       clipPathUnits="userSpaceOnUse"
       id="clipPath282"><path
         d="m 0,-841.89014 c 0,0 595.28027,0 595.28027,0 0,0 0,841.89014 0,841.89014 C 595.28027,0 0,0 0,0 0,0 0,-841.89014 0,-841.89014 Z"
         id="path280"
         inkscape:connector-curvature="0" /></clipPath></defs><sodipodi:namedview
     pagecolor="#ffffff"
     bordercolor="#666666"
     borderopacity="1"
     objecttolerance="10"
     gridtolerance="10"
     guidetolerance="10"
     inkscape:pageopacity="0"
     inkscape:pageshadow="2"
     inkscape:window-width="1920"
     inkscape:window-height="1001"
     id="namedview4"
     showgrid="false"
     inkscape:zoom="0.73817649"
     inkscape:cx="148.27791"
     inkscape:cy="479.70314"
     inkscape:window-x="-9"
     inkscape:window-y="-9"
     inkscape:window-maximized="1"
     inkscape:current-layer="g10"
     inkscape:document-rotation="0"
     fit-margin-top="10"
     lock-margins="true"
     fit-margin-left="10"
     fit-margin-right="10"
     fit-margin-bottom="10" /><g
     id="g10"
     inkscape:groupmode="layer"
     inkscape:label="boro5fini - copie"
     transform="matrix(1.3333333,0,0,-1.3333333,-32.851835,1098.7942)"><g
       id="g6773"
       transform="translate(-149.35453,-108.71384)"
       style="stroke-width:1.37475;stroke-miterlimit:10;stroke-dasharray:none"><path
         d="m 293.34521,779.41309 c 0.24805,-1.67383 0.37598,-3.38477 0.37598,-5.12403 0,-14.60986 -9.04785,-27.19385 -22.06592,-32.88476"
         style="fill:none;stroke:#00adef;stroke-width:1.37475;stroke-linecap:butt;stroke-linejoin:miter;stroke-miterlimit:10;stroke-dasharray:none;stroke-opacity:1"
         id="path20"
         inkscape:connector-curvature="0" /><path
         d="m 261.18994,738.49902 c -1.68701,-0.22119 -3.40723,-0.33496 -5.15625,-0.33496 -20.81396,0 -37.68799,16.17383 -37.68799,36.125 0,19.95117 16.87403,36.125 37.68799,36.125 15.47315,0 28.76904,-8.93896 34.57422,-21.7251"
         style="fill:none;stroke:#00adef;stroke-width:1.37475;stroke-linecap:butt;stroke-linejoin:miter;stroke-miterlimit:10;stroke-dasharray:none;stroke-opacity:1"
         id="path22"
         inkscape:connector-curvature="0" /><path
         d="m 265.37842,755.07227 c 0.91699,6.46679 3.61914,12.39111 7.61572,17.29785"
         style="fill:none;stroke:#ed1c24;stroke-width:1.37475;stroke-linecap:butt;stroke-linejoin:miter;stroke-miterlimit:10;stroke-dasharray:none;stroke-opacity:1"
         id="path24"
         inkscape:connector-curvature="0" /><path
         d="m 270.7085,731.09131 c -2.83301,4.35986 -4.7251,9.34082 -5.39893,14.68115"
         style="fill:none;stroke:#ed1c24;stroke-width:1.37475;stroke-linecap:butt;stroke-linejoin:miter;stroke-miterlimit:10;stroke-dasharray:none;stroke-opacity:1"
         id="path26"
         inkscape:connector-curvature="0" /><path
         d="m 302.7207,714.03809 c -10.04101,0 -19.16504,3.76416 -25.91894,9.90087"
         style="fill:none;stroke:#ed1c24;stroke-width:1.37475;stroke-linecap:butt;stroke-linejoin:miter;stroke-miterlimit:10;stroke-dasharray:none;stroke-opacity:1"
         id="path28"
         inkscape:connector-curvature="0" /><path
         d="m 278.8501,778.11865 c 6.5,5.10596 14.81201,8.16992 23.8706,8.16992 20.81446,0 37.6875,-16.17382 37.6875,-36.125 0,-16.1958 -11.11914,-29.90283 -26.43945,-34.48877"
         style="fill:none;stroke:#ed1c24;stroke-width:1.37475;stroke-linecap:butt;stroke-linejoin:miter;stroke-miterlimit:10;stroke-dasharray:none;stroke-opacity:1"
         id="path30"
         inkscape:connector-curvature="0" /><path
         d="m 289.73975,710.73633 c -6.19092,-11.8291 -18.95899,-19.94824 -33.70606,-19.94824 -20.81396,0 -37.68799,16.17431 -37.68799,36.125 0,7.33935 2.28418,14.16601 6.20606,19.86621"
         style="fill:none;stroke:#27963c;stroke-width:1.37475;stroke-linecap:butt;stroke-linejoin:miter;stroke-miterlimit:10;stroke-dasharray:none;stroke-opacity:1"
         id="path32"
         inkscape:connector-curvature="0" /><path
         d="m 287.92822,746.16504 c 3.66992,-5.57324 5.79297,-12.17383 5.79297,-19.25098 0,-2.03711 -0.17578,-4.03515 -0.51514,-5.979"
         style="fill:none;stroke:#27963c;stroke-width:1.37475;stroke-linecap:butt;stroke-linejoin:miter;stroke-miterlimit:10;stroke-dasharray:none;stroke-opacity:1"
         id="path34"
         inkscape:connector-curvature="0" /><path
         d="m 271.38428,759.9165 c 4.03711,-1.72802 7.69824,-4.11621 10.83496,-7.02197"
         style="fill:none;stroke:#27963c;stroke-width:1.37475;stroke-linecap:butt;stroke-linejoin:miter;stroke-miterlimit:10;stroke-dasharray:none;stroke-opacity:1"
         id="path36"
         inkscape:connector-curvature="0" /><path
         d="m 230.87256,753.80811 c 6.67187,5.73877 15.49121,9.23095 25.16113,9.23095 2.53467,0 5.01172,-0.23974 7.40674,-0.69775"
         style="fill:none;stroke:#27963c;stroke-width:1.37475;stroke-linecap:butt;stroke-linejoin:miter;stroke-miterlimit:10;stroke-dasharray:none;stroke-opacity:1"
         id="path38"
         inkscape:connector-curvature="0" /><path
         d="m 275.17529,746.7793 c -4.46679,5.82226 -13.71679,4.20215 -18.2041,4.20215 -4.78076,9.7e-4 -7.78076,3.90185 -7.78076,7.44287"
         style="fill:none;stroke:#231f20;stroke-width:1.37475;stroke-linecap:butt;stroke-linejoin:miter;stroke-miterlimit:10;stroke-dasharray:none;stroke-opacity:1"
         id="path40"
         inkscape:connector-curvature="0" /><path
         d="m 274.31592,700.80371 c -6.24512,4.58789 -8.57178,18.854 -3.78906,23.13574 5.01513,4.49024 12.7749,9.66309 8.93701,15.78907"
         style="fill:none;stroke:#231f20;stroke-width:1.37475;stroke-linecap:butt;stroke-linejoin:miter;stroke-miterlimit:10;stroke-dasharray:none;stroke-opacity:1"
         id="path42"
         inkscape:connector-curvature="0" /><path
         d="m 297.79932,767.42969 c 5.81201,-1.84815 11.82959,-14.82813 12.89013,-24.62012 1.07813,-9.9541 3.65625,-35.396 -9.09375,-45.146 -4.78027,-3.65673 -11.32861,-3.85107 -17.65039,-1.82275"
         style="fill:none;stroke:#231f20;stroke-width:1.37475;stroke-linecap:butt;stroke-linejoin:miter;stroke-miterlimit:10;stroke-dasharray:none;stroke-opacity:1"
         id="path44"
         inkscape:connector-curvature="0" /><path
         d="m 249.18994,766.55957 c 0,7.729 10.00684,12.06299 15.84522,11.354 7.0039,-0.85107 16.78076,-3.75 24.61865,-7.78076"
         style="fill:none;stroke:#231f20;stroke-width:1.37475;stroke-linecap:butt;stroke-linejoin:miter;stroke-miterlimit:10;stroke-dasharray:none;stroke-opacity:1"
         id="path46"
         inkscape:connector-curvature="0" /></g><g
       id="g6757"
       transform="translate(49.784844,41.656705)"
       style="stroke-width:1.29975;stroke-miterlimit:10;stroke-dasharray:none"><path
         d="m 57.38916,728.05127 c -12.67187,1.68115 -22.39014,11.33301 -22.39014,22.98877 0,12.84033 11.79004,23.24902 26.33399,23.24902 10.9082,0 20.26611,-5.85498 24.26416,-14.19873"
         style="fill:none;stroke:#00adef;stroke-width:1.29975;stroke-linecap:butt;stroke-linejoin:miter;stroke-miterlimit:10;stroke-dasharray:none;stroke-opacity:1"
         id="path48"
         inkscape:connector-curvature="0" /><path
         d="m 87.61182,752.55078 c 0.03613,-0.5 0.05517,-1.00293 0.05517,-1.50976 0,-11.23536 -9.02734,-20.6084 -21.02734,-22.77637"
         style="fill:none;stroke:#00adef;stroke-width:1.29975;stroke-linecap:butt;stroke-linejoin:miter;stroke-miterlimit:10;stroke-dasharray:none;stroke-opacity:1"
         id="path50"
         inkscape:connector-curvature="0" /><path
         d="m 80.44043,711.64355 c -11.03027,2.77295 -19.10693,11.73487 -19.10693,22.36182 0,2.44092 0.42578,4.79541 1.21582,7.00635"
         style="fill:none;stroke:#ed1c24;stroke-width:1.29975;stroke-linecap:butt;stroke-linejoin:miter;stroke-miterlimit:10;stroke-dasharray:none;stroke-opacity:1"
         id="path52"
         inkscape:connector-curvature="0" /><path
         d="m 66.73438,748.11328 c 4.81201,5.55713 12.39794,9.14111 20.93212,9.14111 14.54395,0 26.33399,-10.40918 26.33399,-23.24902 0,-12.34326 -10.89697,-22.43994 -24.66113,-23.20215"
         style="fill:none;stroke:#ed1c24;stroke-width:1.29975;stroke-linecap:butt;stroke-linejoin:miter;stroke-miterlimit:10;stroke-dasharray:none;stroke-opacity:1"
         id="path54"
         inkscape:connector-curvature="0" /><path
         d="m 44.01807,739.19922 c 4.6289,3.56982 10.68603,5.73193 17.31494,5.73193 6.80713,0 13.01025,-2.27881 17.68408,-6.02197"
         style="fill:none;stroke:#40b93c;stroke-width:1.29975;stroke-linecap:butt;stroke-linejoin:miter;stroke-miterlimit:10;stroke-dasharray:none;stroke-opacity:1"
         id="path56"
         inkscape:connector-curvature="0" /><path
         d="m 84.62891,732.53271 c 1.93896,-3.23925 3.03808,-6.93115 3.03808,-10.85009 0,-12.83887 -11.79004,-23.24805 -26.33398,-23.24805 C 46.79004,698.43457 35,708.84375 35,721.68262 c 0,3.73193 0.99609,7.25781 2.76611,10.38281"
         style="fill:none;stroke:#00a650;stroke-width:1.29975;stroke-linecap:butt;stroke-linejoin:miter;stroke-miterlimit:10;stroke-dasharray:none;stroke-opacity:1"
         id="path58"
         inkscape:connector-curvature="0" /></g><g
       id="g6821"
       transform="translate(16.256275,23.368396)"
       style="stroke-width:1.52475;stroke-miterlimit:10;stroke-dasharray:none"><path
         d="m 127.39404,455.00635 c -4.27881,-4.24024 -9.84912,-15.64697 -10.49511,-19.91992"
         style="fill:none;stroke:#ed1c24;stroke-width:1.52475;stroke-linecap:butt;stroke-linejoin:miter;stroke-miterlimit:10;stroke-dasharray:none;stroke-opacity:1"
         id="path172"
         inkscape:connector-curvature="0" /><path
         d="m 137.92822,469.19775 c -0.71484,-1.21191 -4.77881,-5.27978 -5.03613,-6.81396"
         style="fill:none;stroke:#ed1c24;stroke-width:1.52475;stroke-linecap:butt;stroke-linejoin:miter;stroke-miterlimit:10;stroke-dasharray:none;stroke-opacity:1"
         id="path174"
         inkscape:connector-curvature="0" /><path
         d="m 151.48584,476.0249 c -3.35303,-1.50293 -3.85205,-0.75 -6.70508,-3.01025"
         style="fill:none;stroke:#ed1c24;stroke-width:1.52475;stroke-linecap:butt;stroke-linejoin:miter;stroke-miterlimit:10;stroke-dasharray:none;stroke-opacity:1"
         id="path176"
         inkscape:connector-curvature="0" /><path
         d="m 182.26221,438.40869 c -4.6001,-4.1709 -9.79883,-7.63183 -15.44385,-10.22119"
         style="fill:none;stroke:#67ceea;stroke-width:1.52475;stroke-linecap:butt;stroke-linejoin:miter;stroke-miterlimit:10;stroke-dasharray:none;stroke-opacity:1"
         id="path178"
         inkscape:connector-curvature="0" /><path
         d="m 85.50049,509.74951 c 30.22705,54.09717 158.89306,-9.12402 104.93701,-62.83984"
         style="fill:none;stroke:#67ceea;stroke-width:1.52475;stroke-linecap:butt;stroke-linejoin:miter;stroke-miterlimit:10;stroke-dasharray:none;stroke-opacity:1"
         id="path180"
         inkscape:connector-curvature="0" /><path
         d="m 81.51416,486.92041 c 0,5.58203 0.69385,11.18115 2.04883,16.5249"
         style="fill:none;stroke:#67ceea;stroke-width:1.52475;stroke-linecap:butt;stroke-linejoin:miter;stroke-miterlimit:10;stroke-dasharray:none;stroke-opacity:1"
         id="path182"
         inkscape:connector-curvature="0" /><path
         d="m 87.26025,457.30615 c -2.73584,6.12403 -4.57617,15.20899 -5.34179,22.20606"
         style="fill:none;stroke:#67ceea;stroke-width:1.52475;stroke-linecap:butt;stroke-linejoin:miter;stroke-miterlimit:10;stroke-dasharray:none;stroke-opacity:1"
         id="path184"
         inkscape:connector-curvature="0" /><path
         d="m 129.98975,424.2583 c -16.21924,0.45117 -32.98096,14.18408 -39.35791,24.98682"
         style="fill:none;stroke:#67ceea;stroke-width:1.52475;stroke-linecap:butt;stroke-linejoin:miter;stroke-miterlimit:10;stroke-dasharray:none;stroke-opacity:1"
         id="path186"
         inkscape:connector-curvature="0" /><path
         d="m 159.54346,425.41943 c -3.82715,-1.17089 -12.4292,-1.95898 -16.52491,-2.3208"
         style="fill:none;stroke:#67ceea;stroke-width:1.52475;stroke-linecap:butt;stroke-linejoin:miter;stroke-miterlimit:10;stroke-dasharray:none;stroke-opacity:1"
         id="path188"
         inkscape:connector-curvature="0" /><path
         d="m 158.22119,397.97754 c -2.69385,-6.70899 -6.4458,-12.83203 -11.03418,-18.14551 0,0 -5.51465,-5.62793 -5.51465,-5.62793 -48.28515,-43.45703 -117.39795,12.95899 -96.74511,71.07031 0,0 2.47705,6.00684 2.47705,6.00684 4,8.47949 9.73486,15.89648 16.71679,21.73438"
         style="fill:none;stroke:#2fb341;stroke-width:1.52475;stroke-linecap:butt;stroke-linejoin:miter;stroke-miterlimit:10;stroke-dasharray:none;stroke-opacity:1"
         id="path190"
         inkscape:connector-curvature="0" /><path
         d="m 70.82275,477.89014 c 47.20508,29.64599 104.27588,-18.90625 89.88819,-72.45948"
         style="fill:none;stroke:#2fb341;stroke-width:1.52475;stroke-linecap:butt;stroke-linejoin:miter;stroke-miterlimit:10;stroke-dasharray:none;stroke-opacity:1"
         id="path192"
         inkscape:connector-curvature="0" /><path
         d="M 116.89893,451.30518 C 94.37207,467.57324 73.07471,427.85107 56.35791,457.30615"
         style="fill:none;stroke:#231f20;stroke-width:1.52475;stroke-linecap:butt;stroke-linejoin:miter;stroke-miterlimit:10;stroke-dasharray:none;stroke-opacity:1"
         id="path194"
         inkscape:connector-curvature="0" /><path
         d="m 150.68701,390.41113 c -11.60303,1.75586 -12.1831,13.42188 -12.04297,24 0.18213,13.77393 -5.75195,23.99805 -11.53418,28.70899"
         style="fill:none;stroke:#231f20;stroke-width:1.52475;stroke-linecap:butt;stroke-linejoin:miter;stroke-miterlimit:10;stroke-dasharray:none;stroke-opacity:1"
         id="path196"
         inkscape:connector-curvature="0" /><path
         d="m 168.3208,480.83057 c 25.62012,-28.72412 28.29785,-84.04834 -9.73486,-90.23975"
         style="fill:none;stroke:#231f20;stroke-width:1.52475;stroke-linecap:butt;stroke-linejoin:miter;stroke-miterlimit:10;stroke-dasharray:none;stroke-opacity:1"
         id="path198"
         inkscape:connector-curvature="0" /><path
         d="m 52.88721,467.38721 c -7.06787,41.41797 74.50683,60.47314 110.08789,21.76904"
         style="fill:none;stroke:#231f20;stroke-width:1.52475;stroke-linecap:butt;stroke-linejoin:miter;stroke-miterlimit:10;stroke-dasharray:none;stroke-opacity:1"
         id="path200"
         inkscape:connector-curvature="0" /><path
         d="m 149.87646,428.35986 c -1.74316,10.04883 -18.979,44.65479 -59.24511,39.02686"
         style="fill:none;stroke:#f79825;stroke-width:1.52475;stroke-linecap:butt;stroke-linejoin:miter;stroke-miterlimit:10;stroke-dasharray:none;stroke-opacity:1"
         id="path202"
         inkscape:connector-curvature="0" /><path
         d="m 178.52686,430.35596 c 7.27099,-22.46826 -30.4878,-42.90381 -26.78516,-10.56397"
         style="fill:none;stroke:#f79825;stroke-width:1.52475;stroke-linecap:butt;stroke-linejoin:miter;stroke-miterlimit:10;stroke-dasharray:none;stroke-opacity:1"
         id="path204"
         inkscape:connector-curvature="0" /><path
         d="m 85.88916,497.44873 c 48.58203,11.63574 73.48291,-16.50488 90.01807,-59.72705"
         style="fill:none;stroke:#f79825;stroke-width:1.52475;stroke-linecap:butt;stroke-linejoin:miter;stroke-miterlimit:10;stroke-dasharray:none;stroke-opacity:1"
         id="path206"
         inkscape:connector-curvature="0" /><path
         d="m 78.25244,467.38721 c -7.43017,-5.00391 -24.82812,17.14209 0,27.625"
         style="fill:none;stroke:#f79825;stroke-width:1.52475;stroke-linecap:butt;stroke-linejoin:miter;stroke-miterlimit:10;stroke-dasharray:none;stroke-opacity:1"
         id="path208"
         inkscape:connector-curvature="0" /><path
         d="m 115.72705,423.09814 c -2.11475,-24.43701 18.30908,-42.37841 22.91699,-45.12841"
         style="fill:none;stroke:#ed1c24;stroke-width:1.52475;stroke-linecap:butt;stroke-linejoin:miter;stroke-miterlimit:10;stroke-dasharray:none;stroke-opacity:1"
         id="path210"
         inkscape:connector-curvature="0" /><path
         d="m 150.68701,372.24902 c 33.00781,-9.57617 84.06201,50.64502 55.14307,90.13379"
         style="fill:none;stroke:#ed1c24;stroke-width:1.52475;stroke-linecap:butt;stroke-linejoin:miter;stroke-miterlimit:10;stroke-dasharray:none;stroke-opacity:1"
         id="path212"
         inkscape:connector-curvature="0" /><path
         d="m 198.01025,469.19775 c -8.0747,11.72022 -22.12402,23.33496 -38.46679,12.77002"
         style="fill:none;stroke:#ed1c24;stroke-width:1.52475;stroke-linecap:butt;stroke-linejoin:miter;stroke-miterlimit:10;stroke-dasharray:none;stroke-opacity:1"
         id="path214"
         inkscape:connector-curvature="0" /></g><g
       id="g9154"
       style="stroke-width:1.67475;stroke-miterlimit:10;stroke-dasharray:none"
       transform="translate(-262.13244,-34.544585)"><path
         d="m 360.19336,264.61426 c 3.11523,-11.61328 -22.1084,-32.41016 -16.86035,-52.05762"
         style="fill:none;stroke:#ed1c24;stroke-width:1.67475;stroke-linecap:butt;stroke-linejoin:miter;stroke-miterlimit:10;stroke-dasharray:none;stroke-opacity:1"
         id="path216"
         inkscape:connector-curvature="0" /><path
         d="m 443.79785,343.69629 c -29.13281,40.86035 -124.13086,-8.72266 -89.1543,-63.01172"
         style="fill:none;stroke:#ed1c24;stroke-width:1.67475;stroke-linecap:butt;stroke-linejoin:miter;stroke-miterlimit:10;stroke-dasharray:none;stroke-opacity:1"
         id="path218"
         inkscape:connector-curvature="0" /><path
         d="M 501.25293,283.00586 C 497.3252,272.76465 477.90137,252.97266 467.3877,249.13477"
         style="fill:none;stroke:#67ceea;stroke-width:1.67475;stroke-linecap:butt;stroke-linejoin:miter;stroke-miterlimit:10;stroke-dasharray:none;stroke-opacity:1"
         id="path220"
         inkscape:connector-curvature="0" /><path
         d="m 472.28516,349.76465 c 25.07617,10.62109 82.48339,30.3457 35.92187,-59.00488"
         style="fill:none;stroke:#67ceea;stroke-width:1.67475;stroke-linecap:butt;stroke-linejoin:miter;stroke-miterlimit:10;stroke-dasharray:none;stroke-opacity:1"
         id="path222"
         inkscape:connector-curvature="0" /><path
         d="m 422.33301,321.32715 c 7.33105,12.62109 24.27441,16.94629 34.73242,22.36914"
         style="fill:none;stroke:#67ceea;stroke-width:1.67475;stroke-linecap:butt;stroke-linejoin:miter;stroke-miterlimit:10;stroke-dasharray:none;stroke-opacity:1"
         id="path224"
         inkscape:connector-curvature="0" /><path
         d="m 379,285.88965 c 10.34961,4.87012 31.10156,19.43164 36.75586,26.61133"
         style="fill:none;stroke:#67ceea;stroke-width:1.67475;stroke-linecap:butt;stroke-linejoin:miter;stroke-miterlimit:10;stroke-dasharray:none;stroke-opacity:1"
         id="path226"
         inkscape:connector-curvature="0" /><path
         d="m 338.08496,261.41113 c 10.57324,7.8711 22.01172,13.18457 31.24707,19.27344"
         style="fill:none;stroke:#67ceea;stroke-width:1.67475;stroke-linecap:butt;stroke-linejoin:miter;stroke-miterlimit:10;stroke-dasharray:none;stroke-opacity:1"
         id="path228"
         inkscape:connector-curvature="0" /><path
         d="m 370.59082,212.55664 c -69.81348,-22.11719 -101.65088,21.22949 -49.94238,41.66699"
         style="fill:none;stroke:#67ceea;stroke-width:1.67475;stroke-linecap:butt;stroke-linejoin:miter;stroke-miterlimit:10;stroke-dasharray:none;stroke-opacity:1"
         id="path230"
         inkscape:connector-curvature="0" /><path
         d="m 404.1416,223.61816 c -5.18555,-3.29394 -6.81445,-1.63574 -17.66894,-6.58789"
         style="fill:none;stroke:#67ceea;stroke-width:1.67475;stroke-linecap:butt;stroke-linejoin:miter;stroke-miterlimit:10;stroke-dasharray:none;stroke-opacity:1"
         id="path232"
         inkscape:connector-curvature="0" /><path
         d="m 451.66406,243.69531 c -7.86621,-3.06543 -32.33105,-10.6123 -38.66601,-18.0791"
         style="fill:none;stroke:#67ceea;stroke-width:1.67475;stroke-linecap:butt;stroke-linejoin:miter;stroke-miterlimit:10;stroke-dasharray:none;stroke-opacity:1"
         id="path234"
         inkscape:connector-curvature="0" /><path
         d="m 463.33301,220.32422 c 0,-6.58106 -6.26758,-13.89356 -17.79004,-16.43652"
         style="fill:none;stroke:#2fb341;stroke-width:1.67475;stroke-linecap:butt;stroke-linejoin:miter;stroke-miterlimit:10;stroke-dasharray:none;stroke-opacity:1"
         id="path236"
         inkscape:connector-curvature="0" /><path
         d="m 408.12305,321.32715 c 14.37304,-3.36133 23.55175,-16.4336 35.6748,-32.43848 4.96094,-6.5498 22.51074,-27.01269 19.53516,-57.83691"
         style="fill:none;stroke:#2fb341;stroke-width:1.67475;stroke-linecap:butt;stroke-linejoin:miter;stroke-miterlimit:10;stroke-dasharray:none;stroke-opacity:1"
         id="path238"
         inkscape:connector-curvature="0" /><path
         d="m 377.61816,317.37988 c 2.36329,1.39746 5.29395,2.28614 8.74805,2.50977 2.84668,0.18359 5.85059,-0.1836 8.96094,-1.02832"
         style="fill:none;stroke:#2fb341;stroke-width:1.67475;stroke-linecap:butt;stroke-linejoin:miter;stroke-miterlimit:10;stroke-dasharray:none;stroke-opacity:1"
         id="path240"
         inkscape:connector-curvature="0" /><path
         d="m 433.30273,200.92871 c -12.66699,-1.6416 -14.30273,6.87988 -26.62109,24.6875 -14.48047,20.93359 -21.17285,40.95899 -29.06348,51.30078 -11.95117,15.66114 -17.17675,28.08692 -8.28613,35.58399"
         style="fill:none;stroke:#2fb341;stroke-width:1.67475;stroke-linecap:butt;stroke-linejoin:miter;stroke-miterlimit:10;stroke-dasharray:none;stroke-opacity:1"
         id="path242"
         inkscape:connector-curvature="0" /><path
         d="m 485.99805,315.99414 c 73.34668,-87.0791 -29.01465,-187.77246 -88.6709,-123.77148 -14.57813,15.63964 -19.70899,38.8291 -38.66016,45.74902"
         style="fill:none;stroke:#231f20;stroke-width:1.67475;stroke-linecap:butt;stroke-linejoin:miter;stroke-miterlimit:10;stroke-dasharray:none;stroke-opacity:1"
         id="path244"
         inkscape:connector-curvature="0" /><path
         d="m 341.66699,243.69531 c -18.33398,6.24707 -31.91406,68.80567 -3.33594,99.52832 33.90821,36.45313 100.40333,59.77442 137.32813,-13.18261"
         style="fill:none;stroke:#231f20;stroke-width:1.67475;stroke-linecap:butt;stroke-linejoin:miter;stroke-miterlimit:10;stroke-dasharray:none;stroke-opacity:1"
         id="path246"
         inkscape:connector-curvature="0" /><path
         d="m 432.33105,240.88867 c -7.99804,15.54297 -22.33105,42.11719 -30.99804,53"
         style="fill:none;stroke:#f79825;stroke-width:1.67475;stroke-linecap:butt;stroke-linejoin:miter;stroke-miterlimit:10;stroke-dasharray:none;stroke-opacity:1"
         id="path248"
         inkscape:connector-curvature="0" /><path
         d="m 453.66699,212.55664 c -9.29687,0 -15.81933,9.43066 -18.59375,18.49512"
         style="fill:none;stroke:#f79825;stroke-width:1.67475;stroke-linecap:butt;stroke-linejoin:miter;stroke-miterlimit:10;stroke-dasharray:none;stroke-opacity:1"
         id="path250"
         inkscape:connector-curvature="0" /><path
         d="m 482.22656,253.00098 c 4.71289,-12.60645 2.90137,-50.77832 -18.89355,-46.57032"
         style="fill:none;stroke:#f79825;stroke-width:1.67475;stroke-linecap:butt;stroke-linejoin:miter;stroke-miterlimit:10;stroke-dasharray:none;stroke-opacity:1"
         id="path252"
         inkscape:connector-curvature="0" /><path
         d="m 438.73438,328.88867 c 8.68945,-7.77441 28.90039,-42.82617 38.92968,-66.66504"
         style="fill:none;stroke:#f79825;stroke-width:1.67475;stroke-linecap:butt;stroke-linejoin:miter;stroke-miterlimit:10;stroke-dasharray:none;stroke-opacity:1"
         id="path254"
         inkscape:connector-curvature="0" /><path
         d="m 386.36621,325.04785 c 1.09863,12.05567 29.63184,27.84278 40.63184,15.17578"
         style="fill:none;stroke:#f79825;stroke-width:1.67475;stroke-linecap:butt;stroke-linejoin:miter;stroke-miterlimit:10;stroke-dasharray:none;stroke-opacity:1"
         id="path256"
         inkscape:connector-curvature="0" /><path
         d="m 395.32715,299.19531 c -4.33887,7.73926 -9.40137,11.26172 -9.40137,15.47754"
         style="fill:none;stroke:#f79825;stroke-width:1.67475;stroke-linecap:butt;stroke-linejoin:miter;stroke-miterlimit:10;stroke-dasharray:none;stroke-opacity:1"
         id="path258"
         inkscape:connector-curvature="0" /><path
         d="M 345.78613,201.41211 C 379.91309,94.68555 612.70215,161.62598 521.38281,302.06055"
         style="fill:none;stroke:#ed1c24;stroke-width:1.67475;stroke-linecap:butt;stroke-linejoin:miter;stroke-miterlimit:10;stroke-dasharray:none;stroke-opacity:1"
         id="path260"
         inkscape:connector-curvature="0" /><path
         d="m 509.43457,312.50098 c -12.33984,17.95312 -47.66309,2.17187 -60.43652,21.78808"
         style="fill:none;stroke:#ed1c24;stroke-width:1.67475;stroke-linecap:butt;stroke-linejoin:miter;stroke-miterlimit:10;stroke-dasharray:none;stroke-opacity:1"
         id="path262"
         inkscape:connector-curvature="0" /><path
         d="m 390.98828,285.88965 c 7.08301,-9.57227 26.86719,-41.94141 28.34473,-48.02735"
         style="fill:none;stroke:#ec008c;stroke-width:1.67475;stroke-linecap:butt;stroke-linejoin:miter;stroke-miterlimit:10;stroke-dasharray:none;stroke-opacity:1"
         id="path264"
         inkscape:connector-curvature="0" /><path
         d="m 390.98828,337.65234 c -6.07129,0.19629 -11.67578,-1.27832 -15.31543,-5.833 -7.35937,-9.20899 0.78711,-26.28125 5.5166,-31.83692 0.85645,-1.00586 1.94922,-2.02539 3.22266,-3.07519"
         style="fill:none;stroke:#ec008c;stroke-width:1.67475;stroke-linecap:butt;stroke-linejoin:miter;stroke-miterlimit:10;stroke-dasharray:none;stroke-opacity:1"
         id="path266"
         inkscape:connector-curvature="0" /><path
         d="m 406.68164,308.36621 c -7.41894,9.01367 1.34668,20.19043 -7.72656,25.92285"
         style="fill:none;stroke:#ec008c;stroke-width:1.67475;stroke-linecap:butt;stroke-linejoin:miter;stroke-miterlimit:10;stroke-dasharray:none;stroke-opacity:1"
         id="path268"
         inkscape:connector-curvature="0" /><path
         d="m 475.65918,214.88867 c -2.28516,11.19238 -26.0498,10.32129 -28.28223,22.97363"
         style="fill:none;stroke:#ec008c;stroke-width:1.67475;stroke-linecap:butt;stroke-linejoin:miter;stroke-miterlimit:10;stroke-dasharray:none;stroke-opacity:1"
         id="path270"
         inkscape:connector-curvature="0" /><path
         d="m 426.1123,228.22266 c 4.70801,-7.89844 13.73536,-38.17188 32.08692,-38.33399 12.40625,-0.10937 24.57519,10.84082 21.0166,19.16699"
         style="fill:none;stroke:#ec008c;stroke-width:1.67475;stroke-linecap:butt;stroke-linejoin:miter;stroke-miterlimit:10;stroke-dasharray:none;stroke-opacity:1"
         id="path272"
         inkscape:connector-curvature="0" /><path
         d="m 412.99805,303.55566 c 7.9834,-7.26953 30.7998,-29.41406 32.54492,-57.33203"
         style="fill:none;stroke:#ec008c;stroke-width:1.67475;stroke-linecap:butt;stroke-linejoin:miter;stroke-miterlimit:10;stroke-dasharray:none;stroke-opacity:1"
         id="path274"
         inkscape:connector-curvature="0" /></g></g></svg>
