<?xml version="1.0" encoding="UTF-8" standalone="no"?>
<svg
   xmlns:dc="http://purl.org/dc/elements/1.1/"
   xmlns:cc="http://creativecommons.org/ns#"
   xmlns:rdf="http://www.w3.org/1999/02/22-rdf-syntax-ns#"
   xmlns:svg="http://www.w3.org/2000/svg"
   xmlns="http://www.w3.org/2000/svg"
   xmlns:sodipodi="http://sodipodi.sourceforge.net/DTD/sodipodi-0.dtd"
   xmlns:inkscape="http://www.inkscape.org/namespaces/inkscape"
   version="1.1"
   id="svg2"
   xml:space="preserve"
   width="1454.0048"
   height="293.42691"
   viewBox="0 0 1454.0048 293.42688"
   sodipodi:docname="liste1.ai.svg"
   inkscape:version="1.0.2-2 (e86c870879, 2021-01-15)"><metadata
     id="metadata8"><rdf:RDF><cc:Work
         rdf:about=""><dc:format>image/svg+xml</dc:format><dc:type
           rdf:resource="http://purl.org/dc/dcmitype/StillImage" /><dc:title></dc:title></cc:Work></rdf:RDF></metadata><defs
     id="defs6"><clipPath
       clipPathUnits="userSpaceOnUse"
       id="clipPath18"><path
         d="M 0,907.087 H 680.315 V 0 H 0 Z"
         id="path16" /></clipPath></defs><sodipodi:namedview
     pagecolor="#9e9e83"
     bordercolor="#666666"
     borderopacity="1"
     objecttolerance="10"
     gridtolerance="10"
     guidetolerance="10"
     inkscape:pageopacity="0"
     inkscape:pageshadow="2"
     inkscape:window-width="1920"
     inkscape:window-height="1001"
     id="namedview4"
     showgrid="false"
     inkscape:zoom="1.127786"
     inkscape:cx="1274.7279"
     inkscape:cy="294.79807"
     inkscape:window-x="-9"
     inkscape:window-y="-9"
     inkscape:window-maximized="1"
     inkscape:current-layer="g10"
     inkscape:document-rotation="0"
     units="px"
     fit-margin-top="10"
     fit-margin-left="10"
     fit-margin-right="10"
     fit-margin-bottom="10"
     lock-margins="true" /><g
     id="g10"
     inkscape:groupmode="layer"
     inkscape:label="liste1"
     transform="matrix(1.3333333,0,0,-1.3333333,185.00138,1164.6277)"><g
       id="g5088"
       transform="translate(-255.36761,-75.812258)"
       style="stroke:#f9f9f9"><path
         d="m 140.49744,831.71843 c 0,-11.38019 7.66677,-19.61788 14.34508,-19.61788 6.67931,0 12.09359,9.22566 12.09359,20.60535 0,11.38118 -5.41428,20.60635 -12.09359,20.60635 -6.67831,0 -14.34508,-10.21314 -14.34508,-21.59382 z"
         style="fill:none;stroke:#ff0000;stroke-width:1.49642;stroke-linecap:butt;stroke-linejoin:miter;stroke-miterlimit:4;stroke-dasharray:none;stroke-opacity:1"
         id="path22" /><path
         d="m 124.86478,831.84745 c 0,-11.38019 5.41379,-20.60634 12.09062,-20.60634 6.6788,0 11.8289,8.84867 11.8289,20.22936 0,11.38019 -5.1501,20.98431 -11.8289,20.98431 -6.67683,0 -12.09062,-9.22714 -12.09062,-20.60733 z"
         style="fill:none;stroke:#f9f9f9;stroke-width:1.49642;stroke-linecap:butt;stroke-linejoin:miter;stroke-miterlimit:4;stroke-dasharray:none;stroke-opacity:1"
         id="path26" /></g><path
       d="m -21.947618,744.81815 c 1.454,-6.73768 -2.70121,-14.38813 -7.53468,-17.84973 -9.88216,-7.07508 4.78796,-18.50227 12.09358,-18.50227 7.7899596,0 14.1061396,10.98788 14.1061396,24.5414 0,13.55451 -6.31618,24.54189 -14.1061396,24.54189 -7.79293,0 -24.25346,-16.6332 -11.80516,-21.96387 5.83777,-2.50084 8.6963,-9.36715 6.34932,-14.87741 -2.7012,-6.33695 -11.39008,-11.21891 -15.41221,-11.21891 -7.79342,0 -14.1091,10.98787 -14.1091,24.5404 0,13.55501 5.74526,22.96767 13.53423,23.14973 8.37027,0.1974 15.43249,-5.62553 16.88402,-12.36123 z"
       style="fill:none;stroke:#f9f9f9;stroke-width:1.49642;stroke-linecap:butt;stroke-linejoin:miter;stroke-miterlimit:4;stroke-dasharray:none;stroke-opacity:1"
       id="path30" /><g
       id="g5084"
       transform="translate(-295.2688,-73.152179)"
       style="stroke:#f9f9f9"><path
         d="m 527.3095,886.26209 c -13.93446,14.23625 -22.47591,-3.13854 -23.3679,-13.63119 -0.62435,-7.35213 -3.3686,-25.41855 2.84962,-31.77133 13.45309,-13.74597 22.2706,2.2985 23.17941,12.80352 0.63721,7.33778 3.53829,26.26304 -2.66113,32.599"
         style="fill:none;stroke:#ff0000;stroke-width:1.49642;stroke-linecap:butt;stroke-linejoin:miter;stroke-miterlimit:4;stroke-dasharray:none;stroke-opacity:1"
         id="path34" /><path
         d="m 514.65846,866.41001 c -3.44874,-3.73617 -3.68274,-9.73819 -6.86433,-13.76724 -3.43983,-4.35607 -13.90626,0.52292 -16.17013,4.56434 -3.37255,6.02478 -1.23681,16.52436 7.4021,15.90248 6.83563,-0.49225 10.53371,-5.91494 14.53357,-10.57626 7.25368,-8.44893 26.4921,-20.62266 31.79705,-3.92961 6.03517,18.99552 -22.09893,17.11852 -30.69826,7.80629"
         style="fill:none;stroke:#f9f9f9;stroke-width:1.49642;stroke-linecap:butt;stroke-linejoin:miter;stroke-miterlimit:4;stroke-dasharray:none;stroke-opacity:1"
         id="path38" /></g><g
       id="g5066"
       transform="translate(192.85574,167.58499)"
       style="stroke:#f9f9f9"><path
         d="m 603.96616,576.41701 c 0,-15.38747 -11.23177,-27.85952 -25.08807,-27.85952 -13.85431,0 -25.08559,12.47205 -25.08559,27.85952 0,15.38698 11.23128,27.862 25.08559,27.862 13.8563,0 25.08807,-12.47502 25.08807,-27.862 z"
         style="fill:none;stroke:#ff0000;stroke-width:1.49642;stroke-linecap:butt;stroke-linejoin:miter;stroke-miterlimit:4;stroke-dasharray:none;stroke-opacity:1"
         id="path42" /><path
         d="m 637.93511,575.2546 c 0,-15.38698 -11.22831,-27.86101 -25.08164,-27.86101 -13.85778,0 -25.08856,12.47403 -25.08856,27.86101 0,15.38846 11.23078,27.86299 25.08856,27.86299 13.85333,0 25.08164,-12.47453 25.08164,-27.86299 z"
         style="fill:none;stroke:#008000;stroke-width:1.49642;stroke-linecap:butt;stroke-linejoin:miter;stroke-miterlimit:4;stroke-dasharray:none;stroke-opacity:1"
         id="path46" /><path
         d="m 623.34697,603.67431 c 0,-15.38698 -11.23227,-27.86051 -25.08856,-27.86051 -13.85481,0 -25.0851,12.47353 -25.0851,27.86051 0,15.38698 11.23029,27.86101 25.0851,27.86101 13.85629,0 25.08856,-12.47403 25.08856,-27.86101 z"
         style="fill:none;stroke:#f9f9f9;stroke-width:1.49642;stroke-linecap:butt;stroke-linejoin:miter;stroke-miterlimit:4;stroke-dasharray:none;stroke-opacity:1"
         id="path50" /></g><path
       d="m 414.74013,804.34723 c -4.16807,-5.50531 -14.21249,-18.19059 -13.30319,-22.7777 2.48996,-12.56258 19.46501,-14.61124 29.56683,-8.73192 5.28714,3.0772 28.59617,22.77819 31.83465,26.49062 4.37783,5.01851 6.15934,20.25608 -1.40404,28.61695 -8.31437,9.19152 -56.50665,7.39764 -62.52054,3.89746 -10.09885,-5.87785 -8.63248,-15.75803 -1.40057,-25.81285 6.64615,-9.23703 43.78476,-36.73788 55.84223,-32.25912 10.94582,4.06516 14.73691,20.28477 7.00879,30.0195 -3.96177,4.9903 -12.75256,8.72549 -15.87032,10.18048 -3.11431,1.45746 -17.40844,8.58152 -25.64612,14.50587 -8.82493,6.34981 -9.98408,16.50555 -0.80443,21.8481 9.62639,5.60327 19.57929,-2.45582 23.4243,-11.55631 1.63705,-3.86876 -0.0623,-9.14897 -6.42402,-13.75438 -6.78418,-4.91115 -16.56047,-15.7229 -20.30357,-20.6667 z"
       style="fill:none;stroke:#f9f9f9;stroke-width:1.49642;stroke-linecap:butt;stroke-linejoin:miter;stroke-miterlimit:4;stroke-dasharray:none;stroke-opacity:1"
       id="path54" /><path
       d="m 315.48682,761.66948 c 1.13738,9.2024 8.98918,17.11506 10.82906,26.34566 1.98336,9.97517 -16.49615,17.35005 -24.52902,15.15693 -11.97733,-3.26569 -23.75429,-19.34677 -13.10778,-29.74938 8.4242,-8.22977 19.95578,-6.14301 30.80068,-5.41774 19.66388,1.31894 57.96411,-8.16744 41.40909,-36.20358 -10.14338,-17.17344 -44.91967,-12.35332 -41.05536,0.34383 3.8643,12.69765 25.71439,20.83194 30.2728,25.84846 13.17406,14.49845 24.86791,46.26137 -8.99413,46.26137 -15.65067,0 -36.9709,-26.46093 -46.20645,-36.59095 -13.17803,-14.46036 -26.98139,-47.55161 8.08828,-47.55161 7.87456,0 24.39792,2.96341 26.58115,14.50537 2.18273,11.54296 -15.39836,16.45757 -14.08832,27.05164"
       style="fill:none;stroke:#f9f9f9;stroke-width:1.49642;stroke-linecap:butt;stroke-linejoin:miter;stroke-miterlimit:4;stroke-dasharray:none;stroke-opacity:1"
       id="path58" /><path
       d="m 120.40066,810.38288 c -7.19876,-1.94972 -11.70325,-9.45175 -10.06273,-16.75539 1.63952,-7.30464 31.14302,-8.23126 33.82097,-15.4879 2.16641,-5.87043 -4.09782,-12.31176 -10.39519,-14.01906 -7.20024,-1.94923 -14.36537,2.38952 -16.0034,9.69465 -1.40602,6.25928 3.59863,16.43778 6.72976,21.6616 3.71539,6.19694 9.56306,18.60418 16.37,20.44951 7.19777,1.94922 14.36289,-2.39052 16.00439,-9.69466 1.64052,-7.30315 -20.66719,-22.95332 -20.63305,-28.95287 0.0307,-7.0167 8.87836,-10.22451 15.64028,-8.39303 7.19678,1.94972 11.70324,9.45026 10.06125,16.75391 -1.63903,7.30364 -34.33599,26.69296 -41.53228,24.74324 z"
       style="fill:none;stroke:#f9f9f9;stroke-width:1.49642;stroke-linecap:butt;stroke-linejoin:miter;stroke-miterlimit:4;stroke-dasharray:none;stroke-opacity:1"
       id="path62" /><g
       id="g5076"
       transform="translate(192.85574,167.58499)"
       style="stroke:#f9f9f9"><path
         d="m 729.62622,547.27393 c 13.03159,4.75036 21.02241,-10.34423 21.02241,-25.92317 0,-15.58239 -5.03236,-21.16439 -13.11025,-23.6677 -9.93312,-3.07968 -25.97511,-6.83564 -32.15523,2.00413 -2.80807,4.00679 1.27936,12.57397 3.95385,15.52748 3.62535,4.00828 7.54457,2.75316 12.03916,7.84983 4.12058,4.67318 -8.24758,18.199 8.25006,24.20943 z"
         style="fill:none;stroke:#008000;stroke-width:1.49642;stroke-linecap:butt;stroke-linejoin:miter;stroke-miterlimit:4;stroke-dasharray:none;stroke-opacity:1"
         id="path66" /><path
         d="m 713.4785,508.7292 c -2.01354,-9.42107 -12.48739,-14.41286 -21.88521,-14.41286 -13.85481,0 -25.08658,12.62888 -25.08658,28.20979 0,15.57893 6.71987,31.97614 21.39345,28.75547 2.58296,-0.56695 9.53684,-5.59436 7.91364,-13.02367 -1.0132,-4.63311 -1.75529,-11.97782 2.1486,-17.3639 3.62337,-5.0096 16.50753,-7.54606 15.5161,-12.16483 z"
         style="fill:none;stroke:#f9f9f9;stroke-width:1.49642;stroke-linecap:butt;stroke-linejoin:miter;stroke-miterlimit:4;stroke-dasharray:none;stroke-opacity:1"
         id="path70" /><path
         d="m 685.77576,539.17471 c -3.72776,0.39924 -6.26472,9.35033 -1.31795,18.3682 7.47136,13.61734 12.66054,20.79137 26.51189,20.79137 13.86025,0 25.08856,-12.63086 25.08856,-28.21078 0,-7.55991 -1.81713,-9.36121 -5.7784,-10.86469 -5.81106,-2.20598 -42.21401,-0.32849 -44.5041,-0.0841 z"
         style="fill:none;stroke:#ff0000;stroke-width:1.49642;stroke-linecap:butt;stroke-linejoin:miter;stroke-miterlimit:4;stroke-dasharray:none;stroke-opacity:1"
         id="path74" /></g><path
       d="m 135.8057,717.36162 c -3.18653,-2.0917 3.62981,-8.82394 -0.99143,-10.882 -13.71332,-6.10839 -27.04817,6.00251 -22.50114,20.2442 9.08911,28.47942 46.6141,4.58216 49.91343,-14.98378 2.48847,-14.76016 -14.77154,-28.94742 -27.86892,-18.32515 -6.2672,5.08331 -8.23571,13.95722 -4.34766,18.80108 2.02788,2.52954 5.81551,-1.82504 9.20686,0.25429 5.92385,3.62536 -3.3775,10.53223 -4.30412,12.62245 -2.88129,6.49229 -1.84632,8.83779 2.50529,14.2031 9.25683,11.41284 29.65885,8.78634 30.5172,-7.83696 0.37401,-7.28881 -2.63096,-15.96927 -9.31867,-18.24452 -6.06435,-2.06499 -16.69206,8.16496 -22.81084,4.14729 z"
       style="fill:none;stroke:#f9f9f9;stroke-width:1.49642;stroke-linecap:butt;stroke-linejoin:miter;stroke-miterlimit:4;stroke-dasharray:none;stroke-opacity:1"
       id="path78" /><path
       d="m 441.07645,704.43062 c -7.64105,20.74783 15.69965,26.89283 28.89944,15.17623 18.12677,-16.09246 2.71357,-44.42594 -18.49535,-44.59761 -8.1803,-0.0653 -22.30869,1.82258 -29.8691,9.88464 -2.74227,2.92531 -4.89878,6.67732 -5.43852,9.62589 -0.53926,2.94906 0.61494,9.74116 -0.19691,13.20919 -0.81135,3.46556 -10.19037,-4.68159 -13.18099,-3.50266 -3.29982,1.9794 -3.06879,1.51831 -3.89399,6.62884 -1.76419,10.91316 6.26521,25.00198 19.05735,31.9232 18.7061,10.1226 39.4287,-6.80149 33.58153,-27.78482 -3.3206,-9.89799 -17.58109,-1.44757 -23.53215,-3.82819 -5.05264,-2.02343 -5.83678,-7.87951 -14.18381,-11.66565 -8.34949,-3.78416 -4.16361,10.96611 -6.6036,13.00388 -3.9875,3.32654 -6.79358,-1.86264 -8.53601,-3.93851 -13.56886,-16.16024 3.35227,-49.71357 26.74441,-46.72938 10.25865,1.30608 18.32615,8.95356 23.08195,17.9739 6.15737,11.6795 -3.82621,14.81755 -7.43425,24.62105"
       style="fill:none;stroke:#f9f9f9;stroke-width:1.49642;stroke-linecap:butt;stroke-linejoin:miter;stroke-miterlimit:4;stroke-dasharray:none;stroke-opacity:1"
       id="path82" /><g
       id="g5080"
       transform="translate(-295.2688,-73.152179)"
       style="stroke:#f9f9f9"><path
         d="m 506.72037,810.58774 c 3.98106,6.3696 14.39456,9.62787 24.03826,6.96476 14.10069,-3.89498 17.13089,-22.44227 4.74739,-30.23867 -6.12718,-3.4047 -9.86286,7.23092 -13.7529,9.40277 -3.75645,2.09616 -13.97799,1.54058 -15.51511,4.67121 -0.80541,2.59088 -1.38078,6.21624 0.48236,9.19993 z"
         style="fill:none;stroke:#ff0000;stroke-width:1.49642;stroke-linecap:butt;stroke-linejoin:miter;stroke-miterlimit:4;stroke-dasharray:none;stroke-opacity:1"
         id="path86" /><path
         d="m 525.42478,787.01092 c 5.37768,14.17836 20.07105,6.04011 21.58194,-6.24641 2.07538,-16.87413 -18.49287,-23.78249 -29.42187,-13.64852 -4.21556,3.90884 -10.59951,11.67406 -10.86073,19.39377 -0.2716,8.06454 5.99609,13.55006 5.48009,16.93053 -0.55063,3.60606 -4.79885,6.30232 -6.61895,6.09354 -14.17588,-1.63457 -20.53213,-26.76222 -7.22745,-36.52762 5.8343,-4.28334 13.38531,-4.30016 19.85633,-2.03085 8.37622,2.94065 4.67121,9.33845 7.21064,16.03556"
         style="fill:none;stroke:#f9f9f9;stroke-width:1.49642;stroke-linecap:butt;stroke-linejoin:miter;stroke-miterlimit:4;stroke-dasharray:none;stroke-opacity:1"
         id="path90" /></g><path
       d="m 59.851992,757.66946 c -11.69286,-6.36812 -3.21275,-18.61259 7.53171,-18.61259 14.75917,0 18.66999,19.15432 8.84324,27.8145 -13.02615,11.47815 -51.70039,7.03451 -42.17938,-17.33026 4.76026,-12.18313 21.05605,-12.85299 26.54701,-0.92118 2.32472,5.85508 -6.28154,10.55102 -10.2903,12.26921 -5.71211,2.45137 -6.12818,4.98882 -6.12818,11.03388 0,12.85893 15.31722,22.31958 25.05937,11.49447 4.27246,-4.7464 5.03978,-11.49793 3.72529,-17.53508 -1.70185,-7.8142 -7.58761,-5.20452 -13.10876,-8.21295"
       style="fill:none;stroke:#f9f9f9;stroke-width:1.49642;stroke-linecap:butt;stroke-linejoin:miter;stroke-miterlimit:4;stroke-dasharray:none;stroke-opacity:1"
       id="path94" /><path
       d="m -33.549408,777.00225 c 17.64244,-31.19101 44.88603,20.23777 13.65346,22.47938 -7.34669,0.52787 -19.8885,2.61561 -26.5861,-0.97066 -10.97897,-5.87982 -10.97897,-23.19425 0,-29.07309 17.43514,-9.33449 45.84133963,33.46824 24.4845,44.90434 -12.08369,6.47052 -23.23482,-6.4824 -21.01993,-17.9749 1.2853,-6.66396 6.15934,-13.51592 9.46807,-19.36507"
       style="fill:none;stroke:#f9f9f9;stroke-width:1.49642;stroke-linecap:butt;stroke-linejoin:miter;stroke-miterlimit:4;stroke-dasharray:none;stroke-opacity:1"
       id="path98" /><g
       id="g5071"
       transform="translate(192.85574,167.58499)"
       style="stroke:#f9f9f9"><path
         d="m 684.09406,643.95276 c -4.99574,-6.67732 -29.73998,-34.30729 -9.27908,-48.58361 25.73665,-17.96104 33.4623,13.54907 45.41835,25.13111 12.31374,11.91944 35.02464,24.84862 21.15548,42.86457 -23.405,30.39302 -52.28861,-12.73326 -57.29475,-19.41207 z"
         style="fill:none;stroke:#ff0000;stroke-width:1.49642;stroke-linecap:butt;stroke-linejoin:miter;stroke-miterlimit:4;stroke-dasharray:none;stroke-opacity:1"
         id="path102" /><path
         d="m 688.31858,626.97603 c -42.00029,9.79261 -18.03574,61.24019 14.33519,42.09379 10.61831,-6.28104 11.67554,-21.64873 13.46101,-32.16117 2.54784,-14.97042 -17.28425,-12.38448 -27.7962,-9.93262"
         style="fill:none;stroke:#f9f9f9;stroke-width:1.49642;stroke-linecap:butt;stroke-linejoin:miter;stroke-miterlimit:4;stroke-dasharray:none;stroke-opacity:1"
         id="path106" /><path
         d="m 725.29334,636.91454 c 48.0869,-6.40423 15.88813,-62.85201 -11.7082,-41.47142 -9.29343,7.19777 -13.75932,22.9929 -19.28641,32.90672 -9.36121,16.8103 22.13901,9.74363 30.99461,8.5647"
         style="fill:none;stroke:#008000;stroke-width:1.49642;stroke-linecap:butt;stroke-linejoin:miter;stroke-miterlimit:4;stroke-dasharray:none;stroke-opacity:1"
         id="path110" /></g><g
       id="g5057"
       transform="translate(187.53558,159.60475)"
       style="stroke:#f9f9f9"><path
         d="m 398.72759,638.69197 c -6.30182,6.5294 -13.79742,1.40205 -19.95627,3.65504 -6.30826,2.30542 -13.3304,12.70309 -17.82153,11.60282 -11.06653,-2.70566 -12.46859,-18.67889 -6.77923,-29.26307 6.05842,-11.27184 19.77075,-15.95987 30.62653,-10.46791 2.84071,1.43569 10.72517,3.64811 13.89488,10.89189 1.65387,3.78416 4.93539,8.5093 0.0356,13.58123 z"
         style="fill:none;stroke:#f9f9f9;stroke-width:1.49642;stroke-linecap:butt;stroke-linejoin:miter;stroke-miterlimit:4;stroke-dasharray:none;stroke-opacity:1"
         id="path114" /><path
         d="m 391.82511,633.00623 c -5.88972,9.66398 9.95835,13.65247 11.65526,21.39147 3.67136,16.7549 5.69133,33.81306 3.19544,38.45409 -6.05694,11.27432 -19.76779,15.95888 -30.62258,10.46643 -10.85775,-5.49245 -0.10982,-55.06749 -10.46049,-62.27566 -8.37275,-5.82688 -21.13817,2.19115 -26.44213,12.05846 -6.05991,11.27333 -2.17037,24.86693 8.68343,30.35889 9.30333,4.70781 27.44989,0.1964 36.9991,-3.06038 11.32033,-3.85887 33.3406,-8.93575 39.06706,-19.59463 6.0604,-11.2758 2.17234,-24.86841 -8.68146,-30.35987 -2.92581,-1.48121 -17.40843,-8.89666 -23.39363,2.5612 z"
         style="fill:none;stroke:#ff0000;stroke-width:1.49642;stroke-linecap:butt;stroke-linejoin:miter;stroke-miterlimit:4;stroke-dasharray:none;stroke-opacity:1"
         id="path118" /></g><path
       d="m 686.08134,726.4186 c 3.60161,-3.82869 16.58422,-1.77805 23.55689,2.59682 11.04427,6.92666 14.61174,21.25196 7.96509,31.99494 -6.64318,10.74447 -71.86345,24.19608 -82.91019,17.26793 -11.04477,-6.93062 -14.61026,-21.25344 -7.96411,-31.99544 5.62949,-9.1089 42.42031,-0.28991 58.59984,-3.54768 2.91641,-0.58378 -1.71126,-13.69403 0.75248,-16.31657 z"
       style="fill:none;stroke:#f9f9f9;stroke-width:1.49642;stroke-linecap:butt;stroke-linejoin:miter;stroke-miterlimit:4;stroke-dasharray:none;stroke-opacity:1"
       id="path122" /><path
       d="m 678.90247,734.04238 c -7.59504,5.18226 25.86528,46.27769 19.21962,57.02265 -6.64368,10.74249 -20.98629,13.83552 -32.02858,6.90688 -10.44565,-6.55117 -13.65395,-29.39367 -16.58916,-41.2211 -2.47809,-9.97764 -5.45585,-28.82424 0.23994,-38.03109 6.64467,-10.74348 20.98481,-13.83651 32.03402,-6.90836 9.663,6.06039 15.37461,22.07617 12.38449,22.78462 -2.98716,0.71438 -11.74777,-2.94758 -15.26033,-0.5536 z"
       style="fill:none;stroke:#f9f9f9;stroke-width:1.49642;stroke-linecap:butt;stroke-linejoin:miter;stroke-miterlimit:4;stroke-dasharray:none;stroke-opacity:1"
       id="path126" /><g
       id="g5061"
       transform="translate(192.85574,167.58499)"
       style="stroke:#f9f9f9"><path
         d="m 409.60878,550.88258 c 14.49894,27.17482 -15.06739,31.40325 -30.94068,27.71309 -11.12293,-2.58643 -39.01214,-7.17354 -45.48514,-19.30027 -13.99927,-26.2383 13.7341,-31.50071 29.6351,-27.83132 11.10413,2.56515 40.33553,7.32838 46.79072,19.4185"
         style="fill:none;stroke:#f9f9f9;stroke-width:1.49642;stroke-linecap:butt;stroke-linejoin:miter;stroke-miterlimit:4;stroke-dasharray:none;stroke-opacity:1"
         id="path130" /><path
         d="m 382.4627,558.61559 c -7.10773,3.26965 -16.0598,0.75545 -23.47229,3.49227 -8.01407,2.95896 -5.69034,20.60437 -0.78958,25.84253 7.30711,7.80629 23.77012,9.67981 26.87007,-3.26569 2.44989,-10.23589 -3.82473,-18.22869 -8.8279,-26.30509 -2.91987,-4.70733 -5.75416,-10.7796 5.33068,-13.22157 0,0 12.12723,-3.72726 13.3022,-5.69578 8.23769,-13.77467 10.8444,-29.35558 -9.65062,-29.4946 -15.15842,-0.10735 -15.58933,12.31968 -13.25422,24.8788 0.49176,2.64728 10.6668,14.7384 10.6668,14.7384 2.90157,5.54934 4.06269,7.08151 -0.17514,9.03073"
         style="fill:none;stroke:#ff0000;stroke-width:1.49642;stroke-linecap:butt;stroke-linejoin:miter;stroke-miterlimit:4;stroke-dasharray:none;stroke-opacity:1"
         id="path134" /></g></g></svg>
