<?xml version="1.0" encoding="UTF-8" standalone="no"?>
<svg
   version="1.1"
   id="svg15992"
   xml:space="preserve"
   width="148mm"
   height="105mm"
   viewBox="0 0 559.37007 396.85039"
   sodipodi:docname="nœud-arc.ai.svg"
   inkscape:version="1.1 (c68e22c387, 2021-05-23)"
   xmlns:inkscape="http://www.inkscape.org/namespaces/inkscape"
   xmlns:sodipodi="http://sodipodi.sourceforge.net/DTD/sodipodi-0.dtd"
   xmlns="http://www.w3.org/2000/svg"
   xmlns:svg="http://www.w3.org/2000/svg"
   xmlns:rdf="http://www.w3.org/1999/02/22-rdf-syntax-ns#"
   xmlns:cc="http://creativecommons.org/ns#"
   xmlns:dc="http://purl.org/dc/elements/1.1/"><metadata
     id="metadata15998"><rdf:RDF><cc:Work
         rdf:about=""><dc:format>image/svg+xml</dc:format><dc:type
           rdf:resource="http://purl.org/dc/dcmitype/StillImage" /></cc:Work></rdf:RDF></metadata><defs
     id="defs15996"><clipPath
       clipPathUnits="userSpaceOnUse"
       id="clipPath16008"><path
         d="M 0,595.276 H 841.89 V 0 H 0 Z"
         id="path16006" /></clipPath></defs><sodipodi:namedview
     pagecolor="#ffffff"
     bordercolor="#666666"
     borderopacity="1"
     objecttolerance="10"
     gridtolerance="10"
     guidetolerance="10"
     inkscape:pageopacity="0"
     inkscape:pageshadow="2"
     inkscape:window-width="1920"
     inkscape:window-height="1001"
     id="namedview15994"
     showgrid="false"
     inkscape:zoom="0.85926526"
     inkscape:cx="473.66049"
     inkscape:cy="397.43257"
     inkscape:window-x="-9"
     inkscape:window-y="-9"
     inkscape:window-maximized="1"
     inkscape:current-layer="g16000"
     inkscape:pagecheckerboard="0"
     units="mm"
     inkscape:document-units="mm" /><g
     id="g16000"
     inkscape:groupmode="layer"
     inkscape:label="nœud-arc"
     transform="matrix(1.3333333,0,0,-1.3333333,0,793.70133)"><g
       id="g16002"
       transform="translate(-247.01337,149.25543)"><g
         id="g16004"
         clip-path="url(#clipPath16008)"><g
           id="g16010"
           transform="translate(408.7949,351.3979)"><path
             d="M 0,0 C 17.162,-7.904 90.229,-33.111 78.523,-67.371 73.479,-82.138 50.941,-76.419 38.867,-70.843"
             style="fill:none;stroke:#231f20;stroke-width:2;stroke-linecap:butt;stroke-linejoin:bevel;stroke-miterlimit:10;stroke-dasharray:none;stroke-opacity:1"
             id="path16012" /></g><g
           id="g16014"
           transform="translate(435.5938,284.5234)"><path
             d="M 0,0 C -32.117,10.646 -91.734,17.071 -81.52,63.643"
             style="fill:none;stroke:#231f20;stroke-width:2;stroke-linecap:butt;stroke-linejoin:bevel;stroke-miterlimit:10;stroke-dasharray:none;stroke-opacity:1"
             id="path16016" /></g><g
           id="g16018"
           transform="translate(357.8145,368.4741)"><path
             d="M 0,0 C 7.305,39.657 54.988,49.029 86.059,30.617"
             style="fill:none;stroke:#231f20;stroke-width:1;stroke-linecap:butt;stroke-linejoin:bevel;stroke-miterlimit:10;stroke-dasharray:none;stroke-opacity:1"
             id="path16020" /></g><g
           id="g16022"
           transform="translate(462.5,390.7754)"><path
             d="M 0,0 C 27.16,-20.238 61.722,-55.598 70.161,-98.074 80.447,-149.841 63.168,-200.773 5.336,-189.688"
             style="fill:none;stroke:#231f20;stroke-width:2;stroke-linecap:butt;stroke-linejoin:bevel;stroke-miterlimit:10;stroke-dasharray:none;stroke-opacity:1"
             id="path16024" /></g><g
           id="g16026"
           transform="translate(453.2207,206.9707)"><path
             d="M 0,0 C -31.953,25.814 -19.307,85.641 14.506,103.214"
             style="fill:none;stroke:#231f20;stroke-width:3;stroke-linecap:butt;stroke-linejoin:bevel;stroke-miterlimit:10;stroke-dasharray:none;stroke-opacity:1"
             id="path16028" /></g><g
           id="g16030"
           transform="translate(482.6914,319.2866)"><path
             d="M 0,0 C 9.086,7.201 12.393,8.977 22.309,14.989"
             style="fill:none;stroke:#231f20;stroke-width:1;stroke-linecap:butt;stroke-linejoin:bevel;stroke-miterlimit:10;stroke-dasharray:none;stroke-opacity:1"
             id="path16032" /></g><g
           id="g16034"
           transform="translate(522.4473,348.0327)"><path
             d="M 0,0 C 32.238,26.535 6.309,61.033 -28.564,59.029 -71.102,56.586 -136.846,10.887 -145.455,-32.637"
             style="fill:none;stroke:#231f20;stroke-width:3;stroke-linecap:butt;stroke-linejoin:bevel;stroke-miterlimit:10;stroke-dasharray:none;stroke-opacity:1"
             id="path16036" /></g><g
           id="g16038"
           transform="translate(372.7813,297.8569)"><path
             d="M 0,0 C -3.184,-14.414 -4.4,-29.31 -3.279,-44.039"
             style="fill:none;stroke:#231f20;stroke-width:1;stroke-linecap:butt;stroke-linejoin:bevel;stroke-miterlimit:10;stroke-dasharray:none;stroke-opacity:1"
             id="path16040" /></g><g
           id="g16042"
           transform="translate(369.9688,240.4355)"><path
             d="m 0,0 c 2.43,-42.635 65.053,-70.039 93.723,-31.922 13.916,18.5 7.189,42.776 -18.655,39.996"
             style="fill:none;stroke:#231f20;stroke-width:2;stroke-linecap:butt;stroke-linejoin:bevel;stroke-miterlimit:10;stroke-dasharray:none;stroke-opacity:1"
             id="path16044" /></g><g
           id="g16046"
           transform="translate(427.0234,247.9531)"><path
             d="m 0,0 c -40.975,1.033 -103.24,-16.045 -124.221,31.221 -24.508,55.21 41.01,89.415 86.817,78.685"
             style="fill:none;stroke:#231f20;stroke-width:3;stroke-linecap:butt;stroke-linejoin:bevel;stroke-miterlimit:10;stroke-dasharray:none;stroke-opacity:1"
             id="path16048" /></g><text
           transform="matrix(1,0,0,-1,555,401.2754)"
           style="font-variant:normal;font-weight:normal;font-stretch:normal;font-size:12px;font-family:Myriad;-inkscape-font-specification:Myriad-Roman;writing-mode:lr-tb;fill:#231f20;fill-opacity:1;fill-rule:nonzero;stroke:none"
           id="text16056"><tspan
             x="0 5.7839999 9.6359997 15.012 20.1 26.868 32.880001 35.424 42.264 48.852001 53.063999 57.035999 63.048 69.059998 71.603996"
             y="0"
             sodipodi:role="line"
             id="tspan16050">arc de portée 2</tspan><tspan
             x="-5.0040002 0.77999997 4.632 10.008 12.552 19.32 25.332001 27.875999 34.716 41.304001 45.515999 49.487999 55.5 61.512001 64.056"
             y="150.996"
             sodipodi:role="line"
             id="tspan16052">arc de portée 1</tspan><tspan
             x="-283.008 -277.224 -273.37201 -267.996 -265.452 -258.68399 -252.672 -250.12801 -243.28799 -236.7 -232.48801 -228.51601 -222.504 -216.492 -213.948"
             y="1.992"
             sodipodi:role="line"
             id="tspan16054">arc de portée 0</tspan></text><g
           id="g16058"
           transform="translate(546.75,249.5254)"><path
             d="m 0,0 -5.25,-2.25 h 81.5"
             style="fill:none;stroke:#231f20;stroke-width:1;stroke-linecap:butt;stroke-linejoin:miter;stroke-miterlimit:4;stroke-dasharray:none;stroke-opacity:1"
             id="path16060" /></g><g
           id="g16062"
           transform="translate(538.25,400.9961)"><path
             d="m 0,0 -4.5,-2.471 106.25,0.25"
             style="fill:none;stroke:#231f20;stroke-width:1;stroke-linecap:butt;stroke-linejoin:miter;stroke-miterlimit:4;stroke-dasharray:none;stroke-opacity:1"
             id="path16064" /></g><g
           id="g16066"
           transform="translate(271,396.7754)"><path
             d="M 0,0 99.004,-0.471 94.753,1.5"
             style="fill:none;stroke:#231f20;stroke-width:1;stroke-linecap:butt;stroke-linejoin:miter;stroke-miterlimit:4;stroke-dasharray:none;stroke-opacity:1"
             id="path16068" /></g></g></g></g></svg>
