<?xml version="1.0" encoding="UTF-8" standalone="no"?>
<svg
   xmlns:dc="http://purl.org/dc/elements/1.1/"
   xmlns:cc="http://creativecommons.org/ns#"
   xmlns:rdf="http://www.w3.org/1999/02/22-rdf-syntax-ns#"
   xmlns:svg="http://www.w3.org/2000/svg"
   xmlns="http://www.w3.org/2000/svg"
   xmlns:sodipodi="http://sodipodi.sourceforge.net/DTD/sodipodi-0.dtd"
   xmlns:inkscape="http://www.inkscape.org/namespaces/inkscape"
   version="1.1"
   id="svg4501"
   xml:space="preserve"
   width="200"
   height="900"
   viewBox="0 0 200 900"
   sodipodi:docname="portée.svg"
   inkscape:version="1.0.2-2 (e86c870879, 2021-01-15)"><metadata
     id="metadata4507"><rdf:RDF><cc:Work
         rdf:about=""><dc:format>image/svg+xml</dc:format><dc:type
           rdf:resource="http://purl.org/dc/dcmitype/StillImage" /><dc:title></dc:title></cc:Work></rdf:RDF></metadata><defs
     id="defs4505">



</defs><sodipodi:namedview
     pagecolor="#ffffff"
     bordercolor="#666666"
     borderopacity="1"
     objecttolerance="10"
     gridtolerance="10"
     guidetolerance="10"
     inkscape:pageopacity="0"
     inkscape:pageshadow="2"
     inkscape:window-width="1920"
     inkscape:window-height="1001"
     id="namedview4503"
     showgrid="false"
     inkscape:zoom="0.83532743"
     inkscape:cx="427.06467"
     inkscape:cy="470.18321"
     inkscape:window-x="-9"
     inkscape:window-y="-9"
     inkscape:window-maximized="1"
     inkscape:current-layer="g4509"
     inkscape:pagecheckerboard="0"
     inkscape:document-rotation="0"
     fit-margin-top="0"
     fit-margin-left="0"
     fit-margin-right="0"
     fit-margin-bottom="0"
     width="200px" /><g
     id="g4509"
     inkscape:groupmode="layer"
     inkscape:label="portée"
     transform="matrix(1.3333333,0,0,-1.3333333,-20.720467,735.96491)"><path
       d="m 70.820627,489.84177 c -0.24414,-1.65332 -0.36621,-3.32324 -0.36621,-4.99707 0,-17.61426 13.30029,-31.91016 29.688483,-31.91016 16.38719,0 29.68749,14.2959 29.68749,31.91016 0,17.61523 -13.3003,31.91211 -29.68749,31.91211 -9.588383,0 -18.585943,-4.97656 -24.158693,-13.36328 m 14.10693,-44.45899 c 2.9502,4.08985 4.55127,9.11719 4.55127,14.29199 0,12.87403 -9.72022,23.32129 -21.69629,23.32129 -11.97607,0 -21.6958,-10.44726 -21.6958,-23.32129 0,-12.87402 9.71973,-23.32128 21.6958,-23.32128 3.50635,0 6.96094,0.91406 10.06689,2.66308"
       style="fill:none;stroke:#000000;stroke-width:2;stroke-linecap:butt;stroke-linejoin:bevel;stroke-miterlimit:10;stroke-dasharray:none;stroke-opacity:1"
       id="path4513"
       inkscape:connector-curvature="0" /><path
       d="m 68.880051,357.67947 c -7.79346,-23.8457 32.981929,-35.07227 40.360349,-12.49023 4.73828,14.50195 -7.02441,36.13379 -17.858889,44.41699 m 20.116209,-27.2627 c 16.55371,8.24219 15.39405,33.63868 -4.125,35.69336 -17.702629,1.86328 -29.393549,-14.92968 -35.252439,-30.35644 m 12.55567,26.20508 c -13.41211,5.54882 -31.39014,-1.29883 -25.50733,-20.20899 5.59424,-17.98242 32.0625,-20.54297 46.141599,-14.62695"
       style="fill:none;stroke:#000000;stroke-width:2;stroke-linecap:butt;stroke-linejoin:bevel;stroke-miterlimit:10;stroke-dasharray:none;stroke-opacity:1"
       id="path4515"
       inkscape:connector-curvature="0" /><path
       d="m 99.151918,266.33265 c -0.98193,13.6084 -12.03906,24.13574 -25.3501,24.13574 -14.03076,0 -25.41845,-11.6748 -25.41845,-26.05664 0,-11.38184 7.20605,-21.44629 17.79736,-24.85938 m 7.3291,-1.19628 c 0.0977,-0.002 0.19483,-0.002 0.29199,-0.002 12.49268,0 23.13379,9.30664 25.10108,21.95215 m -10.80762,22.01758 c -4.02051,-4.74121 -6.23535,-10.8125 -6.23535,-17.09473 0,-6.72949 2.53906,-13.19824 7.08691,-18.05176 m 5.14209,-4.22363 c 3.97608,-2.47363 8.538582,-3.7832 13.189462,-3.7832 14.03126,0 25.41895,11.67383 25.41895,26.05859 0,14.38281 -11.38769,26.05664 -25.41895,26.05664 -5.39795,0 -10.656742,-1.76269 -15.012702,-5.03027 m 26.472182,-40.875 c -3.36621,10.79687 -13.15529,18.12402 -24.211932,18.12402 -3.24023,0 -6.45068,-0.63476 -9.458,-1.87011 m -5.52246,-3.13477 c -6.55957,-4.90625 -10.43848,-12.72852 -10.43848,-21.05273 0,-14.38379 11.38721,-26.05664 25.41894,-26.05664 14.030772,0 25.418472,11.67285 25.418472,26.05664 0,0.14746 -0.001,0.29394 -0.004,0.44043"
       style="fill:none;stroke:#000000;stroke-width:2;stroke-linecap:butt;stroke-linejoin:bevel;stroke-miterlimit:10;stroke-dasharray:none;stroke-opacity:1"
       id="path4517"
       inkscape:connector-curvature="0" /><path
       d="m 116.53199,-6.6867668 c 18.17969,-3.4609392 36.42383,-25.4199192 12.57422,-30.5546892 M 90.69899,-4.1867668 C 77.51637,-15.423096 67.82887,-29.384026 77.9402,-46.241457 m 27.63183,17.412111 c 9.53418,16.08789 9.89746,41.474609 -10.13183,29.2548892 m -37.0752,9.22168 c 7.11035,-10.01758 37.91406,-10.82618 50.24121,-14.55469 M 83.61696,-17.255127 c 9.39746,-10.758789 23.38964,-19.719719 37.92285,-20.505859 m -46.8418,35.4082092 c 1.25879,-4.45606 3.08105,-4.49121 5.0127,-8.7060592 m 21.44043,-24.46582 C 76.00074,-64.880127 34.8318,-47.389887 41.25953,-6.9426268 43.22535,5.4255432 68.99,30.670653 73.26539,7.3562032 m 53.667,-13.15332 C 127.32789,15.879643 116.51051,32.199953 94.19313,35.491943 81.01637,37.436283 49.99586,31.445073 54.9402,16.925543 m 28.58496,-70.33887 c 7.46484,-7.58008 20.69043,-13.12891 31.0293,-7.58984 14.97949,8.02636 11.25683,31.825191 12.05175,46.428711"
       style="font-variation-settings:normal;opacity:1;vector-effect:none;fill:none;fill-opacity:1;stroke:#000000;stroke-width:2;stroke-linecap:butt;stroke-linejoin:bevel;stroke-miterlimit:10;stroke-dasharray:none;stroke-dashoffset:0;stroke-opacity:1;stop-color:#000000;stop-opacity:1"
       id="path4521"
       inkscape:connector-curvature="0" /><g
       id="g42860"
       transform="translate(-329.87591,-1.9370298)"><path
         d="m 423.04004,167.59082 c 6.59668,4.42676 7.99512,5.01758 16.19141,5.01758 14.57128,0 25.93457,-13.92774 25.93457,-28.92383 0,-14.99512 -11.8125,-27.15234 -26.38575,-27.15234 -12.03418,0 -22.1875,8.29394 -25.35888,19.6289"
         style="font-variation-settings:normal;opacity:1;vector-effect:none;fill:none;fill-opacity:1;stroke:#000000;stroke-width:2;stroke-linecap:butt;stroke-linejoin:bevel;stroke-miterlimit:10;stroke-dasharray:none;stroke-dashoffset:0;stroke-opacity:1;stop-color:#000000;stop-opacity:1"
         id="path4523"
         inkscape:connector-curvature="0" /><path
         d="m 410.74658,143.38965 c 0,6.5625 2.53272,14.49121 6.29737,19.18457"
         style="font-variation-settings:normal;opacity:1;vector-effect:none;fill:none;fill-opacity:1;stroke:#000000;stroke-width:2;stroke-linecap:butt;stroke-linejoin:bevel;stroke-miterlimit:10;stroke-dasharray:none;stroke-dashoffset:0;stroke-opacity:1;stop-color:#000000;stop-opacity:1"
         id="path4525"
         inkscape:connector-curvature="0" /><path
         d="m 418.80957,121.89355 c -4.86621,-3.07714 -10.79541,-4.77148 -16.75781,-4.77148 -14.57227,0 -26.38526,12.15723 -26.38526,27.15137 0,14.99707 11.81299,27.15429 26.38526,27.15429 14.57226,0 27.88379,-10.03515 28.48437,-27.44726"
         style="font-variation-settings:normal;opacity:1;vector-effect:none;fill:none;fill-opacity:1;stroke:#000000;stroke-width:2;stroke-linecap:butt;stroke-linejoin:bevel;stroke-miterlimit:10;stroke-dasharray:none;stroke-dashoffset:0;stroke-opacity:1;stop-color:#000000;stop-opacity:1"
         id="path4527"
         inkscape:connector-curvature="0" /><path
         d="m 430.90647,137.15611 c -0.66553,-4.32256 -3.92703,-8.55665 -7.26682,-11.47545"
         style="font-variation-settings:normal;opacity:1;vector-effect:none;fill:none;fill-opacity:1;stroke:#000000;stroke-width:2;stroke-linecap:butt;stroke-linejoin:bevel;stroke-miterlimit:10;stroke-dasharray:none;stroke-dashoffset:0;stroke-opacity:1;stop-color:#000000;stop-opacity:1"
         id="path4529"
         inkscape:connector-curvature="0"
         sodipodi:nodetypes="cc" /><path
         d="m 450.32422,114.76172 c 0,-14.99609 -11.8125,-27.15234 -26.38477,-27.15234 -14.57226,0 -26.38525,12.15625 -26.38525,27.15234"
         style="font-variation-settings:normal;opacity:1;vector-effect:none;fill:none;fill-opacity:1;stroke:#000000;stroke-width:2;stroke-linecap:butt;stroke-linejoin:bevel;stroke-miterlimit:10;stroke-dasharray:none;stroke-dashoffset:0;stroke-opacity:1;stop-color:#000000;stop-opacity:1"
         id="path4531"
         inkscape:connector-curvature="0" /><path
         d="m 398.08984,120.2334 c 2.46045,12.37305 13.09912,21.67969 25.84961,21.67969 11.7461,0 21.70118,-7.90039 25.11817,-18.81934"
         style="font-variation-settings:normal;opacity:1;vector-effect:none;fill:none;fill-opacity:1;stroke:#000000;stroke-width:2;stroke-linecap:butt;stroke-linejoin:bevel;stroke-miterlimit:10;stroke-dasharray:none;stroke-dashoffset:0;stroke-opacity:1;stop-color:#000000;stop-opacity:1"
         id="path4533"
         inkscape:connector-curvature="0" /></g><text
       transform="scale(1,-1)"
       style="font-style:normal;font-variant:normal;font-weight:normal;font-stretch:normal;font-size:12px;font-family:sans-serif;-inkscape-font-specification:sans-serif;writing-mode:lr-tb;fill:#000000;fill-opacity:1;fill-rule:nonzero;stroke:none"
       id="text4567-2"
       y="-458.58435"
       x="-57.879189"><tspan
         x="-57.879189"
         y="-458.58435"
         sodipodi:role="line"
         id="tspan4561-0" /><tspan
         x="68.120811 74.504814"
         y="-431.58435"
         sodipodi:role="line"
         id="tspan4565-9">P : 1 , 1</tspan></text><text
       transform="scale(1,-1)"
       style="font-style:normal;font-variant:normal;font-weight:normal;font-stretch:normal;font-size:12px;font-family:sans-serif;-inkscape-font-specification:sans-serif;writing-mode:lr-tb;fill:#000000;fill-opacity:1;fill-rule:nonzero;stroke:none"
       id="text4567-2-6"
       y="-339.71887"
       x="-55.974895"><tspan
         x="-55.974895"
         y="-339.71887"
         sodipodi:role="line"
         id="tspan4561-0-7" /><tspan
         x="70.025116 76.409111"
         y="-312.71887"
         sodipodi:role="line"
         id="tspan4565-9-6">P : 111</tspan></text><text
       transform="scale(1,-1)"
       style="font-style:normal;font-variant:normal;font-weight:normal;font-stretch:normal;font-size:12px;font-family:sans-serif;-inkscape-font-specification:sans-serif;writing-mode:lr-tb;fill:#000000;fill-opacity:1;fill-rule:nonzero;stroke:none"
       id="text4567-2-6-6"
       y="-223.09012"
       x="-71.241455"><tspan
         x="-71.241455"
         y="-223.09012"
         sodipodi:role="line"
         id="tspan4561-0-7-4" /><tspan
         x="54.758507 61.142509"
         y="-196.09012"
         sodipodi:role="line"
         id="tspan4565-9-6-2">P : 11,11,11</tspan></text><text
       transform="scale(1,-1)"
       style="font-style:normal;font-variant:normal;font-weight:normal;font-stretch:normal;font-size:12px;font-family:sans-serif;-inkscape-font-specification:sans-serif;writing-mode:lr-tb;fill:#000000;fill-opacity:1;fill-rule:nonzero;stroke:none"
       id="text4567-2-6-8"
       y="-96.422836"
       x="-71.194656"><tspan
         x="-71.194656"
         y="-96.422836"
         sodipodi:role="line"
         id="tspan4561-0-7-6" /><tspan
         x="54.805382 61.189384"
         y="-69.422836"
         sodipodi:role="line"
         id="tspan4565-9-6-7">P : 02,02,02</tspan></text><text
       transform="scale(1,-1)"
       style="font-style:normal;font-variant:normal;font-weight:normal;font-stretch:normal;font-size:12px;font-family:sans-serif;-inkscape-font-specification:sans-serif;writing-mode:lr-tb;fill:#000000;fill-opacity:1;fill-rule:nonzero;stroke:none"
       id="text4567-2-6-8-4"
       y="53.479637"
       x="-78.832329"><tspan
         x="-78.832329"
         y="53.479637"
         sodipodi:role="line"
         id="tspan4561-0-7-6-3" /><tspan
         x="47.167671 53.551704"
         y="80.479637"
         sodipodi:role="line"
         id="tspan4565-9-6-7-2">P : 011120112</tspan></text></g></svg>
