<?xml version="1.0" encoding="UTF-8" standalone="no"?>
<svg
   xmlns:dc="http://purl.org/dc/elements/1.1/"
   xmlns:cc="http://creativecommons.org/ns#"
   xmlns:rdf="http://www.w3.org/1999/02/22-rdf-syntax-ns#"
   xmlns:svg="http://www.w3.org/2000/svg"
   xmlns="http://www.w3.org/2000/svg"
   xmlns:sodipodi="http://sodipodi.sourceforge.net/DTD/sodipodi-0.dtd"
   xmlns:inkscape="http://www.inkscape.org/namespaces/inkscape"
   version="1.1"
   id="svg2"
   xml:space="preserve"
   width="710.21857"
   height="182.59419"
   viewBox="0 0 710.21855 182.59419"
   sodipodi:docname="adjacence.svg"
   inkscape:version="1.0.2-2 (e86c870879, 2021-01-15)"><metadata
     id="metadata8"><rdf:RDF><cc:Work
         rdf:about=""><dc:format>image/svg+xml</dc:format><dc:type
           rdf:resource="http://purl.org/dc/dcmitype/StillImage" /><dc:title></dc:title></cc:Work></rdf:RDF></metadata><defs
     id="defs6"><clipPath
       clipPathUnits="userSpaceOnUse"
       id="clipPath382"><path
         d="M 326.811,485.792 H 428.869 V 374.264 H 326.811 Z"
         id="path380" /></clipPath></defs><sodipodi:namedview
     pagecolor="#ffffff"
     bordercolor="#666666"
     borderopacity="1"
     objecttolerance="10"
     gridtolerance="10"
     guidetolerance="10"
     inkscape:pageopacity="0"
     inkscape:pageshadow="2"
     inkscape:window-width="1920"
     inkscape:window-height="1001"
     id="namedview4"
     showgrid="false"
     inkscape:zoom="1"
     inkscape:cx="298.29602"
     inkscape:cy="294.56011"
     inkscape:window-x="-9"
     inkscape:window-y="-9"
     inkscape:window-maximized="1"
     inkscape:current-layer="g10"
     inkscape:document-rotation="0"
     fit-margin-top="10"
     fit-margin-left="10"
     fit-margin-right="10"
     fit-margin-bottom="10" /><g
     id="g10"
     inkscape:groupmode="layer"
     inkscape:label="adjacence"
     transform="matrix(1.3333333,0,0,-1.3333333,-201.09719,855.8201)"><g
       id="g28"
       transform="translate(592.95318,572.00587)"><path
         d="M 0,0 21.354,-0.001"
         style="fill:none;stroke:#1a171b;stroke-width:1;stroke-linecap:butt;stroke-linejoin:miter;stroke-miterlimit:4;stroke-dasharray:none;stroke-opacity:1"
         id="path30" /></g><g
       id="g32"
       transform="translate(616.08598,572.00587)"><path
         d="M 0,0 H 46.27"
         style="fill:none;stroke:#1a171b;stroke-width:1;stroke-linecap:butt;stroke-linejoin:miter;stroke-miterlimit:4;stroke-dasharray:none;stroke-opacity:1"
         id="path34" /></g><g
       id="g36"
       transform="translate(642.52548,602.51077)"><path
         d="M 0,0 19.83,-30.505"
         style="fill:none;stroke:#1a171b;stroke-width:1;stroke-linecap:butt;stroke-linejoin:miter;stroke-miterlimit:4;stroke-dasharray:none;stroke-opacity:1"
         id="path38" /></g><g
       id="g40"
       transform="translate(662.35558,572.00587)"><path
         d="M 0,0 -27.457,-28.982"
         style="fill:none;stroke:#1a171b;stroke-width:1;stroke-linecap:butt;stroke-linejoin:miter;stroke-miterlimit:4;stroke-dasharray:none;stroke-opacity:1"
         id="path42" /></g><g
       id="g44"
       transform="translate(603.63098,543.02347)"><path
         d="M 0,0 35.59,28.982"
         style="fill:none;stroke:#1a171b;stroke-width:1;stroke-linecap:butt;stroke-linejoin:miter;stroke-miterlimit:4;stroke-dasharray:none;stroke-opacity:1"
         id="path46" /></g><g
       id="g48"
       transform="translate(592.95318,572.00587)"><path
         d="M 0,0 10.678,-28.982"
         style="fill:none;stroke:#1a171b;stroke-width:1;stroke-linecap:butt;stroke-linejoin:miter;stroke-miterlimit:4;stroke-dasharray:none;stroke-opacity:1"
         id="path50" /></g><g
       id="g52"
       transform="translate(603.63098,543.02347)"><path
         d="M 0,0 H 31.268"
         style="fill:none;stroke:#1a171b;stroke-width:1;stroke-linecap:butt;stroke-linejoin:miter;stroke-miterlimit:4;stroke-dasharray:none;stroke-opacity:1"
         id="path54" /></g><g
       id="g56"
       transform="translate(592.95318,572.00587)"><path
         d="M 0,0 24.404,30.505"
         style="fill:none;stroke:#1a171b;stroke-width:1;stroke-linecap:butt;stroke-linejoin:miter;stroke-miterlimit:4;stroke-dasharray:none;stroke-opacity:1"
         id="path58" /></g><g
       id="g60"
       transform="translate(617.35748,602.51077)"><path
         d="M 0,0 21.863,-30.505"
         style="fill:none;stroke:#1a171b;stroke-width:1;stroke-linecap:butt;stroke-linejoin:miter;stroke-miterlimit:4;stroke-dasharray:none;stroke-opacity:1"
         id="path62" /></g><g
       id="g64"
       transform="translate(617.35748,602.51077)"><path
         d="M 0,0 H 25.168"
         style="fill:none;stroke:#1a171b;stroke-width:1;stroke-linecap:butt;stroke-linejoin:miter;stroke-miterlimit:4;stroke-dasharray:none;stroke-opacity:1"
         id="path66" /></g><g
       id="g68"
       transform="translate(644.05088,623.48437)"><path
         d="M 0,0 -1.525,-20.974"
         style="fill:none;stroke:#1a171b;stroke-width:1;stroke-linecap:butt;stroke-linejoin:miter;stroke-miterlimit:4;stroke-dasharray:none;stroke-opacity:1"
         id="path70" /></g><g
       id="g72"
       transform="translate(617.35748,602.51077)"><path
         d="M 0,0 C -20.594,11.44 -48.049,12.966 -48.049,12.966"
         style="fill:none;stroke:#1a171b;stroke-width:1;stroke-linecap:butt;stroke-linejoin:miter;stroke-miterlimit:4;stroke-dasharray:none;stroke-opacity:1"
         id="path74" /></g><g
       id="g76"
       transform="translate(644.05088,623.48437)"><path
         d="M 0,0 C -16.016,4.195 -61.775,-1.907 -75.504,-7.245"
         style="fill:none;stroke:#1a171b;stroke-width:1;stroke-linecap:butt;stroke-linejoin:miter;stroke-miterlimit:4;stroke-dasharray:none;stroke-opacity:1"
         id="path78" /></g><g
       id="g80"
       transform="translate(603.63098,543.02347)"><path
         d="M 0,0 C -16.02,4.576 -36.609,52.623 -35.846,68.64"
         style="fill:#ffffff;fill-opacity:1;fill-rule:nonzero;stroke:#1a171b;stroke-width:1;stroke-linecap:butt;stroke-linejoin:miter;stroke-miterlimit:4;stroke-dasharray:none;stroke-opacity:1"
         id="path82" /></g><g
       id="g84"
       transform="translate(662.35558,572.00587)"><path
         d="m 0,0 c 6.102,-16.018 -24.406,-72.454 -65.592,-55.676 -41.183,16.779 -41.945,75.885 -32.793,96.477"
         style="fill:none;stroke:#1a171b;stroke-width:1;stroke-linecap:butt;stroke-linejoin:miter;stroke-miterlimit:4;stroke-dasharray:none;stroke-opacity:1"
         id="path86" /></g><g
       id="g88"
       transform="translate(646.88578,623.48437)"><path
         d="m 0,0 c 0,-1.565 -1.27,-2.834 -2.835,-2.834 -1.565,0 -2.835,1.269 -2.835,2.834 0,1.566 1.27,2.835 2.835,2.835 C -1.27,2.835 0,1.566 0,0"
         style="fill:#ffffff;fill-opacity:1;fill-rule:nonzero;stroke:none"
         id="path90" /></g><g
       id="g92"
       transform="translate(646.88578,623.48437)"><path
         d="m 0,0 c 0,-1.565 -1.27,-2.834 -2.835,-2.834 -1.565,0 -2.835,1.269 -2.835,2.834 0,1.566 1.27,2.835 2.835,2.835 C -1.27,2.835 0,1.566 0,0 Z"
         style="fill:none;stroke:#1a171b;stroke-width:0.848;stroke-linecap:butt;stroke-linejoin:miter;stroke-miterlimit:4;stroke-dasharray:none;stroke-opacity:1"
         id="path94" /></g><g
       id="g96"
       transform="translate(665.18858,572.00487)"><path
         d="m 0,0 c 0,-1.566 -1.268,-2.834 -2.833,-2.834 -1.566,0 -2.837,1.268 -2.837,2.834 0,1.565 1.271,2.834 2.837,2.834 C -1.268,2.834 0,1.565 0,0"
         style="fill:#ffffff;fill-opacity:1;fill-rule:nonzero;stroke:none"
         id="path98" /></g><g
       id="g100"
       transform="translate(665.18858,572.00487)"><path
         d="m 0,0 c 0,-1.566 -1.268,-2.834 -2.833,-2.834 -1.566,0 -2.837,1.268 -2.837,2.834 0,1.565 1.271,2.834 2.837,2.834 C -1.268,2.834 0,1.565 0,0 Z"
         style="fill:none;stroke:#1a171b;stroke-width:0.848;stroke-linecap:butt;stroke-linejoin:miter;stroke-miterlimit:4;stroke-dasharray:none;stroke-opacity:1"
         id="path102" /></g><g
       id="g104"
       transform="translate(606.46488,543.02347)"><path
         d="m 0,0 c 0,-1.565 -1.269,-2.835 -2.836,-2.835 -1.563,0 -2.834,1.27 -2.834,2.835 0,1.565 1.271,2.834 2.834,2.834 C -1.269,2.834 0,1.565 0,0"
         style="fill:#ffffff;fill-opacity:1;fill-rule:nonzero;stroke:none"
         id="path106" /></g><g
       id="g108"
       transform="translate(606.46488,543.02347)"><path
         d="m 0,0 c 0,-1.565 -1.269,-2.835 -2.836,-2.835 -1.563,0 -2.834,1.27 -2.834,2.835 0,1.565 1.271,2.834 2.834,2.834 C -1.269,2.834 0,1.565 0,0 Z"
         style="fill:none;stroke:#1a171b;stroke-width:0.848;stroke-linecap:butt;stroke-linejoin:miter;stroke-miterlimit:4;stroke-dasharray:none;stroke-opacity:1"
         id="path110" /></g><g
       id="g112"
       transform="translate(620.19248,602.51167)"><path
         d="m 0,0 c 0,-1.565 -1.27,-2.835 -2.835,-2.835 -1.565,0 -2.835,1.27 -2.835,2.835 0,1.566 1.27,2.833 2.835,2.833 C -1.27,2.833 0,1.566 0,0"
         style="fill:#ffffff;fill-opacity:1;fill-rule:nonzero;stroke:none"
         id="path114" /></g><g
       id="g116"
       transform="translate(620.19248,602.51167)"><path
         d="m 0,0 c 0,-1.565 -1.27,-2.835 -2.835,-2.835 -1.565,0 -2.835,1.27 -2.835,2.835 0,1.566 1.27,2.833 2.835,2.833 C -1.27,2.833 0,1.566 0,0 Z"
         style="fill:none;stroke:#1a171b;stroke-width:0.848;stroke-linecap:butt;stroke-linejoin:miter;stroke-miterlimit:4;stroke-dasharray:none;stroke-opacity:1"
         id="path118" /></g><g
       id="g120"
       transform="translate(618.92098,572.00487)"><path
         d="m 0,0 c 0,-1.566 -1.27,-2.834 -2.835,-2.834 -1.564,0 -2.835,1.268 -2.835,2.834 0,1.565 1.271,2.834 2.835,2.834 C -1.27,2.834 0,1.565 0,0"
         style="fill:#ffffff;fill-opacity:1;fill-rule:nonzero;stroke:none"
         id="path122" /></g><g
       id="g124"
       transform="translate(618.92098,572.00487)"><path
         d="m 0,0 c 0,-1.566 -1.27,-2.834 -2.835,-2.834 -1.564,0 -2.835,1.268 -2.835,2.834 0,1.565 1.271,2.834 2.835,2.834 C -1.27,2.834 0,1.565 0,0 Z"
         style="fill:none;stroke:#1a171b;stroke-width:0.848;stroke-linecap:butt;stroke-linejoin:miter;stroke-miterlimit:4;stroke-dasharray:none;stroke-opacity:1"
         id="path126" /></g><g
       id="g128"
       transform="translate(637.73548,543.02347)"><path
         d="m 0,0 c 0,-1.565 -1.271,-2.835 -2.837,-2.835 -1.563,0 -2.833,1.27 -2.833,2.835 0,1.565 1.27,2.834 2.833,2.834 C -1.271,2.834 0,1.565 0,0"
         style="fill:#1a171b;fill-opacity:1;fill-rule:nonzero;stroke:none"
         id="path130" /></g><g
       id="g132"
       transform="translate(637.73548,543.02347)"><path
         d="m 0,0 c 0,-1.565 -1.271,-2.835 -2.837,-2.835 -1.563,0 -2.833,1.27 -2.833,2.835 0,1.565 1.27,2.834 2.833,2.834 C -1.271,2.834 0,1.565 0,0 Z"
         style="fill:none;stroke:#1a171b;stroke-width:0.848;stroke-linecap:butt;stroke-linejoin:miter;stroke-miterlimit:4;stroke-dasharray:none;stroke-opacity:1"
         id="path134" /></g><g
       id="g136"
       transform="translate(595.78718,572.00487)"><path
         d="m 0,0 c 0,-1.566 -1.271,-2.834 -2.834,-2.834 -1.567,0 -2.836,1.268 -2.836,2.834 0,1.565 1.269,2.834 2.836,2.834 C -1.271,2.834 0,1.565 0,0"
         style="fill:#1a171b;fill-opacity:1;fill-rule:nonzero;stroke:none"
         id="path138" /></g><g
       id="g140"
       transform="translate(595.78718,572.00487)"><path
         d="m 0,0 c 0,-1.566 -1.271,-2.834 -2.834,-2.834 -1.567,0 -2.836,1.268 -2.836,2.834 0,1.565 1.269,2.834 2.836,2.834 C -1.271,2.834 0,1.565 0,0 Z"
         style="fill:none;stroke:#1a171b;stroke-width:0.847;stroke-linecap:butt;stroke-linejoin:miter;stroke-miterlimit:4;stroke-dasharray:none;stroke-opacity:1"
         id="path142" /></g><g
       id="g144"
       transform="translate(642.05478,572.00487)"><path
         d="m 0,0 c 0,-1.566 -1.269,-2.834 -2.834,-2.834 -1.565,0 -2.836,1.268 -2.836,2.834 0,1.565 1.271,2.834 2.836,2.834 C -1.269,2.834 0,1.565 0,0"
         style="fill:#1a171b;fill-opacity:1;fill-rule:nonzero;stroke:none"
         id="path146" /></g><g
       id="g148"
       transform="translate(642.05478,572.00487)"><path
         d="m 0,0 c 0,-1.566 -1.269,-2.834 -2.834,-2.834 -1.565,0 -2.836,1.268 -2.836,2.834 0,1.565 1.271,2.834 2.836,2.834 C -1.269,2.834 0,1.565 0,0 Z"
         style="fill:none;stroke:#1a171b;stroke-width:0.847;stroke-linecap:butt;stroke-linejoin:miter;stroke-miterlimit:4;stroke-dasharray:none;stroke-opacity:1"
         id="path150" /></g><g
       id="g152"
       transform="translate(645.36048,602.51167)"><path
         d="m 0,0 c 0,-1.565 -1.27,-2.835 -2.835,-2.835 -1.565,0 -2.835,1.27 -2.835,2.835 0,1.566 1.27,2.833 2.835,2.833 C -1.27,2.833 0,1.566 0,0"
         style="fill:#1a171b;fill-opacity:1;fill-rule:nonzero;stroke:none"
         id="path154" /></g><g
       id="g156"
       transform="translate(645.36048,602.51167)"><path
         d="m 0,0 c 0,-1.565 -1.27,-2.835 -2.835,-2.835 -1.565,0 -2.835,1.27 -2.835,2.835 0,1.566 1.27,2.833 2.835,2.833 C -1.27,2.833 0,1.566 0,0 Z"
         style="fill:none;stroke:#1a171b;stroke-width:0.848;stroke-linecap:butt;stroke-linejoin:miter;stroke-miterlimit:4;stroke-dasharray:none;stroke-opacity:1"
         id="path158" /></g><g
       id="g160"
       transform="translate(569.85558,613.95167)"><path
         d="m 0,0 c 0,-1.566 -1.269,-2.835 -2.834,-2.835 -1.565,0 -2.836,1.269 -2.836,2.835 0,1.565 1.271,2.834 2.836,2.834 C -1.269,2.834 0,1.565 0,0"
         style="fill:#1a171b;fill-opacity:1;fill-rule:nonzero;stroke:none"
         id="path162" /></g><g
       id="g164"
       transform="translate(569.85558,613.95167)"><path
         d="m 0,0 c 0,-1.566 -1.269,-2.835 -2.834,-2.835 -1.565,0 -2.836,1.269 -2.836,2.835 0,1.565 1.271,2.834 2.836,2.834 C -1.269,2.834 0,1.565 0,0 Z"
         style="fill:none;stroke:#1a171b;stroke-width:0.847;stroke-linecap:butt;stroke-linejoin:miter;stroke-miterlimit:4;stroke-dasharray:none;stroke-opacity:1"
         id="path166" /></g><g
       id="g168"
       transform="translate(637.22278,591.98047)"><path
         d="M 0,0 C -5.408,7.468 -15.59,34.56 -4.652,39.698 6.285,44.837 24.707,38.458 18.129,16.15"
         style="fill:none;stroke:#e2001a;stroke-width:2;stroke-linecap:butt;stroke-linejoin:miter;stroke-miterlimit:4;stroke-dasharray:none;stroke-opacity:1"
         id="path170" /></g><g
       id="g172"
       transform="translate(651.91998,598.97947)"><path
         d="m 0,0 c -6.006,-10.868 -16.873,-13.729 -30.029,-11.44 -15.026,2.613 -24.024,-19.735 -15.5,-24.417"
         style="fill:none;stroke:#e2001a;stroke-width:2;stroke-linecap:butt;stroke-linejoin:miter;stroke-miterlimit:4;stroke-dasharray:none;stroke-opacity:1"
         id="path174" /></g><g
       id="g176"
       transform="translate(615.31258,559.22457)"><path
         d="M 0,0 C 16.236,-3.244 51.48,-3.146 19.447,-25.454"
         style="fill:none;stroke:#e2001a;stroke-width:2;stroke-linecap:butt;stroke-linejoin:miter;stroke-miterlimit:4;stroke-dasharray:none;stroke-opacity:1"
         id="path178" /></g><g
       id="g180"
       transform="translate(623.75788,527.62597)"><path
         d="m 0,0 c -10.461,-8.364 -38.625,-3.012 -45.906,16.874 -14.051,38.377 26.021,57.625 36.285,45.098"
         style="fill:none;stroke:#e2001a;stroke-width:2;stroke-linecap:butt;stroke-linejoin:miter;stroke-miterlimit:4;stroke-dasharray:none;stroke-opacity:1"
         id="path182" /></g><g
       id="g184"
       transform="translate(619.60168,583.24907)"><path
         d="m 0,0 c 17.445,-12.298 -10.582,-27.456 -18.59,-24.024 -7.332,3.141 -19.447,7.436 -12.869,22.022"
         style="fill:none;stroke:#e2001a;stroke-width:2;stroke-linecap:butt;stroke-linejoin:miter;stroke-miterlimit:4;stroke-dasharray:none;stroke-opacity:1"
         id="path186" /></g><g
       id="g188"
       transform="translate(589.28718,592.97367)"><path
         d="M 0,0 C 2.287,17.16 6.139,27.467 34.369,22.585"
         style="fill:none;stroke:#e2001a;stroke-width:2;stroke-linecap:butt;stroke-linejoin:miter;stroke-miterlimit:4;stroke-dasharray:none;stroke-opacity:1"
         id="path190" /></g><g
       id="g192"
       transform="translate(634.30478,614.00637)"><path
         d="m 0,0 c 15.328,-2.729 28.482,-19.889 37.35,-36.192 9.621,-17.69 -1.858,-59.143 -33.512,-48.789 -31.125,10.18 -9.268,21.067 -6.242,24.194"
         style="fill:none;stroke:#e2001a;stroke-width:2;stroke-linecap:butt;stroke-linejoin:miter;stroke-miterlimit:4;stroke-dasharray:none;stroke-opacity:1"
         id="path194" /></g><g
       id="g196"
       transform="translate(639.07238,559.50877)"><path
         d="M 0,0 C 7.48,7.392 15.152,12.727 4.563,24.194"
         style="fill:none;stroke:#e2001a;stroke-width:2;stroke-linecap:butt;stroke-linejoin:miter;stroke-miterlimit:4;stroke-dasharray:none;stroke-opacity:1"
         id="path198" /></g><g
       id="g200"
       transform="translate(366.11678,571.67577)"><path
         d="M 0,0 H 23.135"
         style="fill:none;stroke:#1a171b;stroke-width:1;stroke-linecap:butt;stroke-linejoin:miter;stroke-miterlimit:4;stroke-dasharray:none;stroke-opacity:1"
         id="path202" /></g><g
       id="g204"
       transform="translate(369.42198,602.18167)"><path
         d="M 0,0 19.83,-30.506"
         style="fill:none;stroke:#1a171b;stroke-width:1;stroke-linecap:butt;stroke-linejoin:miter;stroke-miterlimit:4;stroke-dasharray:none;stroke-opacity:1"
         id="path206" /></g><g
       id="g208"
       transform="translate(389.25208,571.67577)"><path
         d="M 0,0 -27.456,-28.982"
         style="fill:none;stroke:#1a171b;stroke-width:1;stroke-linecap:butt;stroke-linejoin:miter;stroke-miterlimit:4;stroke-dasharray:none;stroke-opacity:1"
         id="path210" /></g><g
       id="g212"
       transform="translate(389.25208,571.67577)"><path
         d="m 0,0 c 6.102,-16.018 -24.406,-72.454 -65.59,-55.677 -41.184,16.78 -41.946,75.886 -32.794,96.478"
         style="fill:none;stroke:#1a171b;stroke-width:1;stroke-linecap:butt;stroke-linejoin:miter;stroke-miterlimit:4;stroke-dasharray:none;stroke-opacity:1"
         id="path214" /></g><g
       id="g216"
       transform="translate(392.08648,571.67477)"><path
         d="m 0,0 c 0,-1.566 -1.269,-2.835 -2.833,-2.835 -1.566,0 -2.836,1.269 -2.836,2.835 0,1.565 1.27,2.834 2.836,2.834 C -1.269,2.834 0,1.565 0,0"
         style="fill:#ffffff;fill-opacity:1;fill-rule:nonzero;stroke:none"
         id="path218" /></g><g
       id="g220"
       transform="translate(392.08648,571.67477)"><path
         d="m 0,0 c 0,-1.566 -1.269,-2.835 -2.833,-2.835 -1.566,0 -2.836,1.269 -2.836,2.835 0,1.565 1.27,2.834 2.836,2.834 C -1.269,2.834 0,1.565 0,0 Z"
         style="fill:none;stroke:#1a171b;stroke-width:0.848;stroke-linecap:butt;stroke-linejoin:miter;stroke-miterlimit:4;stroke-dasharray:none;stroke-opacity:1"
         id="path222" /></g><g
       id="g224"
       transform="translate(364.63188,542.69337)"><path
         d="m 0,0 c 0,-1.565 -1.27,-2.835 -2.836,-2.835 -1.563,0 -2.833,1.27 -2.833,2.835 0,1.565 1.27,2.834 2.833,2.834 C -1.27,2.834 0,1.565 0,0"
         style="fill:#1a171b;fill-opacity:1;fill-rule:nonzero;stroke:none"
         id="path226" /></g><g
       id="g228"
       transform="translate(364.63188,542.69337)"><path
         d="m 0,0 c 0,-1.565 -1.27,-2.835 -2.836,-2.835 -1.563,0 -2.833,1.27 -2.833,2.835 0,1.565 1.27,2.834 2.833,2.834 C -1.27,2.834 0,1.565 0,0 Z"
         style="fill:none;stroke:#1a171b;stroke-width:0.848;stroke-linecap:butt;stroke-linejoin:miter;stroke-miterlimit:4;stroke-dasharray:none;stroke-opacity:1"
         id="path230" /></g><g
       id="g232"
       transform="translate(368.95268,571.67477)"><path
         d="m 0,0 c 0,-1.566 -1.27,-2.835 -2.835,-2.835 -1.565,0 -2.834,1.269 -2.834,2.835 0,1.565 1.269,2.834 2.834,2.834 C -1.27,2.834 0,1.565 0,0"
         style="fill:#1a171b;fill-opacity:1;fill-rule:nonzero;stroke:none"
         id="path234" /></g><g
       id="g236"
       transform="translate(368.95268,571.67477)"><path
         d="m 0,0 c 0,-1.566 -1.27,-2.835 -2.835,-2.835 -1.565,0 -2.834,1.269 -2.834,2.835 0,1.565 1.269,2.834 2.834,2.834 C -1.27,2.834 0,1.565 0,0 Z"
         style="fill:none;stroke:#1a171b;stroke-width:0.848;stroke-linecap:butt;stroke-linejoin:miter;stroke-miterlimit:4;stroke-dasharray:none;stroke-opacity:1"
         id="path238" /></g><g
       id="g240"
       transform="translate(372.25788,602.18167)"><path
         d="m 0,0 c 0,-1.566 -1.27,-2.835 -2.835,-2.835 -1.565,0 -2.834,1.269 -2.834,2.835 0,1.565 1.269,2.833 2.834,2.833 C -1.27,2.833 0,1.565 0,0"
         style="fill:#1a171b;fill-opacity:1;fill-rule:nonzero;stroke:none"
         id="path242" /></g><g
       id="g244"
       transform="translate(372.25788,602.18167)"><path
         d="m 0,0 c 0,-1.566 -1.27,-2.835 -2.835,-2.835 -1.565,0 -2.834,1.269 -2.834,2.835 0,1.565 1.269,2.833 2.834,2.833 C -1.27,2.833 0,1.565 0,0 Z"
         style="fill:none;stroke:#1a171b;stroke-width:0.848;stroke-linecap:butt;stroke-linejoin:miter;stroke-miterlimit:4;stroke-dasharray:none;stroke-opacity:1"
         id="path246" /></g><g
       id="g248"
       transform="translate(296.75298,613.62057)"><path
         d="m 0,0 c 0,-1.565 -1.27,-2.835 -2.834,-2.835 -1.565,0 -2.835,1.27 -2.835,2.835 0,1.566 1.27,2.834 2.835,2.834 C -1.27,2.834 0,1.566 0,0"
         style="fill:#1a171b;fill-opacity:1;fill-rule:nonzero;stroke:none"
         id="path250" /></g><g
       id="g252"
       transform="translate(296.75298,613.62057)"><path
         d="m 0,0 c 0,-1.565 -1.27,-2.835 -2.834,-2.835 -1.565,0 -2.835,1.27 -2.835,2.835 0,1.566 1.27,2.834 2.835,2.834 C -1.27,2.834 0,1.566 0,0 Z"
         style="fill:none;stroke:#1a171b;stroke-width:0.848;stroke-linecap:butt;stroke-linejoin:miter;stroke-miterlimit:4;stroke-dasharray:none;stroke-opacity:1"
         id="path254" /></g><g
       id="g256"
       transform="translate(479.32428,572.00587)"><path
         d="M 0,0 H 46.27"
         style="fill:none;stroke:#1a171b;stroke-width:1;stroke-linecap:butt;stroke-linejoin:miter;stroke-miterlimit:4;stroke-dasharray:none;stroke-opacity:1"
         id="path258" /></g><g
       id="g260"
       transform="translate(505.76378,602.51167)"><path
         d="M 0,0 19.83,-30.506"
         style="fill:none;stroke:#1a171b;stroke-width:1;stroke-linecap:butt;stroke-linejoin:miter;stroke-miterlimit:4;stroke-dasharray:none;stroke-opacity:1"
         id="path262" /></g><g
       id="g264"
       transform="translate(525.59388,572.00587)"><path
         d="M 0,0 -27.457,-28.982"
         style="fill:none;stroke:#1a171b;stroke-width:1;stroke-linecap:butt;stroke-linejoin:miter;stroke-miterlimit:4;stroke-dasharray:none;stroke-opacity:1"
         id="path266" /></g><g
       id="g268"
       transform="translate(466.86918,543.02347)"><path
         d="M 0,0 35.59,28.982"
         style="fill:none;stroke:#1a171b;stroke-width:1;stroke-linecap:butt;stroke-linejoin:miter;stroke-miterlimit:4;stroke-dasharray:none;stroke-opacity:1"
         id="path270" /></g><g
       id="g272"
       transform="translate(466.86918,543.02347)"><path
         d="M 0,0 H 31.268"
         style="fill:none;stroke:#1a171b;stroke-width:1;stroke-linecap:butt;stroke-linejoin:miter;stroke-miterlimit:4;stroke-dasharray:none;stroke-opacity:1"
         id="path274" /></g><g
       id="g276"
       transform="translate(480.59578,602.51167)"><path
         d="M 0,0 21.863,-30.506"
         style="fill:none;stroke:#1a171b;stroke-width:1;stroke-linecap:butt;stroke-linejoin:miter;stroke-miterlimit:4;stroke-dasharray:none;stroke-opacity:1"
         id="path278" /></g><g
       id="g280"
       transform="translate(480.59578,602.51167)"><path
         d="M 0,0 H 25.168"
         style="fill:none;stroke:#1a171b;stroke-width:1;stroke-linecap:butt;stroke-linejoin:miter;stroke-miterlimit:4;stroke-dasharray:none;stroke-opacity:1"
         id="path282" /></g><g
       id="g284"
       transform="translate(507.28918,623.48387)"><path
         d="M 0,0 -1.525,-20.972"
         style="fill:none;stroke:#1a171b;stroke-width:1;stroke-linecap:butt;stroke-linejoin:miter;stroke-miterlimit:4;stroke-dasharray:none;stroke-opacity:1"
         id="path286" /></g><g
       id="g288"
       transform="translate(480.59578,602.51167)"><path
         d="M 0,0 C -20.594,11.439 -48.049,12.964 -48.049,12.964"
         style="fill:none;stroke:#1a171b;stroke-width:1;stroke-linecap:butt;stroke-linejoin:miter;stroke-miterlimit:4;stroke-dasharray:none;stroke-opacity:1"
         id="path290" /></g><g
       id="g292"
       transform="translate(507.28918,623.48387)"><path
         d="M 0,0 C -16.016,4.195 -61.775,-1.907 -75.503,-7.245"
         style="fill:none;stroke:#1a171b;stroke-width:1;stroke-linecap:butt;stroke-linejoin:miter;stroke-miterlimit:4;stroke-dasharray:none;stroke-opacity:1"
         id="path294" /></g><g
       id="g296"
       transform="translate(466.86918,543.02347)"><path
         d="M 0,0 C -16.019,4.576 -36.609,52.623 -35.846,68.639"
         style="fill:#ffffff;fill-opacity:1;fill-rule:nonzero;stroke:#1a171b;stroke-width:1;stroke-linecap:butt;stroke-linejoin:miter;stroke-miterlimit:4;stroke-dasharray:none;stroke-opacity:1"
         id="path298" /></g><g
       id="g300"
       transform="translate(525.59388,572.00587)"><path
         d="m 0,0 c 6.102,-16.018 -24.406,-72.454 -65.592,-55.676 -41.181,16.779 -41.945,75.885 -32.793,96.476"
         style="fill:none;stroke:#1a171b;stroke-width:1;stroke-linecap:butt;stroke-linejoin:miter;stroke-miterlimit:4;stroke-dasharray:none;stroke-opacity:1"
         id="path302" /></g><g
       id="g304"
       transform="translate(510.12408,623.48387)"><path
         d="m 0,0 c 0,-1.566 -1.27,-2.834 -2.835,-2.834 -1.564,0 -2.835,1.268 -2.835,2.834 0,1.566 1.271,2.835 2.835,2.835 C -1.27,2.835 0,1.566 0,0"
         style="fill:#ffffff;fill-opacity:1;fill-rule:nonzero;stroke:none"
         id="path306" /></g><g
       id="g308"
       transform="translate(510.12408,623.48387)"><path
         d="m 0,0 c 0,-1.566 -1.27,-2.834 -2.835,-2.834 -1.564,0 -2.835,1.268 -2.835,2.834 0,1.566 1.271,2.835 2.835,2.835 C -1.27,2.835 0,1.566 0,0 Z"
         style="fill:none;stroke:#1a171b;stroke-width:0.848;stroke-linecap:butt;stroke-linejoin:miter;stroke-miterlimit:4;stroke-dasharray:none;stroke-opacity:1"
         id="path310" /></g><g
       id="g312"
       transform="translate(528.42778,572.00487)"><path
         d="m 0,0 c 0,-1.566 -1.269,-2.834 -2.834,-2.834 -1.566,0 -2.836,1.268 -2.836,2.834 0,1.565 1.27,2.834 2.836,2.834 C -1.269,2.834 0,1.565 0,0"
         style="fill:#ffffff;fill-opacity:1;fill-rule:nonzero;stroke:none"
         id="path314" /></g><g
       id="g316"
       transform="translate(528.42778,572.00487)"><path
         d="m 0,0 c 0,-1.566 -1.269,-2.834 -2.834,-2.834 -1.566,0 -2.836,1.268 -2.836,2.834 0,1.565 1.27,2.834 2.836,2.834 C -1.269,2.834 0,1.565 0,0 Z"
         style="fill:none;stroke:#1a171b;stroke-width:0.848;stroke-linecap:butt;stroke-linejoin:miter;stroke-miterlimit:4;stroke-dasharray:none;stroke-opacity:1"
         id="path318" /></g><g
       id="g320"
       transform="translate(469.70318,543.02347)"><path
         d="m 0,0 c 0,-1.565 -1.269,-2.835 -2.836,-2.835 -1.564,0 -2.834,1.27 -2.834,2.835 0,1.565 1.27,2.834 2.834,2.834 C -1.269,2.834 0,1.565 0,0"
         style="fill:#ffffff;fill-opacity:1;fill-rule:nonzero;stroke:none"
         id="path322" /></g><g
       id="g324"
       transform="translate(469.70318,543.02347)"><path
         d="m 0,0 c 0,-1.565 -1.269,-2.835 -2.836,-2.835 -1.564,0 -2.834,1.27 -2.834,2.835 0,1.565 1.27,2.834 2.834,2.834 C -1.269,2.834 0,1.565 0,0 Z"
         style="fill:none;stroke:#1a171b;stroke-width:0.848;stroke-linecap:butt;stroke-linejoin:miter;stroke-miterlimit:4;stroke-dasharray:none;stroke-opacity:1"
         id="path326" /></g><g
       id="g328"
       transform="translate(483.43078,602.51167)"><path
         d="m 0,0 c 0,-1.565 -1.27,-2.835 -2.835,-2.835 -1.565,0 -2.835,1.27 -2.835,2.835 0,1.566 1.27,2.833 2.835,2.833 C -1.27,2.833 0,1.566 0,0"
         style="fill:#ffffff;fill-opacity:1;fill-rule:nonzero;stroke:none"
         id="path330" /></g><g
       id="g332"
       transform="translate(483.43078,602.51167)"><path
         d="m 0,0 c 0,-1.565 -1.27,-2.835 -2.835,-2.835 -1.565,0 -2.835,1.27 -2.835,2.835 0,1.566 1.27,2.833 2.835,2.833 C -1.27,2.833 0,1.566 0,0 Z"
         style="fill:none;stroke:#1a171b;stroke-width:0.848;stroke-linecap:butt;stroke-linejoin:miter;stroke-miterlimit:4;stroke-dasharray:none;stroke-opacity:1"
         id="path334" /></g><g
       id="g336"
       transform="translate(482.16028,572.00487)"><path
         d="m 0,0 c 0,-1.566 -1.271,-2.834 -2.836,-2.834 -1.563,0 -2.834,1.268 -2.834,2.834 0,1.565 1.271,2.834 2.834,2.834 C -1.271,2.834 0,1.565 0,0"
         style="fill:#ffffff;fill-opacity:1;fill-rule:nonzero;stroke:none"
         id="path338" /></g><g
       id="g340"
       transform="translate(482.16028,572.00487)"><path
         d="m 0,0 c 0,-1.566 -1.271,-2.834 -2.836,-2.834 -1.563,0 -2.834,1.268 -2.834,2.834 0,1.565 1.271,2.834 2.834,2.834 C -1.271,2.834 0,1.565 0,0 Z"
         style="fill:none;stroke:#1a171b;stroke-width:0.847;stroke-linecap:butt;stroke-linejoin:miter;stroke-miterlimit:4;stroke-dasharray:none;stroke-opacity:1"
         id="path342" /></g><g
       id="g344"
       transform="translate(500.97368,543.02347)"><path
         d="m 0,0 c 0,-1.565 -1.271,-2.835 -2.837,-2.835 -1.562,0 -2.833,1.27 -2.833,2.835 0,1.565 1.271,2.834 2.833,2.834 C -1.271,2.834 0,1.565 0,0"
         style="fill:#1a171b;fill-opacity:1;fill-rule:nonzero;stroke:none"
         id="path346" /></g><g
       id="g348"
       transform="translate(500.97368,543.02347)"><path
         d="m 0,0 c 0,-1.565 -1.271,-2.835 -2.837,-2.835 -1.562,0 -2.833,1.27 -2.833,2.835 0,1.565 1.271,2.834 2.833,2.834 C -1.271,2.834 0,1.565 0,0 Z"
         style="fill:none;stroke:#1a171b;stroke-width:0.848;stroke-linecap:butt;stroke-linejoin:miter;stroke-miterlimit:4;stroke-dasharray:none;stroke-opacity:1"
         id="path350" /></g><g
       id="g352"
       transform="translate(505.29498,572.00487)"><path
         d="m 0,0 c 0,-1.566 -1.271,-2.834 -2.836,-2.834 -1.565,0 -2.834,1.268 -2.834,2.834 0,1.565 1.269,2.834 2.834,2.834 C -1.271,2.834 0,1.565 0,0"
         style="fill:#1a171b;fill-opacity:1;fill-rule:nonzero;stroke:none"
         id="path354" /></g><g
       id="g356"
       transform="translate(505.29498,572.00487)"><path
         d="m 0,0 c 0,-1.566 -1.271,-2.834 -2.836,-2.834 -1.565,0 -2.834,1.268 -2.834,2.834 0,1.565 1.269,2.834 2.834,2.834 C -1.271,2.834 0,1.565 0,0 Z"
         style="fill:none;stroke:#1a171b;stroke-width:0.847;stroke-linecap:butt;stroke-linejoin:miter;stroke-miterlimit:4;stroke-dasharray:none;stroke-opacity:1"
         id="path358" /></g><g
       id="g360"
       transform="translate(508.59968,602.51167)"><path
         d="m 0,0 c 0,-1.565 -1.271,-2.835 -2.836,-2.835 -1.565,0 -2.834,1.27 -2.834,2.835 0,1.566 1.269,2.833 2.834,2.833 C -1.271,2.833 0,1.566 0,0"
         style="fill:#1a171b;fill-opacity:1;fill-rule:nonzero;stroke:none"
         id="path362" /></g><g
       id="g364"
       transform="translate(508.59968,602.51167)"><path
         d="m 0,0 c 0,-1.565 -1.271,-2.835 -2.836,-2.835 -1.565,0 -2.834,1.27 -2.834,2.835 0,1.566 1.269,2.833 2.834,2.833 C -1.271,2.833 0,1.566 0,0 Z"
         style="fill:none;stroke:#1a171b;stroke-width:0.847;stroke-linecap:butt;stroke-linejoin:miter;stroke-miterlimit:4;stroke-dasharray:none;stroke-opacity:1"
         id="path366" /></g><g
       id="g368"
       transform="translate(433.09478,613.95117)"><path
         d="m 0,0 c 0,-1.565 -1.27,-2.835 -2.835,-2.835 -1.565,0 -2.835,1.27 -2.835,2.835 0,1.565 1.27,2.834 2.835,2.834 C -1.27,2.834 0,1.565 0,0"
         style="fill:#1a171b;fill-opacity:1;fill-rule:nonzero;stroke:none"
         id="path370" /></g><g
       id="g372"
       transform="translate(433.09478,613.95117)"><path
         d="m 0,0 c 0,-1.565 -1.27,-2.835 -2.835,-2.835 -1.565,0 -2.835,1.27 -2.835,2.835 0,1.565 1.27,2.834 2.835,2.834 C -1.27,2.834 0,1.565 0,0 Z"
         style="fill:none;stroke:#1a171b;stroke-width:0.848;stroke-linecap:butt;stroke-linejoin:miter;stroke-miterlimit:4;stroke-dasharray:none;stroke-opacity:1"
         id="path374" /></g><g
       id="g376"
       transform="translate(110.32528,148.55957)"><g
         id="g378" /><g
         id="g418"><g
           clip-path="url(#clipPath382)"
           opacity="0.720001"
           id="g416"><g
             transform="translate(390.1357,443.4209)"
             id="g386"><path
               d="M 0,0 C -5.408,7.468 -15.59,34.559 -4.652,39.698 6.285,44.837 24.709,38.458 18.131,16.15"
               style="fill:none;stroke:#e2001a;stroke-width:2;stroke-linecap:butt;stroke-linejoin:miter;stroke-miterlimit:4;stroke-dasharray:none;stroke-opacity:1"
               id="path384" /></g><g
             transform="translate(404.835,450.4199)"
             id="g390"><path
               d="m 0,0 c -6.008,-10.868 -16.875,-13.729 -30.031,-11.44 -15.026,2.613 -24.024,-19.735 -15.5,-24.417"
               style="fill:none;stroke:#e2001a;stroke-width:2;stroke-linecap:butt;stroke-linejoin:miter;stroke-miterlimit:4;stroke-dasharray:none;stroke-opacity:1"
               id="path388" /></g><g
             transform="translate(368.2256,410.665)"
             id="g394"><path
               d="M 0,0 C 16.238,-3.244 51.48,-3.146 19.449,-25.454"
               style="fill:none;stroke:#e2001a;stroke-width:2;stroke-linecap:butt;stroke-linejoin:miter;stroke-miterlimit:4;stroke-dasharray:none;stroke-opacity:1"
               id="path392" /></g><g
             transform="translate(376.6729,379.0664)"
             id="g398"><path
               d="m 0,0 c -10.463,-8.364 -38.628,-3.012 -45.908,16.874 -14.051,38.377 26.021,57.625 36.285,45.098"
               style="fill:none;stroke:#e2001a;stroke-width:2;stroke-linecap:butt;stroke-linejoin:miter;stroke-miterlimit:4;stroke-dasharray:none;stroke-opacity:1"
               id="path396" /></g><g
             transform="translate(372.5166,434.6895)"
             id="g402"><path
               d="m 0,0 c 17.445,-12.298 -10.582,-27.456 -18.59,-24.024 -7.332,3.141 -19.449,7.436 -12.871,22.022"
               style="fill:none;stroke:#e2001a;stroke-width:2;stroke-linecap:butt;stroke-linejoin:miter;stroke-miterlimit:4;stroke-dasharray:none;stroke-opacity:1"
               id="path400" /></g><g
             transform="translate(342.2002,444.4141)"
             id="g406"><path
               d="M 0,0 C 2.287,17.159 6.141,27.467 34.369,22.584"
               style="fill:none;stroke:#e2001a;stroke-width:2;stroke-linecap:butt;stroke-linejoin:miter;stroke-miterlimit:4;stroke-dasharray:none;stroke-opacity:1"
               id="path404" /></g><g
             transform="translate(387.2178,465.4463)"
             id="g410"><path
               d="M 0,0 C 15.328,-2.729 28.484,-19.889 37.35,-36.191 46.971,-53.882 35.492,-95.335 3.838,-84.98 -27.285,-74.801 -5.43,-63.913 -2.404,-60.786"
               style="fill:none;stroke:#e2001a;stroke-width:2;stroke-linecap:butt;stroke-linejoin:miter;stroke-miterlimit:4;stroke-dasharray:none;stroke-opacity:1"
               id="path408" /></g><g
             transform="translate(391.9873,410.9492)"
             id="g414"><path
               d="M 0,0 C 7.479,7.392 15.15,12.727 4.561,24.194"
               style="fill:none;stroke:#e2001a;stroke-width:2;stroke-linecap:butt;stroke-linejoin:miter;stroke-miterlimit:4;stroke-dasharray:none;stroke-opacity:1"
               id="path412" /></g></g></g></g><g
       id="g432"
       transform="translate(244.61438,561.21777)"><path
         d="m 0,0 c 0,-1.565 -1.269,-2.834 -2.834,-2.834 -1.565,0 -2.835,1.269 -2.835,2.834 0,1.567 1.27,2.835 2.835,2.835 C -1.269,2.835 0,1.567 0,0"
         style="fill:#ffffff;fill-opacity:1;fill-rule:nonzero;stroke:none"
         id="path434" /></g><g
       id="g436"
       transform="translate(244.61438,561.21777)"><path
         d="m 0,0 c 0,-1.565 -1.269,-2.834 -2.834,-2.834 -1.565,0 -2.835,1.269 -2.835,2.834 0,1.567 1.27,2.835 2.835,2.835 C -1.269,2.835 0,1.567 0,0 Z"
         style="fill:none;stroke:#1a171b;stroke-width:0.848;stroke-linecap:butt;stroke-linejoin:miter;stroke-miterlimit:4;stroke-dasharray:none;stroke-opacity:1"
         id="path438" /></g><g
       id="g440"
       transform="translate(221.63238,589.30177)"><path
         d="M 0,0 C -5.407,7.468 -15.589,34.56 -4.652,39.698 6.285,44.836 24.708,38.458 18.13,16.15"
         style="fill:none;stroke:#e2001a;stroke-width:2;stroke-linecap:butt;stroke-linejoin:miter;stroke-miterlimit:4;stroke-dasharray:none;stroke-opacity:1"
         id="path442" /></g><g
       id="g444"
       transform="translate(236.33018,596.29977)"><path
         d="m 0,0 c -6.006,-10.867 -16.798,-9.643 -30.03,-11.439 -11.012,-1.496 -17.535,-17.062 -9.012,-21.746"
         style="fill:none;stroke:#e2001a;stroke-width:2;stroke-linecap:butt;stroke-linejoin:miter;stroke-miterlimit:4;stroke-dasharray:none;stroke-opacity:1"
         id="path446" /></g><g
       id="g448"
       transform="translate(203.37218,559.78227)"><path
         d="M 0,0 C 12,-6.75 40.167,-9.667 15.798,-28.689"
         style="fill:none;stroke:#e2001a;stroke-width:2;stroke-linecap:butt;stroke-linejoin:miter;stroke-miterlimit:4;stroke-dasharray:none;stroke-opacity:1"
         id="path450" /></g><g
       id="g452"
       transform="translate(212.03868,526.61527)"><path
         d="m 0,0 c -10.461,-8.366 -42.496,-4.68 -49.778,15.207 -14.051,38.375 26.021,57.624 36.286,45.097"
         style="fill:none;stroke:#e2001a;stroke-width:2;stroke-linecap:butt;stroke-linejoin:miter;stroke-miterlimit:4;stroke-dasharray:none;stroke-opacity:1"
         id="path454" /></g><g
       id="g456"
       transform="translate(204.01228,580.57027)"><path
         d="m 0,0 c 7.86,-13.788 -8.974,-24.705 -18.59,-24.024 -7.957,0.563 -14.05,9.403 -12.87,22.021"
         style="fill:none;stroke:#e2001a;stroke-width:2;stroke-linecap:butt;stroke-linejoin:miter;stroke-miterlimit:4;stroke-dasharray:none;stroke-opacity:1"
         id="path458" /></g><g
       id="g460"
       transform="translate(173.69588,590.29397)"><path
         d="M 0,0 C 2.288,17.16 6.141,27.468 34.37,22.586"
         style="fill:none;stroke:#e2001a;stroke-width:2;stroke-linecap:butt;stroke-linejoin:miter;stroke-miterlimit:4;stroke-dasharray:none;stroke-opacity:1"
         id="path462" /></g><g
       id="g464"
       transform="translate(218.71448,611.32717)"><path
         d="m 0,0 c 15.328,-2.729 31.658,-16.878 37.35,-36.19 5.693,-19.318 -6.609,-66.545 -35.526,-50.022 -19.25,11 -4.775,21.874 -1.75,25"
         style="fill:none;stroke:#e2001a;stroke-width:2;stroke-linecap:butt;stroke-linejoin:miter;stroke-miterlimit:4;stroke-dasharray:none;stroke-opacity:1"
         id="path466" /></g><g
       id="g468"
       transform="translate(223.48248,556.83007)"><path
         d="M 0,0 C 7.48,7.392 14.145,15.152 3.556,26.619"
         style="fill:none;stroke:#e2001a;stroke-width:2;stroke-linecap:butt;stroke-linejoin:miter;stroke-miterlimit:4;stroke-dasharray:none;stroke-opacity:1"
         id="path470" /></g><g
       id="g472"
       transform="translate(365.58558,590.96877)"><path
         d="M 0,0 C -5.407,7.468 -15.589,34.56 -4.652,39.698 6.285,44.836 24.708,38.458 18.13,16.15"
         style="fill:none;stroke:#e2001a;stroke-width:2;stroke-linecap:butt;stroke-linejoin:miter;stroke-miterlimit:4;stroke-dasharray:none;stroke-opacity:1"
         id="path474" /></g><g
       id="g476"
       transform="translate(380.28328,597.96677)"><path
         d="m 0,0 c -6.006,-10.867 -16.798,-9.643 -30.03,-11.439 -11.012,-1.496 -17.535,-17.062 -9.012,-21.746"
         style="fill:none;stroke:#e2001a;stroke-width:2;stroke-linecap:butt;stroke-linejoin:miter;stroke-miterlimit:4;stroke-dasharray:none;stroke-opacity:1"
         id="path478" /></g><g
       id="g480"
       transform="translate(347.32528,561.44917)"><path
         d="M 0,0 C 12,-6.75 40.167,-9.667 15.798,-28.689"
         style="fill:none;stroke:#e2001a;stroke-width:2;stroke-linecap:butt;stroke-linejoin:miter;stroke-miterlimit:4;stroke-dasharray:none;stroke-opacity:1"
         id="path482" /></g><g
       id="g484"
       transform="translate(355.99178,528.28227)"><path
         d="m 0,0 c -10.461,-8.366 -42.496,-4.68 -49.778,15.207 -14.051,38.375 26.021,57.624 36.286,45.097"
         style="fill:none;stroke:#e2001a;stroke-width:2;stroke-linecap:butt;stroke-linejoin:miter;stroke-miterlimit:4;stroke-dasharray:none;stroke-opacity:1"
         id="path486" /></g><g
       id="g488"
       transform="translate(347.96538,582.23727)"><path
         d="m 0,0 c 7.86,-13.788 -8.974,-24.705 -18.59,-24.024 -7.957,0.563 -14.05,9.403 -12.87,22.021"
         style="fill:none;stroke:#e2001a;stroke-width:2;stroke-linecap:butt;stroke-linejoin:miter;stroke-miterlimit:4;stroke-dasharray:none;stroke-opacity:1"
         id="path490" /></g><g
       id="g492"
       transform="translate(317.64898,591.96097)"><path
         d="M 0,0 C 2.288,17.16 6.141,27.468 34.37,22.586"
         style="fill:none;stroke:#e2001a;stroke-width:2;stroke-linecap:butt;stroke-linejoin:miter;stroke-miterlimit:4;stroke-dasharray:none;stroke-opacity:1"
         id="path494" /></g><g
       id="g496"
       transform="translate(362.66758,612.99417)"><path
         d="m 0,0 c 15.328,-2.729 31.658,-16.878 37.35,-36.19 5.693,-19.318 -6.609,-66.545 -35.526,-50.022 -19.25,11 -4.775,21.874 -1.75,25"
         style="fill:none;stroke:#e2001a;stroke-width:2;stroke-linecap:butt;stroke-linejoin:miter;stroke-miterlimit:4;stroke-dasharray:none;stroke-opacity:1"
         id="path498" /></g><g
       id="g500"
       transform="translate(367.43568,558.49707)"><path
         d="M 0,0 C 7.48,7.392 14.145,15.152 3.556,26.619"
         style="fill:none;stroke:#e2001a;stroke-width:2;stroke-linecap:butt;stroke-linejoin:miter;stroke-miterlimit:4;stroke-dasharray:none;stroke-opacity:1"
         id="path502" /></g></g></svg>
