<?xml version="1.0" encoding="UTF-8" standalone="no"?>
<svg
   xmlns:dc="http://purl.org/dc/elements/1.1/"
   xmlns:cc="http://creativecommons.org/ns#"
   xmlns:rdf="http://www.w3.org/1999/02/22-rdf-syntax-ns#"
   xmlns:svg="http://www.w3.org/2000/svg"
   xmlns="http://www.w3.org/2000/svg"
   xmlns:sodipodi="http://sodipodi.sourceforge.net/DTD/sodipodi-0.dtd"
   xmlns:inkscape="http://www.inkscape.org/namespaces/inkscape"
   version="1.1"
   id="svg2"
   xml:space="preserve"
   width="929.43958"
   height="376.80859"
   viewBox="0 0 929.43961 376.80859"
   sodipodi:docname="duaux.svg"
   inkscape:version="1.0.2-2 (e86c870879, 2021-01-15)"><metadata
     id="metadata8"><rdf:RDF><cc:Work
         rdf:about=""><dc:format>image/svg+xml</dc:format><dc:type
           rdf:resource="http://purl.org/dc/dcmitype/StillImage" /><dc:title></dc:title></cc:Work></rdf:RDF></metadata><defs
     id="defs6"><clipPath
       clipPathUnits="userSpaceOnUse"
       id="clipPath18"><path
         d="M 112.5293,356.49561 H 225.26854 V 244.96973 H 112.5293 Z"
         id="path16"
         inkscape:connector-curvature="0" /></clipPath><clipPath
       clipPathUnits="userSpaceOnUse"
       id="clipPath138"><path
         d="M 523.88965,376.80371 H 655.90137 V 235.00487 H 523.88965 Z"
         id="path136"
         inkscape:connector-curvature="0" /></clipPath><clipPath
       clipPathUnits="userSpaceOnUse"
       id="clipPath184"><path
         d="m 260.24609,351.86328 h 87.58789 V 257.3291 h -87.58789 z"
         id="path182"
         inkscape:connector-curvature="0" /></clipPath><clipPath
       clipPathUnits="userSpaceOnUse"
       id="clipPath260"><path
         d="m 671.4082,344.88574 h 75.0586 V 233.97266 h -75.0586 z"
         id="path258"
         inkscape:connector-curvature="0" /></clipPath><clipPath
       clipPathUnits="userSpaceOnUse"
       id="clipPath276"><path
         d="m 669.3584,375.21973 h 69.2832 v -70.3042 h -69.2832 z"
         id="path274"
         inkscape:connector-curvature="0" /></clipPath><clipPath
       clipPathUnits="userSpaceOnUse"
       id="clipPath292"><path
         d="m 691.48926,300.68701 h 18.91699 v -9.37158 h -18.91699 z"
         id="path290"
         inkscape:connector-curvature="0" /></clipPath><clipPath
       clipPathUnits="userSpaceOnUse"
       id="clipPath308"><path
         d="m 718.43457,368.38672 h 31.49707 v -77.91113 h -31.49707 z"
         id="path306"
         inkscape:connector-curvature="0" /></clipPath><clipPath
       clipPathUnits="userSpaceOnUse"
       id="clipPath324"><path
         d="M 734.06348,375.02103 H 793.6416 V 309.62012 H 734.06348 Z"
         id="path322"
         inkscape:connector-curvature="0" /></clipPath><clipPath
       clipPathUnits="userSpaceOnUse"
       id="clipPath340"><path
         d="m 724.62695,304.13623 h 50.56446 v -50.16261 h -50.56446 z"
         id="path338"
         inkscape:connector-curvature="0" /></clipPath><clipPath
       clipPathUnits="userSpaceOnUse"
       id="clipPath356"><path
         d="m 749.10547,321.9707 h 45.51269 v -69.26368 h -45.51269 z"
         id="path354"
         inkscape:connector-curvature="0" /></clipPath><clipPath
       clipPathUnits="userSpaceOnUse"
       id="clipPath372"><path
         d="M 711.87695,323.83154 H 744.4502 V 281.26758 H 711.87695 Z"
         id="path370"
         inkscape:connector-curvature="0" /></clipPath></defs><sodipodi:namedview
     pagecolor="#121212"
     bordercolor="#666666"
     borderopacity="1"
     objecttolerance="10"
     gridtolerance="10"
     guidetolerance="10"
     inkscape:pageopacity="0"
     inkscape:pageshadow="2"
     inkscape:window-width="1920"
     inkscape:window-height="1001"
     id="namedview4"
     showgrid="false"
     inkscape:zoom="1.4418061"
     inkscape:cx="474.21712"
     inkscape:cy="262.44988"
     inkscape:window-x="-9"
     inkscape:window-y="-9"
     inkscape:window-maximized="1"
     inkscape:current-layer="g10"
     inkscape:document-rotation="0"
     fit-margin-top="10"
     lock-margins="true"
     fit-margin-left="10"
     fit-margin-right="10"
     fit-margin-bottom="10" /><g
     id="g10"
     inkscape:groupmode="layer"
     inkscape:label="duaux"
     transform="matrix(1.3333333,0,0,-1.3333333,-140.03906,678.40368)"><g
       id="g14" /><g
       transform="scale(1,-1)"
       id="g22"
       style="opacity:0.997512;stroke:#ffffff"><path
         d="m 169.5,-308.44189 c 5.87012,14.78564 9.59375,29.11279 -5.47949,35.85595 M 163,-351.6084 c 0.73779,0.19922 -48.27246,-3.49121 -37.5,42 m 30.65918,40.35254 C 131,-251.94141 153.49609,-240.95117 173,-247.27539 c 27.37695,-8.87695 64.16211,-52.48682 47.66699,-76.1665 -5.48242,-7.86915 -39.73584,-24.8335 -48.83349,-27.66651 M 150,-286.44141 c -3.60645,-2.98925 25.98193,22.37403 1.5,31.83203 m -6.56348,-59.17578 c -8.93652,-8.49023 -17.78076,11.04932 -26.76953,29.17676 -10,20.16699 -6.30761,34.63965 19.13379,32.41504 m 13.86524,-52.58203 c 5.33398,18.83398 -9.88575,22.08203 -19.49903,5 M 214.5,-323.94189 c -12.71875,14.79394 -90.33398,8.83251 -70.66699,31.99951 m 75.33398,-36.66602 c 4.62696,-25.64551 -73.16699,-51.66699 -51.83349,14"
         style="fill:none;stroke:#ffffff;stroke-width:1;stroke-linecap:round;stroke-linejoin:bevel;stroke-miterlimit:10;stroke-dasharray:none;stroke-opacity:1"
         id="path20"
         inkscape:connector-curvature="0" /></g><path
       d="m 221.6167,350.99463 c 0,-1.65625 -1.23145,-3 -2.75,-3 -1.51856,0 -2.75,1.34375 -2.75,3 0,1.65625 1.23144,3 2.75,3 1.51855,0 2.75,-1.34375 2.75,-3 z"
       style="fill:none;stroke:#0a50ff;stroke-width:1;stroke-linecap:butt;stroke-linejoin:miter;stroke-miterlimit:4;stroke-dasharray:none;stroke-opacity:1"
       id="path30"
       inkscape:connector-curvature="0" /><path
       d="m 134.1167,261.24512 c 0,-1.65625 -1.23145,-3 -2.75,-3 -1.51856,0 -2.75,1.34375 -2.75,3 0,1.65625 1.23144,3 2.75,3 1.51855,0 2.75,-1.34375 2.75,-3 z"
       style="fill:none;stroke:#0a50ff;stroke-width:1;stroke-linecap:butt;stroke-linejoin:miter;stroke-miterlimit:4;stroke-dasharray:none;stroke-opacity:1"
       id="path32"
       inkscape:connector-curvature="0" /><path
       d="m 155.3667,301.24512 c 0,-1.65625 -1.23145,-3 -2.75,-3 -1.51856,0 -2.75,1.34375 -2.75,3 0,1.65625 1.23144,3 2.75,3 1.51855,0 2.75,-1.34375 2.75,-3 z"
       style="fill:none;stroke:#0a50ff;stroke-width:1;stroke-linecap:butt;stroke-linejoin:miter;stroke-miterlimit:4;stroke-dasharray:none;stroke-opacity:1"
       id="path34"
       inkscape:connector-curvature="0" /><path
       d="m 222.1167,261.49512 c 0,-1.65625 -1.23242,-3 -2.75,-3 -1.51953,0 -2.75,1.34375 -2.75,3 0,1.65625 1.23047,3 2.75,3 1.51758,0 2.75,-1.34375 2.75,-3 z"
       style="fill:none;stroke:#0a50ff;stroke-width:1;stroke-linecap:butt;stroke-linejoin:miter;stroke-miterlimit:4;stroke-dasharray:none;stroke-opacity:1"
       id="path36"
       inkscape:connector-curvature="0" /><path
       d="m 133.8667,350.99463 c 0,-1.65625 -1.23145,-3 -2.75,-3 -1.51856,0 -2.75,1.34375 -2.75,3 0,1.65625 1.23144,3 2.75,3 1.51855,0 2.75,-1.34375 2.75,-3 z"
       style="fill:none;stroke:#0a50ff;stroke-width:1;stroke-linecap:butt;stroke-linejoin:miter;stroke-miterlimit:4;stroke-dasharray:none;stroke-opacity:1"
       id="path38"
       inkscape:connector-curvature="0" /><path
       d="m 132.8667,348.74463 c 0,0 84.5,-85.24951 84.5,-85.24951"
       style="fill:none;stroke:#0a50ff;stroke-width:1;stroke-linecap:round;stroke-linejoin:bevel;stroke-miterlimit:10;stroke-dasharray:none;stroke-opacity:1"
       id="path40"
       inkscape:connector-curvature="0" /><path
       d="m 131.3667,258.24512 c 0,0 86.75,0 86.75,0"
       style="fill:none;stroke:#0a50ff;stroke-width:1;stroke-linecap:round;stroke-linejoin:bevel;stroke-miterlimit:10;stroke-dasharray:none;stroke-opacity:1"
       id="path42"
       inkscape:connector-curvature="0" /><path
       d="m 131.3667,264.24512 c 0,0 86,-0.75 86,-0.75"
       style="fill:none;stroke:#0a50ff;stroke-width:1;stroke-linecap:round;stroke-linejoin:bevel;stroke-miterlimit:10;stroke-dasharray:none;stroke-opacity:1"
       id="path44"
       inkscape:connector-curvature="0" /><path
       d="m 129.8667,347.99463 c 0,0 0.75,-83.49951 0.75,-83.49951"
       style="fill:none;stroke:#0a50ff;stroke-width:1;stroke-linecap:round;stroke-linejoin:bevel;stroke-miterlimit:10;stroke-dasharray:none;stroke-opacity:1"
       id="path46"
       inkscape:connector-curvature="0" /><path
       d="m 133.8667,350.99463 c 0,0 82.75,0.75 82.75,0.75"
       style="fill:none;stroke:#0a50ff;stroke-width:1;stroke-linecap:round;stroke-linejoin:bevel;stroke-miterlimit:10;stroke-dasharray:none;stroke-opacity:1"
       id="path48"
       inkscape:connector-curvature="0" /><path
       d="m 218.8667,347.99463 c 0,0 0.5,-83.49951 0.5,-83.49951"
       style="fill:none;stroke:#0a50ff;stroke-width:1;stroke-linecap:round;stroke-linejoin:bevel;stroke-miterlimit:10;stroke-dasharray:none;stroke-opacity:1"
       id="path50"
       inkscape:connector-curvature="0" /><path
       d="m 131.1167,347.99463 c 0,0 20.25,-44.74951 20.25,-44.74951"
       style="fill:none;stroke:#0a50ff;stroke-width:1;stroke-linecap:round;stroke-linejoin:bevel;stroke-miterlimit:10;stroke-dasharray:none;stroke-opacity:1"
       id="path52"
       inkscape:connector-curvature="0" /><path
       d="m 151.8667,297.99512 c 0,0 -20.5,-33.75 -20.5,-33.75"
       style="fill:none;stroke:#0a50ff;stroke-width:1;stroke-linecap:round;stroke-linejoin:bevel;stroke-miterlimit:10;stroke-dasharray:none;stroke-opacity:1"
       id="path54"
       inkscape:connector-curvature="0" /><path
       d="m 173.40479,267.19824 c 0,0 0,-12 0,-12"
       style="fill:none;stroke:#0a50ff;stroke-width:1;stroke-linecap:round;stroke-linejoin:bevel;stroke-miterlimit:10;stroke-dasharray:none;stroke-opacity:1"
       id="path56"
       inkscape:connector-curvature="0" /><path
       d="m 139.90479,287.19824 c 0,0 7,-5.5 7,-5.5"
       style="fill:none;stroke:#0a50ff;stroke-width:1;stroke-linecap:round;stroke-linejoin:bevel;stroke-miterlimit:10;stroke-dasharray:none;stroke-opacity:1"
       id="path58"
       inkscape:connector-curvature="0" /><path
       d="m 125.90479,307.19824 c 0,0 11.5,-0.5 11.5,-0.5"
       style="fill:none;stroke:#0a50ff;stroke-width:1;stroke-linecap:round;stroke-linejoin:bevel;stroke-miterlimit:10;stroke-dasharray:none;stroke-opacity:1"
       id="path60"
       inkscape:connector-curvature="0" /><path
       d="m 140.40479,315.69824 c 0,0 7,5 7,5"
       style="fill:none;stroke:#0a50ff;stroke-width:1;stroke-linecap:round;stroke-linejoin:bevel;stroke-miterlimit:10;stroke-dasharray:none;stroke-opacity:1"
       id="path62"
       inkscape:connector-curvature="0" /><path
       d="m 418.96191,331.01855 c 0,0 6.5,-1 6.5,-1"
       style="fill:none;stroke:#027abb;stroke-width:1;stroke-linecap:butt;stroke-linejoin:miter;stroke-miterlimit:4;stroke-dasharray:none;stroke-opacity:1"
       id="path64"
       inkscape:connector-curvature="0" /><path
       d="m 463,356.10938 c 0,-1.65625 -1.23145,-3 -2.75,-3 -1.51855,0 -2.75,1.34375 -2.75,3 0,1.65625 1.23145,3 2.75,3 1.51855,0 2.75,-1.34375 2.75,-3 z"
       style="fill:none;stroke:#027abb;stroke-width:1;stroke-linecap:butt;stroke-linejoin:miter;stroke-miterlimit:4;stroke-dasharray:none;stroke-opacity:1"
       id="path66"
       inkscape:connector-curvature="0" /><path
       d="m 402.25,289.35938 c 0,-1.65625 -1.23145,-3 -2.75,-3 -1.51855,0 -2.75,1.34375 -2.75,3 0,1.65625 1.23145,3 2.75,3 1.51855,0 2.75,-1.34375 2.75,-3 z"
       style="fill:none;stroke:#027abb;stroke-width:1;stroke-linecap:butt;stroke-linejoin:miter;stroke-miterlimit:4;stroke-dasharray:none;stroke-opacity:1"
       id="path68"
       inkscape:connector-curvature="0" /><path
       d="m 418,310.85938 c -2.5,-11.5 -9.5,-15.25 -16,-20.5"
       style="fill:none;stroke:#027abb;stroke-width:1;stroke-linecap:round;stroke-linejoin:bevel;stroke-miterlimit:10;stroke-dasharray:none;stroke-opacity:1"
       id="path70"
       inkscape:connector-curvature="0" /><path
       d="m 420.75,313.85938 c 0,-1.65625 -1.23145,-3 -2.75,-3 -1.51855,0 -2.75,1.34375 -2.75,3 0,1.65625 1.23145,3 2.75,3 1.51855,0 2.75,-1.34375 2.75,-3 z"
       style="fill:none;stroke:#027abb;stroke-width:1;stroke-linecap:butt;stroke-linejoin:miter;stroke-miterlimit:4;stroke-dasharray:none;stroke-opacity:1"
       id="path72"
       inkscape:connector-curvature="0" /><path
       d="m 469.83398,307.02637 c 0,-1.65625 -1.23242,-3 -2.75,-3 -1.51953,0 -2.75,1.34375 -2.75,3 0,1.65625 1.23047,3 2.75,3 1.51758,0 2.75,-1.34375 2.75,-3 z"
       style="fill:none;stroke:#027abb;stroke-width:1;stroke-linecap:butt;stroke-linejoin:miter;stroke-miterlimit:4;stroke-dasharray:none;stroke-opacity:1"
       id="path74"
       inkscape:connector-curvature="0" /><path
       d="m 461.5,353.60938 c 4,-12.25 8.5,-28.75 6.25,-43.5"
       style="fill:none;stroke:#027abb;stroke-width:1;stroke-linecap:round;stroke-linejoin:bevel;stroke-miterlimit:10;stroke-dasharray:none;stroke-opacity:1"
       id="path76"
       inkscape:connector-curvature="0" /><path
       d="m 402.25,289.35938 c 12.25,0.25 29.31934,-3.99415 38.25,-3.25 9,0.75 20,9.75 25.5,18.25"
       style="fill:none;stroke:#027abb;stroke-width:1;stroke-linecap:round;stroke-linejoin:bevel;stroke-miterlimit:10;stroke-dasharray:none;stroke-opacity:1"
       id="path78"
       inkscape:connector-curvature="0" /><path
       d="m 399.5,286.35938 c 6.5,-9.25 16,-23.75 32.5,-20.25 16.5,3.5 35.16699,32.58398 35.08398,37.91699"
       style="fill:none;stroke:#027abb;stroke-width:1;stroke-linecap:round;stroke-linejoin:bevel;stroke-miterlimit:10;stroke-dasharray:none;stroke-opacity:1"
       id="path80"
       inkscape:connector-curvature="0" /><path
       d="m 427.25,343.10938 c 0,-1.65625 -1.23145,-3 -2.75,-3 -1.51855,0 -2.75,1.34375 -2.75,3 0,1.65625 1.23145,3 2.75,3 1.51855,0 2.75,-1.34375 2.75,-3 z"
       style="fill:none;stroke:#027abb;stroke-width:1;stroke-linecap:butt;stroke-linejoin:miter;stroke-miterlimit:4;stroke-dasharray:none;stroke-opacity:1"
       id="path82"
       inkscape:connector-curvature="0" /><path
       d="m 457.5,356.10938 c -8.25,-1.75 -22.75,-6.5 -31.25,-10.25"
       style="fill:none;stroke:#027abb;stroke-width:1;stroke-linecap:round;stroke-linejoin:bevel;stroke-miterlimit:10;stroke-dasharray:none;stroke-opacity:1"
       id="path84"
       inkscape:connector-curvature="0" /><path
       d="m 423.75,340.10938 c -2.25,-6 -4.75,-13.75 -5.75,-23.25"
       style="fill:none;stroke:#027abb;stroke-width:1;stroke-linecap:round;stroke-linejoin:bevel;stroke-miterlimit:10;stroke-dasharray:none;stroke-opacity:1"
       id="path86"
       inkscape:connector-curvature="0" /><path
       d="m 421.5,344.10938 c -15,-0.25 -36.5,-2 -38,-14.75 -1.5,-12.75 3.75,-30.5 13,-38.75"
       style="fill:none;stroke:#027abb;stroke-width:1;stroke-linecap:round;stroke-linejoin:bevel;stroke-miterlimit:10;stroke-dasharray:none;stroke-opacity:1"
       id="path88"
       inkscape:connector-curvature="0" /><path
       d="m 426.5,341.10938 c 15,-6 27.25,-17.5 32.75,-23.75 5.5,-6.25 3,-3.25 5.75,-7.75"
       style="fill:none;stroke:#027abb;stroke-width:1;stroke-linecap:round;stroke-linejoin:bevel;stroke-miterlimit:10;stroke-dasharray:none;stroke-opacity:1"
       id="path90"
       inkscape:connector-curvature="0" /><path
       d="m 384.46191,302.51855 c 0,0 6,3 6,3"
       style="fill:none;stroke:#027abb;stroke-width:1;stroke-linecap:butt;stroke-linejoin:miter;stroke-miterlimit:4;stroke-dasharray:none;stroke-opacity:1"
       id="path92"
       inkscape:connector-curvature="0" /><path
       d="m 407.46191,299.01855 c 0,0 6,-4 6,-4"
       style="fill:none;stroke:#027abb;stroke-width:1;stroke-linecap:butt;stroke-linejoin:miter;stroke-miterlimit:4;stroke-dasharray:none;stroke-opacity:1"
       id="path94"
       inkscape:connector-curvature="0" /><path
       d="m 415.96191,285.51855 c 0,0 2.5,7 2.5,7"
       style="fill:none;stroke:#027abb;stroke-width:1;stroke-linecap:butt;stroke-linejoin:miter;stroke-miterlimit:4;stroke-dasharray:none;stroke-opacity:1"
       id="path96"
       inkscape:connector-curvature="0" /><path
       d="m 447.46191,279.51855 c 0,0 3.5,-4.5 3.5,-4.5"
       style="fill:none;stroke:#027abb;stroke-width:1;stroke-linecap:butt;stroke-linejoin:miter;stroke-miterlimit:4;stroke-dasharray:none;stroke-opacity:1"
       id="path98"
       inkscape:connector-curvature="0" /><path
       d="m 398.25,316.9209 c 0,-1.65625 -1.23145,-3 -2.75,-3 -1.51855,0 -2.75,1.34375 -2.75,3 0,1.65527 1.23145,2.99902 2.75,2.99902 1.51855,0 2.75,-1.34375 2.75,-2.99902 z"
       style="fill:none;stroke:#ff66ff;stroke-width:1;stroke-linecap:butt;stroke-linejoin:miter;stroke-miterlimit:4;stroke-dasharray:none;stroke-opacity:1"
       id="path100"
       inkscape:connector-curvature="0" /><path
       d="m 431.75,276.4209 c 0,-1.65625 -1.23145,-3 -2.75,-3 -1.51855,0 -2.75,1.34375 -2.75,3 0,1.65527 1.23145,2.99902 2.75,2.99902 1.51855,0 2.75,-1.34375 2.75,-2.99902 z"
       style="fill:none;stroke:#ff66ff;stroke-width:1;stroke-linecap:butt;stroke-linejoin:miter;stroke-miterlimit:4;stroke-dasharray:none;stroke-opacity:1"
       id="path102"
       inkscape:connector-curvature="0" /><path
       d="m 436.46191,303.96777 c 0,-1.65625 -1.23144,-3 -2.75,-3 -1.51855,0 -2.75,1.34375 -2.75,3 0,1.65625 1.23145,3 2.75,3 1.51856,0 2.75,-1.34375 2.75,-3 z"
       style="fill:none;stroke:#ff66ff;stroke-width:1;stroke-linecap:butt;stroke-linejoin:miter;stroke-miterlimit:4;stroke-dasharray:none;stroke-opacity:1"
       id="path104"
       inkscape:connector-curvature="0" /><path
       d="m 432.75,301.1709 c -2.25,-6.25 -3.5,-16 -4,-21.25"
       style="fill:none;stroke:#ff66ff;stroke-width:1;stroke-linecap:butt;stroke-linejoin:miter;stroke-miterlimit:4;stroke-dasharray:none;stroke-opacity:1"
       id="path106"
       inkscape:connector-curvature="0" /><path
       d="m 397.25,314.4209 c 8.25,-4.75 25.5,-9 33.5,-9.75"
       style="fill:none;stroke:#ff66ff;stroke-width:1;stroke-linecap:butt;stroke-linejoin:miter;stroke-miterlimit:4;stroke-dasharray:none;stroke-opacity:1"
       id="path108"
       inkscape:connector-curvature="0" /><path
       d="m 396.25,320.4209 c 8.5,4.75 31.25,6.25 36.75,-13"
       style="fill:none;stroke:#ff66ff;stroke-width:1;stroke-linecap:butt;stroke-linejoin:miter;stroke-miterlimit:4;stroke-dasharray:none;stroke-opacity:1"
       id="path110"
       inkscape:connector-curvature="0" /><path
       d="m 454.5,339.9209 c 0,-1.65625 -1.23145,-3 -2.75,-3 -1.51855,0 -2.75,1.34375 -2.75,3 0,1.65527 1.23145,2.99902 2.75,2.99902 1.51855,0 2.75,-1.34375 2.75,-2.99902 z"
       style="fill:none;stroke:#ff66ff;stroke-width:1;stroke-linecap:butt;stroke-linejoin:miter;stroke-miterlimit:4;stroke-dasharray:none;stroke-opacity:1"
       id="path112"
       inkscape:connector-curvature="0" /><path
       d="m 435,306.6709 c 6,8 13.75,24.75098 15.25,30.5"
       style="fill:none;stroke:#ff66ff;stroke-width:1;stroke-linecap:butt;stroke-linejoin:miter;stroke-miterlimit:4;stroke-dasharray:none;stroke-opacity:1"
       id="path114"
       inkscape:connector-curvature="0" /><path
       d="m 502.75,327.9209 c 0,-1.65625 -1.23145,-3 -2.75,-3 -1.51855,0 -2.75,1.34375 -2.75,3 0,1.65527 1.23145,2.99902 2.75,2.99902 1.51855,0 2.75,-1.34375 2.75,-2.99902 z"
       style="fill:none;stroke:#ff66ff;stroke-width:1;stroke-linecap:butt;stroke-linejoin:miter;stroke-miterlimit:4;stroke-dasharray:none;stroke-opacity:1"
       id="path116"
       inkscape:connector-curvature="0" /><path
       d="m 454.5,339.9209 c 8,-2 42.75,-12 42.75,-12"
       style="fill:none;stroke:#ff66ff;stroke-width:1;stroke-linecap:butt;stroke-linejoin:miter;stroke-miterlimit:4;stroke-dasharray:none;stroke-opacity:1"
       id="path118"
       inkscape:connector-curvature="0" /><path
       d="m 429,273.4209 c 3,-7.31152 54.75,-27 62.75,-7.5 8,19.5 8.25,59 8.25,59"
       style="fill:none;stroke:#ff66ff;stroke-width:1;stroke-linecap:butt;stroke-linejoin:miter;stroke-miterlimit:4;stroke-dasharray:none;stroke-opacity:1"
       id="path120"
       inkscape:connector-curvature="0" /><path
       d="m 450.5,342.6709 c -4.25,13 -2,30.25 9,32.25 11,2 38,-36.5 39.75,-43.75"
       style="fill:none;stroke:#ff66ff;stroke-width:1;stroke-linecap:butt;stroke-linejoin:miter;stroke-miterlimit:4;stroke-dasharray:none;stroke-opacity:1"
       id="path122"
       inkscape:connector-curvature="0" /><path
       d="m 392.75,315.9209 c -6.75,-3.75 -29.75,-26.5 -7.25,-47.25 22.5,-20.75 106.5,-52.75 114.5,-21.25 8,31.5 9.75,63.25 1.25,77.75"
       style="fill:none;stroke:#ff66ff;stroke-width:1;stroke-linecap:butt;stroke-linejoin:miter;stroke-miterlimit:4;stroke-dasharray:none;stroke-opacity:1"
       id="path124"
       inkscape:connector-curvature="0" /><path
       d="m 475.5,337.9209 c 0,0 -1.75,-7 -1.75,-7"
       style="fill:none;stroke:#ff66ff;stroke-width:1;stroke-linecap:butt;stroke-linejoin:miter;stroke-miterlimit:4;stroke-dasharray:none;stroke-opacity:1"
       id="path126"
       inkscape:connector-curvature="0" /><path
       d="m 485,362.4209 c 0,0 -6,-5.75 -6,-5.75"
       style="fill:none;stroke:#ff66ff;stroke-width:1;stroke-linecap:butt;stroke-linejoin:miter;stroke-miterlimit:4;stroke-dasharray:none;stroke-opacity:1"
       id="path128"
       inkscape:connector-curvature="0" /><path
       d="m 440,325.1709 c 0,0 7.75,-3.25 7.75,-3.25"
       style="fill:none;stroke:#ff66ff;stroke-width:1;stroke-linecap:butt;stroke-linejoin:miter;stroke-miterlimit:4;stroke-dasharray:none;stroke-opacity:1"
       id="path130"
       inkscape:connector-curvature="0" /><path
       d="m 193.87158,462.22266 c 5.87012,-14.78614 2.71973,-30.71094 -12.35351,-37.45411 m 2.4707,67.00196 c -19.68652,5.32031 -63.3584,2.64355 -56.37598,-26.84278 m 46.04395,-43.48925 c -25.15918,-17.31446 -2.66309,-28.30469 16.84082,-21.98047 27.37695,8.87695 46.14355,49.5625 29.64844,73.24219 -5.48243,7.86914 -13.3584,13.32421 -22.45606,16.15722 M 168.26709,435.7959 c 11.88379,-9.84961 15.39648,-23.33789 0.73047,-29.00391 m -6.56348,59.17578 c -17.24707,16.29102 -36.95019,-4.07226 -40.27051,-25.67578 -2.85839,-18.60937 7.19336,-38.14062 32.63477,-35.91601 m 13.86523,52.58203 c 12.78223,-26.35254 -25.82226,-19.10059 -35.43554,-2.01856 m 76.14062,22.47364 C 196.6499,462.61914 141.66357,467.29199 161.33057,444.125 m 54.10254,40.98633 c 4.62695,25.64551 -32.56641,15.42578 -23.58301,-12.06836"
       style="fill:none;stroke:#ffff00;stroke-width:2;stroke-linecap:round;stroke-linejoin:bevel;stroke-miterlimit:10;stroke-dasharray:none;stroke-opacity:1"
       id="path228"
       inkscape:connector-curvature="0" /><g
       id="g5664"><path
         d="m 546.78809,318.22852 c 0,-1.65625 -1.23145,-3 -2.75,-3 -1.51856,0 -2.75,1.34375 -2.75,3 0,1.65527 1.23144,2.99902 2.75,2.99902 1.51855,0 2.75,-1.34375 2.75,-2.99902 z"
         style="font-variation-settings:normal;opacity:1;vector-effect:none;fill:none;fill-opacity:1;stroke:#ff66ff;stroke-width:1;stroke-linecap:butt;stroke-linejoin:miter;stroke-miterlimit:4;stroke-dasharray:none;stroke-dashoffset:0;stroke-opacity:1;stop-color:#000000;stop-opacity:1"
         id="path140"
         inkscape:connector-curvature="0" /><path
         d="m 580.28809,277.72852 c 0,-1.65625 -1.23145,-3 -2.75,-3 -1.51856,0 -2.75,1.34375 -2.75,3 0,1.65527 1.23144,2.99902 2.75,2.99902 1.51855,0 2.75,-1.34375 2.75,-2.99902 z"
         style="font-variation-settings:normal;opacity:1;vector-effect:none;fill:none;fill-opacity:1;stroke:#ff66ff;stroke-width:1;stroke-linecap:butt;stroke-linejoin:miter;stroke-miterlimit:4;stroke-dasharray:none;stroke-dashoffset:0;stroke-opacity:1;stop-color:#000000;stop-opacity:1"
         id="path142"
         inkscape:connector-curvature="0" /><path
         d="m 585,305.27539 c 0,-1.65625 -1.23145,-3 -2.75,-3 -1.51855,0 -2.75,1.34375 -2.75,3 0,1.65625 1.23145,3 2.75,3 1.51855,0 2.75,-1.34375 2.75,-3 z"
         style="font-variation-settings:normal;opacity:1;vector-effect:none;fill:none;fill-opacity:1;stroke:#ff66ff;stroke-width:1;stroke-linecap:butt;stroke-linejoin:miter;stroke-miterlimit:4;stroke-dasharray:none;stroke-dashoffset:0;stroke-opacity:1;stop-color:#000000;stop-opacity:1"
         id="path144"
         inkscape:connector-curvature="0" /><path
         d="m 581.28809,302.47852 c -2.25,-6.25 -3.5,-16 -4,-21.25"
         style="font-variation-settings:normal;opacity:1;vector-effect:none;fill:none;fill-opacity:1;stroke:#ff66ff;stroke-width:1;stroke-linecap:butt;stroke-linejoin:miter;stroke-miterlimit:4;stroke-dasharray:none;stroke-dashoffset:0;stroke-opacity:1;stop-color:#000000;stop-opacity:1"
         id="path146"
         inkscape:connector-curvature="0" /><path
         d="m 545.78809,315.72852 c 8.25,-4.75 25.5,-9 33.5,-9.75"
         style="font-variation-settings:normal;opacity:1;vector-effect:none;fill:none;fill-opacity:1;stroke:#ff66ff;stroke-width:1;stroke-linecap:butt;stroke-linejoin:miter;stroke-miterlimit:4;stroke-dasharray:none;stroke-dashoffset:0;stroke-opacity:1;stop-color:#000000;stop-opacity:1"
         id="path148"
         inkscape:connector-curvature="0" /><path
         d="m 544.78809,321.72852 c 8.5,4.75 31.25,6.25 36.75,-13"
         style="font-variation-settings:normal;opacity:1;vector-effect:none;fill:none;fill-opacity:1;stroke:#ff66ff;stroke-width:1;stroke-linecap:butt;stroke-linejoin:miter;stroke-miterlimit:4;stroke-dasharray:none;stroke-dashoffset:0;stroke-opacity:1;stop-color:#000000;stop-opacity:1"
         id="path150"
         inkscape:connector-curvature="0" /><path
         d="m 603.03809,341.22852 c 0,-1.65625 -1.23145,-3 -2.75,-3 -1.51856,0 -2.75,1.34375 -2.75,3 0,1.65527 1.23144,2.99902 2.75,2.99902 1.51855,0 2.75,-1.34375 2.75,-2.99902 z"
         style="font-variation-settings:normal;opacity:1;vector-effect:none;fill:none;fill-opacity:1;stroke:#ff66ff;stroke-width:1;stroke-linecap:butt;stroke-linejoin:miter;stroke-miterlimit:4;stroke-dasharray:none;stroke-dashoffset:0;stroke-opacity:1;stop-color:#000000;stop-opacity:1"
         id="path152"
         inkscape:connector-curvature="0" /><path
         d="m 583.53809,307.97852 c 6,8 13.75,24.75097 15.25,30.5"
         style="font-variation-settings:normal;opacity:1;vector-effect:none;fill:none;fill-opacity:1;stroke:#ff66ff;stroke-width:1;stroke-linecap:butt;stroke-linejoin:miter;stroke-miterlimit:4;stroke-dasharray:none;stroke-dashoffset:0;stroke-opacity:1;stop-color:#000000;stop-opacity:1"
         id="path154"
         inkscape:connector-curvature="0" /><path
         d="m 651.28809,329.22852 c 0,-1.65625 -1.23145,-3 -2.75,-3 -1.51856,0 -2.75,1.34375 -2.75,3 0,1.65527 1.23144,2.99902 2.75,2.99902 1.51855,0 2.75,-1.34375 2.75,-2.99902 z"
         style="font-variation-settings:normal;opacity:1;vector-effect:none;fill:none;fill-opacity:1;stroke:#ff66ff;stroke-width:1;stroke-linecap:butt;stroke-linejoin:miter;stroke-miterlimit:4;stroke-dasharray:none;stroke-dashoffset:0;stroke-opacity:1;stop-color:#000000;stop-opacity:1"
         id="path156"
         inkscape:connector-curvature="0" /><path
         d="m 603.03809,341.22852 c 8,-2 42.75,-12 42.75,-12"
         style="font-variation-settings:normal;opacity:1;vector-effect:none;fill:none;fill-opacity:1;stroke:#ff66ff;stroke-width:1;stroke-linecap:butt;stroke-linejoin:miter;stroke-miterlimit:4;stroke-dasharray:none;stroke-dashoffset:0;stroke-opacity:1;stop-color:#000000;stop-opacity:1"
         id="path158"
         inkscape:connector-curvature="0" /><path
         d="m 577.53809,274.72852 c 3,-7.31153 54.75,-27 62.75,-7.5 8,19.5 8.25,59 8.25,59"
         style="font-variation-settings:normal;opacity:1;vector-effect:none;fill:none;fill-opacity:1;stroke:#ff66ff;stroke-width:1;stroke-linecap:butt;stroke-linejoin:miter;stroke-miterlimit:4;stroke-dasharray:none;stroke-dashoffset:0;stroke-opacity:1;stop-color:#000000;stop-opacity:1"
         id="path160"
         inkscape:connector-curvature="0" /><path
         d="m 599.03809,343.97852 c -4.25,13 -2,30.25 9,32.25 11,2 38,-36.5 39.75,-43.75"
         style="font-variation-settings:normal;opacity:1;vector-effect:none;fill:none;fill-opacity:1;stroke:#ff66ff;stroke-width:1;stroke-linecap:butt;stroke-linejoin:miter;stroke-miterlimit:4;stroke-dasharray:none;stroke-dashoffset:0;stroke-opacity:1;stop-color:#000000;stop-opacity:1"
         id="path162"
         inkscape:connector-curvature="0" /><path
         d="m 541.28809,317.22852 c -6.75,-3.75 -29.75,-26.5 -7.25,-47.25 22.5,-20.75 106.5,-52.75 114.5,-21.25 8,31.5 9.75,63.25 1.25,77.75"
         style="font-variation-settings:normal;opacity:1;vector-effect:none;fill:none;fill-opacity:1;stroke:#ff66ff;stroke-width:1;stroke-linecap:butt;stroke-linejoin:miter;stroke-miterlimit:4;stroke-dasharray:none;stroke-dashoffset:0;stroke-opacity:1;stop-color:#000000;stop-opacity:1"
         id="path164"
         inkscape:connector-curvature="0" /><path
         d="m 624.03809,339.22852 c 0,0 -1.75,-7 -1.75,-7"
         style="font-variation-settings:normal;opacity:1;vector-effect:none;fill:none;fill-opacity:1;stroke:#ff66ff;stroke-width:1;stroke-linecap:butt;stroke-linejoin:miter;stroke-miterlimit:4;stroke-dasharray:none;stroke-dashoffset:0;stroke-opacity:1;stop-color:#000000;stop-opacity:1"
         id="path166"
         inkscape:connector-curvature="0" /><path
         d="m 633.53809,363.72852 c 0,0 -6,-5.75 -6,-5.75"
         style="font-variation-settings:normal;opacity:1;vector-effect:none;fill:none;fill-opacity:1;stroke:#ff66ff;stroke-width:1;stroke-linecap:butt;stroke-linejoin:miter;stroke-miterlimit:4;stroke-dasharray:none;stroke-dashoffset:0;stroke-opacity:1;stop-color:#000000;stop-opacity:1"
         id="path168"
         inkscape:connector-curvature="0" /><path
         d="m 588.53809,326.47852 c 0,0 7.75,-3.25 7.75,-3.25"
         style="font-variation-settings:normal;opacity:1;vector-effect:none;fill:none;fill-opacity:1;stroke:#ff66ff;stroke-width:1;stroke-linecap:butt;stroke-linejoin:miter;stroke-miterlimit:4;stroke-dasharray:none;stroke-dashoffset:0;stroke-opacity:1;stop-color:#000000;stop-opacity:1"
         id="path170"
         inkscape:connector-curvature="0" /></g><path
       d="m 296.46191,323.27246 c 0,0 6.5,-1 6.5,-1"
       style="font-variation-settings:normal;opacity:1;vector-effect:none;fill:none;fill-opacity:1;stroke:#0a50ff;stroke-width:1;stroke-linecap:round;stroke-linejoin:bevel;stroke-miterlimit:10;stroke-dasharray:none;stroke-dashoffset:0;stroke-opacity:1;stop-color:#000000;stop-opacity:1"
       id="path186"
       inkscape:connector-curvature="0" /><path
       d="m 340.5,348.36328 c 0,-1.65625 -1.23145,-3 -2.75,-3 -1.51855,0 -2.75,1.34375 -2.75,3 0,1.65625 1.23145,3 2.75,3 1.51855,0 2.75,-1.34375 2.75,-3 z"
       style="font-variation-settings:normal;opacity:1;vector-effect:none;fill:none;fill-opacity:1;stroke:#0a50ff;stroke-width:1;stroke-linecap:round;stroke-linejoin:bevel;stroke-miterlimit:10;stroke-dasharray:none;stroke-dashoffset:0;stroke-opacity:1;stop-color:#000000;stop-opacity:1"
       id="path188"
       inkscape:connector-curvature="0" /><path
       d="m 279.75,281.61328 c 0,-1.65625 -1.23145,-3 -2.75,-3 -1.51855,0 -2.75,1.34375 -2.75,3 0,1.65625 1.23145,3 2.75,3 1.51855,0 2.75,-1.34375 2.75,-3 z"
       style="font-variation-settings:normal;opacity:1;vector-effect:none;fill:none;fill-opacity:1;stroke:#0a50ff;stroke-width:1;stroke-linecap:round;stroke-linejoin:bevel;stroke-miterlimit:10;stroke-dasharray:none;stroke-dashoffset:0;stroke-opacity:1;stop-color:#000000;stop-opacity:1"
       id="path190"
       inkscape:connector-curvature="0" /><path
       d="m 295.5,303.11328 c -2.5,-11.5 -9.5,-15.25 -16,-20.5"
       style="font-variation-settings:normal;opacity:1;vector-effect:none;fill:none;fill-opacity:1;stroke:#0a50ff;stroke-width:1;stroke-linecap:round;stroke-linejoin:bevel;stroke-miterlimit:10;stroke-dasharray:none;stroke-dashoffset:0;stroke-opacity:1;stop-color:#000000;stop-opacity:1"
       id="path192"
       inkscape:connector-curvature="0" /><path
       d="m 298.25,306.11328 c 0,-1.65625 -1.23145,-3 -2.75,-3 -1.51855,0 -2.75,1.34375 -2.75,3 0,1.65625 1.23145,3 2.75,3 1.51855,0 2.75,-1.34375 2.75,-3 z"
       style="font-variation-settings:normal;opacity:1;vector-effect:none;fill:none;fill-opacity:1;stroke:#0a50ff;stroke-width:1;stroke-linecap:round;stroke-linejoin:bevel;stroke-miterlimit:10;stroke-dasharray:none;stroke-dashoffset:0;stroke-opacity:1;stop-color:#000000;stop-opacity:1"
       id="path194"
       inkscape:connector-curvature="0" /><path
       d="m 347.33398,299.28027 c 0,-1.65625 -1.23242,-3 -2.75,-3 -1.51953,0 -2.75,1.34375 -2.75,3 0,1.65625 1.23047,3 2.75,3 1.51758,0 2.75,-1.34375 2.75,-3 z"
       style="font-variation-settings:normal;opacity:1;vector-effect:none;fill:none;fill-opacity:1;stroke:#0a50ff;stroke-width:1;stroke-linecap:round;stroke-linejoin:bevel;stroke-miterlimit:10;stroke-dasharray:none;stroke-dashoffset:0;stroke-opacity:1;stop-color:#000000;stop-opacity:1"
       id="path196"
       inkscape:connector-curvature="0" /><path
       d="m 339,345.86328 c 4,-12.25 8.5,-28.75 6.25,-43.5"
       style="font-variation-settings:normal;opacity:1;vector-effect:none;fill:none;fill-opacity:1;stroke:#0a50ff;stroke-width:1;stroke-linecap:round;stroke-linejoin:bevel;stroke-miterlimit:10;stroke-dasharray:none;stroke-dashoffset:0;stroke-opacity:1;stop-color:#000000;stop-opacity:1"
       id="path198"
       inkscape:connector-curvature="0" /><path
       d="m 279.75,281.61328 c 12.25,0.25 29.31934,-3.99414 38.25,-3.25 9,0.75 20,9.75 25.5,18.25"
       style="font-variation-settings:normal;opacity:1;vector-effect:none;fill:none;fill-opacity:1;stroke:#0a50ff;stroke-width:1;stroke-linecap:round;stroke-linejoin:bevel;stroke-miterlimit:10;stroke-dasharray:none;stroke-dashoffset:0;stroke-opacity:1;stop-color:#000000;stop-opacity:1"
       id="path200"
       inkscape:connector-curvature="0" /><path
       d="m 277,278.61328 c 6.5,-9.25 16,-23.75 32.5,-20.25 16.5,3.5 35.16699,32.58399 35.08398,37.91699"
       style="font-variation-settings:normal;opacity:1;vector-effect:none;fill:none;fill-opacity:1;stroke:#0a50ff;stroke-width:1;stroke-linecap:round;stroke-linejoin:bevel;stroke-miterlimit:10;stroke-dasharray:none;stroke-dashoffset:0;stroke-opacity:1;stop-color:#000000;stop-opacity:1"
       id="path202"
       inkscape:connector-curvature="0" /><path
       d="m 304.75,335.36328 c 0,-1.65625 -1.23145,-3 -2.75,-3 -1.51855,0 -2.75,1.34375 -2.75,3 0,1.65625 1.23145,3 2.75,3 1.51855,0 2.75,-1.34375 2.75,-3 z"
       style="font-variation-settings:normal;opacity:1;vector-effect:none;fill:none;fill-opacity:1;stroke:#0a50ff;stroke-width:1;stroke-linecap:round;stroke-linejoin:bevel;stroke-miterlimit:10;stroke-dasharray:none;stroke-dashoffset:0;stroke-opacity:1;stop-color:#000000;stop-opacity:1"
       id="path204"
       inkscape:connector-curvature="0" /><path
       d="m 335,348.36328 c -8.25,-1.75 -22.75,-6.5 -31.25,-10.25"
       style="font-variation-settings:normal;opacity:1;vector-effect:none;fill:none;fill-opacity:1;stroke:#0a50ff;stroke-width:1;stroke-linecap:round;stroke-linejoin:bevel;stroke-miterlimit:10;stroke-dasharray:none;stroke-dashoffset:0;stroke-opacity:1;stop-color:#000000;stop-opacity:1"
       id="path206"
       inkscape:connector-curvature="0" /><path
       d="m 301.25,332.36328 c -2.25,-6 -4.75,-13.75 -5.75,-23.25"
       style="font-variation-settings:normal;opacity:1;vector-effect:none;fill:none;fill-opacity:1;stroke:#0a50ff;stroke-width:1;stroke-linecap:round;stroke-linejoin:bevel;stroke-miterlimit:10;stroke-dasharray:none;stroke-dashoffset:0;stroke-opacity:1;stop-color:#000000;stop-opacity:1"
       id="path208"
       inkscape:connector-curvature="0" /><path
       d="m 299,336.36328 c -15,-0.25 -36.5,-2 -38,-14.75 -1.5,-12.75 3.75,-30.5 13,-38.75"
       style="font-variation-settings:normal;opacity:1;vector-effect:none;fill:none;fill-opacity:1;stroke:#0a50ff;stroke-width:1;stroke-linecap:round;stroke-linejoin:bevel;stroke-miterlimit:10;stroke-dasharray:none;stroke-dashoffset:0;stroke-opacity:1;stop-color:#000000;stop-opacity:1"
       id="path210"
       inkscape:connector-curvature="0" /><path
       d="m 304,333.36328 c 15,-6 27.25,-17.5 32.75,-23.75 5.5,-6.25 3,-3.25 5.75,-7.75"
       style="font-variation-settings:normal;opacity:1;vector-effect:none;fill:none;fill-opacity:1;stroke:#0a50ff;stroke-width:1;stroke-linecap:round;stroke-linejoin:bevel;stroke-miterlimit:10;stroke-dasharray:none;stroke-dashoffset:0;stroke-opacity:1;stop-color:#000000;stop-opacity:1"
       id="path212"
       inkscape:connector-curvature="0" /><path
       d="m 261.96191,294.77246 c 0,0 6,3 6,3"
       style="font-variation-settings:normal;opacity:1;vector-effect:none;fill:none;fill-opacity:1;stroke:#0a50ff;stroke-width:1;stroke-linecap:round;stroke-linejoin:bevel;stroke-miterlimit:10;stroke-dasharray:none;stroke-dashoffset:0;stroke-opacity:1;stop-color:#000000;stop-opacity:1"
       id="path214"
       inkscape:connector-curvature="0" /><path
       d="m 284.96191,291.27246 c 0,0 6,-4 6,-4"
       style="font-variation-settings:normal;opacity:1;vector-effect:none;fill:none;fill-opacity:1;stroke:#0a50ff;stroke-width:1;stroke-linecap:round;stroke-linejoin:bevel;stroke-miterlimit:10;stroke-dasharray:none;stroke-dashoffset:0;stroke-opacity:1;stop-color:#000000;stop-opacity:1"
       id="path216"
       inkscape:connector-curvature="0" /><path
       d="m 293.46191,277.77246 c 0,0 2.5,7 2.5,7"
       style="font-variation-settings:normal;opacity:1;vector-effect:none;fill:none;fill-opacity:1;stroke:#0a50ff;stroke-width:1;stroke-linecap:round;stroke-linejoin:bevel;stroke-miterlimit:10;stroke-dasharray:none;stroke-dashoffset:0;stroke-opacity:1;stop-color:#000000;stop-opacity:1"
       id="path218"
       inkscape:connector-curvature="0" /><path
       d="m 324.96191,271.77246 c 0,0 3.5,-4.5 3.5,-4.5"
       style="font-variation-settings:normal;opacity:1;vector-effect:none;fill:none;fill-opacity:1;stroke:#0a50ff;stroke-width:1;stroke-linecap:round;stroke-linejoin:bevel;stroke-miterlimit:10;stroke-dasharray:none;stroke-dashoffset:0;stroke-opacity:1;stop-color:#000000;stop-opacity:1"
       id="path220"
       inkscape:connector-curvature="0" /><path
       d="m 689.89648,351.30664 c 0,-1.65625 -1.23046,-3 -2.75,-3 -1.51757,0 -2.75,1.34375 -2.75,3 0,1.65527 1.23243,2.99902 2.75,2.99902 1.51954,0 2.75,-1.34375 2.75,-2.99902 z"
       style="fill:none;stroke:#ff66ff;stroke-width:1;stroke-linecap:butt;stroke-linejoin:miter;stroke-miterlimit:4;stroke-dasharray:none;stroke-opacity:1"
       id="path230"
       inkscape:connector-curvature="0" /><path
       d="m 729.89844,303.64063 c 0,-1.65625 -1.23242,-3 -2.75,-3 -1.51953,0 -2.75,1.34375 -2.75,3 0,1.65527 1.23047,2.99902 2.75,2.99902 1.51758,0 2.75,-1.34375 2.75,-2.99902 z"
       style="fill:none;stroke:#ff66ff;stroke-width:1;stroke-linecap:butt;stroke-linejoin:miter;stroke-miterlimit:4;stroke-dasharray:none;stroke-opacity:1"
       id="path232"
       inkscape:connector-curvature="0" /><path
       d="m 782.56445,261.30762 c 0,-1.65625 -1.23242,-3 -2.75,-3 -1.51953,0 -2.75,1.34375 -2.75,3 0,1.65625 1.23047,3 2.75,3 1.51758,0 2.75,-1.34375 2.75,-3 z"
       style="fill:none;stroke:#ff66ff;stroke-width:1;stroke-linecap:butt;stroke-linejoin:miter;stroke-miterlimit:4;stroke-dasharray:none;stroke-opacity:1"
       id="path234"
       inkscape:connector-curvature="0" /><path
       d="m 689.89844,261.97461 c 0,-1.65625 -1.23242,-3 -2.75,-3 -1.51953,0 -2.75,1.34375 -2.75,3 0,1.65527 1.23047,2.99902 2.75,2.99902 1.51758,0 2.75,-1.34375 2.75,-2.99902 z"
       style="fill:none;stroke:#ff66ff;stroke-width:1;stroke-linecap:butt;stroke-linejoin:miter;stroke-miterlimit:4;stroke-dasharray:none;stroke-opacity:1"
       id="path236"
       inkscape:connector-curvature="0" /><path
       d="m 782.23047,351.30762 c 0,-1.65625 -1.23047,-3 -2.75,-3 -1.51758,0 -2.75,1.34375 -2.75,3 0,1.65527 1.23242,2.99902 2.75,2.99902 1.51953,0 2.75,-1.34375 2.75,-2.99902 z"
       style="fill:none;stroke:#ff66ff;stroke-width:1;stroke-linecap:butt;stroke-linejoin:miter;stroke-miterlimit:4;stroke-dasharray:none;stroke-opacity:1"
       id="path238"
       inkscape:connector-curvature="0" /><path
       d="m 691.85156,309.52637 c 0,0 -5.55468,-0.11426 -5.55468,-0.11426"
       style="fill:none;stroke:#ff66ff;stroke-width:1;stroke-linecap:butt;stroke-linejoin:miter;stroke-miterlimit:4;stroke-dasharray:none;stroke-opacity:1"
       id="path240"
       inkscape:connector-curvature="0" /><path
       d="m 726.32227,348.86719 c 0,0 0.35156,6.46094 0.35156,6.46094"
       style="fill:none;stroke:#ff66ff;stroke-width:1;stroke-linecap:butt;stroke-linejoin:miter;stroke-miterlimit:4;stroke-dasharray:none;stroke-opacity:1"
       id="path242"
       inkscape:connector-curvature="0" /><path
       d="m 778.68359,264.42383 c 0,0 -90.08984,0 -90.08984,0 0,0 0,84.31543 0,84.31543 0,0 90.08984,0 90.08984,0 0,0 0,-84.31543 0,-84.31543 z"
       style="fill:none;stroke:#ff66ff;stroke-width:1;stroke-linecap:butt;stroke-linejoin:miter;stroke-miterlimit:4;stroke-dasharray:none;stroke-opacity:1"
       id="path244"
       inkscape:connector-curvature="0" /><path
       d="m 688.59375,353.35938 c 0,0 88.93359,-0.38477 88.93359,-0.38477"
       style="fill:none;stroke:#ff66ff;stroke-width:1;stroke-linecap:butt;stroke-linejoin:miter;stroke-miterlimit:4;stroke-dasharray:none;stroke-opacity:1"
       id="path246"
       inkscape:connector-curvature="0" /><path
       d="m 689.36328,261.34375 c 0,0 88.16406,0 88.16406,0"
       style="fill:none;stroke:#ff66ff;stroke-width:1;stroke-linecap:butt;stroke-linejoin:miter;stroke-miterlimit:4;stroke-dasharray:none;stroke-opacity:1"
       id="path248"
       inkscape:connector-curvature="0" /><path
       d="m 688.59375,264.42383 c 0,0 36.2207,37.2168 36.2207,37.2168"
       style="fill:none;stroke:#ff66ff;stroke-width:1;stroke-linecap:butt;stroke-linejoin:miter;stroke-miterlimit:4;stroke-dasharray:none;stroke-opacity:1"
       id="path250"
       inkscape:connector-curvature="0" /><path
       d="m 729.14844,305.97363 c 0,0 49.53515,42.76563 49.53515,42.76563"
       style="fill:none;stroke:#ff66ff;stroke-width:1;stroke-linecap:butt;stroke-linejoin:miter;stroke-miterlimit:4;stroke-dasharray:none;stroke-opacity:1"
       id="path252"
       inkscape:connector-curvature="0" /><path
       d="m 749.14844,253.64063 c 11.66797,-1 40,-1.83399 44,16.5 2.27344,10.42187 0.99804,20.16601 -8.66797,30.16601 -9.66602,10 -19.33203,20.00098 -30.33203,21.16699"
       style="opacity:0.99005;fill:none;stroke:#ffffff;stroke-width:1;stroke-linecap:butt;stroke-linejoin:miter;stroke-miterlimit:4;stroke-dasharray:none;stroke-opacity:1"
       id="path358"
       inkscape:connector-curvature="0" /><g
       id="g5364"
       style="stroke:#ffffff"><path
         d="m 732.48242,269.64063 c 16.25391,-1.72852 16.66602,-14.33399 7.33203,-22 -9.33398,-7.66602 -37.66601,-21.33301 -50,-6.667 -12.33398,14.66602 -23.66601,36.99903 -14.66601,48.66602 9,11.66699 24,20 34.66601,29.66699 10.66602,9.66699 5.50196,21.16699 11.33399,25.16699"
         style="opacity:0.987562;fill:none;stroke:#ffffff;stroke-width:1;stroke-linecap:butt;stroke-linejoin:miter;stroke-miterlimit:4;stroke-dasharray:none;stroke-opacity:1"
         id="path262"
         inkscape:connector-curvature="0" /><path
         d="m 729.31445,350.47363 c 5.83399,4 14.16602,10.16602 4.16602,16.83301 -10,6.66699 -19.33399,9 -34,6.33399 -14.66602,-2.667 -26.33203,-5.33301 -28.66602,-20.667 -2.33398,-15.333 -1.33203,-35.66601 13.83399,-47.66601"
         style="opacity:0.987562;fill:none;stroke:#ffffff;stroke-width:1;stroke-linecap:butt;stroke-linejoin:miter;stroke-miterlimit:4;stroke-dasharray:none;stroke-opacity:1"
         id="path278"
         inkscape:connector-curvature="0" /><path
         d="m 691.81445,300.30762 c 7,-6 13.16797,-7.50098 18.5,-8.50098"
         style="opacity:0.987562;fill:none;stroke:#ffffff;stroke-width:1;stroke-linecap:butt;stroke-linejoin:miter;stroke-miterlimit:4;stroke-dasharray:none;stroke-opacity:1"
         id="path294"
         inkscape:connector-curvature="0" /><path
         d="m 718.48242,290.97363 c 7,0.667 17.16602,-1 24.99805,6.667 8.09961,7.92773 8.08789,23.7832 -1,34.333 -9.33203,10.83399 -24.49805,17.167 -22.49805,25.5 2,8.33399 1.16602,5.5 8.49805,10.5"
         style="opacity:0.985075;fill:none;stroke:#ffffff;stroke-width:1;stroke-linecap:butt;stroke-linejoin:miter;stroke-miterlimit:4;stroke-dasharray:none;stroke-opacity:1"
         id="path310"
         inkscape:connector-curvature="0" /><path
         d="m 734.14844,370.30762 c 9.66797,1.66601 13.66601,5.66601 29,3.66601 15.33203,-2 28,-16 29.66601,-29.333 1.66602,-13.33399 -3.33398,-29.667 -8.33398,-34.667"
         style="opacity:0.99005;fill:none;stroke:#ffffff;stroke-width:1;stroke-linecap:butt;stroke-linejoin:miter;stroke-miterlimit:4;stroke-dasharray:none;stroke-opacity:1"
         id="path326"
         inkscape:connector-curvature="0" /><path
         d="m 774.81445,303.80762 c -9,-10.33399 -20.5,-11.00098 -33.66601,-17.50098 -12.19727,-6.02051 -15.66602,-9 -16,-18.33301 -0.32617,-9.09961 3,-13.5 9.66601,-13.5"
         style="opacity:0.99005;fill:none;stroke:#ffffff;stroke-width:1;stroke-linecap:butt;stroke-linejoin:miter;stroke-miterlimit:4;stroke-dasharray:none;stroke-opacity:1"
         id="path342"
         inkscape:connector-curvature="0" /><path
         d="m 744.31445,322.30762 c -10.66601,3 -19.22656,-0.86914 -27.83203,-8 -5.83398,-4.83399 -4.66797,-17 -1.33398,-25.50098 1.55859,-3.97363 6.16601,-4.33301 9.33203,-7.16699"
         style="opacity:0.967662;fill:none;stroke:#ffffff;stroke-width:1;stroke-linecap:butt;stroke-linejoin:miter;stroke-miterlimit:4;stroke-dasharray:none;stroke-opacity:1"
         id="path374"
         inkscape:connector-curvature="0" /></g><g
       id="g5355"
       style="stroke:#ffffff"><path
         d="m 731.27148,422.39063 c 14.22266,-11.43165 9.57813,-33.25684 -32.79687,-22.08497 -21.80273,5.74805 -21.71094,32.62207 -8.70898,47.8086 9.09375,10.61914 21.24023,23.12207 30.76757,28.96972"
         style="fill:none;stroke:#ffffff;stroke-width:2;stroke-linecap:butt;stroke-linejoin:miter;stroke-miterlimit:4;stroke-dasharray:none;stroke-opacity:1"
         id="path382"
         inkscape:connector-curvature="0" /><path
         d="m 727.64453,481.76074 c 23.51172,14.43164 -15.82031,25.85254 -35.84765,12.34082 -13.61329,-9.18261 -17.31836,-25.46191 0.29101,-37.93359"
         style="fill:none;stroke:#ffffff;stroke-width:2;stroke-linecap:butt;stroke-linejoin:miter;stroke-miterlimit:4;stroke-dasharray:none;stroke-opacity:1"
         id="path384"
         inkscape:connector-curvature="0" /><path
         d="m 696.73242,451.75098 c 5.80469,-3.89746 11.75586,-6.49512 15.0918,-7.27442"
         style="fill:none;stroke:#ffffff;stroke-width:2;stroke-linecap:butt;stroke-linejoin:miter;stroke-miterlimit:4;stroke-dasharray:none;stroke-opacity:1"
         id="path386"
         inkscape:connector-curvature="0" /><path
         d="m 718.79102,443.43652 c 62.11328,-6.49511 -15.91407,37.28907 8.12695,51.96485"
         style="fill:none;stroke:#ffffff;stroke-width:2;stroke-linecap:butt;stroke-linejoin:miter;stroke-miterlimit:4;stroke-dasharray:none;stroke-opacity:1"
         id="path388"
         inkscape:connector-curvature="0" /><path
         d="m 734.75391,498.51855 c 17.45703,2.69434 34.32422,4.67286 44.38867,-12.37988 6.33203,-10.72851 6.69336,-26.85449 -3.46485,-35.94629"
         style="fill:none;stroke:#ffffff;stroke-width:2;stroke-linecap:butt;stroke-linejoin:miter;stroke-miterlimit:4;stroke-dasharray:none;stroke-opacity:1"
         id="path390"
         inkscape:connector-curvature="0" /><path
         d="m 767.26172,445.38574 c -9.79883,-10.07129 -25.95313,-10.32324 -37.58203,-17.81445 -7.01563,-4.51953 -13.79102,-16.35254 2.7539,-22.32813"
         style="fill:none;stroke:#ffffff;stroke-width:2;stroke-linecap:butt;stroke-linejoin:miter;stroke-miterlimit:4;stroke-dasharray:none;stroke-opacity:1"
         id="path392"
         inkscape:connector-curvature="0" /><path
         d="m 744.33398,402.64453 c 16.25196,-4.41699 35.36329,2.01758 38.89258,16.49902 4.19336,17.2129 -16.2539,39.36329 -37.44336,39.36329"
         style="fill:none;stroke:#ffffff;stroke-width:2;stroke-linecap:butt;stroke-linejoin:miter;stroke-miterlimit:4;stroke-dasharray:none;stroke-opacity:1"
         id="path394"
         inkscape:connector-curvature="0" /><path
         d="m 735.04492,458.50684 c -17.99414,1.29882 -27.89844,-17.34961 -11.60937,-30.40039"
         style="fill:none;stroke:#ffffff;stroke-width:2;stroke-linecap:butt;stroke-linejoin:miter;stroke-miterlimit:4;stroke-dasharray:none;stroke-opacity:1"
         id="path396"
         inkscape:connector-curvature="0" /></g><g
       id="g398"
       style="fill:#ffffff;stroke:#ffffff">
<g
   id="g404"
   transform="scale(1,-1)"
   style="fill:#ffffff;stroke:#ffffff" /></g><text
       xml:space="preserve"
       style="font-size:12px;line-height:1.25;font-family:'Cambria Math';-inkscape-font-specification:'Cambria Math';fill:#ffffff;stroke-width:0.75"
       x="302.69806"
       y="-433.89673"
       id="text5668"
       transform="scale(1,-1)"><tspan
         sodipodi:role="line"
         id="tspan5666"
         x="302.69806"
         y="-433.89673"
         style="fill:#ffffff;stroke-width:0.75">état blanc et état jaune sont <tspan
   style="stroke:#ffffff"
   id="tspan5670">duaux</tspan></tspan></text></g></svg>
