<?xml version="1.0" encoding="UTF-8" standalone="no"?>
<svg
   xmlns:dc="http://purl.org/dc/elements/1.1/"
   xmlns:cc="http://creativecommons.org/ns#"
   xmlns:rdf="http://www.w3.org/1999/02/22-rdf-syntax-ns#"
   xmlns:svg="http://www.w3.org/2000/svg"
   xmlns="http://www.w3.org/2000/svg"
   xmlns:sodipodi="http://sodipodi.sourceforge.net/DTD/sodipodi-0.dtd"
   xmlns:inkscape="http://www.inkscape.org/namespaces/inkscape"
   version="1.1"
   id="svg2"
   xml:space="preserve"
   width="781.74927"
   height="150.1125"
   viewBox="0 0 781.74926 150.1125"
   sodipodi:docname="graphe-orné.ai.svg"
   inkscape:version="1.0.2-2 (e86c870879, 2021-01-15)"><metadata
     id="metadata8"><rdf:RDF><cc:Work
         rdf:about=""><dc:format>image/svg+xml</dc:format><dc:type
           rdf:resource="http://purl.org/dc/dcmitype/StillImage" /><dc:title></dc:title></cc:Work></rdf:RDF></metadata><defs
     id="defs6"><clipPath
       clipPathUnits="userSpaceOnUse"
       id="clipPath18"><path
         d="M 0,841.89 H 595.276 V 0 H 0 Z"
         id="path16" /></clipPath></defs><sodipodi:namedview
     pagecolor="#ffffff"
     bordercolor="#666666"
     borderopacity="1"
     objecttolerance="10"
     gridtolerance="10"
     guidetolerance="10"
     inkscape:pageopacity="0"
     inkscape:pageshadow="2"
     inkscape:window-width="1920"
     inkscape:window-height="1001"
     id="namedview4"
     showgrid="false"
     inkscape:zoom="3.4368871"
     inkscape:cx="459.71602"
     inkscape:cy="115.41708"
     inkscape:window-x="-9"
     inkscape:window-y="-9"
     inkscape:window-maximized="1"
     inkscape:current-layer="g10"
     inkscape:document-rotation="0"
     fit-margin-top="10"
     lock-margins="true"
     fit-margin-left="10"
     fit-margin-right="10"
     fit-margin-bottom="10" /><g
     id="g10"
     inkscape:groupmode="layer"
     inkscape:label="graphe-orné"
     transform="matrix(1.3333333,0,0,-1.3333333,-6.1110873,643.52115)"><g
       id="g20"
       transform="translate(66.439,436.3306)"><path
         d="M 0,0 C -4.594,5.798 -13.245,26.833 -3.952,30.822 5.339,34.812 20.991,29.86 15.402,12.54"
         style="fill:none;stroke:#e31a5b;stroke-width:1.624;stroke-linecap:butt;stroke-linejoin:miter;stroke-miterlimit:4;stroke-dasharray:none;stroke-opacity:1"
         id="path22" /></g><g
       id="g24"
       transform="translate(78.9258,441.7642)"><path
         d="M 0,0 C -5.103,-8.438 -16.401,-10.2 -25.18,-11.493 -37.393,-13.292 -45.923,-24.204 -38.682,-27.84"
         style="fill:none;stroke:#e31a5b;stroke-width:1.624;stroke-linecap:butt;stroke-linejoin:miter;stroke-miterlimit:4;stroke-dasharray:none;stroke-opacity:1"
         id="path26" /></g><g
       id="g28"
       transform="translate(47.8247,410.8984)"><path
         d="M 0,0 C 13.794,-2.519 32.257,-7.802 16.522,-19.762"
         style="fill:none;stroke:#e31a5b;stroke-width:1.624;stroke-linecap:butt;stroke-linejoin:miter;stroke-miterlimit:4;stroke-dasharray:none;stroke-opacity:1"
         id="path30" /></g><g
       id="g32"
       transform="translate(55,386.3662)"><path
         d="M 0,0 C -8.888,-6.496 -32.699,-2.293 -39.001,13.101 -53.657,48.893 -11.99,60.059 -6.475,45.785"
         style="fill:none;stroke:#e31a5b;stroke-width:1.624;stroke-linecap:butt;stroke-linejoin:miter;stroke-miterlimit:4;stroke-dasharray:none;stroke-opacity:1"
         id="path34" /></g><g
       id="g36"
       transform="translate(50.6196,426.4458)"><path
         d="m 0,0 c 4.542,-7.304 -5.653,-16.621 -14.432,-17.397 -6.877,-0.608 -13.177,11.043 -11.011,21.543"
         style="fill:none;stroke:#e31a5b;stroke-width:1.624;stroke-linecap:butt;stroke-linejoin:miter;stroke-miterlimit:4;stroke-dasharray:none;stroke-opacity:1"
         id="path38" /></g><g
       id="g40"
       transform="translate(26.5103,440.2588)"><path
         d="M 0,0 C 0,9.833 14.775,16.669 28.402,14.378"
         style="fill:none;stroke:#e31a5b;stroke-width:1.624;stroke-linecap:butt;stroke-linejoin:miter;stroke-miterlimit:4;stroke-dasharray:none;stroke-opacity:1"
         id="path42" /></g><g
       id="g44"
       transform="translate(63.96,453.4316)"><path
         d="M 0,0 C 13.022,-2.119 24.199,-15.443 31.731,-28.099 39.905,-41.835 30.53,-73.13 2.813,-67.934 -15.76,-64.452 -4.855,-51.728 -2.285,-49.3"
         style="fill:none;stroke:#e31a5b;stroke-width:1.624;stroke-linecap:butt;stroke-linejoin:miter;stroke-miterlimit:4;stroke-dasharray:none;stroke-opacity:1"
         id="path46" /></g><g
       id="g48"
       transform="translate(65.6768,410.2588)"><path
         d="M 0,0 C 6.355,5.739 9.667,12 4,19.5"
         style="fill:none;stroke:#e31a5b;stroke-width:1.624;stroke-linecap:butt;stroke-linejoin:miter;stroke-miterlimit:4;stroke-dasharray:none;stroke-opacity:1"
         id="path50" /></g><g
       id="g52"
       transform="translate(50.6841,460.0469)"><path
         d="m 0,0 c -0.367,0.62 -0.55,1.226 -0.55,1.818 0,0.26 0.078,0.478 0.236,0.653 0.157,0.175 0.373,0.263 0.649,0.263 0.272,0 0.484,-0.082 0.636,-0.245 C 1.124,2.325 1.2,2.109 1.2,1.839 1.2,1.238 1.016,0.625 0.649,0 c 0.265,-0.526 0.601,-0.788 1.01,-0.788 0.861,0 1.291,0.687 1.291,2.063 0,1.267 -0.38,2.291 -1.137,3.074 L 1.941,4.571 C 3.562,3.869 4.372,2.669 4.372,0.974 4.372,0.137 4.17,-0.519 3.768,-0.994 3.366,-1.469 2.85,-1.707 2.218,-1.707 c -0.882,0 -1.514,0.422 -1.897,1.267 -0.387,-0.845 -1.018,-1.267 -1.893,-1.267 -0.66,0 -1.213,0.237 -1.658,0.709 -0.445,0.474 -0.667,1.107 -0.667,1.9 0,0.893 0.28,1.728 0.839,2.504 0.559,0.777 0.908,1.165 1.047,1.165 0.043,0 0.18,-0.081 0.413,-0.244 C -1.366,4.165 -1.25,4.062 -1.25,4.019 -1.25,3.98 -1.277,3.926 -1.329,3.855 -2.137,2.77 -2.541,1.81 -2.541,0.975 c 0,-0.54 0.135,-0.969 0.403,-1.287 0.269,-0.317 0.61,-0.476 1.023,-0.476 0.441,0 0.812,0.262 1.115,0.788"
         style="fill:#000000;fill-opacity:1;fill-rule:nonzero;stroke:none"
         id="path54" /></g><g
       id="g56"
       transform="translate(443.543,443.3027)"><path
         d="M 0,0 C 7.717,-4.047 34.554,-17.68 38.045,-22.845"
         style="fill:#ffffff;fill-opacity:1;fill-rule:nonzero;stroke:#1a171b;stroke-width:0.796;stroke-linecap:butt;stroke-linejoin:miter;stroke-miterlimit:4;stroke-dasharray:none;stroke-opacity:1"
         id="path58" /></g><g
       id="g60"
       transform="translate(468.9443,457.1504)"><path
         d="M 0,0 C 5.496,-6.74 10.07,-21.86 12.645,-34.332"
         style="fill:none;stroke:#1a171b;stroke-width:0.796;stroke-linecap:butt;stroke-linejoin:miter;stroke-miterlimit:4;stroke-dasharray:none;stroke-opacity:1"
         id="path62" /></g><g
       id="g64"
       transform="translate(463.4482,457.8994)"><path
         d="M 0,0 C -9.723,-5.991 -14.298,-8.618 -18.601,-11.607"
         style="fill:none;stroke:#1a171b;stroke-width:0.796;stroke-linecap:butt;stroke-linejoin:miter;stroke-miterlimit:4;stroke-dasharray:none;stroke-opacity:1"
         id="path66" /></g><g
       id="g68"
       transform="translate(478.668,418.585)"><path
         d="M 0,0 C -7.188,-4.867 -34.666,-16.101 -43.967,-18.347"
         style="fill:none;stroke:#1a171b;stroke-width:0.796;stroke-linecap:butt;stroke-linejoin:miter;stroke-miterlimit:4;stroke-dasharray:none;stroke-opacity:1"
         id="path70" /></g><g
       id="g72"
       transform="translate(481.5889,418.0967)"><path
         d="M 0,0 C -0.807,-6.251 -5.035,-40.324 -48.156,-21.603"
         style="fill:none;stroke:#1a171b;stroke-width:0.796;stroke-linecap:butt;stroke-linejoin:miter;stroke-miterlimit:4;stroke-dasharray:none;stroke-opacity:1"
         id="path74" /></g><g
       id="g76"
       transform="translate(439.3516,442.9224)"><path
         d="m 0,0 c -7.188,-0.749 -34.781,-20.49 -18.602,-34.821 2.115,-1.873 8.456,-7.489 8.456,-7.489"
         style="fill:none;stroke:#1a171b;stroke-width:0.796;stroke-linecap:butt;stroke-linejoin:miter;stroke-miterlimit:4;stroke-dasharray:none;stroke-opacity:1"
         id="path78" /></g><g
       id="g80"
       transform="translate(469.1113,459.0078)"><path
         d="m 0,0 c 0,-1.304 -1.343,-2.36 -2.999,-2.36 -1.656,0 -2.999,1.056 -2.999,2.36 0,1.305 1.343,2.362 2.999,2.362 C -1.343,2.362 0,1.305 0,0"
         style="fill:#ffffff;fill-opacity:1;fill-rule:nonzero;stroke:none"
         id="path82" /></g><g
       id="g84"
       transform="translate(469.1113,459.0078)"><path
         d="m 0,0 c 0,-1.304 -1.343,-2.36 -2.999,-2.36 -1.656,0 -2.999,1.056 -2.999,2.36 0,1.305 1.343,2.362 2.999,2.362 C -1.343,2.362 0,1.305 0,0 Z"
         style="fill:none;stroke:#1a171b;stroke-width:0.796;stroke-linecap:butt;stroke-linejoin:miter;stroke-miterlimit:4;stroke-dasharray:none;stroke-opacity:1"
         id="path86" /></g><g
       id="g88"
       transform="translate(484.5859,420.457)"><path
         d="m 0,0 c 0,-1.304 -1.341,-2.36 -2.997,-2.36 -1.657,0 -3,1.056 -3,2.36 0,1.306 1.343,2.362 3,2.362 C -1.341,2.362 0,1.306 0,0"
         style="fill:#ffffff;fill-opacity:1;fill-rule:nonzero;stroke:none"
         id="path90" /></g><g
       id="g92"
       transform="translate(484.5859,420.457)"><path
         d="m 0,0 c 0,-1.304 -1.341,-2.36 -2.997,-2.36 -1.657,0 -3,1.056 -3,2.36 0,1.306 1.343,2.362 3,2.362 C -1.341,2.362 0,1.306 0,0 Z"
         style="fill:none;stroke:#1a171b;stroke-width:0.796;stroke-linecap:butt;stroke-linejoin:miter;stroke-miterlimit:4;stroke-dasharray:none;stroke-opacity:1"
         id="path94" /></g><g
       id="g96"
       transform="translate(434.9336,398.7559)"><path
         d="m 0,0 c 0,-1.306 -1.342,-2.362 -2.999,-2.362 -1.656,0 -2.999,1.056 -2.999,2.362 0,1.305 1.343,2.36 2.999,2.36 C -1.342,2.36 0,1.305 0,0"
         style="fill:#ffffff;fill-opacity:1;fill-rule:nonzero;stroke:none"
         id="path98" /></g><g
       id="g100"
       transform="translate(434.9336,398.7559)"><path
         d="m 0,0 c 0,-1.306 -1.342,-2.362 -2.999,-2.362 -1.656,0 -2.999,1.056 -2.999,2.362 0,1.305 1.343,2.36 2.999,2.36 C -1.342,2.36 0,1.305 0,0 Z"
         style="fill:none;stroke:#1a171b;stroke-width:0.796;stroke-linecap:butt;stroke-linejoin:miter;stroke-miterlimit:4;stroke-dasharray:none;stroke-opacity:1"
         id="path102" /></g><g
       id="g104"
       transform="translate(446.542,443.3027)"><path
         d="m 0,0 c 0,-1.304 -1.345,-2.361 -3.001,-2.361 -1.655,0 -2.997,1.057 -2.997,2.361 0,1.305 1.342,2.361 2.997,2.361 C -1.345,2.361 0,1.305 0,0"
         style="fill:#ffffff;fill-opacity:1;fill-rule:nonzero;stroke:none"
         id="path106" /></g><g
       id="g108"
       transform="translate(446.542,443.3027)"><path
         d="m 0,0 c 0,-1.304 -1.345,-2.361 -3.001,-2.361 -1.655,0 -2.997,1.057 -2.997,2.361 0,1.305 1.342,2.361 2.997,2.361 C -1.345,2.361 0,1.305 0,0 Z"
         style="fill:none;stroke:#1a171b;stroke-width:0.796;stroke-linecap:butt;stroke-linejoin:miter;stroke-miterlimit:4;stroke-dasharray:none;stroke-opacity:1"
         id="path110" /></g><g
       id="g112"
       transform="translate(445.4668,420.457)"><path
         d="m 0,0 c 0,-1.304 -1.343,-2.36 -3,-2.36 -1.656,0 -2.998,1.056 -2.998,2.36 0,1.306 1.342,2.362 2.998,2.362 1.657,0 3,-1.056 3,-2.362"
         style="fill:#ffffff;fill-opacity:1;fill-rule:nonzero;stroke:none"
         id="path114" /></g><g
       id="g116"
       transform="translate(445.4668,420.457)"><path
         d="m 0,0 c 0,-1.304 -1.343,-2.36 -3,-2.36 -1.656,0 -2.998,1.056 -2.998,2.36 0,1.306 1.342,2.362 2.998,2.362 1.657,0 3,-1.056 3,-2.362 z"
         style="fill:none;stroke:#1a171b;stroke-width:0.796;stroke-linecap:butt;stroke-linejoin:miter;stroke-miterlimit:4;stroke-dasharray:none;stroke-opacity:1"
         id="path118" /></g><g
       id="g120"
       transform="translate(431.9346,401.1162)"><path
         d="M 0,0 C 4.035,5.487 7.417,9.231 9.53,16.346"
         style="fill:none;stroke:#1a171b;stroke-width:0.796;stroke-linecap:butt;stroke-linejoin:miter;stroke-miterlimit:4;stroke-dasharray:none;stroke-opacity:1"
         id="path122" /></g><g
       id="g124"
       transform="translate(443.541,440.9414)"><path
         d="M 0,0 C 1.729,-4.384 0.771,-13.888 -1.074,-18.123"
         style="fill:#ffffff;fill-opacity:1;fill-rule:nonzero;stroke:#1a171b;stroke-width:0.796;stroke-linecap:butt;stroke-linejoin:miter;stroke-miterlimit:4;stroke-dasharray:none;stroke-opacity:1"
         id="path126" /></g><g
       id="g128"
       transform="translate(413.7207,426.4482)"><path
         d="M 0,0 6.764,-2.246"
         style="fill:none;stroke:#1a171b;stroke-width:1.591;stroke-linecap:butt;stroke-linejoin:miter;stroke-miterlimit:4;stroke-dasharray:none;stroke-opacity:1"
         id="path130" /></g><g
       id="g132"
       transform="translate(439.9316,430.1929)"><path
         d="M 0,0 H 6.764"
         style="fill:none;stroke:#1a171b;stroke-width:1.591;stroke-linecap:butt;stroke-linejoin:miter;stroke-miterlimit:4;stroke-dasharray:none;stroke-opacity:1"
         id="path134" /></g><g
       id="g136"
       transform="translate(434.0127,411.4717)"><path
         d="M 0,0 6.764,-2.246"
         style="fill:none;stroke:#1a171b;stroke-width:1.591;stroke-linecap:butt;stroke-linejoin:miter;stroke-miterlimit:4;stroke-dasharray:none;stroke-opacity:1"
         id="path138" /></g><g
       id="g140"
       transform="translate(455.1504,411.4717)"><path
         d="M 0,0 4.228,-5.991"
         style="fill:none;stroke:#1a171b;stroke-width:1.591;stroke-linecap:butt;stroke-linejoin:miter;stroke-miterlimit:4;stroke-dasharray:none;stroke-opacity:1"
         id="path142" /></g><g
       id="g144"
       transform="translate(465.2969,397.2432)"><path
         d="M 0,0 4.228,-6.739"
         style="fill:none;stroke:#1a171b;stroke-width:1.591;stroke-linecap:butt;stroke-linejoin:miter;stroke-miterlimit:4;stroke-dasharray:none;stroke-opacity:1"
         id="path146" /></g><g
       id="g148"
       transform="translate(515.3115,458.5811)"><path
         d="M 0,0 66.207,-62.524"
         style="fill:none;stroke:#1a171b;stroke-width:0.898;stroke-linecap:butt;stroke-linejoin:miter;stroke-miterlimit:4;stroke-dasharray:none;stroke-opacity:1"
         id="path150" /></g><g
       id="g152"
       transform="translate(515.3115,458.5811)"><path
         d="M 0,0 18.235,-41.886"
         style="fill:none;stroke:#1a171b;stroke-width:0.898;stroke-linecap:butt;stroke-linejoin:miter;stroke-miterlimit:4;stroke-dasharray:none;stroke-opacity:1"
         id="path154" /></g><g
       id="g156"
       transform="translate(515.3115,396.0371)"><path
         d="M 0,0 18.235,20.658"
         style="fill:none;stroke:#1a171b;stroke-width:0.898;stroke-linecap:butt;stroke-linejoin:miter;stroke-miterlimit:4;stroke-dasharray:none;stroke-opacity:1"
         id="path158" /></g><g
       id="g160"
       transform="translate(515.918,393.6787)"><path
         d="M 0,0 -0.606,64.902 H 63.798 L 64.405,0 Z"
         style="fill:none;stroke:#1a171b;stroke-width:0.898;stroke-linecap:butt;stroke-linejoin:miter;stroke-miterlimit:4;stroke-dasharray:none;stroke-opacity:1"
         id="path162" /></g><g
       id="g164"
       transform="translate(582.9463,458.5801)"><path
         d="m 0,0 c 0,-1.54 -1.445,-2.789 -3.23,-2.789 -1.785,0 -3.23,1.249 -3.23,2.789 0,1.541 1.445,2.79 3.23,2.79 C -1.445,2.79 0,1.541 0,0"
         style="fill:#ffffff;fill-opacity:1;fill-rule:nonzero;stroke:none"
         id="path166" /></g><g
       id="g168"
       transform="translate(582.9463,458.5801)"><path
         d="m 0,0 c 0,-1.54 -1.445,-2.789 -3.23,-2.789 -1.785,0 -3.23,1.249 -3.23,2.789 0,1.541 1.445,2.79 3.23,2.79 C -1.445,2.79 0,1.541 0,0 Z"
         style="fill:none;stroke:#1a171b;stroke-width:0.898;stroke-linecap:butt;stroke-linejoin:miter;stroke-miterlimit:4;stroke-dasharray:none;stroke-opacity:1"
         id="path170" /></g><g
       id="g172"
       transform="translate(582.9463,396.0371)"><path
         d="m 0,0 c 0,-1.54 -1.444,-2.788 -3.228,-2.788 -1.787,0 -3.232,1.248 -3.232,2.788 0,1.542 1.445,2.79 3.232,2.79 C -1.444,2.79 0,1.542 0,0"
         style="fill:#ffffff;fill-opacity:1;fill-rule:nonzero;stroke:none"
         id="path174" /></g><g
       id="g176"
       transform="translate(582.9463,396.0371)"><path
         d="m 0,0 c 0,-1.54 -1.444,-2.788 -3.228,-2.788 -1.787,0 -3.232,1.248 -3.232,2.788 0,1.542 1.445,2.79 3.232,2.79 C -1.444,2.79 0,1.542 0,0 Z"
         style="fill:none;stroke:#1a171b;stroke-width:0.898;stroke-linecap:butt;stroke-linejoin:miter;stroke-miterlimit:4;stroke-dasharray:none;stroke-opacity:1"
         id="path178" /></g><g
       id="g180"
       transform="translate(518.541,396.0381)"><path
         d="m 0,0 c 0,-1.542 -1.445,-2.79 -3.229,-2.79 -1.786,0 -3.232,1.248 -3.232,2.79 0,1.54 1.446,2.788 3.232,2.788 C -1.445,2.788 0,1.54 0,0"
         style="fill:#ffffff;fill-opacity:1;fill-rule:nonzero;stroke:none"
         id="path182" /></g><g
       id="g184"
       transform="translate(518.541,396.0381)"><path
         d="m 0,0 c 0,-1.542 -1.445,-2.79 -3.229,-2.79 -1.786,0 -3.232,1.248 -3.232,2.79 0,1.54 1.446,2.788 3.232,2.788 C -1.445,2.788 0,1.54 0,0 Z"
         style="fill:none;stroke:#1a171b;stroke-width:0.898;stroke-linecap:butt;stroke-linejoin:miter;stroke-miterlimit:4;stroke-dasharray:none;stroke-opacity:1"
         id="path186" /></g><g
       id="g188"
       transform="translate(518.541,458.5811)"><path
         d="m 0,0 c 0,-1.54 -1.447,-2.79 -3.232,-2.79 -1.783,0 -3.229,1.25 -3.229,2.79 0,1.541 1.446,2.789 3.229,2.789 C -1.447,2.789 0,1.541 0,0"
         style="fill:#ffffff;fill-opacity:1;fill-rule:nonzero;stroke:none"
         id="path190" /></g><g
       id="g192"
       transform="translate(518.541,458.5811)"><path
         d="m 0,0 c 0,-1.54 -1.447,-2.79 -3.232,-2.79 -1.783,0 -3.229,1.25 -3.229,2.79 0,1.541 1.446,2.789 3.229,2.789 C -1.447,2.789 0,1.541 0,0 Z"
         style="fill:none;stroke:#1a171b;stroke-width:0.898;stroke-linecap:butt;stroke-linejoin:miter;stroke-miterlimit:4;stroke-dasharray:none;stroke-opacity:1"
         id="path194" /></g><g
       id="g196"
       transform="translate(517.1523,398.7109)"><path
         d="M 0,0 H 59.508"
         style="fill:none;stroke:#1a171b;stroke-width:0.898;stroke-linecap:butt;stroke-linejoin:miter;stroke-miterlimit:4;stroke-dasharray:none;stroke-opacity:1"
         id="path198" /></g><g
       id="g200"
       transform="translate(536.7783,415.8096)"><path
         d="m 0,0 c 0,-1.54 -1.447,-2.788 -3.232,-2.788 -1.784,0 -3.23,1.248 -3.23,2.788 0,1.542 1.446,2.79 3.23,2.79 C -1.447,2.79 0,1.542 0,0"
         style="fill:#ffffff;fill-opacity:1;fill-rule:nonzero;stroke:none"
         id="path202" /></g><g
       id="g204"
       transform="translate(536.7783,415.8096)"><path
         d="m 0,0 c 0,-1.54 -1.447,-2.788 -3.232,-2.788 -1.784,0 -3.23,1.248 -3.23,2.788 0,1.542 1.446,2.79 3.23,2.79 C -1.447,2.79 0,1.542 0,0 Z"
         style="fill:none;stroke:#1a171b;stroke-width:0.898;stroke-linecap:butt;stroke-linejoin:miter;stroke-miterlimit:4;stroke-dasharray:none;stroke-opacity:1"
         id="path206" /></g><g
       id="g208"
       transform="translate(512.1299,424.999)"><path
         d="M 0,0 H 6.377"
         style="fill:none;stroke:#1a171b;stroke-width:1.795;stroke-linecap:butt;stroke-linejoin:miter;stroke-miterlimit:4;stroke-dasharray:none;stroke-opacity:1"
         id="path210" /></g><g
       id="g212"
       transform="translate(524.8818,429.4219)"><path
         d="M 0,0 5.465,1.769"
         style="fill:none;stroke:#1a171b;stroke-width:1.795;stroke-linecap:butt;stroke-linejoin:miter;stroke-miterlimit:4;stroke-dasharray:none;stroke-opacity:1"
         id="path214" /></g><g
       id="g216"
       transform="translate(547.6523,402.8877)"><path
         d="M 0,0 V -12.384"
         style="fill:none;stroke:#1a171b;stroke-width:1.795;stroke-linecap:butt;stroke-linejoin:miter;stroke-miterlimit:4;stroke-dasharray:none;stroke-opacity:1"
         id="path218" /></g><g
       id="g220"
       transform="translate(523.9707,410.8467)"><path
         d="M 0,0 4.555,-5.307"
         style="fill:none;stroke:#1a171b;stroke-width:1.795;stroke-linecap:butt;stroke-linejoin:miter;stroke-miterlimit:4;stroke-dasharray:none;stroke-opacity:1"
         id="path222" /></g><g
       id="g224"
       transform="translate(164.4966,436.7246)"><path
         d="M 0,0 C -4.594,5.798 -13.245,26.833 -3.952,30.822 5.339,34.812 20.991,29.86 15.402,12.54"
         style="fill:none;stroke:#e31a5b;stroke-width:1.624;stroke-linecap:butt;stroke-linejoin:miter;stroke-miterlimit:4;stroke-dasharray:none;stroke-opacity:1"
         id="path226" /></g><g
       id="g228"
       transform="translate(176.9834,442.1582)"><path
         d="m 0,0 c -5.103,-8.438 -16.401,-10.2 -25.18,-11.493 -12.213,-1.799 -14.684,-9.887 -8.684,-14.388"
         style="fill:none;stroke:#e31a5b;stroke-width:1.624;stroke-linecap:butt;stroke-linejoin:miter;stroke-miterlimit:4;stroke-dasharray:none;stroke-opacity:1"
         id="path230" /></g><g
       id="g232"
       transform="translate(147.8696,413.5273)"><path
         d="M 0,0 C 3.875,-2 30,-7.375 12.5,-23.5"
         style="fill:none;stroke:#e31a5b;stroke-width:1.624;stroke-linecap:butt;stroke-linejoin:miter;stroke-miterlimit:4;stroke-dasharray:none;stroke-opacity:1"
         id="path234" /></g><g
       id="g236"
       transform="translate(155.2446,385.7773)"><path
         d="m 0,0 c -8.888,-6.496 -35.002,-1.357 -41.188,14.083 -11.938,29.795 22.171,47.368 32.526,32.685"
         style="fill:none;stroke:#e31a5b;stroke-width:1.624;stroke-linecap:butt;stroke-linejoin:miter;stroke-miterlimit:4;stroke-dasharray:none;stroke-opacity:1"
         id="path238" /></g><g
       id="g240"
       transform="translate(148.6772,426.8398)"><path
         d="m 0,0 c 4.542,-7.305 -5.653,-16.621 -14.432,-17.397 -6.877,-0.609 -17.034,7.624 -11.446,18.948"
         style="fill:none;stroke:#e31a5b;stroke-width:1.624;stroke-linecap:butt;stroke-linejoin:miter;stroke-miterlimit:4;stroke-dasharray:none;stroke-opacity:1"
         id="path242" /></g><g
       id="g244"
       transform="translate(125.7495,441.0171)"><path
         d="M 0,0 C 2.266,9.835 13.593,16.305 27.221,14.014"
         style="fill:none;stroke:#e31a5b;stroke-width:1.624;stroke-linecap:butt;stroke-linejoin:miter;stroke-miterlimit:4;stroke-dasharray:none;stroke-opacity:1"
         id="path246" /></g><g
       id="g248"
       transform="translate(162.0176,453.8257)"><path
         d="M 0,0 C 13.022,-2.119 24.199,-15.443 31.731,-28.099 39.905,-41.835 30.53,-73.13 2.813,-67.934 -15.76,-64.453 -4.855,-51.728 -2.285,-49.3"
         style="fill:none;stroke:#e31a5b;stroke-width:1.624;stroke-linecap:butt;stroke-linejoin:miter;stroke-miterlimit:4;stroke-dasharray:none;stroke-opacity:1"
         id="path250" /></g><g
       id="g252"
       transform="translate(163.8696,409.7773)"><path
         d="M 0,0 C 4.625,6.25 8,13.25 3.875,21.25"
         style="fill:none;stroke:#e31a5b;stroke-width:1.624;stroke-linecap:butt;stroke-linejoin:miter;stroke-miterlimit:4;stroke-dasharray:none;stroke-opacity:1"
         id="path254" /></g><g
       id="g256"
       transform="translate(117.3008,444.2153)"><path
         d="m 0,0 h -0.272 l -0.51,1.165 c -0.172,0.387 -0.259,0.684 -0.259,0.89 0,0.283 0.087,0.503 0.259,0.661 0.172,0.158 0.387,0.237 0.646,0.237 0.267,0 0.486,-0.081 0.657,-0.244 C 0.69,2.546 0.775,2.333 0.775,2.069 0.775,1.854 0.689,1.552 0.517,1.165 Z m -0.381,-5.38 c -0.367,0.62 -0.55,1.225 -0.55,1.817 0,0.261 0.078,0.479 0.235,0.653 0.157,0.176 0.375,0.264 0.651,0.264 0.271,0 0.483,-0.083 0.636,-0.246 0.152,-0.163 0.228,-0.379 0.228,-0.65 0,-0.601 -0.183,-1.213 -0.549,-1.838 0.263,-0.526 0.6,-0.788 1.008,-0.788 0.86,0 1.291,0.687 1.291,2.063 0,1.266 -0.38,2.291 -1.137,3.073 l 0.129,0.223 c 1.62,-0.703 2.43,-1.902 2.43,-3.598 0,-0.836 -0.201,-1.492 -0.603,-1.968 -0.403,-0.475 -0.92,-0.712 -1.552,-0.712 -0.88,0 -1.513,0.422 -1.896,1.266 -0.387,-0.844 -1.019,-1.266 -1.894,-1.266 -0.66,0 -1.213,0.236 -1.657,0.709 -0.445,0.473 -0.667,1.107 -0.667,1.899 0,0.894 0.28,1.729 0.839,2.505 0.559,0.777 0.908,1.165 1.047,1.165 0.043,0 0.181,-0.082 0.413,-0.244 0.232,-0.163 0.348,-0.266 0.348,-0.309 0,-0.038 -0.026,-0.092 -0.079,-0.163 -0.808,-1.086 -1.211,-2.046 -1.211,-2.88 0,-0.541 0.133,-0.97 0.403,-1.287 0.268,-0.318 0.608,-0.476 1.021,-0.476 0.442,0 0.813,0.262 1.116,0.788"
         style="fill:#000000;fill-opacity:1;fill-rule:nonzero;stroke:none"
         id="path258" /></g><g
       id="g260"
       transform="translate(148.3872,461.9858)"><path
         d="m 0,0 c -0.367,0.62 -0.55,1.226 -0.55,1.818 0,0.26 0.078,0.478 0.236,0.653 0.157,0.175 0.373,0.263 0.649,0.263 0.272,0 0.484,-0.082 0.636,-0.245 C 1.124,2.325 1.2,2.109 1.2,1.839 1.2,1.238 1.016,0.625 0.649,0 c 0.265,-0.526 0.601,-0.788 1.01,-0.788 0.861,0 1.291,0.687 1.291,2.063 0,1.267 -0.38,2.291 -1.137,3.074 L 1.941,4.571 C 3.562,3.869 4.372,2.669 4.372,0.974 4.372,0.137 4.17,-0.519 3.768,-0.994 3.366,-1.469 2.85,-1.707 2.218,-1.707 c -0.882,0 -1.514,0.422 -1.897,1.267 -0.387,-0.845 -1.018,-1.267 -1.893,-1.267 -0.66,0 -1.213,0.237 -1.658,0.709 -0.445,0.474 -0.667,1.107 -0.667,1.9 0,0.893 0.28,1.728 0.839,2.504 0.559,0.777 0.908,1.165 1.047,1.165 0.043,0 0.18,-0.081 0.413,-0.244 C -1.366,4.165 -1.25,4.062 -1.25,4.019 -1.25,3.98 -1.277,3.926 -1.329,3.855 -2.137,2.77 -2.541,1.81 -2.541,0.975 c 0,-0.54 0.135,-0.969 0.403,-1.287 0.269,-0.317 0.61,-0.476 1.023,-0.476 0.441,0 0.812,0.262 1.115,0.788"
         style="fill:#000000;fill-opacity:1;fill-rule:nonzero;stroke:none"
         id="path262" /></g><g
       id="g264"
       transform="translate(168.0366,441.3193)"><path
         d="m 0,0 c -0.367,0.62 -0.55,1.226 -0.55,1.818 0,0.26 0.078,0.478 0.236,0.653 0.157,0.175 0.373,0.263 0.649,0.263 0.272,0 0.484,-0.082 0.636,-0.245 C 1.124,2.325 1.2,2.109 1.2,1.839 1.2,1.238 1.016,0.625 0.649,0 c 0.265,-0.526 0.601,-0.788 1.01,-0.788 0.861,0 1.291,0.687 1.291,2.063 0,1.267 -0.38,2.291 -1.137,3.074 L 1.941,4.571 C 3.562,3.869 4.372,2.669 4.372,0.974 4.372,0.137 4.17,-0.519 3.768,-0.994 3.366,-1.469 2.85,-1.707 2.218,-1.707 c -0.882,0 -1.514,0.422 -1.897,1.267 -0.387,-0.845 -1.018,-1.267 -1.893,-1.267 -0.66,0 -1.213,0.237 -1.658,0.709 -0.445,0.474 -0.667,1.107 -0.667,1.9 0,0.893 0.28,1.728 0.839,2.504 0.559,0.777 0.908,1.165 1.047,1.165 0.043,0 0.18,-0.081 0.413,-0.244 C -1.366,4.165 -1.25,4.062 -1.25,4.019 -1.25,3.98 -1.277,3.926 -1.329,3.855 -2.137,2.77 -2.541,1.81 -2.541,0.975 c 0,-0.54 0.135,-0.969 0.403,-1.287 0.269,-0.317 0.61,-0.476 1.023,-0.476 0.441,0 0.812,0.262 1.115,0.788"
         style="fill:#000000;fill-opacity:1;fill-rule:nonzero;stroke:none"
         id="path266" /></g><g
       id="g268"
       transform="translate(187.7031,446.3193)"><path
         d="m 0,0 c -0.367,0.62 -0.55,1.226 -0.55,1.818 0,0.26 0.078,0.478 0.236,0.653 0.157,0.175 0.373,0.263 0.649,0.263 0.272,0 0.484,-0.082 0.636,-0.245 C 1.124,2.325 1.2,2.109 1.2,1.839 1.2,1.238 1.016,0.625 0.649,0 c 0.265,-0.526 0.601,-0.788 1.01,-0.788 0.861,0 1.291,0.687 1.291,2.063 0,1.267 -0.38,2.291 -1.137,3.074 L 1.941,4.571 C 3.562,3.869 4.372,2.669 4.372,0.974 4.372,0.137 4.17,-0.519 3.768,-0.994 3.366,-1.469 2.85,-1.707 2.218,-1.707 c -0.882,0 -1.514,0.422 -1.897,1.267 -0.387,-0.845 -1.018,-1.267 -1.893,-1.267 -0.66,0 -1.213,0.237 -1.658,0.709 -0.445,0.474 -0.667,1.107 -0.667,1.9 0,0.893 0.28,1.728 0.839,2.504 0.559,0.777 0.908,1.165 1.047,1.165 0.043,0 0.18,-0.081 0.413,-0.244 C -1.366,4.165 -1.25,4.062 -1.25,4.019 -1.25,3.98 -1.277,3.926 -1.329,3.855 -2.137,2.77 -2.541,1.81 -2.541,0.975 c 0,-0.54 0.135,-0.969 0.403,-1.287 0.269,-0.317 0.61,-0.476 1.023,-0.476 0.441,0 0.812,0.262 1.115,0.788"
         style="fill:#000000;fill-opacity:1;fill-rule:nonzero;stroke:none"
         id="path270" /></g><g
       id="g272"
       transform="translate(262.8564,442.1948)"><path
         d="M 0,0 C -4.594,5.798 -13.245,26.833 -3.952,30.822 5.339,34.812 20.991,29.86 15.402,12.54"
         style="fill:none;stroke:#e31a5b;stroke-width:1.624;stroke-linecap:butt;stroke-linejoin:miter;stroke-miterlimit:4;stroke-dasharray:none;stroke-opacity:1"
         id="path274" /></g><g
       id="g276"
       transform="translate(275.3433,447.6284)"><path
         d="m 0,0 c -5.103,-8.438 -16.401,-10.2 -25.18,-11.493 -12.213,-1.799 -14.684,-9.887 -8.684,-14.387"
         style="fill:none;stroke:#e31a5b;stroke-width:1.624;stroke-linecap:butt;stroke-linejoin:miter;stroke-miterlimit:4;stroke-dasharray:none;stroke-opacity:1"
         id="path278" /></g><g
       id="g280"
       transform="translate(246.2295,418.998)"><path
         d="M 0,0 C 3.875,-2 30,-7.375 12.5,-23.5"
         style="fill:none;stroke:#e31a5b;stroke-width:1.624;stroke-linecap:butt;stroke-linejoin:miter;stroke-miterlimit:4;stroke-dasharray:none;stroke-opacity:1"
         id="path282" /></g><g
       id="g284"
       transform="translate(253.6045,391.248)"><path
         d="m 0,0 c -8.888,-6.496 -35.002,-1.357 -41.188,14.083 -11.938,29.795 22.171,47.368 32.526,32.685"
         style="fill:none;stroke:#e31a5b;stroke-width:1.624;stroke-linecap:butt;stroke-linejoin:miter;stroke-miterlimit:4;stroke-dasharray:none;stroke-opacity:1"
         id="path286" /></g><g
       id="g288"
       transform="translate(247.0371,432.3101)"><path
         d="m 0,0 c 4.542,-7.304 -5.653,-16.621 -14.432,-17.397 -6.877,-0.608 -17.034,7.624 -11.446,18.948"
         style="fill:none;stroke:#e31a5b;stroke-width:1.624;stroke-linecap:butt;stroke-linejoin:miter;stroke-miterlimit:4;stroke-dasharray:none;stroke-opacity:1"
         id="path290" /></g><g
       id="g292"
       transform="translate(224.1094,446.4873)"><path
         d="M 0,0 C 2.266,9.835 13.593,16.305 27.221,14.014"
         style="fill:none;stroke:#e31a5b;stroke-width:1.624;stroke-linecap:butt;stroke-linejoin:miter;stroke-miterlimit:4;stroke-dasharray:none;stroke-opacity:1"
         id="path294" /></g><g
       id="g296"
       transform="translate(260.3774,459.2959)"><path
         d="M 0,0 C 13.022,-2.119 24.199,-15.443 31.731,-28.099 39.905,-41.835 30.53,-73.13 2.813,-67.934 -15.76,-64.452 -4.855,-51.728 -2.285,-49.3"
         style="fill:none;stroke:#e31a5b;stroke-width:1.624;stroke-linecap:butt;stroke-linejoin:miter;stroke-miterlimit:4;stroke-dasharray:none;stroke-opacity:1"
         id="path298" /></g><g
       id="g300"
       transform="translate(262.2295,415.248)"><path
         d="M 0,0 C 4.625,6.25 8,13.25 3.875,21.25"
         style="fill:none;stroke:#e31a5b;stroke-width:1.624;stroke-linecap:butt;stroke-linejoin:miter;stroke-miterlimit:4;stroke-dasharray:none;stroke-opacity:1"
         id="path302" /></g><g
       id="g304"
       transform="translate(215.6606,449.6855)"><path
         d="m 0,0 h -0.272 l -0.51,1.165 c -0.172,0.387 -0.259,0.684 -0.259,0.89 0,0.283 0.087,0.503 0.259,0.661 0.172,0.158 0.387,0.237 0.646,0.237 0.267,0 0.486,-0.081 0.657,-0.244 C 0.69,2.546 0.775,2.333 0.775,2.069 0.775,1.854 0.689,1.552 0.517,1.165 Z m -0.381,-5.38 c -0.367,0.62 -0.55,1.225 -0.55,1.817 0,0.261 0.078,0.479 0.235,0.653 0.157,0.176 0.375,0.264 0.651,0.264 0.271,0 0.483,-0.083 0.636,-0.246 0.152,-0.163 0.228,-0.379 0.228,-0.65 0,-0.601 -0.183,-1.213 -0.549,-1.838 0.263,-0.526 0.6,-0.788 1.008,-0.788 0.86,0 1.291,0.687 1.291,2.063 0,1.266 -0.38,2.291 -1.137,3.073 l 0.129,0.223 c 1.62,-0.703 2.43,-1.902 2.43,-3.598 0,-0.836 -0.201,-1.492 -0.603,-1.968 -0.403,-0.475 -0.92,-0.712 -1.552,-0.712 -0.88,0 -1.513,0.422 -1.896,1.266 -0.387,-0.844 -1.019,-1.266 -1.894,-1.266 -0.66,0 -1.213,0.236 -1.657,0.709 -0.445,0.473 -0.667,1.107 -0.667,1.899 0,0.894 0.28,1.729 0.839,2.505 0.559,0.777 0.908,1.165 1.047,1.165 0.043,0 0.181,-0.082 0.413,-0.244 0.232,-0.163 0.348,-0.266 0.348,-0.309 0,-0.038 -0.026,-0.092 -0.079,-0.163 -0.808,-1.086 -1.211,-2.046 -1.211,-2.88 0,-0.541 0.133,-0.97 0.403,-1.287 0.268,-0.318 0.608,-0.476 1.021,-0.476 0.442,0 0.813,0.262 1.116,0.788"
         style="fill:#000000;fill-opacity:1;fill-rule:nonzero;stroke:none"
         id="path306" /></g><g
       id="g308"
       transform="translate(246.7471,467.4561)"><path
         d="m 0,0 c -0.367,0.62 -0.55,1.226 -0.55,1.818 0,0.26 0.078,0.478 0.236,0.653 0.157,0.175 0.373,0.263 0.649,0.263 0.272,0 0.484,-0.082 0.636,-0.245 C 1.124,2.325 1.2,2.109 1.2,1.839 1.2,1.238 1.016,0.625 0.649,0 c 0.265,-0.526 0.601,-0.788 1.01,-0.788 0.861,0 1.291,0.687 1.291,2.063 0,1.267 -0.38,2.291 -1.137,3.074 L 1.941,4.571 C 3.562,3.869 4.372,2.669 4.372,0.974 4.372,0.137 4.17,-0.519 3.768,-0.994 3.366,-1.469 2.85,-1.707 2.218,-1.707 c -0.882,0 -1.514,0.422 -1.897,1.267 -0.387,-0.845 -1.018,-1.267 -1.893,-1.267 -0.66,0 -1.213,0.237 -1.658,0.709 -0.445,0.474 -0.667,1.107 -0.667,1.9 0,0.893 0.28,1.728 0.839,2.504 0.559,0.777 0.908,1.165 1.047,1.165 0.043,0 0.18,-0.081 0.413,-0.244 C -1.366,4.165 -1.25,4.062 -1.25,4.019 -1.25,3.98 -1.277,3.926 -1.329,3.855 -2.137,2.77 -2.541,1.81 -2.541,0.975 c 0,-0.54 0.135,-0.969 0.403,-1.287 0.269,-0.317 0.61,-0.476 1.023,-0.476 0.441,0 0.812,0.262 1.115,0.788"
         style="fill:#000000;fill-opacity:1;fill-rule:nonzero;stroke:none"
         id="path310" /></g><g
       id="g312"
       transform="translate(266.3965,446.7896)"><path
         d="m 0,0 c -0.367,0.62 -0.55,1.226 -0.55,1.818 0,0.26 0.078,0.478 0.236,0.653 0.157,0.175 0.373,0.263 0.649,0.263 0.272,0 0.484,-0.082 0.636,-0.245 C 1.124,2.325 1.2,2.109 1.2,1.839 1.2,1.238 1.016,0.625 0.649,0 c 0.265,-0.526 0.601,-0.788 1.01,-0.788 0.861,0 1.291,0.687 1.291,2.063 0,1.267 -0.38,2.291 -1.137,3.074 L 1.941,4.571 C 3.562,3.869 4.372,2.669 4.372,0.974 4.372,0.137 4.17,-0.519 3.768,-0.994 3.366,-1.469 2.85,-1.707 2.218,-1.707 c -0.882,0 -1.514,0.422 -1.897,1.267 -0.387,-0.845 -1.018,-1.267 -1.893,-1.267 -0.66,0 -1.213,0.237 -1.658,0.709 -0.445,0.474 -0.667,1.107 -0.667,1.9 0,0.893 0.28,1.728 0.839,2.504 0.559,0.777 0.908,1.165 1.047,1.165 0.043,0 0.18,-0.081 0.413,-0.244 C -1.366,4.165 -1.25,4.062 -1.25,4.019 -1.25,3.98 -1.277,3.926 -1.329,3.855 -2.137,2.77 -2.541,1.81 -2.541,0.975 c 0,-0.54 0.135,-0.969 0.403,-1.287 0.269,-0.317 0.61,-0.476 1.023,-0.476 0.441,0 0.812,0.262 1.115,0.788"
         style="fill:#000000;fill-opacity:1;fill-rule:nonzero;stroke:none"
         id="path314" /></g><g
       id="g316"
       transform="translate(286.063,451.7896)"><path
         d="m 0,0 c -0.367,0.62 -0.55,1.226 -0.55,1.818 0,0.26 0.078,0.478 0.236,0.653 0.157,0.175 0.373,0.263 0.649,0.263 0.272,0 0.484,-0.082 0.636,-0.245 C 1.124,2.325 1.2,2.109 1.2,1.839 1.2,1.238 1.016,0.625 0.649,0 c 0.265,-0.526 0.601,-0.788 1.01,-0.788 0.861,0 1.291,0.687 1.291,2.063 0,1.267 -0.38,2.291 -1.137,3.074 L 1.941,4.571 C 3.562,3.869 4.372,2.669 4.372,0.974 4.372,0.137 4.17,-0.519 3.768,-0.994 3.366,-1.469 2.85,-1.707 2.218,-1.707 c -0.882,0 -1.514,0.422 -1.897,1.267 -0.387,-0.845 -1.018,-1.267 -1.893,-1.267 -0.66,0 -1.213,0.237 -1.658,0.709 -0.445,0.474 -0.667,1.107 -0.667,1.9 0,0.893 0.28,1.728 0.839,2.504 0.559,0.777 0.908,1.165 1.047,1.165 0.043,0 0.18,-0.081 0.413,-0.244 C -1.366,4.165 -1.25,4.062 -1.25,4.019 -1.25,3.98 -1.277,3.926 -1.329,3.855 -2.137,2.77 -2.541,1.81 -2.541,0.975 c 0,-0.54 0.135,-0.969 0.403,-1.287 0.269,-0.317 0.61,-0.476 1.023,-0.476 0.441,0 0.812,0.262 1.115,0.788"
         style="fill:#000000;fill-opacity:1;fill-rule:nonzero;stroke:none"
         id="path318" /></g><g
       id="g320"
       transform="translate(250.4443,446.8784)"><path
         d="m 0,0 h -0.272 l -0.51,1.165 c -0.172,0.387 -0.259,0.684 -0.259,0.89 0,0.283 0.087,0.503 0.259,0.661 0.172,0.158 0.387,0.237 0.646,0.237 0.267,0 0.486,-0.081 0.657,-0.244 C 0.69,2.546 0.775,2.333 0.775,2.069 0.775,1.854 0.689,1.552 0.517,1.165 Z m -0.381,-5.38 c -0.367,0.62 -0.55,1.225 -0.55,1.817 0,0.261 0.078,0.479 0.235,0.653 0.157,0.176 0.375,0.264 0.651,0.264 0.271,0 0.483,-0.083 0.636,-0.246 0.152,-0.163 0.228,-0.379 0.228,-0.65 0,-0.601 -0.183,-1.213 -0.549,-1.838 0.263,-0.526 0.6,-0.788 1.008,-0.788 0.86,0 1.291,0.687 1.291,2.063 0,1.266 -0.38,2.291 -1.137,3.073 l 0.129,0.223 c 1.62,-0.703 2.43,-1.902 2.43,-3.598 0,-0.836 -0.201,-1.492 -0.603,-1.968 -0.403,-0.475 -0.92,-0.712 -1.552,-0.712 -0.88,0 -1.513,0.422 -1.896,1.266 -0.387,-0.844 -1.019,-1.266 -1.894,-1.266 -0.66,0 -1.213,0.236 -1.657,0.709 -0.445,0.473 -0.667,1.107 -0.667,1.899 0,0.894 0.28,1.729 0.839,2.505 0.559,0.777 0.908,1.165 1.047,1.165 0.043,0 0.181,-0.082 0.413,-0.244 0.232,-0.163 0.348,-0.266 0.348,-0.309 0,-0.038 -0.026,-0.092 -0.079,-0.163 -0.808,-1.086 -1.211,-2.046 -1.211,-2.88 0,-0.541 0.133,-0.97 0.403,-1.287 0.268,-0.318 0.608,-0.476 1.021,-0.476 0.442,0 0.813,0.262 1.116,0.788"
         style="fill:#000000;fill-opacity:1;fill-rule:nonzero;stroke:none"
         id="path322" /></g><g
       id="g324"
       transform="translate(243.7588,413.4082)"><path
         d="m 0,0 h -0.272 l -0.51,1.164 c -0.172,0.387 -0.259,0.685 -0.259,0.891 0,0.283 0.087,0.503 0.259,0.661 0.172,0.157 0.387,0.237 0.646,0.237 0.267,0 0.486,-0.082 0.657,-0.244 C 0.69,2.546 0.775,2.332 0.775,2.068 0.775,1.854 0.689,1.551 0.517,1.164 Z m -0.381,-5.381 c -0.367,0.62 -0.55,1.226 -0.55,1.818 0,0.26 0.078,0.478 0.235,0.653 0.157,0.176 0.375,0.264 0.651,0.264 0.271,0 0.483,-0.083 0.636,-0.247 0.152,-0.163 0.228,-0.378 0.228,-0.649 0,-0.601 -0.183,-1.214 -0.549,-1.839 0.263,-0.525 0.6,-0.788 1.008,-0.788 0.86,0 1.291,0.688 1.291,2.064 0,1.265 -0.38,2.291 -1.137,3.073 l 0.129,0.222 c 1.62,-0.702 2.43,-1.901 2.43,-3.597 0,-0.837 -0.201,-1.492 -0.603,-1.968 -0.403,-0.476 -0.92,-0.713 -1.552,-0.713 -0.88,0 -1.513,0.422 -1.896,1.267 -0.387,-0.845 -1.019,-1.267 -1.894,-1.267 -0.66,0 -1.213,0.236 -1.657,0.709 -0.445,0.474 -0.667,1.108 -0.667,1.9 0,0.893 0.28,1.728 0.839,2.504 0.559,0.778 0.908,1.165 1.047,1.165 0.043,0 0.181,-0.081 0.413,-0.244 0.232,-0.163 0.348,-0.265 0.348,-0.308 0,-0.038 -0.026,-0.093 -0.079,-0.163 -0.808,-1.086 -1.211,-2.046 -1.211,-2.881 0,-0.54 0.133,-0.969 0.403,-1.286 0.268,-0.318 0.608,-0.477 1.021,-0.477 0.442,0 0.813,0.263 1.116,0.788"
         style="fill:#000000;fill-opacity:1;fill-rule:nonzero;stroke:none"
         id="path326" /></g><g
       id="g328"
       transform="translate(274.0425,415.5508)"><path
         d="m 0,0 h -0.272 l -0.51,1.165 c -0.172,0.388 -0.259,0.685 -0.259,0.891 0,0.282 0.087,0.503 0.259,0.661 0.172,0.158 0.387,0.236 0.646,0.236 0.267,0 0.486,-0.081 0.657,-0.244 C 0.69,2.547 0.775,2.334 0.775,2.07 0.775,1.854 0.689,1.553 0.517,1.165 Z m -0.381,-5.38 c -0.367,0.62 -0.55,1.226 -0.55,1.817 0,0.261 0.078,0.479 0.235,0.654 0.157,0.175 0.375,0.263 0.651,0.263 0.271,0 0.483,-0.083 0.636,-0.245 0.152,-0.164 0.228,-0.38 0.228,-0.65 0,-0.602 -0.183,-1.214 -0.549,-1.839 0.263,-0.526 0.6,-0.788 1.008,-0.788 0.86,0 1.291,0.688 1.291,2.064 0,1.266 -0.38,2.29 -1.137,3.073 l 0.129,0.222 c 1.62,-0.703 2.43,-1.902 2.43,-3.597 0,-0.836 -0.201,-1.492 -0.603,-1.968 -0.403,-0.476 -0.92,-0.713 -1.552,-0.713 -0.88,0 -1.513,0.423 -1.896,1.267 -0.387,-0.844 -1.019,-1.267 -1.894,-1.267 -0.66,0 -1.213,0.237 -1.657,0.71 -0.445,0.473 -0.667,1.106 -0.667,1.898 0,0.894 0.28,1.729 0.839,2.505 0.559,0.777 0.908,1.165 1.047,1.165 0.043,0 0.181,-0.082 0.413,-0.244 0.232,-0.162 0.348,-0.265 0.348,-0.308 0,-0.038 -0.026,-0.092 -0.079,-0.164 -0.808,-1.085 -1.211,-2.045 -1.211,-2.879 0,-0.541 0.133,-0.97 0.403,-1.287 0.268,-0.319 0.608,-0.477 1.021,-0.477 0.442,0 0.813,0.262 1.116,0.788"
         style="fill:#000000;fill-opacity:1;fill-rule:nonzero;stroke:none"
         id="path330" /></g><g
       id="g332"
       transform="translate(259.6079,384.6445)"><path
         d="m 0,0 h -0.272 l -0.51,1.164 c -0.172,0.388 -0.259,0.686 -0.259,0.891 0,0.283 0.087,0.504 0.259,0.662 0.172,0.157 0.387,0.236 0.646,0.236 0.267,0 0.486,-0.082 0.657,-0.244 C 0.69,2.547 0.775,2.333 0.775,2.069 0.775,1.854 0.689,1.552 0.517,1.164 Z m -0.381,-5.381 c -0.367,0.621 -0.55,1.227 -0.55,1.818 0,0.26 0.078,0.479 0.235,0.653 0.157,0.176 0.375,0.264 0.651,0.264 0.271,0 0.483,-0.083 0.636,-0.246 0.152,-0.163 0.228,-0.379 0.228,-0.649 0,-0.602 -0.183,-1.215 -0.549,-1.84 0.263,-0.525 0.6,-0.787 1.008,-0.787 0.86,0 1.291,0.688 1.291,2.063 0,1.266 -0.38,2.291 -1.137,3.074 l 0.129,0.222 c 1.62,-0.703 2.43,-1.902 2.43,-3.597 0,-0.837 -0.201,-1.492 -0.603,-1.969 -0.403,-0.475 -0.92,-0.713 -1.552,-0.713 -0.88,0 -1.513,0.423 -1.896,1.268 -0.387,-0.845 -1.019,-1.268 -1.894,-1.268 -0.66,0 -1.213,0.237 -1.657,0.71 -0.445,0.474 -0.667,1.107 -0.667,1.899 0,0.893 0.28,1.729 0.839,2.504 0.559,0.778 0.908,1.166 1.047,1.166 0.043,0 0.181,-0.082 0.413,-0.244 0.232,-0.163 0.348,-0.265 0.348,-0.308 0,-0.039 -0.026,-0.093 -0.079,-0.164 -0.808,-1.086 -1.211,-2.045 -1.211,-2.88 0,-0.54 0.133,-0.97 0.403,-1.286 0.268,-0.319 0.608,-0.477 1.021,-0.477 0.442,0 0.813,0.262 1.116,0.787"
         style="fill:#000000;fill-opacity:1;fill-rule:nonzero;stroke:none"
         id="path334" /></g><g
       id="g336"
       transform="translate(361.2168,436.7246)"
       style="stroke:#e9afaf"><path
         d="M 0,0 C -4.594,5.798 -13.245,26.833 -3.953,30.822 5.339,34.812 20.99,29.86 15.402,12.54"
         style="fill:none;stroke:#e9afaf;stroke-width:1.624;stroke-linecap:butt;stroke-linejoin:miter;stroke-miterlimit:4;stroke-dasharray:none;stroke-opacity:1"
         id="path338" /></g><g
       id="g340"
       transform="translate(373.7031,442.1582)"
       style="stroke:#e9afaf"><path
         d="m 0,0 c -5.104,-8.438 -16.401,-10.2 -25.18,-11.493 -12.213,-1.799 -14.683,-9.887 -8.683,-14.387"
         style="fill:none;stroke:#e9afaf;stroke-width:1.624;stroke-linecap:butt;stroke-linejoin:miter;stroke-miterlimit:4;stroke-dasharray:none;stroke-opacity:1"
         id="path342" /></g><g
       id="g344"
       transform="translate(344.5898,413.5283)"
       style="stroke:#e9afaf"><path
         d="M 0,0 C 3.875,-2 30,-7.375 12.5,-23.5"
         style="fill:none;stroke:#e9afaf;stroke-width:1.624;stroke-linecap:butt;stroke-linejoin:miter;stroke-miterlimit:4;stroke-dasharray:none;stroke-opacity:1"
         id="path346" /></g><g
       id="g348"
       transform="translate(351.9648,385.7783)"
       style="stroke:#e9afaf"><path
         d="M 0,0 C -8.889,-6.496 -35.002,-1.357 -41.189,14.082 -53.127,43.877 -19.018,61.45 -8.662,46.768"
         style="fill:none;stroke:#e9afaf;stroke-width:1.624;stroke-linecap:butt;stroke-linejoin:miter;stroke-miterlimit:4;stroke-dasharray:none;stroke-opacity:1"
         id="path350" /></g><g
       id="g352"
       transform="translate(345.3965,426.8398)"
       style="stroke:#e9afaf"><path
         d="m 0,0 c 4.542,-7.304 -5.652,-16.62 -14.432,-17.397 -6.877,-0.608 -17.034,7.625 -11.446,18.948"
         style="fill:none;stroke:#e9afaf;stroke-width:1.624;stroke-linecap:butt;stroke-linejoin:miter;stroke-miterlimit:4;stroke-dasharray:none;stroke-opacity:1"
         id="path354" /></g><g
       id="g356"
       transform="translate(322.4688,441.0166)"
       style="stroke:#e9afaf"><path
         d="M 0,0 C 2.266,9.836 13.594,16.305 27.221,14.015"
         style="fill:none;stroke:#e9afaf;stroke-width:1.624;stroke-linecap:butt;stroke-linejoin:miter;stroke-miterlimit:4;stroke-dasharray:none;stroke-opacity:1"
         id="path358" /></g><g
       id="g360"
       transform="translate(358.7373,453.8252)"
       style="stroke:#e9afaf"><path
         d="m 0,0 c 13.022,-2.119 24.198,-15.442 31.731,-28.098 8.174,-13.736 -1.201,-45.031 -28.918,-39.836 -18.574,3.483 -7.668,16.207 -5.098,18.635"
         style="fill:none;stroke:#e9afaf;stroke-width:1.624;stroke-linecap:butt;stroke-linejoin:miter;stroke-miterlimit:4;stroke-dasharray:none;stroke-opacity:1"
         id="path362" /></g><g
       id="g364"
       transform="translate(360.5898,409.7783)"
       style="stroke:#e9afaf"><path
         d="M 0,0 C 4.625,6.25 8,13.25 3.875,21.25"
         style="fill:none;stroke:#e9afaf;stroke-width:1.624;stroke-linecap:butt;stroke-linejoin:miter;stroke-miterlimit:4;stroke-dasharray:none;stroke-opacity:1"
         id="path366" /></g><g
       id="g368"
       transform="translate(364.5059,459.9443)"><path
         d="M 0,0 C -8.25,-1.75 -14.5,-7.25 -17.5,-11.5"
         style="fill:none;stroke:#000000;stroke-width:0.5;stroke-linecap:round;stroke-linejoin:bevel;stroke-miterlimit:10;stroke-dasharray:none;stroke-opacity:1"
         id="path370" /></g><g
       id="g372"
       transform="translate(326.9209,398.0264)"><path
         d="m 0,0 c 12.25,0.25 26.404,9.674 35.335,10.418 9,0.75 13.916,-4.418 19.416,4.082"
         style="fill:none;stroke:#000000;stroke-width:0.5;stroke-linecap:round;stroke-linejoin:bevel;stroke-miterlimit:10;stroke-dasharray:none;stroke-opacity:1"
         id="path374" /></g><g
       id="g376"
       transform="translate(342.6709,419.5264)"><path
         d="M 0,0 C 1.085,-10.582 -4.415,-15.832 -16,-20.5"
         style="fill:none;stroke:#000000;stroke-width:0.5;stroke-linecap:round;stroke-linejoin:bevel;stroke-miterlimit:10;stroke-dasharray:none;stroke-opacity:1"
         id="path378" /></g><g
       id="g380"
       transform="translate(368.5059,457.4443)"><path
         d="M 0,0 C 3.5,-6 17.166,-24.418 14.916,-39.168"
         style="fill:none;stroke:#000000;stroke-width:0.5;stroke-linecap:round;stroke-linejoin:bevel;stroke-miterlimit:10;stroke-dasharray:none;stroke-opacity:1"
         id="path382" /></g><g
       id="g384"
       transform="translate(324.1709,395.0264)"><path
         d="m 0,0 c 6.5,-9.25 18.334,-10.082 34.835,-6.582 16.5,3.5 23.833,18.416 23.75,23.75"
         style="fill:none;stroke:#000000;stroke-width:0.5;stroke-linecap:round;stroke-linejoin:bevel;stroke-miterlimit:10;stroke-dasharray:none;stroke-opacity:1"
         id="path386" /></g><g
       id="g388"
       transform="translate(345.2559,443.9443)"><path
         d="M 0,0 C 0.75,-5.25 -0.25,-8.5 -3,-19.75"
         style="fill:none;stroke:#000000;stroke-width:0.5;stroke-linecap:round;stroke-linejoin:bevel;stroke-miterlimit:10;stroke-dasharray:none;stroke-opacity:1"
         id="path390" /></g><g
       id="g392"
       transform="translate(342.2559,446.6943)"><path
         d="m 0,0 c -15,-0.25 -17.541,-5.014 -23.75,-16.25 -5.25,-9.5 -6.585,-22.918 2.665,-31.168"
         style="fill:none;stroke:#000000;stroke-width:0.5;stroke-linecap:round;stroke-linejoin:bevel;stroke-miterlimit:10;stroke-dasharray:none;stroke-opacity:1"
         id="path394" /></g><g
       id="g396"
       transform="translate(347.2559,443.6943)"><path
         d="m 0,0 c 4.25,-4.75 10.18,-7.476 17,-12.25 5,-3.5 13.666,-9.168 16.416,-13.668"
         style="fill:none;stroke:#000000;stroke-width:0.5;stroke-linecap:round;stroke-linejoin:bevel;stroke-miterlimit:10;stroke-dasharray:none;stroke-opacity:1"
         id="path398" /></g><g
       id="g400"
       transform="translate(385.5059,415.1943)"><path
         d="m 0,0 c 0,-1.656 -1.232,-3 -2.75,-3 -1.52,0 -2.75,1.344 -2.75,3 0,1.656 1.23,3 2.75,3 C -1.232,3 0,1.656 0,0"
         style="fill:#ffffff;fill-opacity:1;fill-rule:nonzero;stroke:none"
         id="path402" /></g><g
       id="g404"
       transform="translate(385.5059,415.1943)"><path
         d="m 0,0 c 0,-1.656 -1.232,-3 -2.75,-3 -1.52,0 -2.75,1.344 -2.75,3 0,1.656 1.23,3 2.75,3 C -1.232,3 0,1.656 0,0 Z"
         style="fill:none;stroke:#000000;stroke-width:0.5;stroke-linecap:butt;stroke-linejoin:miter;stroke-miterlimit:4;stroke-dasharray:none;stroke-opacity:1"
         id="path406" /></g><g
       id="g408"
       transform="translate(348.0059,445.6943)"><path
         d="m 0,0 c 0,-1.656 -1.23,-3 -2.75,-3 -1.518,0 -2.75,1.344 -2.75,3 0,1.656 1.232,3 2.75,3 C -1.23,3 0,1.656 0,0"
         style="fill:#ffffff;fill-opacity:1;fill-rule:nonzero;stroke:none"
         id="path410" /></g><g
       id="g412"
       transform="translate(348.0059,445.6943)"><path
         d="m 0,0 c 0,-1.656 -1.23,-3 -2.75,-3 -1.518,0 -2.75,1.344 -2.75,3 0,1.656 1.232,3 2.75,3 C -1.23,3 0,1.656 0,0 Z"
         style="fill:none;stroke:#000000;stroke-width:0.5;stroke-linecap:butt;stroke-linejoin:miter;stroke-miterlimit:4;stroke-dasharray:none;stroke-opacity:1"
         id="path414" /></g><g
       id="g416"
       transform="translate(345.4209,422.5264)"><path
         d="m 0,0 c 0,-1.656 -1.23,-3 -2.75,-3 -1.518,0 -2.75,1.344 -2.75,3 0,1.656 1.232,3 2.75,3 C -1.23,3 0,1.656 0,0"
         style="fill:#ffffff;fill-opacity:1;fill-rule:nonzero;stroke:none"
         id="path418" /></g><g
       id="g420"
       transform="translate(345.4209,422.5264)"><path
         d="m 0,0 c 0,-1.656 -1.23,-3 -2.75,-3 -1.518,0 -2.75,1.344 -2.75,3 0,1.656 1.232,3 2.75,3 C -1.23,3 0,1.656 0,0 Z"
         style="fill:none;stroke:#000000;stroke-width:0.5;stroke-linecap:butt;stroke-linejoin:miter;stroke-miterlimit:4;stroke-dasharray:none;stroke-opacity:1"
         id="path422" /></g><g
       id="g424"
       transform="translate(326.9209,398.0264)"><path
         d="m 0,0 c 0,-1.656 -1.23,-3 -2.75,-3 -1.518,0 -2.75,1.344 -2.75,3 0,1.656 1.232,3 2.75,3 C -1.23,3 0,1.656 0,0"
         style="fill:#ffffff;fill-opacity:1;fill-rule:nonzero;stroke:none"
         id="path426" /></g><g
       id="g428"
       transform="translate(326.9209,398.0264)"><path
         d="m 0,0 c 0,-1.656 -1.23,-3 -2.75,-3 -1.518,0 -2.75,1.344 -2.75,3 0,1.656 1.232,3 2.75,3 C -1.23,3 0,1.656 0,0 Z"
         style="fill:none;stroke:#000000;stroke-width:0.5;stroke-linecap:butt;stroke-linejoin:miter;stroke-miterlimit:4;stroke-dasharray:none;stroke-opacity:1"
         id="path430" /></g><g
       id="g432"
       transform="translate(370.0059,459.9443)"><path
         d="m 0,0 c 0,-1.656 -1.231,-3 -2.75,-3 -1.519,0 -2.75,1.344 -2.75,3 0,1.656 1.231,3 2.75,3 C -1.231,3 0,1.656 0,0"
         style="fill:#ffffff;fill-opacity:1;fill-rule:nonzero;stroke:none"
         id="path434" /></g><g
       id="g436"
       transform="translate(370.0059,459.9443)"><path
         d="m 0,0 c 0,-1.656 -1.231,-3 -2.75,-3 -1.519,0 -2.75,1.344 -2.75,3 0,1.656 1.231,3 2.75,3 C -1.231,3 0,1.656 0,0 Z"
         style="fill:none;stroke:#000000;stroke-width:0.5;stroke-linecap:butt;stroke-linejoin:miter;stroke-miterlimit:4;stroke-dasharray:none;stroke-opacity:1"
         id="path438" /></g><g
       id="g440"
       transform="translate(319.3379,434.1929)"><path
         d="m 0,0 c -0.366,0.62 -0.55,1.226 -0.55,1.818 0,0.26 0.078,0.478 0.236,0.653 0.157,0.175 0.374,0.263 0.651,0.263 0.269,0 0.482,-0.082 0.635,-0.245 C 1.124,2.325 1.2,2.109 1.2,1.839 1.2,1.238 1.017,0.625 0.651,0 c 0.264,-0.526 0.6,-0.788 1.008,-0.788 0.861,0 1.291,0.687 1.291,2.063 0,1.267 -0.379,2.291 -1.137,3.074 L 1.942,4.571 C 3.562,3.869 4.372,2.669 4.372,0.974 4.372,0.137 4.171,-0.519 3.77,-0.994 3.366,-1.47 2.849,-1.707 2.218,-1.707 c -0.881,0 -1.514,0.422 -1.897,1.267 -0.386,-0.845 -1.018,-1.267 -1.893,-1.267 -0.66,0 -1.213,0.237 -1.657,0.709 -0.446,0.474 -0.667,1.107 -0.667,1.9 0,0.893 0.28,1.728 0.838,2.504 0.559,0.777 0.909,1.165 1.047,1.165 0.043,0 0.181,-0.081 0.412,-0.244 0.233,-0.162 0.35,-0.265 0.35,-0.308 0,-0.039 -0.026,-0.093 -0.08,-0.164 C -2.137,2.77 -2.54,1.81 -2.54,0.975 c 0,-0.54 0.134,-0.969 0.403,-1.287 0.268,-0.317 0.609,-0.476 1.021,-0.476 0.442,0 0.814,0.262 1.116,0.788"
         style="fill:#000000;fill-opacity:1;fill-rule:nonzero;stroke:none"
         id="path442" /></g><g
       id="g444"
       transform="translate(319.7197,439.5732)"><path
         d="m 0,0 h -0.272 l -0.51,1.165 c -0.173,0.387 -0.259,0.684 -0.259,0.89 0,0.283 0.086,0.503 0.259,0.661 0.172,0.158 0.387,0.237 0.645,0.237 C 0.131,2.953 0.35,2.872 0.52,2.709 0.689,2.546 0.775,2.333 0.775,2.069 0.775,1.854 0.688,1.552 0.517,1.165 Z"
         style="fill:#000000;fill-opacity:1;fill-rule:nonzero;stroke:none"
         id="path446" /></g><g
       id="g448"
       transform="translate(351.6836,453.2998)"><path
         d="m 0,0 c -0.367,0.62 -0.551,1.226 -0.551,1.818 0,0.26 0.079,0.478 0.237,0.653 0.157,0.175 0.373,0.263 0.649,0.263 0.272,0 0.484,-0.082 0.636,-0.245 C 1.124,2.325 1.199,2.109 1.199,1.839 1.199,1.238 1.016,0.625 0.649,0 c 0.265,-0.526 0.601,-0.788 1.01,-0.788 0.861,0 1.29,0.687 1.29,2.063 0,1.267 -0.379,2.291 -1.136,3.074 L 1.941,4.571 C 3.562,3.869 4.371,2.669 4.371,0.974 4.371,0.137 4.17,-0.519 3.768,-0.994 3.366,-1.469 2.85,-1.707 2.218,-1.707 c -0.882,0 -1.514,0.422 -1.897,1.267 -0.387,-0.845 -1.018,-1.267 -1.893,-1.267 -0.66,0 -1.213,0.237 -1.658,0.709 -0.445,0.474 -0.666,1.107 -0.666,1.9 0,0.893 0.279,1.728 0.837,2.504 0.56,0.777 0.909,1.165 1.048,1.165 0.043,0 0.181,-0.081 0.413,-0.244 C -1.366,4.165 -1.25,4.062 -1.25,4.019 -1.25,3.98 -1.277,3.926 -1.328,3.855 -2.137,2.77 -2.541,1.81 -2.541,0.975 c 0,-0.54 0.135,-0.969 0.402,-1.287 0.27,-0.317 0.611,-0.476 1.024,-0.476 0.441,0 0.812,0.262 1.115,0.788"
         style="fill:#000000;fill-opacity:1;fill-rule:nonzero;stroke:none"
         id="path450" /></g><g
       id="g452"
       transform="translate(362.0166,433.2998)"><path
         d="m 0,0 c -0.366,0.62 -0.55,1.226 -0.55,1.818 0,0.26 0.078,0.478 0.236,0.653 0.157,0.175 0.374,0.263 0.649,0.263 0.272,0 0.484,-0.082 0.636,-0.245 C 1.124,2.325 1.2,2.109 1.2,1.839 1.2,1.238 1.017,0.625 0.649,0 c 0.265,-0.526 0.602,-0.788 1.01,-0.788 0.862,0 1.291,0.687 1.291,2.063 0,1.267 -0.38,2.291 -1.137,3.074 L 1.941,4.571 C 3.562,3.869 4.372,2.669 4.372,0.974 4.372,0.137 4.17,-0.519 3.769,-0.994 3.366,-1.469 2.85,-1.707 2.218,-1.707 c -0.882,0 -1.514,0.422 -1.897,1.267 -0.386,-0.845 -1.018,-1.267 -1.893,-1.267 -0.66,0 -1.212,0.237 -1.657,0.709 -0.446,0.474 -0.668,1.107 -0.668,1.9 0,0.893 0.28,1.728 0.839,2.504 0.559,0.777 0.909,1.165 1.047,1.165 0.043,0 0.18,-0.081 0.412,-0.244 C -1.366,4.165 -1.25,4.062 -1.25,4.019 -1.25,3.98 -1.276,3.926 -1.329,3.855 -2.137,2.77 -2.54,1.81 -2.54,0.975 c 0,-0.54 0.134,-0.969 0.402,-1.287 0.27,-0.317 0.61,-0.476 1.023,-0.476 0.44,0 0.812,0.262 1.115,0.788"
         style="fill:#000000;fill-opacity:1;fill-rule:nonzero;stroke:none"
         id="path454" /></g><g
       id="g456"
       transform="translate(379.6846,443.6333)"><path
         d="m 0,0 c -0.367,0.62 -0.551,1.226 -0.551,1.818 0,0.26 0.078,0.478 0.237,0.653 0.156,0.175 0.373,0.263 0.648,0.263 0.273,0 0.484,-0.082 0.637,-0.245 C 1.123,2.325 1.199,2.109 1.199,1.839 1.199,1.238 1.016,0.625 0.648,0 c 0.266,-0.526 0.602,-0.788 1.01,-0.788 0.862,0 1.291,0.687 1.291,2.063 0,1.267 -0.379,2.291 -1.136,3.074 L 1.941,4.571 C 3.561,3.869 4.371,2.669 4.371,0.974 4.371,0.137 4.17,-0.519 3.768,-0.994 3.365,-1.469 2.85,-1.707 2.217,-1.707 c -0.881,0 -1.514,0.422 -1.897,1.267 -0.386,-0.845 -1.017,-1.267 -1.892,-1.267 -0.66,0 -1.213,0.237 -1.658,0.709 -0.446,0.474 -0.668,1.107 -0.668,1.9 0,0.893 0.281,1.728 0.839,2.504 0.559,0.777 0.909,1.165 1.047,1.165 0.043,0 0.18,-0.081 0.412,-0.244 0.233,-0.162 0.35,-0.265 0.35,-0.308 0,-0.039 -0.027,-0.093 -0.08,-0.164 -0.807,-1.085 -1.211,-2.045 -1.211,-2.88 0,-0.54 0.135,-0.969 0.402,-1.287 0.27,-0.317 0.61,-0.476 1.024,-0.476 0.439,0 0.812,0.262 1.115,0.788"
         style="fill:#000000;fill-opacity:1;fill-rule:nonzero;stroke:none"
         id="path458" /></g><g
       id="g460"
       transform="translate(344.3457,432.3145)"><path
         d="m 0,0 c -0.367,0.62 -0.551,1.226 -0.551,1.818 0,0.26 0.078,0.478 0.237,0.653 0.156,0.175 0.374,0.263 0.65,0.263 0.27,0 0.482,-0.082 0.636,-0.245 C 1.123,2.325 1.199,2.109 1.199,1.839 1.199,1.238 1.017,0.625 0.65,0 c 0.264,-0.526 0.6,-0.788 1.009,-0.788 0.861,0 1.29,0.687 1.29,2.063 0,1.267 -0.379,2.291 -1.136,3.074 L 1.941,4.571 C 3.562,3.869 4.371,2.669 4.371,0.974 4.371,0.137 4.171,-0.519 3.77,-0.994 3.366,-1.47 2.849,-1.707 2.217,-1.707 c -0.881,0 -1.513,0.422 -1.896,1.267 -0.387,-0.845 -1.018,-1.267 -1.893,-1.267 -0.66,0 -1.213,0.237 -1.658,0.709 -0.445,0.474 -0.666,1.107 -0.666,1.9 0,0.893 0.279,1.728 0.837,2.504 0.56,0.777 0.909,1.165 1.048,1.165 0.043,0 0.181,-0.081 0.412,-0.244 C -1.366,4.165 -1.25,4.062 -1.25,4.019 -1.25,3.98 -1.275,3.926 -1.33,3.855 -2.137,2.77 -2.541,1.81 -2.541,0.975 c 0,-0.54 0.135,-0.969 0.404,-1.287 0.268,-0.317 0.608,-0.476 1.021,-0.476 0.442,0 0.813,0.262 1.116,0.788"
         style="fill:#000000;fill-opacity:1;fill-rule:nonzero;stroke:none"
         id="path462" /></g><g
       id="g464"
       transform="translate(344.7266,437.6948)"><path
         d="m 0,0 h -0.271 l -0.51,1.165 c -0.173,0.387 -0.26,0.684 -0.26,0.89 0,0.283 0.087,0.503 0.26,0.661 0.172,0.158 0.386,0.237 0.645,0.237 0.267,0 0.486,-0.081 0.657,-0.244 C 0.69,2.546 0.775,2.333 0.775,2.069 0.775,1.854 0.689,1.552 0.518,1.165 Z"
         style="fill:#000000;fill-opacity:1;fill-rule:nonzero;stroke:none"
         id="path466" /></g><g
       id="g468"
       transform="translate(339.0234,406.9268)"><path
         d="m 0,0 c -0.367,0.62 -0.551,1.226 -0.551,1.818 0,0.26 0.078,0.478 0.237,0.653 0.156,0.175 0.374,0.263 0.65,0.263 0.27,0 0.482,-0.082 0.636,-0.246 C 1.123,2.325 1.199,2.109 1.199,1.839 1.199,1.238 1.017,0.625 0.65,0 c 0.264,-0.525 0.6,-0.788 1.009,-0.788 0.861,0 1.29,0.687 1.29,2.063 0,1.266 -0.379,2.291 -1.136,3.074 L 1.941,4.571 C 3.562,3.869 4.371,2.67 4.371,0.974 4.371,0.137 4.171,-0.519 3.77,-0.994 3.366,-1.47 2.849,-1.707 2.217,-1.707 c -0.881,0 -1.513,0.422 -1.896,1.267 -0.387,-0.845 -1.018,-1.267 -1.893,-1.267 -0.66,0 -1.213,0.236 -1.658,0.709 -0.445,0.474 -0.666,1.107 -0.666,1.9 0,0.893 0.279,1.728 0.837,2.504 0.56,0.778 0.909,1.165 1.048,1.165 0.043,0 0.181,-0.081 0.412,-0.244 C -1.366,4.164 -1.25,4.062 -1.25,4.019 -1.25,3.98 -1.275,3.926 -1.33,3.855 -2.137,2.77 -2.541,1.81 -2.541,0.975 c 0,-0.54 0.135,-0.969 0.404,-1.287 0.268,-0.317 0.608,-0.476 1.021,-0.476 0.442,0 0.813,0.263 1.116,0.788"
         style="fill:#000000;fill-opacity:1;fill-rule:nonzero;stroke:none"
         id="path470" /></g><g
       id="g472"
       transform="translate(339.4043,412.3076)"><path
         d="m 0,0 h -0.271 l -0.51,1.164 c -0.173,0.387 -0.26,0.685 -0.26,0.891 0,0.283 0.087,0.503 0.26,0.661 0.172,0.157 0.386,0.237 0.645,0.237 0.267,0 0.486,-0.082 0.657,-0.244 C 0.69,2.546 0.775,2.332 0.775,2.068 0.775,1.854 0.689,1.551 0.518,1.164 Z"
         style="fill:#000000;fill-opacity:1;fill-rule:nonzero;stroke:none"
         id="path474" /></g><g
       id="g476"
       transform="translate(367.3379,406.1924)"><path
         d="m 0,0 c -0.366,0.62 -0.55,1.226 -0.55,1.817 0,0.261 0.078,0.479 0.236,0.654 0.157,0.175 0.375,0.262 0.65,0.262 0.271,0 0.482,-0.082 0.637,-0.244 C 1.124,2.325 1.2,2.108 1.2,1.839 1.2,1.237 1.018,0.625 0.65,0 c 0.264,-0.526 0.601,-0.788 1.01,-0.788 0.86,0 1.29,0.687 1.29,2.063 0,1.267 -0.38,2.29 -1.137,3.074 L 1.941,4.571 C 3.563,3.868 4.372,2.669 4.372,0.974 4.372,0.138 4.172,-0.519 3.77,-0.994 3.367,-1.47 2.85,-1.707 2.218,-1.707 c -0.881,0 -1.513,0.423 -1.896,1.267 -0.387,-0.844 -1.019,-1.267 -1.894,-1.267 -0.66,0 -1.213,0.237 -1.657,0.71 -0.445,0.473 -0.667,1.105 -0.667,1.898 0,0.894 0.279,1.729 0.838,2.505 0.56,0.777 0.909,1.165 1.048,1.165 0.043,0 0.18,-0.082 0.412,-0.244 C -1.365,4.165 -1.25,4.062 -1.25,4.019 -1.25,3.98 -1.275,3.927 -1.329,3.854 -2.137,2.77 -2.54,1.81 -2.54,0.976 c 0,-0.541 0.134,-0.97 0.403,-1.288 0.268,-0.318 0.609,-0.476 1.022,-0.476 0.441,0 0.812,0.262 1.115,0.788"
         style="fill:#000000;fill-opacity:1;fill-rule:nonzero;stroke:none"
         id="path478" /></g><g
       id="g480"
       transform="translate(367.7188,411.5723)"><path
         d="m 0,0 h -0.271 l -0.51,1.165 C -0.953,1.553 -1.04,1.85 -1.04,2.056 c 0,0.282 0.087,0.503 0.259,0.661 0.172,0.158 0.386,0.236 0.646,0.236 0.267,0 0.486,-0.081 0.656,-0.244 C 0.691,2.547 0.775,2.334 0.775,2.07 0.775,1.854 0.689,1.553 0.518,1.165 Z"
         style="fill:#000000;fill-opacity:1;fill-rule:nonzero;stroke:none"
         id="path482" /></g><g
       id="g484"
       transform="translate(355.4102,385.0967)"><path
         d="m 0,0 c -0.366,0.621 -0.55,1.227 -0.55,1.818 0,0.26 0.078,0.479 0.236,0.653 0.157,0.175 0.374,0.263 0.651,0.263 0.269,0 0.482,-0.082 0.635,-0.245 C 1.124,2.326 1.2,2.109 1.2,1.84 1.2,1.238 1.017,0.625 0.651,0 c 0.264,-0.525 0.6,-0.787 1.008,-0.787 0.861,0 1.291,0.687 1.291,2.062 0,1.267 -0.379,2.291 -1.137,3.075 L 1.942,4.572 C 3.562,3.869 4.372,2.67 4.372,0.975 4.372,0.138 4.171,-0.518 3.77,-0.994 3.366,-1.469 2.849,-1.707 2.218,-1.707 c -0.881,0 -1.514,0.423 -1.897,1.268 -0.386,-0.845 -1.018,-1.268 -1.893,-1.268 -0.66,0 -1.213,0.237 -1.657,0.71 -0.446,0.474 -0.667,1.106 -0.667,1.899 0,0.893 0.28,1.729 0.838,2.504 0.559,0.778 0.909,1.166 1.047,1.166 0.043,0 0.181,-0.082 0.412,-0.244 0.233,-0.163 0.35,-0.265 0.35,-0.308 0,-0.04 -0.026,-0.093 -0.08,-0.165 C -2.137,2.77 -2.54,1.811 -2.54,0.976 c 0,-0.54 0.134,-0.97 0.403,-1.287 0.268,-0.318 0.609,-0.476 1.021,-0.476 0.442,0 0.814,0.262 1.116,0.787"
         style="fill:#000000;fill-opacity:1;fill-rule:nonzero;stroke:none"
         id="path486" /></g><g
       id="g488"
       transform="translate(355.792,390.4775)"><path
         d="m 0,0 h -0.272 l -0.51,1.164 c -0.173,0.388 -0.259,0.686 -0.259,0.891 0,0.283 0.086,0.504 0.259,0.662 0.172,0.157 0.387,0.236 0.645,0.236 C 0.131,2.953 0.35,2.871 0.52,2.709 0.689,2.547 0.775,2.333 0.775,2.069 0.775,1.854 0.688,1.552 0.517,1.164 Z"
         style="fill:#000000;fill-opacity:1;fill-rule:nonzero;stroke:none"
         id="path490" /></g></g></svg>
