<?xml version="1.0" encoding="UTF-8" standalone="no"?>
<svg
   xmlns:dc="http://purl.org/dc/elements/1.1/"
   xmlns:cc="http://creativecommons.org/ns#"
   xmlns:rdf="http://www.w3.org/1999/02/22-rdf-syntax-ns#"
   xmlns:svg="http://www.w3.org/2000/svg"
   xmlns="http://www.w3.org/2000/svg"
   xmlns:sodipodi="http://sodipodi.sourceforge.net/DTD/sodipodi-0.dtd"
   xmlns:inkscape="http://www.inkscape.org/namespaces/inkscape"
   version="1.1"
   id="svg2"
   xml:space="preserve"
   width="786.0553"
   height="159.68195"
   viewBox="0 0 786.05529 159.68194"
   sodipodi:docname="grapheconnexité.ai.svg"
   inkscape:version="1.0.2-2 (e86c870879, 2021-01-15)"><metadata
     id="metadata8"><rdf:RDF><cc:Work
         rdf:about=""><dc:format>image/svg+xml</dc:format><dc:type
           rdf:resource="http://purl.org/dc/dcmitype/StillImage" /><dc:title></dc:title></cc:Work></rdf:RDF></metadata><defs
     id="defs6"><clipPath
       clipPathUnits="userSpaceOnUse"
       id="clipPath18"><path
         d="M 0,841.89 H 595.276 V 0 H 0 Z"
         id="path16" /></clipPath></defs><sodipodi:namedview
     pagecolor="#dadab7"
     bordercolor="#666666"
     borderopacity="1"
     objecttolerance="10"
     gridtolerance="10"
     guidetolerance="10"
     inkscape:pageopacity="0"
     inkscape:pageshadow="2"
     inkscape:window-width="1836"
     inkscape:window-height="1030"
     id="namedview4"
     showgrid="false"
     inkscape:zoom="3.4368871"
     inkscape:cx="125.74742"
     inkscape:cy="73.361414"
     inkscape:window-x="66"
     inkscape:window-y="0"
     inkscape:window-maximized="0"
     inkscape:current-layer="g10"
     inkscape:document-rotation="0"
     fit-margin-top="10"
     fit-margin-left="10"
     fit-margin-right="10"
     fit-margin-bottom="10"
     inkscape:pagecheckerboard="false" /><g
     id="g10"
     inkscape:groupmode="layer"
     inkscape:label="grapheconnexité"
     transform="matrix(1.3333333,0,0,-1.3333333,2.8522748,646.28106)"><g
       id="g12"><g
         id="g14"
         clip-path="url(#clipPath18)"><g
           id="g20"
           transform="translate(99.25,418.3896)"><path
             d="m 0,0 c 0,-1.656 -1.231,-3 -2.75,-3 -1.519,0 -2.75,1.344 -2.75,3 0,1.656 1.231,3 2.75,3 C -1.231,3 0,1.656 0,0 Z"
             style="fill:#ffffff;stroke:#000000;stroke-width:0.5;stroke-linecap:butt;stroke-linejoin:miter;stroke-miterlimit:4;stroke-dasharray:none;stroke-opacity:1"
             id="path22" /></g><g
           id="g24"
           transform="translate(100.103,461.4624)"><path
             d="M 0,0 C 4.627,25.645 -32.567,15.425 -23.583,-12.069"
             style="fill:none;stroke:#e41b5b;stroke-width:2;stroke-linecap:butt;stroke-linejoin:bevel;stroke-miterlimit:10;stroke-dasharray:none;stroke-opacity:1"
             id="path26" /></g><g
           id="g28"
           transform="translate(94.0386,453.7637)"><path
             d="M 0,0 C -12.719,-14.793 -67.705,-10.121 -48.039,-33.288"
             style="fill:none;stroke:#e41b5b;stroke-width:3;stroke-linecap:butt;stroke-linejoin:bevel;stroke-miterlimit:10;stroke-dasharray:none;stroke-opacity:1"
             id="path30" /></g><g
           id="g32"
           transform="translate(53.3335,433.3091)"><path
             d="M 0,0 C 12.782,-26.353 -25.823,-19.101 -35.436,-2.019"
             style="fill:none;stroke:#e41b5b;stroke-width:2;stroke-linecap:butt;stroke-linejoin:bevel;stroke-miterlimit:10;stroke-dasharray:none;stroke-opacity:1"
             id="path34" /></g><g
           id="g36"
           transform="translate(47.1035,442.3188)"><path
             d="m 0,0 c -17.247,16.291 -36.951,-4.073 -40.27,-25.676 -2.859,-18.609 7.192,-38.141 32.634,-35.916"
             style="fill:none;stroke:#e41b5b;stroke-width:2;stroke-linecap:butt;stroke-linejoin:bevel;stroke-miterlimit:10;stroke-dasharray:none;stroke-opacity:1"
             id="path38" /></g><g
           id="g40"
           transform="translate(52.936,412.1465)"><path
             d="M 0,0 C 11.884,-9.85 15.397,-23.338 0.731,-29.004"
             style="fill:none;stroke:#e41b5b;stroke-width:2;stroke-linecap:butt;stroke-linejoin:bevel;stroke-miterlimit:10;stroke-dasharray:none;stroke-opacity:1"
             id="path42" /></g><g
           id="g44"
           transform="translate(58.3262,397.7891)"><path
             d="m 0,0 c -25.159,-17.313 -2.663,-28.305 16.841,-21.98 27.377,8.876 46.143,49.562 29.648,73.242 -5.482,7.869 -13.358,13.324 -22.456,16.157"
             style="fill:none;stroke:#e41b5b;stroke-width:3;stroke-linecap:butt;stroke-linejoin:bevel;stroke-miterlimit:10;stroke-dasharray:none;stroke-opacity:1"
             id="path46" /></g><g
           id="g48"
           transform="translate(68.6582,468.1211)"><path
             d="M 0,0 C -19.686,5.321 -63.358,2.644 -56.376,-26.843"
             style="fill:none;stroke:#e41b5b;stroke-width:1;stroke-linecap:butt;stroke-linejoin:bevel;stroke-miterlimit:10;stroke-dasharray:none;stroke-opacity:1"
             id="path50" /></g><g
           id="g52"
           transform="translate(78.541,438.5732)"><path
             d="M 0,0 C 5.87,-14.786 2.72,-30.711 -12.354,-37.454"
             style="fill:none;stroke:#e41b5b;stroke-width:1;stroke-linecap:butt;stroke-linejoin:bevel;stroke-miterlimit:10;stroke-dasharray:none;stroke-opacity:1"
             id="path54" /></g><g
           id="g56"
           transform="translate(221.2769,461.4624)"><path
             d="M 0,0 C 4.627,25.645 -32.567,15.425 -23.583,-12.069"
             style="fill:none;stroke:#e41b5b;stroke-width:2;stroke-linecap:butt;stroke-linejoin:bevel;stroke-miterlimit:10;stroke-dasharray:none;stroke-opacity:1"
             id="path58" /></g><g
           id="g60"
           transform="translate(215.2124,453.7637)"><path
             d="M 0,0 C -12.719,-14.793 -67.705,-10.121 -48.039,-33.288"
             style="fill:none;stroke:#e41b5b;stroke-width:3;stroke-linecap:butt;stroke-linejoin:bevel;stroke-miterlimit:10;stroke-dasharray:none;stroke-opacity:1"
             id="path62" /></g><g
           id="g64"
           transform="translate(174.5073,433.3091)"><path
             d="M 0,0 C 12.782,-26.353 -25.823,-19.101 -35.436,-2.019"
             style="fill:none;stroke:#e41b5b;stroke-width:2;stroke-linecap:butt;stroke-linejoin:bevel;stroke-miterlimit:10;stroke-dasharray:none;stroke-opacity:1"
             id="path66" /></g><g
           id="g68"
           transform="translate(168.2773,442.3188)"><path
             d="m 0,0 c -17.247,16.291 -36.951,-4.073 -40.27,-25.676 -2.859,-18.609 7.192,-38.141 32.634,-35.916"
             style="fill:none;stroke:#e41b5b;stroke-width:2;stroke-linecap:butt;stroke-linejoin:bevel;stroke-miterlimit:10;stroke-dasharray:none;stroke-opacity:1"
             id="path70" /></g><g
           id="g72"
           transform="translate(174.1099,412.1465)"><path
             d="M 0,0 C 11.884,-9.85 15.397,-23.338 0.731,-29.004"
             style="fill:none;stroke:#e41b5b;stroke-width:2;stroke-linecap:butt;stroke-linejoin:bevel;stroke-miterlimit:10;stroke-dasharray:none;stroke-opacity:1"
             id="path74" /></g><g
           id="g76"
           transform="translate(179.5,397.7891)"><path
             d="m 0,0 c -25.159,-17.313 -2.663,-28.305 16.841,-21.98 27.377,8.876 46.143,49.562 29.648,73.242 -5.482,7.869 -13.358,13.324 -22.456,16.157"
             style="fill:none;stroke:#e41b5b;stroke-width:3;stroke-linecap:butt;stroke-linejoin:bevel;stroke-miterlimit:10;stroke-dasharray:none;stroke-opacity:1"
             id="path78" /></g><g
           id="g80"
           transform="translate(189.832,468.1211)"><path
             d="M 0,0 C -19.686,5.321 -63.358,2.644 -56.376,-26.843"
             style="fill:none;stroke:#e41b5b;stroke-width:1;stroke-linecap:butt;stroke-linejoin:bevel;stroke-miterlimit:10;stroke-dasharray:none;stroke-opacity:1"
             id="path82" /></g><g
           id="g84"
           transform="translate(199.7148,438.5732)"><path
             d="M 0,0 C 5.87,-14.786 2.72,-30.711 -12.354,-37.454"
             style="fill:none;stroke:#e41b5b;stroke-width:1;stroke-linecap:butt;stroke-linejoin:bevel;stroke-miterlimit:10;stroke-dasharray:none;stroke-opacity:1"
             id="path86" /></g><g
           id="g88"
           transform="translate(214.4238,466.374)"><path
             d="M 0,0 C 4,-12.25 8.5,-28.75 6.25,-43.5"
             style="fill:none;stroke:#000000;stroke-width:0.5;stroke-linecap:round;stroke-linejoin:bevel;stroke-miterlimit:10;stroke-dasharray:none;stroke-opacity:1"
             id="path90" /></g><g
           id="g92"
           transform="translate(155.1738,402.124)"><path
             d="m 0,0 c 12.25,0.25 29.319,-3.994 38.25,-3.25 9,0.75 20,9.75 25.5,18.25"
             style="fill:none;stroke:#000000;stroke-width:0.5;stroke-linecap:round;stroke-linejoin:bevel;stroke-miterlimit:10;stroke-dasharray:none;stroke-opacity:1"
             id="path94" /></g><g
           id="g96"
           transform="translate(152.4238,399.124)"><path
             d="m 0,0 c 6.5,-9.25 16,-23.75 32.5,-20.25 16.5,3.5 35.167,32.584 35.083,37.917"
             style="fill:none;stroke:#000000;stroke-width:0.5;stroke-linecap:round;stroke-linejoin:bevel;stroke-miterlimit:10;stroke-dasharray:none;stroke-opacity:1"
             id="path98" /></g><g
           id="g100"
           transform="translate(179.4238,453.874)"><path
             d="m 0,0 c 15,-6 27.25,-17.5 32.75,-23.75 5.5,-6.25 3,-3.25 5.75,-7.75"
             style="fill:none;stroke:#000000;stroke-width:0.5;stroke-linecap:round;stroke-linejoin:bevel;stroke-miterlimit:10;stroke-dasharray:none;stroke-opacity:1"
             id="path102" /></g><g
           id="g104"
           transform="translate(180.1738,455.874)"><path
             d="m 0,0 c 0,-1.656 -1.231,-3 -2.75,-3 -1.519,0 -2.75,1.344 -2.75,3 0,1.656 1.231,3 2.75,3 C -1.231,3 0,1.656 0,0 Z"
             style="fill:#ffffff;stroke:#000000;stroke-width:0.5;stroke-linecap:butt;stroke-linejoin:miter;stroke-miterlimit:4;stroke-dasharray:none;stroke-opacity:1"
             id="path106" /></g><g
           id="g108"
           transform="translate(215.9238,468.874)"><path
             d="m 0,0 c 0,-1.656 -1.231,-3 -2.75,-3 -1.519,0 -2.75,1.344 -2.75,3 0,1.656 1.231,3 2.75,3 C -1.231,3 0,1.656 0,0 Z"
             style="fill:#ffffff;stroke:#000000;stroke-width:0.5;stroke-linecap:butt;stroke-linejoin:miter;stroke-miterlimit:4;stroke-dasharray:none;stroke-opacity:1"
             id="path110" /></g><g
           id="g112"
           transform="translate(155.1738,402.124)"><path
             d="m 0,0 c 0,-1.656 -1.231,-3 -2.75,-3 -1.519,0 -2.75,1.344 -2.75,3 0,1.656 1.231,3 2.75,3 C -1.231,3 0,1.656 0,0 Z"
             style="fill:#ffffff;stroke:#000000;stroke-width:0.5;stroke-linecap:butt;stroke-linejoin:miter;stroke-miterlimit:4;stroke-dasharray:none;stroke-opacity:1"
             id="path114" /></g><g
           id="g116"
           transform="translate(222.7573,419.791)"><path
             d="m 0,0 c 0,-1.656 -1.231,-3 -2.75,-3 -1.519,0 -2.75,1.344 -2.75,3 0,1.656 1.231,3 2.75,3 C -1.231,3 0,1.656 0,0 Z"
             style="fill:#ffffff;stroke:#000000;stroke-width:0.5;stroke-linecap:butt;stroke-linejoin:miter;stroke-miterlimit:4;stroke-dasharray:none;stroke-opacity:1"
             id="path118" /></g><g
           id="g120"
           transform="translate(342.4502,461.4624)"><path
             d="M 0,0 C 4.627,25.645 -32.566,15.425 -23.583,-12.069"
             style="fill:none;stroke:#e41b5b;stroke-width:2;stroke-linecap:butt;stroke-linejoin:bevel;stroke-miterlimit:10;stroke-dasharray:none;stroke-opacity:1"
             id="path122" /></g><g
           id="g124"
           transform="translate(336.3857,453.7637)"><path
             d="M 0,0 C -12.719,-14.793 -67.705,-10.121 -48.039,-33.288"
             style="fill:none;stroke:#e41b5b;stroke-width:3;stroke-linecap:butt;stroke-linejoin:bevel;stroke-miterlimit:10;stroke-dasharray:none;stroke-opacity:1"
             id="path126" /></g><g
           id="g128"
           transform="translate(295.6802,433.3091)"><path
             d="M 0,0 C 12.783,-26.353 -25.823,-19.101 -35.436,-2.019"
             style="fill:none;stroke:#e41b5b;stroke-width:2;stroke-linecap:butt;stroke-linejoin:bevel;stroke-miterlimit:10;stroke-dasharray:none;stroke-opacity:1"
             id="path130" /></g><g
           id="g132"
           transform="translate(289.4507,442.3188)"><path
             d="m 0,0 c -17.247,16.291 -36.951,-4.073 -40.27,-25.676 -2.859,-18.609 7.192,-38.141 32.634,-35.916"
             style="fill:none;stroke:#e41b5b;stroke-width:2;stroke-linecap:butt;stroke-linejoin:bevel;stroke-miterlimit:10;stroke-dasharray:none;stroke-opacity:1"
             id="path134" /></g><g
           id="g136"
           transform="translate(295.2837,412.1465)"><path
             d="M 0,0 C 11.884,-9.85 15.397,-23.338 0.73,-29.004"
             style="fill:none;stroke:#e41b5b;stroke-width:2;stroke-linecap:butt;stroke-linejoin:bevel;stroke-miterlimit:10;stroke-dasharray:none;stroke-opacity:1"
             id="path138" /></g><g
           id="g140"
           transform="translate(300.6738,397.7891)"><path
             d="m 0,0 c -25.16,-17.313 -2.664,-28.305 16.841,-21.98 27.377,8.876 46.143,49.562 29.648,73.242 -5.482,7.869 -13.358,13.324 -22.456,16.157"
             style="fill:none;stroke:#e41b5b;stroke-width:3;stroke-linecap:butt;stroke-linejoin:bevel;stroke-miterlimit:10;stroke-dasharray:none;stroke-opacity:1"
             id="path142" /></g><g
           id="g144"
           transform="translate(311.0059,468.1211)"><path
             d="M 0,0 C -19.687,5.321 -63.359,2.644 -56.376,-26.843"
             style="fill:none;stroke:#e41b5b;stroke-width:1;stroke-linecap:butt;stroke-linejoin:bevel;stroke-miterlimit:10;stroke-dasharray:none;stroke-opacity:1"
             id="path146" /></g><g
           id="g148"
           transform="translate(320.8887,438.5732)"><path
             d="M 0,0 C 5.87,-14.786 2.72,-30.711 -12.354,-37.454"
             style="fill:none;stroke:#e41b5b;stroke-width:1;stroke-linecap:butt;stroke-linejoin:bevel;stroke-miterlimit:10;stroke-dasharray:none;stroke-opacity:1"
             id="path150" /></g><g
           id="g152"
           transform="translate(337.4463,468.9912)"><path
             d="m 0,0 c 0,-1.656 -1.231,-3 -2.75,-3 -1.519,0 -2.75,1.344 -2.75,3 0,1.656 1.231,3 2.75,3 C -1.231,3 0,1.656 0,0 Z"
             style="fill:#ffffff;stroke:#000000;stroke-width:0.5;stroke-linecap:butt;stroke-linejoin:miter;stroke-miterlimit:4;stroke-dasharray:none;stroke-opacity:1"
             id="path154" /></g><g
           id="g156"
           transform="translate(276.6958,402.2412)"><path
             d="m 0,0 c 0,-1.656 -1.231,-3 -2.75,-3 -1.519,0 -2.75,1.344 -2.75,3 0,1.656 1.231,3 2.75,3 C -1.231,3 0,1.656 0,0 Z"
             style="fill:#ffffff;stroke:#000000;stroke-width:0.5;stroke-linecap:butt;stroke-linejoin:miter;stroke-miterlimit:4;stroke-dasharray:none;stroke-opacity:1"
             id="path158" /></g><g
           id="g160"
           transform="translate(292.4458,423.7412)"><path
             d="M 0,0 C -2.5,-11.5 -9.5,-15.25 -16,-20.5"
             style="fill:none;stroke:#000000;stroke-width:0.5;stroke-linecap:round;stroke-linejoin:bevel;stroke-miterlimit:10;stroke-dasharray:none;stroke-opacity:1"
             id="path162" /></g><g
           id="g164"
           transform="translate(295.1958,426.7412)"><path
             d="m 0,0 c 0,-1.656 -1.231,-3 -2.75,-3 -1.519,0 -2.75,1.344 -2.75,3 0,1.656 1.231,3 2.75,3 C -1.231,3 0,1.656 0,0 Z"
             style="fill:#ffffff;stroke:#000000;stroke-width:0.5;stroke-linecap:butt;stroke-linejoin:miter;stroke-miterlimit:4;stroke-dasharray:none;stroke-opacity:1"
             id="path166" /></g><g
           id="g168"
           transform="translate(344.2803,419.9082)"><path
             d="m 0,0 c 0,-1.656 -1.232,-3 -2.75,-3 -1.52,0 -2.75,1.344 -2.75,3 0,1.656 1.23,3 2.75,3 C -1.232,3 0,1.656 0,0 Z"
             style="fill:#ffffff;stroke:#000000;stroke-width:0.5;stroke-linecap:butt;stroke-linejoin:miter;stroke-miterlimit:4;stroke-dasharray:none;stroke-opacity:1"
             id="path170" /></g><g
           id="g172"
           transform="translate(335.9463,466.4912)"><path
             d="M 0,0 C 4,-12.25 8.5,-28.75 6.25,-43.5"
             style="fill:none;stroke:#000000;stroke-width:0.5;stroke-linecap:round;stroke-linejoin:bevel;stroke-miterlimit:10;stroke-dasharray:none;stroke-opacity:1"
             id="path174" /></g><g
           id="g176"
           transform="translate(276.6958,402.2412)"><path
             d="m 0,0 c 12.25,0.25 29.32,-3.994 38.25,-3.25 9,0.75 20,9.75 25.5,18.25"
             style="fill:none;stroke:#000000;stroke-width:0.5;stroke-linecap:round;stroke-linejoin:bevel;stroke-miterlimit:10;stroke-dasharray:none;stroke-opacity:1"
             id="path178" /></g><g
           id="g180"
           transform="translate(273.9458,399.2412)"><path
             d="m 0,0 c 6.5,-9.25 16,-23.75 32.5,-20.25 16.5,3.5 35.167,32.584 35.084,37.917"
             style="fill:none;stroke:#000000;stroke-width:0.5;stroke-linecap:round;stroke-linejoin:bevel;stroke-miterlimit:10;stroke-dasharray:none;stroke-opacity:1"
             id="path182" /></g><g
           id="g184"
           transform="translate(301.6963,455.9912)"><path
             d="m 0,0 c 0,-1.656 -1.231,-3 -2.75,-3 -1.519,0 -2.75,1.344 -2.75,3 0,1.656 1.231,3 2.75,3 C -1.231,3 0,1.656 0,0 Z"
             style="fill:#ffffff;stroke:#000000;stroke-width:0.5;stroke-linecap:butt;stroke-linejoin:miter;stroke-miterlimit:4;stroke-dasharray:none;stroke-opacity:1"
             id="path186" /></g><g
           id="g188"
           transform="translate(331.9463,468.9912)"><path
             d="M 0,0 C -8.25,-1.75 -22.75,-6.5 -31.25,-10.25"
             style="fill:none;stroke:#000000;stroke-width:0.5;stroke-linecap:round;stroke-linejoin:bevel;stroke-miterlimit:10;stroke-dasharray:none;stroke-opacity:1"
             id="path190" /></g><g
           id="g192"
           transform="translate(298.1958,452.9912)"><path
             d="M 0,0 C -2.25,-6 -4.75,-13.75 -5.75,-23.25"
             style="fill:none;stroke:#000000;stroke-width:0.5;stroke-linecap:round;stroke-linejoin:bevel;stroke-miterlimit:10;stroke-dasharray:none;stroke-opacity:1"
             id="path194" /></g><g
           id="g196"
           transform="translate(295.9458,456.9912)"><path
             d="m 0,0 c -15,-0.25 -36.5,-2 -38,-14.75 -1.5,-12.75 3.75,-30.5 13,-38.75"
             style="fill:none;stroke:#000000;stroke-width:0.5;stroke-linecap:round;stroke-linejoin:bevel;stroke-miterlimit:10;stroke-dasharray:none;stroke-opacity:1"
             id="path198" /></g><g
           id="g200"
           transform="translate(300.9463,453.9912)"><path
             d="m 0,0 c 15,-6 27.25,-17.5 32.75,-23.75 5.5,-6.25 3,-3.25 5.75,-7.75"
             style="fill:none;stroke:#000000;stroke-width:0.5;stroke-linecap:round;stroke-linejoin:bevel;stroke-miterlimit:10;stroke-dasharray:none;stroke-opacity:1"
             id="path202" /></g><g
           id="g204"
           transform="translate(413.8135,423.7588)"><path
             d="M 0,0 C -2.455,-10.456 -9.33,-13.865 -15.714,-18.639"
             style="fill:none;stroke:#000000;stroke-width:0.75;stroke-linecap:round;stroke-linejoin:bevel;stroke-miterlimit:10;stroke-dasharray:none;stroke-opacity:1"
             id="path206" /></g><g
           id="g208"
           transform="translate(456.5361,462.626)"><path
             d="M 0,0 C 3.928,-11.137 8.348,-26.139 6.138,-39.549"
             style="fill:none;stroke:#000000;stroke-width:0.75;stroke-linecap:round;stroke-linejoin:bevel;stroke-miterlimit:10;stroke-dasharray:none;stroke-opacity:1"
             id="path210" /></g><g
           id="g212"
           transform="translate(398.3457,404.2109)"><path
             d="m 0,0 c 12.03,0.228 28.795,-3.631 37.565,-2.954 8.84,0.682 19.643,8.864 25.044,16.592"
             style="fill:none;stroke:#000000;stroke-width:0.75;stroke-linecap:round;stroke-linejoin:bevel;stroke-miterlimit:10;stroke-dasharray:none;stroke-opacity:1"
             id="path214" /></g><g
           id="g216"
           transform="translate(395.6445,401.4834)"><path
             d="m 0,0 c 6.384,-8.409 15.714,-21.593 31.919,-18.41 16.205,3.181 34.538,29.624 34.457,34.473"
             style="fill:none;stroke:#000000;stroke-width:0.75;stroke-linecap:round;stroke-linejoin:bevel;stroke-miterlimit:10;stroke-dasharray:none;stroke-opacity:1"
             id="path218" /></g><g
           id="g220"
           transform="translate(452.6074,464.8989)"><path
             d="M 0,0 C -8.103,-1.591 -22.343,-5.91 -30.691,-9.319"
             style="fill:none;stroke:#000000;stroke-width:0.75;stroke-linecap:round;stroke-linejoin:bevel;stroke-miterlimit:10;stroke-dasharray:none;stroke-opacity:1"
             id="path222" /></g><g
           id="g224"
           transform="translate(419.4609,450.3521)"><path
             d="M 0,0 C -2.21,-5.455 -4.665,-12.501 -5.647,-21.138"
             style="fill:none;stroke:#000000;stroke-width:0.75;stroke-linecap:round;stroke-linejoin:bevel;stroke-miterlimit:10;stroke-dasharray:none;stroke-opacity:1"
             id="path226" /></g><g
           id="g228"
           transform="translate(417.251,453.9888)"><path
             d="m 0,0 c -14.731,-0.227 -35.847,-1.818 -37.32,-13.41 -1.473,-11.592 3.683,-27.73 12.767,-35.231"
             style="fill:none;stroke:#000000;stroke-width:0.75;stroke-linecap:round;stroke-linejoin:bevel;stroke-miterlimit:10;stroke-dasharray:none;stroke-opacity:1"
             id="path230" /></g><g
           id="g232"
           transform="translate(422.1621,451.2612)"><path
             d="m 0,0 c 14.731,-5.455 26.763,-15.911 32.164,-21.593 5.401,-5.682 2.946,-2.955 5.648,-7.046"
             style="fill:none;stroke:#000000;stroke-width:0.75;stroke-linecap:round;stroke-linejoin:bevel;stroke-miterlimit:10;stroke-dasharray:none;stroke-opacity:1"
             id="path234" /></g><g
           id="g236"
           transform="translate(398.3457,404.2109)"><path
             d="m 0,0 c 0,-1.506 -1.21,-2.728 -2.701,-2.728 -1.491,0 -2.7,1.222 -2.7,2.728 0,1.506 1.209,2.728 2.7,2.728 C -1.21,2.728 0,1.506 0,0 Z"
             style="fill:#ffffff;stroke:#000000;stroke-width:0.75;stroke-linecap:butt;stroke-linejoin:miter;stroke-miterlimit:4;stroke-dasharray:none;stroke-opacity:1"
             id="path238" /></g><g
           id="g240"
           transform="translate(416.5146,426.4863)"><path
             d="m 0,0 c 0,-1.506 -1.209,-2.728 -2.701,-2.728 -1.491,0 -2.7,1.222 -2.7,2.728 0,1.506 1.209,2.728 2.7,2.728 C -1.209,2.728 0,1.506 0,0 Z"
             style="fill:#ffffff;stroke:#000000;stroke-width:0.75;stroke-linecap:butt;stroke-linejoin:miter;stroke-miterlimit:4;stroke-dasharray:none;stroke-opacity:1"
             id="path242" /></g><g
           id="g244"
           transform="translate(464.7207,420.2734)"><path
             d="m 0,0 c 0,-1.506 -1.21,-2.728 -2.7,-2.728 -1.493,0 -2.701,1.222 -2.701,2.728 0,1.506 1.208,2.728 2.701,2.728 C -1.21,2.728 0,1.506 0,0 Z"
             style="fill:#ffffff;stroke:#000000;stroke-width:0.75;stroke-linecap:butt;stroke-linejoin:miter;stroke-miterlimit:4;stroke-dasharray:none;stroke-opacity:1"
             id="path246" /></g><g
           id="g248"
           transform="translate(422.8984,453.0796)"><path
             d="m 0,0 c 0,-1.506 -1.209,-2.728 -2.701,-2.728 -1.491,0 -2.7,1.222 -2.7,2.728 0,1.506 1.209,2.728 2.7,2.728 C -1.209,2.728 0,1.506 0,0 Z"
             style="fill:#ffffff;stroke:#000000;stroke-width:0.75;stroke-linecap:butt;stroke-linejoin:miter;stroke-miterlimit:4;stroke-dasharray:none;stroke-opacity:1"
             id="path250" /></g><g
           id="g252"
           transform="translate(458.0088,464.8989)"><path
             d="m 0,0 c 0,-1.506 -1.209,-2.728 -2.7,-2.728 -1.491,0 -2.701,1.222 -2.701,2.728 0,1.506 1.21,2.728 2.701,2.728 C -1.209,2.728 0,1.506 0,0 Z"
             style="fill:#ffffff;stroke:#000000;stroke-width:0.75;stroke-linecap:butt;stroke-linejoin:miter;stroke-miterlimit:4;stroke-dasharray:none;stroke-opacity:1"
             id="path254" /></g><g
           id="g256"
           transform="translate(511.5977,456.5283)"><path
             d="M 0,0 63.367,-62.844"
             style="fill:none;stroke:#000000;stroke-width:1;stroke-linecap:round;stroke-linejoin:bevel;stroke-miterlimit:10;stroke-dasharray:none;stroke-opacity:1"
             id="path258" /></g><g
           id="g260"
           transform="translate(510.4727,389.8145)"><path
             d="M 0,0 H 65.055"
             style="fill:none;stroke:#000000;stroke-width:1;stroke-linecap:round;stroke-linejoin:bevel;stroke-miterlimit:10;stroke-dasharray:none;stroke-opacity:1"
             id="path262" /></g><g
           id="g264"
           transform="translate(510.4727,394.2383)"><path
             d="M 0,0 64.492,-0.554"
             style="fill:none;stroke:#000000;stroke-width:1;stroke-linecap:round;stroke-linejoin:bevel;stroke-miterlimit:10;stroke-dasharray:none;stroke-opacity:1"
             id="path266" /></g><g
           id="g268"
           transform="translate(509.3477,455.9756)"><path
             d="M 0,0 0.563,-61.554"
             style="fill:none;stroke:#000000;stroke-width:1;stroke-linecap:round;stroke-linejoin:bevel;stroke-miterlimit:10;stroke-dasharray:none;stroke-opacity:1"
             id="path270" /></g><g
           id="g272"
           transform="translate(512.3477,458.187)"><path
             d="M 0,0 62.055,0.553"
             style="fill:none;stroke:#000000;stroke-width:1;stroke-linecap:round;stroke-linejoin:bevel;stroke-miterlimit:10;stroke-dasharray:none;stroke-opacity:1"
             id="path274" /></g><g
           id="g276"
           transform="translate(576.0898,455.9756)"><path
             d="M 0,0 0.375,-61.554"
             style="fill:none;stroke:#000000;stroke-width:1;stroke-linecap:round;stroke-linejoin:bevel;stroke-miterlimit:10;stroke-dasharray:none;stroke-opacity:1"
             id="path278" /></g><g
           id="g280"
           transform="translate(510.2852,455.9756)"><path
             d="M 0,0 15.186,-32.988"
             style="fill:none;stroke:#000000;stroke-width:1;stroke-linecap:round;stroke-linejoin:bevel;stroke-miterlimit:10;stroke-dasharray:none;stroke-opacity:1"
             id="path282" /></g><g
           id="g284"
           transform="translate(525.8457,419.1172)"><path
             d="M 0,0 -15.373,-27.091"
             style="fill:none;stroke:#000000;stroke-width:1;stroke-linecap:round;stroke-linejoin:bevel;stroke-miterlimit:10;stroke-dasharray:none;stroke-opacity:1"
             id="path286" /></g><g
           id="g288"
           transform="translate(578.9248,458.187)"><path
             d="m 0,0 c 0,-1.565 -1.27,-2.835 -2.835,-2.835 -1.565,0 -2.834,1.27 -2.834,2.835 0,1.565 1.269,2.834 2.834,2.834 C -1.27,2.834 0,1.565 0,0"
             style="fill:#ffffff;fill-opacity:1;fill-rule:nonzero;stroke:none"
             id="path290" /></g><g
           id="g292"
           transform="translate(578.9248,458.187)"><path
             d="m 0,0 c 0,-1.565 -1.27,-2.835 -2.835,-2.835 -1.565,0 -2.834,1.27 -2.834,2.835 0,1.565 1.269,2.834 2.834,2.834 C -1.27,2.834 0,1.565 0,0 Z"
             style="fill:none;stroke:#000000;stroke-width:1.207;stroke-linecap:butt;stroke-linejoin:miter;stroke-miterlimit:4;stroke-dasharray:none;stroke-opacity:1"
             id="path294" /></g><g
           id="g296"
           transform="translate(513.3076,392.0264)"><path
             d="m 0,0 c 0,-1.565 -1.271,-2.835 -2.835,-2.835 -1.565,0 -2.835,1.27 -2.835,2.835 0,1.563 1.27,2.835 2.835,2.835 C -1.271,2.835 0,1.563 0,0"
             style="fill:#ffffff;fill-opacity:1;fill-rule:nonzero;stroke:none"
             id="path298" /></g><g
           id="g300"
           transform="translate(513.3076,392.0264)"><path
             d="m 0,0 c 0,-1.565 -1.271,-2.835 -2.835,-2.835 -1.565,0 -2.835,1.27 -2.835,2.835 0,1.563 1.27,2.835 2.835,2.835 C -1.271,2.835 0,1.563 0,0 Z"
             style="fill:none;stroke:#000000;stroke-width:1.207;stroke-linecap:butt;stroke-linejoin:miter;stroke-miterlimit:4;stroke-dasharray:none;stroke-opacity:1"
             id="path302" /></g><g
           id="g304"
           transform="translate(579.2988,392.2109)"><path
             d="m 0,0 c 0,-1.566 -1.27,-2.836 -2.834,-2.836 -1.566,0 -2.835,1.27 -2.835,2.836 0,1.564 1.269,2.834 2.835,2.834 C -1.27,2.834 0,1.564 0,0"
             style="fill:#ffffff;fill-opacity:1;fill-rule:nonzero;stroke:none"
             id="path306" /></g><g
           id="g308"
           transform="translate(579.2988,392.2109)"><path
             d="m 0,0 c 0,-1.566 -1.27,-2.836 -2.834,-2.836 -1.566,0 -2.835,1.27 -2.835,2.836 0,1.564 1.269,2.834 2.835,2.834 C -1.27,2.834 0,1.564 0,0 Z"
             style="fill:none;stroke:#000000;stroke-width:1.207;stroke-linecap:butt;stroke-linejoin:miter;stroke-miterlimit:4;stroke-dasharray:none;stroke-opacity:1"
             id="path310" /></g><g
           id="g312"
           transform="translate(529.2432,421.5127)"><path
             d="m 0,0 c 0,-1.565 -1.27,-2.834 -2.835,-2.834 -1.564,0 -2.835,1.269 -2.835,2.834 0,1.565 1.271,2.835 2.835,2.835 C -1.27,2.835 0,1.565 0,0"
             style="fill:#ffffff;fill-opacity:1;fill-rule:nonzero;stroke:none"
             id="path314" /></g><g
           id="g316"
           transform="translate(529.2432,421.5127)"><path
             d="m 0,0 c 0,-1.565 -1.27,-2.834 -2.835,-2.834 -1.564,0 -2.835,1.269 -2.835,2.834 0,1.565 1.271,2.835 2.835,2.835 C -1.27,2.835 0,1.565 0,0 Z"
             style="fill:none;stroke:#000000;stroke-width:1.207;stroke-linecap:butt;stroke-linejoin:miter;stroke-miterlimit:4;stroke-dasharray:none;stroke-opacity:1"
             id="path318" /></g><g
           id="g320"
           transform="translate(513.1201,458.187)"><path
             d="m 0,0 c 0,-1.565 -1.27,-2.835 -2.835,-2.835 -1.565,0 -2.834,1.27 -2.834,2.835 0,1.565 1.269,2.834 2.834,2.834 C -1.27,2.834 0,1.565 0,0"
             style="fill:#ffffff;fill-opacity:1;fill-rule:nonzero;stroke:none"
             id="path322" /></g><g
           id="g324"
           transform="translate(513.1201,458.187)"><path
             d="m 0,0 c 0,-1.565 -1.27,-2.835 -2.835,-2.835 -1.565,0 -2.834,1.27 -2.834,2.835 0,1.565 1.269,2.834 2.834,2.834 C -1.27,2.834 0,1.565 0,0 Z"
             style="fill:none;stroke:#000000;stroke-width:1.207;stroke-linecap:butt;stroke-linejoin:miter;stroke-miterlimit:4;stroke-dasharray:none;stroke-opacity:1"
             id="path326" /></g></g></g></g></svg>
