<?xml version="1.0" encoding="UTF-8" standalone="no"?>
<svg
   xmlns:dc="http://purl.org/dc/elements/1.1/"
   xmlns:cc="http://creativecommons.org/ns#"
   xmlns:rdf="http://www.w3.org/1999/02/22-rdf-syntax-ns#"
   xmlns:svg="http://www.w3.org/2000/svg"
   xmlns="http://www.w3.org/2000/svg"
   xmlns:sodipodi="http://sodipodi.sourceforge.net/DTD/sodipodi-0.dtd"
   xmlns:inkscape="http://www.inkscape.org/namespaces/inkscape"
   version="1.1"
   id="svg2"
   xml:space="preserve"
   width="752.80719"
   height="212.85251"
   viewBox="0 0 752.80718 212.85251"
   sodipodi:docname="noeudprem.svg"
   inkscape:version="1.0.2-2 (e86c870879, 2021-01-15)"><metadata
     id="metadata8"><rdf:RDF><cc:Work
         rdf:about=""><dc:format>image/svg+xml</dc:format><dc:type
           rdf:resource="http://purl.org/dc/dcmitype/StillImage" /><dc:title></dc:title></cc:Work></rdf:RDF></metadata><defs
     id="defs6"><clipPath
       clipPathUnits="userSpaceOnUse"
       id="clipPath18"><path
         d="M 0,595.446 H 841.89 V 0 H 0 Z"
         id="path16"
         inkscape:connector-curvature="0" /></clipPath></defs><sodipodi:namedview
     pagecolor="#ffffff"
     bordercolor="#666666"
     borderopacity="1"
     objecttolerance="10"
     gridtolerance="10"
     guidetolerance="10"
     inkscape:pageopacity="0"
     inkscape:pageshadow="2"
     inkscape:window-width="1920"
     inkscape:window-height="1001"
     id="namedview4"
     showgrid="false"
     inkscape:zoom="1.4413935"
     inkscape:cx="285.93408"
     inkscape:cy="135.3574"
     inkscape:window-x="-9"
     inkscape:window-y="-9"
     inkscape:window-maximized="1"
     inkscape:current-layer="g14"
     inkscape:document-rotation="0"
     fit-margin-top="10.1"
     fit-margin-left="10.1"
     fit-margin-right="10.1"
     fit-margin-bottom="10.1" /><g
     id="g10"
     inkscape:groupmode="layer"
     inkscape:label="noeudprem"
     transform="matrix(1.3333333,0,0,-1.3333333,-185.12961,501.63366)"><g
       id="g12"><g
         id="g14"
         clip-path="url(#clipPath18)"><g
           id="g4763"
           inkscape:export-xdpi="300"
           inkscape:export-ydpi="300"><path
             d="m 200.3335,353.2559 c 5.333,6 32.333,26.667 68,2.333 35.667,-24.333 29,-49 26,-55.666 -3,-6.667 -17,-14.667 -25.333,-9"
             style="fill:none;stroke:#ed1c24;stroke-width:3;stroke-linecap:butt;stroke-linejoin:miter;stroke-miterlimit:4;stroke-dasharray:none;stroke-opacity:1"
             id="path22"
             inkscape:connector-curvature="0" /><path
             d="m 253.3335,298.5894 c -4.667,3.333 -19.667,51.333 -54.333,49 -34.667,-2.333 -57,-63 -49.667,-82.333 7.333,-19.334 77.333,-55.667 87,-31.667"
             style="fill:none;stroke:#ed1c24;stroke-width:3;stroke-linecap:butt;stroke-linejoin:miter;stroke-miterlimit:4;stroke-dasharray:none;stroke-opacity:1"
             id="path26"
             inkscape:connector-curvature="0" /><path
             d="m 242,243.2559 c 3.667,9.667 20.667,76 45,61.333"
             style="fill:none;stroke:#ed1c24;stroke-width:3;stroke-linecap:butt;stroke-linejoin:miter;stroke-miterlimit:4;stroke-dasharray:none;stroke-opacity:1"
             id="path30"
             inkscape:connector-curvature="0" /><path
             d="m 300.3335,294.9229 c 5.667,-3.667 5.333,-33.334 -5,-43.667 -10.333,-10.333 -40,-24.667 -58.667,-12 -18.666,12.667 -36,29.667 -27.666,48.667"
             style="fill:none;stroke:#ed1c24;stroke-width:3;stroke-linecap:butt;stroke-linejoin:miter;stroke-miterlimit:4;stroke-dasharray:none;stroke-opacity:1"
             id="path34"
             inkscape:connector-curvature="0" /><path
             d="m 214.3335,300.5894 c 3.333,7.667 5,16 -2.667,21.333 -7.666,5.334 -29.666,-10.001 -31.666,-27.666 -2,-17.667 10.333,-55.667 30.333,-42.334"
             style="fill:none;stroke:#ed1c24;stroke-width:3;stroke-linecap:butt;stroke-linejoin:miter;stroke-miterlimit:4;stroke-dasharray:none;stroke-opacity:1"
             id="path38"
             inkscape:connector-curvature="0" /><path
             d="m 220.3335,259.5898 c 6.333,5.333 7.667,15.332 0.667,25.666 -7,10.334 -24.334,13.333 -27.667,23.667"
             style="fill:none;stroke:#ed1c24;stroke-width:3;stroke-linecap:butt;stroke-linejoin:miter;stroke-miterlimit:4;stroke-dasharray:none;stroke-opacity:1"
             id="path42"
             inkscape:connector-curvature="0" /><path
             d="m 189,322.5894 c -1,10.667 1.667,13 5,19.667"
             style="fill:none;stroke:#ed1c24;stroke-width:3;stroke-linecap:butt;stroke-linejoin:miter;stroke-miterlimit:4;stroke-dasharray:none;stroke-opacity:1"
             id="path46"
             inkscape:connector-curvature="0" /><path
             d="m 163.3335,274.9229 c 0.667,9.667 9.334,76 47.667,77.333 38.333,1.334 45.333,-12 49.333,-20.666"
             style="fill:none;stroke:#231f20;stroke-width:1;stroke-linecap:butt;stroke-linejoin:miter;stroke-miterlimit:4;stroke-dasharray:none;stroke-opacity:1"
             id="path50"
             inkscape:connector-curvature="0" /><path
             d="m 262.3335,332.9224 c 5,-2.333 33.666,-20.667 32.333,-34 -1.333,-13.333 -13.666,-27.666 -20.333,-32.333"
             style="fill:none;stroke:#231f20;stroke-width:1;stroke-linecap:butt;stroke-linejoin:miter;stroke-miterlimit:4;stroke-dasharray:none;stroke-opacity:1"
             id="path54"
             inkscape:connector-curvature="0" /><path
             d="m 261,333.9224 c -2,-7.667 2.059,-51.828 11.333,-66.667"
             style="fill:none;stroke:#231f20;stroke-width:1;stroke-linecap:butt;stroke-linejoin:miter;stroke-miterlimit:4;stroke-dasharray:none;stroke-opacity:1"
             id="path58"
             inkscape:connector-curvature="0" /><path
             d="m 273,266.2559 c -4,-8.666 -24.667,-30.332 -56,-26.666 -31.333,3.666 -52,19.666 -52.667,33.666"
             style="fill:none;stroke:#231f20;stroke-width:1;stroke-linecap:butt;stroke-linejoin:miter;stroke-miterlimit:4;stroke-dasharray:none;stroke-opacity:1"
             id="path62"
             inkscape:connector-curvature="0" /><path
             d="m 205.6665,314.5894 c -12,0 -34.667,-2.666 -40.667,-39"
             style="fill:none;stroke:#231f20;stroke-width:1;stroke-linecap:butt;stroke-linejoin:miter;stroke-miterlimit:4;stroke-dasharray:none;stroke-opacity:1"
             id="path66"
             inkscape:connector-curvature="0" /><path
             d="m 206.6665,314.5894 c 3.333,-5.333 8.818,-31.394 9.667,-37.333 1,-7 2.666,-31.667 -7.334,-32.334 -10,-0.666 -38.666,9.667 -42.333,28.334"
             style="fill:none;stroke:#231f20;stroke-width:1;stroke-linecap:butt;stroke-linejoin:miter;stroke-miterlimit:4;stroke-dasharray:none;stroke-opacity:1"
             id="path70"
             inkscape:connector-curvature="0" /><path
             d="m 166.8335,274.9229 c 0,-1.933 -1.567,-3.5 -3.5,-3.5 -1.933,0 -3.5,1.567 -3.5,3.5 0,1.933 1.567,3.5 3.5,3.5 1.933,0 3.5,-1.567 3.5,-3.5"
             style="fill:#ffffff;fill-opacity:1;fill-rule:nonzero;stroke:none"
             id="path74"
             inkscape:connector-curvature="0" /><path
             d="m 166.8335,274.9229 c 0,-1.933 -1.567,-3.5 -3.5,-3.5 -1.933,0 -3.5,1.567 -3.5,3.5 0,1.933 1.567,3.5 3.5,3.5 1.933,0 3.5,-1.567 3.5,-3.5 z"
             style="fill:none;stroke:#231f20;stroke-width:1;stroke-linecap:butt;stroke-linejoin:miter;stroke-miterlimit:4;stroke-dasharray:none;stroke-opacity:1"
             id="path78"
             inkscape:connector-curvature="0" /><path
             d="m 276.8335,267.5898 c 0,-1.933 -1.567,-3.5 -3.5,-3.5 -1.933,0 -3.5,1.567 -3.5,3.5 0,1.933 1.567,3.5 3.5,3.5 1.933,0 3.5,-1.567 3.5,-3.5"
             style="fill:#ffffff;fill-opacity:1;fill-rule:nonzero;stroke:none"
             id="path82"
             inkscape:connector-curvature="0" /><path
             d="m 276.8335,267.5898 c 0,-1.933 -1.567,-3.5 -3.5,-3.5 -1.933,0 -3.5,1.567 -3.5,3.5 0,1.933 1.567,3.5 3.5,3.5 1.933,0 3.5,-1.567 3.5,-3.5 z"
             style="fill:none;stroke:#231f20;stroke-width:1;stroke-linecap:butt;stroke-linejoin:miter;stroke-miterlimit:4;stroke-dasharray:none;stroke-opacity:1"
             id="path86"
             inkscape:connector-curvature="0" /><path
             d="m 263.8335,332.5894 c 0,-1.933 -1.567,-3.5 -3.5,-3.5 -1.933,0 -3.5,1.567 -3.5,3.5 0,1.933 1.567,3.5 3.5,3.5 1.933,0 3.5,-1.567 3.5,-3.5"
             style="fill:#ffffff;fill-opacity:1;fill-rule:nonzero;stroke:none"
             id="path90"
             inkscape:connector-curvature="0" /><path
             d="m 263.8335,332.5894 c 0,-1.933 -1.567,-3.5 -3.5,-3.5 -1.933,0 -3.5,1.567 -3.5,3.5 0,1.933 1.567,3.5 3.5,3.5 1.933,0 3.5,-1.567 3.5,-3.5 z"
             style="fill:none;stroke:#231f20;stroke-width:1;stroke-linecap:butt;stroke-linejoin:miter;stroke-miterlimit:4;stroke-dasharray:none;stroke-opacity:1"
             id="path94"
             inkscape:connector-curvature="0" /><path
             d="m 219.8335,277.2559 c 0,-1.933 -1.567,-3.5 -3.5,-3.5 -1.933,0 -3.5,1.567 -3.5,3.5 0,1.933 1.567,3.5 3.5,3.5 1.933,0 3.5,-1.567 3.5,-3.5"
             style="fill:#ffffff;fill-opacity:1;fill-rule:nonzero;stroke:none"
             id="path98"
             inkscape:connector-curvature="0" /><path
             d="m 219.8335,277.2559 c 0,-1.933 -1.567,-3.5 -3.5,-3.5 -1.933,0 -3.5,1.567 -3.5,3.5 0,1.933 1.567,3.5 3.5,3.5 1.933,0 3.5,-1.567 3.5,-3.5 z"
             style="fill:none;stroke:#231f20;stroke-width:1;stroke-linecap:butt;stroke-linejoin:miter;stroke-miterlimit:4;stroke-dasharray:none;stroke-opacity:1"
             id="path102"
             inkscape:connector-curvature="0" /><path
             d="m 210.1665,314.5894 c 0,-1.933 -1.567,-3.5 -3.5,-3.5 -1.933,0 -3.5,1.567 -3.5,3.5 0,1.933 1.567,3.5 3.5,3.5 1.933,0 3.5,-1.567 3.5,-3.5"
             style="fill:#ffffff;fill-opacity:1;fill-rule:nonzero;stroke:none"
             id="path106"
             inkscape:connector-curvature="0" /><path
             d="m 210.1665,314.5894 c 0,-1.933 -1.567,-3.5 -3.5,-3.5 -1.933,0 -3.5,1.567 -3.5,3.5 0,1.933 1.567,3.5 3.5,3.5 1.933,0 3.5,-1.567 3.5,-3.5 z"
             style="fill:none;stroke:#231f20;stroke-width:1;stroke-linecap:butt;stroke-linejoin:miter;stroke-miterlimit:4;stroke-dasharray:none;stroke-opacity:1"
             id="path110"
             inkscape:connector-curvature="0" /></g><g
           id="g4797"
           inkscape:export-xdpi="300"
           inkscape:export-ydpi="300"><path
             d="m 363.7578,275.54 c 0.667,9.667 9.334,76.001 47.667,77.334 38.333,1.333 45.333,-12.001 49.333,-20.667"
             style="fill:none;stroke:#231f20;stroke-width:1;stroke-linecap:butt;stroke-linejoin:miter;stroke-miterlimit:4;stroke-dasharray:none;stroke-opacity:1"
             id="path114"
             inkscape:connector-curvature="0" /><path
             d="m 462.7578,333.54 c 5,-2.333 33.666,-20.667 32.333,-34 -1.333,-13.333 -13.666,-27.666 -20.333,-32.333"
             style="fill:none;stroke:#231f20;stroke-width:1;stroke-linecap:butt;stroke-linejoin:miter;stroke-miterlimit:4;stroke-dasharray:none;stroke-opacity:1"
             id="path118"
             inkscape:connector-curvature="0" /><path
             d="m 461.4248,334.54 c -2,-7.667 2.059,-51.828 11.333,-66.667"
             style="fill:none;stroke:#231f20;stroke-width:1;stroke-linecap:butt;stroke-linejoin:miter;stroke-miterlimit:4;stroke-dasharray:none;stroke-opacity:1"
             id="path122"
             inkscape:connector-curvature="0" /><path
             d="m 473.4248,266.873 c -4,-8.666 -24.667,-30.332 -56,-26.666 -31.334,3.666 -52,19.666 -52.667,33.666"
             style="fill:none;stroke:#231f20;stroke-width:1;stroke-linecap:butt;stroke-linejoin:miter;stroke-miterlimit:4;stroke-dasharray:none;stroke-opacity:1"
             id="path126"
             inkscape:connector-curvature="0" /><path
             d="m 406.0908,315.207 c -12,0 -34.667,-2.666 -40.667,-39"
             style="fill:none;stroke:#231f20;stroke-width:1;stroke-linecap:butt;stroke-linejoin:miter;stroke-miterlimit:4;stroke-dasharray:none;stroke-opacity:1"
             id="path130"
             inkscape:connector-curvature="0" /><path
             d="m 407.0908,315.207 c 3.333,-5.334 8.818,-31.395 9.667,-37.334 1,-7 2.667,-31.666 -7.334,-32.333 -10,-0.667 -38.666,9.666 -42.333,28.333"
             style="fill:none;stroke:#231f20;stroke-width:1;stroke-linecap:butt;stroke-linejoin:miter;stroke-miterlimit:4;stroke-dasharray:none;stroke-opacity:1"
             id="path134"
             inkscape:connector-curvature="0" /><path
             d="m 367.2578,275.54 c 0,-1.933 -1.567,-3.5 -3.5,-3.5 -1.933,0 -3.5,1.567 -3.5,3.5 0,1.933 1.567,3.5 3.5,3.5 1.933,0 3.5,-1.567 3.5,-3.5"
             style="fill:#ffffff;fill-opacity:1;fill-rule:nonzero;stroke:none"
             id="path138"
             inkscape:connector-curvature="0" /><path
             d="m 367.2578,275.54 c 0,-1.933 -1.567,-3.5 -3.5,-3.5 -1.933,0 -3.5,1.567 -3.5,3.5 0,1.933 1.567,3.5 3.5,3.5 1.933,0 3.5,-1.567 3.5,-3.5 z"
             style="fill:none;stroke:#231f20;stroke-width:1;stroke-linecap:butt;stroke-linejoin:miter;stroke-miterlimit:4;stroke-dasharray:none;stroke-opacity:1"
             id="path142"
             inkscape:connector-curvature="0" /><path
             d="m 477.2578,268.207 c 0,-1.933 -1.567,-3.5 -3.5,-3.5 -1.933,0 -3.5,1.567 -3.5,3.5 0,1.933 1.567,3.5 3.5,3.5 1.933,0 3.5,-1.567 3.5,-3.5"
             style="fill:#ffffff;fill-opacity:1;fill-rule:nonzero;stroke:none"
             id="path146"
             inkscape:connector-curvature="0" /><path
             d="m 477.2578,268.207 c 0,-1.933 -1.567,-3.5 -3.5,-3.5 -1.933,0 -3.5,1.567 -3.5,3.5 0,1.933 1.567,3.5 3.5,3.5 1.933,0 3.5,-1.567 3.5,-3.5 z"
             style="fill:none;stroke:#231f20;stroke-width:1;stroke-linecap:butt;stroke-linejoin:miter;stroke-miterlimit:4;stroke-dasharray:none;stroke-opacity:1"
             id="path150"
             inkscape:connector-curvature="0" /><path
             d="m 464.2578,333.207 c 0,-1.933 -1.567,-3.5 -3.5,-3.5 -1.933,0 -3.5,1.567 -3.5,3.5 0,1.933 1.567,3.5 3.5,3.5 1.933,0 3.5,-1.567 3.5,-3.5"
             style="fill:#ffffff;fill-opacity:1;fill-rule:nonzero;stroke:none"
             id="path154"
             inkscape:connector-curvature="0" /><path
             d="m 464.2578,333.207 c 0,-1.933 -1.567,-3.5 -3.5,-3.5 -1.933,0 -3.5,1.567 -3.5,3.5 0,1.933 1.567,3.5 3.5,3.5 1.933,0 3.5,-1.567 3.5,-3.5 z"
             style="fill:none;stroke:#231f20;stroke-width:1;stroke-linecap:butt;stroke-linejoin:miter;stroke-miterlimit:4;stroke-dasharray:none;stroke-opacity:1"
             id="path158"
             inkscape:connector-curvature="0" /><path
             d="m 420.2578,277.873 c 0,-1.933 -1.567,-3.5 -3.5,-3.5 -1.933,0 -3.5,1.567 -3.5,3.5 0,1.933 1.567,3.5 3.5,3.5 1.933,0 3.5,-1.567 3.5,-3.5"
             style="fill:#ffffff;fill-opacity:1;fill-rule:nonzero;stroke:none"
             id="path162"
             inkscape:connector-curvature="0" /><path
             d="m 420.2578,277.873 c 0,-1.933 -1.567,-3.5 -3.5,-3.5 -1.933,0 -3.5,1.567 -3.5,3.5 0,1.933 1.567,3.5 3.5,3.5 1.933,0 3.5,-1.567 3.5,-3.5 z"
             style="fill:none;stroke:#231f20;stroke-width:1;stroke-linecap:butt;stroke-linejoin:miter;stroke-miterlimit:4;stroke-dasharray:none;stroke-opacity:1"
             id="path166"
             inkscape:connector-curvature="0" /><path
             d="m 410.5908,315.207 c 0,-1.933 -1.567,-3.5 -3.5,-3.5 -1.933,0 -3.5,1.567 -3.5,3.5 0,1.933 1.567,3.5 3.5,3.5 1.933,0 3.5,-1.567 3.5,-3.5"
             style="fill:#ffffff;fill-opacity:1;fill-rule:nonzero;stroke:none"
             id="path170"
             inkscape:connector-curvature="0" /><path
             d="m 410.5908,315.207 c 0,-1.933 -1.567,-3.5 -3.5,-3.5 -1.933,0 -3.5,1.567 -3.5,3.5 0,1.933 1.567,3.5 3.5,3.5 1.933,0 3.5,-1.567 3.5,-3.5 z"
             style="fill:none;stroke:#231f20;stroke-width:1;stroke-linecap:butt;stroke-linejoin:miter;stroke-miterlimit:4;stroke-dasharray:none;stroke-opacity:1"
             id="path174"
             inkscape:connector-curvature="0" /></g><g
           id="g4831"
           inkscape:export-xdpi="300"
           inkscape:export-ydpi="300"><path
             d="m 564,275.54 c 0.666,9.667 9.334,76.001 47.666,77.334 C 650,354.207 657,340.873 661,332.207"
             style="fill:none;stroke:#231f20;stroke-width:1;stroke-linecap:butt;stroke-linejoin:miter;stroke-miterlimit:4;stroke-dasharray:none;stroke-opacity:1"
             id="path178"
             inkscape:connector-curvature="0" /><path
             d="m 663,333.54 c 5,-2.333 33.666,-20.667 32.332,-34 C 694,286.207 681.666,271.874 675,267.207"
             style="fill:none;stroke:#231f20;stroke-width:1;stroke-linecap:butt;stroke-linejoin:miter;stroke-miterlimit:4;stroke-dasharray:none;stroke-opacity:1"
             id="path182"
             inkscape:connector-curvature="0" /><path
             d="m 661.666,334.54 c -2,-7.667 2.059,-51.828 11.334,-66.667"
             style="fill:none;stroke:#231f20;stroke-width:1;stroke-linecap:butt;stroke-linejoin:miter;stroke-miterlimit:4;stroke-dasharray:none;stroke-opacity:1"
             id="path186"
             inkscape:connector-curvature="0" /><path
             d="m 673.666,266.873 c -4,-8.666 -24.666,-30.332 -56,-26.666 -31.334,3.666 -52,19.666 -52.666,33.666"
             style="fill:none;stroke:#231f20;stroke-width:1;stroke-linecap:butt;stroke-linejoin:miter;stroke-miterlimit:4;stroke-dasharray:none;stroke-opacity:1"
             id="path190"
             inkscape:connector-curvature="0" /><path
             d="m 627.332,321.207 c -12,0 -34.666,-2.666 -40.666,-39"
             style="fill:none;stroke:#231f20;stroke-width:1;stroke-linecap:butt;stroke-linejoin:miter;stroke-miterlimit:4;stroke-dasharray:none;stroke-opacity:1"
             id="path194"
             inkscape:connector-curvature="0" /><path
             d="m 628.332,321.207 c 3.334,-5.334 8.818,-31.395 9.668,-37.334 1,-7 2.666,-31.666 -7.334,-32.333 -10,-0.667 -38.667,9.666 -42.334,28.333"
             style="fill:none;stroke:#231f20;stroke-width:1;stroke-linecap:butt;stroke-linejoin:miter;stroke-miterlimit:4;stroke-dasharray:none;stroke-opacity:1"
             id="path198"
             inkscape:connector-curvature="0" /><path
             d="m 567.4502,271.6748 c -0.89,-0.098 -1.817,0.146 -2.571,0.751 -1.507,1.211 -1.747,3.414 -0.536,4.92 0.76,0.947 1.913,1.394 3.038,1.295"
             style="fill:#ffffff;fill-opacity:1;fill-rule:nonzero;stroke:#231f20;stroke-width:1;stroke-linecap:butt;stroke-linejoin:miter;stroke-miterlimit:4;stroke-dasharray:none;stroke-opacity:1"
             id="path202"
             inkscape:connector-curvature="0" /><path
             d="m 677.5,268.207 c 0,-1.933 -1.567,-3.5 -3.5,-3.5 -1.934,0 -3.5,1.567 -3.5,3.5 0,1.933 1.566,3.5 3.5,3.5 1.933,0 3.5,-1.567 3.5,-3.5"
             style="fill:#ffffff;fill-opacity:1;fill-rule:nonzero;stroke:none"
             id="path206"
             inkscape:connector-curvature="0" /><path
             d="m 677.5,268.207 c 0,-1.933 -1.567,-3.5 -3.5,-3.5 -1.934,0 -3.5,1.567 -3.5,3.5 0,1.933 1.566,3.5 3.5,3.5 1.933,0 3.5,-1.567 3.5,-3.5 z"
             style="fill:none;stroke:#231f20;stroke-width:1;stroke-linecap:butt;stroke-linejoin:miter;stroke-miterlimit:4;stroke-dasharray:none;stroke-opacity:1"
             id="path210"
             inkscape:connector-curvature="0" /><path
             d="m 664.5,333.207 c 0,-1.933 -1.567,-3.5 -3.5,-3.5 -1.934,0 -3.5,1.567 -3.5,3.5 0,1.933 1.566,3.5 3.5,3.5 1.933,0 3.5,-1.567 3.5,-3.5"
             style="fill:#ffffff;fill-opacity:1;fill-rule:nonzero;stroke:none"
             id="path214"
             inkscape:connector-curvature="0" /><path
             d="m 664.5,333.207 c 0,-1.933 -1.567,-3.5 -3.5,-3.5 -1.934,0 -3.5,1.567 -3.5,3.5 0,1.933 1.566,3.5 3.5,3.5 1.933,0 3.5,-1.567 3.5,-3.5 z"
             style="fill:none;stroke:#231f20;stroke-width:1;stroke-linecap:butt;stroke-linejoin:miter;stroke-miterlimit:4;stroke-dasharray:none;stroke-opacity:1"
             id="path218"
             inkscape:connector-curvature="0" /><path
             d="m 641.5,283.873 c 0,-1.933 -1.567,-3.5 -3.5,-3.5 -1.934,0 -3.5,1.567 -3.5,3.5 0,1.933 1.566,3.5 3.5,3.5 1.933,0 3.5,-1.567 3.5,-3.5"
             style="fill:#ffffff;fill-opacity:1;fill-rule:nonzero;stroke:none"
             id="path222"
             inkscape:connector-curvature="0" /><path
             d="m 641.5,283.873 c 0,-1.933 -1.567,-3.5 -3.5,-3.5 -1.934,0 -3.5,1.567 -3.5,3.5 0,1.933 1.566,3.5 3.5,3.5 1.933,0 3.5,-1.567 3.5,-3.5 z"
             style="fill:none;stroke:#231f20;stroke-width:1;stroke-linecap:butt;stroke-linejoin:miter;stroke-miterlimit:4;stroke-dasharray:none;stroke-opacity:1"
             id="path226"
             inkscape:connector-curvature="0" /><path
             d="m 631.832,321.207 c 0,-1.933 -1.566,-3.5 -3.5,-3.5 -1.933,0 -3.5,1.567 -3.5,3.5 0,1.933 1.567,3.5 3.5,3.5 1.934,0 3.5,-1.567 3.5,-3.5"
             style="fill:#ffffff;fill-opacity:1;fill-rule:nonzero;stroke:none"
             id="path230"
             inkscape:connector-curvature="0" /><path
             d="m 631.832,321.207 c 0,-1.933 -1.566,-3.5 -3.5,-3.5 -1.933,0 -3.5,1.567 -3.5,3.5 0,1.933 1.567,3.5 3.5,3.5 1.934,0 3.5,-1.567 3.5,-3.5 z"
             style="fill:none;stroke:#231f20;stroke-width:1;stroke-linecap:butt;stroke-linejoin:miter;stroke-miterlimit:4;stroke-dasharray:none;stroke-opacity:1"
             id="path234"
             inkscape:connector-curvature="0" /><path
             d="m 586.1357,284.1182 c 0.662,0.091 1.357,-0.006 2.004,-0.319 1.738,-0.845 2.465,-2.939 1.62,-4.677 -0.421,-0.87 -1.156,-1.485 -2.002,-1.778"
             style="fill:#ffffff;fill-opacity:1;fill-rule:nonzero;stroke:#231f20;stroke-width:1;stroke-linecap:butt;stroke-linejoin:miter;stroke-miterlimit:4;stroke-dasharray:none;stroke-opacity:1"
             id="path238"
             inkscape:connector-curvature="0" /></g><path
           class="cls-1"
           d="m 540.70163,277.03682 3.02039,-2.07358 6.36377,4.52194 a 0.35379132,0.35379132 0 0 1 0.0444,0.53997 3.6301972,3.6301972 0 0 1 -4.65757,0.4093 z"
           id="path19672"
           style="fill:#2d3e50;stroke-width:0.140688" /><path
           class="cls-1"
           d="m 539.95949,269.6079 a 3.5366724,3.5366724 0 0 1 -0.1874,1.13911 c -0.0296,0.0838 -0.0592,0.16768 -0.0962,0.24903 a 3.520769,3.520769 0 0 1 -0.20465,0.40931 c -0.0493,0.0813 -0.0986,0.16025 -0.15287,0.23669 -0.0271,0.0395 -0.0567,0.0789 -0.0863,0.11836 l 0.79392,0.56215 5.44657,-3.87842 a 3.6299173,3.6299173 0 0 1 4.65757,0.40682 0.35657553,0.35657553 0 0 1 -0.0444,0.54244 l -7.09851,5.04467 -3.76007,2.67272 c 0.002,0.002 0.002,0.005 0.005,0.007 0.0394,0.0518 0.0789,0.10602 0.11588,0.16028 q 0.0666,0.0998 0.12575,0.19971 a 3.25455,3.25455 0 0 1 0.20218,0.40435 2.1678369,2.1678369 0 0 1 0.0962,0.24903 3.5108462,3.5108462 0 0 1 0.1874,1.13665 3.5517301,3.5517301 0 1 1 -5.46383,-2.99079 c 0.0222,-0.0296 0.0173,-0.0296 0.15781,-0.13068 0.0172,-0.0123 0.037,-0.0271 0.0592,-0.0419 l 0.002,-0.002 q 0.0592,-0.0444 0.15534,-0.11096 c 0.002,0 0.005,0 0.005,-0.005 0.0419,-0.0296 0.0863,-0.0641 0.14055,-0.0986 0.002,0 0.005,-0.005 0.005,-0.005 0.3501,-0.25394 0.95418,-0.68789 1.99713,-1.44484 -1.04295,-0.75695 -1.64703,-1.1909 -1.99714,-1.44485 -0.002,0 -0.005,-0.005 -0.005,-0.005 -0.0542,-0.0345 -0.0986,-0.069 -0.14054,-0.0986 -0.21697,-0.15533 -0.29834,-0.2145 -0.3378,-0.24409 a 0.11446765,0.11446765 0 0 0 -0.0172,-0.0173 c -0.01,-0.01 -0.0148,-0.0172 -0.0247,-0.0271 a 3.5522211,3.5522211 0 1 1 5.46383,-2.99326 z m -5.48848,9.66031 a 1.9355151,1.9355151 0 1 0 1.93551,-1.93551 1.9393405,1.9393405 0 0 0 -1.9355,1.9355 z m 0,-9.66031 a 1.9355151,1.9355151 0 1 0 1.93551,-1.93551 1.9372287,1.9372287 0 0 0 -1.9355,1.93551 z"
           id="path19674"
           style="fill:#2d3e50;stroke-width:0.140688" /></g></g></g></svg>
