<?xml version="1.0" encoding="UTF-8" standalone="no"?>
<svg
   xmlns:dc="http://purl.org/dc/elements/1.1/"
   xmlns:cc="http://creativecommons.org/ns#"
   xmlns:rdf="http://www.w3.org/1999/02/22-rdf-syntax-ns#"
   xmlns:svg="http://www.w3.org/2000/svg"
   xmlns="http://www.w3.org/2000/svg"
   xmlns:sodipodi="http://sodipodi.sourceforge.net/DTD/sodipodi-0.dtd"
   xmlns:inkscape="http://www.inkscape.org/namespaces/inkscape"
   inkscape:version="1.0.2-2 (e86c870879, 2021-01-15)"
   sodipodi:docname="ornure2.svg"
   viewBox="0 0 1052.6595 179.57161"
   height="179.57161"
   width="1052.6594"
   xml:space="preserve"
   id="svg2"
   version="1.1"><sodipodi:namedview
     inkscape:current-layer="g10"
     inkscape:window-maximized="1"
     inkscape:window-y="-9"
     inkscape:window-x="-9"
     inkscape:cy="209.00609"
     inkscape:cx="618.0108"
     inkscape:zoom="0.72090309"
     showgrid="false"
     id="namedview4"
     inkscape:window-height="1001"
     inkscape:window-width="1920"
     inkscape:pageshadow="2"
     inkscape:pageopacity="0"
     guidetolerance="10"
     gridtolerance="10"
     objecttolerance="10"
     borderopacity="1"
     bordercolor="#666666"
     pagecolor="#dfdfc2"
     inkscape:document-rotation="0"
     fit-margin-top="10"
     fit-margin-left="10"
     fit-margin-right="10"
     fit-margin-bottom="10" /><metadata
     id="metadata8"><rdf:RDF><cc:Work
         rdf:about=""><dc:format>image/svg+xml</dc:format><dc:type
           rdf:resource="http://purl.org/dc/dcmitype/StillImage" /><dc:title></dc:title></cc:Work></rdf:RDF></metadata><defs
     id="defs6" /><g
     id="g10"
     inkscape:groupmode="layer"
     inkscape:label="ornure2"
     transform="matrix(1.3333333,0,0,-1.3333333,-37.084869,491.70789)"><g
       id="g7341"
       transform="translate(-7.2825324,-77.511156)"
       inkscape:export-xdpi="1174"
       inkscape:export-ydpi="1174"><path
   d="m 115.77637,388.79541 c 5.87011,-14.78613 2.71972,-30.71094 -12.35352,-37.4541 m 2.4707,67.00195 c -19.68603,5.3208 -63.35839,2.64356 -56.37597,-26.84277 m 46.04394,-43.48877 c -25.15918,-17.31445 -2.66308,-28.30469 16.84082,-21.98047 27.37696,8.87695 46.14356,49.56201 29.64844,73.24219 -5.48242,7.86914 -13.3584,13.32422 -22.45605,16.15674 M 90.17139,362.36865 c 11.88427,-9.84961 15.39697,-23.3374 0.73095,-29.00342 m -6.56347,59.17579 c -17.24658,16.29101 -36.95069,-4.07276 -40.27002,-25.67627 -2.85889,-18.60889 7.19238,-38.14014 32.63379,-35.91553 m 13.86621,52.58203 C 103.35059,357.17822 64.74561,364.43018 55.13281,381.5127 m 76.14063,22.47314 C 118.55469,389.19238 63.56885,393.86475 83.23535,370.69775 m 54.10254,40.98682 c 4.62695,25.64502 -32.56641,15.42529 -23.58301,-12.06885"
   style="fill:none;stroke:#000000;stroke-width:2;stroke-linecap:round;stroke-linejoin:bevel;stroke-miterlimit:10;stroke-dasharray:none;stroke-opacity:1"
   id="path14"
   inkscape:connector-curvature="0" /><text
   y="-426.84082"
   x="103.74463"
   id="text24"
   style="font-variant:normal;font-weight:normal;font-size:18px;font-family:'Courier New';-inkscape-font-specification:CourierNewPSMT;writing-mode:lr-tb;fill:#000000;fill-opacity:1;stroke:none;stroke-width:1;stroke-linecap:butt;stroke-linejoin:miter;stroke-miterlimit:4;stroke-dasharray:none;stroke-opacity:1"
   transform="scale(1,-1)"><tspan
     style="fill:#000000;fill-opacity:1;stroke:none"
     id="tspan22"
     y="-426.84082"
     x="103.74463">ω</tspan></text>
</g><g
       id="g7385"
       transform="translate(-7.4804995,-84.277669)"
       inkscape:export-xdpi="1174"
       inkscape:export-ydpi="1174"><text
   transform="scale(1,-1)"
   id="text168"
   style="font-variant:normal;font-weight:normal;font-size:18px;font-family:'Courier New';-inkscape-font-specification:CourierNewPSMT;writing-mode:lr-tb;fill:#000000;fill-opacity:1;fill-rule:nonzero;stroke:none"
   x="364.07178"
   y="-374.31396"><tspan
     style="fill:#000000;fill-opacity:1"
     id="tspan166"
     y="-374.31396"
     x="364.07178">ώ</tspan></text>
<text
   transform="scale(1,-1)"
   id="text172"
   style="font-variant:normal;font-weight:normal;font-size:18px;font-family:'Courier New';-inkscape-font-specification:CourierNewPSMT;writing-mode:lr-tb;fill:#000000;fill-opacity:1;stroke:none;stroke-width:0.5;stroke-linecap:butt;stroke-linejoin:miter;stroke-miterlimit:4;stroke-dasharray:none;stroke-opacity:1"
   x="364.07178"
   y="-374.31396"><tspan
     style="fill:#000000;fill-opacity:1;stroke:none;stroke-opacity:1"
     id="tspan170"
     y="-374.31396"
     x="364.07178">ώ</tspan></text>
<text
   transform="scale(1,-1)"
   id="text176"
   style="font-variant:normal;font-weight:normal;font-size:18px;font-family:'Courier New';-inkscape-font-specification:CourierNewPSMT;writing-mode:lr-tb;fill:#000000;fill-opacity:1;fill-rule:nonzero;stroke:none"
   x="394.17627"
   y="-401.00635"><tspan
     style="fill:#000000;fill-opacity:1"
     id="tspan174"
     y="-401.00635"
     x="394.17627">ω</tspan></text>
<text
   transform="scale(1,-1)"
   id="text180"
   style="font-variant:normal;font-weight:normal;font-size:18px;font-family:'Courier New';-inkscape-font-specification:CourierNewPSMT;writing-mode:lr-tb;fill:#000000;fill-opacity:1;stroke:none;stroke-width:0.5;stroke-linecap:butt;stroke-linejoin:miter;stroke-miterlimit:4;stroke-dasharray:none;stroke-opacity:1"
   x="394.17627"
   y="-401.00635"><tspan
     style="fill:#000000;fill-opacity:1;stroke:none;stroke-opacity:1"
     id="tspan178"
     y="-401.00635"
     x="394.17627">ω</tspan></text>
<path
   d="m 387.06738,401.20166 c 5.86914,-14.78516 2.71875,-30.71094 -12.35351,-37.45312 m 2.4707,67.00195 c -19.68652,5.32031 -63.3584,2.64258 -56.37598,-26.84375 m 46.04297,-43.48828 c -25.1582,-17.31446 -2.66211,-28.30469 16.84082,-21.98047 27.37696,8.87695 46.14453,49.5625 29.64844,73.24219 -5.48242,7.86914 -13.35742,13.32421 -22.45508,16.15625 m -29.42383,-53.06055 c 11.88477,-9.84961 15.39649,-23.33789 0.73145,-29.00391 m -6.56445,59.17578 c -17.2461,16.29102 -36.9502,-4.07226 -40.26953,-25.67578 -2.85938,-18.60937 7.19238,-38.14062 32.63378,-35.91601 m 13.86622,52.58203 c 12.78222,-26.35352 -25.82325,-19.10156 -35.43555,-2.01856 m 76.13965,22.47364 c -12.71875,-14.79395 -67.7041,-10.1211 -48.03809,-33.28907 m 54.10254,40.98731 c 4.62695,25.64551 -32.56641,15.4248 -23.58203,-12.06934"
   style="fill:none;fill-opacity:1;stroke:#000000;stroke-width:2;stroke-linecap:round;stroke-linejoin:bevel;stroke-miterlimit:10;stroke-dasharray:none;stroke-opacity:1"
   id="path184"
   inkscape:connector-curvature="0" /><text
   y="-437.68359"
   x="372.85547"
   id="text190"
   style="font-variant:normal;font-weight:normal;font-size:18px;font-family:'Courier New';-inkscape-font-specification:CourierNewPSMT;writing-mode:lr-tb;fill:#000000;fill-opacity:1;fill-rule:nonzero;stroke:none"
   transform="scale(1,-1)"><tspan
     style="fill:#000000;fill-opacity:1"
     id="tspan188"
     y="-437.68359"
     x="372.85547">ω</tspan></text>
<text
   y="-437.68359"
   x="372.85547"
   id="text194"
   style="font-variant:normal;font-weight:normal;font-size:18px;font-family:'Courier New';-inkscape-font-specification:CourierNewPSMT;writing-mode:lr-tb;fill:#000000;fill-opacity:1;stroke:none;stroke-width:0.5;stroke-linecap:butt;stroke-linejoin:miter;stroke-miterlimit:4;stroke-dasharray:none;stroke-opacity:1"
   transform="scale(1,-1)"><tspan
     style="fill:#000000;fill-opacity:1;stroke:none;stroke-opacity:1"
     id="tspan192"
     y="-437.68359"
     x="372.85547">ω</tspan></text>
<text
   y="-421.0166"
   x="416.44531"
   id="text198"
   style="font-variant:normal;font-weight:normal;font-size:18px;font-family:'Courier New';-inkscape-font-specification:CourierNewPSMT;writing-mode:lr-tb;fill:#000000;fill-opacity:1;fill-rule:nonzero;stroke:none"
   transform="scale(1,-1)"><tspan
     style="fill:#000000;fill-opacity:1"
     id="tspan196"
     y="-421.0166"
     x="416.44531">ω</tspan></text>
<text
   y="-326.16992"
   x="349.20166"
   id="text206"
   style="font-variant:normal;font-weight:normal;font-size:18px;font-family:'Courier New';-inkscape-font-specification:CourierNewPSMT;writing-mode:lr-tb;fill:#000000;fill-opacity:1;fill-rule:nonzero;stroke:none"
   transform="scale(1,-1)"><tspan
     style="fill:#000000;fill-opacity:1"
     id="tspan204"
     y="-326.16992"
     x="349.20166">ώ</tspan></text>
<text
   y="-326.16992"
   x="349.20166"
   id="text210"
   style="font-variant:normal;font-weight:normal;font-size:18px;font-family:'Courier New';-inkscape-font-specification:CourierNewPSMT;writing-mode:lr-tb;fill:#000000;fill-opacity:1;stroke:none;stroke-width:0.5;stroke-linecap:butt;stroke-linejoin:miter;stroke-miterlimit:4;stroke-dasharray:none;stroke-opacity:1"
   transform="scale(1,-1)"><tspan
     style="fill:#000000;fill-opacity:1;stroke:none;stroke-opacity:1"
     id="tspan208"
     y="-326.16992"
     x="349.20166">ώ</tspan></text>
<text
   y="-350.29883"
   x="372.35547"
   id="text214"
   style="font-variant:normal;font-weight:normal;font-size:18px;font-family:'Courier New';-inkscape-font-specification:CourierNewPSMT;writing-mode:lr-tb;fill:#000000;fill-opacity:1;fill-rule:nonzero;stroke:none"
   transform="scale(1,-1)"><tspan
     style="fill:#000000;fill-opacity:1"
     id="tspan212"
     y="-350.29883"
     x="372.35547">ώ</tspan></text>
<text
   y="-350.29883"
   x="372.35547"
   id="text218"
   style="font-variant:normal;font-weight:normal;font-size:18px;font-family:'Courier New';-inkscape-font-specification:CourierNewPSMT;writing-mode:lr-tb;fill:#000000;fill-opacity:1;stroke:none;stroke-width:0.5;stroke-linecap:butt;stroke-linejoin:miter;stroke-miterlimit:4;stroke-dasharray:none;stroke-opacity:1"
   transform="scale(1,-1)"><tspan
     style="fill:#000000;fill-opacity:1;stroke:none;stroke-opacity:1"
     id="tspan216"
     y="-350.29883"
     x="372.35547">ώ</tspan></text>
<text
   y="-408.79883"
   x="351.06055"
   id="text222"
   style="font-variant:normal;font-weight:normal;font-size:18px;font-family:'Courier New';-inkscape-font-specification:CourierNewPSMT;writing-mode:lr-tb;fill:#000000;fill-opacity:1;fill-rule:nonzero;stroke:none"
   transform="scale(1,-1)"><tspan
     style="fill:#000000;fill-opacity:1"
     id="tspan220"
     y="-408.79883"
     x="351.06055">ώ</tspan></text>
<text
   y="-408.79883"
   x="351.06055"
   id="text226"
   style="font-variant:normal;font-weight:normal;font-size:18px;font-family:'Courier New';-inkscape-font-specification:CourierNewPSMT;writing-mode:lr-tb;fill:#000000;fill-opacity:1;stroke:none;stroke-width:0.5;stroke-linecap:butt;stroke-linejoin:miter;stroke-miterlimit:4;stroke-dasharray:none;stroke-opacity:1"
   transform="scale(1,-1)"><tspan
     style="fill:#000000;fill-opacity:1;stroke:none;stroke-opacity:1"
     id="tspan224"
     y="-408.79883"
     x="351.06055">ώ</tspan></text>
<text
   y="-392.63184"
   x="302.93262"
   id="text230"
   style="font-variant:normal;font-weight:normal;font-size:18px;font-family:'Courier New';-inkscape-font-specification:CourierNewPSMT;writing-mode:lr-tb;fill:#000000;fill-opacity:1;fill-rule:nonzero;stroke:none"
   transform="scale(1,-1)"><tspan
     style="fill:#000000;fill-opacity:1"
     id="tspan228"
     y="-392.63184"
     x="302.93262">ώ</tspan></text>
<text
   y="-392.63184"
   x="302.93262"
   id="text234"
   style="font-variant:normal;font-weight:normal;font-size:18px;font-family:'Courier New';-inkscape-font-specification:CourierNewPSMT;writing-mode:lr-tb;fill:#000000;fill-opacity:1;stroke:none;stroke-width:0.5;stroke-linecap:butt;stroke-linejoin:miter;stroke-miterlimit:4;stroke-dasharray:none;stroke-opacity:1"
   transform="scale(1,-1)"><tspan
     style="fill:#000000;fill-opacity:1;stroke:none;stroke-opacity:1"
     id="tspan232"
     y="-392.63184"
     x="302.93262">ώ</tspan></text>
</g><g
       id="g7223"
       style="stroke:#000000;stroke-opacity:1"
       transform="translate(-21.453901,-81.256776)"
       inkscape:export-xdpi="1174"
       inkscape:export-ydpi="1174"><path
         d="m 638.07106,401.00572 c 0,0 5.13823,-0.61604 8.89085,-0.63218"
         style="fill:none;stroke:#000000;stroke-width:1.5;stroke-linecap:butt;stroke-linejoin:miter;stroke-miterlimit:4;stroke-dasharray:none;stroke-opacity:1"
         id="path238"
         inkscape:connector-curvature="0"
         sodipodi:nodetypes="cc" /><path
         d="m 684.5,426.46387 c 0,-1.65625 -1.23145,-3 -2.75,-3 -1.51855,0 -2.75,1.34375 -2.75,3 0,1.65625 1.23145,3 2.75,3 1.51855,0 2.75,-1.34375 2.75,-3 z"
         style="fill:none;stroke:#000000;stroke-width:1;stroke-linecap:butt;stroke-linejoin:miter;stroke-miterlimit:4;stroke-dasharray:none;stroke-opacity:1"
         id="path240"
         inkscape:connector-curvature="0" /><path
         d="m 623.75,359.71387 c 0,-1.65625 -1.23145,-3 -2.75,-3 -1.51855,0 -2.75,1.34375 -2.75,3 0,1.65625 1.23145,3 2.75,3 1.51855,0 2.75,-1.34375 2.75,-3 z"
         style="fill:none;stroke:#000000;stroke-width:1;stroke-linecap:butt;stroke-linejoin:miter;stroke-miterlimit:4;stroke-dasharray:none;stroke-opacity:1"
         id="path242"
         inkscape:connector-curvature="0" /><path
         d="m 639.5,381.21387 c -2.5,-11.5 -9.5,-15.25 -16,-20.5"
         style="fill:none;stroke:#000000;stroke-width:1;stroke-linecap:round;stroke-linejoin:bevel;stroke-miterlimit:10;stroke-dasharray:none;stroke-opacity:1"
         id="path244"
         inkscape:connector-curvature="0" /><path
         d="m 642.25,384.21387 c 0,-1.65625 -1.23145,-3 -2.75,-3 -1.51855,0 -2.75,1.34375 -2.75,3 0,1.65625 1.23145,3 2.75,3 1.51855,0 2.75,-1.34375 2.75,-3 z"
         style="fill:none;stroke:#000000;stroke-width:1;stroke-linecap:butt;stroke-linejoin:miter;stroke-miterlimit:4;stroke-dasharray:none;stroke-opacity:1"
         id="path246"
         inkscape:connector-curvature="0" /><path
         d="m 691.33398,377.38086 c 0,-1.65625 -1.23242,-3 -2.75,-3 -1.51953,0 -2.75,1.34375 -2.75,3 0,1.65625 1.23047,3 2.75,3 1.51758,0 2.75,-1.34375 2.75,-3 z"
         style="fill:none;stroke:#000000;stroke-width:1;stroke-linecap:butt;stroke-linejoin:miter;stroke-miterlimit:4;stroke-dasharray:none;stroke-opacity:1"
         id="path248"
         inkscape:connector-curvature="0" /><path
         d="m 683,423.96387 c 4,-12.25 8.5,-28.75 6.25,-43.5"
         style="fill:none;stroke:#000000;stroke-width:1;stroke-linecap:round;stroke-linejoin:bevel;stroke-miterlimit:10;stroke-dasharray:none;stroke-opacity:1"
         id="path250"
         inkscape:connector-curvature="0" /><path
         d="m 623.75,359.71387 c 12.25,0.25 29.31934,-3.99414 38.25,-3.25 9,0.75 20,9.75 25.5,18.25"
         style="fill:none;stroke:#000000;stroke-width:1;stroke-linecap:round;stroke-linejoin:bevel;stroke-miterlimit:10;stroke-dasharray:none;stroke-opacity:1"
         id="path252"
         inkscape:connector-curvature="0" /><path
         d="m 621,356.71387 c 6.5,-9.25 16,-23.75 32.5,-20.25 16.5,3.5 35.16699,32.58398 35.08398,37.91699"
         style="fill:none;stroke:#000000;stroke-width:1;stroke-linecap:round;stroke-linejoin:bevel;stroke-miterlimit:10;stroke-dasharray:none;stroke-opacity:1"
         id="path254"
         inkscape:connector-curvature="0" /><path
         d="m 648.75,413.46387 c 0,-1.65625 -1.23145,-3 -2.75,-3 -1.51855,0 -2.75,1.34375 -2.75,3 0,1.65625 1.23145,3 2.75,3 1.51855,0 2.75,-1.34375 2.75,-3 z"
         style="fill:none;stroke:#000000;stroke-width:1;stroke-linecap:butt;stroke-linejoin:miter;stroke-miterlimit:4;stroke-dasharray:none;stroke-opacity:1"
         id="path256"
         inkscape:connector-curvature="0" /><path
         d="m 679,426.46387 c -8.25,-1.75 -22.75,-6.5 -31.25,-10.25"
         style="fill:none;stroke:#000000;stroke-width:1;stroke-linecap:round;stroke-linejoin:bevel;stroke-miterlimit:10;stroke-dasharray:none;stroke-opacity:1"
         id="path258"
         inkscape:connector-curvature="0" /><path
         d="m 645.25,410.46387 c -2.25,-6 -4.75,-13.75 -5.75,-23.25"
         style="fill:none;stroke:#000000;stroke-width:0.92475;stroke-linecap:round;stroke-linejoin:bevel;stroke-miterlimit:10;stroke-dasharray:none;stroke-opacity:1"
         id="path260"
         inkscape:connector-curvature="0" /><path
         d="m 643,414.46387 c -15,-0.25 -36.5,-2 -38,-14.75 -1.5,-12.75 3.75,-30.5 13,-38.75"
         style="fill:none;stroke:#000000;stroke-width:1;stroke-linecap:round;stroke-linejoin:bevel;stroke-miterlimit:10;stroke-dasharray:none;stroke-opacity:1"
         id="path262"
         inkscape:connector-curvature="0" /><path
         d="m 648,411.46387 c 15,-6 27.25,-17.5 32.75,-23.75 5.5,-6.25 3,-3.25 5.75,-7.75"
         style="fill:none;stroke:#000000;stroke-width:1;stroke-linecap:round;stroke-linejoin:bevel;stroke-miterlimit:10;stroke-dasharray:none;stroke-opacity:1"
         id="path264"
         inkscape:connector-curvature="0" /><path
         d="m 605.96191,372.87354 c 0,0 6,3 6,3"
         style="fill:none;stroke:#000000;stroke-width:1.74975;stroke-linecap:butt;stroke-linejoin:miter;stroke-miterlimit:4;stroke-dasharray:none;stroke-opacity:1"
         id="path266"
         inkscape:connector-curvature="0" /><path
         d="m 628.96191,369.37354 c 0,0 6,-4 6,-4"
         style="fill:none;stroke:#000000;stroke-width:1.5;stroke-linecap:butt;stroke-linejoin:miter;stroke-miterlimit:4;stroke-dasharray:none;stroke-opacity:1"
         id="path268"
         inkscape:connector-curvature="0" /><path
         d="m 637.46191,355.87354 c 0,0 2.5,7 2.5,7"
         style="fill:none;stroke:#000000;stroke-width:1.5;stroke-linecap:butt;stroke-linejoin:miter;stroke-miterlimit:4;stroke-dasharray:none;stroke-opacity:1"
         id="path270"
         inkscape:connector-curvature="0" /><path
         d="m 668.96191,349.87354 6.44259,-5.97129"
         style="fill:none;stroke:#000000;stroke-width:1.5;stroke-linecap:butt;stroke-linejoin:miter;stroke-miterlimit:4;stroke-dasharray:none;stroke-opacity:1"
         id="path272"
         inkscape:connector-curvature="0"
         sodipodi:nodetypes="cc" /></g><g
       id="g7242"
       style="stroke:#000000;stroke-opacity:1"
       transform="translate(-10.403664,-79.601675)"
       inkscape:export-xdpi="1174"
       inkscape:export-ydpi="1174"><path
         d="m 819.21191,427.57178 c 0,-1.65625 -1.23144,-3 -2.75,-3 -1.51855,0 -2.75,1.34375 -2.75,3 0,1.65625 1.23145,3 2.75,3 1.51856,0 2.75,-1.34375 2.75,-3 z"
         style="fill:none;stroke:#000000;stroke-width:1;stroke-linecap:butt;stroke-linejoin:miter;stroke-miterlimit:4;stroke-dasharray:none;stroke-opacity:1"
         id="path274"
         inkscape:connector-curvature="0" /><path
         d="m 731.71191,337.82178 c 0,-1.65625 -1.23144,-3 -2.75,-3 -1.51855,0 -2.75,1.34375 -2.75,3 0,1.65625 1.23145,3 2.75,3 1.51856,0 2.75,-1.34375 2.75,-3 z"
         style="fill:none;stroke:#000000;stroke-width:1;stroke-linecap:butt;stroke-linejoin:miter;stroke-miterlimit:4;stroke-dasharray:none;stroke-opacity:1"
         id="path276"
         inkscape:connector-curvature="0" /><path
         d="m 752.96191,377.82178 c 0,-1.65625 -1.23144,-3 -2.75,-3 -1.51855,0 -2.75,1.34375 -2.75,3 0,1.65625 1.23145,3 2.75,3 1.51856,0 2.75,-1.34375 2.75,-3 z"
         style="fill:none;stroke:#000000;stroke-width:1;stroke-linecap:butt;stroke-linejoin:miter;stroke-miterlimit:4;stroke-dasharray:none;stroke-opacity:1"
         id="path278"
         inkscape:connector-curvature="0" /><path
         d="m 819.71191,338.07178 c 0,-1.65625 -1.23242,-3 -2.75,-3 -1.51953,0 -2.75,1.34375 -2.75,3 0,1.65625 1.23047,3 2.75,3 1.51758,0 2.75,-1.34375 2.75,-3 z"
         style="fill:none;stroke:#000000;stroke-width:1;stroke-linecap:butt;stroke-linejoin:miter;stroke-miterlimit:4;stroke-dasharray:none;stroke-opacity:1"
         id="path280"
         inkscape:connector-curvature="0" /><path
         d="m 731.46191,427.57178 c 0,-1.65625 -1.23144,-3 -2.75,-3 -1.51855,0 -2.75,1.34375 -2.75,3 0,1.65625 1.23145,3 2.75,3 1.51856,0 2.75,-1.34375 2.75,-3 z"
         style="fill:none;stroke:#000000;stroke-width:1;stroke-linecap:butt;stroke-linejoin:miter;stroke-miterlimit:4;stroke-dasharray:none;stroke-opacity:1"
         id="path282"
         inkscape:connector-curvature="0" /><path
         d="m 730.46191,425.32178 c 0,0 84.5,-85.25 84.5,-85.25"
         style="fill:none;stroke:#000000;stroke-width:1;stroke-linecap:round;stroke-linejoin:bevel;stroke-miterlimit:10;stroke-dasharray:none;stroke-opacity:1"
         id="path284"
         inkscape:connector-curvature="0" /><path
         d="m 728.96191,334.82178 c 0,0 86.75,0 86.75,0"
         style="fill:none;stroke:#000000;stroke-width:1;stroke-linecap:round;stroke-linejoin:bevel;stroke-miterlimit:10;stroke-dasharray:none;stroke-opacity:1"
         id="path286"
         inkscape:connector-curvature="0" /><path
         d="m 728.96191,340.82178 c 0,0 86,-0.75 86,-0.75"
         style="fill:none;stroke:#000000;stroke-width:1;stroke-linecap:round;stroke-linejoin:bevel;stroke-miterlimit:10;stroke-dasharray:none;stroke-opacity:1"
         id="path288"
         inkscape:connector-curvature="0" /><path
         d="m 727.46191,424.57178 c 0,0 0.75,-83.5 0.75,-83.5"
         style="fill:none;stroke:#000000;stroke-width:1;stroke-linecap:round;stroke-linejoin:bevel;stroke-miterlimit:10;stroke-dasharray:none;stroke-opacity:1"
         id="path290"
         inkscape:connector-curvature="0" /><path
         d="m 731.46191,427.57178 c 0,0 82.75,0.75 82.75,0.75"
         style="fill:none;stroke:#000000;stroke-width:1;stroke-linecap:round;stroke-linejoin:bevel;stroke-miterlimit:10;stroke-dasharray:none;stroke-opacity:1"
         id="path292"
         inkscape:connector-curvature="0" /><path
         d="m 816.46191,424.57178 c 0,0 0.5,-83.5 0.5,-83.5"
         style="fill:none;stroke:#000000;stroke-width:1;stroke-linecap:round;stroke-linejoin:bevel;stroke-miterlimit:10;stroke-dasharray:none;stroke-opacity:1"
         id="path294"
         inkscape:connector-curvature="0" /><path
         d="m 728.71191,424.57178 c 0,0 20.25,-44.75 20.25,-44.75"
         style="fill:none;stroke:#000000;stroke-width:1;stroke-linecap:round;stroke-linejoin:bevel;stroke-miterlimit:10;stroke-dasharray:none;stroke-opacity:1"
         id="path296"
         inkscape:connector-curvature="0" /><path
         d="m 749.46191,374.57178 c 0,0 -20.5,-33.75 -20.5,-33.75"
         style="fill:none;stroke:#000000;stroke-width:1;stroke-linecap:round;stroke-linejoin:bevel;stroke-miterlimit:10;stroke-dasharray:none;stroke-opacity:1"
         id="path298"
         inkscape:connector-curvature="0" /><path
         d="m 771,343.77539 c 0,0 0,-12 0,-12"
         style="fill:none;stroke:#000000;stroke-width:1.5;stroke-linecap:round;stroke-linejoin:bevel;stroke-miterlimit:10;stroke-dasharray:none;stroke-opacity:1"
         id="path302"
         inkscape:connector-curvature="0" /><path
         d="m 737.5,363.77539 c 0,0 7,-5.5 7,-5.5"
         style="fill:none;stroke:#000000;stroke-width:1.5;stroke-linecap:round;stroke-linejoin:bevel;stroke-miterlimit:10;stroke-dasharray:none;stroke-opacity:1"
         id="path304"
         inkscape:connector-curvature="0" /><path
         d="m 723.5,383.77539 c 0,0 11.5,-0.5 11.5,-0.5"
         style="fill:none;stroke:#000000;stroke-width:1.5;stroke-linecap:round;stroke-linejoin:bevel;stroke-miterlimit:10;stroke-dasharray:none;stroke-opacity:1"
         id="path306"
         inkscape:connector-curvature="0" /><path
         d="m 738,392.27539 c 0,0 7,5 7,5"
         style="fill:none;stroke:#000000;stroke-width:1.5;stroke-linecap:round;stroke-linejoin:bevel;stroke-miterlimit:10;stroke-dasharray:none;stroke-opacity:1"
         id="path308"
         inkscape:connector-curvature="0" /></g><g
       id="g7514"
       transform="translate(-13.738037,-82.932546)"
       inkscape:export-xdpi="1174"
       inkscape:export-ydpi="1174"><text
   y="-397.91034"
   x="536.94971"
   id="text70"
   style="font-variant:normal;font-weight:normal;font-size:18px;font-family:'Courier New';-inkscape-font-specification:CourierNewPSMT;writing-mode:lr-tb;fill:none;stroke:none;stroke-width:0.5;stroke-linecap:butt;stroke-linejoin:miter;stroke-miterlimit:4;stroke-dasharray:none;stroke-opacity:1"
   transform="scale(1,-1)"><tspan
     style="stroke:none;stroke-opacity:1"
     id="tspan68"
     y="-397.91034"
     x="536.94971">ω</tspan></text>
<path
   d="m 529.84082,398.10565 c 5.86914,-14.78516 2.71875,-30.71094 -12.35352,-37.45312 m 2.47071,67.00195 c -19.68653,5.32031 -63.3584,2.64258 -56.37598,-26.84375 M 509.625,357.32245 c -25.1582,-17.31446 -2.66211,-28.30469 16.84082,-21.98047 27.37695,8.87695 46.14453,49.5625 29.64844,73.24219 -5.48242,7.86914 -13.35742,13.32421 -22.45508,16.15625 m -29.42383,-53.06055 c 11.88477,-9.84961 15.39649,-23.33789 0.73145,-29.00391 m -6.56446,59.17578 c -17.24609,16.29102 -36.95019,-4.07226 -40.26953,-25.67578 -2.85937,-18.60937 7.19239,-38.14062 32.63379,-35.91601 m 13.86621,52.58203 c 12.78223,-26.35352 -25.82324,-19.10156 -35.43554,-2.01856 m 76.13964,22.47364 c -12.71875,-14.79395 -67.7041,-10.1211 -48.03808,-33.28907 m 54.10254,40.98731 c 4.62695,25.64551 -32.56641,15.4248 -23.58203,-12.06934"
   style="fill:none;stroke:#535353;stroke-width:2;stroke-linecap:round;stroke-linejoin:bevel;stroke-miterlimit:10;stroke-dasharray:none;stroke-opacity:1"
   id="path74"
   inkscape:connector-curvature="0" /><text
   y="-389.53583"
   x="445.70605"
   id="text120"
   style="font-variant:normal;font-weight:normal;font-size:18px;font-family:'Courier New';-inkscape-font-specification:CourierNewPSMT;writing-mode:lr-tb;fill:#ffffff;fill-opacity:1;fill-rule:nonzero;stroke:none"
   transform="scale(1,-1)"><tspan
     id="tspan118"
     y="-389.53583"
     x="445.70605">ώ</tspan></text>
<text
   y="-389.53583"
   x="445.70605"
   id="text124"
   style="font-variant:normal;font-weight:normal;font-size:18px;font-family:'Courier New';-inkscape-font-specification:CourierNewPSMT;writing-mode:lr-tb;fill:#000000;fill-opacity:1;stroke:none;stroke-width:0.5;stroke-linecap:butt;stroke-linejoin:miter;stroke-miterlimit:4;stroke-dasharray:none;stroke-opacity:1"
   transform="scale(1,-1)"><tspan
     style="fill:#000000;fill-opacity:1;stroke:none;stroke-opacity:1"
     id="tspan122"
     y="-389.53583"
     x="445.70605">ώ</tspan></text>
<path
   d="m 502.96191,404.08905 c 0,0 6.5,-1 6.5,-1"
   style="fill:none;stroke:#000000;stroke-width:1.5;stroke-linecap:butt;stroke-linejoin:miter;stroke-miterlimit:4;stroke-dasharray:none;stroke-opacity:1"
   id="path128"
   inkscape:connector-curvature="0" /><path
   d="m 547,429.17938 c 0,-1.65625 -1.23145,-3 -2.75,-3 -1.51855,0 -2.75,1.34375 -2.75,3 0,1.65625 1.23145,3 2.75,3 1.51855,0 2.75,-1.34375 2.75,-3 z"
   style="fill:none;stroke:#000000;stroke-width:0.5;stroke-linecap:butt;stroke-linejoin:miter;stroke-miterlimit:4;stroke-dasharray:none;stroke-opacity:1"
   id="path130"
   inkscape:connector-curvature="0" /><path
   d="m 486.25,362.42938 c 0,-1.65625 -1.23145,-3 -2.75,-3 -1.51855,0 -2.75,1.34375 -2.75,3 0,1.65625 1.23145,3 2.75,3 1.51855,0 2.75,-1.34375 2.75,-3 z"
   style="fill:none;stroke:#000000;stroke-width:0.5;stroke-linecap:butt;stroke-linejoin:miter;stroke-miterlimit:4;stroke-dasharray:none;stroke-opacity:1"
   id="path132"
   inkscape:connector-curvature="0" /><path
   d="m 502,383.92938 c -2.5,-11.5 -9.5,-15.25 -16,-20.5"
   style="fill:none;stroke:#000000;stroke-width:0.5;stroke-linecap:round;stroke-linejoin:bevel;stroke-miterlimit:10;stroke-dasharray:none;stroke-opacity:1"
   id="path134"
   inkscape:connector-curvature="0" /><path
   d="m 504.75,386.92938 c 0,-1.65625 -1.23145,-3 -2.75,-3 -1.51855,0 -2.75,1.34375 -2.75,3 0,1.65625 1.23145,3 2.75,3 1.51855,0 2.75,-1.34375 2.75,-3 z"
   style="fill:none;stroke:#000000;stroke-width:0.5;stroke-linecap:butt;stroke-linejoin:miter;stroke-miterlimit:4;stroke-dasharray:none;stroke-opacity:1"
   id="path136"
   inkscape:connector-curvature="0" /><path
   d="m 553.83398,380.09637 c 0,-1.65625 -1.23242,-3 -2.75,-3 -1.51953,0 -2.75,1.34375 -2.75,3 0,1.65625 1.23047,3 2.75,3 1.51758,0 2.75,-1.34375 2.75,-3 z"
   style="fill:none;stroke:#000000;stroke-width:0.5;stroke-linecap:butt;stroke-linejoin:miter;stroke-miterlimit:4;stroke-dasharray:none;stroke-opacity:1"
   id="path138"
   inkscape:connector-curvature="0" /><path
   d="m 545.5,426.67938 c 4,-12.25 8.5,-28.75 6.25,-43.5"
   style="fill:none;stroke:#000000;stroke-width:0.5;stroke-linecap:round;stroke-linejoin:bevel;stroke-miterlimit:10;stroke-dasharray:none;stroke-opacity:1"
   id="path140"
   inkscape:connector-curvature="0" /><path
   d="m 486.25,362.42938 c 12.25,0.25 29.31934,-3.99414 38.25,-3.25 9,0.75 20,9.75 25.5,18.25"
   style="fill:none;stroke:#000000;stroke-width:0.5;stroke-linecap:round;stroke-linejoin:bevel;stroke-miterlimit:10;stroke-dasharray:none;stroke-opacity:1"
   id="path142"
   inkscape:connector-curvature="0" /><path
   d="m 483.5,359.42938 c 6.5,-9.25 16,-23.75 32.5,-20.25 16.5,3.5 35.16699,32.58399 35.08398,37.91699"
   style="fill:none;stroke:#000000;stroke-width:0.5;stroke-linecap:round;stroke-linejoin:bevel;stroke-miterlimit:10;stroke-dasharray:none;stroke-opacity:1"
   id="path144"
   inkscape:connector-curvature="0" /><path
   d="m 511.25,416.17938 c 0,-1.65625 -1.23145,-3 -2.75,-3 -1.51855,0 -2.75,1.34375 -2.75,3 0,1.65625 1.23145,3 2.75,3 1.51855,0 2.75,-1.34375 2.75,-3 z"
   style="fill:none;stroke:#000000;stroke-width:0.5;stroke-linecap:butt;stroke-linejoin:miter;stroke-miterlimit:4;stroke-dasharray:none;stroke-opacity:1"
   id="path146"
   inkscape:connector-curvature="0" /><path
   d="m 541.5,429.17938 c -8.25,-1.75 -22.75,-6.5 -31.25,-10.25"
   style="fill:none;stroke:#000000;stroke-width:0.5;stroke-linecap:round;stroke-linejoin:bevel;stroke-miterlimit:10;stroke-dasharray:none;stroke-opacity:1"
   id="path148"
   inkscape:connector-curvature="0" /><path
   d="m 507.75,413.17938 c -2.25,-6 -4.75,-13.75 -5.75,-23.25"
   style="fill:none;stroke:#000000;stroke-width:0.5;stroke-linecap:round;stroke-linejoin:bevel;stroke-miterlimit:10;stroke-dasharray:none;stroke-opacity:1"
   id="path150"
   inkscape:connector-curvature="0" /><path
   d="m 505.5,417.17938 c -15,-0.25 -36.5,-2 -38,-14.75 -1.5,-12.75 3.75,-30.5 13,-38.75"
   style="fill:none;stroke:#000000;stroke-width:0.5;stroke-linecap:round;stroke-linejoin:bevel;stroke-miterlimit:10;stroke-dasharray:none;stroke-opacity:1"
   id="path152"
   inkscape:connector-curvature="0" /><path
   d="m 510.5,414.17938 c 15,-6 27.25,-17.5 32.75,-23.75 5.5,-6.25 3,-3.25 5.75,-7.75"
   style="fill:none;stroke:#000000;stroke-width:0.5;stroke-linecap:round;stroke-linejoin:bevel;stroke-miterlimit:10;stroke-dasharray:none;stroke-opacity:1"
   id="path154"
   inkscape:connector-curvature="0" /><path
   d="m 468.46191,375.58905 c 0,0 6,3 6,3"
   style="fill:none;stroke:#000000;stroke-width:1.5;stroke-linecap:butt;stroke-linejoin:miter;stroke-miterlimit:4;stroke-dasharray:none;stroke-opacity:1"
   id="path156"
   inkscape:connector-curvature="0" /><path
   d="m 491.46191,372.08905 c 0,0 6,-4 6,-4"
   style="fill:none;stroke:#000000;stroke-width:1.5;stroke-linecap:butt;stroke-linejoin:miter;stroke-miterlimit:4;stroke-dasharray:none;stroke-opacity:1"
   id="path158"
   inkscape:connector-curvature="0" /><path
   d="m 499.96191,358.58905 c 0,0 2.5,7 2.5,7"
   style="fill:none;stroke:#000000;stroke-width:1.5;stroke-linecap:butt;stroke-linejoin:miter;stroke-miterlimit:4;stroke-dasharray:none;stroke-opacity:1"
   id="path160"
   inkscape:connector-curvature="0" /><path
   d="m 531.46191,352.58905 c 0,0 3.5,-4.5 3.5,-4.5"
   style="fill:none;stroke:#000000;stroke-width:1.5;stroke-linecap:butt;stroke-linejoin:miter;stroke-miterlimit:4;stroke-dasharray:none;stroke-opacity:1"
   id="path162"
   inkscape:connector-curvature="0" /><text
   transform="scale(1,-1)"
   y="-434.49963"
   x="513.96582"
   id="text202-1"
   style="font-variant:normal;font-weight:normal;font-size:18px;font-family:'Courier New';-inkscape-font-specification:CourierNewPSMT;writing-mode:lr-tb;fill:#000000;fill-opacity:1;stroke:none;stroke-width:0.5;stroke-linecap:butt;stroke-linejoin:miter;stroke-miterlimit:4;stroke-dasharray:none;stroke-opacity:1"><tspan
     style="fill:#000000;fill-opacity:1;stroke:none;stroke-width:0.5;stroke-opacity:1"
     id="tspan200-1"
     y="-434.49963"
     x="513.96582">ω</tspan></text>
<text
   transform="scale(1,-1)"
   y="-419.05106"
   x="555.16205"
   id="text202-9"
   style="font-variant:normal;font-weight:normal;font-size:18px;font-family:'Courier New';-inkscape-font-specification:CourierNewPSMT;writing-mode:lr-tb;fill:#000000;fill-opacity:1;stroke:none;stroke-width:0.5;stroke-linecap:butt;stroke-linejoin:miter;stroke-miterlimit:4;stroke-dasharray:none;stroke-opacity:1"><tspan
     style="fill:#000000;fill-opacity:1;stroke:none;stroke-width:0.5;stroke-opacity:1"
     id="tspan200-8"
     y="-419.05106"
     x="555.16205">ω</tspan></text>
<text
   transform="scale(1,-1)"
   y="-398.82077"
   x="536.40308"
   id="text202-4"
   style="font-variant:normal;font-weight:normal;font-size:18px;font-family:'Courier New';-inkscape-font-specification:CourierNewPSMT;writing-mode:lr-tb;fill:#000000;fill-opacity:1;stroke:none;stroke-width:0.5;stroke-linecap:butt;stroke-linejoin:miter;stroke-miterlimit:4;stroke-dasharray:none;stroke-opacity:1"><tspan
     style="fill:#000000;fill-opacity:1;stroke:none;stroke-width:0.5;stroke-opacity:1"
     id="tspan200-3"
     y="-398.82077"
     x="536.40308">ω</tspan></text>
<text
   transform="scale(1,-1)"
   y="-326.66364"
   x="487.48251"
   id="text124-3"
   style="font-variant:normal;font-weight:normal;font-size:18px;font-family:'Courier New';-inkscape-font-specification:CourierNewPSMT;writing-mode:lr-tb;fill:#000000;fill-opacity:1;stroke:none;stroke-width:0.5;stroke-linecap:butt;stroke-linejoin:miter;stroke-miterlimit:4;stroke-dasharray:none;stroke-opacity:1"><tspan
     style="fill:#000000;fill-opacity:1;stroke:none;stroke-width:0.5;stroke-opacity:1"
     id="tspan122-7"
     y="-326.66364"
     x="487.48251">ώ</tspan></text>
<text
   transform="scale(1,-1)"
   y="-347.62958"
   x="515.80493"
   id="text124-7"
   style="font-variant:normal;font-weight:normal;font-size:18px;font-family:'Courier New';-inkscape-font-specification:CourierNewPSMT;writing-mode:lr-tb;fill:#000000;fill-opacity:1;stroke:none;stroke-width:0.5;stroke-linecap:butt;stroke-linejoin:miter;stroke-miterlimit:4;stroke-dasharray:none;stroke-opacity:1"><tspan
     style="fill:#000000;fill-opacity:1;stroke:none;stroke-width:0.5;stroke-opacity:1"
     id="tspan122-8"
     y="-347.62958"
     x="515.80493">ώ</tspan></text>
<text
   transform="scale(1,-1)"
   y="-369.69901"
   x="509.55194"
   id="text124-5"
   style="font-variant:normal;font-weight:normal;font-size:18px;font-family:'Courier New';-inkscape-font-specification:CourierNewPSMT;writing-mode:lr-tb;fill:#000000;fill-opacity:1;stroke:none;stroke-width:0.5;stroke-linecap:butt;stroke-linejoin:miter;stroke-miterlimit:4;stroke-dasharray:none;stroke-opacity:1"><tspan
     style="fill:#000000;fill-opacity:1;stroke:none;stroke-width:0.5;stroke-opacity:1"
     id="tspan122-1"
     y="-369.69901"
     x="509.55194">ώ</tspan></text>
<text
   transform="scale(1,-1)"
   y="-404.64221"
   x="491.89642"
   id="text124-0"
   style="font-variant:normal;font-weight:normal;font-size:18px;font-family:'Courier New';-inkscape-font-specification:CourierNewPSMT;writing-mode:lr-tb;fill:#000000;fill-opacity:1;stroke:none;stroke-width:0.5;stroke-linecap:butt;stroke-linejoin:miter;stroke-miterlimit:4;stroke-dasharray:none;stroke-opacity:1"><tspan
     style="fill:#000000;fill-opacity:1;stroke:none;stroke-width:0.5;stroke-opacity:1"
     id="tspan122-79"
     y="-404.64221"
     x="491.89642">ώ</tspan></text>
</g><g
       id="g7352"
       transform="translate(-1.9082265,-80.059008)"
       inkscape:export-xdpi="1174"
       inkscape:export-ydpi="1174"><path
   d="m 245.77686,392.12549 c 5.86914,-14.78565 2.71875,-30.71143 -12.35352,-37.45361 m 2.4707,67.00146 c -19.68652,5.3208 -63.35888,2.64355 -56.37646,-26.84277 m 46.04394,-43.48877 c -25.15918,-17.31446 -2.66308,-28.30469 16.84034,-21.98047 27.37695,8.87695 46.14453,49.5625 29.64843,73.24219 -5.48242,7.86914 -13.35742,13.32421 -22.45508,16.15673 m -29.42382,-53.06103 c 11.88476,-9.84961 15.39648,-23.33789 0.73095,-29.00391 m -6.56347,59.17578 c -17.24658,16.29102 -36.95069,-4.07275 -40.27002,-25.67578 -2.85889,-18.60937 7.19238,-38.14062 32.63379,-35.91601 m 13.86621,52.58203 c 12.78222,-26.35352 -25.82324,-19.10156 -35.43604,-2.01856 m 76.14014,22.47315 c -12.71875,-14.79346 -67.7041,-10.1211 -48.0376,-33.28858 m 54.10205,40.98731 c 4.62696,25.64502 -32.5664,15.42529 -23.58203,-12.06885"
   style="fill:none;stroke:#000000;stroke-width:2;stroke-linecap:round;stroke-linejoin:bevel;stroke-miterlimit:10;stroke-dasharray:none;stroke-opacity:1"
   id="path28"
   inkscape:connector-curvature="0" /><text
   y="-428.60645"
   x="231.56494"
   id="text38"
   style="font-variant:normal;font-weight:normal;font-size:18px;font-family:'Courier New';-inkscape-font-specification:CourierNewPSMT;writing-mode:lr-tb;fill:#000000;fill-opacity:1;stroke:none;stroke-width:1;stroke-linecap:butt;stroke-linejoin:miter;stroke-miterlimit:4;stroke-dasharray:none;stroke-opacity:1"
   transform="scale(1,-1)"><tspan
     style="fill:#000000;fill-opacity:1;stroke:none"
     id="tspan36"
     y="-428.60645"
     x="231.56494">ω</tspan></text>
<text
   y="-411.93945"
   x="275.15479"
   id="text46"
   style="font-variant:normal;font-weight:normal;font-size:18px;font-family:'Courier New';-inkscape-font-specification:CourierNewPSMT;writing-mode:lr-tb;fill:#000000;stroke:none;stroke-width:1;stroke-linecap:butt;stroke-linejoin:miter;stroke-miterlimit:4;stroke-dasharray:none;stroke-opacity:1"
   transform="scale(1,-1)"><tspan
     style="fill:#000000;stroke:none;stroke-opacity:1"
     id="tspan44"
     y="-411.93945"
     x="275.15479">ω</tspan></text>
<text
   y="-390.24707"
   x="164.10352"
   id="text54"
   style="font-variant:normal;font-weight:normal;font-size:18px;font-family:'Courier New';-inkscape-font-specification:CourierNewPSMT;writing-mode:lr-tb;fill:#000000;fill-opacity:1;stroke:none;stroke-width:1;stroke-linecap:butt;stroke-linejoin:miter;stroke-miterlimit:4;stroke-dasharray:none;stroke-opacity:1"
   transform="scale(1,-1)"><tspan
     style="fill:#000000;fill-opacity:1;stroke:none"
     id="tspan52"
     y="-390.24707"
     x="164.10352">ώ</tspan></text>
<text
   transform="scale(1,-1)"
   y="-387.16882"
   x="253.03355"
   id="text54-5"
   style="font-variant:normal;font-weight:normal;font-size:18px;font-family:'Courier New';-inkscape-font-specification:CourierNewPSMT;writing-mode:lr-tb;fill:#000000;fill-opacity:1;stroke:none;stroke-width:1;stroke-linecap:butt;stroke-linejoin:miter;stroke-miterlimit:4;stroke-dasharray:none;stroke-opacity:1"><tspan
     style="fill:#000000;fill-opacity:1;stroke:none;stroke-width:1"
     id="tspan52-6"
     y="-387.16882"
     x="253.03355">ώ</tspan></text>
</g></g></svg>
