<?xml version="1.0" encoding="UTF-8" standalone="no"?>
<svg
   xmlns:dc="http://purl.org/dc/elements/1.1/"
   xmlns:cc="http://creativecommons.org/ns#"
   xmlns:rdf="http://www.w3.org/1999/02/22-rdf-syntax-ns#"
   xmlns:svg="http://www.w3.org/2000/svg"
   xmlns="http://www.w3.org/2000/svg"
   xmlns:sodipodi="http://sodipodi.sourceforge.net/DTD/sodipodi-0.dtd"
   xmlns:inkscape="http://www.inkscape.org/namespaces/inkscape"
   version="1.1"
   id="svg2"
   xml:space="preserve"
   width="567.26337"
   height="157.83499"
   viewBox="0 0 567.26336 157.835"
   sodipodi:docname="ornure1.svg"
   inkscape:version="1.0.2-2 (e86c870879, 2021-01-15)"><metadata
     id="metadata8"><rdf:RDF><cc:Work
         rdf:about=""><dc:format>image/svg+xml</dc:format><dc:type
           rdf:resource="http://purl.org/dc/dcmitype/StillImage" /><dc:title></dc:title></cc:Work></rdf:RDF></metadata><defs
     id="defs6" /><sodipodi:namedview
     pagecolor="#303030"
     bordercolor="#666666"
     borderopacity="1"
     objecttolerance="10"
     gridtolerance="10"
     guidetolerance="10"
     inkscape:pageopacity="0"
     inkscape:pageshadow="2"
     inkscape:window-width="1920"
     inkscape:window-height="1001"
     id="namedview4"
     showgrid="false"
     inkscape:zoom="1.4142136"
     inkscape:cx="278.48028"
     inkscape:cy="202.33864"
     inkscape:window-x="-9"
     inkscape:window-y="-9"
     inkscape:window-maximized="1"
     inkscape:current-layer="g10"
     inkscape:document-rotation="0"
     fit-margin-top="10"
     fit-margin-left="10"
     fit-margin-right="10"
     fit-margin-bottom="10" /><g
     id="g10"
     inkscape:groupmode="layer"
     inkscape:label="ornure1"
     transform="matrix(1.3333333,0,0,-1.3333333,-96.732736,981.64598)"><path
       inkscape:connector-curvature="0"
       id="path378"
       style="fill:none;stroke:#ffffff;stroke-width:2.00025;stroke-linecap:square;stroke-linejoin:miter;stroke-miterlimit:4;stroke-dasharray:none;stroke-opacity:1"
       d="m 165,670.05615 c 35.0835,5.41699 112.56787,19.21729 143.3374,7.67823"
       sodipodi:nodetypes="cc"
       inkscape:export-xdpi="1174"
       inkscape:export-ydpi="1174" /><path
       inkscape:connector-curvature="0"
       id="path380"
       style="fill:none;stroke:#ffffff;stroke-width:2.00025;stroke-linecap:square;stroke-linejoin:miter;stroke-miterlimit:4;stroke-dasharray:none;stroke-opacity:1"
       d="m 320.81836,672.60645 c 33.42069,-17.59329 168.53921,3.02405 168.53921,3.02405"
       sodipodi:nodetypes="cc"
       inkscape:export-xdpi="1174"
       inkscape:export-ydpi="1174" /><path
       inkscape:connector-curvature="0"
       id="path384"
       style="fill:none;stroke:#ffffff;stroke-width:2.00025;stroke-linecap:square;stroke-linejoin:miter;stroke-miterlimit:4;stroke-dasharray:none;stroke-opacity:1"
       d="m 194.33105,712.34961 c 7.69239,-15.38477 14.32081,-29.92285 14.32081,-29.92285"
       sodipodi:nodetypes="cc"
       inkscape:export-xdpi="1174"
       inkscape:export-ydpi="1174" /><path
       inkscape:connector-curvature="0"
       id="path386"
       style="fill:none;stroke:#ffffff;stroke-width:2.00025;stroke-linecap:square;stroke-linejoin:miter;stroke-miterlimit:4;stroke-dasharray:none;stroke-opacity:1"
       d="m 213.87598,671.07129 c 4.00341,-10.84961 7.37841,-30.5166 7.37841,-30.5166"
       sodipodi:nodetypes="cc"
       inkscape:export-xdpi="1174"
       inkscape:export-ydpi="1174" /><path
       inkscape:connector-curvature="0"
       id="path388"
       style="fill:none;stroke:#ffffff;stroke-width:2.00025;stroke-linecap:square;stroke-linejoin:miter;stroke-miterlimit:4;stroke-dasharray:none;stroke-opacity:1"
       d="m 255.86963,727.73438 c 0,-19.23047 1.28223,-40.45801 1.28223,-40.45801"
       sodipodi:nodetypes="cc"
       inkscape:export-xdpi="1174"
       inkscape:export-ydpi="1174" /><path
       inkscape:connector-curvature="0"
       id="path390"
       style="fill:none;stroke:#ffffff;stroke-width:2.00025;stroke-linecap:square;stroke-linejoin:miter;stroke-miterlimit:4;stroke-dasharray:none;stroke-opacity:1"
       d="m 258.54102,675.13965 c 2.56396,-17.94824 15.27734,-30.73828 15.27734,-30.73828"
       sodipodi:nodetypes="cc"
       inkscape:export-xdpi="1174"
       inkscape:export-ydpi="1174" /><path
       inkscape:connector-curvature="0"
       id="path392"
       style="fill:none;stroke:#ffffff;stroke-width:2.00025;stroke-linecap:square;stroke-linejoin:miter;stroke-miterlimit:4;stroke-dasharray:none;stroke-opacity:1"
       d="M 332.79297,717.47754 C 322.53613,694.40137 307.15186,668.75977 310.99805,640.55469"
       inkscape:export-xdpi="1174"
       inkscape:export-ydpi="1174" /><path
       inkscape:connector-curvature="0"
       id="path396"
       style="fill:#ffffff;fill-opacity:1;stroke:#ffffff;stroke-width:0.5;stroke-linecap:round;stroke-linejoin:miter;stroke-miterlimit:4;stroke-dasharray:none;stroke-opacity:1"
       d="m 443.77001,680.50668 c -0.52441,0.88574 -0.78613,1.75098 -0.78613,2.59668 0,0.37207 0.1123,0.68311 0.33691,0.93311 0.22461,0.25 0.53321,0.37548 0.92774,0.37548 0.38867,0 0.6914,-0.11669 0.9082,-0.35009 0.21875,-0.2334 0.32715,-0.54248 0.32715,-0.92823 0,-0.85888 -0.2627,-1.73437 -0.78613,-2.62695 0.37792,-0.75098 0.85839,-1.12598 1.44238,-1.12598 1.22949,0 1.84375,0.98243 1.84375,2.94776 0,1.80859 -0.54199,3.27246 -1.625,4.39062 0,0 0.18457,0.31787 0.18457,0.31787 2.31445,-1.00341 3.47168,-2.71679 3.47168,-5.13964 0,-1.19434 -0.28809,-2.13135 -0.86231,-2.81055 -0.57422,-0.6792 -1.3125,-1.01856 -2.21484,-1.01856 -1.25977,0 -2.16211,0.60303 -2.70898,1.80958 -0.55372,-1.20655 -1.45508,-1.80958 -2.70508,-1.80958 -0.94336,0 -1.73242,0.3379 -2.36817,1.01368 -0.63574,0.67578 -0.95312,1.58007 -0.95312,2.71289 0,1.27636 0.39941,2.46875 1.19824,3.57812 0.79883,1.10938 1.29785,1.66406 1.49609,1.66406 0.0615,0 0.25782,-0.11621 0.58985,-0.34863 0.33105,-0.23242 0.49707,-0.37939 0.49707,-0.44092 0,-0.0542 -0.0381,-0.13183 -0.11231,-0.23339 -1.15429,-1.55079 -1.73144,-2.92237 -1.73144,-4.11426 0,-0.77197 0.19238,-1.38477 0.57519,-1.83838 0.38477,-0.4541 0.8711,-0.68067 1.46094,-0.68067 0.62988,0 1.16113,0.375 1.59375,1.12598 z"
       inkscape:export-xdpi="1174"
       inkscape:export-ydpi="1174" /><path
       inkscape:connector-curvature="0"
       id="path398"
       style="fill:#ffffff;fill-opacity:1;stroke:#ffffff;stroke-width:0.5;stroke-linecap:round;stroke-linejoin:miter;stroke-miterlimit:4;stroke-dasharray:none;stroke-opacity:1"
       d="m 276.86523,704.33887 c 0,0 -0.38867,0 -0.38867,0 0,0 -0.72851,1.66308 -0.72851,1.66308 -0.2461,0.55371 -0.36914,0.97803 -0.36914,1.27246 0,0.40381 0.12304,0.71875 0.36914,0.94434 0.24609,0.22559 0.55371,0.33887 0.92285,0.33887 0.38183,0 0.69433,-0.1167 0.9375,-0.34912 0.24316,-0.23243 0.36426,-0.53711 0.36426,-0.91358 0,-0.3081 -0.12305,-0.73926 -0.36914,-1.29297 0,0 -0.73829,-1.66308 -0.73829,-1.66308 z m -0.54492,-7.68653 c -0.52343,0.88575 -0.78515,1.75098 -0.78515,2.59668 0,0.37207 0.11132,0.68311 0.33593,0.93311 0.22461,0.25 0.53516,0.37549 0.92969,0.37549 0.38672,0 0.68945,-0.1167 0.9082,-0.3501 0.2168,-0.2334 0.32618,-0.54248 0.32618,-0.92822 0,-0.85889 -0.26172,-1.73438 -0.78516,-2.62696 0.37695,-0.75097 0.85742,-1.12597 1.44141,-1.12597 1.22851,0 1.84375,0.98242 1.84375,2.94775 0,1.80859 -0.542,3.27246 -1.625,4.39063 0,0 0.18457,0.31787 0.18457,0.31787 2.31445,-1.00342 3.47168,-2.7168 3.47168,-5.13965 0,-1.19434 -0.28711,-2.13135 -0.86133,-2.81055 -0.5752,-0.6792 -1.31445,-1.01855 -2.2168,-1.01855 -1.25781,0 -2.16113,0.60302 -2.70801,1.80957 -0.55371,-1.20655 -1.45605,-1.80957 -2.70605,-1.80957 -0.94336,0 -1.73242,0.33789 -2.36719,1.01367 -0.63574,0.67578 -0.95312,1.58008 -0.95312,2.71289 0,1.27637 0.39941,2.46875 1.19824,3.57812 0.79883,1.10938 1.29785,1.66407 1.49609,1.66407 0.0615,0 0.25781,-0.11621 0.58887,-0.34864 0.33203,-0.23242 0.49805,-0.37939 0.49805,-0.44091 0,-0.0542 -0.0371,-0.13184 -0.11328,-0.2334 -1.1543,-1.55078 -1.73047,-2.92237 -1.73047,-4.11426 0,-0.77197 0.1914,-1.38477 0.57617,-1.83838 0.38281,-0.4541 0.86914,-0.68066 1.45898,-0.68066 0.63086,0 1.16211,0.375 1.59375,1.12597 z"
       inkscape:export-xdpi="1174"
       inkscape:export-ydpi="1174" /><path
       inkscape:connector-curvature="0"
       id="path400"
       style="fill:#ffffff;fill-opacity:1;stroke:#ffffff;stroke-width:0.5;stroke-linecap:round;stroke-linejoin:miter;stroke-miterlimit:4;stroke-dasharray:none;stroke-opacity:1"
       d="m 221.21826,689.47266 c -0.52441,0.88574 -0.78613,1.75097 -0.78613,2.59668 0,0.37207 0.1123,0.6831 0.33691,0.9331 0.22461,0.25 0.53321,0.37549 0.92774,0.37549 0.38867,0 0.6914,-0.1167 0.9082,-0.3501 0.21875,-0.2334 0.32715,-0.54248 0.32715,-0.92822 0,-0.85889 -0.2627,-1.73438 -0.78613,-2.62695 0.37793,-0.75098 0.85839,-1.12598 1.44238,-1.12598 1.22949,0 1.84375,0.98242 1.84375,2.94775 0,1.8086 -0.54199,3.27246 -1.625,4.39063 0,0 0.18457,0.31787 0.18457,0.31787 2.31445,-1.00342 3.47168,-2.7168 3.47168,-5.13965 0,-1.19433 -0.28809,-2.13135 -0.86231,-2.81055 -0.57421,-0.67919 -1.3125,-1.01855 -2.21484,-1.01855 -1.25977,0 -2.16211,0.60303 -2.70898,1.80957 -0.55371,-1.20654 -1.45508,-1.80957 -2.70508,-1.80957 -0.94336,0 -1.73242,0.33789 -2.36817,1.01367 -0.63574,0.67578 -0.95312,1.58008 -0.95312,2.71289 0,1.27637 0.39941,2.46875 1.19824,3.57813 0.79883,1.10937 1.29785,1.66406 1.49609,1.66406 0.0615,0 0.25782,-0.11621 0.58985,-0.34863 0.33105,-0.23242 0.49707,-0.3794 0.49707,-0.44092 0,-0.0542 -0.0381,-0.13184 -0.11231,-0.2334 -1.15429,-1.55078 -1.73144,-2.92236 -1.73144,-4.11426 0,-0.77197 0.19238,-1.38476 0.57519,-1.83838 0.38477,-0.4541 0.8711,-0.68066 1.46094,-0.68066 0.62988,0 1.16113,0.375 1.59375,1.12598 z"
       inkscape:export-xdpi="1174"
       inkscape:export-ydpi="1174" /><path
       inkscape:connector-curvature="0"
       id="path402"
       style="fill:#ffffff;fill-opacity:1;stroke:#ffffff;stroke-width:0.5;stroke-linecap:butt;stroke-linejoin:miter;stroke-miterlimit:4;stroke-dasharray:none;stroke-opacity:1"
       d="m 339.19873,688.41602 c 0,0 -0.38867,0 -0.38867,0 0,0 -0.72852,1.66308 -0.72852,1.66308 -0.24609,0.55371 -0.36914,0.97803 -0.36914,1.27246 0,0.40381 0.12305,0.71875 0.36914,0.94434 0.2461,0.22558 0.55371,0.33887 0.92285,0.33887 0.38184,0 0.69434,-0.1167 0.9375,-0.34913 0.24317,-0.23242 0.36426,-0.5371 0.36426,-0.91357 0,-0.30811 -0.12304,-0.73926 -0.36914,-1.29297 0,0 -0.73828,-1.66308 -0.73828,-1.66308 z m -0.54492,-7.68653 c -0.52344,0.88574 -0.78516,1.75098 -0.78516,2.59668 0,0.37207 0.11133,0.68311 0.33594,0.93311 0.22461,0.25 0.53516,0.37549 0.92969,0.37549 0.38672,0 0.68945,-0.1167 0.9082,-0.3501 0.2168,-0.2334 0.32617,-0.54248 0.32617,-0.92822 0,-0.85889 -0.26172,-1.73438 -0.78515,-2.62696 0.37695,-0.75097 0.85742,-1.12597 1.4414,-1.12597 1.22852,0 1.84375,0.98242 1.84375,2.94775 0,1.80859 -0.54199,3.27246 -1.625,4.39062 0,0 0.18457,0.31788 0.18457,0.31788 2.31446,-1.00342 3.47168,-2.7168 3.47168,-5.13965 0,-1.19434 -0.28711,-2.13135 -0.86133,-2.81055 -0.57519,-0.6792 -1.31445,-1.01855 -2.21679,-1.01855 -1.25782,0 -2.16114,0.60302 -2.70801,1.80957 -0.55371,-1.20655 -1.45606,-1.80957 -2.70606,-1.80957 -0.94335,0 -1.73242,0.33789 -2.36718,1.01367 -0.63574,0.67578 -0.95313,1.58008 -0.95313,2.71289 0,1.27637 0.39942,2.46875 1.19824,3.57812 0.79883,1.10938 1.29786,1.66407 1.4961,1.66407 0.0615,0 0.25781,-0.11622 0.58887,-0.34864 0.33203,-0.23242 0.49804,-0.37939 0.49804,-0.44092 0,-0.0542 -0.0371,-0.13183 -0.11328,-0.23339 -1.1543,-1.55078 -1.73047,-2.92237 -1.73047,-4.11426 0,-0.77197 0.19141,-1.38477 0.57617,-1.83838 0.38282,-0.4541 0.86914,-0.68066 1.45899,-0.68066 0.63086,0 1.16211,0.375 1.59375,1.12597 z"
       inkscape:export-xdpi="1174"
       inkscape:export-ydpi="1174" /><path
       inkscape:connector-curvature="0"
       id="path650"
       style="fill:none;stroke:#ffffff;stroke-width:2.00025;stroke-linecap:square;stroke-linejoin:miter;stroke-miterlimit:4;stroke-dasharray:none;stroke-opacity:1"
       d="m 428.54883,663.16992 c 2.56445,-17.94824 14.10254,-30.76855 14.10254,-30.76855"
       inkscape:export-xdpi="1174"
       inkscape:export-ydpi="1174" /><path
       inkscape:connector-curvature="0"
       id="path652"
       style="fill:none;stroke:#ffffff;stroke-width:2.00025;stroke-linecap:square;stroke-linejoin:miter;stroke-miterlimit:4;stroke-dasharray:none;stroke-opacity:1"
       d="m 426.03613,710.40088 c 0,-19.23047 1.28223,-33.33301 1.28223,-33.33301"
       inkscape:export-xdpi="1174"
       inkscape:export-ydpi="1174" /><path
       inkscape:connector-curvature="0"
       id="path656"
       style="fill:none;stroke:#ffffff;stroke-width:2.00025;stroke-linecap:square;stroke-linejoin:miter;stroke-miterlimit:4;stroke-dasharray:none;stroke-opacity:1"
       d="m 170.3335,713.38965 c -10.25684,-23.07617 -15.8462,-49.12842 -12,-77.3335"
       inkscape:export-xdpi="1174"
       inkscape:export-ydpi="1174" /><path
       inkscape:connector-curvature="0"
       id="path658"
       style="fill:none;stroke:#ffffff;stroke-width:2.00025;stroke-linecap:square;stroke-linejoin:miter;stroke-miterlimit:4;stroke-dasharray:none;stroke-opacity:1"
       d="m 149.6665,666.72314 c -16.6665,-4 -68.547727,-0.27283 -68.547727,-0.27283"
       inkscape:export-xdpi="1174"
       inkscape:export-ydpi="1174"
       sodipodi:nodetypes="cc" /><path
       inkscape:connector-curvature="0"
       id="path660"
       style="fill:#ffffff;fill-opacity:1;stroke:#ffffff;stroke-width:0.5;stroke-linecap:round;stroke-linejoin:miter;stroke-miterlimit:4;stroke-dasharray:none;stroke-opacity:1"
       d="m 170.33252,680.05615 c -0.52441,0.88574 -0.78613,1.75098 -0.78613,2.59668 0,0.37207 0.1123,0.68311 0.33691,0.93311 0.22461,0.25 0.5332,0.37549 0.92774,0.37549 0.38867,0 0.6914,-0.1167 0.9082,-0.3501 0.21875,-0.2334 0.32715,-0.54248 0.32715,-0.92822 0,-0.85889 -0.2627,-1.73438 -0.78614,-2.62696 0.37793,-0.75097 0.8584,-1.12597 1.44239,-1.12597 1.22949,0 1.84375,0.98242 1.84375,2.94775 0,1.80859 -0.542,3.27246 -1.625,4.39062 0,0 0.18457,0.31788 0.18457,0.31788 2.31445,-1.00342 3.47168,-2.7168 3.47168,-5.13965 0,-1.19434 -0.28809,-2.13135 -0.86231,-2.81055 -0.57422,-0.6792 -1.3125,-1.01855 -2.21484,-1.01855 -1.25977,0 -2.16211,0.60302 -2.70899,1.80957 -0.55371,-1.20655 -1.45507,-1.80957 -2.70507,-1.80957 -0.94336,0 -1.73243,0.33789 -2.36817,1.01367 -0.63574,0.67578 -0.95312,1.58008 -0.95312,2.71289 0,1.27637 0.39941,2.46875 1.19824,3.57812 0.79883,1.10938 1.29785,1.66407 1.49609,1.66407 0.0615,0 0.25782,-0.11622 0.58985,-0.34864 0.33105,-0.23242 0.49707,-0.37939 0.49707,-0.44091 0,-0.0542 -0.0381,-0.13184 -0.11231,-0.2334 -1.15429,-1.55078 -1.73144,-2.92237 -1.73144,-4.11426 0,-0.77197 0.19238,-1.38477 0.57519,-1.83838 0.38477,-0.4541 0.8711,-0.68066 1.46094,-0.68066 0.62988,0 1.16113,0.375 1.59375,1.12597 z"
       inkscape:export-xdpi="1174"
       inkscape:export-ydpi="1174" /><path
       inkscape:connector-curvature="0"
       id="path384-0"
       style="fill:none;stroke:#ffffff;stroke-width:2.00025;stroke-linecap:square;stroke-linejoin:miter;stroke-miterlimit:4;stroke-dasharray:none;stroke-opacity:1"
       d="m 90.161169,702.79113 c 7.69239,-15.38477 14.320811,-29.92285 14.320811,-29.92285"
       sodipodi:nodetypes="cc"
       inkscape:export-xdpi="1174"
       inkscape:export-ydpi="1174" /><path
       inkscape:connector-curvature="0"
       id="path384-1"
       style="fill:none;stroke:#ffffff;stroke-width:2.00025;stroke-linecap:square;stroke-linejoin:miter;stroke-miterlimit:4;stroke-dasharray:none;stroke-opacity:1"
       d="m 110.051,658.77373 c 7.69239,-15.38477 14.32081,-29.92285 14.32081,-29.92285"
       sodipodi:nodetypes="cc"
       inkscape:export-xdpi="1174"
       inkscape:export-ydpi="1174" /><path
       inkscape:connector-curvature="0"
       id="path660-9"
       style="fill:#ffffff;fill-opacity:1;stroke:#ffffff;stroke-width:0.5;stroke-linecap:round;stroke-linejoin:miter;stroke-miterlimit:4;stroke-dasharray:none;stroke-opacity:1"
       d="m 117.92474,674.62141 c -0.52441,0.88574 -0.78613,1.75098 -0.78613,2.59668 0,0.37207 0.1123,0.68311 0.33691,0.93311 0.22461,0.25 0.5332,0.37549 0.92774,0.37549 0.38867,0 0.6914,-0.1167 0.9082,-0.3501 0.21875,-0.2334 0.32715,-0.54248 0.32715,-0.92822 0,-0.85889 -0.2627,-1.73438 -0.78614,-2.62696 0.37793,-0.75097 0.8584,-1.12597 1.44239,-1.12597 1.22949,0 1.84375,0.98242 1.84375,2.94775 0,1.80859 -0.542,3.27246 -1.625,4.39062 0,0 0.18457,0.31788 0.18457,0.31788 2.31445,-1.00342 3.47168,-2.7168 3.47168,-5.13965 0,-1.19434 -0.28809,-2.13135 -0.86231,-2.81055 -0.57422,-0.6792 -1.3125,-1.01855 -2.21484,-1.01855 -1.25977,0 -2.16211,0.60302 -2.70899,1.80957 -0.55371,-1.20655 -1.45507,-1.80957 -2.70507,-1.80957 -0.94336,0 -1.73243,0.33789 -2.36817,1.01367 -0.63574,0.67578 -0.95312,1.58008 -0.95312,2.71289 0,1.27637 0.39941,2.46875 1.19824,3.57812 0.79883,1.10938 1.29785,1.66407 1.49609,1.66407 0.0615,0 0.25782,-0.11622 0.58985,-0.34864 0.33105,-0.23242 0.49707,-0.37939 0.49707,-0.44091 0,-0.0542 -0.0381,-0.13184 -0.11231,-0.2334 -1.15429,-1.55078 -1.73144,-2.92237 -1.73144,-4.11426 0,-0.77197 0.19238,-1.38477 0.57519,-1.83838 0.38477,-0.4541 0.8711,-0.68066 1.46094,-0.68066 0.62988,0 1.16113,0.375 1.59375,1.12597 z"
       inkscape:export-xdpi="1174"
       inkscape:export-ydpi="1174" /><path
       inkscape:connector-curvature="0"
       id="path650-1"
       style="fill:none;stroke:#ffffff;stroke-width:2.00025;stroke-linecap:square;stroke-linejoin:miter;stroke-miterlimit:4;stroke-dasharray:none;stroke-opacity:1"
       d="m 373.5071,657.53924 c 2.56445,-17.94824 14.10254,-30.76855 14.10254,-30.76855"
       inkscape:export-xdpi="1174"
       inkscape:export-ydpi="1174" /><path
       inkscape:connector-curvature="0"
       id="path652-9"
       style="fill:none;stroke:#ffffff;stroke-width:2.00025;stroke-linecap:square;stroke-linejoin:miter;stroke-miterlimit:4;stroke-dasharray:none;stroke-opacity:1"
       d="m 370.9944,704.7702 c 0,-19.23047 1.28223,-33.33301 1.28223,-33.33301"
       inkscape:export-xdpi="1174"
       inkscape:export-ydpi="1174" /><path
       inkscape:connector-curvature="0"
       id="path402-7"
       style="fill:#ffffff;fill-opacity:1;stroke:#ffffff;stroke-width:0.5;stroke-linecap:butt;stroke-linejoin:miter;stroke-miterlimit:4;stroke-dasharray:none;stroke-opacity:1"
       d="m 387.34604,684.42732 c 0,0 -0.38867,0 -0.38867,0 0,0 -0.72852,1.66308 -0.72852,1.66308 -0.24609,0.55371 -0.36914,0.97803 -0.36914,1.27246 0,0.40381 0.12305,0.71875 0.36914,0.94434 0.2461,0.22558 0.55371,0.33887 0.92285,0.33887 0.38184,0 0.69434,-0.1167 0.9375,-0.34913 0.24317,-0.23242 0.36426,-0.5371 0.36426,-0.91357 0,-0.30811 -0.12304,-0.73926 -0.36914,-1.29297 0,0 -0.73828,-1.66308 -0.73828,-1.66308 z m -0.54492,-7.68653 c -0.52344,0.88574 -0.78516,1.75098 -0.78516,2.59668 0,0.37207 0.11133,0.68311 0.33594,0.93311 0.22461,0.25 0.53516,0.37549 0.92969,0.37549 0.38672,0 0.68945,-0.1167 0.9082,-0.3501 0.2168,-0.2334 0.32617,-0.54248 0.32617,-0.92822 0,-0.85889 -0.26172,-1.73438 -0.78515,-2.62696 0.37695,-0.75097 0.85742,-1.12597 1.4414,-1.12597 1.22852,0 1.84375,0.98242 1.84375,2.94775 0,1.80859 -0.54199,3.27246 -1.625,4.39062 0,0 0.18457,0.31788 0.18457,0.31788 2.31446,-1.00342 3.47168,-2.7168 3.47168,-5.13965 0,-1.19434 -0.28711,-2.13135 -0.86133,-2.81055 -0.57519,-0.6792 -1.31445,-1.01855 -2.21679,-1.01855 -1.25782,0 -2.16114,0.60302 -2.70801,1.80957 -0.55371,-1.20655 -1.45606,-1.80957 -2.70606,-1.80957 -0.94335,0 -1.73242,0.33789 -2.36718,1.01367 -0.63574,0.67578 -0.95313,1.58008 -0.95313,2.71289 0,1.27637 0.39942,2.46875 1.19824,3.57812 0.79883,1.10938 1.29786,1.66407 1.4961,1.66407 0.0615,0 0.25781,-0.11622 0.58887,-0.34864 0.33203,-0.23242 0.49804,-0.37939 0.49804,-0.44092 0,-0.0542 -0.0371,-0.13183 -0.11328,-0.23339 -1.1543,-1.55078 -1.73047,-2.92237 -1.73047,-4.11426 0,-0.77197 0.19141,-1.38477 0.57617,-1.83838 0.38282,-0.4541 0.86914,-0.68066 1.45899,-0.68066 0.63086,0 1.16211,0.375 1.59375,1.12597 z"
       inkscape:export-xdpi="1174"
       inkscape:export-ydpi="1174" /></g></svg>
