<?xml version="1.0" encoding="UTF-8" standalone="no"?>
<svg
   xmlns:dc="http://purl.org/dc/elements/1.1/"
   xmlns:cc="http://creativecommons.org/ns#"
   xmlns:rdf="http://www.w3.org/1999/02/22-rdf-syntax-ns#"
   xmlns:svg="http://www.w3.org/2000/svg"
   xmlns="http://www.w3.org/2000/svg"
   xmlns:sodipodi="http://sodipodi.sourceforge.net/DTD/sodipodi-0.dtd"
   xmlns:inkscape="http://www.inkscape.org/namespaces/inkscape"
   version="1.1"
   id="svg2"
   xml:space="preserve"
   width="357.66669"
   height="246.679"
   viewBox="0 0 357.66668 246.679"
   sodipodi:docname="parure2.svg"
   inkscape:version="1.0.2-2 (e86c870879, 2021-01-15)"><metadata
     id="metadata8"><rdf:RDF><cc:Work
         rdf:about=""><dc:format>image/svg+xml</dc:format><dc:type
           rdf:resource="http://purl.org/dc/dcmitype/StillImage" /><dc:title></dc:title></cc:Work></rdf:RDF></metadata><defs
     id="defs6"><clipPath
       clipPathUnits="userSpaceOnUse"
       id="clipPath18"><path
         d="M 0,841.89 H 595.276 V 0 H 0 Z"
         id="path16"
         inkscape:connector-curvature="0" /></clipPath><clipPath
       clipPathUnits="userSpaceOnUse"
       id="clipPath40"><path
         d="M 0,841.89 H 595.276 V 0 H 0 Z"
         id="path38"
         inkscape:connector-curvature="0" /></clipPath><clipPath
       clipPathUnits="userSpaceOnUse"
       id="clipPath74"><path
         d="M 0,841.89 H 595.276 V 0 H 0 Z"
         id="path72"
         inkscape:connector-curvature="0" /></clipPath><clipPath
       clipPathUnits="userSpaceOnUse"
       id="clipPath110"><path
         d="M 0,841.89 H 595.276 V 0 H 0 Z"
         id="path108"
         inkscape:connector-curvature="0" /></clipPath></defs><sodipodi:namedview
     pagecolor="#ffffff"
     bordercolor="#666666"
     borderopacity="1"
     objecttolerance="10"
     gridtolerance="10"
     guidetolerance="10"
     inkscape:pageopacity="0"
     inkscape:pageshadow="2"
     inkscape:window-width="1920"
     inkscape:window-height="1001"
     id="namedview4"
     showgrid="true"
     inkscape:zoom="1.4417321"
     inkscape:cx="284.58726"
     inkscape:cy="92.318261"
     inkscape:window-x="-9"
     inkscape:window-y="-9"
     inkscape:window-maximized="1"
     inkscape:current-layer="g10"
     inkscape:document-rotation="0"
     fit-margin-top="10"
     fit-margin-left="10"
     fit-margin-right="10"
     fit-margin-bottom="10"><inkscape:grid
       type="xygrid"
       id="grid5228"
       originx="-204.0593"
       originy="-523.04572" /></sodipodi:namedview><g
     id="g10"
     inkscape:groupmode="layer"
     inkscape:label="parure2"
     transform="matrix(1.3333333,0,0,-1.3333333,-204.05931,599.47428)"><g
       id="g5160"
       transform="translate(1.7424908,-45.484617)"
       inkscape:transform-center-x="-4.1616607"
       inkscape:transform-center-y="-13.872202"
       inkscape:export-xdpi="300"
       inkscape:export-ydpi="300"><text
   y="-345.86719"
   x="248.1626"
   id="text24"
   style="font-variant:normal;font-weight:normal;font-stretch:normal;font-size:12px;font-family:'Myriad Pro';-inkscape-font-specification:MyriadPro-Regular;writing-mode:lr-tb;fill:#1a171b;fill-opacity:1;fill-rule:nonzero;stroke:none"
   transform="scale(1,-1)"><tspan
     id="tspan20"
     sodipodi:role="line"
     y="-345.86719"
     x="248.1626 254.3186 256.86261">2 3</tspan><tspan
     id="tspan22"
     sodipodi:role="line"
     y="-333.86719"
     x="248.1626 254.3186 256.86261">0 3</tspan></text>
<text
   y="-333.52142"
   x="234.3335"
   id="text46"
   style="font-variant:normal;font-weight:normal;font-stretch:normal;font-size:12px;font-family:'Times New Roman';-inkscape-font-specification:TimesNewRomanPSMT;writing-mode:lr-tb;fill:#1a171b;fill-opacity:1;fill-rule:nonzero;stroke:none"
   transform="scale(1,-1)"><tspan
     id="tspan42"
     y="-348.55569"
     x="234.3335">s</tspan><tspan
     y="-333.52423"
     id="tspan44"
     sodipodi:role="line"
     x="234.3335">s'</tspan></text>
<text
   y="-361.22769"
   x="247.3295"
   id="text52"
   style="font-variant:normal;font-weight:normal;font-stretch:normal;font-size:12px;font-family:'Times New Roman';-inkscape-font-specification:TimesNewRomanPSMT;writing-mode:lr-tb;fill:#1a171b;fill-opacity:1;fill-rule:nonzero;stroke:none"
   transform="scale(1,-1)"><tspan
     id="tspan48"
     y="-361.22769"
     x="247.3295">ω</tspan><tspan
     id="tspan50"
     y="-361.56369"
     x="257.6615">ώ</tspan></text>
<path
   inkscape:connector-curvature="0"
   id="path32"
   style="fill:none;stroke:#1a171b;stroke-width:1;stroke-linecap:butt;stroke-linejoin:miter;stroke-miterlimit:4;stroke-dasharray:none;stroke-opacity:1"
   d="m 235.6665,357.8896 h 36.667" /><path
   inkscape:connector-curvature="0"
   id="path28"
   style="fill:none;stroke:#1a171b;stroke-width:1;stroke-linecap:butt;stroke-linejoin:miter;stroke-miterlimit:4;stroke-dasharray:none;stroke-opacity:1"
   d="m 244.666,365.5557 v -32.333" /></g><g
       id="g5147"
       transform="translate(-111.32443,-44.563019)"
       inkscape:export-xdpi="300"
       inkscape:export-ydpi="300"><text
   y="-347.29568"
   x="434.2775"
   id="text58"
   style="font-variant:normal;font-weight:normal;font-stretch:normal;font-size:12px;font-family:'Myriad Pro';-inkscape-font-specification:MyriadPro-Regular;writing-mode:lr-tb;fill:#1a171b;fill-opacity:1;fill-rule:nonzero;stroke:none"
   transform="scale(1,-1)"><tspan
     id="tspan54"
     sodipodi:role="line"
     y="-347.29568"
     x="434.2775 440.4335 442.97751">3 0</tspan><tspan
     y="-332.29568"
     id="tspan56"
     sodipodi:role="line"
     x="434.2775">3 2</tspan></text>
<text
   y="-332.85443"
   x="419.3335"
   id="text80"
   style="font-variant:normal;font-weight:normal;font-stretch:normal;font-size:12px;font-family:'Times New Roman';-inkscape-font-specification:TimesNewRomanPSMT;writing-mode:lr-tb;fill:#1a171b;fill-opacity:1;fill-rule:nonzero;stroke:none"
   transform="scale(1,-1)"><tspan
     id="tspan76"
     y="-347.8887"
     x="419.3335">s</tspan><tspan
     y="-332.85724"
     id="tspan78"
     sodipodi:role="line"
     x="419.3335">s'</tspan></text>
<text
   y="-360.5607"
   x="432.3295"
   id="text86"
   style="font-variant:normal;font-weight:normal;font-stretch:normal;font-size:12px;font-family:'Times New Roman';-inkscape-font-specification:TimesNewRomanPSMT;writing-mode:lr-tb;fill:#1a171b;fill-opacity:1;fill-rule:nonzero;stroke:none"
   transform="scale(1,-1)"><tspan
     id="tspan82"
     y="-360.5607"
     x="432.3295">ω</tspan><tspan
     id="tspan84"
     y="-360.8967"
     x="442.6615">ώ</tspan></text>
<path
   inkscape:connector-curvature="0"
   id="path66"
   style="fill:none;stroke:#1a171b;stroke-width:1;stroke-linecap:butt;stroke-linejoin:miter;stroke-miterlimit:4;stroke-dasharray:none;stroke-opacity:1"
   d="m 420.666,357.2227 h 36.667" /><path
   inkscape:connector-curvature="0"
   id="path62"
   style="fill:none;stroke:#1a171b;stroke-width:1;stroke-linecap:butt;stroke-linejoin:miter;stroke-miterlimit:4;stroke-dasharray:none;stroke-opacity:1"
   d="m 429.666,364.8887 v -32.333" /></g><g
       id="g5202"
       transform="translate(1.0404152,-0.24739246)"
       inkscape:export-xdpi="300"
       inkscape:export-ydpi="300"><path
         d="m 220.4023,280.5928 3.695,39.654 -34.16,16.91 -27.305,-29.451 19.54,-32.084 z"
         style="fill:none;stroke:#e2001a;stroke-width:1.5;stroke-linecap:butt;stroke-linejoin:miter;stroke-miterlimit:4;stroke-dasharray:none;stroke-opacity:1"
         id="path90"
         inkscape:connector-curvature="0" /><path
         d="m 216.0801,282.1943 -21.398,22.297"
         style="fill:none;stroke:#006ab2;stroke-width:1.5;stroke-linecap:butt;stroke-linejoin:miter;stroke-miterlimit:4;stroke-dasharray:none;stroke-opacity:1"
         id="path94"
         inkscape:connector-curvature="0" /><path
         d="m 196.3242,305.8232 -31.16,1.578"
         style="fill:none;stroke:#006ab2;stroke-width:1.5;stroke-linecap:butt;stroke-linejoin:miter;stroke-miterlimit:4;stroke-dasharray:none;stroke-opacity:1"
         id="path98"
         inkscape:connector-curvature="0" /><path
         d="m 220.041,285.8486 -21.4,22.297"
         style="fill:none;stroke:#006ab2;stroke-width:1.5;stroke-linecap:butt;stroke-linejoin:miter;stroke-miterlimit:4;stroke-dasharray:none;stroke-opacity:1"
         id="path102"
         inkscape:connector-curvature="0" /><path
         d="m 214.502,281.9814 c 0.318,-1.977 2.182,-3.322 4.158,-2.998 1.979,0.322 3.324,2.187 3.004,4.166 -0.32,1.977 -2.183,3.318 -4.162,2.996 -1.979,-0.322 -3.32,-2.187 -3,-4.164"
         style="fill:#ffffff;fill-opacity:1;fill-rule:nonzero;stroke:none"
         id="path114"
         inkscape:connector-curvature="0" /><path
         d="m 214.502,281.9814 c 0.318,-1.977 2.182,-3.322 4.158,-2.998 1.979,0.322 3.324,2.187 3.004,4.166 -0.32,1.977 -2.183,3.318 -4.162,2.996 -1.979,-0.322 -3.32,-2.187 -3,-4.164 z"
         style="fill:none;stroke:#1a171b;stroke-width:1.5;stroke-linecap:butt;stroke-linejoin:miter;stroke-miterlimit:4;stroke-dasharray:none;stroke-opacity:1"
         id="path118"
         inkscape:connector-curvature="0" /><path
         d="m 178.5195,276.1396 c 0.32,-1.977 2.184,-3.322 4.158,-2.998 1.979,0.322 3.324,2.187 3.004,4.166 -0.318,1.977 -2.182,3.318 -4.162,2.996 -1.975,-0.322 -3.32,-2.187 -3,-4.164"
         style="fill:#ffffff;fill-opacity:1;fill-rule:nonzero;stroke:none"
         id="path122"
         inkscape:connector-curvature="0" /><path
         d="m 178.5195,276.1396 c 0.32,-1.977 2.184,-3.322 4.158,-2.998 1.979,0.322 3.324,2.187 3.004,4.166 -0.318,1.977 -2.182,3.318 -4.162,2.996 -1.975,-0.322 -3.32,-2.187 -3,-4.164 z"
         style="fill:none;stroke:#1a171b;stroke-width:1.5;stroke-linecap:butt;stroke-linejoin:miter;stroke-miterlimit:4;stroke-dasharray:none;stroke-opacity:1"
         id="path126"
         inkscape:connector-curvature="0" /><path
         d="m 218.8262,318.5127 c 0.32,-1.979 2.186,-3.322 4.164,-2.998 1.975,0.32 3.318,2.187 3,4.166 -0.32,1.977 -2.184,3.316 -4.16,2.996 -1.977,-0.322 -3.322,-2.187 -3.004,-4.164"
         style="fill:#ffffff;fill-opacity:1;fill-rule:nonzero;stroke:none"
         id="path130"
         inkscape:connector-curvature="0" /><path
         d="m 218.8262,318.5127 c 0.32,-1.979 2.186,-3.322 4.164,-2.998 1.975,0.32 3.318,2.187 3,4.166 -0.32,1.977 -2.184,3.316 -4.16,2.996 -1.977,-0.322 -3.322,-2.187 -3.004,-4.164 z"
         style="fill:none;stroke:#1a171b;stroke-width:1.5;stroke-linecap:butt;stroke-linejoin:miter;stroke-miterlimit:4;stroke-dasharray:none;stroke-opacity:1"
         id="path134"
         inkscape:connector-curvature="0" /><path
         d="m 187.7461,335.1494 c 0.32,-1.977 2.182,-3.318 4.16,-2.998 1.979,0.322 3.322,2.189 3.002,4.166 -0.32,1.978 -2.182,3.32 -4.16,2.998 -1.979,-0.322 -3.322,-2.187 -3.002,-4.166"
         style="fill:#ffffff;fill-opacity:1;fill-rule:nonzero;stroke:none"
         id="path138"
         inkscape:connector-curvature="0" /><path
         d="m 187.7461,335.1494 c 0.32,-1.977 2.182,-3.318 4.16,-2.998 1.979,0.322 3.322,2.189 3.002,4.166 -0.32,1.978 -2.182,3.32 -4.16,2.998 -1.979,-0.322 -3.322,-2.187 -3.002,-4.166 z"
         style="fill:none;stroke:#1a171b;stroke-width:1.5;stroke-linecap:butt;stroke-linejoin:miter;stroke-miterlimit:4;stroke-dasharray:none;stroke-opacity:1"
         id="path142"
         inkscape:connector-curvature="0" /><path
         d="m 161.0488,307.2178 c 0.32,-1.977 2.184,-3.32 4.162,-2.998 1.977,0.322 3.32,2.187 3,4.166 -0.32,1.977 -2.18,3.32 -4.158,2.998 -1.979,-0.324 -3.324,-2.187 -3.004,-4.166"
         style="fill:#ffffff;fill-opacity:1;fill-rule:nonzero;stroke:none"
         id="path146"
         inkscape:connector-curvature="0" /><path
         d="m 161.0488,307.2178 c 0.32,-1.977 2.184,-3.32 4.162,-2.998 1.977,0.322 3.32,2.187 3,4.166 -0.32,1.977 -2.18,3.32 -4.158,2.998 -1.979,-0.324 -3.324,-2.187 -3.004,-4.166 z"
         style="fill:none;stroke:#1a171b;stroke-width:1.5;stroke-linecap:butt;stroke-linejoin:miter;stroke-miterlimit:4;stroke-dasharray:none;stroke-opacity:1"
         id="path150"
         inkscape:connector-curvature="0" /><path
         d="m 193,304.8896 c 0.32,-1.977 2.184,-3.32 4.162,-2.998 1.979,0.322 3.322,2.189 3.002,4.166 -0.32,1.977 -2.182,3.318 -4.16,2.996 -1.979,-0.322 -3.324,-2.185 -3.004,-4.164"
         style="fill:#ffffff;fill-opacity:1;fill-rule:nonzero;stroke:none"
         id="path154"
         inkscape:connector-curvature="0" /><path
         d="m 193,304.8896 c 0.32,-1.977 2.184,-3.32 4.162,-2.998 1.979,0.322 3.322,2.189 3.002,4.166 -0.32,1.977 -2.182,3.318 -4.16,2.996 -1.979,-0.322 -3.324,-2.185 -3.004,-4.164 z"
         style="fill:none;stroke:#1a171b;stroke-width:1.5;stroke-linecap:butt;stroke-linejoin:miter;stroke-miterlimit:4;stroke-dasharray:none;stroke-opacity:1"
         id="path158"
         inkscape:connector-curvature="0" /><path
         d="m 210.0029,299.5957 -8.75,-7.25"
         style="fill:none;stroke:#006ab2;stroke-width:1.5;stroke-linecap:butt;stroke-linejoin:miter;stroke-miterlimit:4;stroke-dasharray:none;stroke-opacity:1"
         id="path162"
         inkscape:connector-curvature="0" /><path
         d="m 226.7529,302.3457 -7.75,0.25"
         style="fill:none;stroke:#e2001a;stroke-width:1.5;stroke-linecap:butt;stroke-linejoin:miter;stroke-miterlimit:4;stroke-dasharray:none;stroke-opacity:1"
         id="path166"
         inkscape:connector-curvature="0" /><path
         d="m 182.0029,310.0957 -0.25,-6.5"
         style="fill:none;stroke:#006ab2;stroke-width:1.5;stroke-linecap:butt;stroke-linejoin:miter;stroke-miterlimit:4;stroke-dasharray:none;stroke-opacity:1"
         id="path170"
         inkscape:connector-curvature="0" /><path
         d="m 174.7529,325.3457 5.25,-4.25"
         style="fill:none;stroke:#e2001a;stroke-width:1.5;stroke-linecap:butt;stroke-linejoin:miter;stroke-miterlimit:4;stroke-dasharray:none;stroke-opacity:1"
         id="path174"
         inkscape:connector-curvature="0" /><path
         d="m 210.0029,332.8457 -4.727,-7.184"
         style="fill:none;stroke:#e2001a;stroke-width:1.5;stroke-linecap:butt;stroke-linejoin:miter;stroke-miterlimit:4;stroke-dasharray:none;stroke-opacity:1"
         id="path178"
         inkscape:connector-curvature="0" /><path
         d="m 214.999,307.8887 c 0,-6.903 -10.334,-23 -21.667,-20 -4.004,1.06 -7.666,11.097 -7.666,18 0,6.903 6.191,14.667 10.333,14.667 4.142,0 19,-5.764 19,-12.667 z"
         style="fill:none;stroke:#1a171b;stroke-width:1;stroke-linecap:butt;stroke-linejoin:miter;stroke-miterlimit:4;stroke-dasharray:1, 2;stroke-dashoffset:0;stroke-opacity:1"
         id="path306"
         inkscape:connector-curvature="0" /></g><g
       id="g5178"
       transform="translate(0,1.5070877)"
       inkscape:export-xdpi="300"
       inkscape:export-ydpi="300"><path
         d="m 411.8125,322.3711 -42.223,-48.406 -23.119,62.095 z"
         style="fill:none;stroke:#e2001a;stroke-width:1.5;stroke-linecap:butt;stroke-linejoin:miter;stroke-miterlimit:4;stroke-dasharray:none;stroke-opacity:1"
         id="path246"
         inkscape:connector-curvature="0" /><path
         d="m 376.8633,312.2266 34.215,6.424"
         style="fill:none;stroke:#006ab2;stroke-width:1.5;stroke-linecap:butt;stroke-linejoin:miter;stroke-miterlimit:4;stroke-dasharray:none;stroke-opacity:1"
         id="path250"
         inkscape:connector-curvature="0" /><path
         d="m 391.17017,322.00042 1.59688,-10.71831"
         style="fill:none;stroke:#006ab2;stroke-width:1.5;stroke-linecap:butt;stroke-linejoin:miter;stroke-miterlimit:4;stroke-dasharray:none;stroke-opacity:1"
         id="path254"
         inkscape:connector-curvature="0"
         sodipodi:nodetypes="cc" /><path
         d="m 375.1797,313.25 -5.258,-38.281"
         style="fill:none;stroke:#006ab2;stroke-width:1.5;stroke-linecap:butt;stroke-linejoin:miter;stroke-miterlimit:4;stroke-dasharray:none;stroke-opacity:1"
         id="path258"
         inkscape:connector-curvature="0" /><path
         d="m 372.3984,314.1426 -4.4257,-37.8492"
         style="fill:none;stroke:#006ab2;stroke-width:1.5;stroke-linecap:butt;stroke-linejoin:miter;stroke-miterlimit:4;stroke-dasharray:none;stroke-opacity:1"
         id="path262"
         inkscape:connector-curvature="0"
         sodipodi:nodetypes="cc" /><path
         d="m 375.8223,316.6426 33.104,5.158"
         style="fill:none;stroke:#006ab2;stroke-width:1.5;stroke-linecap:butt;stroke-linejoin:miter;stroke-miterlimit:4;stroke-dasharray:none;stroke-opacity:1"
         id="path266"
         inkscape:connector-curvature="0" /><path
         d="m 377.61156,311.1208 -5.50705,-37.1699"
         style="fill:none;stroke:#006ab2;stroke-width:1.5;stroke-linecap:butt;stroke-linejoin:miter;stroke-miterlimit:4;stroke-dasharray:none;stroke-opacity:1"
         id="path270"
         inkscape:connector-curvature="0"
         sodipodi:nodetypes="cc" /><path
         d="m 367.0996,275.7031 c 0.492,1.762 2.266,2.807 3.963,2.338 1.697,-0.469 2.676,-2.275 2.185,-4.035 -0.492,-1.76 -2.265,-2.805 -3.962,-2.336 -1.698,0.469 -2.676,2.273 -2.186,4.033"
         style="fill:#ffffff;fill-opacity:1;fill-rule:nonzero;stroke:none"
         id="path274"
         inkscape:connector-curvature="0" /><path
         d="m 367.0996,275.7031 c 0.492,1.762 2.266,2.807 3.963,2.338 1.697,-0.469 2.676,-2.275 2.185,-4.035 -0.492,-1.76 -2.265,-2.805 -3.962,-2.336 -1.698,0.469 -2.676,2.273 -2.186,4.033 z"
         style="fill:none;stroke:#1a171b;stroke-width:1.5;stroke-linecap:butt;stroke-linejoin:miter;stroke-miterlimit:4;stroke-dasharray:none;stroke-opacity:1"
         id="path278"
         inkscape:connector-curvature="0" /><path
         d="m 344.3594,334.9395 c 0.49,1.76 2.264,2.807 3.961,2.338 1.699,-0.469 2.678,-2.277 2.187,-4.035 -0.492,-1.76 -2.265,-2.807 -3.964,-2.338 -1.698,0.469 -2.674,2.277 -2.184,4.035"
         style="fill:#ffffff;fill-opacity:1;fill-rule:nonzero;stroke:none"
         id="path282"
         inkscape:connector-curvature="0" /><path
         d="m 344.3594,334.9395 c 0.49,1.76 2.264,2.807 3.961,2.338 1.699,-0.469 2.678,-2.277 2.187,-4.035 -0.492,-1.76 -2.265,-2.807 -3.964,-2.338 -1.698,0.469 -2.674,2.277 -2.184,4.035 z"
         style="fill:none;stroke:#1a171b;stroke-width:1.5;stroke-linecap:butt;stroke-linejoin:miter;stroke-miterlimit:4;stroke-dasharray:none;stroke-opacity:1"
         id="path286"
         inkscape:connector-curvature="0" /><path
         d="m 406.7715,321.6484 c 0.49,1.756 2.264,2.803 3.963,2.334 1.696,-0.469 2.676,-2.275 2.185,-4.033 -0.492,-1.76 -2.265,-2.809 -3.962,-2.338 -1.7,0.469 -2.676,2.277 -2.186,4.037"
         style="fill:#ffffff;fill-opacity:1;fill-rule:nonzero;stroke:none"
         id="path290"
         inkscape:connector-curvature="0" /><path
         d="m 406.7715,321.6484 c 0.49,1.756 2.264,2.803 3.963,2.334 1.696,-0.469 2.676,-2.275 2.185,-4.033 -0.492,-1.76 -2.265,-2.809 -3.962,-2.338 -1.7,0.469 -2.676,2.277 -2.186,4.037 z"
         style="fill:none;stroke:#1a171b;stroke-width:1.5;stroke-linecap:butt;stroke-linejoin:miter;stroke-miterlimit:4;stroke-dasharray:none;stroke-opacity:1"
         id="path294"
         inkscape:connector-curvature="0" /><path
         d="m 372.3984,314.1426 c 0.49,1.758 2.264,2.803 3.965,2.334 1.695,-0.467 2.672,-2.275 2.181,-4.035 -0.49,-1.758 -2.265,-2.805 -3.96,-2.336 -1.7,0.471 -2.676,2.277 -2.186,4.037"
         style="fill:#ffffff;fill-opacity:1;fill-rule:nonzero;stroke:none"
         id="path298"
         inkscape:connector-curvature="0" /><path
         d="m 372.3984,314.1426 c 0.49,1.758 2.264,2.803 3.965,2.334 1.695,-0.467 2.672,-2.275 2.181,-4.035 -0.49,-1.758 -2.265,-2.805 -3.96,-2.336 -1.7,0.471 -2.676,2.277 -2.186,4.037 z"
         style="fill:none;stroke:#1a171b;stroke-width:1.5;stroke-linecap:butt;stroke-linejoin:miter;stroke-miterlimit:4;stroke-dasharray:none;stroke-opacity:1"
         id="path302"
         inkscape:connector-curvature="0" /><path
         d="m 391.999,311.7393 c 0,-6.903 -10.334,-23 -21.667,-20 -4.004,1.06 -7.666,11.097 -7.666,18 0,6.903 6.191,14.667 10.333,14.667 4.142,0 19,-5.764 19,-12.667 z"
         style="fill:none;stroke:#1a171b;stroke-width:1;stroke-linecap:butt;stroke-linejoin:miter;stroke-miterlimit:4;stroke-dasharray:1, 2;stroke-dashoffset:0;stroke-opacity:1"
         id="path310"
         inkscape:connector-curvature="0" /></g><g
       id="g5214"
       transform="translate(9,-0.51609135)"
       inkscape:export-xdpi="300"
       inkscape:export-ydpi="300"><path
         d="m 189.3125,433.0811 c -4.533,1.801 -8.318,2.887 -10.704,2.939 -12.561,0.268 -21.965,-11.173 -21.078,-22.878 0.106,-1.401 1.397,-4.489 3.494,-8.54"
         style="fill:none;stroke:#1a171b;stroke-width:1;stroke-linecap:butt;stroke-linejoin:miter;stroke-miterlimit:4;stroke-dasharray:none;stroke-opacity:1"
         id="path182"
         inkscape:connector-curvature="0" /><path
         d="m 226.5342,383.3369 c 7.75,2.656 13.153,7.412 11.116,15.434 -2.18,8.589 -23.691,22.789 -40.724,30.951"
         style="fill:none;stroke:#1a171b;stroke-width:2;stroke-linecap:butt;stroke-linejoin:miter;stroke-miterlimit:4;stroke-dasharray:none;stroke-opacity:1"
         id="path186"
         inkscape:connector-curvature="0" /><path
         d="m 196.1455,379.4912 c 8.62,0.771 14.245,0.832 19.816,1.531 0.958,0.119 1.913,0.258 2.859,0.418"
         style="fill:none;stroke:#1a171b;stroke-width:2;stroke-linecap:butt;stroke-linejoin:miter;stroke-miterlimit:4;stroke-dasharray:none;stroke-opacity:1"
         id="path190"
         inkscape:connector-curvature="0" /><path
         d="m 178.4385,377.3975 c 2.104,0.24 4.61,0.49 7.34,0.748"
         style="fill:none;stroke:#1a171b;stroke-width:1;stroke-linecap:butt;stroke-linejoin:miter;stroke-miterlimit:4;stroke-dasharray:none;stroke-opacity:1"
         id="path194"
         inkscape:connector-curvature="0" /><path
         d="m 207.4766,384.5771 c -1.796,9.361 -10.863,19.781 -17.444,22.445 -14.213,5.746 -37.774,-9.59 -36.967,-20.228 0.619,-8.172 8.605,-10.024 16.746,-9.983"
         style="fill:none;stroke:#1a171b;stroke-width:3;stroke-linecap:butt;stroke-linejoin:miter;stroke-miterlimit:4;stroke-dasharray:none;stroke-opacity:1"
         id="path198"
         inkscape:connector-curvature="0" /><path
         d="m 185.9922,402.4912 c -0.847,-11.334 5.153,-32.666 14.761,-31.721 2.961,0.291 4.51,2.959 5.624,4.92"
         style="fill:none;stroke:#1a171b;stroke-width:2;stroke-linecap:butt;stroke-linejoin:miter;stroke-miterlimit:4;stroke-dasharray:none;stroke-opacity:1"
         id="path202"
         inkscape:connector-curvature="0" /><path
         d="m 225.3301,416.8193 c 0.042,1.418 0.039,2.557 -0.019,3.318 -0.89,11.703 -12.351,24.594 -24.289,19.508 -4.359,-1.853 -13.484,-15.256 -14.48,-24.873 -0.057,-0.549 -0.115,-1.203 -0.172,-1.947"
         style="fill:none;stroke:#1a171b;stroke-width:2;stroke-linecap:butt;stroke-linejoin:miter;stroke-miterlimit:4;stroke-dasharray:none;stroke-opacity:1"
         id="path206"
         inkscape:connector-curvature="0" /><path
         d="m 164.6299,398.0576 c 4.182,-9.9 15.849,-42.566 35.74,-42.221 11.434,0.198 19.395,16.401 21.074,22.879 0.851,3.264 2.553,18.473 3.405,29.77"
         style="fill:none;stroke:#1a171b;stroke-width:3;stroke-linecap:butt;stroke-linejoin:miter;stroke-miterlimit:4;stroke-dasharray:none;stroke-opacity:1"
         id="path210"
         inkscape:connector-curvature="0" /><path
         inkscape:connector-curvature="0"
         id="path4791"
         d="m 230.45197,400.29975 a 34.073601,31.472561 0 0 0 -34.0736,-31.47256 34.073601,31.472561 0 0 0 -34.0736,31.47256 34.073601,31.472561 0 0 0 34.0736,31.47256 34.073601,31.472561 0 0 0 34.0736,-31.47256 z"
         style="opacity:1;vector-effect:none;fill:none;fill-opacity:1;stroke:#ff0000;stroke-width:0.75;stroke-linecap:butt;stroke-linejoin:miter;stroke-miterlimit:4;stroke-dasharray:0.75, 0.75;stroke-dashoffset:0;stroke-opacity:1" /><path
         inkscape:connector-curvature="0"
         id="path4791-6"
         d="m 216.82378,395.61787 a 18.624673,19.404982 0 0 0 -18.62468,-19.40499 18.624673,19.404982 0 0 0 -18.62467,19.40499 18.624673,19.404982 0 0 0 18.62467,19.40498 18.624673,19.404982 0 0 0 18.62468,-19.40498 z"
         style="opacity:1;vector-effect:none;fill:none;fill-opacity:1;stroke:#0000ff;stroke-width:0.435399;stroke-linecap:butt;stroke-linejoin:miter;stroke-miterlimit:4;stroke-dasharray:0.435399, 0.435399;stroke-dashoffset:0;stroke-opacity:1" /></g><g
       id="g5226"
       transform="translate(-7.5)"
       inkscape:export-xdpi="300"
       inkscape:export-ydpi="300"><path
         d="m 368.4756,433.2998 c -4.541,5.053 -9.609,8.566 -14.587,7.66 -12.899,-2.349 -17.46,-10.414 -15.292,-25.055 0.348,-2.339 6.123,-18.684 7.746,-21"
         style="fill:none;stroke:#1a171b;stroke-width:2;stroke-linecap:butt;stroke-linejoin:miter;stroke-miterlimit:4;stroke-dasharray:none;stroke-opacity:1"
         id="path214"
         inkscape:connector-curvature="0" /><path
         d="m 381.1338,414.0938 c -1.412,2.693 -3.221,5.956 -5.313,9.269"
         style="fill:none;stroke:#1a171b;stroke-width:1;stroke-linecap:butt;stroke-linejoin:miter;stroke-miterlimit:4;stroke-dasharray:none;stroke-opacity:1"
         id="path218"
         inkscape:connector-curvature="0" /><path
         d="m 335.3486,405.6064 c -16,-10 0.966,-41.483 15.333,-48.667 14.667,-7.333 31.642,3.052 37.036,12.721 l 2.332,5.543 c 0.446,1.508 0.768,3.074 0.95,4.686 0.952,8.389 -2.952,19.445 -4.86,24.373"
         style="fill:none;stroke:#1a171b;stroke-width:3;stroke-linecap:butt;stroke-linejoin:miter;stroke-miterlimit:4;stroke-dasharray:none;stroke-opacity:1"
         id="path222"
         inkscape:connector-curvature="0" /><path
         d="m 393.9033,372.6377 c 13.453,1.194 24.546,11.326 25.959,24.724 1.613,15.31 -10.463,29.928 -26.26,32.834 -14.921,2.744 -34.254,-5.256 -48.717,-17.732"
         style="fill:none;stroke:#1a171b;stroke-width:2;stroke-linecap:butt;stroke-linejoin:miter;stroke-miterlimit:4;stroke-dasharray:none;stroke-opacity:1"
         id="path226"
         inkscape:connector-curvature="0" /><path
         d="m 359.8008,377.7607 c 4.626,0.264 17.254,-2.827 24.19,-4.318"
         style="fill:none;stroke:#1a171b;stroke-width:2;stroke-linecap:butt;stroke-linejoin:miter;stroke-miterlimit:4;stroke-dasharray:none;stroke-opacity:1"
         id="path230"
         inkscape:connector-curvature="0" /><path
         d="m 391.4678,398.5938 c 2.789,2.42 3.65,5.379 3.5,7.5 -0.6,8.405 -22.104,4.402 -30.021,-0.437 -11.516,-7.042 -17.233,-18.703 -17.057,-23.101 0.078,-1.962 1.834,-3.913 4.744,-4.795"
         style="fill:none;stroke:#1a171b;stroke-width:3;stroke-linecap:butt;stroke-linejoin:miter;stroke-miterlimit:4;stroke-dasharray:none;stroke-opacity:1"
         id="path234"
         inkscape:connector-curvature="0" /><path
         d="m 370.3008,379.4268 c 1.673,3.127 4.162,5.582 7.796,8.479 3.176,2.53 5.062,4.552 8.037,6.855"
         style="fill:none;stroke:#1a171b;stroke-width:1;stroke-linecap:butt;stroke-linejoin:miter;stroke-miterlimit:4;stroke-dasharray:none;stroke-opacity:1"
         id="path238"
         inkscape:connector-curvature="0" /><path
         d="m 352.1338,385.5938 c 4.189,-7.417 6.654,-14.144 11.309,-15.326 2.248,-0.571 4.358,-0.007 5.025,2.826"
         style="fill:none;stroke:#1a171b;stroke-width:2;stroke-linecap:butt;stroke-linejoin:miter;stroke-miterlimit:4;stroke-dasharray:none;stroke-opacity:1"
         id="path242"
         inkscape:connector-curvature="0" /><path
         inkscape:connector-curvature="0"
         id="path4791-2"
         d="m 404.46142,397.43859 a 34.073601,31.472561 0 0 0 -34.0736,-31.47256 34.073601,31.472561 0 0 0 -34.0736,31.47256 34.073601,31.472561 0 0 0 34.0736,31.47256 34.073601,31.472561 0 0 0 34.0736,-31.47256 z"
         style="opacity:1;vector-effect:none;fill:none;fill-opacity:1;stroke:#ff0000;stroke-width:0.75;stroke-linecap:butt;stroke-linejoin:miter;stroke-miterlimit:4;stroke-dasharray:0.75, 0.75;stroke-dashoffset:0;stroke-opacity:1" /><path
         sodipodi:nodetypes="sssss"
         inkscape:connector-curvature="0"
         id="path4791-6-2"
         d="m 389.41979,404.12454 c 2.04801,-5.53074 -8.87609,-24.21691 -18.96715,-28.76873 -10.85824,-4.89787 -24.638,7.99828 -21.56819,19.40499 3.30375,12.27597 9.65641,19.40498 21.56819,19.40498 11.91178,0 16.01521,-2.06938 18.96715,-10.04124 z"
         style="opacity:1;vector-effect:none;fill:none;fill-opacity:1;stroke:#0000ff;stroke-width:0.468543;stroke-linecap:butt;stroke-linejoin:miter;stroke-miterlimit:4;stroke-dasharray:0.468543, 0.468543;stroke-dashoffset:0;stroke-opacity:1" /></g></g></svg>
