<?xml version="1.0" encoding="UTF-8" standalone="no"?>
<svg
   xmlns:dc="http://purl.org/dc/elements/1.1/"
   xmlns:cc="http://creativecommons.org/ns#"
   xmlns:rdf="http://www.w3.org/1999/02/22-rdf-syntax-ns#"
   xmlns:svg="http://www.w3.org/2000/svg"
   xmlns="http://www.w3.org/2000/svg"
   xmlns:sodipodi="http://sodipodi.sourceforge.net/DTD/sodipodi-0.dtd"
   xmlns:inkscape="http://www.inkscape.org/namespaces/inkscape"
   width="174.29951mm"
   height="84.173607mm"
   viewBox="0 0 174.29951 84.173607"
   version="1.1"
   id="svg6303"
   inkscape:version="1.0.2-2 (e86c870879, 2021-01-15)"
   sodipodi:docname="pliage.svg">
  <defs
     id="defs6297" />
  <sodipodi:namedview
     id="base"
     pagecolor="#ffffff"
     bordercolor="#666666"
     borderopacity="1.0"
     inkscape:pageopacity="0.0"
     inkscape:pageshadow="2"
     inkscape:zoom="2.6411544"
     inkscape:cx="436.53974"
     inkscape:cy="202.51268"
     inkscape:document-units="mm"
     inkscape:current-layer="layer1"
     showgrid="true"
     inkscape:snap-text-baseline="true"
     inkscape:snap-global="false"
     inkscape:window-width="1920"
     inkscape:window-height="1001"
     inkscape:window-x="-9"
     inkscape:window-y="-9"
     inkscape:window-maximized="1"
     inkscape:document-rotation="0"
     fit-margin-top="10.1"
     fit-margin-left="10.1"
     fit-margin-right="10.1"
     fit-margin-bottom="10.1">
    <inkscape:grid
       type="xygrid"
       id="grid7596"
       originx="-7.1495766"
       originy="-6.2896024" />
  </sodipodi:namedview>
  <metadata
     id="metadata6300">
    <rdf:RDF>
      <cc:Work
         rdf:about="">
        <dc:format>image/svg+xml</dc:format>
        <dc:type
           rdf:resource="http://purl.org/dc/dcmitype/StillImage" />
        <dc:title></dc:title>
      </cc:Work>
    </rdf:RDF>
  </metadata>
  <g
     inkscape:label="Calque 1"
     inkscape:groupmode="layer"
     id="layer1"
     transform="translate(-7.149577,-6.2896025)">
    <g
       id="g8078"
       transform="translate(9.5270215e-7,-0.8662945)"
       inkscape:export-xdpi="300"
       inkscape:export-ydpi="300">
      <path
         sodipodi:nodetypes="ccccccccccc"
         inkscape:connector-curvature="0"
         id="path7219"
         d="M 34.179292,17.255897 C 24.829319,17.25602 17.2497,24.835639 17.249576,34.185612 17.249413,43.535787 24.829117,51.115723 34.179292,51.115846 43.529467,51.115723 51.109171,43.535787 51.109008,34.185612 51.108884,24.835639 43.529265,17.25602 34.179292,17.255897 Z m 1.234453,3.042005 11.579752,9.29781 -4.060217,15.09572 -15.003221,-0.05183 -4.624917,-15.043855 z"
         clip-path="none"
         style="opacity:1;vector-effect:none;fill:#00ff00;fill-opacity:0.543569;stroke:none;stroke-width:0.529167;stroke-linecap:butt;stroke-linejoin:miter;stroke-miterlimit:4;stroke-dasharray:none;stroke-dashoffset:0;stroke-opacity:1" />
      <path
         sodipodi:nodetypes="ccccc"
         inkscape:connector-curvature="0"
         id="path7163-5"
         d="M 23.305001,29.066546 36.55692,32.939164 42.52451,44.58083 27.930059,44.6396 Z"
         style="fill:#0000ff;fill-opacity:0.543569;stroke:none;stroke-width:0.264583px;stroke-linecap:butt;stroke-linejoin:miter;stroke-opacity:1" />
      <path
         inkscape:connector-curvature="0"
         id="path7163"
         d="M 35.413852,20.297937 46.993497,29.595712 42.52451,44.58083 36.331521,33.490138 Z"
         style="fill:#ffff00;fill-opacity:0.543569;stroke:none;stroke-width:0.264583px;stroke-linecap:butt;stroke-linejoin:miter;stroke-opacity:1"
         sodipodi:nodetypes="ccccc" />
      <path
         sodipodi:nodetypes="cccc"
         inkscape:connector-curvature="0"
         id="path7044"
         d="M 23.945116,29.470159 35.413745,20.297902 36.55692,32.939164 Z"
         style="fill:#ff0000;fill-opacity:0.518672;stroke:none;stroke-width:0.264583px;stroke-linecap:butt;stroke-linejoin:miter;stroke-opacity:1" />
      <g
         id="g5806"
         transform="matrix(0.35277777,0,0,-0.35277777,-199.71599,197.28436)">
        <path
           d="m 687.7236,432.6938 h -42.428"
           style="fill:none;stroke:#a6958b;stroke-width:2;stroke-linecap:butt;stroke-linejoin:miter;stroke-miterlimit:4;stroke-dasharray:none;stroke-opacity:1"
           id="path1592"
           inkscape:connector-curvature="0" />
        <path
           sodipodi:nodetypes="cc"
           d="m 699.334,475.3379 -11.61,-42.644"
           style="fill:none;stroke:#231f20;stroke-width:2;stroke-linecap:butt;stroke-linejoin:miter;stroke-miterlimit:4;stroke-dasharray:none;stroke-opacity:1"
           id="path1608"
           inkscape:connector-curvature="0" />
        <path
           sodipodi:nodetypes="cc"
           d="M 666.5098,501.6938 699.334,473.8379"
           style="fill:none;stroke:#d63327;stroke-width:2;stroke-linecap:butt;stroke-linejoin:miter;stroke-miterlimit:4;stroke-dasharray:none;stroke-opacity:1"
           id="path1624"
           inkscape:connector-curvature="0" />
        <path
           d="m 632.1855,475.3379 34.324,26.356"
           style="fill:none;stroke:#18ad48;stroke-width:2;stroke-linecap:butt;stroke-linejoin:miter;stroke-miterlimit:4;stroke-dasharray:none;stroke-opacity:1"
           id="path1640"
           inkscape:connector-curvature="0" />
        <path
           d="m 645.2959,432.6938 -13.11,42.644"
           style="fill:none;stroke:#f18022;stroke-width:2;stroke-linecap:butt;stroke-linejoin:miter;stroke-miterlimit:4;stroke-dasharray:none;stroke-opacity:1"
           id="path1656"
           inkscape:connector-curvature="0" />
        <path
           sodipodi:nodetypes="cc"
           d="m 634,475.6938 35.75,-9.8334"
           style="fill:none;stroke:#df098f;stroke-width:2;stroke-linecap:butt;stroke-linejoin:miter;stroke-miterlimit:4;stroke-dasharray:none;stroke-opacity:1"
           id="path1672"
           inkscape:connector-curvature="0" />
        <path
           d="m 686.666,432.8604 -16,30.333"
           style="fill:none;stroke:#11b2ec;stroke-width:2;stroke-linecap:butt;stroke-linejoin:miter;stroke-miterlimit:4;stroke-dasharray:none;stroke-opacity:1"
           id="path1688"
           inkscape:connector-curvature="0" />
        <path
           d="M 669.75,465.8604 667,498.5274"
           style="fill:none;stroke:#872193;stroke-width:2;stroke-linecap:butt;stroke-linejoin:miter;stroke-miterlimit:4;stroke-dasharray:none;stroke-opacity:1"
           id="path1704"
           inkscape:connector-curvature="0" />
        <path
           d="m 636.833,476.8604 c 0,-1.749 -1.418,-3.167 -3.167,-3.167 -1.749,0 -3.167,1.418 -3.167,3.167 0,1.749 1.418,3.167 3.167,3.167 1.749,0 3.167,-1.418 3.167,-3.167"
           style="fill:#ffffff;fill-opacity:1;fill-rule:nonzero;stroke:none"
           id="path1720"
           inkscape:connector-curvature="0" />
        <path
           d="m 636.833,476.8604 c 0,-1.749 -1.418,-3.167 -3.167,-3.167 -1.749,0 -3.167,1.418 -3.167,3.167 0,1.749 1.418,3.167 3.167,3.167 1.749,0 3.167,-1.418 3.167,-3.167 z"
           style="fill:none;stroke:#231f20;stroke-width:1;stroke-linecap:butt;stroke-linejoin:miter;stroke-miterlimit:4;stroke-dasharray:none;stroke-opacity:1"
           id="path1724"
           inkscape:connector-curvature="0" />
        <path
           d="m 701.833,474.1938 c 0,-1.749 -1.418,-3.167 -3.167,-3.167 -1.749,0 -3.167,1.418 -3.167,3.167 0,1.749 1.418,3.167 3.167,3.167 1.749,0 3.167,-1.418 3.167,-3.167"
           style="fill:#ffffff;fill-opacity:1;fill-rule:nonzero;stroke:none"
           id="path1740"
           inkscape:connector-curvature="0" />
        <path
           d="m 701.833,474.1938 c 0,-1.749 -1.418,-3.167 -3.167,-3.167 -1.749,0 -3.167,1.418 -3.167,3.167 0,1.749 1.418,3.167 3.167,3.167 1.749,0 3.167,-1.418 3.167,-3.167 z"
           style="fill:none;stroke:#231f20;stroke-width:1;stroke-linecap:butt;stroke-linejoin:miter;stroke-miterlimit:4;stroke-dasharray:none;stroke-opacity:1"
           id="path1744"
           inkscape:connector-curvature="0" />
        <path
           d="m 670.166,500.5273 c 0,-1.749 -1.418,-3.167 -3.167,-3.167 -1.749,0 -3.167,1.418 -3.167,3.167 0,1.749 1.418,3.167 3.167,3.167 1.749,0 3.167,-1.418 3.167,-3.167"
           style="fill:#ffffff;fill-opacity:1;fill-rule:nonzero;stroke:none"
           id="path1760"
           inkscape:connector-curvature="0" />
        <path
           d="m 670.166,500.5273 c 0,-1.749 -1.418,-3.167 -3.167,-3.167 -1.749,0 -3.167,1.418 -3.167,3.167 0,1.749 1.418,3.167 3.167,3.167 1.749,0 3.167,-1.418 3.167,-3.167 z"
           style="fill:none;stroke:#231f20;stroke-width:1;stroke-linecap:butt;stroke-linejoin:miter;stroke-miterlimit:4;stroke-dasharray:none;stroke-opacity:1"
           id="path1764"
           inkscape:connector-curvature="0" />
        <path
           d="m 650.165,433.1938 c 0,-1.749 -1.418,-3.167 -3.167,-3.167 -1.749,0 -3.167,1.418 -3.167,3.167 0,1.749 1.418,3.167 3.167,3.167 1.749,0 3.167,-1.418 3.167,-3.167"
           style="fill:#ffffff;fill-opacity:1;fill-rule:nonzero;stroke:none"
           id="path1780"
           inkscape:connector-curvature="0" />
        <path
           d="m 650.165,433.1938 c 0,-1.749 -1.418,-3.167 -3.167,-3.167 -1.749,0 -3.167,1.418 -3.167,3.167 0,1.749 1.418,3.167 3.167,3.167 1.749,0 3.167,-1.418 3.167,-3.167 z"
           style="fill:none;stroke:#231f20;stroke-width:1;stroke-linecap:butt;stroke-linejoin:miter;stroke-miterlimit:4;stroke-dasharray:none;stroke-opacity:1"
           id="path1784"
           inkscape:connector-curvature="0" />
        <path
           d="m 689.833,432.8604 c 0,-1.749 -1.418,-3.167 -3.167,-3.167 -1.749,0 -3.167,1.418 -3.167,3.167 0,1.749 1.418,3.167 3.167,3.167 1.749,0 3.167,-1.418 3.167,-3.167"
           style="fill:#ffffff;fill-opacity:1;fill-rule:nonzero;stroke:none"
           id="path1800"
           inkscape:connector-curvature="0" />
        <path
           d="m 689.833,432.8604 c 0,-1.749 -1.418,-3.167 -3.167,-3.167 -1.749,0 -3.167,1.418 -3.167,3.167 0,1.749 1.418,3.167 3.167,3.167 1.749,0 3.167,-1.418 3.167,-3.167 z"
           style="fill:none;stroke:#231f20;stroke-width:1;stroke-linecap:butt;stroke-linejoin:miter;stroke-miterlimit:4;stroke-dasharray:none;stroke-opacity:1"
           id="path1804"
           inkscape:connector-curvature="0" />
        <path
           d="m 673.167,465.1938 c 0,-1.749 -1.418,-3.167 -3.167,-3.167 -1.749,0 -3.167,1.418 -3.167,3.167 0,1.749 1.418,3.167 3.167,3.167 1.749,0 3.167,-1.418 3.167,-3.167"
           style="fill:#ffffff;fill-opacity:1;fill-rule:nonzero;stroke:none"
           id="path1820"
           inkscape:connector-curvature="0" />
        <path
           d="m 673.167,465.1938 c 0,-1.749 -1.418,-3.167 -3.167,-3.167 -1.749,0 -3.167,1.418 -3.167,3.167 0,1.749 1.418,3.167 3.167,3.167 1.749,0 3.167,-1.418 3.167,-3.167 z"
           style="fill:none;stroke:#231f20;stroke-width:1;stroke-linecap:butt;stroke-linejoin:miter;stroke-miterlimit:4;stroke-dasharray:none;stroke-opacity:1"
           id="path1824"
           inkscape:connector-curvature="0" />
        <path
           d="m 648.25,466.6938 4,7.25"
           style="fill:none;stroke:#231f20;stroke-width:1.125;stroke-linecap:butt;stroke-linejoin:miter;stroke-miterlimit:4;stroke-dasharray:none;stroke-opacity:1"
           id="path1840"
           inkscape:connector-curvature="0" />
        <path
           d="m 646,490.5278 5.25,-4.334"
           style="fill:none;stroke:#231f20;stroke-width:1.125;stroke-linecap:butt;stroke-linejoin:miter;stroke-miterlimit:4;stroke-dasharray:none;stroke-opacity:1"
           id="path1856"
           inkscape:connector-curvature="0" />
        <path
           d="m 664.5,481.5278 7,0.666"
           style="fill:none;stroke:#231f20;stroke-width:1.125;stroke-linecap:butt;stroke-linejoin:miter;stroke-miterlimit:4;stroke-dasharray:none;stroke-opacity:1"
           id="path1872"
           inkscape:connector-curvature="0" />
      </g>
    </g>
    <g
       id="g7996"
       transform="translate(-4.4402819e-6,1.387883)"
       inkscape:export-xdpi="300"
       inkscape:export-ydpi="300">
      <path
         sodipodi:nodetypes="ccccc"
         inkscape:connector-curvature="0"
         id="path7163-1-9-9"
         d="m 155.64834,32.602265 6.21481,-5.295345 6.86345,-2.128876 -17.96214,19.305554 z"
         style="fill:#0000ff;fill-opacity:0.543569;stroke:none;stroke-width:0.211667px;stroke-linecap:butt;stroke-linejoin:miter;stroke-opacity:1" />
      <path
         sodipodi:nodetypes="cccccc"
         inkscape:connector-curvature="0"
         id="path7487-1-5"
         d="m 145.9628,21.578497 22.055,4.176254 -6.13619,1.802277 -6.23076,4.578949 -3.28107,-5.520084 z"
         style="fill:#00ff00;fill-opacity:0.543569;stroke:none;stroke-width:0.211667px;stroke-linecap:butt;stroke-linejoin:miter;stroke-opacity:1" />
      <path
         sodipodi:nodetypes="ccccc"
         inkscape:connector-curvature="0"
         id="path7163-1-1"
         d="m 146.11581,21.908784 5.614,4.849297 4.25884,5.584766 -5.59026,12.192975 z"
         style="fill:#ffff00;fill-opacity:0.543569;stroke:none;stroke-width:0.211667px;stroke-linecap:butt;stroke-linejoin:miter;stroke-opacity:1" />
      <path
         inkscape:connector-curvature="0"
         id="path7878"
         d="M 154.91805,15.288524 A 16.430713,16.643221 0 0 0 138.48753,31.93195 16.430713,16.643221 0 0 0 154.91805,48.574864 16.430713,16.643221 0 0 0 171.34909,31.93195 16.430713,16.643221 0 0 0 154.91805,15.288524 Z m -9.25783,6.800101 22.38416,3.966684 -17.85111,18.559073 z"
         style="opacity:1;vector-effect:none;fill:#ff0000;fill-opacity:0.515556;stroke:none;stroke-width:0.545002;stroke-linecap:butt;stroke-linejoin:miter;stroke-miterlimit:4;stroke-dasharray:none;stroke-dashoffset:0;stroke-opacity:1" />
      <path
         inkscape:connector-curvature="0"
         id="path5584"
         style="fill:none;stroke:#11b2ec;stroke-width:0.661458;stroke-linecap:butt;stroke-linejoin:miter;stroke-miterlimit:4;stroke-dasharray:none;stroke-opacity:1"
         d="m 150.41401,44.33541 5.12452,-11.291772" />
      <path
         inkscape:connector-curvature="0"
         id="path5600"
         style="fill:none;stroke:#d63327;stroke-width:0.661458;stroke-linecap:butt;stroke-linejoin:miter;stroke-miterlimit:4;stroke-dasharray:none;stroke-opacity:1"
         d="M 152.43669,27.139958 145.8284,21.938816" />
      <path
         inkscape:connector-curvature="0"
         id="path5616"
         style="fill:none;stroke:#872193;stroke-width:0.661458;stroke-linecap:butt;stroke-linejoin:miter;stroke-miterlimit:4;stroke-dasharray:none;stroke-opacity:1"
         d="m 145.91849,21.938816 4.49552,22.396875" />
      <path
         inkscape:connector-curvature="0"
         id="path5632"
         style="fill:none;stroke:#18ad48;stroke-width:0.661458;stroke-linecap:butt;stroke-linejoin:miter;stroke-miterlimit:4;stroke-dasharray:none;stroke-opacity:1"
         d="M 168.48563,25.50014 145.91849,21.657688" />
      <path
         inkscape:connector-curvature="0"
         id="path5652"
         style="fill:#ffffff;stroke:#231f20;stroke-width:0.352778;stroke-linecap:butt;stroke-linejoin:miter;stroke-miterlimit:4;stroke-dasharray:none;stroke-opacity:1"
         d="m 147.15674,21.601189 c 0,0.617361 -0.50024,1.1176 -1.11689,1.1176 -0.61701,0 -1.11725,-0.500239 -1.11725,-1.1176 0,-0.616656 0.50024,-1.116895 1.11725,-1.116895 0.61665,0 1.11689,0.500239 1.11689,1.116895 z" />
      <path
         inkscape:connector-curvature="0"
         id="path5668"
         style="fill:none;stroke:#a6958b;stroke-width:0.661458;stroke-linecap:butt;stroke-linejoin:miter;stroke-miterlimit:4;stroke-dasharray:none;stroke-opacity:1"
         d="m 155.53853,32.481383 5.93396,-4.919733" />
      <path
         inkscape:connector-curvature="0"
         id="path5684"
         style="fill:none;stroke:#231f20;stroke-width:0.661458;stroke-linecap:butt;stroke-linejoin:miter;stroke-miterlimit:4;stroke-dasharray:none;stroke-opacity:1"
         d="m 152.43669,27.139958 3.50643,5.060297" />
      <path
         inkscape:connector-curvature="0"
         id="path5700"
         style="fill:none;stroke:#df098f;stroke-width:0.661458;stroke-linecap:butt;stroke-linejoin:miter;stroke-miterlimit:4;stroke-dasharray:none;stroke-opacity:1"
         d="M 168.306,25.781268 151.313,44.054563" />
      <path
         inkscape:connector-curvature="0"
         id="path5716"
         style="fill:none;stroke:#f18022;stroke-width:0.661458;stroke-linecap:butt;stroke-linejoin:miter;stroke-miterlimit:4;stroke-dasharray:none;stroke-opacity:1"
         d="m 161.87708,27.56165 6.5635,-2.389866" />
      <path
         inkscape:connector-curvature="0"
         id="path5732"
         style="fill:none;stroke:#231f20;stroke-width:0.396875;stroke-linecap:butt;stroke-linejoin:miter;stroke-miterlimit:4;stroke-dasharray:none;stroke-opacity:1"
         d="m 157.06733,22.126047 -0.58476,2.905454" />
      <path
         inkscape:connector-curvature="0"
         id="path5752"
         style="fill:#ffffff;stroke:#231f20;stroke-width:0.352778;stroke-linecap:butt;stroke-linejoin:miter;stroke-miterlimit:4;stroke-dasharray:none;stroke-opacity:1"
         d="m 156.62212,32.350049 c 0,0.616655 -0.50023,1.116894 -1.11689,1.116894 -0.61701,0 -1.11725,-0.500239 -1.11725,-1.116894 0,-0.617361 0.50024,-1.116895 1.11725,-1.116895 0.61666,0 1.11689,0.499534 1.11689,1.116895 z" />
      <path
         inkscape:connector-curvature="0"
         id="path5772"
         style="fill:#ffffff;stroke:#231f20;stroke-width:0.352778;stroke-linecap:butt;stroke-linejoin:miter;stroke-miterlimit:4;stroke-dasharray:none;stroke-opacity:1"
         d="m 153.27389,26.922636 c 0,0.616655 -0.50024,1.116894 -1.11724,1.116894 -0.61701,0 -1.11725,-0.500239 -1.11725,-1.116894 0,-0.617361 0.50024,-1.1176 1.11725,-1.1176 0.617,0 1.11724,0.500239 1.11724,1.1176 z" />
      <path
         inkscape:connector-curvature="0"
         id="path5792"
         style="fill:#ffffff;stroke:#231f20;stroke-width:0.352778;stroke-linecap:butt;stroke-linejoin:miter;stroke-miterlimit:4;stroke-dasharray:none;stroke-opacity:1"
         d="m 163.21376,27.698002 c 0,0.616656 -0.50024,1.116895 -1.11689,1.116895 -0.61737,0 -1.1176,-0.500239 -1.1176,-1.116895 0,-0.617361 0.50023,-1.1176 1.1176,-1.1176 0.61665,0 1.11689,0.500239 1.11689,1.1176 z" />
      <path
         inkscape:connector-curvature="0"
         id="path5812"
         style="fill:#ffffff;stroke:#231f20;stroke-width:0.352778;stroke-linecap:butt;stroke-linejoin:miter;stroke-miterlimit:4;stroke-dasharray:none;stroke-opacity:1"
         d="m 169.47078,25.549828 c 0,0.616656 -0.50024,1.116894 -1.11724,1.116894 -0.61701,0 -1.11725,-0.500238 -1.11725,-1.116894 0,-0.617361 0.50024,-1.1176 1.11725,-1.1176 0.617,0 1.11724,0.500239 1.11724,1.1176 z" />
      <path
         inkscape:connector-curvature="0"
         id="path5832"
         style="fill:#ffffff;stroke:#231f20;stroke-width:0.352778;stroke-linecap:butt;stroke-linejoin:miter;stroke-miterlimit:4;stroke-dasharray:none;stroke-opacity:1"
         d="m 151.7748,44.169085 c 0,0.616656 -0.50024,1.116895 -1.11725,1.116895 -0.61701,0 -1.11725,-0.500239 -1.11725,-1.116895 0,-0.617361 0.50024,-1.1176 1.11725,-1.1176 0.61701,0 1.11725,0.500239 1.11725,1.1176 z" />
      <path
         inkscape:connector-curvature="0"
         id="path5848"
         style="fill:none;stroke:#231f20;stroke-width:0.396875;stroke-linecap:butt;stroke-linejoin:miter;stroke-miterlimit:4;stroke-dasharray:none;stroke-opacity:1"
         d="m 160.57377,33.230587 1.30331,1.359253" />
      <path
         inkscape:connector-curvature="0"
         id="path5864"
         style="fill:none;stroke:#231f20;stroke-width:0.396875;stroke-linecap:butt;stroke-linejoin:miter;stroke-miterlimit:4;stroke-dasharray:none;stroke-opacity:1"
         d="m 146.50271,32.621947 3.10185,-0.562256" />
    </g>
    <g
       id="g8047"
       transform="translate(-0.40909955,-1.3137275)"
       inkscape:export-xdpi="300"
       inkscape:export-ydpi="300">
      <path
         inkscape:connector-curvature="0"
         id="path7489"
         d="M 75.166233,17.915979 A 16.433941,16.717283 0 0 0 58.732094,34.633305 16.433941,16.717283 0 0 0 75.166233,51.35063 16.433941,16.717283 0 0 0 91.600371,34.633305 16.433941,16.717283 0 0 0 75.166233,17.915979 Z m -9.391158,6.913273 H 84.968736 V 43.780033 H 65.775075 Z"
         style="opacity:1;vector-effect:none;fill:#0000ff;fill-opacity:0.543569;stroke:none;stroke-width:0.567984;stroke-linecap:butt;stroke-linejoin:miter;stroke-miterlimit:4;stroke-dasharray:none;stroke-dashoffset:0;stroke-opacity:1" />
      <path
         sodipodi:nodetypes="cccc"
         inkscape:connector-curvature="0"
         id="path7044-6"
         d="m 65.490562,24.77756 19.142032,0.04258 -9.570748,6.798003 z"
         style="fill:#ff0000;fill-opacity:0.518672;stroke:none;stroke-width:0.211667px;stroke-linecap:butt;stroke-linejoin:miter;stroke-opacity:1" />
      <path
         inkscape:connector-curvature="0"
         id="path7487"
         d="m 65.490561,24.77756 0.284508,19.002474 18.908776,-0.051 -9.997944,-4.537172 0.375944,-7.573717 z"
         style="fill:#00ff00;fill-opacity:0.543569;stroke:none;stroke-width:0.211667px;stroke-linecap:butt;stroke-linejoin:miter;stroke-opacity:1" />
      <path
         sodipodi:nodetypes="ccccc"
         inkscape:connector-curvature="0"
         id="path7163-1"
         d="m 75.061846,31.618147 9.570748,-6.798003 0.05137,18.908328 -9.998061,-4.53661 z"
         style="fill:#ffff00;fill-opacity:0.543569;stroke:none;stroke-width:0.211667px;stroke-linecap:butt;stroke-linejoin:miter;stroke-opacity:1" />
      <path
         inkscape:connector-curvature="0"
         id="path4152"
         style="fill:none;stroke:#f18022;stroke-width:0.705644;stroke-linecap:butt;stroke-linejoin:miter;stroke-miterlimit:4;stroke-dasharray:none;stroke-opacity:1"
         d="m 65.723705,24.871145 0.05137,18.908888" />
      <path
         inkscape:connector-curvature="0"
         id="path4168"
         style="fill:none;stroke:#df098f;stroke-width:0.705644;stroke-linecap:butt;stroke-linejoin:miter;stroke-miterlimit:4;stroke-dasharray:none;stroke-opacity:1"
         d="m 84.631465,24.820147 -18.908888,0.05108" />
      <path
         inkscape:connector-curvature="0"
         id="path4184"
         style="fill:none;stroke:#a6958b;stroke-width:0.564444;stroke-linecap:butt;stroke-linejoin:miter;stroke-miterlimit:4;stroke-dasharray:none;stroke-opacity:1"
         d="M 84.683846,43.729036 66.481641,44.248325" />
      <path
         inkscape:connector-curvature="0"
         id="path4200"
         style="fill:none;stroke:#231f20;stroke-width:0.705644;stroke-linecap:butt;stroke-linejoin:miter;stroke-miterlimit:4;stroke-dasharray:none;stroke-opacity:1"
         d="m 74.685898,39.191862 9.998004,4.537287" />
      <path
         inkscape:connector-curvature="0"
         id="path4216"
         style="fill:#ffffff;fill-opacity:1;fill-rule:nonzero;stroke:none;stroke-width:0.282222"
         d="m 65.777159,44.673408 c 0.493889,-0.0011 0.89295,-0.402449 0.891258,-0.895774 -0.0011,-0.493889 -0.402449,-0.89295 -0.895774,-0.891821 -0.493889,0.0014 -0.892951,0.402731 -0.891258,0.89662 0.0011,0.493324 0.402449,0.892386 0.895774,0.890975" />
      <path
         inkscape:connector-curvature="0"
         id="path4236"
         style="fill:none;stroke:#872193;stroke-width:0.705644;stroke-linecap:butt;stroke-linejoin:miter;stroke-miterlimit:4;stroke-dasharray:none;stroke-opacity:1"
         d="m 84.633695,24.964025 -9.480409,6.75019" />
      <path
         inkscape:connector-curvature="0"
         id="path4252"
         style="fill:none;stroke:#11b2ec;stroke-width:0.705644;stroke-linecap:butt;stroke-linejoin:miter;stroke-miterlimit:4;stroke-dasharray:none;stroke-opacity:1"
         d="m 84.632594,24.820147 0.05137,18.908325" />
      <path
         inkscape:connector-curvature="0"
         id="path4268"
         style="fill:none;stroke:#18ad48;stroke-width:0.705644;stroke-linecap:butt;stroke-linejoin:miter;stroke-miterlimit:4;stroke-dasharray:none;stroke-opacity:1"
         d="M 75.061846,31.618147 65.490562,24.77756"
         sodipodi:nodetypes="cc" />
      <path
         inkscape:connector-curvature="0"
         id="path4284"
         style="fill:none;stroke:#d63327;stroke-width:0.705644;stroke-linecap:butt;stroke-linejoin:miter;stroke-miterlimit:4;stroke-dasharray:none;stroke-opacity:1"
         d="m 74.708504,39.262417 0.353342,-7.64427" />
      <path
         inkscape:connector-curvature="0"
         id="path4300"
         style="fill:none;stroke:#231f20;stroke-width:0.396875;stroke-linecap:butt;stroke-linejoin:miter;stroke-miterlimit:4;stroke-dasharray:none;stroke-opacity:1"
         d="m 72.086395,27.93826 -1.620233,1.993741"
         sodipodi:nodetypes="cc" />
      <path
         inkscape:connector-curvature="0"
         id="path4316"
         style="fill:none;stroke:#231f20;stroke-width:0.396875;stroke-linecap:butt;stroke-linejoin:miter;stroke-miterlimit:4;stroke-dasharray:none;stroke-opacity:1"
         d="m 75.504455,23.715671 0.09991,2.069253" />
      <path
         inkscape:connector-curvature="0"
         id="path4332"
         style="fill:none;stroke:#231f20;stroke-width:0.396875;stroke-linecap:butt;stroke-linejoin:miter;stroke-miterlimit:4;stroke-dasharray:none;stroke-opacity:1"
         d="m 77.774369,28.225017 1.888348,2.062198" />
      <path
         inkscape:connector-curvature="0"
         id="path4352"
         style="fill:#ffffff;fill-opacity:0.995556;stroke:#231f20;stroke-width:0.352778;stroke-linecap:butt;stroke-linejoin:miter;stroke-miterlimit:4;stroke-dasharray:none;stroke-opacity:1"
         d="m 74.710705,40.156357 c 0.616655,-0.0018 1.115483,-0.503414 1.114072,-1.120422 -0.0021,-0.617008 -0.503061,-1.115836 -1.120422,-1.114072 -0.616656,0.0018 -1.115484,0.503061 -1.113367,1.120069 0.0014,0.617009 0.502356,1.116189 1.119717,1.114425 z" />
      <path
         inkscape:connector-curvature="0"
         id="path4368"
         style="fill:#ffffff;fill-opacity:1;fill-rule:nonzero;stroke:none;stroke-width:0.282222"
         d="m 84.686047,44.62258 c 0.493889,-0.0014 0.892387,-0.402731 0.891258,-0.896056 -0.0017,-0.493889 -0.402449,-0.892951 -0.896338,-0.89154 -0.493324,0.0011 -0.892386,0.402449 -0.890693,0.896338 0.0011,0.493324 0.402449,0.892387 0.895773,0.891258" />
      <path
         inkscape:connector-curvature="0"
         id="path4372"
         style="fill:#ffffff;stroke:#231f20;stroke-width:0.352778;stroke-linecap:butt;stroke-linejoin:miter;stroke-miterlimit:4;stroke-dasharray:none;stroke-opacity:1"
         d="m 84.686047,44.62258 c 0.617361,-0.0018 1.115484,-0.503414 1.114072,-1.12007 -0.0021,-0.617361 -0.503061,-1.116189 -1.120422,-1.114425 -0.616655,0.0014 -1.115483,0.503061 -1.113366,1.120423 0.0014,0.616655 0.503061,1.115483 1.119716,1.114072 z" />
      <path
         inkscape:connector-curvature="0"
         id="path4388"
         style="fill:#ffffff;fill-opacity:1;fill-rule:nonzero;stroke:none;stroke-width:0.282222"
         d="m 84.635332,25.713691 c 0.493325,-0.0014 0.892386,-0.402449 0.890693,-0.895773 -0.0011,-0.493889 -0.402448,-0.893233 -0.895773,-0.891822 -0.493889,0.0014 -0.892387,0.402731 -0.891258,0.89662 0.0017,0.493324 0.402449,0.892386 0.896338,0.890975" />
      <path
         inkscape:connector-curvature="0"
         id="path4392"
         style="fill:#ffffff;stroke:#231f20;stroke-width:0.352778;stroke-linecap:butt;stroke-linejoin:miter;stroke-miterlimit:4;stroke-dasharray:none;stroke-opacity:1"
         d="m 84.635332,25.713691 c 0.616656,-0.0018 1.115483,-0.503061 1.113367,-1.119716 -0.0014,-0.617362 -0.503061,-1.116542 -1.119717,-1.114778 -0.617361,0.0018 -1.115483,0.503414 -1.114072,1.120775 0.0021,0.616655 0.503061,1.115483 1.120422,1.113719 z" />
      <path
         inkscape:connector-curvature="0"
         id="path4408"
         style="fill:#ffffff;fill-opacity:1;fill-rule:nonzero;stroke:none;stroke-width:0.282222"
         d="m 65.490534,25.624114 c 0.493889,-0.0011 0.892951,-0.402449 0.891258,-0.895773 -0.0011,-0.493607 -0.402449,-0.892669 -0.895774,-0.89154 -0.493889,0.0014 -0.892951,0.402731 -0.891257,0.896337 0.0011,0.493325 0.402448,0.892387 0.895773,0.890976" />
      <path
         inkscape:connector-curvature="0"
         id="path4412"
         style="fill:#ffffff;stroke:#231f20;stroke-width:0.352778;stroke-linecap:butt;stroke-linejoin:miter;stroke-miterlimit:4;stroke-dasharray:none;stroke-opacity:1"
         d="m 65.490534,25.624114 c 0.617361,-0.0014 1.116188,-0.503062 1.114072,-1.119717 -0.0014,-0.617008 -0.503061,-1.115836 -1.119717,-1.114425 -0.617361,0.0018 -1.116189,0.503414 -1.114072,1.120422 0.0014,0.616656 0.503061,1.115483 1.119717,1.11372 z" />
      <path
         inkscape:connector-curvature="0"
         id="path4432"
         style="fill:#ffffff;stroke:#231f20;stroke-width:0.352778;stroke-linecap:butt;stroke-linejoin:miter;stroke-miterlimit:4;stroke-dasharray:none;stroke-opacity:1"
         d="m 65.777159,44.673408 c 0.617361,-0.0018 1.115483,-0.503414 1.114072,-1.120069 -0.0021,-0.617362 -0.503061,-1.116189 -1.120422,-1.114425 -0.616656,0.0014 -1.115483,0.503061 -1.113367,1.120422 0.0014,0.616655 0.503061,1.115483 1.119717,1.114072 z" />
      <path
         inkscape:connector-curvature="0"
         id="path4220"
         style="fill:#ffffff;stroke:#231f20;stroke-width:0.352778;stroke-linecap:butt;stroke-linejoin:miter;stroke-miterlimit:4;stroke-dasharray:none;stroke-opacity:1"
         d="m 75.064048,32.512085 c 0.617361,-0.0014 1.116188,-0.503061 1.114072,-1.119717 -0.0014,-0.617361 -0.503061,-1.116188 -1.119717,-1.114777 -0.617361,0.0018 -1.116189,0.503414 -1.114072,1.120775 0.0014,0.616655 0.503061,1.115483 1.119717,1.113719 z" />
    </g>
    <g
       id="g8020"
       transform="translate(-1.756572,-1.091564)"
       inkscape:export-xdpi="300"
       inkscape:export-ydpi="300">
      <path
         sodipodi:nodetypes="cccccc"
         inkscape:connector-curvature="0"
         id="path7487-1"
         d="m 126.50338,24.834254 -0.48486,18.301234 -18.75851,-9.12e-4 9.59723,-3.936109 0.82619,-7.523627 z"
         style="fill:#00ff00;fill-opacity:0.543569;stroke:none;stroke-width:0.211667px;stroke-linecap:butt;stroke-linejoin:miter;stroke-opacity:1" />
      <path
         sodipodi:nodetypes="ccccc"
         inkscape:connector-curvature="0"
         id="path7163-1-9"
         d="m 107.27479,24.967461 10.07164,6.725913 -0.64984,7.688486 -9.397,3.477563 z"
         style="fill:#0000ff;fill-opacity:0.543569;stroke:none;stroke-width:0.211667px;stroke-linecap:butt;stroke-linejoin:miter;stroke-opacity:1" />
      <path
         sodipodi:nodetypes="cccc"
         inkscape:connector-curvature="0"
         id="path7044-6-8"
         d="m 107.80415,24.828123 19.14203,0.04258 -9.57075,6.798003 z"
         style="fill:#ff0000;fill-opacity:0.518672;stroke:none;stroke-width:0.211667px;stroke-linecap:butt;stroke-linejoin:miter;stroke-opacity:1" />
      <path
         inkscape:connector-curvature="0"
         id="path7489-0"
         d="m 116.59597,17.693815 a 16.433941,16.717283 0 0 0 -16.43414,16.717326 16.433941,16.717283 0 0 0 16.43414,16.717326 16.433941,16.717283 0 0 0 16.43414,-16.717326 16.433941,16.717283 0 0 0 -16.43414,-16.717326 z m -9.39116,6.913273 h 19.19366 v 18.950781 h -19.19366 z"
         style="opacity:1;vector-effect:none;fill:#ffff00;fill-opacity:0.543569;stroke:none;stroke-width:0.567984;stroke-linecap:butt;stroke-linejoin:miter;stroke-miterlimit:4;stroke-dasharray:none;stroke-dashoffset:0;stroke-opacity:1" />
      <g
         style="stroke-width:0.661458;stroke-miterlimit:4;stroke-dasharray:none"
         id="g7629">
        <path
           d="m 126.35283,24.876177 -0.0508,18.908606"
           style="fill:none;stroke:#d63327;stroke-width:0.661458;stroke-linecap:butt;stroke-linejoin:miter;stroke-miterlimit:4;stroke-dasharray:none;stroke-opacity:1"
           id="path5288"
           inkscape:connector-curvature="0" />
        <path
           d="m 107.44559,24.825179 18.90888,0.05108"
           style="fill:none;stroke:#872193;stroke-width:0.661458;stroke-linecap:butt;stroke-linejoin:miter;stroke-miterlimit:4;stroke-dasharray:none;stroke-opacity:1"
           id="path5304"
           inkscape:connector-curvature="0" />
        <path
           d="m 106.98254,43.287168 h 19.05"
           style="fill:none;stroke:#231f20;stroke-width:0.661458;stroke-linecap:butt;stroke-linejoin:miter;stroke-miterlimit:4;stroke-dasharray:none;stroke-opacity:1"
           id="path5320"
           inkscape:connector-curvature="0"
           sodipodi:nodetypes="cc" />
        <path
           sodipodi:nodetypes="cc"
           d="m 117.39062,39.197007 -10.20995,3.970316"
           style="fill:none;stroke:#a6958b;stroke-width:0.661458;stroke-linecap:butt;stroke-linejoin:miter;stroke-miterlimit:4;stroke-dasharray:none;stroke-opacity:1"
           id="path5336"
           inkscape:connector-curvature="0" />
        <path
           d="m 107.44285,24.969057 9.48041,6.750473"
           style="fill:none;stroke:#df098f;stroke-width:0.661458;stroke-linecap:butt;stroke-linejoin:miter;stroke-miterlimit:4;stroke-dasharray:none;stroke-opacity:1"
           id="path5372"
           inkscape:connector-curvature="0" />
        <path
           d="m 107.44395,24.825179 -0.0508,18.908324"
           style="fill:none;stroke:#11b2ec;stroke-width:0.661458;stroke-linecap:butt;stroke-linejoin:miter;stroke-miterlimit:4;stroke-dasharray:none;stroke-opacity:1"
           id="path5388"
           inkscape:connector-curvature="0" />
        <path
           d="m 117.81505,31.620837 8.7709,-6.838245"
           style="fill:none;stroke:#18ad48;stroke-width:0.661458;stroke-linecap:butt;stroke-linejoin:miter;stroke-miterlimit:4;stroke-dasharray:none;stroke-opacity:1"
           id="path5404"
           inkscape:connector-curvature="0" />
        <path
           d="m 116.86088,39.290055 0.70499,-7.644553"
           style="fill:none;stroke:#f18022;stroke-width:0.661458;stroke-linecap:butt;stroke-linejoin:miter;stroke-miterlimit:4;stroke-dasharray:none;stroke-opacity:1"
           id="path5420"
           inkscape:connector-curvature="0"
           sodipodi:nodetypes="cc" />
      </g>
      <path
         sodipodi:nodetypes="cc"
         inkscape:connector-curvature="0"
         id="path5436"
         style="opacity:1;vector-effect:none;fill:none;fill-opacity:1;stroke:#231f20;stroke-width:0.396875;stroke-linecap:butt;stroke-linejoin:miter;stroke-miterlimit:4;stroke-dasharray:none;stroke-dashoffset:0;stroke-opacity:1"
         d="m 119.9604,28.306245 1.86243,1.825842" />
      <path
         inkscape:connector-curvature="0"
         id="path5452"
         style="fill:none;stroke:#231f20;stroke-width:0.396875;stroke-linecap:butt;stroke-linejoin:miter;stroke-miterlimit:4;stroke-dasharray:none;stroke-opacity:1"
         d="m 116.57263,23.720816 -0.0999,2.069253" />
      <path
         inkscape:connector-curvature="0"
         id="path5468"
         style="opacity:1;vector-effect:none;fill:none;fill-opacity:1;stroke:#231f20;stroke-width:0.396875;stroke-linecap:butt;stroke-linejoin:miter;stroke-miterlimit:4;stroke-dasharray:none;stroke-dashoffset:0;stroke-opacity:1"
         d="m 114.30271,28.230022 -1.88892,2.06248" />
      <path
         inkscape:connector-curvature="0"
         id="path5488"
         style="fill:#ffffff;fill-opacity:1;stroke:#231f20;stroke-width:0.352778;stroke-linecap:butt;stroke-linejoin:miter;stroke-miterlimit:4;stroke-dasharray:none;stroke-opacity:1"
         d="m 117.21041,32.416667 c -0.61737,-0.0018 -1.11549,-0.503414 -1.11408,-1.120422 0.001,-0.617008 0.50306,-1.115836 1.11972,-1.114072 0.61736,0.0018 1.11548,0.503061 1.11407,1.120422 -10e-4,0.616656 -0.50306,1.115836 -1.11971,1.114072 z" />
      <path
         inkscape:connector-curvature="0"
         id="path5508"
         style="fill:#ffffff;fill-opacity:1;stroke:#231f20;stroke-width:0.352778;stroke-linecap:butt;stroke-linejoin:miter;stroke-miterlimit:4;stroke-dasharray:none;stroke-opacity:1"
         d="m 116.68124,40.354167 c -0.61665,-0.0018 -1.11548,-0.503413 -1.11337,-1.120069 0.001,-0.617361 0.50307,-1.116189 1.11972,-1.114425 0.61736,0.0014 1.11548,0.503061 1.11407,1.120422 -0.002,0.616656 -0.50306,1.115484 -1.12042,1.114072 z" />
      <path
         inkscape:connector-curvature="0"
         id="path5528"
         style="fill:#ffffff;fill-opacity:1;stroke:#231f20;stroke-width:0.352778;stroke-linecap:butt;stroke-linejoin:miter;stroke-miterlimit:4;stroke-dasharray:none;stroke-opacity:1"
         d="m 107.15625,25.802083 c -0.61737,-0.0018 -1.11549,-0.503414 -1.11408,-1.12007 0.002,-0.617361 0.50306,-1.116188 1.12043,-1.114425 0.61665,0.0018 1.11548,0.503414 1.11336,1.120775 -0.001,0.616656 -0.50306,1.115484 -1.11971,1.11372 z" />
      <path
         inkscape:connector-curvature="0"
         id="path5548"
         style="fill:#ffffff;fill-opacity:1;stroke:#231f20;stroke-width:0.352778;stroke-linecap:butt;stroke-linejoin:miter;stroke-miterlimit:4;stroke-dasharray:none;stroke-opacity:1"
         d="m 126.20625,25.802083 c -0.61665,-0.0014 -1.11548,-0.503061 -1.11407,-1.119716 0.002,-0.617362 0.50306,-1.116189 1.12042,-1.114425 0.61666,0.0018 1.11549,0.503413 1.11407,1.120422 -0.002,0.616655 -0.50306,1.115483 -1.12042,1.113719 z" />
      <path
         inkscape:connector-curvature="0"
         id="path5568"
         style="fill:#ffffff;fill-opacity:1;stroke:#231f20;stroke-width:0.352778;stroke-linecap:butt;stroke-linejoin:miter;stroke-miterlimit:4;stroke-dasharray:none;stroke-opacity:1"
         d="m 125.94166,44.322917 c -0.61665,-0.0018 -1.11548,-0.503414 -1.11336,-1.12007 0.001,-0.617361 0.50306,-1.116189 1.11971,-1.114425 0.61737,0.0014 1.11549,0.503414 1.11408,1.120775 -0.002,0.616656 -0.50306,1.115483 -1.12043,1.11372 z" />
      <path
         inkscape:connector-curvature="0"
         id="path5356"
         style="fill:#ffffff;fill-opacity:1;stroke:#231f20;stroke-width:0.352778;stroke-linecap:butt;stroke-linejoin:miter;stroke-miterlimit:4;stroke-dasharray:none;stroke-opacity:1"
         d="m 107.15625,44.322917 c -0.61665,-0.0014 -1.11548,-0.503061 -1.11407,-1.119717 0.002,-0.617361 0.50377,-1.116189 1.12042,-1.114778 0.61736,0.0021 1.11548,0.503767 1.11407,1.121128 -0.002,0.616656 -0.50306,1.115483 -1.12042,1.113367 z" />
    </g>
    <path
       style="fill:none;stroke:#000000;stroke-width:0.529167;stroke-linecap:butt;stroke-linejoin:miter;stroke-miterlimit:4;stroke-dasharray:none;stroke-opacity:1"
       d="m 28.152373,59.214936 c -1.335035,-0.266932 -3.762394,-0.246038 -4.765678,0.542851 l 8e-6,3e-6 c -1.952313,2.011288 -3.077977,6.13917 -1.624198,9.026405 m 1.646071,3.153711 c 0.699478,1.37011 1.591324,2.623518 2.622719,3.715708 1.979016,2.091572 4.43677,4.00216 7.285692,4.048905 2.290399,0.03652 4.937577,-0.160248 6.537276,-2.223604 1.400704,-1.801104 2.21269,-4.03816 2.514631,-6.369383 m 0.103102,-3.203286 c -0.0423,-0.683472 -0.124857,-1.36176 -0.245714,-2.026415 -0.628623,-3.002461 -1.309797,-6.282935 -3.447712,-8.455579 -2.131521,-2.088004 -6.676214,-2.251942 -8.550736,0.13733 -0.930267,1.201784 -1.114799,4.085874 -1.099986,6.029505 m 0.115053,2.77288 c 0.05416,1.913258 1.758508,4.970243 4.052918,5.333971 m 2.768546,0.213628 c 2.436181,-0.03468 4.823531,-1.451926 7.348754,-3.103096 1.592924,-1.029777 2.690015,-2.774419 2.285503,-4.58573 -0.348184,-1.877636 -1.658289,-3.677273 -3.491871,-3.823978 m -2.675214,0.127153 c -1.133727,0.190728 -2.257542,0.508555 -3.370241,0.770844 -0.687604,0.228501 -1.346189,0.470019 -1.98345,0.730532 m -2.321459,1.086504 c -1.263178,0.673886 -2.474064,1.466995 -3.706015,2.436292 -1.752235,1.425655 -4.231464,3.612398 -5.619665,5.430769 -1.136339,1.606508 -1.36658,4.146976 -0.477118,6.190248 1.068248,1.985068 4.038777,3.461223 6.385276,2.370615 m 2.646225,-1.434802 c 1.330429,-1.038953 2.393001,-2.501808 2.999301,-4.179928 1.182086,-2.987723 1.587224,-6.833038 0.02044,-9.763963 -1.180665,-1.966056 -2.217173,-3.36804 -3.796818,-4.211734"
       id="path8107"
       inkscape:connector-curvature="0"
       sodipodi:nodetypes="cccccccccccccccccccccccccccccccc"
       inkscape:export-xdpi="300"
       inkscape:export-ydpi="300" />
    <path
       style="fill:none;stroke:#000000;stroke-width:0.519549;stroke-linecap:butt;stroke-linejoin:miter;stroke-miterlimit:4;stroke-dasharray:none;stroke-opacity:1"
       d="m 113.81738,56.734442 c 2.14487,-1.817136 5.55318,-1.212016 7.84585,0.415686 1.87215,1.329148 3.05595,3.022384 2.98013,5.635949 m 0.0501,3.241052 c -0.19168,3.945938 -1.79566,8.247902 -4.58871,11.054924 -1.78421,1.793126 -4.56933,3.537114 -6.95982,2.878644 -2.21462,-0.610027 -4.7203,-2.596503 -5.82513,-5.102648 m -0.57444,-2.510099 c -0.0542,-3.111439 1.68717,-6.114877 3.97486,-8.237606 m 1.92565,-1.497338 c 0.84664,-0.543028 1.71788,-0.96042 2.56462,-1.221812 3.61908,-1.117233 8.23477,0.79855 10.63771,4.26046 1.8818,2.7111 2.8587,7.528717 1.28061,10.51043 -1.23617,2.335696 -4.33621,2.785907 -6.59706,2.336249 m -2.65835,-0.931952 c -2.22689,-1.125341 -4.25381,-3.07365 -5.0808,-5.619536 -0.34601,-1.74697 -0.29852,-2.480863 0.25818,-3.934508 m 1.3326,-1.812558 c 0.95395,-0.893772 2.27531,-1.414117 2.28827,-3.712917 m -0.755,-2.445971 c -1.60872,-2.475354 -5.01615,-3.936117 -7.68803,-3.188934 -2.72147,0.761051 -4.71699,4.028297 -5.0099,6.838957 -0.4052,3.88825 0.23428,8.563891 4.83103,10.686685 1.32989,0.614151 3.15433,0.679449 4.80011,0.213094 m 2.08825,-0.976556 c 0.94228,-0.668634 1.64339,-1.596289 1.8692,-2.776982 0.53678,-2.806731 -4.51377,-3.266317 -5.08795,-6.06218 -0.40378,-1.966122 -0.12364,-4.438151 0.77656,-6.268729"
       id="path8122"
       inkscape:connector-curvature="0"
       sodipodi:nodetypes="csccasccccsaacccccccaasccssc"
       inkscape:export-xdpi="300"
       inkscape:export-ydpi="300" />
    <path
       style="fill:none;stroke:#000000;stroke-width:0.475936;stroke-linecap:butt;stroke-linejoin:miter;stroke-miterlimit:4;stroke-dasharray:none;stroke-opacity:1"
       d="m 161.67216,76.195742 c -3.15917,5.78023 -10.4158,4.372379 -14.0513,0.962325 -3.6355,-3.410054 -4.4794,-7.851262 -3.3016,-11.019648 1.17781,-3.168385 3.13763,-4.087551 4.62299,-4.221432 1.48535,-0.133881 2.64011,0.265468 3.27175,1.599422 0.1592,0.336235 0.16266,0.848148 0.0945,1.45997 m -0.30129,1.863887 c -0.26516,1.503032 -0.50925,3.136576 -8.6e-4,4.241912 0.98057,2.1327 3.95418,3.499979 6.3128,3.728296 2.35863,0.228316 4.17768,0.363259 5.91781,-0.637979 1.74013,-1.001239 3.16322,-2.470372 3.78219,-4.891227 0.61896,-2.420855 0.42008,-6.100818 -1.22656,-8.560028 -1.64662,-2.459209 -5.08114,-4.105059 -7.87897,-4.262665 -0.893,-0.0503 -1.82898,0.08707 -2.73874,0.347577 m -2.21095,0.851024 c -1.29941,0.552314 -3.63632,1.470586 -4.09918,3.441367 m -0.32928,1.899857 c -0.41028,1.932845 3.73196,4.383234 5.92896,2.398537 m 1.65611,-1.223086 c 1.71508,-1.607362 -0.0791,-4.793376 -2.21735,-7.011473 -2.27091,-2.1805 -5.42667,-1.771744 -7.30075,-0.6225 -1.87407,1.149244 -3.16799,4.837535 -3.19414,7.632861 m 0.37395,2.38019 c 0.59406,1.850282 1.82411,3.465962 3.16879,4.470398 1.11129,0.830093 2.57666,1.197187 3.94418,1.263272 m 1.74879,-0.255298 c 2.13688,-0.243001 3.79298,-1.74836 3.63211,-4.116465 -0.16088,-2.368103 -2.98279,-5.233149 -0.91602,-6.069009 m 2.21051,-0.366229 c 1.74061,-0.04765 2.67137,1.968864 3.39477,3.001187 1.39728,1.993976 2.57741,5.475913 0.73392,9.223127"
       id="path8153"
       inkscape:connector-curvature="0"
       sodipodi:nodetypes="czzzsccszzzzscccccccsccsccsccsc"
       inkscape:export-xdpi="300"
       inkscape:export-ydpi="300" />
    <path
       style="fill:none;stroke:#000000;stroke-width:0.519549;stroke-linecap:butt;stroke-linejoin:miter;stroke-miterlimit:4;stroke-dasharray:none;stroke-opacity:1"
       d="m 74.971278,56.734442 c -2.144871,-1.817136 -5.553176,-1.212016 -7.845845,0.415686 -1.872151,1.329149 -3.055952,3.022384 -2.980128,5.63595 m -0.05009,3.241052 c 0.191678,3.945939 1.795657,8.247904 4.588707,11.054926 1.78421,1.79313 4.569331,3.53711 6.959818,2.878641 2.214616,-0.610026 4.720299,-2.5965 5.825127,-5.102645 m 0.574445,-2.5101 c 0.05419,-3.111439 -1.687172,-6.114878 -3.974862,-8.237607 m -1.925649,-1.497338 c -0.846645,-0.543029 -1.717884,-0.96042 -2.564619,-1.221813 -3.619079,-1.117232 -8.23477,0.798551 -10.637715,4.260462 -1.881799,2.711099 -2.858698,7.528717 -1.28061,10.51043 1.23617,2.335694 4.336212,2.785911 6.597068,2.336245 m 2.658349,-0.931942 c 2.226883,-1.125346 4.25381,-3.073656 5.080799,-5.619542 0.346005,-1.746971 0.298515,-2.480863 -0.258183,-3.934509 M 74.405292,66.19978 c -0.953951,-0.893772 -2.275313,-1.414117 -2.28827,-3.712917 m 0.754995,-2.445972 c 1.608729,-2.475354 5.412607,-3.900004 7.68803,-3.188934 1.852445,0.578889 4.799521,4.055016 5.009895,6.838958 0.301324,3.987431 -0.234289,8.563892 -4.831024,10.686687 -1.32989,0.61415 -3.154331,0.679449 -4.800111,0.213093 m -2.088244,-0.976556 c -0.942284,-0.668633 -1.64339,-1.596289 -1.869201,-2.776982 -0.536783,-2.806732 4.513773,-3.266318 5.087948,-6.06218 0.403782,-1.966123 0.123643,-4.438152 -0.77656,-6.268731"
       id="path8122-3"
       inkscape:connector-curvature="0"
       sodipodi:nodetypes="csccasccccsaacccccccsssccssc"
       inkscape:export-xdpi="300"
       inkscape:export-ydpi="300" />
  </g>
</svg>
