<?xml version="1.0" encoding="UTF-8" standalone="no"?>
<svg
   xmlns:dc="http://purl.org/dc/elements/1.1/"
   xmlns:cc="http://creativecommons.org/ns#"
   xmlns:rdf="http://www.w3.org/1999/02/22-rdf-syntax-ns#"
   xmlns:svg="http://www.w3.org/2000/svg"
   xmlns="http://www.w3.org/2000/svg"
   xmlns:sodipodi="http://sodipodi.sourceforge.net/DTD/sodipodi-0.dtd"
   xmlns:inkscape="http://www.inkscape.org/namespaces/inkscape"
   version="1.1"
   id="svg4706"
   xml:space="preserve"
   width="1037.0831"
   height="708.69403"
   viewBox="0 0 1037.0831 708.69406"
   sodipodi:docname="décodage.svg"
   inkscape:version="1.0.2-2 (e86c870879, 2021-01-15)"><metadata
     id="metadata4712"><rdf:RDF><cc:Work
         rdf:about=""><dc:format>image/svg+xml</dc:format><dc:type
           rdf:resource="http://purl.org/dc/dcmitype/StillImage" /><dc:title /></cc:Work></rdf:RDF></metadata><defs
     id="defs4710" /><sodipodi:namedview
     pagecolor="#ffffff"
     bordercolor="#666666"
     borderopacity="1"
     objecttolerance="10"
     gridtolerance="10"
     guidetolerance="10"
     inkscape:pageopacity="0"
     inkscape:pageshadow="2"
     inkscape:window-width="1920"
     inkscape:window-height="1001"
     id="namedview4708"
     showgrid="false"
     inkscape:zoom="1.4417326"
     inkscape:cx="367.0999"
     inkscape:cy="443.48355"
     inkscape:window-x="-9"
     inkscape:window-y="-9"
     inkscape:window-maximized="1"
     inkscape:current-layer="g4714"
     inkscape:document-rotation="0"
     fit-margin-top="2"
     fit-margin-left="2"
     fit-margin-right="2"
     fit-margin-bottom="2" /><g
     id="g4714"
     inkscape:groupmode="layer"
     inkscape:label="décodage"
     transform="matrix(1.3333333,0,0,-1.3333333,-58.974732,1085.5372)">


<g
   id="g84726"
   transform="translate(-122.76895,90.516094)"><path
     inkscape:connector-curvature="0"
     id="path4718"
     style="fill:none;stroke:#231f20;stroke-width:2;stroke-linecap:butt;stroke-linejoin:miter;stroke-miterlimit:4;stroke-dasharray:none;stroke-opacity:1"
     d="m 168.5,677.38965 c 0,0 87.5,0 87.5,0"
     inkscape:export-xdpi="300"
     inkscape:export-ydpi="300" /><path
     inkscape:connector-curvature="0"
     id="path4720"
     style="fill:none;stroke:#231f20;stroke-width:2;stroke-linecap:butt;stroke-linejoin:miter;stroke-miterlimit:4;stroke-dasharray:none;stroke-opacity:1"
     d="m 273,677.88965 c 0,0 42,0 42,0"
     inkscape:export-xdpi="300"
     inkscape:export-ydpi="300" /><path
     inkscape:connector-curvature="0"
     id="path4722"
     style="fill:none;stroke:#231f20;stroke-width:2;stroke-linecap:butt;stroke-linejoin:miter;stroke-miterlimit:4;stroke-dasharray:none;stroke-opacity:1"
     d="m 265,695.88965 c 0,0 0,-37.66699 0,-37.66699"
     inkscape:export-xdpi="300"
     inkscape:export-ydpi="300" /><path
     inkscape:connector-curvature="0"
     id="path4724"
     style="fill:none;stroke:#231f20;stroke-width:2;stroke-linecap:butt;stroke-linejoin:miter;stroke-miterlimit:4;stroke-dasharray:none;stroke-opacity:1"
     d="m 296.5,695.88965 c 0,0 0,-11.5 0,-11.5"
     inkscape:export-xdpi="300"
     inkscape:export-ydpi="300" /><path
     inkscape:connector-curvature="0"
     id="path4726"
     style="fill:none;stroke:#231f20;stroke-width:2;stroke-linecap:butt;stroke-linejoin:miter;stroke-miterlimit:4;stroke-dasharray:none;stroke-opacity:1"
     d="m 296.5,671.38965 c 0,0 0.16699,-14.16699 0.16699,-14.16699"
     inkscape:export-xdpi="300"
     inkscape:export-ydpi="300" /><path
     inkscape:connector-curvature="0"
     id="path4728"
     style="fill:none;stroke:#231f20;stroke-width:2;stroke-linecap:butt;stroke-linejoin:miter;stroke-miterlimit:4;stroke-dasharray:none;stroke-opacity:1"
     d="m 225.5,668.88965 c 0,0 0,-11.5 0,-11.5"
     inkscape:export-xdpi="300"
     inkscape:export-ydpi="300" /><path
     inkscape:connector-curvature="0"
     id="path4730"
     style="fill:none;stroke:#231f20;stroke-width:2;stroke-linecap:butt;stroke-linejoin:miter;stroke-miterlimit:4;stroke-dasharray:none;stroke-opacity:1"
     d="m 224.5,695.88965 c 0,0 0,-11.5 0,-11.5"
     inkscape:export-xdpi="300"
     inkscape:export-ydpi="300" /><path
     inkscape:connector-curvature="0"
     id="path4732"
     style="fill:none;stroke:#231f20;stroke-width:2;stroke-linecap:butt;stroke-linejoin:miter;stroke-miterlimit:4;stroke-dasharray:none;stroke-opacity:1"
     d="m 192.5,694.88965 c 0,0 0,-11.5 0,-11.5"
     inkscape:export-xdpi="300"
     inkscape:export-ydpi="300" /><path
     inkscape:connector-curvature="0"
     id="path4734"
     style="fill:none;stroke:#231f20;stroke-width:2;stroke-linecap:butt;stroke-linejoin:miter;stroke-miterlimit:4;stroke-dasharray:none;stroke-opacity:1"
     d="m 192,668.38965 c 0,0 0,-11.5 0,-11.5"
     inkscape:export-xdpi="300"
     inkscape:export-ydpi="300" /><text
     transform="scale(1,-1)"
     style="font-variant:normal;font-weight:normal;font-size:12px;font-family:Arial;-inkscape-font-specification:ArialMT;writing-mode:lr-tb;fill:#231f20;fill-opacity:1;fill-rule:nonzero;stroke:none"
     id="text4740"
     x="181.5"
     y="-684.88965"
     inkscape:export-xdpi="300"
     inkscape:export-ydpi="300"><tspan
       x="181.5"
       y="-684.88965"
       id="tspan4738">1</tspan></text><text
     transform="scale(1,-1)"
     style="font-variant:normal;font-weight:normal;font-size:12px;font-family:Arial;-inkscape-font-specification:ArialMT;writing-mode:lr-tb;fill:#231f20;fill-opacity:1;fill-rule:nonzero;stroke:none"
     id="text4744"
     x="213.5"
     y="-684.38965"
     inkscape:export-xdpi="300"
     inkscape:export-ydpi="300"><tspan
       x="213.5"
       y="-684.38965"
       id="tspan4742">2</tspan></text><text
     transform="scale(1,-1)"
     style="font-variant:normal;font-weight:normal;font-size:12px;font-family:Arial;-inkscape-font-specification:ArialMT;writing-mode:lr-tb;fill:#231f20;fill-opacity:1;fill-rule:nonzero;stroke:none"
     id="text4748"
     x="252.5"
     y="-683.88965"
     inkscape:export-xdpi="300"
     inkscape:export-ydpi="300"><tspan
       x="252.5"
       y="-683.88965"
       id="tspan4746">3</tspan></text><text
     transform="scale(1,-1)"
     style="font-variant:normal;font-weight:normal;font-size:12px;font-family:Arial;-inkscape-font-specification:ArialMT;writing-mode:lr-tb;fill:#231f20;fill-opacity:1;fill-rule:nonzero;stroke:none"
     id="text4752"
     x="284.5"
     y="-684.88965"
     inkscape:export-xdpi="300"
     inkscape:export-ydpi="300"><tspan
       x="284.5"
       y="-684.88965"
       id="tspan4750">4</tspan></text></g>



<g
   id="g84744"
   transform="translate(-133.1731,85.314019)"><path
     inkscape:connector-curvature="0"
     id="path4756"
     style="fill:none;stroke:#231f20;stroke-width:2;stroke-linecap:butt;stroke-linejoin:miter;stroke-miterlimit:4;stroke-dasharray:none;stroke-opacity:1"
     d="m 366,676.38965 c 0,0 87.5,0 87.5,0"
     inkscape:export-xdpi="300"
     inkscape:export-ydpi="300" /><path
     inkscape:connector-curvature="0"
     id="path4758"
     style="fill:none;stroke:#231f20;stroke-width:2;stroke-linecap:butt;stroke-linejoin:miter;stroke-miterlimit:4;stroke-dasharray:none;stroke-opacity:1"
     d="m 470.5,676.88965 c 0,0 42,0 42,0 19.5,0 25.35254,20.9668 20,30 -8,13.5 -53,14.5 -68,13.5 -15,-1 -42.5,-6.5 -42.5,-25.5 0,0 0,-11.5 0,-11.5"
     inkscape:export-xdpi="300"
     inkscape:export-ydpi="300" /><path
     inkscape:connector-curvature="0"
     id="path4760"
     style="fill:none;stroke:#231f20;stroke-width:2;stroke-linecap:butt;stroke-linejoin:miter;stroke-miterlimit:4;stroke-dasharray:none;stroke-opacity:1"
     d="m 462.5,694.88965 c 0,0 0,-32.5 0,-32.5"
     inkscape:export-xdpi="300"
     inkscape:export-ydpi="300" /><path
     inkscape:connector-curvature="0"
     id="path4762"
     style="fill:none;stroke:#231f20;stroke-width:2;stroke-linecap:butt;stroke-linejoin:miter;stroke-miterlimit:4;stroke-dasharray:none;stroke-opacity:1"
     d="m 494,694.88965 c 0,0 0,-11.5 0,-11.5"
     inkscape:export-xdpi="300"
     inkscape:export-ydpi="300" /><path
     inkscape:connector-curvature="0"
     id="path4764"
     style="fill:none;stroke:#231f20;stroke-width:2;stroke-linecap:butt;stroke-linejoin:miter;stroke-miterlimit:4;stroke-dasharray:none;stroke-opacity:1"
     d="m 494,670.38965 c 0,0 0,-11.5 0,-11.5"
     inkscape:export-xdpi="300"
     inkscape:export-ydpi="300" /><path
     inkscape:connector-curvature="0"
     id="path4766"
     style="fill:none;stroke:#231f20;stroke-width:2;stroke-linecap:butt;stroke-linejoin:miter;stroke-miterlimit:4;stroke-dasharray:none;stroke-opacity:1"
     d="m 423,667.88965 c 0,0 0,-11.5 0,-11.5"
     inkscape:export-xdpi="300"
     inkscape:export-ydpi="300" /><path
     inkscape:connector-curvature="0"
     id="path4768"
     style="fill:none;stroke:#231f20;stroke-width:2;stroke-linecap:butt;stroke-linejoin:miter;stroke-miterlimit:4;stroke-dasharray:none;stroke-opacity:1"
     d="m 390,693.88965 c 0,0 0,-11.5 0,-11.5"
     inkscape:export-xdpi="300"
     inkscape:export-ydpi="300" /><path
     inkscape:connector-curvature="0"
     id="path4770"
     style="fill:none;stroke:#231f20;stroke-width:2;stroke-linecap:butt;stroke-linejoin:miter;stroke-miterlimit:4;stroke-dasharray:none;stroke-opacity:1"
     d="m 389.5,667.38965 c 0,0 0,-11.5 0,-11.5"
     inkscape:export-xdpi="300"
     inkscape:export-ydpi="300" /><text
     transform="scale(1,-1)"
     style="font-variant:normal;font-weight:normal;font-size:12px;font-family:Arial;-inkscape-font-specification:ArialMT;writing-mode:lr-tb;fill:#231f20;fill-opacity:1;fill-rule:nonzero;stroke:none"
     id="text4776"
     x="379"
     y="-683.88965"
     inkscape:export-xdpi="300"
     inkscape:export-ydpi="300"><tspan
       x="379"
       y="-683.88965"
       id="tspan4774">1</tspan></text><text
     transform="scale(1,-1)"
     style="font-variant:normal;font-weight:normal;font-size:12px;font-family:Arial;-inkscape-font-specification:ArialMT;writing-mode:lr-tb;fill:#231f20;fill-opacity:1;fill-rule:nonzero;stroke:none"
     id="text4780"
     x="411"
     y="-683.38965"
     inkscape:export-xdpi="300"
     inkscape:export-ydpi="300"><tspan
       x="411"
       y="-683.38965"
       id="tspan4778">2</tspan></text><text
     transform="scale(1,-1)"
     style="font-variant:normal;font-weight:normal;font-size:12px;font-family:Arial;-inkscape-font-specification:ArialMT;writing-mode:lr-tb;fill:#231f20;fill-opacity:1;fill-rule:nonzero;stroke:none"
     id="text4784"
     x="450"
     y="-682.88965"
     inkscape:export-xdpi="300"
     inkscape:export-ydpi="300"><tspan
       x="450"
       y="-682.88965"
       id="tspan4782">3</tspan></text><text
     transform="scale(1,-1)"
     style="font-variant:normal;font-weight:normal;font-size:12px;font-family:Arial;-inkscape-font-specification:ArialMT;writing-mode:lr-tb;fill:#231f20;fill-opacity:1;fill-rule:nonzero;stroke:none"
     id="text4788"
     x="482"
     y="-683.88965"
     inkscape:export-xdpi="300"
     inkscape:export-ydpi="300"><tspan
       x="482"
       y="-683.88965"
       id="tspan4786">4</tspan></text></g>




<g
   id="g84766"
   transform="translate(35.374106,192.47675)"><path
     inkscape:connector-curvature="0"
     id="path4792"
     style="fill:none;stroke:#231f20;stroke-width:2;stroke-linecap:butt;stroke-linejoin:miter;stroke-miterlimit:4;stroke-dasharray:none;stroke-opacity:1"
     d="m 404,574.88965 c 0,0 87.5,0 87.5,0" /><path
     inkscape:connector-curvature="0"
     id="path4794"
     style="fill:none;stroke:#231f20;stroke-width:2;stroke-linecap:butt;stroke-linejoin:miter;stroke-miterlimit:4;stroke-dasharray:none;stroke-opacity:1"
     d="m 508.5,575.38965 c 0,0 42,0 42,0 19.5,0 25.35254,20.9668 20,30 -8,13.5 -53,14.5 -68,13.5 -15,-1 -42.5,-6.5 -42.5,-25.5 0,0 0,-11.5 0,-11.5" /><path
     inkscape:connector-curvature="0"
     id="path4796"
     style="fill:none;stroke:#231f20;stroke-width:2;stroke-linecap:butt;stroke-linejoin:miter;stroke-miterlimit:4;stroke-dasharray:none;stroke-opacity:1"
     d="m 500.5,593.38965 c 0,0 0,-32.5 0,-32.5" /><path
     inkscape:connector-curvature="0"
     id="path4798"
     style="fill:none;stroke:#231f20;stroke-width:2;stroke-linecap:butt;stroke-linejoin:miter;stroke-miterlimit:4;stroke-dasharray:none;stroke-opacity:1"
     d="m 532,593.38965 c 0,0 0,-11.5 0,-11.5" /><path
     inkscape:connector-curvature="0"
     id="path4800"
     style="fill:none;stroke:#231f20;stroke-width:2;stroke-linecap:butt;stroke-linejoin:miter;stroke-miterlimit:4;stroke-dasharray:none;stroke-opacity:1"
     d="m 532,568.88965 c 0,0 0,-11.5 0,-11.5" /><path
     inkscape:connector-curvature="0"
     id="path4802"
     style="fill:none;stroke:#231f20;stroke-width:2;stroke-linecap:butt;stroke-linejoin:miter;stroke-miterlimit:4;stroke-dasharray:none;stroke-opacity:1"
     d="m 461,566.38965 c 0,0 0,-54 0,-54" /><path
     inkscape:connector-curvature="0"
     id="path4804"
     style="fill:none;stroke:#231f20;stroke-width:2;stroke-linecap:butt;stroke-linejoin:miter;stroke-miterlimit:4;stroke-dasharray:none;stroke-opacity:1"
     d="m 428,592.38965 c 0,0 0,-11.5 0,-11.5" /><path
     inkscape:connector-curvature="0"
     id="path4806"
     style="fill:none;stroke:#231f20;stroke-width:2;stroke-linecap:butt;stroke-linejoin:miter;stroke-miterlimit:4;stroke-dasharray:none;stroke-opacity:1"
     d="m 427.5,565.88965 c 0,0 0,-11.5 0,-11.5" /><text
     transform="scale(1,-1)"
     style="font-variant:normal;font-weight:normal;font-size:12px;font-family:Arial;-inkscape-font-specification:ArialMT;writing-mode:lr-tb;fill:#231f20;fill-opacity:1;fill-rule:nonzero;stroke:none"
     id="text4812"
     x="417"
     y="-582.38965"><tspan
       x="417"
       y="-582.38965"
       id="tspan4810">1</tspan></text><text
     transform="scale(1,-1)"
     style="font-variant:normal;font-weight:normal;font-size:12px;font-family:Arial;-inkscape-font-specification:ArialMT;writing-mode:lr-tb;fill:#231f20;fill-opacity:1;fill-rule:nonzero;stroke:none"
     id="text4816"
     x="449"
     y="-581.88965"><tspan
       x="449"
       y="-581.88965"
       id="tspan4814">2</tspan></text><text
     transform="scale(1,-1)"
     style="font-variant:normal;font-weight:normal;font-size:12px;font-family:Arial;-inkscape-font-specification:ArialMT;writing-mode:lr-tb;fill:#231f20;fill-opacity:1;fill-rule:nonzero;stroke:none"
     id="text4820"
     x="488"
     y="-581.38965"><tspan
       x="488"
       y="-581.38965"
       id="tspan4818">3</tspan></text><text
     transform="scale(1,-1)"
     style="font-variant:normal;font-weight:normal;font-size:12px;font-family:Arial;-inkscape-font-specification:ArialMT;writing-mode:lr-tb;fill:#231f20;fill-opacity:1;fill-rule:nonzero;stroke:none"
     id="text4824"
     x="520"
     y="-582.38965"><tspan
       x="520"
       y="-582.38965"
       id="tspan4822">4</tspan></text><path
     inkscape:connector-curvature="0"
     id="path4828"
     style="fill:none;stroke:#231f20;stroke-width:2;stroke-linecap:butt;stroke-linejoin:miter;stroke-miterlimit:4;stroke-dasharray:none;stroke-opacity:1"
     d="m 453.25,525.62891 c 0,0 -11.5,0.0215 -11.5,0.0215" /><path
     inkscape:connector-curvature="0"
     id="path4830"
     style="fill:none;stroke:#231f20;stroke-width:2;stroke-linecap:butt;stroke-linejoin:miter;stroke-miterlimit:4;stroke-dasharray:none;stroke-opacity:1"
     d="m 481.25,525.62891 c 0,0 -11.5,0.0215 -11.5,0.0215" /><text
     transform="scale(1,-1)"
     style="font-variant:normal;font-weight:normal;font-size:12px;font-family:Arial;-inkscape-font-specification:ArialMT;writing-mode:lr-tb;fill:#231f20;fill-opacity:1;fill-rule:nonzero;stroke:none"
     id="text4836"
     x="467"
     y="-530.38965"><tspan
       x="467"
       y="-530.38965"
       id="tspan4834">5</tspan></text></g>
<g
   id="g84797"
   transform="translate(235.13376,277.79077)"><g
     id="g8275"
     inkscape:export-xdpi="300"
     inkscape:export-ydpi="300"><g
   transform="translate(10.5,24)"
   inkscape:export-ydpi="300"
   inkscape:export-xdpi="300"
   id="g8104"><path
   inkscape:connector-curvature="0"
   id="path4840"
   style="fill:none;stroke:#231f20;stroke-width:2;stroke-linecap:butt;stroke-linejoin:miter;stroke-miterlimit:4;stroke-dasharray:none;stroke-opacity:1"
   d="m 493,410.38965 c 0,0 -87.5,0 -87.5,0 -16,0.5 -35.5,-14 -35.5,-30.5" /><path
   inkscape:connector-curvature="0"
   id="path4842"
   style="fill:none;stroke:#231f20;stroke-width:2;stroke-linecap:butt;stroke-linejoin:miter;stroke-miterlimit:4;stroke-dasharray:none;stroke-opacity:1"
   d="m 510,410.88965 c 0,0 42,0 42,0 19.5,0 25.35254,20.9668 20,30 -8,13.5 -53,14.5 -68,13.5 -15,-1 -42.5,-6.5 -42.5,-25.5 0,0 0,-11.5 0,-11.5" /><path
   inkscape:connector-curvature="0"
   id="path4844"
   style="fill:none;stroke:#231f20;stroke-width:2;stroke-linecap:butt;stroke-linejoin:miter;stroke-miterlimit:4;stroke-dasharray:none;stroke-opacity:1"
   d="m 502,428.88965 c 0,0 0,-32.5 0,-32.5" /><path
   inkscape:connector-curvature="0"
   id="path4846"
   style="fill:none;stroke:#231f20;stroke-width:2;stroke-linecap:butt;stroke-linejoin:miter;stroke-miterlimit:4;stroke-dasharray:none;stroke-opacity:1"
   d="m 533.5,428.88965 c 0,0 0,-11.5 0,-11.5" /><path
   inkscape:connector-curvature="0"
   id="path4848"
   style="fill:none;stroke:#231f20;stroke-width:2;stroke-linecap:butt;stroke-linejoin:miter;stroke-miterlimit:4;stroke-dasharray:none;stroke-opacity:1"
   d="m 533.5,404.38965 c 0,0 0,-11.5 0,-11.5" /><path
   inkscape:connector-curvature="0"
   id="path4850"
   style="fill:none;stroke:#231f20;stroke-width:2;stroke-linecap:butt;stroke-linejoin:miter;stroke-miterlimit:4;stroke-dasharray:none;stroke-opacity:1"
   d="m 462.5,401.88965 c 0,0 0,-54 0,-54 0.5,-11 -10.5,-31.5 -26.5,-31.5" /><path
   inkscape:connector-curvature="0"
   id="path4852"
   style="fill:none;stroke:#231f20;stroke-width:2;stroke-linecap:butt;stroke-linejoin:miter;stroke-miterlimit:4;stroke-dasharray:none;stroke-opacity:1"
   d="m 429.5,427.88965 c 0,0 0,-11.5 0,-11.5" /><path
   inkscape:connector-curvature="0"
   id="path4854"
   style="fill:none;stroke:#231f20;stroke-width:2;stroke-linecap:butt;stroke-linejoin:miter;stroke-miterlimit:4;stroke-dasharray:none;stroke-opacity:1"
   d="m 429,401.38965 c 0,0 0,-11.5 0,-11.5" /><text
   transform="scale(1,-1)"
   style="font-variant:normal;font-weight:normal;font-size:12px;font-family:Arial;-inkscape-font-specification:ArialMT;writing-mode:lr-tb;fill:#231f20;fill-opacity:1;fill-rule:nonzero;stroke:none"
   id="text4860"
   x="418.5"
   y="-417.88965"><tspan
     x="418.5"
     y="-417.88965"
     id="tspan4858">1</tspan></text>
<text
   transform="scale(1,-1)"
   style="font-variant:normal;font-weight:normal;font-size:12px;font-family:Arial;-inkscape-font-specification:ArialMT;writing-mode:lr-tb;fill:#231f20;fill-opacity:1;fill-rule:nonzero;stroke:none"
   id="text4864"
   x="450.5"
   y="-417.38965"><tspan
     x="450.5"
     y="-417.38965"
     id="tspan4862">2</tspan></text>
<text
   transform="scale(1,-1)"
   style="font-variant:normal;font-weight:normal;font-size:12px;font-family:Arial;-inkscape-font-specification:ArialMT;writing-mode:lr-tb;fill:#231f20;fill-opacity:1;fill-rule:nonzero;stroke:none"
   id="text4868"
   x="489.5"
   y="-416.88965"><tspan
     x="489.5"
     y="-416.88965"
     id="tspan4866">3</tspan></text>
<text
   transform="scale(1,-1)"
   style="font-variant:normal;font-weight:normal;font-size:12px;font-family:Arial;-inkscape-font-specification:ArialMT;writing-mode:lr-tb;fill:#231f20;fill-opacity:1;fill-rule:nonzero;stroke:none"
   id="text4872"
   x="521.5"
   y="-417.88965"><tspan
     x="521.5"
     y="-417.88965"
     id="tspan4870">4</tspan></text>
<path
   inkscape:connector-curvature="0"
   id="path4876"
   style="fill:none;stroke:#231f20;stroke-width:2;stroke-linecap:butt;stroke-linejoin:miter;stroke-miterlimit:4;stroke-dasharray:none;stroke-opacity:1"
   d="m 454.75,361.12891 c 0,0 -11.5,0.0215 -11.5,0.0215" /><path
   inkscape:connector-curvature="0"
   id="path4878"
   style="fill:none;stroke:#231f20;stroke-width:2;stroke-linecap:butt;stroke-linejoin:miter;stroke-miterlimit:4;stroke-dasharray:none;stroke-opacity:1"
   d="m 482.75,361.12891 c 0,0 -11.5,0.0215 -11.5,0.0215" /><text
   transform="scale(1,-1)"
   style="font-variant:normal;font-weight:normal;font-size:12px;font-family:Arial;-inkscape-font-specification:ArialMT;writing-mode:lr-tb;fill:#231f20;fill-opacity:1;fill-rule:nonzero;stroke:none"
   id="text4884"
   x="468.5"
   y="-365.88965"><tspan
     x="468.5"
     y="-365.88965"
     id="tspan4882">5</tspan></text>
<path
   inkscape:connector-curvature="0"
   id="path4888"
   style="fill:none;stroke:#231f20;stroke-width:2;stroke-linecap:butt;stroke-linejoin:miter;stroke-miterlimit:4;stroke-dasharray:none;stroke-opacity:1"
   d="m 370,361.88965 c 0.5,-16.5 15.5,-46.5 39.5,-46.5" /><path
   inkscape:connector-curvature="0"
   id="path4890"
   style="fill:none;stroke:#231f20;stroke-width:2;stroke-linecap:butt;stroke-linejoin:miter;stroke-miterlimit:4;stroke-dasharray:none;stroke-opacity:1"
   d="m 385.24902,369.49316 c 0,0 -32.49804,0.29297 -32.49804,0.29297" /><path
   inkscape:connector-curvature="0"
   id="path4892"
   style="fill:none;stroke:#231f20;stroke-width:2;stroke-linecap:butt;stroke-linejoin:miter;stroke-miterlimit:4;stroke-dasharray:none;stroke-opacity:1"
   d="m 423.5,331.38965 c 0,0 0,-32.5 0,-32.5" /></g><text
   y="-326.38965"
   x="421"
   id="text4898"
   style="font-variant:normal;font-weight:normal;font-size:12px;font-family:Arial;-inkscape-font-specification:ArialMT;writing-mode:lr-tb;fill:#231f20;fill-opacity:1;fill-rule:nonzero;stroke:none"
   transform="scale(1,-1)"><tspan
     id="tspan4896"
     y="-326.38965"
     x="421">6</tspan></text>
<text
   y="-377.88965"
   x="370"
   id="text4902"
   style="font-variant:normal;font-weight:normal;font-size:12px;font-family:Arial;-inkscape-font-specification:ArialMT;writing-mode:lr-tb;fill:#231f20;fill-opacity:1;fill-rule:nonzero;stroke:none"
   transform="scale(1,-1)"><tspan
     id="tspan4900"
     y="-377.88965"
     x="370">7</tspan></text>
</g></g><g
   id="g9049"
   inkscape:export-xdpi="300"
   inkscape:export-ydpi="300"
   transform="translate(213.28505,273.62911)"><g
   transform="translate(16.5,-1.5)"
   id="g8911"><path
   inkscape:connector-curvature="0"
   id="path4906"
   style="fill:none;stroke:#231f20;stroke-width:2;stroke-linecap:butt;stroke-linejoin:miter;stroke-miterlimit:4;stroke-dasharray:none;stroke-opacity:1"
   d="m 491.5,233.88965 c 0,0 -87.5,0 -87.5,0 -16,0.5 -35.5,-14 -35.5,-30.5" /><path
   inkscape:connector-curvature="0"
   id="path4908"
   style="fill:none;stroke:#231f20;stroke-width:2;stroke-linecap:butt;stroke-linejoin:miter;stroke-miterlimit:4;stroke-dasharray:none;stroke-opacity:1"
   d="m 508.5,234.38965 c 0,0 42,0 42,0 19.5,0 25.35254,20.9668 20,30 -8,13.5 -53,14.5 -68,13.5 -15,-1 -42.5,-6.5 -42.5,-25.5 0,0 0,-11.5 0,-11.5" /><path
   inkscape:connector-curvature="0"
   id="path4910"
   style="fill:none;stroke:#ed1c24;stroke-width:2;stroke-linecap:butt;stroke-linejoin:miter;stroke-miterlimit:4;stroke-dasharray:none;stroke-opacity:1"
   d="m 500.5,219.88965 c 0,0 0,32.5 0,32.5 0.5,19.5 30.5,17.5 31.5,0 0,0 0,-11.5 0,-11.5" /><path
   inkscape:connector-curvature="0"
   id="path4912"
   style="fill:none;stroke:#ed1c24;stroke-width:2;stroke-linecap:butt;stroke-linejoin:miter;stroke-miterlimit:4;stroke-dasharray:none;stroke-opacity:1"
   d="m 532,227.88965 c 0,0 0,-11.5 0,-11.5" /><path
   inkscape:connector-curvature="0"
   id="path4914"
   style="fill:none;stroke:#231f20;stroke-width:2;stroke-linecap:butt;stroke-linejoin:miter;stroke-miterlimit:4;stroke-dasharray:none;stroke-opacity:1"
   d="m 461,225.38965 c 0,0 0,-54 0,-54 0.5,-11 -10.5,-31.5 -26.5,-31.5" /><path
   inkscape:connector-curvature="0"
   id="path4916"
   style="fill:none;stroke:#231f20;stroke-width:2;stroke-linecap:butt;stroke-linejoin:miter;stroke-miterlimit:4;stroke-dasharray:none;stroke-opacity:1"
   d="m 428,251.38965 c 0,0 0,-11.5 0,-11.5" /><path
   inkscape:connector-curvature="0"
   id="path4918"
   style="fill:none;stroke:#231f20;stroke-width:2;stroke-linecap:butt;stroke-linejoin:miter;stroke-miterlimit:4;stroke-dasharray:none;stroke-opacity:1"
   d="m 427.5,224.88965 c 0,0 0,-11.5 0,-11.5" /><text
   transform="scale(1,-1)"
   style="font-variant:normal;font-weight:normal;font-size:12px;font-family:Arial;-inkscape-font-specification:ArialMT;writing-mode:lr-tb;fill:#231f20;fill-opacity:1;fill-rule:nonzero;stroke:none"
   id="text4924"
   x="417"
   y="-241.38965"><tspan
     x="417"
     y="-241.38965"
     id="tspan4922">1</tspan></text>
<text
   transform="scale(1,-1)"
   style="font-variant:normal;font-weight:normal;font-size:12px;font-family:Arial;-inkscape-font-specification:ArialMT;writing-mode:lr-tb;fill:#231f20;fill-opacity:1;fill-rule:nonzero;stroke:none"
   id="text4928"
   x="449"
   y="-240.88965"><tspan
     x="449"
     y="-240.88965"
     id="tspan4926">2</tspan></text>
<text
   transform="scale(1,-1)"
   style="font-variant:normal;font-weight:normal;font-size:12px;font-family:Arial;-inkscape-font-specification:ArialMT;writing-mode:lr-tb;fill:#231f20;fill-opacity:1;fill-rule:nonzero;stroke:none"
   id="text4932"
   x="488"
   y="-240.38965"><tspan
     x="488"
     y="-240.38965"
     id="tspan4930">3</tspan></text>
<text
   transform="scale(1,-1)"
   style="font-variant:normal;font-weight:normal;font-size:12px;font-family:Arial;-inkscape-font-specification:ArialMT;writing-mode:lr-tb;fill:#231f20;fill-opacity:1;fill-rule:nonzero;stroke:none"
   id="text4936"
   x="520"
   y="-241.38965"><tspan
     x="520"
     y="-241.38965"
     id="tspan4934">4</tspan></text>
<path
   inkscape:connector-curvature="0"
   id="path4940"
   style="fill:none;stroke:#231f20;stroke-width:2;stroke-linecap:butt;stroke-linejoin:miter;stroke-miterlimit:4;stroke-dasharray:none;stroke-opacity:1"
   d="m 453.25,184.62891 c 0,0 -11.5,0.0215 -11.5,0.0215" /><path
   inkscape:connector-curvature="0"
   id="path4942"
   style="fill:none;stroke:#231f20;stroke-width:2;stroke-linecap:butt;stroke-linejoin:miter;stroke-miterlimit:4;stroke-dasharray:none;stroke-opacity:1"
   d="m 481.25,184.62891 c 0,0 -11.5,0.0215 -11.5,0.0215" /><text
   transform="scale(1,-1)"
   style="font-variant:normal;font-weight:normal;font-size:12px;font-family:Arial;-inkscape-font-specification:ArialMT;writing-mode:lr-tb;fill:#231f20;fill-opacity:1;fill-rule:nonzero;stroke:none"
   id="text4948"
   x="467"
   y="-189.38965"><tspan
     x="467"
     y="-189.38965"
     id="tspan4946">5</tspan></text>
<path
   inkscape:connector-curvature="0"
   id="path4952"
   style="fill:none;stroke:#231f20;stroke-width:2;stroke-linecap:butt;stroke-linejoin:miter;stroke-miterlimit:4;stroke-dasharray:none;stroke-opacity:1"
   d="m 368.5,185.38965 c 0.5,-16.5 15.5,-46.5 39.5,-46.5" /><path
   inkscape:connector-curvature="0"
   id="path4954"
   style="fill:none;stroke:#231f20;stroke-width:2;stroke-linecap:butt;stroke-linejoin:miter;stroke-miterlimit:4;stroke-dasharray:none;stroke-opacity:1"
   d="m 383.74902,192.99316 c 0,0 -32.49804,0.29297 -32.49804,0.29297" /><path
   inkscape:connector-curvature="0"
   id="path4956"
   style="fill:none;stroke:#231f20;stroke-width:2;stroke-linecap:butt;stroke-linejoin:miter;stroke-miterlimit:4;stroke-dasharray:none;stroke-opacity:1"
   d="m 422,154.88965 c 0,0 0,-32.5 0,-32.5" /></g><text
   y="-124.38965"
   x="428.5"
   id="text4962"
   style="font-variant:normal;font-weight:normal;font-size:12px;font-family:Arial;-inkscape-font-specification:ArialMT;writing-mode:lr-tb;fill:#231f20;fill-opacity:1;fill-rule:nonzero;stroke:none"
   transform="scale(1,-1)"><tspan
     id="tspan4960"
     y="-124.38965"
     x="428.5">6</tspan></text>
<text
   y="-201.38965"
   x="371.5"
   id="text4966"
   style="font-variant:normal;font-weight:normal;font-size:12px;font-family:Arial;-inkscape-font-specification:ArialMT;writing-mode:lr-tb;fill:#231f20;fill-opacity:1;fill-rule:nonzero;stroke:none"
   transform="scale(1,-1)"><tspan
     id="tspan4964"
     y="-201.38965"
     x="371.5">7</tspan></text>
</g>









<g
   id="g84836"
   transform="translate(49.939914,13.525393)"><path
     inkscape:connector-curvature="0"
     id="path4970"
     style="fill:none;stroke:#231f20;stroke-width:2;stroke-linecap:butt;stroke-linejoin:miter;stroke-miterlimit:4;stroke-dasharray:none;stroke-opacity:1"
     d="m 406.42131,405.51769 c 0,0 -87.5,0 -87.5,0 -16,0.5 -35.5,-14 -35.5,-30.5"
     inkscape:export-xdpi="300"
     inkscape:export-ydpi="300" /><path
     inkscape:connector-curvature="0"
     id="path4972"
     style="fill:none;stroke:#231f20;stroke-width:2;stroke-linecap:butt;stroke-linejoin:miter;stroke-miterlimit:4;stroke-dasharray:none;stroke-opacity:1"
     d="m 423.42131,406.01769 c 0,0 42,0 42,0 19.5,0 25.35254,20.9668 20,30 -8,13.5 -53,14.5 -68,13.5 -15,-1 -42.5,-6.5 -42.5,-25.5 0,0 0,-11.5 0,-11.5"
     inkscape:export-xdpi="300"
     inkscape:export-ydpi="300" /><path
     inkscape:connector-curvature="0"
     id="path4974"
     style="fill:none;stroke:#ed1c24;stroke-width:2;stroke-linecap:butt;stroke-linejoin:miter;stroke-miterlimit:4;stroke-dasharray:none;stroke-opacity:1"
     d="m 415.42131,391.51769 c 0,0 0,32.5 0,32.5 0.5,19.5 30.5,17.5 31.5,0 0,0 0,-11.5 0,-11.5"
     inkscape:export-xdpi="300"
     inkscape:export-ydpi="300" /><path
     inkscape:connector-curvature="0"
     id="path4976"
     style="fill:none;stroke:#231f20;stroke-width:2;stroke-linecap:butt;stroke-linejoin:miter;stroke-miterlimit:4;stroke-dasharray:none;stroke-opacity:1"
     d="m 375.92131,397.01769 c 0,0 0,-54 0,-54 0.5,-11 -10.5,-31.5 -26.5,-31.5"
     inkscape:export-xdpi="300"
     inkscape:export-ydpi="300" /><path
     inkscape:connector-curvature="0"
     id="path4978"
     style="fill:none;stroke:#231f20;stroke-width:2;stroke-linecap:butt;stroke-linejoin:miter;stroke-miterlimit:4;stroke-dasharray:none;stroke-opacity:1"
     d="m 342.92131,423.01769 c 0,0 0,-11.5 0,-11.5"
     inkscape:export-xdpi="300"
     inkscape:export-ydpi="300" /><path
     inkscape:connector-curvature="0"
     id="path4980"
     style="fill:none;stroke:#231f20;stroke-width:2;stroke-linecap:butt;stroke-linejoin:miter;stroke-miterlimit:4;stroke-dasharray:none;stroke-opacity:1"
     d="m 342.42131,396.51769 c 0,0 0,-11.5 0,-11.5"
     inkscape:export-xdpi="300"
     inkscape:export-ydpi="300" /><text
     transform="scale(1,-1)"
     style="font-variant:normal;font-weight:normal;font-size:12px;font-family:Arial;-inkscape-font-specification:ArialMT;writing-mode:lr-tb;fill:#231f20;fill-opacity:1;fill-rule:nonzero;stroke:none"
     id="text4986"
     x="331.92133"
     y="-413.0177"
     inkscape:export-xdpi="300"
     inkscape:export-ydpi="300"><tspan
       x="331.92133"
       y="-413.0177"
       id="tspan4984">1</tspan></text><text
     transform="scale(1,-1)"
     style="font-variant:normal;font-weight:normal;font-size:12px;font-family:Arial;-inkscape-font-specification:ArialMT;writing-mode:lr-tb;fill:#231f20;fill-opacity:1;fill-rule:nonzero;stroke:none"
     id="text4990"
     x="363.92133"
     y="-412.5177"
     inkscape:export-xdpi="300"
     inkscape:export-ydpi="300"><tspan
       x="363.92133"
       y="-412.5177"
       id="tspan4988">2</tspan></text><text
     transform="scale(1,-1)"
     style="font-variant:normal;font-weight:normal;font-size:12px;font-family:Arial;-inkscape-font-specification:ArialMT;writing-mode:lr-tb;fill:#231f20;fill-opacity:1;fill-rule:nonzero;stroke:none"
     id="text4994"
     x="402.92133"
     y="-412.0177"
     inkscape:export-xdpi="300"
     inkscape:export-ydpi="300"><tspan
       x="402.92133"
       y="-412.0177"
       id="tspan4992">3</tspan></text><text
     transform="scale(1,-1)"
     style="font-variant:normal;font-weight:normal;font-size:12px;font-family:Arial;-inkscape-font-specification:ArialMT;writing-mode:lr-tb;fill:#231f20;fill-opacity:1;fill-rule:nonzero;stroke:none"
     id="text4998"
     x="434.92133"
     y="-413.0177"
     inkscape:export-xdpi="300"
     inkscape:export-ydpi="300"><tspan
       x="434.92133"
       y="-413.0177"
       id="tspan4996">4</tspan></text><path
     inkscape:connector-curvature="0"
     id="path5002"
     style="fill:none;stroke:#231f20;stroke-width:2;stroke-linecap:butt;stroke-linejoin:miter;stroke-miterlimit:4;stroke-dasharray:none;stroke-opacity:1"
     d="m 368.17131,356.25695 c 0,0 -11.5,0.0215 -11.5,0.0215"
     inkscape:export-xdpi="300"
     inkscape:export-ydpi="300" /><text
     transform="scale(1,-1)"
     style="font-variant:normal;font-weight:normal;font-size:12px;font-family:Arial;-inkscape-font-specification:ArialMT;writing-mode:lr-tb;fill:#231f20;fill-opacity:1;fill-rule:nonzero;stroke:none"
     id="text5008"
     x="381.92133"
     y="-361.0177"
     inkscape:export-xdpi="300"
     inkscape:export-ydpi="300"><tspan
       x="381.92133"
       y="-361.0177"
       id="tspan5006">5</tspan></text><path
     inkscape:connector-curvature="0"
     id="path5012"
     style="fill:none;stroke:#231f20;stroke-width:2;stroke-linecap:butt;stroke-linejoin:miter;stroke-miterlimit:4;stroke-dasharray:none;stroke-opacity:1"
     d="m 283.42131,357.01769 c 0.5,-16.5 15.5,-46.5 39.5,-46.5"
     inkscape:export-xdpi="300"
     inkscape:export-ydpi="300" /><path
     inkscape:connector-curvature="0"
     id="path5014"
     style="fill:none;stroke:#231f20;stroke-width:2;stroke-linecap:butt;stroke-linejoin:miter;stroke-miterlimit:4;stroke-dasharray:none;stroke-opacity:1"
     d="m 298.67033,364.6212 c 0,0 -32.49804,0.29297 -32.49804,0.29297"
     inkscape:export-xdpi="300"
     inkscape:export-ydpi="300" /><path
     inkscape:connector-curvature="0"
     id="path5016"
     style="fill:none;stroke:#231f20;stroke-width:2;stroke-linecap:butt;stroke-linejoin:miter;stroke-miterlimit:4;stroke-dasharray:none;stroke-opacity:1"
     d="m 336.92131,326.51769 c 0,0 0,-32.5 0,-32.5"
     inkscape:export-xdpi="300"
     inkscape:export-ydpi="300" /><text
     transform="scale(1,-1)"
     style="font-variant:normal;font-weight:normal;font-size:12px;font-family:Arial;-inkscape-font-specification:ArialMT;writing-mode:lr-tb;fill:#231f20;fill-opacity:1;fill-rule:nonzero;stroke:none"
     id="text5022"
     x="343.42133"
     y="-296.0177"
     inkscape:export-xdpi="300"
     inkscape:export-ydpi="300"><tspan
       x="343.42133"
       y="-296.0177"
       id="tspan5020">6</tspan></text><text
     transform="scale(1,-1)"
     style="font-variant:normal;font-weight:normal;font-size:12px;font-family:Arial;-inkscape-font-specification:ArialMT;writing-mode:lr-tb;fill:#231f20;fill-opacity:1;fill-rule:nonzero;stroke:none"
     id="text5026"
     x="268.42133"
     y="-373.0177"
     inkscape:export-xdpi="300"
     inkscape:export-ydpi="300"><tspan
       x="268.42133"
       y="-373.0177"
       id="tspan5024">7</tspan></text><path
     inkscape:connector-curvature="0"
     id="path5030"
     style="fill:none;stroke:#ed1c24;stroke-width:2;stroke-linecap:butt;stroke-linejoin:miter;stroke-miterlimit:4;stroke-dasharray:none;stroke-opacity:1"
     d="m 480.42131,353.51769 c 0,0 0,-27 0,-27"
     inkscape:export-xdpi="300"
     inkscape:export-ydpi="300" /><path
     inkscape:connector-curvature="0"
     id="path5032"
     style="fill:none;stroke:#ed1c24;stroke-width:2;stroke-linecap:butt;stroke-linejoin:miter;stroke-miterlimit:4;stroke-dasharray:none;stroke-opacity:1"
     d="m 489.48332,337.43663 c 27.83252,-4.2373 41.57276,-30.53515 30.93799,-50.41894 -14.62891,-27.34961 -88.5,-4 -102,17 -9.74854,15.16504 -3,50.5 -31.5,51.5"
     inkscape:export-xdpi="300"
     inkscape:export-ydpi="300" /><path
     inkscape:connector-curvature="0"
     id="path5034"
     style="fill:none;stroke:#ed1c24;stroke-width:2;stroke-linecap:butt;stroke-linejoin:miter;stroke-miterlimit:4;stroke-dasharray:none;stroke-opacity:1"
     d="m 446.42131,393.51769 c 0,-18.5 4.95361,-53.77637 26,-54"
     inkscape:export-xdpi="300"
     inkscape:export-ydpi="300" /><text
     transform="scale(1,-1)"
     style="font-variant:normal;font-weight:normal;font-size:12px;font-family:Arial;-inkscape-font-specification:ArialMT;writing-mode:lr-tb;fill:#231f20;fill-opacity:1;fill-rule:nonzero;stroke:none"
     id="text5040"
     x="488.92133"
     y="-343.5177"
     inkscape:export-xdpi="300"
     inkscape:export-ydpi="300"><tspan
       x="488.92133"
       y="-343.5177"
       id="tspan5038">a</tspan></text><text
     transform="scale(1,-1)"
     style="font-variant:normal;font-weight:normal;font-size:12px;font-family:Arial;-inkscape-font-specification:ArialMT;writing-mode:lr-tb;fill:#231f20;fill-opacity:1;fill-rule:nonzero;stroke:none"
     id="text5044"
     x="527.42133"
     y="-314.0177"
     inkscape:export-xdpi="300"
     inkscape:export-ydpi="300"><tspan
       x="527.42133"
       y="-314.0177"
       id="tspan5042">b</tspan></text><text
     transform="scale(1,-1)"
     style="font-variant:normal;font-weight:normal;font-size:12px;font-family:Arial;-inkscape-font-specification:ArialMT;writing-mode:lr-tb;fill:#231f20;fill-opacity:1;fill-rule:nonzero;stroke:none"
     id="text5048"
     x="431.42133"
     y="-304.0177"
     inkscape:export-xdpi="300"
     inkscape:export-ydpi="300"><tspan
       x="431.42133"
       y="-304.0177"
       id="tspan5046">c</tspan></text><path
     inkscape:connector-curvature="0"
     id="path5052"
     style="fill:none;stroke:#ed1c24;stroke-width:2;stroke-linecap:butt;stroke-linejoin:miter;stroke-miterlimit:4;stroke-dasharray:none;stroke-opacity:1"
     d="m 550.92131,306.01769 c 0,0 -15.83398,0.49512 -15.83398,0.49512"
     inkscape:export-xdpi="300"
     inkscape:export-ydpi="300" /><path
     inkscape:connector-curvature="0"
     id="path5054"
     style="fill:none;stroke:#ed1c24;stroke-width:2;stroke-linecap:butt;stroke-linejoin:miter;stroke-miterlimit:4;stroke-dasharray:none;stroke-opacity:1"
     d="m 510.92131,307.51769 c 0,0 -16.5,1 -16.5,1"
     inkscape:export-xdpi="300"
     inkscape:export-ydpi="300" /><path
     inkscape:connector-curvature="0"
     id="path5056"
     style="fill:none;stroke:#ed1c24;stroke-width:2;stroke-linecap:butt;stroke-linejoin:miter;stroke-miterlimit:4;stroke-dasharray:none;stroke-opacity:1"
     d="m 445.25481,305.02257 c 0,0 -4.667,-10.50976 -4.667,-10.50976"
     inkscape:export-xdpi="300"
     inkscape:export-ydpi="300" /><path
     inkscape:connector-curvature="0"
     id="path5058"
     style="fill:none;stroke:#ed1c24;stroke-width:2;stroke-linecap:butt;stroke-linejoin:miter;stroke-miterlimit:4;stroke-dasharray:none;stroke-opacity:1"
     d="m 434.75481,281.52257 c 0,0 -4.667,-10.50976 -4.667,-10.50976"
     inkscape:export-xdpi="300"
     inkscape:export-ydpi="300" /></g><g
   id="g10166"
   inkscape:export-xdpi="300"
   inkscape:export-ydpi="300"
   transform="translate(46.818669,99.879828)"><path
   d="m 200,533.88965 c 0,0 -87.5,0 -87.5,0 -16,0.5 -35.5,-14 -35.5,-30.5"
   style="fill:none;stroke:#231f20;stroke-width:2;stroke-linecap:butt;stroke-linejoin:miter;stroke-miterlimit:4;stroke-dasharray:none;stroke-opacity:1"
   id="path5060"
   inkscape:connector-curvature="0" /><path
   d="m 217,534.38965 c 0,0 42,0 42,0 19.5,0 25.35254,20.9668 20,30 -8,13.5 -53,14.5 -68,13.5 -15,-1 -42.5,-6.5 -42.5,-25.5 0,0 0,-11.5 0,-11.5"
   style="fill:none;stroke:#231f20;stroke-width:2;stroke-linecap:butt;stroke-linejoin:miter;stroke-miterlimit:4;stroke-dasharray:none;stroke-opacity:1"
   id="path5062"
   inkscape:connector-curvature="0" /><path
   d="m 240.5,540.88965 c 0,0 0,11.5 0,11.5 -1,17.5 -31,19.5 -31.5,0 0,0 0,-32.5 0,-32.5 5.5,-43.5 37.66699,-70.49024 29.8335,-86.49512"
   style="fill:none;stroke:#ed1c24;stroke-width:2;stroke-linecap:butt;stroke-linejoin:miter;stroke-miterlimit:4;stroke-dasharray:none;stroke-opacity:1"
   id="path5064"
   inkscape:connector-curvature="0" /><path
   d="m 169.5,525.38965 c 0,0 0,-54 0,-54 0.5,-11 -10.5,-31.5 -26.5,-31.5"
   style="fill:none;stroke:#231f20;stroke-width:2;stroke-linecap:butt;stroke-linejoin:miter;stroke-miterlimit:4;stroke-dasharray:none;stroke-opacity:1"
   id="path5066"
   inkscape:connector-curvature="0" /><text
   y="-541.38965"
   x="125.5"
   id="text5072"
   style="font-variant:normal;font-weight:normal;font-size:12px;font-family:Arial;-inkscape-font-specification:ArialMT;writing-mode:lr-tb;fill:#231f20;fill-opacity:1;fill-rule:nonzero;stroke:none"
   transform="scale(1,-1)"><tspan
     id="tspan5070"
     y="-541.38965"
     x="125.5">1</tspan></text>
<text
   y="-540.88965"
   x="157.5"
   id="text5076"
   style="font-variant:normal;font-weight:normal;font-size:12px;font-family:Arial;-inkscape-font-specification:ArialMT;writing-mode:lr-tb;fill:#231f20;fill-opacity:1;fill-rule:nonzero;stroke:none"
   transform="scale(1,-1)"><tspan
     id="tspan5074"
     y="-540.88965"
     x="157.5">2</tspan></text>
<text
   y="-540.38965"
   x="196.5"
   id="text5080"
   style="font-variant:normal;font-weight:normal;font-size:12px;font-family:Arial;-inkscape-font-specification:ArialMT;writing-mode:lr-tb;fill:#231f20;fill-opacity:1;fill-rule:nonzero;stroke:none"
   transform="scale(1,-1)"><tspan
     id="tspan5078"
     y="-540.38965"
     x="196.5">3</tspan></text>
<text
   y="-541.38965"
   x="228.5"
   id="text5084"
   style="font-variant:normal;font-weight:normal;font-size:12px;font-family:Arial;-inkscape-font-specification:ArialMT;writing-mode:lr-tb;fill:#231f20;fill-opacity:1;fill-rule:nonzero;stroke:none"
   transform="scale(1,-1)"><tspan
     id="tspan5082"
     y="-541.38965"
     x="228.5">4</tspan></text>
<path
   d="m 161.75,484.62891 c 0,0 -11.5,0.0215 -11.5,0.0215 -11.75,0.23926 -20.25,-12.26074 -19.75,-30.76074 0,0 0,-58.5 0,-58.5"
   style="fill:none;stroke:#ed1c24;stroke-width:2;stroke-linecap:butt;stroke-linejoin:miter;stroke-miterlimit:4;stroke-dasharray:none;stroke-opacity:1"
   id="path5088"
   inkscape:connector-curvature="0" /><text
   y="-489.38965"
   x="175.5"
   id="text5094"
   style="font-variant:normal;font-weight:normal;font-size:12px;font-family:Arial;-inkscape-font-specification:ArialMT;writing-mode:lr-tb;fill:#231f20;fill-opacity:1;fill-rule:nonzero;stroke:none"
   transform="scale(1,-1)"><tspan
     id="tspan5092"
     y="-489.38965"
     x="175.5">5</tspan></text>
<path
   d="m 77,485.38965 c 0.5,-16.5 15.5,-46.5 39.5,-46.5"
   style="fill:none;stroke:#231f20;stroke-width:2;stroke-linecap:butt;stroke-linejoin:miter;stroke-miterlimit:4;stroke-dasharray:none;stroke-opacity:1"
   id="path5098"
   inkscape:connector-curvature="0" /><path
   d="m 136,524.88965 c 0,0 0,-11.5 0,-11.5 -0.5,-11 -23.00195,-19.79297 -43.75098,-20.39649 0,0 -32.49804,0.29297 -32.49804,0.29297 C 43.5,493.88965 40,476.38965 40.5,461.88965 c 0.5,-14.5 33,-73 92.5,-73.5 59.5,-0.5 83.33301,-2.00977 90.6665,10.99512 0,0 4.667,10.50976 4.667,10.50976"
   style="fill:none;stroke:#ed1c24;stroke-width:2;stroke-linecap:butt;stroke-linejoin:miter;stroke-miterlimit:4;stroke-dasharray:none;stroke-opacity:1"
   id="path5100"
   inkscape:connector-curvature="0" /><text
   y="-424.38965"
   x="137"
   id="text5106"
   style="font-variant:normal;font-weight:normal;font-size:12px;font-family:Arial;-inkscape-font-specification:ArialMT;writing-mode:lr-tb;fill:#231f20;fill-opacity:1;fill-rule:nonzero;stroke:none"
   transform="scale(1,-1)"><tspan
     id="tspan5104"
     y="-424.38965"
     x="137">6</tspan></text>
<text
   y="-501.38965"
   x="62"
   id="text5110"
   style="font-variant:normal;font-weight:normal;font-size:12px;font-family:Arial;-inkscape-font-specification:ArialMT;writing-mode:lr-tb;fill:#231f20;fill-opacity:1;fill-rule:nonzero;stroke:none"
   transform="scale(1,-1)"><tspan
     id="tspan5108"
     y="-501.38965"
     x="62">7</tspan></text>
<path
   d="m 304.5,435.88965 c 0,0 -16.5,1 -16.5,1 -9,1 -14,9 -14,18 0,0 0,27 0,27 0.5,19 22.32715,52.58349 26.5,67 5.5,19 -3.5,37 -34,46.5 -23.41113,7.29199 -129,4.5 -130,-44 0,0 0,-11.5 0,-11.5"
   style="fill:none;stroke:#ed1c24;stroke-width:2;stroke-linecap:butt;stroke-linejoin:miter;stroke-miterlimit:4;stroke-dasharray:none;stroke-opacity:1"
   id="path5114"
   inkscape:connector-curvature="0" /><path
   d="m 283.0625,465.80859 c 27.83203,-4.2373 41.57227,-30.53515 30.9375,-50.41894 -14.62891,-27.34961 -88.5,-4 -102,17 -9.74854,15.16504 -3,50.5 -31.5,51.5"
   style="fill:none;stroke:#ed1c24;stroke-width:2;stroke-linecap:butt;stroke-linejoin:miter;stroke-miterlimit:4;stroke-dasharray:none;stroke-opacity:1"
   id="path5116"
   inkscape:connector-curvature="0" /><path
   d="m 240,521.88965 c 0,-18.5 4.95313,-53.77637 26,-54"
   style="fill:none;stroke:#ed1c24;stroke-width:2;stroke-linecap:butt;stroke-linejoin:miter;stroke-miterlimit:4;stroke-dasharray:none;stroke-opacity:1"
   id="path5118"
   inkscape:connector-curvature="0" /><text
   y="-471.88965"
   x="282.5"
   id="text5124"
   style="font-variant:normal;font-weight:normal;font-size:12px;font-family:Arial;-inkscape-font-specification:ArialMT;writing-mode:lr-tb;fill:#231f20;fill-opacity:1;fill-rule:nonzero;stroke:none"
   transform="scale(1,-1)"><tspan
     id="tspan5122"
     y="-471.88965"
     x="282.5">a</tspan></text>
<text
   y="-442.38965"
   x="321"
   id="text5128"
   style="font-variant:normal;font-weight:normal;font-size:12px;font-family:Arial;-inkscape-font-specification:ArialMT;writing-mode:lr-tb;fill:#231f20;fill-opacity:1;fill-rule:nonzero;stroke:none"
   transform="scale(1,-1)"><tspan
     id="tspan5126"
     y="-442.38965"
     x="321">b</tspan></text>
<text
   y="-432.38965"
   x="225"
   id="text5132"
   style="font-variant:normal;font-weight:normal;font-size:12px;font-family:Arial;-inkscape-font-specification:ArialMT;writing-mode:lr-tb;fill:#231f20;fill-opacity:1;fill-rule:nonzero;stroke:none"
   transform="scale(1,-1)"><tspan
     id="tspan5130"
     y="-432.38965"
     x="225">c</tspan></text>
<path
   d="m 328.66602,434.88477 c 0,0 15.83398,-0.49512 15.83398,-0.49512 10.5,0 15.59082,-13.73633 11,-27 -9,-26 -99,-49.5 -134,-49.5 -35,0 -91.5,4.5 -91.5,19.5"
   style="fill:none;stroke:#ed1c24;stroke-width:2;stroke-linecap:butt;stroke-linejoin:miter;stroke-miterlimit:4;stroke-dasharray:none;stroke-opacity:1"
   id="path5136"
   inkscape:connector-curvature="0" /><path
   d="m 238.8335,433.39453 c 0,0 -4.667,-10.50976 -4.667,-10.50976"
   style="fill:none;stroke:#ed1c24;stroke-width:2;stroke-linecap:butt;stroke-linejoin:miter;stroke-miterlimit:4;stroke-dasharray:none;stroke-opacity:1"
   id="path5138"
   inkscape:connector-curvature="0" /></g><text
   xml:space="preserve"
   style="font-size:20px;line-height:1.25;font-family:'Cambria Math';-inkscape-font-specification:'Cambria Math';stroke-width:0.75"
   x="105.09532"
   y="-718.95496"
   id="text392"
   transform="scale(1,-1)"><tspan
     sodipodi:role="line"
     id="tspan390"
     x="105.09532"
     y="-718.95496"
     style="stroke-width:0.75">a.</tspan></text><text
   xml:space="preserve"
   style="font-size:20px;line-height:1.25;font-family:'Cambria Math';-inkscape-font-specification:'Cambria Math';stroke-width:0.75"
   x="269.48087"
   y="-721.55597"
   id="text396"
   transform="scale(1,-1)"><tspan
     sodipodi:role="line"
     id="tspan394"
     x="269.48087"
     y="-721.55597"
     style="stroke-width:0.75">b.</tspan></text><text
   xml:space="preserve"
   style="font-size:20px;line-height:1.25;font-family:'Cambria Math';-inkscape-font-specification:'Cambria Math';stroke-width:0.75"
   x="476.52344"
   y="-685.66168"
   id="text400"
   transform="scale(1,-1)"><tspan
     sodipodi:role="line"
     id="tspan398"
     x="476.52344"
     y="-685.66168"
     style="stroke-width:0.75">c.</tspan></text><text
   xml:space="preserve"
   style="font-size:20px;line-height:1.25;font-family:'Cambria Math';-inkscape-font-specification:'Cambria Math';stroke-width:0.75"
   x="592.52966"
   y="-603.98907"
   id="text404"
   transform="scale(1,-1)"><tspan
     sodipodi:role="line"
     id="tspan402"
     x="592.52966"
     y="-603.98907"
     style="stroke-width:0.75">d.</tspan></text><text
   xml:space="preserve"
   style="font-size:20px;line-height:1.25;font-family:'Cambria Math';-inkscape-font-specification:'Cambria Math';stroke-width:0.75"
   x="571.20117"
   y="-511.39218"
   id="text408"
   transform="scale(1,-1)"><tspan
     sodipodi:role="line"
     id="tspan406"
     x="571.20117"
     y="-511.39218"
     style="stroke-width:0.75">A</tspan></text><text
   xml:space="preserve"
   style="font-size:20px;line-height:1.25;font-family:'Cambria Math';-inkscape-font-specification:'Cambria Math';stroke-width:0.75"
   x="479.12445"
   y="-491.6243"
   id="text412"
   transform="scale(1,-1)"><tspan
     sodipodi:role="line"
     id="tspan410"
     x="479.12445"
     y="-491.6243"
     style="stroke-width:0.75">B</tspan></text><text
   xml:space="preserve"
   style="font-size:20px;line-height:1.25;font-family:'Cambria Math';-inkscape-font-specification:'Cambria Math';stroke-width:0.75"
   x="397.97211"
   y="-572.77667"
   id="text416"
   transform="scale(1,-1)"><tspan
     sodipodi:role="line"
     id="tspan414"
     x="397.97211"
     y="-572.77667"
     style="stroke-width:0.75">C</tspan></text></g></svg>
