<?xml version="1.0" encoding="UTF-8" standalone="no"?>
<svg
   xmlns:dc="http://purl.org/dc/elements/1.1/"
   xmlns:cc="http://creativecommons.org/ns#"
   xmlns:rdf="http://www.w3.org/1999/02/22-rdf-syntax-ns#"
   xmlns:svg="http://www.w3.org/2000/svg"
   xmlns="http://www.w3.org/2000/svg"
   xmlns:sodipodi="http://sodipodi.sourceforge.net/DTD/sodipodi-0.dtd"
   xmlns:inkscape="http://www.inkscape.org/namespaces/inkscape"
   version="1.1"
   id="svg2"
   xml:space="preserve"
   width="688.32709"
   height="502.89697"
   viewBox="0 0 688.32708 502.89699"
   sodipodi:docname="majamétabol2.svg"
   inkscape:version="1.0.2-2 (e86c870879, 2021-01-15)"><metadata
     id="metadata8"><rdf:RDF><cc:Work
         rdf:about=""><dc:format>image/svg+xml</dc:format><dc:type
           rdf:resource="http://purl.org/dc/dcmitype/StillImage" /><dc:title></dc:title></cc:Work></rdf:RDF></metadata><defs
     id="defs6"><marker
       style="overflow:visible"
       id="Arrow1Lstart"
       refX="0.0"
       refY="0.0"
       orient="auto"
       inkscape:stockid="Arrow1Lstart"
       inkscape:isstock="true"><path
         transform="scale(0.8) translate(12.5,0)"
         style="fill-rule:evenodd;stroke:#000000;stroke-width:1.0pt"
         d="M 0.0,0.0 L 5.0,-5.0 L -12.5,0.0 L 5.0,5.0 L 0.0,0.0 z "
         id="path2553" /></marker></defs><sodipodi:namedview
     pagecolor="#ffffff"
     bordercolor="#666666"
     borderopacity="1"
     objecttolerance="10"
     gridtolerance="10"
     guidetolerance="10"
     inkscape:pageopacity="0"
     inkscape:pageshadow="2"
     inkscape:window-width="1920"
     inkscape:window-height="1001"
     id="namedview4"
     showgrid="false"
     inkscape:zoom="1.0439397"
     inkscape:cx="313.85507"
     inkscape:cy="367.43134"
     inkscape:window-x="-9"
     inkscape:window-y="-9"
     inkscape:window-maximized="1"
     inkscape:current-layer="g10"
     inkscape:document-rotation="0"
     fit-margin-top="10"
     lock-margins="true"
     fit-margin-left="10"
     fit-margin-right="10"
     fit-margin-bottom="10" /><g
     id="g10"
     inkscape:groupmode="layer"
     inkscape:label="majamétabol2"
     transform="matrix(1.3333333,0,0,-1.3333333,-60.723772,916.5579)"><path
       inkscape:connector-curvature="0"
       id="path14"
       style="fill:none;stroke:#231f20;stroke-width:2;stroke-linecap:butt;stroke-linejoin:bevel;stroke-miterlimit:10;stroke-dasharray:none;stroke-opacity:1"
       d="m 272.70605,589.83496 c -1.1914,16.5044 -14.60839,29.27149 -30.76171,29.27149 -17.02588,0 -30.84473,-14.15772 -30.84473,-31.60206 0,-13.80224 8.74414,-26.0083 21.59668,-30.14697 m 8.89404,-1.45117 c 0.11817,-0.002 0.23633,-0.004 0.35401,-0.004 15.15966,0 28.07226,11.28711 30.46093,26.62403 M 259.28955,609.229 c -4.87891,-5.75048 -7.56641,-13.11377 -7.56641,-20.73291 0,-8.16113 3.08106,-16.00634 8.59961,-21.8916 m 6.24073,-5.12304 c 4.82422,-3.00098 10.36132,-4.58692 16.00488,-4.58692 17.02539,0 30.84375,14.15723 30.84375,31.60156 0,17.44385 -13.81836,31.60157 -30.84375,31.60157 -6.55078,0 -12.93262,-2.13721 -18.21777,-6.10059 m 32.12207,-49.57227 c -4.08399,13.09375 -15.96192,21.98096 -29.37989,21.98096 -3.93164,0 -7.82714,-0.77099 -11.47705,-2.26904 m -6.70117,-3.80225 c -7.95996,-5.94922 -12.66699,-15.43603 -12.66699,-25.53076 0,-17.44531 13.81836,-31.60156 30.84521,-31.60156 17.02637,0 30.84473,14.15625 30.84473,31.60156 0,0.17774 -0.002,0.35645 -0.004,0.53418" /><path
       d="m 419.77832,613.98291 c 7.33398,5 8.88867,5.6665 18,5.6665 16.2002,0 28.83301,-15.73046 28.83301,-32.6665 0,-16.93603 -13.13281,-30.66553 -29.33301,-30.66553 -13.37988,0 -24.66797,9.36524 -28.19336,22.16797"
       style="fill:none;stroke:#231f20;stroke-width:2;stroke-linecap:butt;stroke-linejoin:bevel;stroke-miterlimit:10;stroke-dasharray:none;stroke-opacity:1"
       id="path16"
       inkscape:connector-curvature="0" /><path
       d="m 406.1123,586.64941 c 0,7.41065 2.81446,16.36573 7,21.667"
       style="fill:none;stroke:#231f20;stroke-width:2;stroke-linecap:butt;stroke-linejoin:bevel;stroke-miterlimit:10;stroke-dasharray:none;stroke-opacity:1"
       id="path18"
       inkscape:connector-curvature="0" /><path
       d="m 415.0752,562.37109 c -5.41016,-3.47363 -12.00196,-5.38769 -18.62989,-5.38769 -16.20019,0 -29.33301,13.72949 -29.33301,30.66553 0,16.93603 13.13282,30.6665 29.33301,30.6665 16.2002,0 31,-11.33252 31.66699,-30.99902"
       style="fill:none;stroke:#231f20;stroke-width:2;stroke-linecap:butt;stroke-linejoin:bevel;stroke-miterlimit:10;stroke-dasharray:none;stroke-opacity:1"
       id="path20"
       inkscape:connector-curvature="0" /><path
       d="m 427.1123,578.98291 c -1.58105,-7.10498 -0.66699,-7.3335 -6.66699,-12.3335"
       style="fill:none;stroke:#231f20;stroke-width:2;stroke-linecap:butt;stroke-linejoin:bevel;stroke-miterlimit:10;stroke-dasharray:none;stroke-opacity:1"
       id="path22"
       inkscape:connector-curvature="0" /><path
       d="m 450.11133,554.31543 c 0,-16.93555 -13.13281,-30.66504 -29.33301,-30.66504 -16.20019,0 -29.33398,13.72949 -29.33398,30.66504"
       style="fill:none;stroke:#231f20;stroke-width:2;stroke-linecap:butt;stroke-linejoin:bevel;stroke-miterlimit:10;stroke-dasharray:none;stroke-opacity:1"
       id="path24"
       inkscape:connector-curvature="0" /><path
       d="m 392.04004,560.49609 c 2.73633,13.97412 14.5625,24.48633 28.73828,24.48633 13.05957,0 24.12598,-8.92334 27.92578,-21.25488"
       style="fill:none;stroke:#231f20;stroke-width:2;stroke-linecap:butt;stroke-linejoin:bevel;stroke-miterlimit:10;stroke-dasharray:none;stroke-opacity:1"
       id="path26"
       inkscape:connector-curvature="0" /><path
       inkscape:connector-curvature="0"
       id="path28"
       style="fill:none;stroke:#231f20;stroke-width:2;stroke-linecap:round;stroke-linejoin:bevel;stroke-miterlimit:10;stroke-dasharray:none;stroke-opacity:1"
       d="m 118.40918,589.37158 c 0,-16.0791 -13.03467,-29.11377 -29.11426,-29.11377 -16.0791,0 -29.11377,13.03467 -29.11377,29.11377 0,16.07959 13.03467,29.11426 29.11377,29.11426 16.07959,0 29.11426,-13.03467 29.11426,-29.11426 z" /><path
       inkscape:connector-curvature="0"
       id="path30"
       style="fill:none;stroke:#231f20;stroke-width:2;stroke-linecap:round;stroke-linejoin:bevel;stroke-miterlimit:10;stroke-dasharray:none;stroke-opacity:1"
       d="m 155.11816,586.84033 c 0,-16.0791 -13.03515,-29.11426 -29.11425,-29.11426 -16.07911,0 -29.11377,13.03516 -29.11377,29.11426 0,16.07959 13.03466,29.11426 29.11377,29.11426 16.0791,0 29.11425,-13.03467 29.11425,-29.11426 z" /><path
       inkscape:connector-curvature="0"
       id="path32"
       style="fill:none;stroke:#231f20;stroke-width:2;stroke-linecap:round;stroke-linejoin:bevel;stroke-miterlimit:10;stroke-dasharray:none;stroke-opacity:1"
       d="m 137.39648,553.92871 c 0,-16.0791 -13.03515,-29.11426 -29.11425,-29.11426 -16.0791,0 -29.11377,13.03516 -29.11377,29.11426 0,16.07959 13.03467,29.11426 29.11377,29.11426 16.0791,0 29.11425,-13.03467 29.11425,-29.11426 z" /><path
       inkscape:connector-curvature="0"
       id="path34"
       style="fill:none;stroke:#231f20;stroke-width:2;stroke-linecap:round;stroke-linejoin:bevel;stroke-miterlimit:10;stroke-dasharray:none;stroke-opacity:1"
       d="m 153.71533,418.38965 c 10.96094,-23.33789 9.8374,-63.44238 -2.5,-62 -11.45605,1.33887 -12.53857,11.16211 -23.5,34.5 -10.96094,23.33496 -27.5,36 -18.5,48.5 6.74024,9.36133 33.53858,2.33447 44.5,-21 z" /><path
       inkscape:connector-curvature="0"
       id="path36"
       style="fill:none;stroke:#231f20;stroke-width:2;stroke-linecap:round;stroke-linejoin:bevel;stroke-miterlimit:10;stroke-dasharray:none;stroke-opacity:1"
       d="m 96.71533,393.88965 c -13.5,-23.5 -14.0376,-40.49805 -30,-37.5 -11.33594,2.1289 -19.50928,36.65039 -4.5,59.5 15.00977,22.84668 40.75196,28.06982 50.39258,21.73633 9.64014,-6.33301 -2.27588,-20.03321 -15.89258,-43.73633 z" /><path
       inkscape:connector-curvature="0"
       id="path38"
       style="fill:none;stroke:#231f20;stroke-width:2;stroke-linecap:round;stroke-linejoin:bevel;stroke-miterlimit:10;stroke-dasharray:none;stroke-opacity:1"
       d="m 111.71533,373.88965 c 16.39942,-0.2461 39.5,-3.5 42.09668,-16.34961 2.28467,-11.30566 -21.29541,-22.01465 -45.59668,-21.65039 -24.29931,0.36523 -44.17334,6.96582 -44,18.5 0.17334,11.5332 23.20069,19.86426 47.5,19.5 z" /><path
       inkscape:connector-curvature="0"
       id="path40"
       style="fill:none;stroke:#231f20;stroke-width:2;stroke-linecap:butt;stroke-linejoin:bevel;stroke-miterlimit:10;stroke-dasharray:none;stroke-opacity:1"
       d="m 263.86719,421.41162 c -3.07031,6.24024 -3.90137,11.62402 -0.0459,16.97803 6.74023,9.36133 33.53906,2.33398 44.5,-21 8.91113,-18.97363 9.83496,-49.02832 3.24023,-58.83106" /><path
       inkscape:connector-curvature="0"
       id="path42"
       style="fill:none;stroke:#231f20;stroke-width:2;stroke-linecap:butt;stroke-linejoin:bevel;stroke-miterlimit:10;stroke-dasharray:none;stroke-opacity:1"
       d="m 304.36719,355.61523 c -10.11621,2.00391 -11.56739,11.9629 -22.0459,34.27442 -4.18555,8.91015 -9.18359,16.26465 -13.26367,22.64844" /><path
       inkscape:connector-curvature="0"
       id="path44"
       style="fill:none;stroke:#231f20;stroke-width:2;stroke-linecap:butt;stroke-linejoin:bevel;stroke-miterlimit:10;stroke-dasharray:none;stroke-opacity:1"
       d="m 237.55371,364.76367 c -3.90625,-7.17969 -8.03516,-10.91308 -16.23242,-9.37402 -11.33594,2.1289 -19.50977,36.65039 -4.5,59.5 11.70019,17.81006 29.92285,24.91064 41.95605,24.17529" /><path
       inkscape:connector-curvature="0"
       id="path46"
       style="fill:none;stroke:#231f20;stroke-width:2;stroke-linecap:butt;stroke-linejoin:bevel;stroke-miterlimit:10;stroke-dasharray:none;stroke-opacity:1"
       d="m 268.29395,435.80811 c 7.57812,-6.65772 -3.91602,-20.18897 -16.97266,-42.91846 -3.75,-6.52637 -6.49902,-12.55176 -8.85742,-17.78613" /><path
       inkscape:connector-curvature="0"
       id="path48"
       style="fill:none;stroke:#231f20;stroke-width:2;stroke-linecap:butt;stroke-linejoin:bevel;stroke-miterlimit:10;stroke-dasharray:none;stroke-opacity:1"
       d="m 222.61426,361.08203 c 7.53418,7.34668 25.2539,12.08399 43.70703,11.80762 6.05371,-0.0908 13.02148,-0.5918 19.5332,-1.83496" /><path
       inkscape:connector-curvature="0"
       id="path50"
       style="fill:none;stroke:#231f20;stroke-width:2;stroke-linecap:butt;stroke-linejoin:bevel;stroke-miterlimit:10;stroke-dasharray:none;stroke-opacity:1"
       d="m 296.24316,368.16699 c 6.34278,-2.5 11.08008,-6.21094 12.17481,-11.62695 2.28418,-11.30566 -21.2959,-22.01465 -45.59668,-21.65039 -22.19922,0.33398 -40.70508,5.87207 -43.60645,15.62109" /><g
       id="g2835"><path
         d="m 447.09766,368.15039 c 3.77734,-5.58398 7.96777,-8.86523 14.40039,-8.25 11.4834,1.09766 18.93261,27.78223 4.3125,49.0166 -11.75098,17.06446 -36.78614,32.85205 -48.75098,32.49121"
         style="fill:none;stroke:#231f20;stroke-width:2;stroke-linecap:butt;stroke-linejoin:bevel;stroke-miterlimit:10;stroke-dasharray:none;stroke-opacity:1"
         id="path52"
         inkscape:connector-curvature="0" /><path
         d="m 410.3252,436.20264 c -2.97168,-9.48877 4.86621,-15.88379 18.62597,-35.86573 5.47754,-7.95507 9.26563,-15.83105 12.66992,-22.49316"
         style="fill:none;stroke:#231f20;stroke-width:2;stroke-linecap:butt;stroke-linejoin:bevel;stroke-miterlimit:10;stroke-dasharray:none;stroke-opacity:1"
         id="path54"
         inkscape:connector-curvature="0" /><path
         d="m 461.53223,365.03223 c -1.89551,9.94043 -19.38575,6.83496 -45.62696,7.02441 -25.29199,0.18359 -39.99902,7.25879 -46.29101,-4.22949"
         style="fill:none;stroke:#231f20;stroke-width:2;stroke-linecap:butt;stroke-linejoin:bevel;stroke-miterlimit:10;stroke-dasharray:none;stroke-opacity:1"
         id="path56"
         inkscape:connector-curvature="0" /><path
         d="m 368.95117,358.25586 c 4.68653,-11.8877 26.07031,-28.26758 48.54883,-27.08594 20.47363,1.07813 35.43359,12.36817 41.37695,22.80567"
         style="fill:none;stroke:#231f20;stroke-width:2;stroke-linecap:butt;stroke-linejoin:bevel;stroke-miterlimit:10;stroke-dasharray:none;stroke-opacity:1"
         id="path58"
         inkscape:connector-curvature="0" /><path
         d="m 394.67871,378.70215 c 4.15723,4.77441 8.11914,10.36133 11.52246,16.39453 2.87696,5.09863 5.85352,11.12695 8.04688,17.16895"
         style="fill:none;stroke:#231f20;stroke-width:2;stroke-linecap:butt;stroke-linejoin:bevel;stroke-miterlimit:10;stroke-dasharray:none;stroke-opacity:1"
         id="path60"
         inkscape:connector-curvature="0" /><path
         d="m 417.44531,425.06299 c 0.64453,6.01514 -0.36426,11.27392 -4.12793,14.62939 -8.61035,7.67481 -29.75097,-7.28467 -41.69336,-28.45117 -11.94043,-21.16601 -16.26562,-41.65723 -6.21875,-47.32422 4.84668,-2.73437 11.73243,-0.5 18.90332,4.92188"
         style="fill:none;stroke:#231f20;stroke-width:2;stroke-linecap:butt;stroke-linejoin:bevel;stroke-miterlimit:10;stroke-dasharray:none;stroke-opacity:1"
         id="path62"
         inkscape:connector-curvature="0" /></g><g
       id="g64"><text
   id="text78"
   style="font-variant:normal;font-weight:normal;font-size:12px;font-family:'Myriad Pro';-inkscape-font-specification:Myriad-Roman;writing-mode:lr-tb;fill:#231f20;fill-opacity:1;fill-rule:nonzero;stroke:none"
   transform="matrix(1,0,0,-1,81.26807,671.27832)"
   y="0"><tspan
     id="tspan66"
     sodipodi:role="line"
     y="0"
     x="0 10.008 16.02 19.992001 25.775999 32.616001 39.203999 42.012001 48.023998">métaboles</tspan><tspan
     id="tspan68"
     sodipodi:role="line"
     y="161.22156"
     x="165.72012 172.56012 179.14812 183.12012 186.97212 193.56012 203.56812 209.58012 215.59212">borroméen</tspan><tspan
     id="tspan70"
     sodipodi:role="line"
     y="87.221519"
     x="398.34756 408.35556 414.13956 417.05557">maja</tspan><tspan
     id="tspan72"
     sodipodi:role="line"
     y="353.38861"
     x="179.83008 185.13408 191.72208 194.53008 197.33807 200.14607 206.15808">collier</tspan><tspan
     id="tspan74"
     sodipodi:role="line"
     y="287.88852"
     x="405.49609 415.50409 421.28809 424.20407 429.98807 432.53207 439.30008 445.31207 451.08408 457.09607 461.06808 467.68008">maja dévétue</tspan><tspan
     id="tspan76"
     sodipodi:role="line"
     y="-0.00012"
     x="149.81352 156.47353 163.07352 169.08553 175.69753 182.46552 185.00952 190.79352 193.60152 197.50153 203.51352 207.48552 214.14552 279.73175 286.39175 292.99176 299.00375 305.61575 312.38376 314.92776 324.93576 330.94775 334.91977 340.70377 350.71176 357.29977 361.27176 368.09976 374.75977 381.34775 386.09976 391.88376 398.71176 401.51974">noeud alternénoeud métamorphosable</tspan></text>
</g></g></svg>
