<?xml version="1.0" encoding="UTF-8" standalone="no"?>
<svg
   xmlns:dc="http://purl.org/dc/elements/1.1/"
   xmlns:cc="http://creativecommons.org/ns#"
   xmlns:rdf="http://www.w3.org/1999/02/22-rdf-syntax-ns#"
   xmlns:svg="http://www.w3.org/2000/svg"
   xmlns="http://www.w3.org/2000/svg"
   xmlns:sodipodi="http://sodipodi.sourceforge.net/DTD/sodipodi-0.dtd"
   xmlns:inkscape="http://www.inkscape.org/namespaces/inkscape"
   width="59.976852mm"
   height="75.88047mm"
   viewBox="0 0 59.976852 75.88047"
   version="1.1"
   id="svg1953"
   inkscape:version="1.0.2-2 (e86c870879, 2021-01-15)"
   sodipodi:docname="présentation-bi.svg">
  <defs
     id="defs1947">
    <marker
       inkscape:isstock="true"
       style="overflow:visible"
       id="marker7256"
       refX="0"
       refY="0"
       orient="auto"
       inkscape:stockid="Arrow1Send">
      <path
         transform="matrix(-0.2,0,0,-0.2,-1.2,0)"
         style="fill:#008000;fill-opacity:1;fill-rule:evenodd;stroke:#008000;stroke-width:1pt;stroke-opacity:1"
         d="M 0,0 5,-5 -12.5,0 5,5 Z"
         id="path7254" />
    </marker>
    <marker
       inkscape:stockid="Arrow1Mstart"
       orient="auto"
       refY="0"
       refX="0"
       id="marker6509"
       style="overflow:visible"
       inkscape:isstock="true">
      <path
         id="path6507"
         d="M 0,0 5,-5 -12.5,0 5,5 Z"
         style="fill:#231f20;fill-opacity:1;fill-rule:evenodd;stroke:#231f20;stroke-width:1pt;stroke-opacity:1"
         transform="matrix(0.4,0,0,0.4,4,0)" />
    </marker>
    <marker
       inkscape:isstock="true"
       style="overflow:visible"
       id="marker4960"
       refX="0"
       refY="0"
       orient="auto"
       inkscape:stockid="Arrow1Mend"
       inkscape:collect="always">
      <path
         transform="matrix(-0.4,0,0,-0.4,-4,0)"
         style="fill:#231f20;fill-opacity:1;fill-rule:evenodd;stroke:#231f20;stroke-width:1pt;stroke-opacity:1"
         d="M 0,0 5,-5 -12.5,0 5,5 Z"
         id="path4958" />
    </marker>
    <marker
       inkscape:isstock="true"
       style="overflow:visible"
       id="marker5046"
       refX="0"
       refY="0"
       orient="auto"
       inkscape:stockid="Arrow1Mend"
       inkscape:collect="always">
      <path
         transform="matrix(-0.4,0,0,-0.4,-4,0)"
         style="fill:#231f20;fill-opacity:1;fill-rule:evenodd;stroke:#231f20;stroke-width:1pt;stroke-opacity:1"
         d="M 0,0 5,-5 -12.5,0 5,5 Z"
         id="path5044" />
    </marker>
    <marker
       inkscape:stockid="Arrow1Mend"
       orient="auto"
       refY="0"
       refX="0"
       id="marker5006"
       style="overflow:visible"
       inkscape:isstock="true"
       inkscape:collect="always">
      <path
         id="path5004"
         d="M 0,0 5,-5 -12.5,0 5,5 Z"
         style="fill:#231f20;fill-opacity:1;fill-rule:evenodd;stroke:#231f20;stroke-width:1pt;stroke-opacity:1"
         transform="matrix(-0.4,0,0,-0.4,-4,0)" />
    </marker>
    <marker
       inkscape:stockid="Arrow1Mend"
       orient="auto"
       refY="0"
       refX="0"
       id="marker5092"
       style="overflow:visible"
       inkscape:isstock="true"
       inkscape:collect="always">
      <path
         id="path5090"
         d="M 0,0 5,-5 -12.5,0 5,5 Z"
         style="fill:#231f20;fill-opacity:1;fill-rule:evenodd;stroke:#231f20;stroke-width:1pt;stroke-opacity:1"
         transform="matrix(-0.4,0,0,-0.4,-4,0)" />
    </marker>
    <marker
       inkscape:stockid="Arrow1Send"
       orient="auto"
       refY="0"
       refX="0"
       id="marker5438"
       style="overflow:visible"
       inkscape:isstock="true"
       inkscape:collect="always">
      <path
         id="path5436"
         d="M 0,0 5,-5 -12.5,0 5,5 Z"
         style="fill:#008000;fill-opacity:1;fill-rule:evenodd;stroke:#008000;stroke-width:1pt;stroke-opacity:1"
         transform="matrix(-0.2,0,0,-0.2,-1.2,0)" />
    </marker>
    <marker
       inkscape:isstock="true"
       style="overflow:visible"
       id="marker5362"
       refX="0"
       refY="0"
       orient="auto"
       inkscape:stockid="Arrow1Send"
       inkscape:collect="always">
      <path
         transform="matrix(-0.2,0,0,-0.2,-1.2,0)"
         style="fill:#008000;fill-opacity:1;fill-rule:evenodd;stroke:#008000;stroke-width:1pt;stroke-opacity:1"
         d="M 0,0 5,-5 -12.5,0 5,5 Z"
         id="path5360" />
    </marker>
    <marker
       inkscape:isstock="true"
       style="overflow:visible"
       id="marker5292"
       refX="0"
       refY="0"
       orient="auto"
       inkscape:stockid="Arrow1Send">
      <path
         transform="matrix(-0.2,0,0,-0.2,-1.2,0)"
         style="fill:#008000;fill-opacity:1;fill-rule:evenodd;stroke:#008000;stroke-width:1pt;stroke-opacity:1"
         d="M 0,0 5,-5 -12.5,0 5,5 Z"
         id="path5290" />
    </marker>
    <marker
       inkscape:stockid="Arrow1Send"
       orient="auto"
       refY="0"
       refX="0"
       id="Arrow1Send"
       style="overflow:visible"
       inkscape:isstock="true"
       inkscape:collect="always">
      <path
         id="path4685"
         d="M 0,0 5,-5 -12.5,0 5,5 Z"
         style="fill:#008000;fill-opacity:1;fill-rule:evenodd;stroke:#008000;stroke-width:1pt;stroke-opacity:1"
         transform="matrix(-0.2,0,0,-0.2,-1.2,0)" />
    </marker>
    <marker
       inkscape:stockid="Arrow1Mend"
       orient="auto"
       refY="0"
       refX="0"
       id="Arrow1Mend"
       style="overflow:visible"
       inkscape:isstock="true"
       inkscape:collect="always">
      <path
         id="path4679"
         d="M 0,0 5,-5 -12.5,0 5,5 Z"
         style="fill:#231f20;fill-opacity:1;fill-rule:evenodd;stroke:#231f20;stroke-width:1pt;stroke-opacity:1"
         transform="matrix(-0.4,0,0,-0.4,-4,0)" />
    </marker>
  </defs>
  <sodipodi:namedview
     id="base"
     pagecolor="#ffffff"
     bordercolor="#666666"
     borderopacity="1.0"
     inkscape:pageopacity="0.0"
     inkscape:pageshadow="2"
     inkscape:zoom="1.979899"
     inkscape:cx="129.32927"
     inkscape:cy="209.95893"
     inkscape:document-units="mm"
     inkscape:current-layer="layer1"
     inkscape:document-rotation="0"
     showgrid="false"
     fit-margin-top="10"
     lock-margins="true"
     fit-margin-left="10"
     fit-margin-right="10"
     fit-margin-bottom="10"
     inkscape:window-width="1920"
     inkscape:window-height="1001"
     inkscape:window-x="-9"
     inkscape:window-y="-9"
     inkscape:window-maximized="1" />
  <metadata
     id="metadata1950">
    <rdf:RDF>
      <cc:Work
         rdf:about="">
        <dc:format>image/svg+xml</dc:format>
        <dc:type
           rdf:resource="http://purl.org/dc/dcmitype/StillImage" />
        <dc:title></dc:title>
      </cc:Work>
    </rdf:RDF>
  </metadata>
  <g
     inkscape:label="Calque 1"
     inkscape:groupmode="layer"
     id="layer1"
     transform="translate(-71.45058,-111.4043)">
    <text
       style="font-style:normal;font-variant:normal;font-weight:normal;font-stretch:normal;font-size:4.23333px;font-family:'Times New Roman';-inkscape-font-specification:'Times New Roman, ';writing-mode:lr-tb;fill:#231f20;fill-opacity:1;fill-rule:nonzero;stroke:none;stroke-width:0.352778"
       id="text14"
       x="81.46505"
       y="164.4053"
       inkscape:export-xdpi="300"
       inkscape:export-ydpi="300"><tspan
         x="81.46505"
         y="164.4053"
         sodipodi:role="line"
         id="tspan12"
         style="stroke-width:0.352778">présentation bi-orientée</tspan></text>
    <path
       inkscape:connector-curvature="0"
       id="path18"
       style="fill:none;stroke:#008000;stroke-width:0.705556;stroke-linecap:butt;stroke-linejoin:miter;stroke-miterlimit:4;stroke-dasharray:none;stroke-opacity:1;marker-end:url(#marker7256)"
       d="m 102.33981,172.44604 c 0,-1.98093 1.63229,-3.58669 3.6456,-3.58669 2.01331,0 3.64526,1.60576 3.64526,3.58669 0,1.98059 -1.63195,3.58635 -3.64526,3.58635 -0.40308,0 -0.791,-0.0644 -1.15342,-0.18328"
       inkscape:export-xdpi="300"
       inkscape:export-ydpi="300" />
    <path
       inkscape:connector-curvature="0"
       id="path20"
       style="fill:none;stroke:#231f20;stroke-width:0.352778;stroke-linecap:butt;stroke-linejoin:miter;stroke-miterlimit:4;stroke-dasharray:none;stroke-opacity:1;marker-start:url(#marker6509)"
       d="m 102.17341,173.10164 c 0.0317,0.29008 0.0279,0.58843 -0.0155,0.88987 -0.28249,1.96026 -2.12665,3.31694 -4.11964,3.02996 -1.99265,-0.28697 -3.3793,-2.10908 -3.0968,-4.06934 0.2825,-1.9606 2.127,-3.31729 4.11965,-3.03031"
       inkscape:export-xdpi="300"
       inkscape:export-ydpi="300" />
    <g
       id="g5534"
       transform="matrix(0.24694444,0,0,-0.24694444,75.053454,217.51267)"
       inkscape:export-xdpi="300"
       inkscape:export-ydpi="300">
      <path
         sodipodi:nodetypes="csc"
         d="m 111.25,305.93115 c 17.6992,0.99194 27.09968,16.29518 28.28342,32.69762 1.22105,16.91924 -6.30056,35.00804 -22.47483,39.76576"
         style="fill:none;stroke:#231f20;stroke-width:1;stroke-linecap:butt;stroke-linejoin:miter;stroke-miterlimit:4;stroke-dasharray:none;stroke-opacity:1;marker-mid:url(#marker4960)"
         id="path28"
         inkscape:connector-curvature="0" />
      <path
         sodipodi:nodetypes="csc"
         d="m 94.70654,340.30957 c -0.776147,-5.35584 -1.586305,-12.72631 -0.541994,-19.27307 1.0495,-6.57928 3.971939,-12.32664 10.684084,-14.36121"
         style="fill:none;stroke:#231f20;stroke-width:1;stroke-linecap:butt;stroke-linejoin:miter;stroke-miterlimit:4;stroke-dasharray:none;stroke-opacity:1;marker-mid:url(#marker5046)"
         id="path30"
         inkscape:connector-curvature="0" />
      <path
         d="M 161.39355,351.14111 C 161.77148,370.17529 151.94824,385.1123 133,387.55713 111.12695,390.37988 101.11621,368.3335 96.50977,349.55371"
         style="fill:none;stroke:#231f20;stroke-width:1;stroke-linecap:butt;stroke-linejoin:miter;stroke-miterlimit:4;stroke-dasharray:none;stroke-opacity:1;marker-mid:url(#marker5006)"
         id="path32"
         inkscape:connector-curvature="0" />
      <path
         sodipodi:nodetypes="csc"
         d="m 144.38574,304.29688 c 8.2394,4.11044 12.05283,10.58506 14.02518,18.1433 1.56319,5.99027 1.96993,12.66119 2.50705,19.37525"
         style="fill:none;stroke:#231f20;stroke-width:1;stroke-linecap:butt;stroke-linejoin:miter;stroke-miterlimit:4;stroke-dasharray:none;stroke-opacity:1;marker-mid:url(#marker5092)"
         id="path34"
         inkscape:connector-curvature="0" />
      <path
         d="m 131.01074,298.56934 c 2.00977,0.75244 4.00684,1.53857 5.98828,2.3706"
         style="fill:none;stroke:#231f20;stroke-width:1;stroke-linecap:butt;stroke-linejoin:miter;stroke-miterlimit:4;stroke-dasharray:none;stroke-opacity:1"
         id="path36"
         inkscape:connector-curvature="0" />
      <path
         d="m 89.61816,284.39648 c 13.48731,5.53907 27.71973,9.05762 41.39258,14.17286"
         style="fill:none;stroke:#008000;stroke-width:2;stroke-linecap:butt;stroke-linejoin:miter;stroke-miterlimit:4;stroke-dasharray:none;stroke-opacity:1"
         id="path38"
         inkscape:connector-curvature="0" />
      <path
         d="m 75.66699,257.22363 c -6.18506,11.46094 -0.85351,18.75196 6.5669,23.44336"
         style="fill:none;stroke:#231f20;stroke-width:2;stroke-linecap:butt;stroke-linejoin:miter;stroke-miterlimit:4;stroke-dasharray:none;stroke-opacity:1"
         id="path40"
         inkscape:connector-curvature="0" />
      <path
         d="m 143.66699,351.125 c 34.71094,-1.63086 46.72168,-44.36377 32.01074,-72.41699 -13.85156,-26.41504 -67.59082,-47.95606 -93.94482,-28.40137"
         style="fill:none;stroke:#008000;stroke-width:2;stroke-linecap:butt;stroke-linejoin:miter;stroke-miterlimit:4;stroke-dasharray:none;stroke-opacity:1;marker-mid:url(#marker5438)"
         id="path42"
         inkscape:connector-curvature="0" />
      <path
         d="m 101.92627,272.06348 c -22.81348,11.60156 -29.98731,29.16601 -23.47998,53.68847 6.21631,23.42871 36.01953,24.45606 56.05176,25.3545"
         style="fill:none;stroke:#008000;stroke-width:2;stroke-linecap:butt;stroke-linejoin:miter;stroke-miterlimit:4;stroke-dasharray:none;stroke-opacity:1;marker-mid:url(#marker5362)"
         id="path44"
         inkscape:connector-curvature="0" />
      <path
         sodipodi:nodetypes="csc"
         d="m 130.51172,311.60303 c 12.22699,-9.40471 16.29149,-21.58854 14.14116,-31.11773 -2.79576,-12.38946 -16.09715,-20.29146 -35.62358,-11.76362"
         style="fill:none;stroke:#008000;stroke-width:2;stroke-linecap:butt;stroke-linejoin:miter;stroke-miterlimit:4;stroke-dasharray:none;stroke-opacity:1;marker-mid:url(#marker5292)"
         id="path46"
         inkscape:connector-curvature="0" />
      <path
         sodipodi:nodetypes="csc"
         d="m 108.00488,294.13965 c -0.0645,6.86263 -0.68473,16.40444 2.1584,21.37863 2.15364,3.76791 6.29458,4.91494 14.16973,0.29129"
         style="fill:none;stroke:#008000;stroke-width:2;stroke-linecap:butt;stroke-linejoin:miter;stroke-miterlimit:4;stroke-dasharray:none;stroke-opacity:1;marker-mid:url(#Arrow1Send)"
         id="path48"
         inkscape:connector-curvature="0" />
      <path
         d="m 107.59961,280.33301 c 0.28027,1.87597 0.42773,3.84082 0.43359,5.89062"
         style="fill:none;stroke:#231f20;stroke-width:2;stroke-linecap:butt;stroke-linejoin:miter;stroke-miterlimit:4;stroke-dasharray:none;stroke-opacity:1"
         id="path50"
         inkscape:connector-curvature="0" />
      <path
         d="M 103.3335,382.22363 C 85.93604,383.03271 66.26318,370.76611 53.55029,360.09131 32.0459,342.0332 31.72754,317.76807 36.41699,291.38965 c 3.58399,-20.1582 14.79248,-37.19629 36.66846,-37.52832 18.45557,-0.28028 31.97119,9.46191 34.51416,26.47168"
         style="fill:none;stroke:#231f20;stroke-width:0.99975;stroke-linecap:butt;stroke-linejoin:miter;stroke-miterlimit:4;stroke-dasharray:none;stroke-opacity:1;marker-mid:url(#Arrow1Mend)"
         id="path52"
         inkscape:connector-curvature="0" />
      <path
         d="m 128.12891,298.98438 c 0,0 3.03027,-0.64649 3.03027,-0.64649 0,0 -2.27539,-2.10254 -2.27539,-2.10254 0,0 -0.75488,2.74903 -0.75488,2.74903 z"
         style="fill:none;stroke:#231f20;stroke-width:2;stroke-linecap:butt;stroke-linejoin:miter;stroke-miterlimit:4;stroke-dasharray:none;stroke-opacity:1"
         id="path54"
         inkscape:connector-curvature="0" />
      <path
         d="m 105.62939,277.34277 c 0,0 1.87061,2.46875 1.87061,2.46875 0,0 0.94043,-2.95214 0.94043,-2.95214 0,0 -2.81104,0.48339 -2.81104,0.48339 z"
         style="fill:#231f20;fill-opacity:1;fill-rule:nonzero;stroke:none"
         id="path56"
         inkscape:connector-curvature="0" />
      <path
         d="m 105.62939,277.34277 c 0,0 1.87061,2.46875 1.87061,2.46875 0,0 0.94043,-2.95214 0.94043,-2.95214 0,0 -2.81104,0.48339 -2.81104,0.48339 z"
         style="fill:none;stroke:#231f20;stroke-width:2;stroke-linecap:butt;stroke-linejoin:miter;stroke-miterlimit:4;stroke-dasharray:none;stroke-opacity:1"
         id="path58"
         inkscape:connector-curvature="0" />
    </g>
  </g>
</svg>
