<?xml version="1.0" encoding="UTF-8" standalone="no"?>
<svg
   xmlns:dc="http://purl.org/dc/elements/1.1/"
   xmlns:cc="http://creativecommons.org/ns#"
   xmlns:rdf="http://www.w3.org/1999/02/22-rdf-syntax-ns#"
   xmlns:svg="http://www.w3.org/2000/svg"
   xmlns="http://www.w3.org/2000/svg"
   xmlns:sodipodi="http://sodipodi.sourceforge.net/DTD/sodipodi-0.dtd"
   xmlns:inkscape="http://www.inkscape.org/namespaces/inkscape"
   version="1.1"
   id="svg2"
   xml:space="preserve"
   width="612"
   height="717.77057"
   viewBox="0 0 612.00003 717.77056"
   sodipodi:docname="tabapespin.svg"
   inkscape:version="1.0.2-2 (e86c870879, 2021-01-15)"><metadata
     id="metadata8"><rdf:RDF><cc:Work
         rdf:about=""><dc:format>image/svg+xml</dc:format><dc:type
           rdf:resource="http://purl.org/dc/dcmitype/StillImage" /><dc:title></dc:title></cc:Work></rdf:RDF></metadata><defs
     id="defs6">





















































</defs><sodipodi:namedview
     pagecolor="#ffffff"
     bordercolor="#666666"
     borderopacity="1"
     objecttolerance="10"
     gridtolerance="10"
     guidetolerance="10"
     inkscape:pageopacity="0"
     inkscape:pageshadow="2"
     inkscape:window-width="1920"
     inkscape:window-height="1001"
     id="namedview4"
     showgrid="false"
     inkscape:zoom="1.0195109"
     inkscape:cx="164.16066"
     inkscape:cy="310.74376"
     inkscape:window-x="-9"
     inkscape:window-y="-9"
     inkscape:window-maximized="1"
     inkscape:current-layer="g10"
     inkscape:document-rotation="0"
     fit-margin-top="10"
     fit-margin-left="10"
     fit-margin-right="10"
     fit-margin-bottom="10" /><g
     id="g10"
     inkscape:groupmode="layer"
     inkscape:label="tabapespin"
     transform="matrix(1.3333333,0,0,-1.3333333,-284.66666,688.36717)">


































<g
   id="g8462"
   transform="translate(273.66064,-320.0064)"><g
     id="g8112"><text
       transform="matrix(1,0,0,-1,28.08795,471.22546)"
       style="font-variant:normal;font-weight:normal;font-size:16px;font-family:'Times New Roman';-inkscape-font-specification:TimesNewRomanPSMT;writing-mode:lr-tb;fill:#231f20;fill-opacity:1;fill-rule:nonzero;stroke:none"
       id="text34"
       inkscape:export-xdpi="1174"
       inkscape:export-ydpi="1174"><tspan
         x="0 5.3280001"
         y="0"
         sodipodi:role="line"
         id="tspan32">[I</tspan></text><text
       transform="matrix(1,0,0,-1,38.7442,468.82507)"
       style="font-style:italic;font-variant:normal;font-size:16px;font-family:'Times New Roman';-inkscape-font-specification:TimesNewRomanPS-ItalicMT;writing-mode:lr-tb;fill:#231f20;fill-opacity:1;fill-rule:nonzero;stroke:none"
       id="text38"
       inkscape:export-xdpi="1174"
       inkscape:export-ydpi="1174"><tspan
         x="0"
         y="0"
         id="tspan36">n</tspan></text><text
       transform="matrix(1,0,0,-1,46.7442,471.22546)"
       style="font-variant:normal;font-weight:normal;font-size:16px;font-family:'Times New Roman';-inkscape-font-specification:TimesNewRomanPSMT;writing-mode:lr-tb;fill:#231f20;fill-opacity:1;fill-rule:nonzero;stroke:none"
       id="text42"
       inkscape:export-xdpi="1174"
       inkscape:export-ydpi="1174"><tspan
         x="0"
         y="0"
         id="tspan40">]</tspan></text><text
       transform="matrix(1,0,0,-1,56.07233,471.22546)"
       style="font-variant:normal;font-weight:normal;font-size:16px;font-family:'Times New Roman';-inkscape-font-specification:TimesNewRomanPSMT;writing-mode:lr-tb;fill:#231f20;fill-opacity:1;fill-rule:nonzero;stroke:none"
       id="text46"
       inkscape:export-xdpi="1174"
       inkscape:export-ydpi="1174"><tspan
         x="0 9.0240002 13.024 18.351999"
         y="0"
         sodipodi:role="line"
         id="tspan44">= [2</tspan></text><text
       transform="matrix(1,0,0,-1,82.42389,480.02527)"
       style="font-variant:normal;font-weight:normal;font-size:11.2px;font-family:'Times New Roman';-inkscape-font-specification:TimesNewRomanPSMT;writing-mode:lr-tb;fill:#231f20;fill-opacity:1;fill-rule:nonzero;stroke:none"
       id="text50"
       inkscape:export-xdpi="1174"
       inkscape:export-ydpi="1174"><tspan
         x="0"
         y="0"
         id="tspan48">q</tspan></text><text
       transform="matrix(1,0,0,-1,92.02399,471.22546)"
       style="font-variant:normal;font-weight:normal;font-size:16px;font-family:'Times New Roman';-inkscape-font-specification:TimesNewRomanPSMT;writing-mode:lr-tb;fill:#231f20;fill-opacity:1;fill-rule:nonzero;stroke:none"
       id="text54"
       inkscape:export-xdpi="1174"
       inkscape:export-ydpi="1174"><tspan
         x="0 9.0240002 13.024 21.024 25.024 29.024 33.023998"
         y="0"
         sodipodi:role="line"
         id="tspan52">+ 1 , 2</tspan></text><text
       transform="matrix(1,0,0,-1,133.04694,480.02527)"
       style="font-variant:normal;font-weight:normal;font-size:11.2px;font-family:'Times New Roman';-inkscape-font-specification:TimesNewRomanPSMT;writing-mode:lr-tb;fill:#231f20;fill-opacity:1;fill-rule:nonzero;stroke:none"
       id="text58"
       inkscape:export-xdpi="1174"
       inkscape:export-ydpi="1174"><tspan
         x="0 5.5999999 8.3999996 14.7168 17.5168"
         y="0"
         sodipodi:role="line"
         id="tspan56">q + 1</tspan></text><text
       transform="matrix(1,0,0,-1,156.16412,471.22546)"
       style="font-variant:normal;font-weight:normal;font-size:16px;font-family:'Times New Roman';-inkscape-font-specification:TimesNewRomanPSMT;writing-mode:lr-tb;fill:#231f20;fill-opacity:1;fill-rule:nonzero;stroke:none"
       id="text62"
       inkscape:export-xdpi="1174"
       inkscape:export-ydpi="1174"><tspan
         x="0"
         y="0"
         id="tspan60">]</tspan></text><text
       transform="matrix(1,0,0,-1,28.08795,432.82507)"
       style="font-variant:normal;font-weight:normal;font-size:16px;font-family:'Times New Roman';-inkscape-font-specification:TimesNewRomanPSMT;writing-mode:lr-tb;fill:#231f20;fill-opacity:1;fill-rule:nonzero;stroke:none"
       id="text66"
       inkscape:export-xdpi="1174"
       inkscape:export-ydpi="1174"><tspan
         x="0"
         y="0"
         id="tspan64">I</tspan></text><text
       transform="matrix(1,0,0,-1,33.41608,430.42468)"
       style="font-style:italic;font-variant:normal;font-size:16px;font-family:'Times New Roman';-inkscape-font-specification:TimesNewRomanPS-ItalicMT;writing-mode:lr-tb;fill:#231f20;fill-opacity:1;fill-rule:nonzero;stroke:none"
       id="text70"
       inkscape:export-xdpi="1174"
       inkscape:export-ydpi="1174"><tspan
         x="0 8"
         y="0"
         sodipodi:role="line"
         id="tspan68">n </tspan></text><text
       transform="matrix(1,0,0,-1,45.41608,432.82507)"
       style="font-variant:normal;font-weight:normal;font-size:16px;font-family:'Times New Roman';-inkscape-font-specification:TimesNewRomanPSMT;writing-mode:lr-tb;fill:#231f20;fill-opacity:1;fill-rule:nonzero;stroke:none"
       id="text74"
       inkscape:export-xdpi="1174"
       inkscape:export-ydpi="1174"><tspan
         x="0 9.0240002 17.024"
         y="0"
         sodipodi:role="line"
         id="tspan72">= 2</tspan></text><text
       transform="matrix(1,0,0,-1,70.43951,441.62488)"
       style="font-variant:normal;font-weight:normal;font-size:11.2px;font-family:'Times New Roman';-inkscape-font-specification:TimesNewRomanPSMT;writing-mode:lr-tb;fill:#231f20;fill-opacity:1;fill-rule:nonzero;stroke:none"
       id="text78"
       inkscape:export-xdpi="1174"
       inkscape:export-ydpi="1174"><tspan
         x="0"
         y="0"
         id="tspan76">q</tspan></text><text
       transform="matrix(1,0,0,-1,28.08795,394.42566)"
       style="font-variant:normal;font-weight:normal;font-size:16px;font-family:'Times New Roman';-inkscape-font-specification:TimesNewRomanPSMT;writing-mode:lr-tb;fill:#231f20;fill-opacity:1;fill-rule:nonzero;stroke:none"
       id="text82"
       inkscape:export-xdpi="1174"
       inkscape:export-ydpi="1174"><tspan
         x="0 8.8959999"
         y="0"
         sodipodi:role="line"
         id="tspan80">P(</tspan></text><text
       transform="matrix(1,0,0,-1,42.31451,394.42566)"
       style="font-style:italic;font-variant:normal;font-size:16px;font-family:'Times New Roman';-inkscape-font-specification:TimesNewRomanPS-ItalicMT;writing-mode:lr-tb;fill:#231f20;fill-opacity:1;fill-rule:nonzero;stroke:none"
       id="text86"
       inkscape:export-xdpi="1174"
       inkscape:export-ydpi="1174"><tspan
         x="0"
         y="0"
         id="tspan84">n</tspan></text><text
       transform="matrix(1,0,0,-1,50.31451,394.42566)"
       style="font-variant:normal;font-weight:normal;font-size:16px;font-family:'Times New Roman';-inkscape-font-specification:TimesNewRomanPSMT;writing-mode:lr-tb;fill:#231f20;fill-opacity:1;fill-rule:nonzero;stroke:none"
       id="text90"
       inkscape:export-xdpi="1174"
       inkscape:export-ydpi="1174"><tspan
         x="0"
         y="0"
         id="tspan88">)</tspan></text><text
       transform="matrix(1,0,0,-1,59.64264,394.42566)"
       style="font-variant:normal;font-weight:normal;font-size:16px;font-family:'Times New Roman';-inkscape-font-specification:TimesNewRomanPSMT;writing-mode:lr-tb;fill:#231f20;fill-opacity:1;fill-rule:nonzero;stroke:none"
       id="text94"
       inkscape:export-xdpi="1174"
       inkscape:export-ydpi="1174"><tspan
         x="0 9.0240002 17.024"
         y="0"
         sodipodi:role="line"
         id="tspan92">= 2</tspan></text><text
       transform="matrix(1,0,0,-1,84.66608,403.22546)"
       style="font-variant:normal;font-weight:normal;font-size:11.2px;font-family:'Times New Roman';-inkscape-font-specification:TimesNewRomanPSMT;writing-mode:lr-tb;fill:#231f20;fill-opacity:1;fill-rule:nonzero;stroke:none"
       id="text98"
       inkscape:export-xdpi="1174"
       inkscape:export-ydpi="1174"><tspan
         x="0 5.5999999 8.3999996 12.1296 14.9296"
         y="0"
         sodipodi:role="line"
         id="tspan96">n - 1</tspan></text><text
       transform="matrix(1,0,0,-1,28.08795,356.02527)"
       style="font-style:italic;font-variant:normal;font-weight:bold;font-size:16px;font-family:'Times New Roman';-inkscape-font-specification:TimesNewRomanPS-BoldItalicMT;writing-mode:lr-tb;fill:#231f20;fill-opacity:1;fill-rule:nonzero;stroke:none"
       id="text102"
       inkscape:export-xdpi="1174"
       inkscape:export-ydpi="1174"><tspan
         x="0"
         y="0"
         id="tspan100">w</tspan></text><text
       transform="matrix(1,0,0,-1,38.75983,353.62488)"
       style="font-variant:normal;font-weight:normal;font-size:11.2px;font-family:'Times New Roman';-inkscape-font-specification:TimesNewRomanPSMT;writing-mode:lr-tb;fill:#231f20;fill-opacity:1;fill-rule:nonzero;stroke:none"
       id="text106"
       inkscape:export-xdpi="1174"
       inkscape:export-ydpi="1174"><tspan
         x="0"
         y="0"
         id="tspan104">i</tspan></text><text
       transform="matrix(1,0,0,-1,45.87164,356.02527)"
       style="font-variant:normal;font-weight:normal;font-size:16px;font-family:'Times New Roman';-inkscape-font-specification:TimesNewRomanPSMT;writing-mode:lr-tb;fill:#231f20;fill-opacity:1;fill-rule:nonzero;stroke:none"
       id="text110"
       inkscape:export-xdpi="1174"
       inkscape:export-ydpi="1174"><tspan
         x="0 9.0240002 17.024"
         y="0"
         sodipodi:role="line"
         id="tspan108">= 2</tspan></text><text
       transform="matrix(1,0,0,-1,70.89508,364.82507)"
       style="font-variant:normal;font-weight:normal;font-size:11.2px;font-family:'Times New Roman';-inkscape-font-specification:TimesNewRomanPSMT;writing-mode:lr-tb;fill:#231f20;fill-opacity:1;fill-rule:nonzero;stroke:none"
       id="text114"
       inkscape:export-xdpi="1174"
       inkscape:export-ydpi="1174"><tspan
         x="0 5.5999999 8.3999996 12.1296 14.9296 20.5296 23.329599 27.0592 29.8592"
         y="0"
         sodipodi:role="line"
         id="tspan112">n - q - 2</tspan></text><text
       transform="matrix(1,0,0,-1,28.08795,317.62585)"
       style="font-variant:normal;font-weight:normal;font-size:16px;font-family:'Times New Roman';-inkscape-font-specification:TimesNewRomanPSMT;writing-mode:lr-tb;fill:#231f20;fill-opacity:1;fill-rule:nonzero;stroke:none"
       id="text118"
       inkscape:export-xdpi="1174"
       inkscape:export-ydpi="1174"><tspan
         x="0 8.8959999"
         y="0"
         sodipodi:role="line"
         id="tspan116">P(</tspan></text><text
       transform="matrix(1,0,0,-1,42.31451,317.62585)"
       style="font-style:italic;font-variant:normal;font-weight:bold;font-size:16px;font-family:'Times New Roman';-inkscape-font-specification:TimesNewRomanPS-BoldItalicMT;writing-mode:lr-tb;fill:#231f20;fill-opacity:1;fill-rule:nonzero;stroke:none"
       id="text122"
       inkscape:export-xdpi="1174"
       inkscape:export-ydpi="1174"><tspan
         x="0"
         y="0"
         id="tspan120">w</tspan></text><text
       transform="matrix(1,0,0,-1,52.98639,315.22546)"
       style="font-variant:normal;font-weight:normal;font-size:11.2px;font-family:'Times New Roman';-inkscape-font-specification:TimesNewRomanPSMT;writing-mode:lr-tb;fill:#231f20;fill-opacity:1;fill-rule:nonzero;stroke:none"
       id="text126"
       inkscape:export-xdpi="1174"
       inkscape:export-ydpi="1174"><tspan
         x="0"
         y="0"
         id="tspan124">i</tspan></text><text
       transform="matrix(1,0,0,-1,56.09821,317.62585)"
       style="font-variant:normal;font-weight:normal;font-size:16px;font-family:'Times New Roman';-inkscape-font-specification:TimesNewRomanPSMT;writing-mode:lr-tb;fill:#231f20;fill-opacity:1;fill-rule:nonzero;stroke:none"
       id="text130"
       inkscape:export-xdpi="1174"
       inkscape:export-ydpi="1174"><tspan
         x="0 5.3280001 9.3280001 18.351999"
         y="0"
         sodipodi:role="line"
         id="tspan128">) = </tspan></text><text
       transform="matrix(1,0,0,-1,78.44977,326.42566)"
       style="font-variant:normal;font-weight:normal;font-size:16px;font-family:'Times New Roman';-inkscape-font-specification:TimesNewRomanPSMT;writing-mode:lr-tb;fill:#231f20;fill-opacity:1;fill-rule:nonzero;stroke:none"
       id="text134"
       inkscape:export-xdpi="1174"
       inkscape:export-ydpi="1174"><tspan
         x="0 8.8959999"
         y="0"
         sodipodi:role="line"
         id="tspan132">P(</tspan></text><text
       transform="matrix(1,0,0,-1,92.67633,326.42566)"
       style="font-style:italic;font-variant:normal;font-size:16px;font-family:'Times New Roman';-inkscape-font-specification:TimesNewRomanPS-ItalicMT;writing-mode:lr-tb;fill:#231f20;fill-opacity:1;fill-rule:nonzero;stroke:none"
       id="text138"
       inkscape:export-xdpi="1174"
       inkscape:export-ydpi="1174"><tspan
         x="0"
         y="0"
         id="tspan136">n</tspan></text><text
       transform="matrix(1,0,0,-1,100.67633,326.42566)"
       style="font-variant:normal;font-weight:normal;font-size:16px;font-family:'Times New Roman';-inkscape-font-specification:TimesNewRomanPSMT;writing-mode:lr-tb;fill:#231f20;fill-opacity:1;fill-rule:nonzero;stroke:none"
       id="text142"
       inkscape:export-xdpi="1174"
       inkscape:export-ydpi="1174"><tspan
         x="0 5.3280001"
         y="0"
         sodipodi:role="line"
         id="tspan140">) </tspan></text><text
       transform="matrix(1,0,0,-1,110.00446,317.62585)"
       style="font-variant:normal;font-weight:normal;font-size:16px;font-family:'Times New Roman';-inkscape-font-specification:TimesNewRomanPSMT;writing-mode:lr-tb;fill:#231f20;fill-opacity:1;fill-rule:nonzero;stroke:none"
       id="text146"
       inkscape:export-xdpi="1174"
       inkscape:export-ydpi="1174"><tspan
         x="0 9.0240002 13.024"
         y="0"
         sodipodi:role="line"
         id="tspan144">= 2</tspan></text><text
       transform="matrix(1,0,0,-1,131.0274,326.42566)"
       style="font-variant:normal;font-weight:normal;font-size:11.2px;font-family:'Times New Roman';-inkscape-font-specification:TimesNewRomanPSMT;writing-mode:lr-tb;fill:#231f20;fill-opacity:1;fill-rule:nonzero;stroke:none"
       id="text150"
       inkscape:export-xdpi="1174"
       inkscape:export-ydpi="1174"><tspan
         x="0 5.5999999 8.3999996 14.7168 17.5168"
         y="0"
         sodipodi:role="line"
         id="tspan148">q + 1</tspan></text></g><path
     d="m 76.60938,323.00293 c 0,0 27.73437,0 27.73437,0"
     style="fill:none;stroke:#231f20;stroke-width:1;stroke-linecap:butt;stroke-linejoin:miter;stroke-miterlimit:4;stroke-dasharray:none;stroke-opacity:1"
     id="path154"
     inkscape:connector-curvature="0" /><text
     transform="scale(1,-1)"
     style="font-style:italic;font-variant:normal;font-weight:bold;font-size:16px;font-family:'Times New Roman';-inkscape-font-specification:TimesNewRomanPS-BoldItalicMT;writing-mode:lr-tb;fill:#231f20;fill-opacity:1;fill-rule:nonzero;stroke:none"
     id="text160"
     x="79.742798"
     y="-308.08981"><tspan
       x="79.742798"
       y="-308.08981"
       id="tspan158">w</tspan></text><text
     transform="scale(1,-1)"
     style="font-variant:normal;font-weight:normal;font-size:11.2px;font-family:'Times New Roman';-inkscape-font-specification:TimesNewRomanPSMT;writing-mode:lr-tb;fill:#231f20;fill-opacity:1;fill-rule:nonzero;stroke:none"
     id="text164"
     x="90.414673"
     y="-305.68942"><tspan
       x="90.414673"
       y="-305.68942"
       id="tspan162">i</tspan></text></g><text
   transform="scale(1,-1)"
   style="font-style:italic;font-variant:normal;font-weight:bold;font-size:20px;font-family:'Times New Roman';-inkscape-font-specification:TimesNewRomanPS-BoldItalicMT;writing-mode:lr-tb;fill:#231f20;fill-opacity:1;fill-rule:nonzero;stroke:none"
   id="text14"
   inkscape:export-xdpi="1174"
   inkscape:export-ydpi="1174"
   x="232.75293"
   y="-487.78076"><tspan
     x="232.75293"
     y="-487.78076"
     id="tspan12">q</tspan></text><text
   transform="scale(1,-1)"
   style="font-variant:normal;font-weight:normal;font-size:20px;font-family:'Times New Roman';-inkscape-font-specification:TimesNewRomanPSMT;writing-mode:lr-tb;fill:#231f20;fill-opacity:1;fill-rule:nonzero;stroke:none"
   id="text18"
   inkscape:export-xdpi="1174"
   inkscape:export-ydpi="1174"
   x="282.59424"
   y="-487.21973"><tspan
     x="282.59424 289.25424"
     y="-487.21973"
     sodipodi:role="line"
     id="tspan16">[I</tspan></text><text
   transform="scale(1,-1)"
   style="font-style:italic;font-variant:normal;font-size:20px;font-family:'Times New Roman';-inkscape-font-specification:TimesNewRomanPS-ItalicMT;writing-mode:lr-tb;fill:#231f20;fill-opacity:1;fill-rule:nonzero;stroke:none"
   id="text22"
   inkscape:export-xdpi="1174"
   inkscape:export-ydpi="1174"
   x="295.91455"
   y="-484.21973"><tspan
     x="295.91455"
     y="-484.21973"
     id="tspan20">n</tspan></text><text
   transform="scale(1,-1)"
   style="font-variant:normal;font-weight:normal;font-size:20px;font-family:'Times New Roman';-inkscape-font-specification:TimesNewRomanPSMT;writing-mode:lr-tb;fill:#231f20;fill-opacity:1;fill-rule:nonzero;stroke:none"
   id="text26"
   inkscape:export-xdpi="1174"
   inkscape:export-ydpi="1174"
   x="305.91455"
   y="-487.21973"><tspan
     x="305.91455"
     y="-487.21973"
     id="tspan24">]</tspan></text><text
   transform="scale(1,-1)"
   style="font-style:italic;font-variant:normal;font-weight:bold;font-size:20px;font-family:'Times New Roman';-inkscape-font-specification:TimesNewRomanPS-BoldItalicMT;writing-mode:lr-tb;fill:#231f20;fill-opacity:1;fill-rule:nonzero;stroke:none"
   id="text30"
   inkscape:export-xdpi="1174"
   inkscape:export-ydpi="1174"
   x="392.65967"
   y="-488.84033"><tspan
     x="392.65967"
     y="-488.84033"
     id="tspan28">n</tspan></text><text
   transform="scale(1,-1)"
   style="font-variant:normal;font-weight:normal;font-size:20px;font-family:'Times New Roman';-inkscape-font-specification:TimesNewRomanPSMT;writing-mode:lr-tb;fill:#231f20;fill-opacity:1;fill-rule:nonzero;stroke:none"
   id="text168"
   x="352"
   y="-491.27539"><tspan
     x="352"
     y="-491.27539"
     id="tspan166">I</tspan></text><text
   transform="scale(1,-1)"
   style="font-style:italic;font-variant:normal;font-size:20px;font-family:'Times New Roman';-inkscape-font-specification:TimesNewRomanPS-ItalicMT;writing-mode:lr-tb;fill:#231f20;fill-opacity:1;fill-rule:nonzero;stroke:none"
   id="text172"
   x="358.66016"
   y="-488.27539"><tspan
     x="358.66016"
     y="-488.27539"
     id="tspan170">n</tspan></text><text
   transform="scale(1,-1)"
   style="font-variant:normal;font-weight:normal;font-size:20px;font-family:'Times New Roman';-inkscape-font-specification:TimesNewRomanPSMT;writing-mode:lr-tb;fill:#231f20;fill-opacity:1;fill-rule:nonzero;stroke:none"
   id="text176"
   x="438"
   y="-489.27539"><tspan
     x="438 449.12"
     y="-489.27539"
     sodipodi:role="line"
     id="tspan174">P(</tspan></text><text
   transform="scale(1,-1)"
   style="font-style:italic;font-variant:normal;font-size:20px;font-family:'Times New Roman';-inkscape-font-specification:TimesNewRomanPS-ItalicMT;writing-mode:lr-tb;fill:#231f20;fill-opacity:1;fill-rule:nonzero;stroke:none"
   id="text180"
   x="455.7832"
   y="-489.27539"><tspan
     x="455.7832"
     y="-489.27539"
     id="tspan178">n</tspan></text><text
   transform="scale(1,-1)"
   style="font-variant:normal;font-weight:normal;font-size:20px;font-family:'Times New Roman';-inkscape-font-specification:TimesNewRomanPSMT;writing-mode:lr-tb;fill:#231f20;fill-opacity:1;fill-rule:nonzero;stroke:none"
   id="text184"
   x="465.7832"
   y="-489.27539"><tspan
     x="465.7832"
     y="-489.27539"
     id="tspan182">)</tspan></text><text
   transform="scale(1,-1)"
   style="font-style:italic;font-variant:normal;font-weight:bold;font-size:20px;font-family:'Times New Roman';-inkscape-font-specification:TimesNewRomanPS-BoldItalicMT;writing-mode:lr-tb;fill:#231f20;fill-opacity:1;fill-rule:nonzero;stroke:none"
   id="text188"
   x="513.5835"
   y="-491.71533"><tspan
     x="513.5835"
     y="-491.71533"
     id="tspan186">w</tspan></text><text
   transform="scale(1,-1)"
   style="font-style:italic;font-variant:normal;font-weight:bold;font-size:14px;font-family:'Times New Roman';-inkscape-font-specification:TimesNewRomanPS-BoldItalicMT;writing-mode:lr-tb;fill:#231f20;fill-opacity:1;fill-rule:nonzero;stroke:none"
   id="text192"
   x="526.92334"
   y="-488.71533"><tspan
     x="526.92334"
     y="-488.71533"
     id="tspan190">i</tspan></text><text
   transform="scale(1,-1)"
   style="font-variant:normal;font-weight:normal;font-size:20px;font-family:'Times New Roman';-inkscape-font-specification:TimesNewRomanPSMT;writing-mode:lr-tb;fill:#231f20;fill-opacity:1;fill-rule:nonzero;stroke:none"
   id="text196"
   x="584"
   y="-492.37549"><tspan
     x="584 595.12"
     y="-492.37549"
     sodipodi:role="line"
     id="tspan194">P(</tspan></text><text
   transform="scale(1,-1)"
   style="font-style:italic;font-variant:normal;font-weight:bold;font-size:20px;font-family:'Times New Roman';-inkscape-font-specification:TimesNewRomanPS-BoldItalicMT;writing-mode:lr-tb;fill:#231f20;fill-opacity:1;fill-rule:nonzero;stroke:none"
   id="text200"
   x="601.7832"
   y="-492.37549"><tspan
     x="601.7832"
     y="-492.37549"
     id="tspan198">w</tspan></text><text
   transform="scale(1,-1)"
   style="font-variant:normal;font-weight:normal;font-size:14px;font-family:'Times New Roman';-inkscape-font-specification:TimesNewRomanPSMT;writing-mode:lr-tb;fill:#231f20;fill-opacity:1;fill-rule:nonzero;stroke:none"
   id="text204"
   x="615.12305"
   y="-489.37549"><tspan
     x="615.12305"
     y="-489.37549"
     id="tspan202">i</tspan></text><text
   transform="scale(1,-1)"
   style="font-variant:normal;font-weight:normal;font-size:20px;font-family:'Times New Roman';-inkscape-font-specification:TimesNewRomanPSMT;writing-mode:lr-tb;fill:#231f20;fill-opacity:1;fill-rule:nonzero;stroke:none"
   id="text208"
   x="619.0127"
   y="-492.37549"><tspan
     x="619.0127"
     y="-492.37549"
     id="tspan206">)</tspan></text><text
   transform="scale(1,-1)"
   style="font-variant:normal;font-weight:bold;font-size:18px;font-family:'Times New Roman';-inkscape-font-specification:TimesNewRomanPS-BoldMT;writing-mode:lr-tb;fill:#231f20;fill-opacity:1;fill-rule:nonzero;stroke:none"
   id="text212"
   x="233"
   y="-456.27539"><tspan
     x="233"
     y="-456.27539"
     id="tspan210">0</tspan></text><text
   transform="scale(1,-1)"
   style="font-variant:normal;font-weight:bold;font-size:18px;font-family:'Times New Roman';-inkscape-font-specification:TimesNewRomanPS-BoldMT;writing-mode:lr-tb;fill:#231f20;fill-opacity:1;fill-rule:nonzero;stroke:none"
   id="text216"
   x="232"
   y="-420.27539"><tspan
     x="232"
     y="-420.27539"
     id="tspan214">1</tspan></text><text
   transform="scale(1,-1)"
   style="font-variant:normal;font-weight:bold;font-size:18px;font-family:'Times New Roman';-inkscape-font-specification:TimesNewRomanPS-BoldMT;writing-mode:lr-tb;fill:#231f20;fill-opacity:1;fill-rule:nonzero;stroke:none"
   id="text220"
   x="233"
   y="-374.27539"><tspan
     x="233"
     y="-374.27539"
     id="tspan218">2</tspan></text><text
   transform="scale(1,-1)"
   style="font-variant:normal;font-weight:normal;font-size:18px;font-family:'Times New Roman';-inkscape-font-specification:TimesNewRomanPSMT;writing-mode:lr-tb;fill:#231f20;fill-opacity:1;fill-rule:nonzero;stroke:none"
   id="text224"
   x="281.83447"
   y="-456.27539"><tspan
     x="281.83447 290.83447 295.33447 299.83447 304.33447"
     y="-456.27539"
     sodipodi:role="line"
     id="tspan222">2 , 2</tspan></text><text
   transform="scale(1,-1)"
   style="font-variant:normal;font-weight:normal;font-size:18px;font-family:'Times New Roman';-inkscape-font-specification:TimesNewRomanPSMT;writing-mode:lr-tb;fill:#231f20;fill-opacity:1;fill-rule:nonzero;stroke:none"
   id="text228"
   x="281.83447"
   y="-420.27539"><tspan
     x="281.83447 290.83447 295.33447 299.83447 304.33447"
     y="-420.27539"
     sodipodi:role="line"
     id="tspan226">3 , 4</tspan></text><text
   transform="scale(1,-1)"
   style="font-variant:normal;font-weight:normal;font-size:18px;font-family:'Times New Roman';-inkscape-font-specification:TimesNewRomanPSMT;writing-mode:lr-tb;fill:#231f20;fill-opacity:1;fill-rule:nonzero;stroke:none"
   id="text232"
   x="281.83447"
   y="-317.27539"><tspan
     x="281.83447 290.83447 295.33447 299.83447 304.33447"
     y="-317.27539"
     sodipodi:role="line"
     id="tspan230">5 , 8</tspan></text><text
   transform="scale(1,-1)"
   style="font-variant:normal;font-weight:normal;font-size:18px;font-family:'Times New Roman';-inkscape-font-specification:TimesNewRomanPSMT;writing-mode:lr-tb;fill:#231f20;fill-opacity:1;fill-rule:nonzero;stroke:none"
   id="text236"
   x="352"
   y="-456.27539"><tspan
     x="352"
     y="-456.27539"
     id="tspan234">1</tspan></text><text
   transform="scale(1,-1)"
   style="font-variant:normal;font-weight:bold;font-size:18px;font-family:'Times New Roman';-inkscape-font-specification:TimesNewRomanPS-BoldMT;writing-mode:lr-tb;fill:#231f20;fill-opacity:1;fill-rule:nonzero;stroke:none"
   id="text240"
   x="393.72119"
   y="-427.27539"><tspan
     x="393.72119"
     y="-427.27539"
     id="tspan238">3</tspan></text><text
   transform="scale(1,-1)"
   style="font-variant:normal;font-weight:normal;font-size:18px;font-family:'Times New Roman';-inkscape-font-specification:TimesNewRomanPSMT;writing-mode:lr-tb;fill:#231f20;fill-opacity:1;fill-rule:nonzero;stroke:none"
   id="text244"
   x="349"
   y="-316.27539"><tspan
     x="349"
     y="-316.27539"
     id="tspan242">4</tspan></text><text
   transform="scale(1,-1)"
   style="font-variant:normal;font-weight:normal;font-size:18px;font-family:'Times New Roman';-inkscape-font-specification:TimesNewRomanPSMT;writing-mode:lr-tb;fill:#231f20;fill-opacity:1;fill-rule:nonzero;stroke:none"
   id="text248"
   x="352"
   y="-420.27539"><tspan
     x="352"
     y="-420.27539"
     id="tspan246">2</tspan></text><text
   transform="scale(1,-1)"
   style="font-variant:normal;font-weight:bold;font-size:18px;font-family:'Times New Roman';-inkscape-font-specification:TimesNewRomanPS-BoldMT;writing-mode:lr-tb;fill:#231f20;fill-opacity:1;fill-rule:nonzero;stroke:none"
   id="text252"
   x="393.72119"
   y="-456.27539"><tspan
     x="393.72119"
     y="-456.27539"
     id="tspan250">2</tspan></text><text
   transform="scale(1,-1)"
   style="font-variant:normal;font-weight:bold;font-size:18px;font-family:'Times New Roman';-inkscape-font-specification:TimesNewRomanPS-BoldMT;writing-mode:lr-tb;fill:#231f20;fill-opacity:1;fill-rule:nonzero;stroke:none"
   id="text256"
   x="393.72119"
   y="-399.27539"><tspan
     x="393.72119"
     y="-399.27539"
     id="tspan254">4</tspan></text><text
   transform="scale(1,-1)"
   style="font-variant:normal;font-weight:bold;font-size:18px;font-family:'Times New Roman';-inkscape-font-specification:TimesNewRomanPS-BoldMT;writing-mode:lr-tb;fill:#231f20;fill-opacity:1;fill-rule:nonzero;stroke:none"
   id="text260"
   x="393.72119"
   y="-374.27539"><tspan
     x="393.72119"
     y="-374.27539"
     id="tspan258">5</tspan></text><text
   transform="scale(1,-1)"
   style="font-variant:normal;font-weight:bold;font-size:18px;font-family:'Times New Roman';-inkscape-font-specification:TimesNewRomanPS-BoldMT;writing-mode:lr-tb;fill:#231f20;fill-opacity:1;fill-rule:nonzero;stroke:none"
   id="text264"
   x="393.72119"
   y="-342.27539"><tspan
     x="393.72119"
     y="-342.27539"
     id="tspan262">6</tspan></text><text
   transform="scale(1,-1)"
   style="font-variant:normal;font-weight:bold;font-size:18px;font-family:'Times New Roman';-inkscape-font-specification:TimesNewRomanPS-BoldMT;writing-mode:lr-tb;fill:#231f20;fill-opacity:1;fill-rule:nonzero;stroke:none"
   id="text268"
   x="393.72119"
   y="-315.27539"><tspan
     x="393.72119"
     y="-315.27539"
     id="tspan266">7</tspan></text><text
   transform="scale(1,-1)"
   style="font-variant:normal;font-weight:bold;font-size:18px;font-family:'Times New Roman';-inkscape-font-specification:TimesNewRomanPS-BoldMT;writing-mode:lr-tb;fill:#231f20;fill-opacity:1;fill-rule:nonzero;stroke:none"
   id="text272"
   x="393.72119"
   y="-286.27539"><tspan
     x="393.72119"
     y="-286.27539"
     id="tspan270">8</tspan></text><text
   transform="scale(1,-1)"
   style="font-variant:normal;font-weight:bold;font-size:18px;font-family:'Times New Roman';-inkscape-font-specification:TimesNewRomanPS-BoldMT;writing-mode:lr-tb;fill:#231f20;fill-opacity:1;fill-rule:nonzero;stroke:none"
   id="text276"
   x="393.90723"
   y="-261.27539"><tspan
     x="393.90723"
     y="-261.27539"
     id="tspan274">9</tspan></text><text
   transform="scale(1,-1)"
   style="font-style:italic;font-variant:normal;font-size:18px;font-family:'Times New Roman';-inkscape-font-specification:TimesNewRomanPS-ItalicMT;writing-mode:lr-tb;fill:#231f20;fill-opacity:1;fill-rule:nonzero;stroke:none"
   id="text280"
   x="438.5"
   y="-456.27539"><tspan
     x="438.5"
     y="-456.27539"
     id="tspan278">2</tspan></text><text
   transform="scale(1,-1)"
   style="font-style:italic;font-variant:normal;font-size:18px;font-family:'Times New Roman';-inkscape-font-specification:TimesNewRomanPS-ItalicMT;writing-mode:lr-tb;fill:#231f20;fill-opacity:1;fill-rule:nonzero;stroke:none"
   id="text284"
   x="438.5"
   y="-425.27539"><tspan
     x="438.5"
     y="-425.27539"
     id="tspan282">4</tspan></text><text
   transform="scale(1,-1)"
   style="font-style:italic;font-variant:normal;font-size:18px;font-family:'Times New Roman';-inkscape-font-specification:TimesNewRomanPS-ItalicMT;writing-mode:lr-tb;fill:#231f20;fill-opacity:1;fill-rule:nonzero;stroke:none"
   id="text288"
   x="438.5"
   y="-396.27539"><tspan
     x="438.5"
     y="-396.27539"
     id="tspan286">8</tspan></text><text
   transform="scale(1,-1)"
   style="font-style:italic;font-variant:normal;font-size:18px;font-family:'Times New Roman';-inkscape-font-specification:TimesNewRomanPS-ItalicMT;writing-mode:lr-tb;fill:#231f20;fill-opacity:1;fill-rule:nonzero;stroke:none"
   id="text292"
   x="438"
   y="-369.27539"><tspan
     x="438 447"
     y="-369.27539"
     sodipodi:role="line"
     id="tspan290">16</tspan></text><text
   transform="scale(1,-1)"
   style="font-style:italic;font-variant:normal;font-size:18px;font-family:'Times New Roman';-inkscape-font-specification:TimesNewRomanPS-ItalicMT;writing-mode:lr-tb;fill:#231f20;fill-opacity:1;fill-rule:nonzero;stroke:none"
   id="text296"
   x="438"
   y="-343.27539"><tspan
     x="438 447"
     y="-343.27539"
     sodipodi:role="line"
     id="tspan294">32</tspan></text><text
   transform="scale(1,-1)"
   style="font-style:italic;font-variant:normal;font-size:18px;font-family:'Times New Roman';-inkscape-font-specification:TimesNewRomanPS-ItalicMT;writing-mode:lr-tb;fill:#231f20;fill-opacity:1;fill-rule:nonzero;stroke:none"
   id="text300"
   x="438"
   y="-317.27539"><tspan
     x="438 447"
     y="-317.27539"
     sodipodi:role="line"
     id="tspan298">64</tspan></text><text
   transform="scale(1,-1)"
   style="font-style:italic;font-variant:normal;font-size:18px;font-family:'Times New Roman';-inkscape-font-specification:TimesNewRomanPS-ItalicMT;writing-mode:lr-tb;fill:#231f20;fill-opacity:1;fill-rule:nonzero;stroke:none"
   id="text304"
   x="438"
   y="-290.27539"><tspan
     x="438 447 456"
     y="-290.27539"
     sodipodi:role="line"
     id="tspan302">128</tspan></text><text
   transform="scale(1,-1)"
   style="font-style:italic;font-variant:normal;font-size:18px;font-family:'Times New Roman';-inkscape-font-specification:TimesNewRomanPS-ItalicMT;writing-mode:lr-tb;fill:#231f20;fill-opacity:1;fill-rule:nonzero;stroke:none"
   id="text308"
   x="439.6001"
   y="-258.27539"><tspan
     x="439.6001 448.6001 457.6001"
     y="-258.27539"
     sodipodi:role="line"
     id="tspan306">256</tspan></text><text
   transform="scale(1,-1)"
   style="font-variant:normal;font-weight:bold;font-size:18px;font-family:'Times New Roman';-inkscape-font-specification:TimesNewRomanPS-BoldMT;writing-mode:lr-tb;fill:#231f20;fill-opacity:1;fill-rule:nonzero;stroke:none"
   id="text312"
   x="522.0835"
   y="-427.27539"><tspan
     x="522.0835"
     y="-427.27539"
     id="tspan310">1</tspan></text><text
   transform="scale(1,-1)"
   style="font-variant:normal;font-weight:normal;font-size:18px;font-family:'Times New Roman';-inkscape-font-specification:TimesNewRomanPSMT;writing-mode:lr-tb;fill:#231f20;fill-opacity:1;fill-rule:nonzero;stroke:none"
   id="text316"
   x="598.375"
   y="-426.27539"><tspan
     x="598.375"
     y="-426.27539"
     id="tspan314">4</tspan></text><text
   transform="scale(1,-1)"
   style="font-variant:normal;font-weight:bold;font-size:18px;font-family:'Times New Roman';-inkscape-font-specification:TimesNewRomanPS-BoldMT;writing-mode:lr-tb;fill:#231f20;fill-opacity:1;fill-rule:nonzero;stroke:none"
   id="text320"
   x="522.0835"
   y="-455.27539"><tspan
     x="522.0835"
     y="-455.27539"
     id="tspan318">1</tspan></text><text
   transform="scale(1,-1)"
   style="font-variant:normal;font-weight:normal;font-size:18px;font-family:'Times New Roman';-inkscape-font-specification:TimesNewRomanPSMT;writing-mode:lr-tb;fill:#231f20;fill-opacity:1;fill-rule:nonzero;stroke:none"
   id="text324"
   x="598.375"
   y="-400.27539"><tspan
     x="598.375"
     y="-400.27539"
     id="tspan322">4</tspan></text><text
   transform="scale(1,-1)"
   style="font-variant:normal;font-weight:normal;font-size:18px;font-family:'Times New Roman';-inkscape-font-specification:TimesNewRomanPSMT;writing-mode:lr-tb;fill:#231f20;fill-opacity:1;fill-rule:nonzero;stroke:none"
   id="text328"
   x="598.375"
   y="-368.27539"><tspan
     x="598.375"
     y="-368.27539"
     id="tspan326">8</tspan></text><text
   transform="scale(1,-1)"
   style="font-variant:normal;font-weight:normal;font-size:18px;font-family:'Times New Roman';-inkscape-font-specification:TimesNewRomanPSMT;writing-mode:lr-tb;fill:#231f20;fill-opacity:1;fill-rule:nonzero;stroke:none"
   id="text332"
   x="598.375"
   y="-341.27539"><tspan
     x="598.375"
     y="-341.27539"
     id="tspan330">8</tspan></text><text
   transform="scale(1,-1)"
   style="font-variant:normal;font-weight:normal;font-size:18px;font-family:'Times New Roman';-inkscape-font-specification:TimesNewRomanPSMT;writing-mode:lr-tb;fill:#231f20;fill-opacity:1;fill-rule:nonzero;stroke:none"
   id="text336"
   x="598.375"
   y="-312.27539"><tspan
     x="598.375"
     y="-312.27539"
     id="tspan334">8</tspan></text><text
   transform="scale(1,-1)"
   style="font-variant:normal;font-weight:normal;font-size:18px;font-family:'Times New Roman';-inkscape-font-specification:TimesNewRomanPSMT;writing-mode:lr-tb;fill:#231f20;fill-opacity:1;fill-rule:nonzero;stroke:none"
   id="text340"
   x="598.375"
   y="-290.27539"><tspan
     x="598.375"
     y="-290.27539"
     id="tspan338">8</tspan></text><text
   transform="scale(1,-1)"
   style="font-variant:normal;font-weight:normal;font-size:18px;font-family:'Times New Roman';-inkscape-font-specification:TimesNewRomanPSMT;writing-mode:lr-tb;fill:#231f20;fill-opacity:1;fill-rule:nonzero;stroke:none"
   id="text344"
   x="593.875"
   y="-256.27539"><tspan
     x="593.875 602.875"
     y="-256.27539"
     sodipodi:role="line"
     id="tspan342">16</tspan></text><text
   transform="scale(1,-1)"
   style="font-variant:normal;font-weight:normal;font-size:18px;font-family:'Times New Roman';-inkscape-font-specification:TimesNewRomanPSMT;writing-mode:lr-tb;fill:#231f20;fill-opacity:1;fill-rule:nonzero;stroke:none"
   id="text348"
   x="598.375"
   y="-454.27539"><tspan
     x="598.375"
     y="-454.27539"
     id="tspan346">2</tspan></text><text
   transform="scale(1,-1)"
   style="font-variant:normal;font-weight:bold;font-size:18px;font-family:'Times New Roman';-inkscape-font-specification:TimesNewRomanPS-BoldMT;writing-mode:lr-tb;fill:#231f20;fill-opacity:1;fill-rule:nonzero;stroke:none"
   id="text352"
   x="522.0835"
   y="-400.27539"><tspan
     x="522.0835"
     y="-400.27539"
     id="tspan350">2</tspan></text><text
   transform="scale(1,-1)"
   style="font-variant:normal;font-weight:bold;font-size:18px;font-family:'Times New Roman';-inkscape-font-specification:TimesNewRomanPS-BoldMT;writing-mode:lr-tb;fill:#231f20;fill-opacity:1;fill-rule:nonzero;stroke:none"
   id="text356"
   x="522.0835"
   y="-371.27539"><tspan
     x="522.0835"
     y="-371.27539"
     id="tspan354">2</tspan></text><text
   transform="scale(1,-1)"
   style="font-variant:normal;font-weight:bold;font-size:18px;font-family:'Times New Roman';-inkscape-font-specification:TimesNewRomanPS-BoldMT;writing-mode:lr-tb;fill:#231f20;fill-opacity:1;fill-rule:nonzero;stroke:none"
   id="text360"
   x="522.0835"
   y="-344.27539"><tspan
     x="522.0835"
     y="-344.27539"
     id="tspan358">4</tspan></text><text
   transform="scale(1,-1)"
   style="font-variant:normal;font-weight:bold;font-size:18px;font-family:'Times New Roman';-inkscape-font-specification:TimesNewRomanPS-BoldMT;writing-mode:lr-tb;fill:#231f20;fill-opacity:1;fill-rule:nonzero;stroke:none"
   id="text364"
   x="522.0835"
   y="-314.27539"><tspan
     x="522.0835"
     y="-314.27539"
     id="tspan362">8</tspan></text><text
   transform="scale(1,-1)"
   style="font-variant:normal;font-weight:bold;font-size:18px;font-family:'Times New Roman';-inkscape-font-specification:TimesNewRomanPS-BoldMT;writing-mode:lr-tb;fill:#231f20;fill-opacity:1;fill-rule:nonzero;stroke:none"
   id="text368"
   x="517.5835"
   y="-287.27539"><tspan
     x="517.5835 526.5835"
     y="-287.27539"
     sodipodi:role="line"
     id="tspan366">16</tspan></text><text
   transform="scale(1,-1)"
   style="font-variant:normal;font-weight:bold;font-size:18px;font-family:'Times New Roman';-inkscape-font-specification:TimesNewRomanPS-BoldMT;writing-mode:lr-tb;fill:#231f20;fill-opacity:1;fill-rule:nonzero;stroke:none"
   id="text372"
   x="517.5835"
   y="-257.27539"><tspan
     x="517.5835 526.5835"
     y="-257.27539"
     sodipodi:role="line"
     id="tspan370">16</tspan></text><g
   id="g374"
   transform="scale(1,-1)"><path
     d="m 221,-475.19775 c 0,0 443,0 443,0"
     style="fill:none;stroke:#231f20;stroke-width:2;stroke-linecap:butt;stroke-linejoin:miter;stroke-miterlimit:4;stroke-dasharray:none;stroke-opacity:1"
     id="path376"
     inkscape:connector-curvature="0" /><path
     d="m 222,-449.13672 c 0,0 443,0 443,0"
     style="fill:none;stroke:#231f20;stroke-width:1;stroke-linecap:butt;stroke-linejoin:miter;stroke-miterlimit:4;stroke-dasharray:none;stroke-opacity:1"
     id="path378"
     inkscape:connector-curvature="0" /><path
     d="m 222,-392.00244 c 0,0 443,0 443,0"
     style="fill:none;stroke:#231f20;stroke-width:1;stroke-linecap:butt;stroke-linejoin:miter;stroke-miterlimit:4;stroke-dasharray:none;stroke-opacity:1"
     id="path380"
     inkscape:connector-curvature="0" /><path
     d="m 379,-421.27539 c 0,0 283,0 283,0"
     style="fill:none;stroke:#231f20;stroke-width:1;stroke-linecap:butt;stroke-linejoin:miter;stroke-miterlimit:4;stroke-dasharray:none;stroke-opacity:1"
     id="path382"
     inkscape:connector-curvature="0" /><path
     d="m 378,-365.27539 c 0,0 283,0 283,0"
     style="fill:none;stroke:#231f20;stroke-width:1;stroke-linecap:butt;stroke-linejoin:miter;stroke-miterlimit:4;stroke-dasharray:none;stroke-opacity:1"
     id="path384"
     inkscape:connector-curvature="0" /><path
     d="m 380,-336.27539 c 0,0 283,0 283,0"
     style="fill:none;stroke:#231f20;stroke-width:1;stroke-linecap:butt;stroke-linejoin:miter;stroke-miterlimit:4;stroke-dasharray:none;stroke-opacity:1"
     id="path386"
     inkscape:connector-curvature="0" /><path
     d="m 380.1665,-252.27539 c 0,0 284.8335,0 284.8335,0"
     style="fill:none;stroke:#231f20;stroke-width:1;stroke-linecap:butt;stroke-linejoin:miter;stroke-miterlimit:4;stroke-dasharray:none;stroke-opacity:1"
     id="path388"
     inkscape:connector-curvature="0" /><path
     d="m 221,-277.73438 c 0,0 443,0 443,0"
     style="fill:none;stroke:#231f20;stroke-width:1;stroke-linecap:butt;stroke-linejoin:miter;stroke-miterlimit:4;stroke-dasharray:none;stroke-opacity:1"
     id="path390"
     inkscape:connector-curvature="0" /><path
     d="m 380,-308.27539 c 0,0 283,0 283,0"
     style="fill:none;stroke:#231f20;stroke-width:1;stroke-linecap:butt;stroke-linejoin:miter;stroke-miterlimit:4;stroke-dasharray:none;stroke-opacity:1"
     id="path392"
     inkscape:connector-curvature="0" /><path
     d="m 254,-508.27539 c 0,0 0,318 0,318 0,0 81,0 81,0 0,0 0,-318 0,-318 0,0 -81,0 -81,0 z"
     style="fill:none;stroke:#231f20;stroke-width:1;stroke-linecap:butt;stroke-linejoin:miter;stroke-miterlimit:4;stroke-dasharray:none;stroke-opacity:1"
     id="path394"
     inkscape:connector-curvature="0" /><path
     d="m 250,-508.27539 c 0,0 0,318 0,318 0,0 4,0 4,0 0,0 0,-318 0,-318 0,0 -4,0 -4,0 z"
     style="fill:none;stroke:#231f20;stroke-width:1;stroke-linecap:butt;stroke-linejoin:miter;stroke-miterlimit:4;stroke-dasharray:none;stroke-opacity:1"
     id="path396"
     inkscape:connector-curvature="0" /><path
     d="m 222,-508.27539 c 0,0 0,318 0,318 0,0 28,0 28,0 0,0 0,-318 0,-318 0,0 -28,0 -28,0 z"
     style="fill:none;stroke:#231f20;stroke-width:1;stroke-linecap:butt;stroke-linejoin:miter;stroke-miterlimit:4;stroke-dasharray:none;stroke-opacity:1"
     id="path398"
     inkscape:connector-curvature="0" /><path
     d="m 335,-508.27539 c 0,0 0,318 0,318 0,0 45,0 45,0 0,0 0,-318 0,-318 0,0 -45,0 -45,0 z"
     style="fill:none;stroke:#231f20;stroke-width:1;stroke-linecap:butt;stroke-linejoin:miter;stroke-miterlimit:4;stroke-dasharray:none;stroke-opacity:1"
     id="path400"
     inkscape:connector-curvature="0" /><path
     d="m 663,-508.27539 c 0,0 -118,0 -118,0 0,0 0,318 0,318 0,0 118,0 118,0 0,0 0,-318 0,-318 z"
     style="fill:none;stroke:#231f20;stroke-width:1;stroke-linecap:butt;stroke-linejoin:miter;stroke-miterlimit:4;stroke-dasharray:none;stroke-opacity:1"
     id="path402"
     inkscape:connector-curvature="0" /><path
     d="m 506,-508.27539 c 0,0 0,318 0,318 0,0 39,0 39,0 0,0 0,-318 0,-318 0,0 -39,0 -39,0 z"
     style="fill:none;stroke:#231f20;stroke-width:1;stroke-linecap:butt;stroke-linejoin:miter;stroke-miterlimit:4;stroke-dasharray:none;stroke-opacity:1"
     id="path404"
     inkscape:connector-curvature="0" /><path
     d="m 421,-508.27539 c 0,0 0,318 0,318 0,0 85,0 85,0 0,0 0,-318 0,-318 0,0 -85,0 -85,0 z"
     style="fill:none;stroke:#231f20;stroke-width:1;stroke-linecap:butt;stroke-linejoin:miter;stroke-miterlimit:4;stroke-dasharray:none;stroke-opacity:1"
     id="path406"
     inkscape:connector-curvature="0" /><path
     d="m 380,-508.27539 c 0,0 0,318 0,318 0,0 41,0 41,0 0,0 0,-318 0,-318 0,0 -41,0 -41,0 z"
     style="fill:none;stroke:#231f20;stroke-width:1;stroke-linecap:butt;stroke-linejoin:miter;stroke-miterlimit:4;stroke-dasharray:none;stroke-opacity:1"
     id="path408"
     inkscape:connector-curvature="0" /><path
     d="m 296,-261.94238 c 0,1.28808 -0.89502,2.333 -2,2.333 -1.10498,0 -2,-1.04492 -2,-2.333 0,-1.28809 0.89502,-2.33301 2,-2.33301 1.10498,0 2,1.04492 2,2.33301 z"
     style="fill:#231f20;fill-opacity:1;fill-rule:nonzero;stroke:none"
     id="path410"
     inkscape:connector-curvature="0" /><path
     d="m 352.5,-262.94238 c 0,1.28808 -0.89502,2.333 -2,2.333 -1.10498,0 -2,-1.04492 -2,-2.333 0,-1.28809 0.89502,-2.33301 2,-2.33301 1.10498,0 2,1.04492 2,2.33301 z"
     style="fill:#231f20;fill-opacity:1;fill-rule:nonzero;stroke:none"
     id="path412"
     inkscape:connector-curvature="0" /><path
     d="m 296,-235.44238 c 0,1.28808 -0.89502,2.333 -2,2.333 -1.10498,0 -2,-1.04492 -2,-2.333 0,-1.28809 0.89502,-2.33301 2,-2.33301 1.10498,0 2,1.04492 2,2.33301 z"
     style="fill:#231f20;fill-opacity:1;fill-rule:nonzero;stroke:none"
     id="path414"
     inkscape:connector-curvature="0" /><path
     d="m 352.5,-233.64258 c 0,1.28906 -0.89502,2.33399 -2,2.33399 -1.10498,0 -2,-1.04493 -2,-2.33399 0,-1.28808 0.89502,-2.33301 2,-2.33301 1.10498,0 2,1.04493 2,2.33301 z"
     style="fill:#231f20;fill-opacity:1;fill-rule:nonzero;stroke:none"
     id="path416"
     inkscape:connector-curvature="0" /><path
     d="m 295,-208.69238 c 0,1.28808 -0.89502,2.333 -2,2.333 -1.10498,0 -2,-1.04492 -2,-2.333 0,-1.28809 0.89502,-2.33301 2,-2.33301 1.10498,0 2,1.04492 2,2.33301 z"
     style="fill:#231f20;fill-opacity:1;fill-rule:nonzero;stroke:none"
     id="path418"
     inkscape:connector-curvature="0" /><path
     d="m 352.5,-209.94238 c 0,1.28808 -0.89502,2.333 -2,2.333 -1.10498,0 -2,-1.04492 -2,-2.333 0,-1.28809 0.89502,-2.33301 2,-2.33301 1.10498,0 2,1.04492 2,2.33301 z"
     style="fill:#231f20;fill-opacity:1;fill-rule:nonzero;stroke:none"
     id="path420"
     inkscape:connector-curvature="0" /><path
     d="m 400.40723,-233.64258 c 0,1.28906 -0.89502,2.33399 -2,2.33399 -1.10498,0 -2,-1.04493 -2,-2.33399 0,-1.28808 0.89502,-2.33301 2,-2.33301 1.10498,0 2,1.04493 2,2.33301 z"
     style="fill:#231f20;fill-opacity:1;fill-rule:nonzero;stroke:none"
     id="path422"
     inkscape:connector-curvature="0" /><path
     d="m 400.40723,-209.94238 c 0,1.28808 -0.89502,2.333 -2,2.333 -1.10498,0 -2,-1.04492 -2,-2.333 0,-1.28809 0.89502,-2.33301 2,-2.33301 1.10498,0 2,1.04492 2,2.33301 z"
     style="fill:#231f20;fill-opacity:1;fill-rule:nonzero;stroke:none"
     id="path424"
     inkscape:connector-curvature="0" /><path
     d="m 455.3252,-233.64258 c 0,1.28906 -0.89454,2.33399 -2,2.33399 -1.10547,0 -2,-1.04493 -2,-2.33399 0,-1.28808 0.89453,-2.33301 2,-2.33301 1.10546,0 2,1.04493 2,2.33301 z"
     style="fill:#231f20;fill-opacity:1;fill-rule:nonzero;stroke:none"
     id="path426"
     inkscape:connector-curvature="0" /><path
     d="m 455.3252,-209.94238 c 0,1.28808 -0.89454,2.333 -2,2.333 -1.10547,0 -2,-1.04492 -2,-2.333 0,-1.28809 0.89453,-2.33301 2,-2.33301 1.10546,0 2,1.04492 2,2.33301 z"
     style="fill:#231f20;fill-opacity:1;fill-rule:nonzero;stroke:none"
     id="path428"
     inkscape:connector-curvature="0" /><path
     d="m 527.5,-233.64258 c 0,1.28906 -0.89453,2.33399 -2,2.33399 -1.10547,0 -2,-1.04493 -2,-2.33399 0,-1.28808 0.89453,-2.33301 2,-2.33301 1.10547,0 2,1.04493 2,2.33301 z"
     style="fill:#231f20;fill-opacity:1;fill-rule:nonzero;stroke:none"
     id="path430"
     inkscape:connector-curvature="0" /><path
     d="m 527.5,-209.94238 c 0,1.28808 -0.89453,2.333 -2,2.333 -1.10547,0 -2,-1.04492 -2,-2.333 0,-1.28809 0.89453,-2.33301 2,-2.33301 1.10547,0 2,1.04492 2,2.33301 z"
     style="fill:#231f20;fill-opacity:1;fill-rule:nonzero;stroke:none"
     id="path432"
     inkscape:connector-curvature="0" /><path
     d="m 604.75,-233.64258 c 0,1.28906 -0.89453,2.33399 -2,2.33399 -1.10547,0 -2,-1.04493 -2,-2.33399 0,-1.28808 0.89453,-2.33301 2,-2.33301 1.10547,0 2,1.04493 2,2.33301 z"
     style="fill:#231f20;fill-opacity:1;fill-rule:nonzero;stroke:none"
     id="path434"
     inkscape:connector-curvature="0" /><path
     d="m 604.75,-209.94238 c 0,1.28808 -0.89453,2.333 -2,2.333 -1.10547,0 -2,-1.04492 -2,-2.333 0,-1.28809 0.89453,-2.33301 2,-2.33301 1.10547,0 2,1.04492 2,2.33301 z"
     style="fill:#231f20;fill-opacity:1;fill-rule:nonzero;stroke:none"
     id="path436"
     inkscape:connector-curvature="0" /></g><rect
   style="fill:none;stroke:#000000;stroke-width:1.425;stroke-miterlimit:4;stroke-dasharray:none;stroke-dashoffset:0;stop-color:#000000"
   id="rect8612"
   width="440.08218"
   height="204.11543"
   x="222"
   y="-190.27539"
   transform="scale(1,-1)" /></g></svg>
