<?xml version="1.0" encoding="UTF-8" standalone="no"?>
<svg
   xmlns:dc="http://purl.org/dc/elements/1.1/"
   xmlns:cc="http://creativecommons.org/ns#"
   xmlns:rdf="http://www.w3.org/1999/02/22-rdf-syntax-ns#"
   xmlns:svg="http://www.w3.org/2000/svg"
   xmlns="http://www.w3.org/2000/svg"
   xmlns:sodipodi="http://sodipodi.sourceforge.net/DTD/sodipodi-0.dtd"
   xmlns:inkscape="http://www.inkscape.org/namespaces/inkscape"
   version="1.1"
   id="svg2"
   xml:space="preserve"
   width="160.50757"
   height="160.32727"
   viewBox="0 0 160.50756 160.32728"
   sodipodi:docname="bouclettes.svg"
   inkscape:version="1.0.2-2 (e86c870879, 2021-01-15)"><metadata
     id="metadata8"><rdf:RDF><cc:Work
         rdf:about=""><dc:format>image/svg+xml</dc:format><dc:type
           rdf:resource="http://purl.org/dc/dcmitype/StillImage" /><dc:title></dc:title></cc:Work></rdf:RDF></metadata><defs
     id="defs6" /><sodipodi:namedview
     pagecolor="#ffffff"
     bordercolor="#666666"
     borderopacity="1"
     objecttolerance="10"
     gridtolerance="10"
     guidetolerance="10"
     inkscape:pageopacity="0"
     inkscape:pageshadow="2"
     inkscape:window-width="1920"
     inkscape:window-height="1001"
     id="namedview4"
     showgrid="false"
     inkscape:zoom="1"
     inkscape:cx="104.15437"
     inkscape:cy="60.782109"
     inkscape:window-x="-9"
     inkscape:window-y="-9"
     inkscape:window-maximized="1"
     inkscape:current-layer="g10"
     inkscape:document-rotation="0"
     fit-margin-top="0"
     fit-margin-left="0"
     fit-margin-right="0"
     fit-margin-bottom="0" /><g
     id="g10"
     inkscape:groupmode="layer"
     inkscape:label="bouclettes"
     transform="matrix(1.3333333,0,0,-1.3333333,-184.83115,636.52554)"><rect
       style="font-variation-settings:normal;opacity:1;vector-effect:none;fill:#e3dbdb;fill-opacity:1;stroke:none;stroke-width:2.76581;stroke-linecap:butt;stroke-linejoin:miter;stroke-miterlimit:4;stroke-dasharray:none;stroke-dashoffset:0;stroke-opacity:1;stop-color:#000000;stop-opacity:1"
       id="rect26472"
       width="120.38068"
       height="120.24545"
       x="138.62337"
       y="-477.39417"
       transform="scale(1,-1)" /><path
       inkscape:connector-curvature="0"
       id="path14"
       style="fill:none;stroke:#231f20;stroke-width:1.93573;stroke-linecap:butt;stroke-linejoin:miter;stroke-miterlimit:4;stroke-dasharray:none;stroke-opacity:1"
       d="m 154.7778,431.84738 c -7.16713,-4.73904 -21.18017,-27.13109 1.80632,-26.92022 22.98677,0.21175 16.94257,12.19263 12.93363,19.13202 -4.0091,6.93941 -20.02426,21.38627 -20.18125,29.36965 -0.15716,7.98325 2.85404,14.81894 11.56318,14.99024 8.70871,0.17191 16.53091,-3.78863 16.18549,-10.81355 -0.34549,-7.0249 -8.38525,-16.62171 -11.96581,-19.11271" /><path
       inkscape:connector-curvature="0"
       id="path16"
       style="fill:none;stroke:#231f20;stroke-width:1.93573;stroke-linecap:butt;stroke-linejoin:miter;stroke-miterlimit:4;stroke-dasharray:none;stroke-opacity:1"
       d="m 224.463,440.23528 c -6.95353,5.04703 -18.43976,31.86004 4.51645,30.64833 22.95572,-1.21151 16.52578,-15.85568 12.21862,-22.61403 -4.3075,-6.75791 -20.93695,-20.49398 -21.44154,-28.46265 -0.50471,-7.96867 2.20658,-14.92892 10.8996,-15.4799 8.69318,-0.55027 16.68034,3.06511 16.64115,10.099 -0.0392,7.03302 -7.1059,15.09959 -10.57506,17.74366" /><path
       inkscape:connector-curvature="0"
       id="path18"
       style="fill:none;stroke:#231f20;stroke-width:0.967855;stroke-linecap:butt;stroke-linejoin:miter;stroke-miterlimit:4;stroke-dasharray:none;stroke-opacity:1"
       d="m 167.08535,367.20185 c -2.0856,3.4603 -14.22582,13.92521 -14.30393,17.90895 -0.0788,3.98204 1.49251,7.39319 6.02947,7.48396 4.53671,0.0877 7.00586,-2.53015 6.82246,-6.03584 -0.18286,-3.50473 -2.73187,-5.77206 -4.59702,-7.01685" /><path
       inkscape:connector-curvature="0"
       id="path20"
       style="fill:none;stroke:#231f20;stroke-width:0.967855;stroke-linecap:butt;stroke-linejoin:miter;stroke-miterlimit:4;stroke-dasharray:none;stroke-opacity:1"
       d="m 155.47108,375.67054 c -1.29964,-0.82406 -3.35434,-4.83348 -4.83933,-7.01677" /><path
       inkscape:connector-curvature="0"
       id="path22"
       style="fill:none;stroke:#231f20;stroke-width:0.967855;stroke-linecap:butt;stroke-linejoin:miter;stroke-miterlimit:4;stroke-dasharray:none;stroke-opacity:1"
       d="m 225.04276,366.45427 c 2.08541,3.46032 14.22574,13.92492 14.30362,17.90903 0.0795,3.98203 -1.49241,7.39311 -6.02912,7.48377 -4.53676,0.088 -7.00619,-2.53012 -6.82279,-6.03569 0.18285,-3.50475 2.73206,-5.77216 4.59739,-7.01702" /><path
       inkscape:connector-curvature="0"
       id="path24"
       style="fill:none;stroke:#231f20;stroke-width:0.967855;stroke-linecap:butt;stroke-linejoin:miter;stroke-miterlimit:4;stroke-dasharray:none;stroke-opacity:1"
       d="m 236.65682,374.92298 c 1.29973,-0.82422 3.35464,-4.8335 4.83936,-7.01679" /></g></svg>
