<?xml version="1.0" encoding="UTF-8" standalone="no"?>
<svg
   xmlns:dc="http://purl.org/dc/elements/1.1/"
   xmlns:cc="http://creativecommons.org/ns#"
   xmlns:rdf="http://www.w3.org/1999/02/22-rdf-syntax-ns#"
   xmlns:svg="http://www.w3.org/2000/svg"
   xmlns="http://www.w3.org/2000/svg"
   xmlns:sodipodi="http://sodipodi.sourceforge.net/DTD/sodipodi-0.dtd"
   xmlns:inkscape="http://www.inkscape.org/namespaces/inkscape"
   version="1.1"
   id="svg2"
   xml:space="preserve"
   width="854.35016"
   height="402.24762"
   viewBox="0 0 854.35019 402.24762"
   sodipodi:docname="intercroistour.svg"
   inkscape:version="1.0.2-2 (e86c870879, 2021-01-15)"><metadata
     id="metadata8"><rdf:RDF><cc:Work
         rdf:about=""><dc:format>image/svg+xml</dc:format><dc:type
           rdf:resource="http://purl.org/dc/dcmitype/StillImage" /><dc:title></dc:title></cc:Work></rdf:RDF></metadata><defs
     id="defs6" /><sodipodi:namedview
     pagecolor="#ffffff"
     bordercolor="#666666"
     borderopacity="1"
     objecttolerance="10"
     gridtolerance="10"
     guidetolerance="10"
     inkscape:pageopacity="0"
     inkscape:pageshadow="2"
     inkscape:window-width="1920"
     inkscape:window-height="1001"
     id="namedview4"
     showgrid="false"
     inkscape:zoom="0.85926592"
     inkscape:cx="394.75723"
     inkscape:cy="73.688414"
     inkscape:window-x="-9"
     inkscape:window-y="-9"
     inkscape:window-maximized="1"
     inkscape:current-layer="g10"
     inkscape:document-rotation="0"
     fit-margin-top="10"
     lock-margins="true"
     fit-margin-left="10"
     fit-margin-right="10"
     fit-margin-bottom="10" /><g
     id="g10"
     inkscape:groupmode="layer"
     inkscape:label="intercroistour"
     transform="matrix(1.3333333,0,0,-1.3333333,-166.5026,749.84698)"><g
       id="g12"
       transform="scale(1,-1)"><path
         d="m 219.16943,-480.48193 c 0,0 -28.5,34 -28.5,34"
         style="fill:none;stroke:#231f20;stroke-width:0.5;stroke-linecap:butt;stroke-linejoin:miter;stroke-miterlimit:4;stroke-dasharray:none;stroke-opacity:1"
         id="path14" /><path
         d="m 191.16943,-443.73193 c 0,0 31.25,18.25 31.25,18.25"
         style="fill:none;stroke:#231f20;stroke-width:0.5;stroke-linecap:butt;stroke-linejoin:miter;stroke-miterlimit:4;stroke-dasharray:none;stroke-opacity:1"
         id="path16" /><path
         d="m 223.66943,-424.98193 c 0,0 24.25,-15 24.25,-15"
         style="fill:none;stroke:#231f20;stroke-width:0.5;stroke-linecap:butt;stroke-linejoin:miter;stroke-miterlimit:4;stroke-dasharray:none;stroke-opacity:1"
         id="path18" /><path
         d="m 220.41943,-480.23193 c 0,0 26,37.75 26,37.75"
         style="fill:none;stroke:#231f20;stroke-width:0.5;stroke-linecap:butt;stroke-linejoin:miter;stroke-miterlimit:4;stroke-dasharray:none;stroke-opacity:1"
         id="path20" /><path
         d="m 225.91943,-424.73193 c 0,1.65722 -1.34277,3 -3,3 -1.65625,0 -3,-1.34278 -3,-3 0,-1.65674 1.34375,-3 3,-3 1.65723,0 3,1.34326 3,3 z"
         style="fill:#ffffff;fill-opacity:1;fill-rule:nonzero;stroke:none"
         id="path22" /><path
         d="m 225.91943,-424.73193 c 0,1.65722 -1.34277,3 -3,3 -1.65625,0 -3,-1.34278 -3,-3 0,-1.65674 1.34375,-3 3,-3 1.65723,0 3,1.34326 3,3 z"
         style="fill:none;stroke:#231f20;stroke-width:0.5;stroke-linecap:butt;stroke-linejoin:miter;stroke-miterlimit:4;stroke-dasharray:none;stroke-opacity:1"
         id="path24" /><path
         d="m 192.91943,-444.48193 c 0,1.65673 -1.34375,3 -3,3 -1.65625,0 -3,-1.34327 -3,-3 0,-1.65674 1.34375,-3 3,-3 1.65625,0 3,1.34326 3,3 z"
         style="fill:#ffffff;fill-opacity:1;fill-rule:nonzero;stroke:none"
         id="path26" /><path
         d="m 192.91943,-444.48193 c 0,1.65673 -1.34375,3 -3,3 -1.65625,0 -3,-1.34327 -3,-3 0,-1.65674 1.34375,-3 3,-3 1.65625,0 3,1.34326 3,3 z"
         style="fill:none;stroke:#231f20;stroke-width:0.5;stroke-linecap:butt;stroke-linejoin:miter;stroke-miterlimit:4;stroke-dasharray:none;stroke-opacity:1"
         id="path28" /><path
         d="m 251.50146,-440.39844 c 0,1.65723 -1.34179,3 -2.99902,3 -1.65723,0 -3,-1.34277 -3,-3 0,-1.65674 1.34277,-3 3,-3 1.65723,0 2.99902,1.34326 2.99902,3 z"
         style="fill:#ffffff;fill-opacity:1;fill-rule:nonzero;stroke:none"
         id="path30" /><path
         d="m 251.50146,-440.39844 c 0,1.65723 -1.34179,3 -2.99902,3 -1.65723,0 -3,-1.34277 -3,-3 0,-1.65674 1.34277,-3 3,-3 1.65723,0 2.99902,1.34326 2.99902,3 z"
         style="fill:none;stroke:#231f20;stroke-width:0.5;stroke-linecap:butt;stroke-linejoin:miter;stroke-miterlimit:4;stroke-dasharray:none;stroke-opacity:1"
         id="path32" /><path
         d="m 222.16943,-480.48193 c 0,1.65722 -1.34277,3 -3,3 -1.65625,0 -3,-1.34278 -3,-3 0,-1.65674 1.34375,-3 3,-3 1.65723,0 3,1.34326 3,3 z"
         style="fill:#ffffff;fill-opacity:1;fill-rule:nonzero;stroke:none"
         id="path34" /><path
         d="m 222.16943,-480.48193 c 0,1.65722 -1.34277,3 -3,3 -1.65625,0 -3,-1.34278 -3,-3 0,-1.65674 1.34375,-3 3,-3 1.65723,0 3,1.34326 3,3 z"
         style="fill:none;stroke:#231f20;stroke-width:0.5;stroke-linecap:butt;stroke-linejoin:miter;stroke-miterlimit:4;stroke-dasharray:none;stroke-opacity:1"
         id="path36" /><path
         d="m 224.49561,-441.93994 c 2.9414,3.32715 5.37109,7.08252 7.17089,11.15527"
         style="fill:none;stroke:#231f20;stroke-width:2;stroke-linecap:butt;stroke-linejoin:miter;stroke-miterlimit:4;stroke-dasharray:none;stroke-opacity:1"
         id="path38" /><path
         d="m 196.39795,-456.89893 c 6.72363,0.93799 12.96973,3.28467 18.40039,6.7168"
         style="fill:none;stroke:#231f20;stroke-width:2;stroke-linecap:butt;stroke-linejoin:miter;stroke-miterlimit:4;stroke-dasharray:none;stroke-opacity:1"
         id="path40" /><path
         d="m 202.68018,-372.11865 c -4.08887,1.15527 -8.417,1.77539 -12.89649,1.77539 -25.10449,0 -45.4541,-19.47852 -45.4541,-43.50684 0,-24.02783 20.34961,-43.50635 45.4541,-43.50635 2.24707,0 4.45508,0.15625 6.61426,0.45752"
         style="fill:none;stroke:#231f20;stroke-width:1;stroke-linecap:butt;stroke-linejoin:miter;stroke-miterlimit:4;stroke-dasharray:none;stroke-opacity:1"
         id="path42" /><path
         d="m 230.6001,-394.68018 c -5.55274,10.81153 -15.65625,19.09473 -27.91992,22.56153"
         style="fill:none;stroke:#231f20;stroke-width:2;stroke-linecap:butt;stroke-linejoin:miter;stroke-miterlimit:4;stroke-dasharray:none;stroke-opacity:1"
         id="path44" /><path
         d="m 231.6665,-430.78467 c 2.29981,5.20508 3.57129,10.92774 3.57129,16.93457 0,6.87989 -1.66797,13.38672 -4.63769,19.16992"
         style="fill:none;stroke:#231f20;stroke-width:1;stroke-linecap:butt;stroke-linejoin:miter;stroke-miterlimit:4;stroke-dasharray:none;stroke-opacity:1"
         id="path46" /><path
         d="m 207.81299,-394.5835 c -2.40918,-5.30664 -3.74414,-11.16308 -3.74414,-17.31836 0,-7.4707 1.96777,-14.50195 5.43261,-20.64453"
         style="fill:none;stroke:#231f20;stroke-width:1;stroke-linecap:butt;stroke-linejoin:miter;stroke-miterlimit:4;stroke-dasharray:none;stroke-opacity:1"
         id="path48" /><path
         d="m 213.51221,-385.3501 c -2.27539,-2.82324 -4.19629,-5.92187 -5.69922,-9.2334"
         style="fill:none;stroke:#231f20;stroke-width:2;stroke-linecap:butt;stroke-linejoin:miter;stroke-miterlimit:4;stroke-dasharray:none;stroke-opacity:1"
         id="path50" /><path
         d="m 244.79932,-368.62646 c -6.875,-0.67969 -13.2959,-2.82618 -18.91407,-6.10645"
         style="fill:none;stroke:#231f20;stroke-width:2;stroke-linecap:butt;stroke-linejoin:miter;stroke-miterlimit:4;stroke-dasharray:none;stroke-opacity:1"
         id="path52" /><path
         d="m 237.05225,-453.75049 c 3.96289,-1.07959 8.14648,-1.65771 12.4707,-1.65771 25.10449,0 45.45508,19.47851 45.45508,43.50634 0,24.02832 -20.35059,43.50684 -45.45508,43.50684 -1.59473,0 -3.1709,-0.0781 -4.72363,-0.23144"
         style="fill:none;stroke:#231f20;stroke-width:1;stroke-linecap:butt;stroke-linejoin:miter;stroke-miterlimit:4;stroke-dasharray:none;stroke-opacity:1"
         id="path54" /><path
         d="m 209.50146,-432.54639 c 5.76172,-10.20947 15.66309,-17.96484 27.55079,-21.2041"
         style="fill:none;stroke:#231f20;stroke-width:2;stroke-linecap:butt;stroke-linejoin:miter;stroke-miterlimit:4;stroke-dasharray:none;stroke-opacity:1"
         id="path56" /><path
         d="m 435.1582,-551.63525 c 0,0 -28.5,34 -28.5,34"
         style="fill:none;stroke:#231f20;stroke-width:0.5;stroke-linecap:butt;stroke-linejoin:miter;stroke-miterlimit:4;stroke-dasharray:none;stroke-opacity:1"
         id="path58" /><path
         d="m 407.1582,-514.88525 c 0,0 31.25,18.25 31.25,18.25"
         style="fill:none;stroke:#231f20;stroke-width:0.5;stroke-linecap:butt;stroke-linejoin:miter;stroke-miterlimit:4;stroke-dasharray:none;stroke-opacity:1"
         id="path60" /><path
         d="m 439.6582,-496.13525 c 0,0 24.25,-15 24.25,-15"
         style="fill:none;stroke:#231f20;stroke-width:0.5;stroke-linecap:butt;stroke-linejoin:miter;stroke-miterlimit:4;stroke-dasharray:none;stroke-opacity:1"
         id="path62" /><path
         d="m 436.4082,-551.38525 c 0,0 26,37.75 26,37.75"
         style="fill:none;stroke:#231f20;stroke-width:0.5;stroke-linecap:butt;stroke-linejoin:miter;stroke-miterlimit:4;stroke-dasharray:none;stroke-opacity:1"
         id="path64" /><path
         d="m 441.9082,-495.88525 c 0,1.65722 -1.34277,3 -3,3 -1.65625,0 -3,-1.34278 -3,-3 0,-1.65674 1.34375,-3 3,-3 1.65723,0 3,1.34326 3,3 z"
         style="fill:#ffffff;fill-opacity:1;fill-rule:nonzero;stroke:none"
         id="path66" /><path
         d="m 441.9082,-495.88525 c 0,1.65722 -1.34277,3 -3,3 -1.65625,0 -3,-1.34278 -3,-3 0,-1.65674 1.34375,-3 3,-3 1.65723,0 3,1.34326 3,3 z"
         style="fill:none;stroke:#231f20;stroke-width:0.5;stroke-linecap:butt;stroke-linejoin:miter;stroke-miterlimit:4;stroke-dasharray:none;stroke-opacity:1"
         id="path68" /><path
         d="m 408.9082,-515.63525 c 0,1.65673 -1.34375,3 -3,3 -1.65625,0 -3,-1.34327 -3,-3 0,-1.65674 1.34375,-3 3,-3 1.65625,0 3,1.34326 3,3 z"
         style="fill:#ffffff;fill-opacity:1;fill-rule:nonzero;stroke:none"
         id="path70" /><path
         d="m 408.9082,-515.63525 c 0,1.65673 -1.34375,3 -3,3 -1.65625,0 -3,-1.34327 -3,-3 0,-1.65674 1.34375,-3 3,-3 1.65625,0 3,1.34326 3,3 z"
         style="fill:none;stroke:#231f20;stroke-width:0.5;stroke-linecap:butt;stroke-linejoin:miter;stroke-miterlimit:4;stroke-dasharray:none;stroke-opacity:1"
         id="path72" /><path
         d="m 467.49023,-511.55176 c 0,1.65723 -1.34179,3 -2.99902,3 -1.65723,0 -3,-1.34277 -3,-3 0,-1.65674 1.34277,-3 3,-3 1.65723,0 2.99902,1.34326 2.99902,3 z"
         style="fill:#ffffff;fill-opacity:1;fill-rule:nonzero;stroke:none"
         id="path74" /><path
         d="m 467.49023,-511.55176 c 0,1.65723 -1.34179,3 -2.99902,3 -1.65723,0 -3,-1.34277 -3,-3 0,-1.65674 1.34277,-3 3,-3 1.65723,0 2.99902,1.34326 2.99902,3 z"
         style="fill:none;stroke:#231f20;stroke-width:0.5;stroke-linecap:butt;stroke-linejoin:miter;stroke-miterlimit:4;stroke-dasharray:none;stroke-opacity:1"
         id="path76" /><path
         d="m 438.1582,-551.63525 c 0,1.65722 -1.34277,3 -3,3 -1.65625,0 -3,-1.34278 -3,-3 0,-1.65674 1.34375,-3 3,-3 1.65723,0 3,1.34326 3,3 z"
         style="fill:#ffffff;fill-opacity:1;fill-rule:nonzero;stroke:none"
         id="path78" /><path
         d="m 438.1582,-551.63525 c 0,1.65722 -1.34277,3 -3,3 -1.65625,0 -3,-1.34278 -3,-3 0,-1.65674 1.34375,-3 3,-3 1.65723,0 3,1.34326 3,3 z"
         style="fill:none;stroke:#231f20;stroke-width:0.5;stroke-linecap:butt;stroke-linejoin:miter;stroke-miterlimit:4;stroke-dasharray:none;stroke-opacity:1"
         id="path80" /><path
         d="m 442.4082,-514.13525 c 2.25,5.25 3.44727,8.12451 5.24707,12.19726"
         style="fill:none;stroke:#231f20;stroke-width:2;stroke-linecap:butt;stroke-linejoin:miter;stroke-miterlimit:4;stroke-dasharray:none;stroke-opacity:1"
         id="path82" /><path
         d="m 414.9082,-527.63525 c 6.72364,0.93798 5.31934,6.56787 10.75,10"
         style="fill:none;stroke:#231f20;stroke-width:2;stroke-linecap:butt;stroke-linejoin:miter;stroke-miterlimit:4;stroke-dasharray:none;stroke-opacity:1"
         id="path84" /><path
         d="m 418.66895,-443.27197 c -4.08887,1.15527 -8.417,1.77539 -12.89649,1.77539 -25.10449,0 -45.4541,-19.47852 -45.4541,-43.50684 0,-24.02783 20.34961,-43.50635 45.4541,-43.50635 2.24707,0 6.97656,0.57325 9.13574,0.87452"
         style="fill:none;stroke:#231f20;stroke-width:1;stroke-linecap:butt;stroke-linejoin:miter;stroke-miterlimit:4;stroke-dasharray:none;stroke-opacity:1"
         id="path86" /><path
         d="m 446.58887,-465.8335 c -5.55274,10.81153 -15.65625,19.09473 -27.91992,22.56153"
         style="fill:none;stroke:#231f20;stroke-width:2;stroke-linecap:butt;stroke-linejoin:miter;stroke-miterlimit:4;stroke-dasharray:none;stroke-opacity:1"
         id="path88" /><path
         d="m 447.65527,-501.93799 c 2.29981,5.20508 3.57129,10.92774 3.57129,16.93457 0,6.87988 -1.66797,13.38672 -4.63769,19.16992"
         style="fill:none;stroke:#231f20;stroke-width:1;stroke-linecap:butt;stroke-linejoin:miter;stroke-miterlimit:4;stroke-dasharray:none;stroke-opacity:1"
         id="path90" /><path
         d="m 423.80176,-465.73682 c -2.40918,-5.30664 -3.74414,-11.16308 -3.74414,-17.31836 0,-7.4707 1.96777,-14.50195 5.43261,-20.64453"
         style="fill:none;stroke:#231f20;stroke-width:1;stroke-linecap:butt;stroke-linejoin:miter;stroke-miterlimit:4;stroke-dasharray:none;stroke-opacity:1"
         id="path92" /><path
         d="m 429.50098,-456.50342 c -2.27539,-2.82324 -4.19629,-5.92187 -5.69922,-9.2334"
         style="fill:none;stroke:#231f20;stroke-width:2;stroke-linecap:butt;stroke-linejoin:miter;stroke-miterlimit:4;stroke-dasharray:none;stroke-opacity:1"
         id="path94" /><path
         d="m 460.78809,-439.77979 c -6.875,-0.67968 -13.2959,-2.82617 -18.91407,-6.10644"
         style="fill:none;stroke:#231f20;stroke-width:2;stroke-linecap:butt;stroke-linejoin:miter;stroke-miterlimit:4;stroke-dasharray:none;stroke-opacity:1"
         id="path96" /><path
         d="m 453.04102,-524.90381 c 3.96289,-1.07959 8.14648,-1.65771 12.4707,-1.65771 25.10449,0 45.45508,19.47851 45.45508,43.50634 0,24.02832 -20.35059,43.50684 -45.45508,43.50684 -1.59473,0 -3.1709,-0.0781 -4.72363,-0.23145"
         style="fill:none;stroke:#231f20;stroke-width:1;stroke-linecap:butt;stroke-linejoin:miter;stroke-miterlimit:4;stroke-dasharray:none;stroke-opacity:1"
         id="path98" /><path
         d="m 433.4082,-515.88525 c 8.25,0.5 13.25977,-7.28174 19.63282,-9.01856"
         style="fill:none;stroke:#231f20;stroke-width:2;stroke-linecap:butt;stroke-linejoin:miter;stroke-miterlimit:4;stroke-dasharray:none;stroke-opacity:1"
         id="path100" /><path
         d="m 425.49023,-503.69971 c 3.41797,-11.43554 8.91797,-31.68554 14.16797,-17.93554"
         style="fill:none;stroke:#231f20;stroke-width:2;stroke-linecap:butt;stroke-linejoin:miter;stroke-miterlimit:4;stroke-dasharray:none;stroke-opacity:1"
         id="path102" /><path
         d="m 433.6582,-381.75684 c 0,0 -28.5,34 -28.5,34"
         style="fill:none;stroke:#231f20;stroke-width:0.5;stroke-linecap:butt;stroke-linejoin:miter;stroke-miterlimit:4;stroke-dasharray:none;stroke-opacity:1"
         id="path104" /><path
         d="m 405.6582,-345.00684 c 0,0 31.25,18.25 31.25,18.25"
         style="fill:none;stroke:#231f20;stroke-width:0.5;stroke-linecap:butt;stroke-linejoin:miter;stroke-miterlimit:4;stroke-dasharray:none;stroke-opacity:1"
         id="path106" /><path
         d="m 438.1582,-326.25684 c 0,0 24.25,-15 24.25,-15"
         style="fill:none;stroke:#231f20;stroke-width:0.5;stroke-linecap:butt;stroke-linejoin:miter;stroke-miterlimit:4;stroke-dasharray:none;stroke-opacity:1"
         id="path108" /><path
         d="m 434.9082,-381.50684 c 0,0 26,37.75 26,37.75"
         style="fill:none;stroke:#231f20;stroke-width:0.5;stroke-linecap:butt;stroke-linejoin:miter;stroke-miterlimit:4;stroke-dasharray:none;stroke-opacity:1"
         id="path110" /><path
         d="m 440.4082,-326.00684 c 0,1.65723 -1.34277,3 -3,3 -1.65625,0 -3,-1.34277 -3,-3 0,-1.65673 1.34375,-3 3,-3 1.65723,0 3,1.34327 3,3 z"
         style="fill:#ffffff;fill-opacity:1;fill-rule:nonzero;stroke:none"
         id="path112" /><path
         d="m 440.4082,-326.00684 c 0,1.65723 -1.34277,3 -3,3 -1.65625,0 -3,-1.34277 -3,-3 0,-1.65673 1.34375,-3 3,-3 1.65723,0 3,1.34327 3,3 z"
         style="fill:none;stroke:#231f20;stroke-width:0.5;stroke-linecap:butt;stroke-linejoin:miter;stroke-miterlimit:4;stroke-dasharray:none;stroke-opacity:1"
         id="path114" /><path
         d="m 407.4082,-345.75684 c 0,1.65674 -1.34375,3 -3,3 -1.65625,0 -3,-1.34326 -3,-3 0,-1.65673 1.34375,-3 3,-3 1.65625,0 3,1.34327 3,3 z"
         style="fill:#ffffff;fill-opacity:1;fill-rule:nonzero;stroke:none"
         id="path116" /><path
         d="m 407.4082,-345.75684 c 0,1.65674 -1.34375,3 -3,3 -1.65625,0 -3,-1.34326 -3,-3 0,-1.65673 1.34375,-3 3,-3 1.65625,0 3,1.34327 3,3 z"
         style="fill:none;stroke:#231f20;stroke-width:0.5;stroke-linecap:butt;stroke-linejoin:miter;stroke-miterlimit:4;stroke-dasharray:none;stroke-opacity:1"
         id="path118" /><path
         d="m 465.99023,-341.67334 c 0,1.65723 -1.34179,3 -2.99902,3 -1.65723,0 -3,-1.34277 -3,-3 0,-1.65674 1.34277,-3 3,-3 1.65723,0 2.99902,1.34326 2.99902,3 z"
         style="fill:#ffffff;fill-opacity:1;fill-rule:nonzero;stroke:none"
         id="path120" /><path
         d="m 465.99023,-341.67334 c 0,1.65723 -1.34179,3 -2.99902,3 -1.65723,0 -3,-1.34277 -3,-3 0,-1.65674 1.34277,-3 3,-3 1.65723,0 2.99902,1.34326 2.99902,3 z"
         style="fill:none;stroke:#231f20;stroke-width:0.5;stroke-linecap:butt;stroke-linejoin:miter;stroke-miterlimit:4;stroke-dasharray:none;stroke-opacity:1"
         id="path122" /><path
         d="m 436.6582,-381.75684 c 0,1.65723 -1.34277,3 -3,3 -1.65625,0 -3,-1.34277 -3,-3 0,-1.65673 1.34375,-3 3,-3 1.65723,0 3,1.34327 3,3 z"
         style="fill:#ffffff;fill-opacity:1;fill-rule:nonzero;stroke:none"
         id="path124" /><path
         d="m 436.6582,-381.75684 c 0,1.65723 -1.34277,3 -3,3 -1.65625,0 -3,-1.34277 -3,-3 0,-1.65673 1.34375,-3 3,-3 1.65723,0 3,1.34327 3,3 z"
         style="fill:none;stroke:#231f20;stroke-width:0.5;stroke-linecap:butt;stroke-linejoin:miter;stroke-miterlimit:4;stroke-dasharray:none;stroke-opacity:1"
         id="path126" /><path
         d="m 430.92773,-341.43115 c -2.93652,0.59082 -5.18652,4.59082 -6.9375,7.60986"
         style="fill:none;stroke:#231f20;stroke-width:2;stroke-linecap:butt;stroke-linejoin:miter;stroke-miterlimit:4;stroke-dasharray:none;stroke-opacity:1"
         id="path128" /><path
         d="m 454.49121,-355.84033 c -7.75,2.25 -21,-8 -21.5,-1"
         style="fill:none;stroke:#231f20;stroke-width:2;stroke-linecap:butt;stroke-linejoin:miter;stroke-miterlimit:4;stroke-dasharray:none;stroke-opacity:1"
         id="path130" /><path
         d="m 417.16895,-273.39355 c -4.08887,1.15527 -8.417,1.77539 -12.89649,1.77539 -25.10449,0 -45.4541,-19.47852 -45.4541,-43.50684 0,-24.02783 20.34961,-43.50635 45.4541,-43.50635 2.24707,0 4.45508,0.15625 6.61426,0.45752"
         style="fill:none;stroke:#231f20;stroke-width:1;stroke-linecap:butt;stroke-linejoin:miter;stroke-miterlimit:4;stroke-dasharray:none;stroke-opacity:1"
         id="path132" /><path
         d="m 445.08887,-295.95508 c -5.55274,10.81153 -15.65625,19.09473 -27.91992,22.56153"
         style="fill:none;stroke:#231f20;stroke-width:2;stroke-linecap:butt;stroke-linejoin:miter;stroke-miterlimit:4;stroke-dasharray:none;stroke-opacity:1"
         id="path134" /><path
         d="m 446.15527,-332.05957 c 2.29981,5.20508 3.57129,10.92773 3.57129,16.93457 0,6.87988 -1.66797,13.38672 -4.63769,19.16992"
         style="fill:none;stroke:#231f20;stroke-width:1;stroke-linecap:butt;stroke-linejoin:miter;stroke-miterlimit:4;stroke-dasharray:none;stroke-opacity:1"
         id="path136" /><path
         d="m 422.30176,-295.8584 c -2.40918,-5.30664 -3.74414,-11.16308 -3.74414,-17.31836 0,-7.4707 1.96777,-14.50195 5.43261,-20.64453"
         style="fill:none;stroke:#231f20;stroke-width:1;stroke-linecap:butt;stroke-linejoin:miter;stroke-miterlimit:4;stroke-dasharray:none;stroke-opacity:1"
         id="path138" /><path
         d="m 428.00098,-286.625 c -2.27539,-2.82324 -4.19629,-5.92188 -5.69922,-9.2334"
         style="fill:none;stroke:#231f20;stroke-width:2;stroke-linecap:butt;stroke-linejoin:miter;stroke-miterlimit:4;stroke-dasharray:none;stroke-opacity:1"
         id="path140" /><path
         d="m 459.28809,-269.90137 c -6.875,-0.67968 -13.2959,-2.82617 -18.91407,-6.10644"
         style="fill:none;stroke:#231f20;stroke-width:2;stroke-linecap:butt;stroke-linejoin:miter;stroke-miterlimit:4;stroke-dasharray:none;stroke-opacity:1"
         id="path142" /><path
         d="m 451.54102,-355.02539 c 3.96289,-1.07959 8.14648,-1.65772 12.4707,-1.65772 25.10449,0 45.45508,19.47852 45.45508,43.50635 0,24.02832 -20.35059,43.50684 -45.45508,43.50684 -1.59473,0 -3.1709,-0.0781 -4.72363,-0.23145"
         style="fill:none;stroke:#231f20;stroke-width:1;stroke-linecap:butt;stroke-linejoin:miter;stroke-miterlimit:4;stroke-dasharray:none;stroke-opacity:1"
         id="path144" /><path
         d="m 432.76367,-350.41357 c -0.58008,8.24462 11.97754,16.32324 13.47754,19.07324"
         style="fill:none;stroke:#231f20;stroke-width:2;stroke-linecap:butt;stroke-linejoin:miter;stroke-miterlimit:4;stroke-dasharray:none;stroke-opacity:1"
         id="path146" /><path
         d="m 410.88672,-358.17383 c 13.1875,1.8335 41.36719,8.94776 27.56641,14.06494"
         style="fill:none;stroke:#231f20;stroke-width:2;stroke-linecap:butt;stroke-linejoin:miter;stroke-miterlimit:4;stroke-dasharray:none;stroke-opacity:1"
         id="path148" /><path
         d="m 595.84082,-464.40332 c -4.08887,1.15527 -8.41699,1.77539 -12.89648,1.77539 -25.1045,0 -45.45411,-19.47852 -45.45411,-43.50684 0,-24.02783 17.43946,-40.30029 42.50879,-38.98095 9.5,0.5 18.34082,5.69873 20.5,6"
         style="fill:none;stroke:#231f20;stroke-width:2;stroke-linecap:butt;stroke-linejoin:miter;stroke-miterlimit:4;stroke-dasharray:none;stroke-opacity:1"
         id="path150" /><path
         d="m 627.49902,-529.11572 c 2.29981,5.20508 0.89942,16.97412 0.89942,22.98095 0,6.87989 -1.66797,13.38672 -4.6377,19.16993 -5.55273,10.81152 -15.65625,19.09472 -27.91992,22.56152"
         style="fill:none;stroke:#231f20;stroke-width:2;stroke-linecap:butt;stroke-linejoin:miter;stroke-miterlimit:4;stroke-dasharray:none;stroke-opacity:1"
         id="path152" /><path
         d="m 606.67285,-477.63477 c -2.27539,-2.82324 -4.19629,-5.92187 -5.69922,-9.23339"
         style="fill:none;stroke:#231f20;stroke-width:2;stroke-linecap:butt;stroke-linejoin:miter;stroke-miterlimit:4;stroke-dasharray:none;stroke-opacity:1"
         id="path154" /><path
         d="m 637.95996,-460.91113 c -6.875,-0.67969 -13.2959,-2.82617 -18.91406,-6.10645"
         style="fill:none;stroke:#231f20;stroke-width:2;stroke-linecap:butt;stroke-linejoin:miter;stroke-miterlimit:4;stroke-dasharray:none;stroke-opacity:1"
         id="path156" /><path
         d="m 610.58008,-537.0166 c 20.41894,3.90088 26.91894,-5.59912 38.91894,-7.09912 24.91016,-3.11377 38.63965,15.90136 38.63965,39.9292 0,24.02832 -20.35058,43.50683 -45.45508,43.50683 -1.59472,0 -3.17089,-0.0781 -4.72363,-0.23144"
         style="fill:none;stroke:#231f20;stroke-width:2;stroke-linecap:butt;stroke-linejoin:miter;stroke-miterlimit:4;stroke-dasharray:none;stroke-opacity:1"
         id="path158" /><path
         d="m 600.97363,-486.86816 c -2.40918,-5.30664 -3.69433,-11.16309 -3.74414,-17.31836 -0.23047,-28.4292 20.26953,-64.9292 26.26953,-38.9292"
         style="fill:none;stroke:#231f20;stroke-width:2;stroke-linecap:butt;stroke-linejoin:miter;stroke-miterlimit:4;stroke-dasharray:none;stroke-opacity:1"
         id="path160" /><g
         id="g162"
         transform="scale(1,-1)"><text
           transform="matrix(1,0,0,-1,584.08105,522.01611)"
           style="font-variant:normal;font-weight:normal;font-size:18px;font-family:ArialMT;-inkscape-font-specification:ArialMT;writing-mode:lr-tb;fill:#231f20;fill-opacity:1;fill-rule:nonzero;stroke:none"
           id="text166"><tspan
             x="0"
             y="0"
             id="tspan164">t</tspan></text><text
           transform="matrix(1,0,0,-1,642.06641,523.01318)"
           style="font-variant:normal;font-weight:normal;font-size:18px;font-family:ArialMT;-inkscape-font-specification:ArialMT;writing-mode:lr-tb;fill:#231f20;fill-opacity:1;fill-rule:nonzero;stroke:none"
           id="text170"><tspan
             x="0"
             y="0"
             id="tspan168">t</tspan></text><text
           transform="matrix(1,0,0,-1,606.06836,448.01709)"
           style="font-variant:normal;font-weight:normal;font-size:18px;font-family:ArialMT;-inkscape-font-specification:ArialMT;writing-mode:lr-tb;fill:#231f20;fill-opacity:1;fill-rule:nonzero;stroke:none"
           id="text174"><tspan
             x="0"
             y="0"
             id="tspan172">t</tspan></text><g
           id="g176"
           transform="scale(1,-1)"><path
             d="m 604,-295.50488 c -10,-11.5 -11.5,-20.34473 -11.5,-26.5 0,-7.47071 1.5,-15.5 14,-22"
             style="fill:none;stroke:#231f20;stroke-width:2;stroke-linecap:butt;stroke-linejoin:miter;stroke-miterlimit:4;stroke-dasharray:none;stroke-opacity:1"
             id="path178" /><path
             d="m 631.96094,-279.80762 c -6.875,-0.67968 -13.2959,-2.82617 -18.91406,-6.10547"
             style="fill:none;stroke:#231f20;stroke-width:2;stroke-linecap:butt;stroke-linejoin:miter;stroke-miterlimit:4;stroke-dasharray:none;stroke-opacity:1"
             id="path180" /><path
             d="m 631.96094,-279.80762 c 1.55273,0.1543 3.1289,0.23242 4.72363,0.23242 25.10449,0 45.45508,-19.479 45.45508,-43.50732 0,-24.02783 -18.97754,-32.32373 -42.13965,-46.42236 -11.5,-7 -30,-9 -30.5,-2"
             style="fill:none;stroke:#231f20;stroke-width:2;stroke-linecap:butt;stroke-linejoin:miter;stroke-miterlimit:4;stroke-dasharray:none;stroke-opacity:1"
             id="path182" /><path
             d="m 606.5,-363.50488 c -3.5,13 9.5,20.5 15.89941,38.47412 2.30762,6.48144 -3.42968,18.74267 -6.39941,24.52588 -21,32 -88.8623,-0.89502 -84.50879,-24.52588 C 543,-387.50488 581.5,-372.00488 597,-369.50488 c 21.5,4 32.7998,15.88281 19,21"
             style="fill:none;stroke:#231f20;stroke-width:2;stroke-linecap:butt;stroke-linejoin:miter;stroke-miterlimit:4;stroke-dasharray:none;stroke-opacity:1"
             id="path184" /><g
             id="g186"
             transform="scale(1,-1)"><text
               transform="matrix(1,0,0,-1,595.57031,376.40869)"
               style="font-variant:normal;font-weight:normal;font-size:18px;font-family:ArialMT;-inkscape-font-specification:ArialMT;writing-mode:lr-tb;fill:#231f20;fill-opacity:1;fill-rule:nonzero;stroke:none"
               id="text190"><tspan
                 x="0"
                 y="0"
                 id="tspan188">t</tspan></text><text
               transform="matrix(1,0,0,-1,604.56934,326.91064)"
               style="font-variant:normal;font-weight:normal;font-size:18px;font-family:ArialMT;-inkscape-font-specification:ArialMT;writing-mode:lr-tb;fill:#231f20;fill-opacity:1;fill-rule:nonzero;stroke:none"
               id="text194"><tspan
                 x="0"
                 y="0"
                 id="tspan192">t</tspan></text><text
               transform="matrix(1,0,0,-1,603.0708,268.41553)"
               style="font-variant:normal;font-weight:normal;font-size:18px;font-family:ArialMT;-inkscape-font-specification:ArialMT;writing-mode:lr-tb;fill:#231f20;fill-opacity:1;fill-rule:nonzero;stroke:none"
               id="text198"><tspan
                 x="0"
                 y="0"
                 id="tspan196">t</tspan></text><text
               transform="matrix(0.9999724,-0.00743001,-0.00743001,-0.9999724,607.51196,270.43616)"
               style="font-variant:normal;font-weight:normal;font-size:18px;font-family:ArialMT;-inkscape-font-specification:ArialMT;writing-mode:lr-tb;fill:#231f20;fill-opacity:1;fill-rule:nonzero;stroke:none"
               id="text202"><tspan
                 x="0"
                 y="0"
                 id="tspan200">'</tspan></text><text
               transform="matrix(1,0,0,-1,708.94824,505.29785)"
               style="font-variant:normal;font-weight:normal;font-size:12px;font-family:ArialMT;-inkscape-font-specification:ArialMT;writing-mode:lr-tb;fill:#231f20;fill-opacity:1;fill-rule:nonzero;stroke:none"
               id="text206"><tspan
                 x="0"
                 y="0"
                 id="tspan204">T</tspan></text><text
               transform="matrix(1,0,0,-1,716.27832,501.30176)"
               style="font-variant:normal;font-weight:normal;font-size:6.99599px;font-family:ArialMT;-inkscape-font-specification:ArialMT;writing-mode:lr-tb;fill:#231f20;fill-opacity:1;fill-rule:nonzero;stroke:none"
               id="text210"><tspan
                 x="0 3.8897705"
                 y="0"
                 sodipodi:role="line"
                 id="tspan208">pq</tspan></text><text
               transform="matrix(1,0,0,-1,724.05957,505.29785)"
               style="font-variant:normal;font-weight:normal;font-size:12px;font-family:ArialMT;-inkscape-font-specification:ArialMT;writing-mode:lr-tb;fill:#231f20;fill-opacity:1;fill-rule:nonzero;stroke:none"
               id="text214"><tspan
                 x="0 7.0079999 10.344 14.34 21.011999 24.348 31.02"
                 y="0"
                 sodipodi:role="line"
                 id="tspan212">= (3,0)</tspan></text><text
               transform="matrix(1,0,0,-1,132.5,417.27539)"
               style="font-style:italic;font-variant:normal;font-size:12px;font-family:Arial;-inkscape-font-specification:Arial-ItalicMT;writing-mode:lr-tb;fill:#231f20;fill-opacity:1;fill-rule:nonzero;stroke:none"
               id="text218"><tspan
                 x="0"
                 y="0"
                 id="tspan216">p</tspan></text><text
               transform="matrix(1,0,0,-1,302.5,413.27539)"
               style="font-style:italic;font-variant:normal;font-size:12px;font-family:Arial;-inkscape-font-specification:Arial-ItalicMT;writing-mode:lr-tb;fill:#231f20;fill-opacity:1;fill-rule:nonzero;stroke:none"
               id="text222"><tspan
                 x="0"
                 y="0"
                 id="tspan220">q</tspan></text><text
               transform="matrix(1,0,0,-1,706.44824,320.29785)"
               style="font-variant:normal;font-weight:normal;font-size:12px;font-family:ArialMT;-inkscape-font-specification:ArialMT;writing-mode:lr-tb;fill:#231f20;fill-opacity:1;fill-rule:nonzero;stroke:none"
               id="text226"><tspan
                 x="0 7.3319998"
                 y="0"
                 sodipodi:role="line"
                 id="tspan224">T'</tspan></text><text
               transform="matrix(1,0,0,-1,716.06934,316.30176)"
               style="font-variant:normal;font-weight:normal;font-size:6.99599px;font-family:ArialMT;-inkscape-font-specification:ArialMT;writing-mode:lr-tb;fill:#231f20;fill-opacity:1;fill-rule:nonzero;stroke:none"
               id="text230"><tspan
                 x="0 3.8897705"
                 y="0"
                 sodipodi:role="line"
                 id="tspan228">pq</tspan></text><text
               transform="matrix(1,0,0,-1,723.85059,320.29785)"
               style="font-variant:normal;font-weight:normal;font-size:12px;font-family:ArialMT;-inkscape-font-specification:ArialMT;writing-mode:lr-tb;fill:#231f20;fill-opacity:1;fill-rule:nonzero;stroke:none"
               id="text234"><tspan
                 x="0 7.0079999 10.344 14.34 21.011999 24.348 31.02"
                 y="0"
                 sodipodi:role="line"
                 id="tspan232">= (2,1)</tspan></text></g></g></g></g></g></svg>
