<?xml version="1.0" encoding="UTF-8" standalone="no"?>
<svg
   xmlns:dc="http://purl.org/dc/elements/1.1/"
   xmlns:cc="http://creativecommons.org/ns#"
   xmlns:rdf="http://www.w3.org/1999/02/22-rdf-syntax-ns#"
   xmlns:svg="http://www.w3.org/2000/svg"
   xmlns="http://www.w3.org/2000/svg"
   xmlns:sodipodi="http://sodipodi.sourceforge.net/DTD/sodipodi-0.dtd"
   xmlns:inkscape="http://www.inkscape.org/namespaces/inkscape"
   version="1.1"
   id="svg2"
   xml:space="preserve"
   width="361.33347"
   height="191.60991"
   viewBox="0 0 361.33347 191.60991"
   sodipodi:docname="interauto1.svg"
   inkscape:version="1.0.2-2 (e86c870879, 2021-01-15)"><metadata
     id="metadata8"><rdf:RDF><cc:Work
         rdf:about=""><dc:format>image/svg+xml</dc:format><dc:type
           rdf:resource="http://purl.org/dc/dcmitype/StillImage" /><dc:title></dc:title></cc:Work></rdf:RDF></metadata><defs
     id="defs6"><clipPath
       clipPathUnits="userSpaceOnUse"
       id="clipPath18"><path
         d="M 0,841.89 H 595.28 V 0 H 0 Z"
         id="path16" /></clipPath></defs><sodipodi:namedview
     pagecolor="#ffffff"
     bordercolor="#666666"
     borderopacity="1"
     objecttolerance="10"
     gridtolerance="10"
     guidetolerance="10"
     inkscape:pageopacity="0"
     inkscape:pageshadow="2"
     inkscape:window-width="1827"
     inkscape:window-height="1030"
     id="namedview4"
     showgrid="false"
     inkscape:zoom="2.4302462"
     inkscape:cx="157.08997"
     inkscape:cy="99.685962"
     inkscape:window-x="75"
     inkscape:window-y="0"
     inkscape:window-maximized="0"
     inkscape:current-layer="g10"
     inkscape:document-rotation="0"
     fit-margin-top="0"
     fit-margin-left="0"
     fit-margin-right="0"
     fit-margin-bottom="0" /><g
     id="g10"
     inkscape:groupmode="layer"
     inkscape:label="interauto1"
     transform="matrix(1.3333333,0,0,-1.3333333,-317.65199,669.25578)"><text
       transform="scale(1,-1)"
       style="font-variant:normal;font-weight:normal;font-stretch:normal;font-size:12px;font-family:Arial;-inkscape-font-specification:ArialMT;writing-mode:lr-tb;fill:#231f20;fill-opacity:1;fill-rule:nonzero;stroke:none"
       id="text24"
       x="376.33301"
       y="-493.05859"><tspan
         x="376.33301 378.99701 385.633 388.909 395.58099 399.46899 405.46899 409.35699 416.02899 418.69299 424.69299 431.36499 441.36099 448.04498 454.681"
         y="-493.05859"
         sodipodi:role="line"
         id="tspan20">intercroisement</tspan><tspan
         x="427.48898 434.16101 440.83301 444.10901 450.78101 456.78101 460.66901 467.341 470.005 476.005 482.677 492.673 499.35699 505.99301"
         y="-422.39059"
         sodipodi:role="line"
         id="tspan22">autocroisement</tspan></text><g
       id="g26"
       transform="matrix(0.95962172,0,0,0.96422221,270.8719,457.58244)"><path
         d="m 0,0 c -13.803,-6.806 -23.916,-21.285 -23.916,-34.508 0,-17.231 16.192,-34.675 33.999,-40.216 11.324,-3.525 36.42,-2.65 51.028,-1.192"
         style="fill:none;stroke:#231f20;stroke-width:2.37260055;stroke-linecap:butt;stroke-linejoin:miter;stroke-miterlimit:4;stroke-dasharray:none;stroke-opacity:1"
         id="path28" /></g><g
       id="g30"
       transform="matrix(0.95962172,0,0,0.96422221,284.94476,464.51607)"><path
         d="M -4.5826353,-1.7457658 C 20.724883,9.8391037 67.399039,15.479378 83.899649,-9.0893743 98.057483,-30.169827 104.90622,-74.857966 61.011743,-81.750311"
         style="fill:none;stroke:#231f20;stroke-width:2.33907382;stroke-linecap:butt;stroke-linejoin:miter;stroke-miterlimit:4;stroke-dasharray:none;stroke-opacity:1"
         id="path32"
         sodipodi:nodetypes="cac" /></g><g
       id="g34"
       transform="matrix(0.95962172,0,0,0.96422221,314.92363,423.35352)"><path
         d="M 0,0 C 25.277178,-15.033334 27.842618,-43.617473 13.603608,-56.980157 5.439776,-64.641555 -20.189324,-58.268194 -18.505,-47.124"
         style="fill:none;stroke:#231f20;stroke-width:1.55938255;stroke-linecap:butt;stroke-linejoin:miter;stroke-miterlimit:4;stroke-dasharray:none;stroke-opacity:1"
         id="path36"
         sodipodi:nodetypes="cac" /></g><g
       id="g38"
       transform="matrix(0.95962172,0,0,0.96422221,326.64051,475.20071)"><path
         d="m 0,0 c -2.248,11.664 -15.732,29.452 -41.578,22.453 -14.017,-3.795 -25.096,-18.662 -8.615,-41.407 5.971,-8.24 11.337,-11.149 26.22,-24.495"
         style="fill:none;stroke:#231f20;stroke-width:1.55938255;stroke-linecap:butt;stroke-linejoin:miter;stroke-miterlimit:4;stroke-dasharray:none;stroke-opacity:1"
         id="path40" /></g><g
       id="g42"
       transform="matrix(0.95962172,0,0,0.96422221,327.35927,466.20346)"><path
         d="M 0,0 C 2.622,-13.414 -2.7037818,-28.256748 -11.986,-35.576 -25.36563,-46.126159 -33.274559,-66.554545 -32.245896,-82.505946"
         style="fill:none;stroke:#231f20;stroke-width:1.55938255;stroke-linecap:butt;stroke-linejoin:miter;stroke-miterlimit:4;stroke-dasharray:none;stroke-opacity:1"
         id="path44"
         sodipodi:nodetypes="csc" /></g><g
       id="g46"
       transform="matrix(0.95962172,0,0,0.96422221,373.41084,492.04346)"><path
         d="M 0,0 -42.5,-15.167"
         style="fill:none;stroke:#231f20;stroke-width:0.75;stroke-linecap:butt;stroke-linejoin:miter;stroke-miterlimit:4;stroke-dasharray:none;stroke-opacity:1"
         id="path48" /></g><g
       id="g50"
       transform="translate(416.334,425.8896)"><path
         d="M 0,0 H -92"
         style="fill:none;stroke:#231f20;stroke-width:0.75;stroke-linecap:butt;stroke-linejoin:miter;stroke-miterlimit:4;stroke-dasharray:none;stroke-opacity:1"
         id="path52" /></g></g></svg>
