<?xml version="1.0" encoding="UTF-8" standalone="no"?>
<svg
   xmlns:dc="http://purl.org/dc/elements/1.1/"
   xmlns:cc="http://creativecommons.org/ns#"
   xmlns:rdf="http://www.w3.org/1999/02/22-rdf-syntax-ns#"
   xmlns:svg="http://www.w3.org/2000/svg"
   xmlns="http://www.w3.org/2000/svg"
   xmlns:sodipodi="http://sodipodi.sourceforge.net/DTD/sodipodi-0.dtd"
   xmlns:inkscape="http://www.inkscape.org/namespaces/inkscape"
   version="1.1"
   id="svg2"
   xml:space="preserve"
   width="735.45624"
   height="136.33815"
   viewBox="0 0 735.45623 136.33815"
   sodipodi:docname="lectlun1.svg"
   inkscape:version="1.0.2-2 (e86c870879, 2021-01-15)"><metadata
     id="metadata8"><rdf:RDF><cc:Work
         rdf:about=""><dc:format>image/svg+xml</dc:format><dc:type
           rdf:resource="http://purl.org/dc/dcmitype/StillImage" /><dc:title></dc:title></cc:Work></rdf:RDF></metadata><defs
     id="defs6"><clipPath
       clipPathUnits="userSpaceOnUse"
       id="clipPath18"><path
         d="M 0,841.89 H 595.276 V 0 H 0 Z"
         id="path16" /></clipPath></defs><sodipodi:namedview
     pagecolor="#ffffff"
     bordercolor="#666666"
     borderopacity="1"
     objecttolerance="10"
     gridtolerance="10"
     guidetolerance="10"
     inkscape:pageopacity="0"
     inkscape:pageshadow="2"
     inkscape:window-width="1816"
     inkscape:window-height="1030"
     id="namedview4"
     showgrid="false"
     inkscape:zoom="2.4302462"
     inkscape:cx="545.64771"
     inkscape:cy="161.78964"
     inkscape:window-x="86"
     inkscape:window-y="0"
     inkscape:window-maximized="0"
     inkscape:current-layer="g10"
     inkscape:document-rotation="0"
     fit-margin-left="1"
     fit-margin-top="1"
     fit-margin-right="1"
     fit-margin-bottom="1" /><g
     id="g10"
     inkscape:groupmode="layer"
     inkscape:label="lectlun1"
     transform="matrix(1.3333333,0,0,-1.3333333,-7.9834918,766.97917)"><g
       id="g20"
       transform="translate(16.4941,531.0923)"><path
         d="M 0,0 C -0.903,-0.411 -1.652,-0.854 -2.211,-1.325 -6.406,-4.864 -16.486,-17.337 0.725,-31.092"
         style="fill:none;stroke:#ed1c24;stroke-width:1.567;stroke-linecap:butt;stroke-linejoin:miter;stroke-miterlimit:4;stroke-dasharray:none;stroke-opacity:1"
         id="path22" /></g><g
       id="g24"
       transform="translate(43.6445,534.9707)"><path
         d="M 0,0 C -8.907,0.18 -21.279,-1.203 -27.15,-3.878"
         style="fill:none;stroke:#231f20;stroke-width:1.567;stroke-linecap:butt;stroke-linejoin:miter;stroke-miterlimit:4;stroke-dasharray:none;stroke-opacity:1"
         id="path26" /></g><g
       id="g28"
       transform="translate(92.6147,509.5903)"><path
         d="M 0,0 C 0.456,2.442 0.705,5.009 0.734,7.687"
         style="fill:none;stroke:#231f20;stroke-width:1.567;stroke-linecap:butt;stroke-linejoin:miter;stroke-miterlimit:4;stroke-dasharray:none;stroke-opacity:1"
         id="path30" /></g><g
       id="g32"
       transform="translate(23.3008,495.4204)"><path
         d="m 0,0 c 6.711,-4.788 22.44,-16.861 40.267,-13.946 15.36,2.51 26.206,12.904 29.047,28.116"
         style="fill:none;stroke:#ed1c24;stroke-width:1.567;stroke-linecap:butt;stroke-linejoin:miter;stroke-miterlimit:4;stroke-dasharray:none;stroke-opacity:1"
         id="path34" /></g><g
       id="g36"
       transform="translate(93.5586,527.6851)"><path
         d="m 0,0 c -0.42,10.408 -3.356,29.351 -17.408,38.926 -14.05,9.575 -25.796,7.702 -33.345,4.579 -7.551,-3.122 -13.843,-16.86 -15.31,-31.432"
         style="fill:none;stroke:#231f20;stroke-width:1.567;stroke-linecap:butt;stroke-linejoin:miter;stroke-miterlimit:4;stroke-dasharray:none;stroke-opacity:1"
         id="path38" /></g><g
       id="g40"
       transform="translate(25.7334,520.7822)"><path
         d="M 0,0 C -2.166,-8.516 -5.3,-18.73 -5.788,-27.443 -6.417,-38.684 0.084,-56.585 14.136,-38.684"
         style="fill:none;stroke:#ed1c24;stroke-width:1.567;stroke-linecap:butt;stroke-linejoin:miter;stroke-miterlimit:4;stroke-dasharray:none;stroke-opacity:1"
         id="path42" /></g><g
       id="g44"
       transform="translate(27.2856,527.6851)"><path
         d="M 0,0 C -0.377,-2.106 -0.924,-4.433 -1.552,-6.903"
         style="fill:#231f20;fill-opacity:1;fill-rule:nonzero;stroke:#231f20;stroke-width:1.567;stroke-linecap:butt;stroke-linejoin:miter;stroke-miterlimit:4;stroke-dasharray:none;stroke-opacity:1"
         id="path46" /></g><g
       id="g48"
       transform="translate(42.8052,486.6777)"><path
         d="M 0,0 C 6.71,10.2 24.119,32.265 26.216,42.049"
         style="fill:none;stroke:#ed1c24;stroke-width:1.567;stroke-linecap:butt;stroke-linejoin:miter;stroke-miterlimit:4;stroke-dasharray:none;stroke-opacity:1"
         id="path50" /></g><g
       id="g52"
       transform="translate(70.0693,535.3872)"><path
         d="m 0,0 c 1.468,8.326 -0.629,21.44 -10.066,19.983 -9.438,-1.457 -20.763,-25.604 -1.679,-41.215"
         style="fill:none;stroke:#ed1c24;stroke-width:1.567;stroke-linecap:butt;stroke-linejoin:miter;stroke-miterlimit:4;stroke-dasharray:none;stroke-opacity:1"
         id="path54" /></g><g
       id="g56"
       transform="translate(64.6162,509.5757)"><path
         d="M 0,0 C 8.18,-5.412 11.745,-7.078 18.875,-9.784"
         style="fill:none;stroke:#ed1c24;stroke-width:1.567;stroke-linecap:butt;stroke-linejoin:miter;stroke-miterlimit:4;stroke-dasharray:none;stroke-opacity:1"
         id="path58" /></g><g
       id="g60"
       transform="translate(102.2227,515.8125)"><path
         d="M 0,0 C -1.731,1.633 -4.024,3.31 -6.986,5.003 -26.281,16.036 -39.284,18.534 -49.98,18.742"
         style="fill:none;stroke:#231f20;stroke-width:1.567;stroke-linecap:butt;stroke-linejoin:miter;stroke-miterlimit:4;stroke-dasharray:none;stroke-opacity:1"
         id="path62" /></g><g
       id="g64"
       transform="translate(92.3003,497.0859)"><path
         d="M 0,0 C 6.606,-2.003 22.041,7.295 9.922,18.727"
         style="fill:none;stroke:#ed1c24;stroke-width:1.567;stroke-linecap:butt;stroke-linejoin:miter;stroke-miterlimit:4;stroke-dasharray:none;stroke-opacity:1"
         id="path66" /></g><text
       transform="scale(1.0037508,-0.99626326)"
       style="font-variant:normal;font-weight:normal;font-stretch:normal;font-size:12px;font-family:Arial;-inkscape-font-specification:ArialMT;writing-mode:lr-tb;fill:#231f20;fill-opacity:1;fill-rule:nonzero;stroke:none;stroke-width:0.996263"
       id="text72"
       x="20.706038"
       y="-538.85779"><tspan
         x="20.706038"
         y="-538.85779"
         id="tspan68"
         style="font-size:12px;stroke-width:0.996263">t</tspan><tspan
         x="97.391479 100.00533"
         y="-525.48767"
         sodipodi:role="line"
         id="tspan70"
         style="font-size:12px;stroke-width:0.996263">t'</tspan></text><g
       id="g74"
       transform="translate(146.5205,537.126)"><path
         d="m 0,0 c -8.37,-0.628 -16.89,-2.203 -19.9,-4.583 -4.195,-3.315 -14.274,-15 2.936,-27.887"
         style="fill:none;stroke:#231f20;stroke-width:1.517;stroke-linecap:butt;stroke-linejoin:miter;stroke-miterlimit:4;stroke-dasharray:none;stroke-opacity:1"
         id="path76" /></g><g
       id="g78"
       transform="translate(155.9819,537.418)"><path
         d="M 0,0 C -2.901,0.056 -6.17,-0.045 -9.461,-0.292"
         style="fill:none;stroke:#ed1c24;stroke-width:1.517;stroke-linecap:butt;stroke-linejoin:miter;stroke-miterlimit:4;stroke-dasharray:none;stroke-opacity:1"
         id="path80" /></g><g
       id="g82"
       transform="translate(194.0889,495.1123)"><path
         d="m 0,0 c 5.549,4.599 9.347,10.92 10.864,18.528 0.455,2.288 0.705,4.693 0.734,7.201"
         style="fill:none;stroke:#231f20;stroke-width:1.517;stroke-linecap:butt;stroke-linejoin:miter;stroke-miterlimit:4;stroke-dasharray:none;stroke-opacity:1"
         id="path84" /></g><g
       id="g86"
       transform="translate(162.9678,487.5713)"><path
         d="m 0,0 c 4.107,-0.756 8.456,-0.957 12.938,-0.271 7.159,1.096 13.338,3.797 18.183,7.812"
         style="fill:none;stroke:#ed1c24;stroke-width:1.517;stroke-linecap:butt;stroke-linejoin:miter;stroke-miterlimit:4;stroke-dasharray:none;stroke-opacity:1"
         id="path88" /></g><g
       id="g90"
       transform="translate(135.6382,500.3662)"><path
         d="m 0,0 c 1.607,-1.074 3.732,-2.54 6.279,-4.111 5.413,-3.338 12.735,-7.151 21.051,-8.684"
         style="fill:none;stroke:#231f20;stroke-width:1.517;stroke-linecap:butt;stroke-linejoin:miter;stroke-miterlimit:4;stroke-dasharray:none;stroke-opacity:1"
         id="path92" /></g><g
       id="g94"
       transform="translate(140.3701,545.7168)"><path
         d="M 0,0 C -0.22,-1.259 -0.82,-4.482 -0.958,-5.763"
         style="fill:none;stroke:#231f20;stroke-width:1.517;stroke-linecap:butt;stroke-linejoin:miter;stroke-miterlimit:4;stroke-dasharray:none;stroke-opacity:1"
         id="path96" /></g><g
       id="g98"
       transform="translate(204.9795,539.1172)"><path
         d="m 0,0 c -1.658,9.53 -5.943,21.209 -16.491,27.943 -14.051,8.97 -25.796,7.215 -33.346,4.289 -6.842,-2.65 -12.65,-13.467 -14.772,-25.632"
         style="fill:none;stroke:#ed1c24;stroke-width:1.517;stroke-linecap:butt;stroke-linejoin:miter;stroke-miterlimit:4;stroke-dasharray:none;stroke-opacity:1"
         id="path100" /></g><g
       id="g102"
       transform="translate(205.896,530.5928)"><path
         d="M 0,0 C -0.105,2.431 -0.366,5.359 -0.917,8.524"
         style="fill:none;stroke:#231f20;stroke-width:1.517;stroke-linecap:butt;stroke-linejoin:miter;stroke-miterlimit:4;stroke-dasharray:none;stroke-opacity:1"
         id="path104" /></g><g
       id="g106"
       transform="translate(138.0708,524.126)"><path
         d="M 0,0 C -2.166,-7.978 -5.3,-17.547 -5.788,-25.71 -6.417,-36.24 0.084,-53.011 14.136,-36.24"
         style="fill:none;stroke:#231f20;stroke-width:1.517;stroke-linecap:butt;stroke-linejoin:miter;stroke-miterlimit:4;stroke-dasharray:none;stroke-opacity:1"
         id="path108" /></g><g
       id="g110"
       transform="translate(139.6235,530.5928)"><path
         d="M 0,0 C -0.377,-1.973 -0.924,-4.153 -1.553,-6.467"
         style="fill:none;stroke:#231f20;stroke-width:1.517;stroke-linecap:butt;stroke-linejoin:miter;stroke-miterlimit:4;stroke-dasharray:none;stroke-opacity:1"
         id="path112" /></g><g
       id="g114"
       transform="translate(160.459,499.3428)"><path
         d="M 0,0 C 7.949,10.458 19.237,24.958 20.9,32.226"
         style="fill:none;stroke:#ed1c24;stroke-width:1.517;stroke-linecap:butt;stroke-linejoin:miter;stroke-miterlimit:4;stroke-dasharray:none;stroke-opacity:1"
         id="path116" /></g><g
       id="g118"
       transform="translate(155.1426,492.1758)"><path
         d="M 0,0 C 1.39,1.979 3.239,4.436 5.316,7.167"
         style="fill:none;stroke:#231f20;stroke-width:1.517;stroke-linecap:butt;stroke-linejoin:miter;stroke-miterlimit:4;stroke-dasharray:none;stroke-opacity:1"
         id="path120" /></g><g
       id="g122"
       transform="translate(182.4072,537.8076)"><path
         d="M 0,0 C 1.468,7.801 -0.629,20.087 -10.067,18.722 -19.504,17.356 -30.83,-5.265 -11.745,-19.891"
         style="fill:none;stroke:#ed1c24;stroke-width:1.517;stroke-linecap:butt;stroke-linejoin:miter;stroke-miterlimit:4;stroke-dasharray:none;stroke-opacity:1"
         id="path124" /></g><g
       id="g126"
       transform="translate(189.7349,506.7744)"><path
         d="M 0,0 C 1.843,-0.771 3.78,-1.49 6.095,-2.313"
         style="fill:none;stroke:#231f20;stroke-width:1.517;stroke-linecap:butt;stroke-linejoin:miter;stroke-miterlimit:4;stroke-dasharray:none;stroke-opacity:1"
         id="path128" /></g><g
       id="g130"
       transform="translate(176.9541,513.627)"><path
         d="M 0,0 C 5.525,-3.425 8.945,-5.248 12.781,-6.853"
         style="fill:none;stroke:#ed1c24;stroke-width:1.517;stroke-linecap:butt;stroke-linejoin:miter;stroke-miterlimit:4;stroke-dasharray:none;stroke-opacity:1"
         id="path132" /></g><g
       id="g134"
       transform="translate(198.8853,528.4795)"><path
         d="M 0,0 C -14.656,6.699 -25.299,8.385 -34.305,8.548"
         style="fill:none;stroke:#ed1c24;stroke-width:1.517;stroke-linecap:butt;stroke-linejoin:miter;stroke-miterlimit:4;stroke-dasharray:none;stroke-opacity:1"
         id="path136" /></g><g
       id="g138"
       transform="translate(204.6377,501.9258)"><path
         d="m 0,0 c 7.55,-2.145 26.631,9.54 2.937,22.231 -3.049,1.633 -5.94,3.067 -8.689,4.323"
         style="fill:none;stroke:#231f20;stroke-width:1.517;stroke-linecap:butt;stroke-linejoin:miter;stroke-miterlimit:4;stroke-dasharray:none;stroke-opacity:1"
         id="path140" /></g><g
       id="g154"
       transform="translate(242.9072,533.8843)"><path
         d="m 0,0 c -1.698,-0.565 -3.062,-1.205 -3.948,-1.916 -4.196,-3.361 -14.275,-15.209 2.935,-28.275"
         style="fill:none;stroke:#ed1c24;stroke-width:1.527;stroke-linecap:butt;stroke-linejoin:miter;stroke-miterlimit:4;stroke-dasharray:none;stroke-opacity:1"
         id="path156" /></g><g
       id="g158"
       transform="translate(268.3193,536.9121)"><path
         d="m 0,0 c -2.9,0.056 -6.169,-0.046 -9.46,-0.296 -5.906,-0.449 -11.886,-1.377 -15.952,-2.732"
         style="fill:none;stroke:#231f20;stroke-width:1.527;stroke-linecap:butt;stroke-linejoin:miter;stroke-miterlimit:4;stroke-dasharray:none;stroke-opacity:1"
         id="path160" /></g><g
       id="g162"
       transform="translate(317.291,512.8032)"><path
         d="M 0,0 C 0.456,2.32 0.705,4.758 0.733,7.302"
         style="fill:none;stroke:#ed1c24;stroke-width:1.527;stroke-linecap:butt;stroke-linejoin:miter;stroke-miterlimit:4;stroke-dasharray:none;stroke-opacity:1"
         id="path164" /></g><g
       id="g166"
       transform="translate(254.2554,495.1753)"><path
         d="m 0,0 c 8.087,-5.057 20.431,-11.185 33.988,-9.08 15.36,2.385 26.207,12.258 29.048,26.708"
         style="fill:none;stroke:#ed1c24;stroke-width:1.527;stroke-linecap:butt;stroke-linejoin:miter;stroke-miterlimit:4;stroke-dasharray:none;stroke-opacity:1"
         id="path168" /></g><g
       id="g170"
       transform="translate(247.9761,499.3433)"><path
         d="M 0,0 C 1.607,-1.089 3.732,-2.575 6.279,-4.168"
         style="fill:none;stroke:#ed1c24;stroke-width:1.527;stroke-linecap:butt;stroke-linejoin:miter;stroke-miterlimit:4;stroke-dasharray:none;stroke-opacity:1"
         id="path172" /></g><g
       id="g174"
       transform="translate(254.4897,552.7935)"><path
         d="m 0,0 c -0.713,-2.307 -1.298,-4.728 -1.736,-7.205 -0.24,-1.362 -0.436,-2.741 -0.582,-4.128"
         style="fill:none;stroke:#231f20;stroke-width:1.527;stroke-linecap:butt;stroke-linejoin:miter;stroke-miterlimit:4;stroke-dasharray:none;stroke-opacity:1"
         id="path176" /></g><g
       id="g178"
       transform="translate(318.2354,529.9917)"><path
         d="m 0,0 c -0.421,9.886 -3.356,27.88 -17.408,36.976 -14.051,9.095 -25.797,7.316 -33.346,4.35 -5.418,-2.128 -10.187,-9.447 -12.992,-18.524"
         style="fill:none;stroke:#ed1c24;stroke-width:1.527;stroke-linecap:butt;stroke-linejoin:miter;stroke-miterlimit:4;stroke-dasharray:none;stroke-opacity:1"
         id="path180" /></g><g
       id="g182"
       transform="translate(251.9614,529.9917)"><path
         d="m 0,0 c -0.377,-2.001 -0.924,-4.211 -1.552,-6.558 -1.256,-4.686 -2.835,-9.914 -4.037,-15.092 -0.872,-3.76 -1.545,-7.494 -1.751,-10.976 -0.629,-10.678 5.873,-27.683 19.923,-10.678"
         style="fill:none;stroke:#231f20;stroke-width:1.527;stroke-linecap:butt;stroke-linejoin:miter;stroke-miterlimit:4;stroke-dasharray:none;stroke-opacity:1"
         id="path184" /></g><g
       id="g186"
       transform="translate(267.481,491.0381)"><path
         d="m 0,0 c 0.916,1.322 2.031,2.854 3.279,4.538 7.898,10.654 21.127,27.379 22.937,35.404"
         style="fill:none;stroke:#231f20;stroke-width:1.527;stroke-linecap:butt;stroke-linejoin:miter;stroke-miterlimit:4;stroke-dasharray:none;stroke-opacity:1"
         id="path188" /></g><g
       id="g190"
       transform="translate(295.167,541.6577)"><path
         d="m 0,0 c 0.118,7.404 -2.659,15.78 -10.488,14.632 -9.438,-1.384 -20.763,-24.321 -1.677,-39.151"
         style="fill:none;stroke:#ed1c24;stroke-width:1.527;stroke-linecap:butt;stroke-linejoin:miter;stroke-miterlimit:4;stroke-dasharray:none;stroke-opacity:1"
         id="path192" /></g><g
       id="g194"
       transform="translate(294.7451,537.3071)"><path
         d="M 0,0 C 0.25,1.349 0.397,2.829 0.422,4.351"
         style="fill:none;stroke:#231f20;stroke-width:1.527;stroke-linecap:butt;stroke-linejoin:miter;stroke-miterlimit:4;stroke-dasharray:none;stroke-opacity:1"
         id="path196" /></g><g
       id="g198"
       transform="translate(302.0732,505.8408)"><path
         d="M 0,0 C 1.844,-0.781 3.781,-1.511 6.095,-2.345"
         style="fill:none;stroke:#ed1c24;stroke-width:1.527;stroke-linecap:butt;stroke-linejoin:miter;stroke-miterlimit:4;stroke-dasharray:none;stroke-opacity:1"
         id="path200" /></g><g
       id="g202"
       transform="translate(289.293,512.7891)"><path
         d="M 0,0 C 5.524,-3.473 8.944,-5.322 12.78,-6.948"
         style="fill:none;stroke:#ed1c24;stroke-width:1.527;stroke-linecap:butt;stroke-linejoin:miter;stroke-miterlimit:4;stroke-dasharray:none;stroke-opacity:1"
         id="path204" /></g><g
       id="g206"
       transform="translate(311.2246,527.8491)"><path
         d="M 0,0 C -14.656,6.792 -25.3,8.501 -34.306,8.667"
         style="fill:none;stroke:#231f20;stroke-width:1.527;stroke-linecap:butt;stroke-linejoin:miter;stroke-miterlimit:4;stroke-dasharray:none;stroke-opacity:1"
         id="path208" /></g><g
       id="g210"
       transform="translate(316.9766,500.9248)"><path
         d="m 0,0 c 7.55,-2.175 26.63,9.672 2.936,22.542 -3.047,1.655 -5.94,3.108 -8.688,4.382"
         style="fill:none;stroke:#ed1c24;stroke-width:1.527;stroke-linecap:butt;stroke-linejoin:miter;stroke-miterlimit:4;stroke-dasharray:none;stroke-opacity:1"
         id="path212" /></g><text
       transform="scale(1.0298755,-0.97099116)"
       style="font-variant:normal;font-weight:normal;font-stretch:normal;font-size:9.16373px;font-family:Arial;-inkscape-font-specification:ArialMT;writing-mode:lr-tb;fill:#ed1c24;fill-opacity:1;fill-rule:nonzero;stroke:none;stroke-width:0.970991"
       id="text224"
       x="238.33803"
       y="-554.7851"><tspan
         x="238.33803"
         y="-554.7851"
         id="tspan214"
         style="stroke-width:0.970991">t</tspan><tspan
         x="313.07742 315.62494"
         y="-541.75427"
         sodipodi:role="line"
         id="tspan216"
         style="stroke-width:0.970991">t'</tspan><tspan
         x="306.36041 308.9079"
         y="-504.28375"
         sodipodi:role="line"
         id="tspan218"
         style="stroke-width:0.970991">t'</tspan><tspan
         x="230.40225"
         y="-506.51971"
         id="tspan220"
         style="stroke-width:0.970991">t</tspan><tspan
         x="260.34015"
         y="-491.65613"
         id="tspan222"
         style="stroke-width:0.970991">t</tspan></text><text
       transform="scale(1.0298755,-0.97099116)"
       style="font-style:normal;font-variant:normal;font-weight:normal;font-stretch:normal;font-size:9.16373px;font-family:Arial;-inkscape-font-specification:Arial;writing-mode:lr-tb;fill:#231f20;fill-opacity:1;fill-rule:nonzero;stroke:none;stroke-width:0.970991"
       id="text228"
       x="291.69843"
       y="-552.53998"><tspan
         x="291.69843 294.24594"
         y="-552.53998"
         sodipodi:role="line"
         id="tspan226"
         style="font-style:normal;font-variant:normal;font-weight:normal;font-stretch:normal;font-family:Arial;-inkscape-font-specification:Arial;stroke-width:0.970991">t'</tspan></text><g
       id="g230"
       transform="translate(371.1963,536.6157)"><path
         d="m 0,0 c -8.37,-0.636 -16.89,-2.234 -19.9,-4.647 -4.195,-3.362 -14.274,-15.209 2.936,-28.276"
         style="fill:none;stroke:#ed1c24;stroke-width:1.527;stroke-linecap:butt;stroke-linejoin:miter;stroke-miterlimit:4;stroke-dasharray:none;stroke-opacity:1"
         id="path232" /></g><g
       id="g234"
       transform="translate(380.6572,536.9121)"><path
         d="M 0,0 C -2.901,0.056 -6.17,-0.046 -9.461,-0.296"
         style="fill:none;stroke:#231f20;stroke-width:1.527;stroke-linecap:butt;stroke-linejoin:miter;stroke-miterlimit:4;stroke-dasharray:none;stroke-opacity:1"
         id="path236" /></g><g
       id="g238"
       transform="translate(429.6279,512.8027)"><path
         d="M 0,0 C 0.456,2.32 0.705,4.758 0.733,7.302"
         style="fill:none;stroke:#ed1c24;stroke-width:1.527;stroke-linecap:butt;stroke-linejoin:miter;stroke-miterlimit:4;stroke-dasharray:none;stroke-opacity:1"
         id="path240" /></g><g
       id="g242"
       transform="translate(366.5928,495.1748)"><path
         d="M 0,0 C 8.087,-5.056 20.431,-11.185 33.987,-9.08 49.349,-6.694 60.194,3.178 63.035,17.628"
         style="fill:none;stroke:#ed1c24;stroke-width:1.527;stroke-linecap:butt;stroke-linejoin:miter;stroke-miterlimit:4;stroke-dasharray:none;stroke-opacity:1"
         id="path244" /></g><g
       id="g246"
       transform="translate(360.3135,499.3433)"><path
         d="M 0,0 C 1.607,-1.089 3.731,-2.575 6.279,-4.168"
         style="fill:none;stroke:#ed1c24;stroke-width:1.527;stroke-linecap:butt;stroke-linejoin:miter;stroke-miterlimit:4;stroke-dasharray:none;stroke-opacity:1"
         id="path248" /></g><g
       id="g250"
       transform="translate(365.0908,545.5879)"><path
         d="M 0,0 C -0.24,-1.361 -0.435,-2.741 -0.582,-4.127"
         style="fill:none;stroke:#ed1c24;stroke-width:1.527;stroke-linecap:butt;stroke-linejoin:miter;stroke-miterlimit:4;stroke-dasharray:none;stroke-opacity:1"
         id="path252" /></g><g
       id="g254"
       transform="translate(430.5723,529.9912)"><path
         d="m 0,0 c -0.421,9.887 -3.356,27.881 -17.408,36.976 -14.051,9.096 -25.796,7.316 -33.347,4.35 -6.793,-2.669 -12.568,-13.501 -14.726,-25.729"
         style="fill:none;stroke:#ed1c24;stroke-width:1.527;stroke-linecap:butt;stroke-linejoin:miter;stroke-miterlimit:4;stroke-dasharray:none;stroke-opacity:1"
         id="path256" /></g><g
       id="g258"
       transform="translate(358.71,508.3408)"><path
         d="M 0,0 C -0.873,-3.76 -1.546,-7.494 -1.751,-10.975 -2.38,-21.653 4.122,-38.658 18.172,-21.653"
         style="fill:none;stroke:#ed1c24;stroke-width:1.527;stroke-linecap:butt;stroke-linejoin:miter;stroke-miterlimit:4;stroke-dasharray:none;stroke-opacity:1"
         id="path260" /></g><g
       id="g262"
       transform="translate(362.7461,523.4336)"><path
         d="M 0,0 C -1.255,-4.685 -2.834,-9.914 -4.036,-15.093"
         style="fill:none;stroke:#ed1c24;stroke-width:1.527;stroke-linecap:butt;stroke-linejoin:miter;stroke-miterlimit:4;stroke-dasharray:none;stroke-opacity:1"
         id="path264" /></g><g
       id="g266"
       transform="translate(364.2988,529.9912)"><path
         d="M 0,0 C -0.377,-2.001 -0.924,-4.211 -1.553,-6.558"
         style="fill:none;stroke:#ed1c24;stroke-width:1.527;stroke-linecap:butt;stroke-linejoin:miter;stroke-miterlimit:4;stroke-dasharray:none;stroke-opacity:1"
         id="path268" /></g><g
       id="g270"
       transform="translate(404.3584,526.5229)"><path
         d="M 0,0 C 0.805,1.668 1.387,3.174 1.676,4.458"
         style="fill:none;stroke:#231f20;stroke-width:1.527;stroke-linecap:butt;stroke-linejoin:miter;stroke-miterlimit:4;stroke-dasharray:none;stroke-opacity:1"
         id="path272" /></g><g
       id="g274"
       transform="translate(383.0977,495.5767)"><path
         d="M 0,0 C 6.635,8.951 17.031,22.185 21.261,30.946"
         style="fill:none;stroke:#ed1c24;stroke-width:1.527;stroke-linecap:butt;stroke-linejoin:miter;stroke-miterlimit:4;stroke-dasharray:none;stroke-opacity:1"
         id="path276" /></g><g
       id="g278"
       transform="translate(379.8174,491.0386)"><path
         d="M 0,0 C 0.916,1.322 2.031,2.854 3.28,4.538"
         style="fill:none;stroke:#ed1c24;stroke-width:1.527;stroke-linecap:butt;stroke-linejoin:miter;stroke-miterlimit:4;stroke-dasharray:none;stroke-opacity:1"
         id="path280" /></g><g
       id="g282"
       transform="translate(386.2217,529.3184)"><path
         d="m 0,0 c 1.143,-3.301 3.125,-6.575 6.18,-9.607 0.887,-0.88 1.864,-1.739 2.936,-2.572"
         style="fill:none;stroke:#ed1c24;stroke-width:1.527;stroke-linecap:butt;stroke-linejoin:miter;stroke-miterlimit:4;stroke-dasharray:none;stroke-opacity:1"
         id="path284" /></g><g
       id="g286"
       transform="translate(407.083,537.3076)"><path
         d="M 0,0 C 0.249,1.348 0.396,2.828 0.421,4.35 0.539,11.754 -2.238,20.13 -10.067,18.982 -17.146,17.944 -25.285,4.783 -20.861,-7.989"
         style="fill:none;stroke:#231f20;stroke-width:1.527;stroke-linecap:butt;stroke-linejoin:miter;stroke-miterlimit:4;stroke-dasharray:none;stroke-opacity:1"
         id="path288" /></g><g
       id="g290"
       transform="translate(401.6299,512.7886)"><path
         d="m 0,0 c 5.524,-3.472 8.945,-5.321 12.78,-6.948 1.843,-0.781 3.782,-1.511 6.095,-2.345"
         style="fill:none;stroke:#ed1c24;stroke-width:1.527;stroke-linecap:butt;stroke-linejoin:miter;stroke-miterlimit:4;stroke-dasharray:none;stroke-opacity:1"
         id="path292" /></g><g
       id="g294"
       transform="translate(411.2979,532.7158)"><path
         d="M 0,0 C -3.766,1.222 -7.229,2.078 -10.456,2.663 -14.671,3.429 -18.484,3.735 -22.043,3.8"
         style="fill:none;stroke:#231f20;stroke-width:1.527;stroke-linecap:butt;stroke-linejoin:miter;stroke-miterlimit:4;stroke-dasharray:none;stroke-opacity:1"
         id="path296" /></g><g
       id="g298"
       transform="translate(429.3135,500.9248)"><path
         d="m 0,0 c 7.55,-2.175 26.631,9.672 2.936,22.541 -3.047,1.656 -5.939,3.109 -8.688,4.383 -4.434,2.055 -8.5,3.645 -12.264,4.867"
         style="fill:none;stroke:#ed1c24;stroke-width:1.527;stroke-linecap:butt;stroke-linejoin:miter;stroke-miterlimit:4;stroke-dasharray:none;stroke-opacity:1"
         id="path300" /></g><text
       transform="scale(1.0298809,-0.97098602)"
       style="font-variant:normal;font-weight:normal;font-stretch:normal;font-size:9.16378px;font-family:Arial;-inkscape-font-specification:ArialMT;writing-mode:lr-tb;fill:#ed1c24;fill-opacity:1;fill-rule:nonzero;stroke:none;stroke-width:0.970986"
       id="text314"
       x="347.4158"
       y="-554.78802"><tspan
         x="347.4158"
         y="-554.78802"
         id="tspan302"
         style="stroke-width:0.970986">t</tspan><tspan
         x="422.15555 424.70309"
         y="-541.75714"
         sodipodi:role="line"
         id="tspan304"
         style="stroke-width:0.970986">t'</tspan><tspan
         x="415.43851 417.98602"
         y="-504.28644"
         sodipodi:role="line"
         id="tspan306"
         style="stroke-width:0.970986">t'</tspan><tspan
         x="339.47995"
         y="-506.5224"
         id="tspan308"
         style="stroke-width:0.970986">t</tspan><tspan
         x="369.41803"
         y="-491.65875"
         id="tspan310"
         style="stroke-width:0.970986">t</tspan><tspan
         x="400.77646 403.32401"
         y="-552.55206"
         sodipodi:role="line"
         id="tspan312"
         style="stroke-width:0.970986">t'</tspan></text><text
       transform="scale(1.0298809,-0.97098602)"
       style="font-style:normal;font-variant:normal;font-weight:normal;font-stretch:normal;font-size:9.16378px;font-family:Arial;-inkscape-font-specification:Arial;writing-mode:lr-tb;fill:#231f20;fill-opacity:1;fill-rule:nonzero;stroke:none;stroke-width:0.970986"
       id="text318"
       x="378.98499"
       y="-556.62079"><tspan
         x="378.98499 381.53253"
         y="-556.62079"
         sodipodi:role="line"
         id="tspan316"
         style="font-style:normal;font-variant:normal;font-weight:normal;font-stretch:normal;font-family:Arial;-inkscape-font-specification:Arial;stroke-width:0.970986">t'</tspan></text><g
       id="g320"
       transform="translate(492.9951,536.9121)"><path
         d="m 0,0 c -2.901,0.056 -6.17,-0.046 -9.461,-0.296 -8.37,-0.637 -16.89,-2.235 -19.9,-4.648 -4.195,-3.361 -14.274,-15.209 2.936,-28.276"
         style="fill:none;stroke:#ed1c24;stroke-width:1.527;stroke-linecap:butt;stroke-linejoin:miter;stroke-miterlimit:4;stroke-dasharray:none;stroke-opacity:1"
         id="path322" /></g><g
       id="g324"
       transform="translate(541.9658,512.8027)"><path
         d="M 0,0 C 0.456,2.32 0.705,4.758 0.733,7.302"
         style="fill:none;stroke:#ed1c24;stroke-width:1.527;stroke-linecap:butt;stroke-linejoin:miter;stroke-miterlimit:4;stroke-dasharray:none;stroke-opacity:1"
         id="path326" /></g><g
       id="g328"
       transform="translate(478.9307,495.1748)"><path
         d="M 0,0 C 8.087,-5.056 20.431,-11.185 33.987,-9.081 49.349,-6.694 60.194,3.177 63.035,17.628"
         style="fill:none;stroke:#ed1c24;stroke-width:1.527;stroke-linecap:butt;stroke-linejoin:miter;stroke-miterlimit:4;stroke-dasharray:none;stroke-opacity:1"
         id="path330" /></g><g
       id="g332"
       transform="translate(472.6514,499.3428)"><path
         d="M 0,0 C 1.607,-1.089 3.731,-2.575 6.279,-4.168"
         style="fill:none;stroke:#ed1c24;stroke-width:1.527;stroke-linecap:butt;stroke-linejoin:miter;stroke-miterlimit:4;stroke-dasharray:none;stroke-opacity:1"
         id="path334" /></g><g
       id="g336"
       transform="translate(477.4297,545.5874)"><path
         d="M 0,0 C -0.241,-1.361 -0.436,-2.741 -0.583,-4.127"
         style="fill:none;stroke:#ed1c24;stroke-width:1.527;stroke-linecap:butt;stroke-linejoin:miter;stroke-miterlimit:4;stroke-dasharray:none;stroke-opacity:1"
         id="path338" /></g><g
       id="g340"
       transform="translate(542.9102,529.9917)"><path
         d="m 0,0 c -0.421,9.886 -3.356,27.88 -17.408,36.976 -14.051,9.095 -25.796,7.316 -33.347,4.35 -6.793,-2.669 -12.568,-13.502 -14.725,-25.73"
         style="fill:none;stroke:#ed1c24;stroke-width:1.527;stroke-linecap:butt;stroke-linejoin:miter;stroke-miterlimit:4;stroke-dasharray:none;stroke-opacity:1"
         id="path342" /></g><g
       id="g344"
       transform="translate(471.0479,508.3408)"><path
         d="M 0,0 C -0.873,-3.76 -1.546,-7.493 -1.751,-10.975 -2.38,-21.653 4.122,-38.658 18.172,-21.653"
         style="fill:none;stroke:#ed1c24;stroke-width:1.527;stroke-linecap:butt;stroke-linejoin:miter;stroke-miterlimit:4;stroke-dasharray:none;stroke-opacity:1"
         id="path346" /></g><g
       id="g348"
       transform="translate(475.084,523.4341)"><path
         d="M 0,0 C -1.255,-4.686 -2.834,-9.915 -4.036,-15.093"
         style="fill:none;stroke:#ed1c24;stroke-width:1.527;stroke-linecap:butt;stroke-linejoin:miter;stroke-miterlimit:4;stroke-dasharray:none;stroke-opacity:1"
         id="path350" /></g><g
       id="g352"
       transform="translate(476.6367,529.9917)"><path
         d="M 0,0 C -0.377,-2.001 -0.924,-4.211 -1.553,-6.558"
         style="fill:none;stroke:#ed1c24;stroke-width:1.527;stroke-linecap:butt;stroke-linejoin:miter;stroke-miterlimit:4;stroke-dasharray:none;stroke-opacity:1"
         id="path354" /></g><g
       id="g356"
       transform="translate(504.8682,508.2246)"><path
         d="m 0,0 c 4.729,6.459 9.344,13.151 11.828,18.298 0.805,1.668 1.387,3.174 1.676,4.458"
         style="fill:none;stroke:#231f20;stroke-width:1.527;stroke-linecap:butt;stroke-linejoin:miter;stroke-miterlimit:4;stroke-dasharray:none;stroke-opacity:1"
         id="path358" /></g><g
       id="g360"
       transform="translate(495.4355,495.5767)"><path
         d="M 0,0 C 2.736,3.692 6.113,8.113 9.433,12.648"
         style="fill:none;stroke:#ed1c24;stroke-width:1.527;stroke-linecap:butt;stroke-linejoin:miter;stroke-miterlimit:4;stroke-dasharray:none;stroke-opacity:1"
         id="path362" /></g><g
       id="g364"
       transform="translate(492.1553,491.0386)"><path
         d="M 0,0 C 0.916,1.322 2.031,2.853 3.28,4.538"
         style="fill:none;stroke:#ed1c24;stroke-width:1.527;stroke-linecap:butt;stroke-linejoin:miter;stroke-miterlimit:4;stroke-dasharray:none;stroke-opacity:1"
         id="path366" /></g><g
       id="g368"
       transform="translate(502.7578,521.8892)"><path
         d="M 0,0 C 0.604,-0.738 1.263,-1.465 1.981,-2.179 2.869,-3.058 3.846,-3.917 4.918,-4.75"
         style="fill:none;stroke:#231f20;stroke-width:1.527;stroke-linecap:butt;stroke-linejoin:miter;stroke-miterlimit:4;stroke-dasharray:none;stroke-opacity:1"
         id="path370" /></g><g
       id="g372"
       transform="translate(519.3545,547.229)"><path
         d="m 0,0 c -1.099,5.426 -4.129,9.922 -10.001,9.061 -7.078,-1.039 -15.218,-14.2 -10.794,-26.972 0.874,-2.524 2.238,-5.032 4.198,-7.429"
         style="fill:none;stroke:#ed1c24;stroke-width:1.527;stroke-linecap:butt;stroke-linejoin:miter;stroke-miterlimit:4;stroke-dasharray:none;stroke-opacity:1"
         id="path374" /></g><g
       id="g376"
       transform="translate(519.4209,537.3081)"><path
         d="M 0,0 C 0.249,1.348 0.396,2.828 0.421,4.349 0.45,6.2 0.299,8.112 -0.066,9.921"
         style="fill:none;stroke:#231f20;stroke-width:1.527;stroke-linecap:butt;stroke-linejoin:miter;stroke-miterlimit:4;stroke-dasharray:none;stroke-opacity:1"
         id="path378" /></g><g
       id="g380"
       transform="translate(513.9678,512.7881)"><path
         d="m 0,0 c 5.524,-3.471 8.945,-5.321 12.78,-6.947 1.843,-0.782 3.782,-1.511 6.095,-2.345"
         style="fill:none;stroke:#231f20;stroke-width:1.527;stroke-linecap:butt;stroke-linejoin:miter;stroke-miterlimit:4;stroke-dasharray:none;stroke-opacity:1"
         id="path382" /></g><g
       id="g384"
       transform="translate(541.6514,500.9243)"><path
         d="m 0,0 c 7.55,-2.174 26.631,9.673 2.936,22.542 -3.047,1.655 -5.939,3.108 -8.688,4.383 -4.434,2.054 -8.5,3.644 -12.264,4.867 -3.765,1.222 -7.229,2.077 -10.456,2.663 -4.215,0.765 -8.028,1.071 -11.587,1.137"
         style="fill:none;stroke:#231f20;stroke-width:1.527;stroke-linecap:butt;stroke-linejoin:miter;stroke-miterlimit:4;stroke-dasharray:none;stroke-opacity:1"
         id="path386" /></g><text
       transform="scale(1.0037508,-0.99626323)"
       style="font-variant:normal;font-weight:normal;font-stretch:normal;font-size:12px;font-family:Arial;-inkscape-font-specification:ArialMT;writing-mode:lr-tb;fill:#231f20;fill-opacity:1;fill-rule:nonzero;stroke:none;stroke-width:0.996263"
       id="text72-2"
       x="131.27539"
       y="-540.85962"><tspan
         x="131.27539"
         y="-540.85962"
         id="tspan68-0"
         style="font-size:12px;fill:#ff0000;stroke-width:0.996263">t</tspan><tspan
         x="207.96083 210.57469"
         y="-527.4895"
         sodipodi:role="line"
         id="tspan70-9"
         style="font-size:12px;fill:#ff0000;stroke-width:0.996263">t'</tspan></text><text
       xml:space="preserve"
       style="font-size:12px;line-height:1.25;font-family:'Cambria Math';-inkscape-font-specification:'Cambria Math';stroke-width:0.75"
       x="124.18552"
       y="-494.99561"
       id="text3932"
       transform="scale(1,-1)"><tspan
         sodipodi:role="line"
         id="tspan3930"
         x="124.18552"
         y="-494.99561"
         style="stroke-width:0.75">t</tspan></text><text
       xml:space="preserve"
       style="font-size:12px;line-height:1.25;font-family:'Cambria Math';-inkscape-font-specification:'Cambria Math';stroke-width:0.75"
       x="154.10428"
       y="-480.71671"
       id="text3932-4"
       transform="scale(1,-1)"><tspan
         sodipodi:role="line"
         id="tspan3930-5"
         x="154.10428"
         y="-480.71671"
         style="stroke-width:0.75">t</tspan></text><text
       xml:space="preserve"
       style="font-size:12px;line-height:1.25;font-family:'Cambria Math';-inkscape-font-specification:'Cambria Math';stroke-width:0.75"
       x="200.39589"
       y="-490.90085"
       id="text3932-1"
       transform="scale(1,-1)"><tspan
         sodipodi:role="line"
         id="tspan3930-0"
         x="200.39589"
         y="-490.90085"
         style="stroke-width:0.75">t'</tspan></text><text
       transform="scale(1.0298809,-0.97098605)"
       style="font-variant:normal;font-weight:normal;font-stretch:normal;font-size:9.16378px;font-family:Arial;-inkscape-font-specification:ArialMT;writing-mode:lr-tb;fill:#ed1c24;fill-opacity:1;fill-rule:nonzero;stroke:none;stroke-width:0.970986"
       id="text314-8"
       x="454.04355"
       y="-554.38593"><tspan
         x="454.04355"
         y="-554.38593"
         id="tspan302-6"
         style="stroke-width:0.970986">t</tspan><tspan
         x="528.78333 531.33087"
         y="-541.35504"
         sodipodi:role="line"
         id="tspan304-2"
         style="stroke-width:0.970986">t'</tspan><tspan
         x="522.06628 524.61377"
         y="-503.88437"
         sodipodi:role="line"
         id="tspan306-5"
         style="stroke-width:0.970986">t'</tspan><tspan
         x="446.1077"
         y="-506.12033"
         id="tspan308-9"
         style="stroke-width:0.970986">t</tspan><tspan
         x="476.04578"
         y="-491.25668"
         id="tspan310-2"
         style="stroke-width:0.970986">t</tspan><tspan
         x="507.40421 509.95175"
         y="-552.14996"
         sodipodi:role="line"
         id="tspan312-5"
         style="stroke-width:0.970986">t'</tspan></text><text
       transform="scale(1.0298809,-0.97098605)"
       style="font-style:normal;font-variant:normal;font-weight:normal;font-stretch:normal;font-size:9.16378px;font-family:Arial;-inkscape-font-specification:Arial;writing-mode:lr-tb;fill:#ff0000;fill-opacity:1;fill-rule:nonzero;stroke:none;stroke-width:0.970986;"
       id="text318-3"
       x="487.74515"
       y="-556.11987"><tspan
         x="487.74515 490.29269"
         y="-556.11987"
         sodipodi:role="line"
         id="tspan316-7"
         style="font-style:normal;font-variant:normal;font-weight:normal;font-stretch:normal;font-family:Arial;-inkscape-font-specification:Arial;stroke-width:0.970986;fill:#ff0000;">t'</tspan></text><text
       transform="scale(1.0298809,-0.97098604)"
       style="font-style:normal;font-variant:normal;font-weight:normal;font-stretch:normal;font-size:9.16378px;font-family:Arial;-inkscape-font-specification:Arial;writing-mode:lr-tb;fill:#231f20;fill-opacity:1;fill-rule:nonzero;stroke:none;stroke-width:0.970986"
       id="text318-4"
       x="485.64755"
       y="-524.65448"><tspan
         x="485.64755 488.1951"
         y="-524.65448"
         sodipodi:role="line"
         id="tspan316-1"
         style="font-style:normal;font-variant:normal;font-weight:normal;font-stretch:normal;font-family:Arial;-inkscape-font-specification:Arial;stroke-width:0.970986">t'</tspan></text></g></svg>
