<?xml version="1.0" encoding="UTF-8" standalone="no"?>
<svg
   xmlns:dc="http://purl.org/dc/elements/1.1/"
   xmlns:cc="http://creativecommons.org/ns#"
   xmlns:rdf="http://www.w3.org/1999/02/22-rdf-syntax-ns#"
   xmlns:svg="http://www.w3.org/2000/svg"
   xmlns="http://www.w3.org/2000/svg"
   xmlns:sodipodi="http://sodipodi.sourceforge.net/DTD/sodipodi-0.dtd"
   xmlns:inkscape="http://www.inkscape.org/namespaces/inkscape"
   version="1.1"
   id="svg2"
   xml:space="preserve"
   width="1094.812"
   height="482.5329"
   viewBox="0 0 1094.8121 482.5329"
   sodipodi:docname="tournure3.svg"
   inkscape:version="1.0.2-2 (e86c870879, 2021-01-15)"><metadata
     id="metadata8"><rdf:RDF><cc:Work
         rdf:about=""><dc:format>image/svg+xml</dc:format><dc:type
           rdf:resource="http://purl.org/dc/dcmitype/StillImage" /><dc:title></dc:title></cc:Work></rdf:RDF></metadata><defs
     id="defs6" /><sodipodi:namedview
     pagecolor="#ffffff"
     bordercolor="#666666"
     borderopacity="1"
     objecttolerance="10"
     gridtolerance="10"
     guidetolerance="10"
     inkscape:pageopacity="0"
     inkscape:pageshadow="2"
     inkscape:window-width="1920"
     inkscape:window-height="1001"
     id="namedview4"
     showgrid="false"
     inkscape:zoom="2.0390218"
     inkscape:cx="310.8359"
     inkscape:cy="292.72912"
     inkscape:window-x="-9"
     inkscape:window-y="-9"
     inkscape:window-maximized="1"
     inkscape:current-layer="g10"
     inkscape:document-rotation="0"
     fit-margin-top="10"
     fit-margin-left="10"
     fit-margin-right="10"
     fit-margin-bottom="10" /><g
     id="g10"
     inkscape:groupmode="layer"
     inkscape:label="tournure3 - copie"
     transform="matrix(1.3333333,0,0,-1.3333333,-14.829527,735.28443)"><g
       id="g12"
       transform="scale(1,-1)"><path
         d="m 126.02734,-329.64893 c 31.66797,-32.83398 9.5,-111.33398 -49.16601,-96.00048"
         style="fill:none;stroke:#231f20;stroke-width:2;stroke-linecap:butt;stroke-linejoin:miter;stroke-miterlimit:4;stroke-dasharray:none;stroke-opacity:1"
         id="path14"
         inkscape:connector-curvature="0" /><path
         d="m 41.52783,-328.98291 c -2.6665,16 10.52588,24.42383 25.83936,24.42383 23.73974,0 40.39062,-6.06446 52.66015,-18.08985"
         style="fill:none;stroke:#231f20;stroke-width:2;stroke-linecap:butt;stroke-linejoin:miter;stroke-miterlimit:4;stroke-dasharray:none;stroke-opacity:1"
         id="path16"
         inkscape:connector-curvature="0" /><path
         d="m 101.46045,-420.45752 c -2.64502,19.40918 -45.47119,57.79883 -52.43262,68.1416 -5.83349,8.66699 -4.66553,10.29492 -5.1665,12.66699"
         style="fill:none;stroke:#231f20;stroke-width:2;stroke-linecap:butt;stroke-linejoin:miter;stroke-miterlimit:4;stroke-dasharray:none;stroke-opacity:1"
         id="path18"
         inkscape:connector-curvature="0" /><path
         d="m 87.96533,-405.12744 c -21.3081,-20.23633 -25.96924,-24.67774 -10.65429,-36.79297 8.71679,-6.89551 23.38378,-0.229 24.38378,11.10449"
         style="fill:none;stroke:#231f20;stroke-width:2;stroke-linecap:butt;stroke-linejoin:miter;stroke-miterlimit:4;stroke-dasharray:none;stroke-opacity:1"
         id="path20"
         inkscape:connector-curvature="0" /><path
         d="m 78.69434,-333.48291 c 11.32714,-5.14648 28.90136,-50.00098 17.16699,-63.33301"
         style="fill:none;stroke:#231f20;stroke-width:2;stroke-linecap:butt;stroke-linejoin:miter;stroke-miterlimit:4;stroke-dasharray:none;stroke-opacity:1"
         id="path22"
         inkscape:connector-curvature="0" /><path
         d="m 64.86133,-422.48291 c -26.5,11 -54.66699,49.8335 -42.16699,71 11.75927,19.91211 33.05761,23.31641 46.66699,20.83398"
         style="fill:none;stroke:#231f20;stroke-width:2;stroke-linecap:butt;stroke-linejoin:miter;stroke-miterlimit:4;stroke-dasharray:none;stroke-opacity:1"
         id="path24"
         inkscape:connector-curvature="0" /><path
         d="m 101.77832,-313.39893 c 0.83057,-11.29199 1.11572,-27.28711 -8.25049,-32.75"
         style="fill:none;stroke:#231f20;stroke-width:3;stroke-linecap:butt;stroke-linejoin:miter;stroke-miterlimit:4;stroke-dasharray:none;stroke-opacity:1"
         id="path26"
         inkscape:connector-curvature="0" /><path
         d="m 105.27734,-329.03955 c 10.38379,-0.64258 19.50391,0.52441 20.19922,9.92187 1.2666,17.08838 -15.82226,28.48194 -22.15136,21.51905 -1.96631,-2.16309 -2.25831,-2.38184 -1.96387,-7.71729"
         style="fill:none;stroke:#231f20;stroke-width:3;stroke-linecap:butt;stroke-linejoin:miter;stroke-miterlimit:4;stroke-dasharray:none;stroke-opacity:1"
         id="path28"
         inkscape:connector-curvature="0" /><path
         d="m 84.33789,-349.49707 c -8.22754,-1.89844 -17.08887,20.88525 -3.16455,22.15186 4.99463,0.4541 8.9375,-0.1084 15.85449,-0.80372"
         style="fill:none;stroke:#231f20;stroke-width:3;stroke-linecap:butt;stroke-linejoin:miter;stroke-miterlimit:4;stroke-dasharray:none;stroke-opacity:1"
         id="path30"
         inkscape:connector-curvature="0" /><path
         d="m 105.61865,-392.80713 c 3.75,-3.26855 15.25049,-10.02197 6.50098,-11.1123 -8.75098,-1.08887 -5.25049,4.57714 -4.25098,5.66601"
         style="fill:none;stroke:#231f20;stroke-width:1;stroke-linecap:butt;stroke-linejoin:miter;stroke-miterlimit:4;stroke-dasharray:none;stroke-opacity:1"
         id="path32"
         inkscape:connector-curvature="0" /><path
         d="m 111.61865,-394.33154 c 1.5,1.52441 2.00098,2.83154 2.75098,3.48535"
         style="fill:none;stroke:#231f20;stroke-width:1;stroke-linecap:butt;stroke-linejoin:miter;stroke-miterlimit:4;stroke-dasharray:none;stroke-opacity:1"
         id="path34"
         inkscape:connector-curvature="0" /><path
         d="m 108,-337.65381 c 3.75,-3.26855 15.25,-10.02197 6.5,-11.1123 -8.75,-1.08887 -5.25,4.57715 -4.25,5.66601"
         style="fill:none;stroke:#231f20;stroke-width:1;stroke-linecap:butt;stroke-linejoin:miter;stroke-miterlimit:4;stroke-dasharray:none;stroke-opacity:1"
         id="path36"
         inkscape:connector-curvature="0" /><path
         d="m 114,-339.17822 c 1.5,1.52441 2,2.83154 2.75,3.48535"
         style="fill:none;stroke:#231f20;stroke-width:1;stroke-linecap:butt;stroke-linejoin:miter;stroke-miterlimit:4;stroke-dasharray:none;stroke-opacity:1"
         id="path38"
         inkscape:connector-curvature="0" /><g
         id="g40"
         transform="scale(1,-1)"><text
   transform="matrix(1,0,0,-1,276.5,432.75391)"
   style="font-variant:normal;font-weight:normal;font-size:16px;font-family:'Myriad Pro';-inkscape-font-specification:Myriad-Roman;writing-mode:lr-tb;fill:#231f20;fill-opacity:1;fill-rule:nonzero;stroke:none"
   id="text44"
   y="0"><tspan
     x="0 5.296"
     y="0"
     sodipodi:role="line"
     id="tspan42">t'</tspan></text>
<g
   id="g46"
   transform="scale(1,-1)"><path
     d="m 289.52734,-328.22314 c 31.66797,-32.83399 9.5,-111.33399 -49.16601,-96.00049"
     style="fill:none;stroke:#231f20;stroke-width:2;stroke-linecap:butt;stroke-linejoin:miter;stroke-miterlimit:4;stroke-dasharray:none;stroke-opacity:1"
     id="path48"
     inkscape:connector-curvature="0" /><path
     d="m 204.97021,-320.08594 c 1.91895,11.13965 13.17627,16.95264 25.89698,16.95264 23.74023,0 40.39062,-6.06445 52.66015,-18.08984"
     style="fill:none;stroke:#231f20;stroke-width:2;stroke-linecap:butt;stroke-linejoin:miter;stroke-miterlimit:4;stroke-dasharray:none;stroke-opacity:1"
     id="path50"
     inkscape:connector-curvature="0" /><path
     d="m 205.02783,-327.55713 c -0.45166,2.70899 -0.44873,5.20068 -0.0576,7.47119"
     style="fill:none;stroke:#231f20;stroke-width:2;stroke-linecap:butt;stroke-linejoin:miter;stroke-miterlimit:4;stroke-dasharray:none;stroke-opacity:1"
     id="path52"
     inkscape:connector-curvature="0" /><path
     d="m 259.86816,-406.64063 c -12.13964,20.23389 -41.66357,47.3169 -47.34033,55.75049 -5.83349,8.667 -4.66553,10.29493 -5.1665,12.667"
     style="fill:none;stroke:#231f20;stroke-width:2;stroke-linecap:butt;stroke-linejoin:miter;stroke-miterlimit:4;stroke-dasharray:none;stroke-opacity:1"
     id="path54"
     inkscape:connector-curvature="0" /><path
     d="m 264.96094,-419.03174 c -0.48828,3.58252 -2.34522,7.81153 -5.09278,12.39111"
     style="fill:none;stroke:#231f20;stroke-width:2;stroke-linecap:butt;stroke-linejoin:miter;stroke-miterlimit:4;stroke-dasharray:none;stroke-opacity:1"
     id="path56"
     inkscape:connector-curvature="0" /><path
     d="m 248.14063,-406.86328 c -18.43067,-17.57959 -21.8125,-22.17432 -7.32959,-33.63135 8.7163,-6.89551 23.38427,-0.229 24.38427,11.10449"
     style="fill:none;stroke:#231f20;stroke-width:2;stroke-linecap:butt;stroke-linejoin:miter;stroke-miterlimit:4;stroke-dasharray:none;stroke-opacity:1"
     id="path58"
     inkscape:connector-curvature="0" /><path
     d="m 251.46484,-403.70166 c -1.15722,-1.09912 -2.26562,-2.15186 -3.32421,-3.16162"
     style="fill:none;stroke:#231f20;stroke-width:2;stroke-linecap:butt;stroke-linejoin:miter;stroke-miterlimit:4;stroke-dasharray:none;stroke-opacity:1"
     id="path60"
     inkscape:connector-curvature="0" /><path
     d="m 242.19434,-332.05713 c 11.32714,-5.14648 28.90136,-50.00098 17.16699,-63.33301"
     style="fill:none;stroke:#231f20;stroke-width:2;stroke-linecap:butt;stroke-linejoin:miter;stroke-miterlimit:4;stroke-dasharray:none;stroke-opacity:1"
     id="path62"
     inkscape:connector-curvature="0" /><path
     d="m 192.91992,-341.29541 c 12.04004,12.13623 28.64112,14.1333 39.94141,12.07227"
     style="fill:none;stroke:#231f20;stroke-width:2;stroke-linecap:butt;stroke-linejoin:miter;stroke-miterlimit:4;stroke-dasharray:none;stroke-opacity:1"
     id="path64"
     inkscape:connector-curvature="0" /><path
     d="m 228.36133,-421.05713 c -26.5,11 -54.66699,49.8335 -42.16699,71 1.99511,3.37842 4.26513,6.28174 6.72558,8.76172"
     style="fill:none;stroke:#231f20;stroke-width:2;stroke-linecap:butt;stroke-linejoin:miter;stroke-miterlimit:4;stroke-dasharray:none;stroke-opacity:1"
     id="path66"
     inkscape:connector-curvature="0" /><path
     d="m 265.27832,-311.97314 c 0.83106,-11.292 1.11621,-27.28711 -8.25098,-32.75"
     style="fill:none;stroke:#231f20;stroke-width:3;stroke-linecap:butt;stroke-linejoin:miter;stroke-miterlimit:4;stroke-dasharray:none;stroke-opacity:1"
     id="path68"
     inkscape:connector-curvature="0" /><path
     d="m 268.77734,-327.61377 c 10.38379,-0.64258 19.50391,0.52441 20.19922,9.92188 1.2666,17.08837 -15.82226,28.48095 -22.15136,21.51806 -1.96582,-2.16211 -2.25879,-2.38086 -1.96387,-7.71631"
     style="fill:none;stroke:#231f20;stroke-width:3;stroke-linecap:butt;stroke-linejoin:miter;stroke-miterlimit:4;stroke-dasharray:none;stroke-opacity:1"
     id="path70"
     inkscape:connector-curvature="0" /><path
     d="m 247.83789,-348.07129 c -8.22754,-1.89844 -17.08887,20.88525 -3.16455,22.15186 4.99463,0.4541 8.93799,-0.1084 15.854,-0.80371"
     style="fill:none;stroke:#231f20;stroke-width:3;stroke-linecap:butt;stroke-linejoin:miter;stroke-miterlimit:4;stroke-dasharray:none;stroke-opacity:1"
     id="path72"
     inkscape:connector-curvature="0" /><g
     id="g74"
     transform="scale(1,-1)"><text
   transform="matrix(1,0,0,-1,268.5,392.75293)"
   style="font-variant:normal;font-weight:normal;font-size:16px;font-family:'Myriad Pro';-inkscape-font-specification:Myriad-Roman;writing-mode:lr-tb;fill:#231f20;fill-opacity:1;fill-rule:nonzero;stroke:none"
   id="text78"><tspan
     x="0"
     y="0"
     id="tspan76">t</tspan></text>
<text
   transform="matrix(1,0,0,-1,214.5,424.75391)"
   style="font-variant:normal;font-weight:normal;font-size:16px;font-family:'Myriad Pro';-inkscape-font-specification:Myriad-Roman;writing-mode:lr-tb;fill:#231f20;fill-opacity:1;fill-rule:nonzero;stroke:none"
   id="text82"
   y="0"><tspan
     x="0 5.296"
     y="0"
     sodipodi:role="line"
     id="tspan80">t'</tspan></text>
<text
   transform="matrix(1,0,0,-1,194.5,348.75293)"
   style="font-variant:normal;font-weight:normal;font-size:16px;font-family:'Myriad Pro';-inkscape-font-specification:Myriad-Roman;writing-mode:lr-tb;fill:#231f20;fill-opacity:1;fill-rule:nonzero;stroke:none"
   id="text86"><tspan
     x="0"
     y="0"
     id="tspan84">t</tspan></text>
<text
   transform="matrix(1,0,0,-1,271.5,336.75293)"
   style="font-variant:normal;font-weight:normal;font-size:16px;font-family:'Myriad Pro';-inkscape-font-specification:Myriad-Roman;writing-mode:lr-tb;fill:#231f20;fill-opacity:1;fill-rule:nonzero;stroke:none"
   id="text90"><tspan
     x="0"
     y="0"
     id="tspan88">t</tspan></text>
<text
   transform="matrix(1,0,0,-1,440,434.17871)"
   style="font-variant:normal;font-weight:normal;font-size:12px;font-family:'Myriad Pro';-inkscape-font-specification:Myriad-Roman;writing-mode:lr-tb;fill:#231f20;fill-opacity:1;fill-rule:nonzero;stroke:none"
   id="text94"
   y="0"><tspan
     x="0 3.9719999"
     y="0"
     sodipodi:role="line"
     id="tspan92">t'</tspan></text>
<g
   id="g96"
   transform="scale(1,-1)"><path
     d="m 453.02734,-329.64893 c 31.66797,-32.83398 9.5,-111.33398 -49.16601,-96.00048"
     style="fill:none;stroke:#231f20;stroke-width:2;stroke-linecap:butt;stroke-linejoin:miter;stroke-miterlimit:4;stroke-dasharray:none;stroke-opacity:1"
     id="path98"
     inkscape:connector-curvature="0" /><path
     d="m 368.52734,-328.98291 c -2.66601,16 10.52637,24.42383 25.83985,24.42383 23.74023,0 40.39062,-6.06446 52.66015,-18.08985"
     style="fill:none;stroke:#231f20;stroke-width:2;stroke-linecap:butt;stroke-linejoin:miter;stroke-miterlimit:4;stroke-dasharray:none;stroke-opacity:1"
     id="path100"
     inkscape:connector-curvature="0" /><path
     d="m 428.46094,-420.45752 c -2.64551,19.40918 -45.47168,57.79883 -52.4336,68.1416 -5.833,8.66699 -4.66504,10.29492 -5.16601,12.66699"
     style="fill:none;stroke:#231f20;stroke-width:2;stroke-linecap:butt;stroke-linejoin:miter;stroke-miterlimit:4;stroke-dasharray:none;stroke-opacity:1"
     id="path102"
     inkscape:connector-curvature="0" /><path
     d="m 414.96484,-405.12744 c -21.30761,-20.23633 -25.96875,-24.67774 -10.65429,-36.79297 8.71679,-6.89551 23.38476,-0.229 24.38476,11.10449"
     style="fill:none;stroke:#231f20;stroke-width:2;stroke-linecap:butt;stroke-linejoin:miter;stroke-miterlimit:4;stroke-dasharray:none;stroke-opacity:1"
     id="path104"
     inkscape:connector-curvature="0" /><path
     d="m 405.69434,-333.48291 c 11.32714,-5.14648 28.90136,-50.00098 17.16699,-63.33301"
     style="fill:none;stroke:#231f20;stroke-width:2;stroke-linecap:butt;stroke-linejoin:miter;stroke-miterlimit:4;stroke-dasharray:none;stroke-opacity:1"
     id="path106"
     inkscape:connector-curvature="0" /><path
     d="m 391.86133,-422.48291 c -26.5,11 -54.66699,49.8335 -42.16699,71 11.75879,19.91211 33.05761,23.31641 46.66699,20.83398"
     style="fill:none;stroke:#231f20;stroke-width:2;stroke-linecap:butt;stroke-linejoin:miter;stroke-miterlimit:4;stroke-dasharray:none;stroke-opacity:1"
     id="path108"
     inkscape:connector-curvature="0" /><path
     d="m 428.77832,-313.39893 c 0.83106,-11.29199 1.11621,-27.28711 -8.25098,-32.75"
     style="fill:none;stroke:#231f20;stroke-width:3;stroke-linecap:butt;stroke-linejoin:miter;stroke-miterlimit:4;stroke-dasharray:none;stroke-opacity:1"
     id="path110"
     inkscape:connector-curvature="0" /><path
     d="m 432.27734,-329.03955 c 10.38379,-0.64258 19.50391,0.52441 20.19922,9.92187 1.2666,17.08838 -15.82226,28.48194 -22.15136,21.51905 -1.96582,-2.16309 -2.25879,-2.38184 -1.96387,-7.71729"
     style="fill:none;stroke:#231f20;stroke-width:3;stroke-linecap:butt;stroke-linejoin:miter;stroke-miterlimit:4;stroke-dasharray:none;stroke-opacity:1"
     id="path112"
     inkscape:connector-curvature="0" /><path
     d="m 411.33789,-349.49707 c -8.22754,-1.89844 -17.08887,20.88525 -3.16406,22.15186 4.99414,0.4541 8.9375,-0.1084 15.85351,-0.80372"
     style="fill:none;stroke:#231f20;stroke-width:3;stroke-linecap:butt;stroke-linejoin:miter;stroke-miterlimit:4;stroke-dasharray:none;stroke-opacity:1"
     id="path114"
     inkscape:connector-curvature="0" /><g
     id="g116"
     transform="scale(1,-1)"><text
   transform="matrix(1,0,0,-1,432,394.17871)"
   style="font-variant:normal;font-weight:normal;font-size:12px;font-family:'Myriad Pro';-inkscape-font-specification:Myriad-Roman;writing-mode:lr-tb;fill:#231f20;fill-opacity:1;fill-rule:nonzero;stroke:none"
   id="text122"
   y="-32.000038"><tspan
     x="0"
     y="0"
     id="tspan118">t</tspan><tspan
     x="-54 -50.028"
     y="-32.000038"
     sodipodi:role="line"
     id="tspan120">t'</tspan></text>
<text
   transform="matrix(1,0,0,-1,358,350.17871)"
   style="font-variant:normal;font-weight:normal;font-size:12px;font-family:'Myriad Pro';-inkscape-font-specification:Myriad-Roman;writing-mode:lr-tb;fill:#231f20;fill-opacity:1;fill-rule:nonzero;stroke:none"
   id="text126"><tspan
     x="0"
     y="0"
     id="tspan124">t</tspan></text>
<text
   transform="matrix(1,0,0,-1,435,338.17871)"
   style="font-variant:normal;font-weight:normal;font-size:12px;font-family:'Myriad Pro';-inkscape-font-specification:Myriad-Roman;writing-mode:lr-tb;fill:#231f20;fill-opacity:1;fill-rule:nonzero;stroke:none"
   id="text130"><tspan
     x="0"
     y="0"
     id="tspan128">t</tspan></text>
<g
   id="g132"
   transform="scale(1,-1)"><path
     id="path140"
     style="fill:#cccccc;stroke:#231f20;stroke-width:0.5;stroke-linecap:butt;stroke-linejoin:miter;stroke-miterlimit:4;stroke-dasharray:none;stroke-opacity:1;opacity:0.72"
     d="m 464.25,-324.67822 -13.1875,-17.375 -12.5625,19.125 6.5,13.25 m 0,0 19.25,-15"
     sodipodi:nodetypes="cccccc" /><path
     d="m 447.125,-309.67822 c 0,1.24267 -0.95117,2.25 -2.125,2.25 -1.17383,0 -2.125,-1.00733 -2.125,-2.25 0,-1.24268 0.95117,-2.25 2.125,-2.25 1.17383,0 2.125,1.00732 2.125,2.25 z"
     style="fill:#ffffff;fill-opacity:1;fill-rule:nonzero;stroke:none"
     id="path142"
     inkscape:connector-curvature="0" /><path
     d="m 447.125,-309.67822 c 0,1.24267 -0.95117,2.25 -2.125,2.25 -1.17383,0 -2.125,-1.00733 -2.125,-2.25 0,-1.24268 0.95117,-2.25 2.125,-2.25 1.17383,0 2.125,1.00732 2.125,2.25 z"
     style="fill:none;stroke:#231f20;stroke-width:0.5;stroke-linecap:butt;stroke-linejoin:miter;stroke-miterlimit:4;stroke-dasharray:none;stroke-opacity:1"
     id="path144"
     inkscape:connector-curvature="0" /><path
     d="m 440.625,-322.92822 c 0,1.24267 -0.95117,2.25 -2.125,2.25 -1.17383,0 -2.125,-1.00733 -2.125,-2.25 0,-1.24268 0.95117,-2.25 2.125,-2.25 1.17383,0 2.125,1.00732 2.125,2.25 z"
     style="fill:#ffffff;fill-opacity:1;fill-rule:nonzero;stroke:none"
     id="path146"
     inkscape:connector-curvature="0" /><path
     d="m 440.625,-322.92822 c 0,1.24267 -0.95117,2.25 -2.125,2.25 -1.17383,0 -2.125,-1.00733 -2.125,-2.25 0,-1.24268 0.95117,-2.25 2.125,-2.25 1.17383,0 2.125,1.00732 2.125,2.25 z"
     style="fill:none;stroke:#231f20;stroke-width:0.5;stroke-linecap:butt;stroke-linejoin:miter;stroke-miterlimit:4;stroke-dasharray:none;stroke-opacity:1"
     id="path148"
     inkscape:connector-curvature="0" /><path
     d="m 453.25,-342.42822 c 0,1.24267 -0.95117,2.25 -2.125,2.25 -1.17383,0 -2.125,-1.00733 -2.125,-2.25 0,-1.24268 0.95117,-2.25 2.125,-2.25 1.17383,0 2.125,1.00732 2.125,2.25 z"
     style="fill:#ffffff;fill-opacity:1;fill-rule:nonzero;stroke:none"
     id="path150"
     inkscape:connector-curvature="0" /><path
     d="m 453.25,-342.42822 c 0,1.24267 -0.95117,2.25 -2.125,2.25 -1.17383,0 -2.125,-1.00733 -2.125,-2.25 0,-1.24268 0.95117,-2.25 2.125,-2.25 1.17383,0 2.125,1.00732 2.125,2.25 z"
     style="fill:none;stroke:#231f20;stroke-width:0.5;stroke-linecap:butt;stroke-linejoin:miter;stroke-miterlimit:4;stroke-dasharray:none;stroke-opacity:1"
     id="path152"
     inkscape:connector-curvature="0" /><path
     d="m 466.375,-324.67822 c 0,1.24267 -0.95117,2.25 -2.125,2.25 -1.17383,0 -2.125,-1.00733 -2.125,-2.25 0,-1.24268 0.95117,-2.25 2.125,-2.25 1.17383,0 2.125,1.00732 2.125,2.25 z"
     style="fill:#ffffff;fill-opacity:1;fill-rule:nonzero;stroke:none"
     id="path154"
     inkscape:connector-curvature="0" /><path
     d="m 466.375,-324.67822 c 0,1.24267 -0.95117,2.25 -2.125,2.25 -1.17383,0 -2.125,-1.00733 -2.125,-2.25 0,-1.24268 0.95117,-2.25 2.125,-2.25 1.17383,0 2.125,1.00732 2.125,2.25 z"
     style="fill:none;stroke:#231f20;stroke-width:0.5;stroke-linecap:butt;stroke-linejoin:miter;stroke-miterlimit:4;stroke-dasharray:none;stroke-opacity:1"
     id="path156"
     inkscape:connector-curvature="0" /><path
     d="m 145,-245.08398 c 3.75,-3.26856 15.25,-10.02149 6.5,-11.11231 -8.75,-1.08887 -5.25,4.57715 -4.25,5.66602"
     style="fill:none;stroke:#231f20;stroke-width:1;stroke-linecap:butt;stroke-linejoin:miter;stroke-miterlimit:4;stroke-dasharray:none;stroke-opacity:1"
     id="path158"
     inkscape:connector-curvature="0" /><path
     d="m 151,-246.6084 c 1.5,1.52442 2,2.83203 2.75,3.48535"
     style="fill:none;stroke:#231f20;stroke-width:1;stroke-linecap:butt;stroke-linejoin:miter;stroke-miterlimit:4;stroke-dasharray:none;stroke-opacity:1"
     id="path160"
     inkscape:connector-curvature="0" /><g
     id="g162"
     transform="scale(1,-1)"><text
   transform="matrix(1,0,0,-1,174,244.6084)"
   style="font-variant:normal;font-weight:normal;font-size:16px;font-family:'Myriad Pro';-inkscape-font-specification:Myriad-Roman;writing-mode:lr-tb;fill:#231f20;fill-opacity:1;fill-rule:nonzero;stroke:none"
   id="text166"><tspan
     x="0"
     y="0"
     id="tspan164">t</tspan></text>
<text
   transform="matrix(1,0,0,-1,159,245.6084)"
   style="font-variant:normal;font-weight:normal;font-size:16px;font-family:'Myriad Pro';-inkscape-font-specification:Myriad-Roman;writing-mode:lr-tb;fill:#231f20;fill-opacity:1;fill-rule:nonzero;stroke:none"
   id="text170"><tspan
     x="0"
     y="0"
     id="tspan168">=</tspan></text>
<text
   transform="matrix(1,0,0,-1,614.75293,346.27148)"
   style="font-variant:normal;font-weight:normal;font-size:12px;font-family:'Myriad Pro';-inkscape-font-specification:Myriad-Roman;writing-mode:lr-tb;fill:#231f20;fill-opacity:1;fill-rule:nonzero;stroke:none"
   id="text174"
   y="0"><tspan
     x="0 3.9719999"
     y="0"
     sodipodi:role="line"
     id="tspan172">t'</tspan></text>
<text
   transform="matrix(1,0,0,-1,609.08594,313.93848)"
   style="font-variant:normal;font-weight:normal;font-size:12px;font-family:'Myriad Pro';-inkscape-font-specification:Myriad-Roman;writing-mode:lr-tb;fill:#231f20;fill-opacity:1;fill-rule:nonzero;stroke:none"
   id="text180"
   y="-29.66604"><tspan
     x="0"
     y="0"
     id="tspan176">t</tspan><tspan
     x="-44.000038 -40.028042"
     y="-29.66604"
     sodipodi:role="line"
     id="tspan178">t'</tspan></text>
<text
   transform="matrix(1,0,0,-1,543.08594,260.27051)"
   style="font-variant:normal;font-weight:normal;font-size:12px;font-family:'Myriad Pro';-inkscape-font-specification:Myriad-Roman;writing-mode:lr-tb;fill:#231f20;fill-opacity:1;fill-rule:nonzero;stroke:none"
   id="text184"><tspan
     x="0"
     y="0"
     id="tspan182">t</tspan></text>
<text
   transform="matrix(1,0,0,-1,612.75293,250.93848)"
   style="font-variant:normal;font-weight:normal;font-size:12px;font-family:'Myriad Pro';-inkscape-font-specification:Myriad-Roman;writing-mode:lr-tb;fill:#231f20;fill-opacity:1;fill-rule:nonzero;stroke:none"
   id="text188"><tspan
     x="0"
     y="0"
     id="tspan186">t</tspan></text>
<g
   id="g190"
   transform="scale(1,-1)"><path
     d="m 595.71777,-322.21924 c -21.30761,-20.23633 -25.96875,-24.67773 -10.65429,-36.79297 8.71679,-6.8955 23.38476,-0.229 24.38476,11.1045"
     style="fill:none;stroke:#231f20;stroke-width:2;stroke-linecap:butt;stroke-linejoin:miter;stroke-miterlimit:4;stroke-dasharray:none;stroke-opacity:1"
     id="path192"
     inkscape:connector-curvature="0" /><path
     d="m 662.4209,-250.35156 c 13.33301,-23 -19.14063,-107.72315 -77.80664,-92.38965"
     style="fill:none;stroke:#231f20;stroke-width:2;stroke-linecap:butt;stroke-linejoin:miter;stroke-miterlimit:4;stroke-dasharray:none;stroke-opacity:1"
     id="path194"
     inkscape:connector-curvature="0" /><path
     d="m 609.21387,-337.54932 c -2.64551,19.40918 -45.47168,57.79737 -52.4336,68.14112 -5.833,8.66601 -4.66504,10.29492 -5.16601,12.66601"
     style="fill:none;stroke:#231f20;stroke-width:2;stroke-linecap:butt;stroke-linejoin:miter;stroke-miterlimit:4;stroke-dasharray:none;stroke-opacity:1"
     id="path196"
     inkscape:connector-curvature="0" /><path
     d="m 586.44727,-250.57617 c 11.32714,-5.14649 28.90136,-49.99951 17.16699,-63.33154"
     style="fill:none;stroke:#231f20;stroke-width:2;stroke-linecap:butt;stroke-linejoin:miter;stroke-miterlimit:4;stroke-dasharray:none;stroke-opacity:1"
     id="path198"
     inkscape:connector-curvature="0" /><path
     d="m 572.61426,-339.57471 c -26.5,11 -54.66699,49.8335 -42.16699,70.99854 11.75878,19.91211 33.05761,23.3164 46.66699,20.83398"
     style="fill:none;stroke:#231f20;stroke-width:2;stroke-linecap:butt;stroke-linejoin:miter;stroke-miterlimit:4;stroke-dasharray:none;stroke-opacity:1"
     id="path200"
     inkscape:connector-curvature="0" /><path
     d="m 609.53125,-230.49219 c 0.83105,-11.29101 1.11621,-27.28711 -8.25098,-32.75"
     style="fill:none;stroke:#231f20;stroke-width:2;stroke-linecap:butt;stroke-linejoin:miter;stroke-miterlimit:4;stroke-dasharray:none;stroke-opacity:1"
     id="path202"
     inkscape:connector-curvature="0" /><path
     d="m 592.09082,-266.58984 c -8.22754,-1.89844 -17.08887,20.88476 -3.16406,22.15234 4.99414,0.45312 8.9375,-0.10938 15.85351,-0.80469"
     style="fill:none;stroke:#231f20;stroke-width:2;stroke-linecap:butt;stroke-linejoin:miter;stroke-miterlimit:4;stroke-dasharray:none;stroke-opacity:1"
     id="path204"
     inkscape:connector-curvature="0" /><path
     d="m 549.28027,-246.07617 c -2.66601,16 10.52637,24.42383 25.83985,24.42383 23.74023,0 53.63379,-5.69825 69.63379,-2.03223"
     style="fill:none;stroke:#231f20;stroke-width:2;stroke-linecap:butt;stroke-linejoin:miter;stroke-miterlimit:4;stroke-dasharray:none;stroke-opacity:1"
     id="path206"
     inkscape:connector-curvature="0" /><path
     d="m 610.75391,-214.68457 c 3.333,11.33301 13.7207,18.92187 27,16 16.66699,-3.66699 11.458,-34.37793 19.708,-41.37793"
     style="fill:none;stroke:#231f20;stroke-width:2;stroke-linecap:butt;stroke-linejoin:miter;stroke-miterlimit:4;stroke-dasharray:none;stroke-opacity:1"
     id="path208"
     inkscape:connector-curvature="0" /><path
     d="m 616.08789,-246.01758 c 11,-2.33301 32.66602,-6 42.12402,-0.91992 13.23731,7.11035 26.51368,8.64648 19.87598,21.91992 -2.66699,5.33301 -10,7.99903 -22,3.66602"
     style="fill:none;stroke:#231f20;stroke-width:2;stroke-linecap:butt;stroke-linejoin:miter;stroke-miterlimit:4;stroke-dasharray:none;stroke-opacity:1"
     id="path210"
     inkscape:connector-curvature="0" /><g
     id="g212"
     transform="scale(1,-1)"><text
   transform="matrix(1,0,0,-1,640.75293,209.27246)"
   style="font-variant:normal;font-weight:normal;font-size:12px;font-family:'Myriad Pro';-inkscape-font-specification:Myriad-Roman;writing-mode:lr-tb;fill:#231f20;fill-opacity:1;fill-rule:nonzero;stroke:none"
   id="text216"><tspan
     x="0"
     y="0"
     id="tspan214">t</tspan></text>
<text
   transform="matrix(1,0,0,-1,599.75293,209.27246)"
   style="font-variant:normal;font-weight:normal;font-size:12px;font-family:'Myriad Pro';-inkscape-font-specification:Myriad-Roman;writing-mode:lr-tb;fill:#231f20;fill-opacity:1;fill-rule:nonzero;stroke:none"
   id="text220"><tspan
     x="0"
     y="0"
     id="tspan218">t</tspan></text>
<text
   transform="matrix(1,0,0,-1,670.08594,248.27051)"
   style="font-variant:normal;font-weight:normal;font-size:12px;font-family:'Myriad Pro';-inkscape-font-specification:Myriad-Roman;writing-mode:lr-tb;fill:#231f20;fill-opacity:1;fill-rule:nonzero;stroke:none"
   id="text224"><tspan
     x="0"
     y="0"
     id="tspan222">t</tspan></text>
<text
   transform="matrix(1,0,0,-1,593.08594,272.60449)"
   style="font-variant:normal;font-weight:normal;font-size:12px;font-family:'Myriad Pro';-inkscape-font-specification:Myriad-Roman;writing-mode:lr-tb;fill:#231f20;fill-opacity:1;fill-rule:nonzero;stroke:none"
   id="text228"><tspan
     x="0"
     y="0"
     id="tspan226">t</tspan></text>
<text
   transform="matrix(1,0,0,-1,576.75293,236.27246)"
   style="font-variant:normal;font-weight:normal;font-size:12px;font-family:'Myriad Pro';-inkscape-font-specification:Myriad-Roman;writing-mode:lr-tb;fill:#231f20;fill-opacity:1;fill-rule:nonzero;stroke:none"
   id="text232"><tspan
     x="0"
     y="0"
     id="tspan230">t</tspan></text>
<g
   id="g234"
   transform="scale(1,-1)"><path
     d="m 807.78516,-426.95313 c 31.66797,-32.83398 9.5,-111.33398 -49.16602,-96"
     style="fill:none;stroke:#231f20;stroke-width:2;stroke-linecap:butt;stroke-linejoin:miter;stroke-miterlimit:4;stroke-dasharray:none;stroke-opacity:1"
     id="path236"
     inkscape:connector-curvature="0" /><path
     d="m 723.28516,-426.28711 c -2.66602,16 10.52539,24.42383 25.83984,24.42383 23.74023,0 40.39063,-6.06445 52.66016,-18.08985"
     style="fill:none;stroke:#231f20;stroke-width:2;stroke-linecap:butt;stroke-linejoin:miter;stroke-miterlimit:4;stroke-dasharray:none;stroke-opacity:1"
     id="path238"
     inkscape:connector-curvature="0" /><path
     d="m 783.21875,-517.76172 c -2.64648,19.40918 -45.47266,57.79883 -52.43359,68.1416 -5.83399,8.66699 -4.66602,10.29492 -5.16602,12.66699"
     style="fill:none;stroke:#231f20;stroke-width:2;stroke-linecap:butt;stroke-linejoin:miter;stroke-miterlimit:4;stroke-dasharray:none;stroke-opacity:1"
     id="path240"
     inkscape:connector-curvature="0" /><path
     d="m 769.72266,-502.43164 c -21.3086,-20.23633 -25.96875,-24.67774 -10.6543,-36.79297 8.7168,-6.89551 23.38477,-0.22852 24.38477,11.10449"
     style="fill:none;stroke:#231f20;stroke-width:2;stroke-linecap:butt;stroke-linejoin:miter;stroke-miterlimit:4;stroke-dasharray:none;stroke-opacity:1"
     id="path242"
     inkscape:connector-curvature="0" /><path
     d="m 760.45117,-430.78711 c 11.32813,-5.14648 28.90235,-50.00098 17.16797,-63.33301"
     style="fill:none;stroke:#231f20;stroke-width:2;stroke-linecap:butt;stroke-linejoin:miter;stroke-miterlimit:4;stroke-dasharray:none;stroke-opacity:1"
     id="path244"
     inkscape:connector-curvature="0" /><path
     d="m 746.61914,-519.78711 c -26.5,11 -54.66797,49.83398 -42.16797,71 11.75977,19.91211 33.0586,23.31641 46.66797,20.83398"
     style="fill:none;stroke:#231f20;stroke-width:2;stroke-linecap:butt;stroke-linejoin:miter;stroke-miterlimit:4;stroke-dasharray:none;stroke-opacity:1"
     id="path246"
     inkscape:connector-curvature="0" /><path
     d="m 783.75781,-414.23438 c 0.83203,-11.29199 0.89453,-23.75585 -8.47265,-29.21875"
     style="fill:none;stroke:#231f20;stroke-width:2;stroke-linecap:butt;stroke-linejoin:miter;stroke-miterlimit:4;stroke-dasharray:none;stroke-opacity:1"
     id="path248"
     inkscape:connector-curvature="0" /><path
     d="m 790.0918,-425.90137 c 10.38281,-0.64258 16.44726,0.082 17.14258,9.47949 1.26562,17.08887 -15.82227,28.48243 -22.15235,21.51954 -1.96484,-2.16309 -2.25781,-2.38184 -1.96289,-7.71778"
     style="fill:none;stroke:#231f20;stroke-width:2;stroke-linecap:butt;stroke-linejoin:miter;stroke-miterlimit:4;stroke-dasharray:none;stroke-opacity:1"
     id="path250"
     inkscape:connector-curvature="0" /><path
     d="m 766.0957,-446.80078 c -8.22851,-1.89844 -17.08984,20.88476 -3.16406,22.15137 4.99414,0.4541 8.9375,-0.1084 15.85352,-0.80372"
     style="fill:none;stroke:#231f20;stroke-width:2;stroke-linecap:butt;stroke-linejoin:miter;stroke-miterlimit:4;stroke-dasharray:none;stroke-opacity:1"
     id="path252"
     inkscape:connector-curvature="0" /><g
     id="g254"
     transform="scale(1,-1)"><text
   transform="matrix(1,0,0,-1,789.08936,528.32129)"
   style="font-variant:normal;font-weight:normal;font-size:12px;font-family:'Myriad Pro';-inkscape-font-specification:Myriad-Roman;writing-mode:lr-tb;fill:#231f20;fill-opacity:1;fill-rule:nonzero;stroke:none"
   id="text258"
   y="0"><tspan
     x="0 3.9719999"
     y="0"
     sodipodi:role="line"
     id="tspan256">t'</tspan></text>
<text
   transform="matrix(1,0,0,-1,783.42236,495.98828)"
   style="font-variant:normal;font-weight:normal;font-size:12px;font-family:'Myriad Pro';-inkscape-font-specification:Myriad-Roman;writing-mode:lr-tb;fill:#231f20;fill-opacity:1;fill-rule:nonzero;stroke:none"
   id="text264"
   y="-29.66604"><tspan
     x="0"
     y="0"
     id="tspan260">t</tspan><tspan
     x="-44.000038 -40.028042"
     y="-29.66604"
     sodipodi:role="line"
     id="tspan262">t'</tspan></text>
<text
   transform="matrix(1,0,0,-1,717.42236,442.32129)"
   style="font-variant:normal;font-weight:normal;font-size:12px;font-family:'Myriad Pro';-inkscape-font-specification:Myriad-Roman;writing-mode:lr-tb;fill:#231f20;fill-opacity:1;fill-rule:nonzero;stroke:none"
   id="text268"><tspan
     x="0"
     y="0"
     id="tspan266">t</tspan></text>
<text
   transform="matrix(1,0,0,-1,787.08936,432.98828)"
   style="font-variant:normal;font-weight:normal;font-size:12px;font-family:'Myriad Pro';-inkscape-font-specification:Myriad-Roman;writing-mode:lr-tb;fill:#231f20;fill-opacity:1;fill-rule:nonzero;stroke:none"
   id="text282"
   y="12"><tspan
     x="0"
     y="0"
     id="tspan270">t</tspan><tspan
     x="30 33.972"
     y="12"
     sodipodi:role="line"
     id="tspan272">t'</tspan><tspan
     x="-12.33312 -8.3611202"
     y="40.33416"
     sodipodi:role="line"
     id="tspan274">t'</tspan><tspan
     x="-20.00016 -16.02816"
     y="-19.66584"
     sodipodi:role="line"
     id="tspan276">t'</tspan><tspan
     x="-38.667 -34.695"
     y="17.33412"
     sodipodi:role="line"
     id="tspan278">t'</tspan><tspan
     x="-171.51024 -167.53824"
     y="-94.413002"
     sodipodi:role="line"
     id="tspan280">t'</tspan></text>
<text
   transform="matrix(1,0,0,-1,609.91211,495.06934)"
   style="font-variant:normal;font-weight:normal;font-size:12px;font-family:'Myriad Pro';-inkscape-font-specification:Myriad-Roman;writing-mode:lr-tb;fill:#231f20;fill-opacity:1;fill-rule:nonzero;stroke:none"
   id="text288"
   y="-29.66604"><tspan
     x="0"
     y="0"
     id="tspan284">t</tspan><tspan
     x="-44.000038 -40.028042"
     y="-29.66604"
     sodipodi:role="line"
     id="tspan286">t'</tspan></text>
<text
   transform="matrix(1,0,0,-1,543.91211,441.40137)"
   style="font-variant:normal;font-weight:normal;font-size:12px;font-family:'Myriad Pro';-inkscape-font-specification:Myriad-Roman;writing-mode:lr-tb;fill:#231f20;fill-opacity:1;fill-rule:nonzero;stroke:none"
   id="text292"><tspan
     x="0"
     y="0"
     id="tspan290">t</tspan></text>
<text
   transform="matrix(1,0,0,-1,613.5791,432.06934)"
   style="font-variant:normal;font-weight:normal;font-size:12px;font-family:'Myriad Pro';-inkscape-font-specification:Myriad-Roman;writing-mode:lr-tb;fill:#231f20;fill-opacity:1;fill-rule:nonzero;stroke:none"
   id="text296"><tspan
     x="0"
     y="0"
     id="tspan294">t</tspan></text>
<g
   id="g298"
   transform="scale(1,-1)"><path
     d="m 596.54395,-503.35059 c -21.30762,-20.23632 -25.96875,-24.67773 -10.6543,-36.79296 8.7168,-6.89551 23.38476,-0.2295 24.38476,11.10449"
     style="fill:none;stroke:#231f20;stroke-width:2;stroke-linecap:butt;stroke-linejoin:miter;stroke-miterlimit:4;stroke-dasharray:none;stroke-opacity:1"
     id="path300"
     inkscape:connector-curvature="0" /><path
     d="m 573.44043,-520.70605 c -26.5,11 -54.66699,49.83398 -42.16699,71 11.75879,19.9121 33.05761,23.3164 46.66699,20.83398"
     style="fill:none;stroke:#231f20;stroke-width:2;stroke-linecap:butt;stroke-linejoin:miter;stroke-miterlimit:4;stroke-dasharray:none;stroke-opacity:1"
     id="path302"
     inkscape:connector-curvature="0" /><path
     d="m 610.35742,-411.62207 c 0.83106,-11.29199 1.11621,-27.28711 -8.25097,-32.75"
     style="fill:none;stroke:#231f20;stroke-width:2;stroke-linecap:butt;stroke-linejoin:miter;stroke-miterlimit:4;stroke-dasharray:none;stroke-opacity:1"
     id="path304"
     inkscape:connector-curvature="0" /><path
     d="m 592.91699,-447.71973 c -8.22754,-1.89843 -17.08886,20.88477 -3.16406,22.15137 4.99414,0.4541 8.9375,-0.1084 15.85352,-0.80371"
     style="fill:none;stroke:#231f20;stroke-width:2;stroke-linecap:butt;stroke-linejoin:miter;stroke-miterlimit:4;stroke-dasharray:none;stroke-opacity:1"
     id="path306"
     inkscape:connector-curvature="0" /><path
     d="m 550.10645,-427.20605 c -2.66602,16 10.52636,24.42382 25.83984,24.42382 23.74023,0 43.5918,-2.41113 57.5918,-13.16113"
     style="fill:none;stroke:#231f20;stroke-width:2;stroke-linecap:butt;stroke-linejoin:miter;stroke-miterlimit:4;stroke-dasharray:none;stroke-opacity:1"
     id="path308"
     inkscape:connector-curvature="0" /><path
     d="m 664.53809,-426.81836 c 14.25,-13.75 -20.43164,-112.38769 -79.09766,-97.05469"
     style="fill:none;stroke:#231f20;stroke-width:2;stroke-linecap:butt;stroke-linejoin:miter;stroke-miterlimit:4;stroke-dasharray:none;stroke-opacity:1"
     id="path310"
     inkscape:connector-curvature="0" /><path
     d="m 610.04004,-518.68066 c -2.64551,19.40918 -45.47168,57.79882 -52.43359,68.1416 -5.83301,8.66699 -4.66504,10.29492 -5.16602,12.66699"
     style="fill:none;stroke:#231f20;stroke-width:2;stroke-linecap:butt;stroke-linejoin:miter;stroke-miterlimit:4;stroke-dasharray:none;stroke-opacity:1"
     id="path312"
     inkscape:connector-curvature="0" /><path
     d="m 587.27344,-431.70605 c 11.32715,-5.14649 28.90136,-50.00098 17.16699,-63.33301"
     style="fill:none;stroke:#231f20;stroke-width:2;stroke-linecap:butt;stroke-linejoin:miter;stroke-miterlimit:4;stroke-dasharray:none;stroke-opacity:1"
     id="path314"
     inkscape:connector-curvature="0" /><path
     d="m 613.85645,-427.2627 c 10.38378,-0.64257 14.0166,-3.26757 19.43164,4.44434 4.125,5.875 16.75,8.625 25,1.625"
     style="fill:none;stroke:#231f20;stroke-width:2;stroke-linecap:butt;stroke-linejoin:miter;stroke-miterlimit:4;stroke-dasharray:none;stroke-opacity:1"
     id="path316"
     inkscape:connector-curvature="0" /><path
     d="m 639.78809,-422.31836 c 4,-6.875 11.24707,-13.90332 19.25,-5.75 6.625,6.75 13.88964,22.95508 1.5,31.125 -11.30274,7.45313 -45.08399,5.66016 -48.125,-4"
     style="fill:none;stroke:#231f20;stroke-width:2;stroke-linecap:butt;stroke-linejoin:miter;stroke-miterlimit:4;stroke-dasharray:none;stroke-opacity:1"
     id="path318"
     inkscape:connector-curvature="0" /><g
     id="g320"
     transform="scale(1,-1)"><text
   transform="matrix(1,0,0,-1,670.91211,419.73535)"
   style="font-variant:normal;font-weight:normal;font-size:12px;font-family:'Myriad Pro';-inkscape-font-specification:Myriad-Roman;writing-mode:lr-tb;fill:#231f20;fill-opacity:1;fill-rule:nonzero;stroke:none"
   id="text332"
   y="0"><tspan
     x="0 3.9719999"
     y="0"
     sodipodi:role="line"
     id="tspan322">t'</tspan><tspan
     x="-69.666 -65.694"
     y="27.99996"
     sodipodi:role="line"
     id="tspan324">t'</tspan><tspan
     x="-76.998962 -73.026962"
     y="-33.999001"
     sodipodi:role="line"
     id="tspan326">t'</tspan><tspan
     x="-95.999763 -92.027763"
     y="5.0000401"
     sodipodi:role="line"
     id="tspan328">t'</tspan><tspan
     x="-35.33292 -31.36092"
     y="-8.6669998"
     sodipodi:role="line"
     id="tspan330">t'</tspan></text>
<g
   id="g334"
   transform="scale(1,-1)"><path
     d="m 809.26953,-239.08398 c 31.66797,-32.83399 9.5,-111.33497 -49.16601,-96.00098"
     style="fill:none;stroke:#231f20;stroke-width:2;stroke-linecap:butt;stroke-linejoin:miter;stroke-miterlimit:4;stroke-dasharray:none;stroke-opacity:1"
     id="path336"
     inkscape:connector-curvature="0" /><path
     d="m 724.76953,-238.41797 c -2.66601,16 10.52735,24.42383 25.83985,24.42383 23.74023,0 40.39062,-6.06445 52.66015,-18.08984"
     style="fill:none;stroke:#231f20;stroke-width:2;stroke-linecap:butt;stroke-linejoin:miter;stroke-miterlimit:4;stroke-dasharray:none;stroke-opacity:1"
     id="path338"
     inkscape:connector-curvature="0" /><path
     d="m 784.70313,-329.89355 c -2.64454,19.40917 -45.47071,57.7998 -52.4336,68.14257 -5.83203,8.667 -4.66406,10.29493 -5.16601,12.667"
     style="fill:none;stroke:#231f20;stroke-width:2;stroke-linecap:butt;stroke-linejoin:miter;stroke-miterlimit:4;stroke-dasharray:none;stroke-opacity:1"
     id="path340"
     inkscape:connector-curvature="0" /><path
     d="m 771.20703,-314.56348 c -21.30664,-20.23632 -25.96875,-24.67773 -10.6543,-36.79297 8.7168,-6.8955 23.38477,-0.22851 24.38477,11.1045"
     style="fill:none;stroke:#231f20;stroke-width:2;stroke-linecap:butt;stroke-linejoin:miter;stroke-miterlimit:4;stroke-dasharray:none;stroke-opacity:1"
     id="path342"
     inkscape:connector-curvature="0" /><path
     d="m 761.9375,-242.91797 c 11.32617,-5.14648 28.90039,-50.00195 17.16602,-63.33398"
     style="fill:none;stroke:#231f20;stroke-width:2;stroke-linecap:butt;stroke-linejoin:miter;stroke-miterlimit:4;stroke-dasharray:none;stroke-opacity:1"
     id="path344"
     inkscape:connector-curvature="0" /><path
     d="m 748.10352,-331.91895 c -26.5,11 -54.66602,49.83497 -42.16602,71.00098 11.75781,19.91211 33.05664,23.31641 46.66602,20.83399"
     style="fill:none;stroke:#231f20;stroke-width:2;stroke-linecap:butt;stroke-linejoin:miter;stroke-miterlimit:4;stroke-dasharray:none;stroke-opacity:1"
     id="path346"
     inkscape:connector-curvature="0" /><path
     d="m 784.57617,-225.19922 c 0.83203,-11.29199 1.56055,-24.92187 -7.80664,-30.38476"
     style="fill:none;stroke:#231f20;stroke-width:2;stroke-linecap:butt;stroke-linejoin:miter;stroke-miterlimit:4;stroke-dasharray:none;stroke-opacity:1"
     id="path348"
     inkscape:connector-curvature="0" /><path
     d="m 788.51953,-238.47461 c 10.38477,-0.64258 19.50391,0.52441 20.19922,9.92188 1.26758,17.08886 -15.82227,28.48242 -22.15039,21.51953 -1.9668,-2.16309 -2.25977,-2.38184 -1.96484,-7.71778"
     style="fill:none;stroke:#231f20;stroke-width:2;stroke-linecap:butt;stroke-linejoin:miter;stroke-miterlimit:4;stroke-dasharray:none;stroke-opacity:1"
     id="path350"
     inkscape:connector-curvature="0" /><path
     d="m 767.58008,-258.93164 c -8.22656,-1.89844 -17.08789,20.88476 -3.16406,22.15137 4.99414,0.4541 8.9375,-0.1084 15.85351,-0.80371"
     style="fill:none;stroke:#231f20;stroke-width:2;stroke-linecap:butt;stroke-linejoin:miter;stroke-miterlimit:4;stroke-dasharray:none;stroke-opacity:1"
     id="path352"
     inkscape:connector-curvature="0" /><g
     id="g354"
     transform="scale(1,-1)"><text
   transform="matrix(1,0,0,-1,789.2417,339.45215)"
   style="font-variant:normal;font-weight:normal;font-size:12px;font-family:'Myriad Pro';-inkscape-font-specification:Myriad-Roman;writing-mode:lr-tb;fill:#231f20;fill-opacity:1;fill-rule:nonzero;stroke:none"
   id="text358"
   y="0"><tspan
     x="0 3.9719999"
     y="0"
     sodipodi:role="line"
     id="tspan356">t'</tspan></text>
<text
   transform="matrix(1,0,0,-1,783.57471,307.11816)"
   style="font-variant:normal;font-weight:normal;font-size:12px;font-family:'Myriad Pro';-inkscape-font-specification:Myriad-Roman;writing-mode:lr-tb;fill:#231f20;fill-opacity:1;fill-rule:nonzero;stroke:none"
   id="text364"
   y="-29.66688"><tspan
     x="0"
     y="0"
     id="tspan360">t</tspan><tspan
     x="-44.000038 -40.028042"
     y="-29.66688"
     sodipodi:role="line"
     id="tspan362">t'</tspan></text>
<text
   transform="matrix(1,0,0,-1,717.57471,253.45215)"
   style="font-variant:normal;font-weight:normal;font-size:12px;font-family:'Myriad Pro';-inkscape-font-specification:Myriad-Roman;writing-mode:lr-tb;fill:#231f20;fill-opacity:1;fill-rule:nonzero;stroke:none"
   id="text368"><tspan
     x="0"
     y="0"
     id="tspan366">t</tspan></text>
<text
   transform="matrix(1,0,0,-1,787.2417,244.11816)"
   style="font-variant:normal;font-weight:normal;font-size:12px;font-family:'Myriad Pro';-inkscape-font-specification:Myriad-Roman;writing-mode:lr-tb;fill:#231f20;fill-opacity:1;fill-rule:nonzero;stroke:none"
   id="text372"><tspan
     x="0"
     y="0"
     id="tspan370">t</tspan></text>
<text
   transform="matrix(1,0,0,-1,812.57471,229.78613)"
   style="font-variant:normal;font-weight:normal;font-size:12px;font-family:'Myriad Pro';-inkscape-font-specification:Myriad-Roman;writing-mode:lr-tb;fill:#231f20;fill-opacity:1;fill-rule:nonzero;stroke:none"
   id="text376"><tspan
     x="0"
     y="0"
     id="tspan374">t</tspan></text>
<text
   transform="matrix(1,0,0,-1,789.2417,210.78613)"
   style="font-variant:normal;font-weight:normal;font-size:12px;font-family:'Myriad Pro';-inkscape-font-specification:Myriad-Roman;writing-mode:lr-tb;fill:#231f20;fill-opacity:1;fill-rule:nonzero;stroke:none"
   id="text380"><tspan
     x="0"
     y="0"
     id="tspan378">t</tspan></text>
<text
   transform="matrix(1,0,0,-1,770.2417,262.4502)"
   style="font-variant:normal;font-weight:normal;font-size:12px;font-family:'Myriad Pro';-inkscape-font-specification:Myriad-Roman;writing-mode:lr-tb;fill:#231f20;fill-opacity:1;fill-rule:nonzero;stroke:none"
   id="text384"><tspan
     x="0"
     y="0"
     id="tspan382">t</tspan></text>
<text
   transform="matrix(1,0,0,-1,751.2417,229.45215)"
   style="font-variant:normal;font-weight:normal;font-size:12px;font-family:'Myriad Pro';-inkscape-font-specification:Myriad-Roman;writing-mode:lr-tb;fill:#231f20;fill-opacity:1;fill-rule:nonzero;stroke:none"
   id="text388"><tspan
     x="0"
     y="0"
     id="tspan386">t</tspan></text>
</g></g></g></g></g></g></g></g></g></g></g></g></g></g></g></g></g></svg>
