<?xml version="1.0" encoding="UTF-8" standalone="no"?>
<svg
   xmlns:dc="http://purl.org/dc/elements/1.1/"
   xmlns:cc="http://creativecommons.org/ns#"
   xmlns:rdf="http://www.w3.org/1999/02/22-rdf-syntax-ns#"
   xmlns:svg="http://www.w3.org/2000/svg"
   xmlns="http://www.w3.org/2000/svg"
   xmlns:sodipodi="http://sodipodi.sourceforge.net/DTD/sodipodi-0.dtd"
   xmlns:inkscape="http://www.inkscape.org/namespaces/inkscape"
   version="1.1"
   id="svg7080"
   xml:space="preserve"
   width="182.46936"
   height="221.6028"
   viewBox="0 0 182.46936 221.60281"
   sodipodi:docname="tournure4.svg"
   inkscape:version="1.0.2-2 (e86c870879, 2021-01-15)"><metadata
     id="metadata7086"><rdf:RDF><cc:Work
         rdf:about=""><dc:format>image/svg+xml</dc:format><dc:type
           rdf:resource="http://purl.org/dc/dcmitype/StillImage" /><dc:title></dc:title></cc:Work></rdf:RDF></metadata><defs
     id="defs7084" /><sodipodi:namedview
     pagecolor="#ffffff"
     bordercolor="#666666"
     borderopacity="1"
     objecttolerance="10"
     gridtolerance="10"
     guidetolerance="10"
     inkscape:pageopacity="0"
     inkscape:pageshadow="2"
     inkscape:window-width="1920"
     inkscape:window-height="1001"
     id="namedview7082"
     showgrid="false"
     inkscape:zoom="0.60756175"
     inkscape:cx="194.99274"
     inkscape:cy="355.39319"
     inkscape:window-x="-9"
     inkscape:window-y="-9"
     inkscape:window-maximized="1"
     inkscape:current-layer="g7088"
     inkscape:document-rotation="0"
     fit-margin-top="10"
     fit-margin-left="10"
     fit-margin-right="10"
     fit-margin-bottom="10" /><g
     id="g7088"
     inkscape:groupmode="layer"
     inkscape:label="tournure4"
     transform="matrix(1.3333333,0,0,-1.3333333,-201.85763,916.65306)"><g
       id="g7090"
       transform="scale(1,-1)"><path
         d="m 265.79102,-564.40918 c 31.66796,-32.83398 9.5,-111.33447 -49.16602,-96.00098"
         style="fill:none;stroke:#231f20;stroke-width:1;stroke-linecap:butt;stroke-linejoin:miter;stroke-miterlimit:4;stroke-dasharray:none;stroke-opacity:1"
         id="path7092" /><path
         d="m 181.2915,-563.74316 c -2.6665,16 10.52588,24.42382 25.83936,24.42382 23.73975,0 40.39062,-6.06445 52.66016,-18.08984"
         style="fill:none;stroke:#231f20;stroke-width:1;stroke-linecap:butt;stroke-linejoin:miter;stroke-miterlimit:4;stroke-dasharray:none;stroke-opacity:1"
         id="path7094" /><path
         d="m 241.22412,-655.21826 c -2.64502,19.40918 -45.47119,57.79931 -52.43262,68.14111 -5.83349,8.66797 -4.66552,10.29492 -5.1665,12.66797"
         style="fill:none;stroke:#231f20;stroke-width:1;stroke-linecap:butt;stroke-linejoin:miter;stroke-miterlimit:4;stroke-dasharray:none;stroke-opacity:1"
         id="path7096" /><path
         d="m 227.729,-639.88818 c -21.3081,-20.23633 -25.96923,-24.67774 -10.65429,-36.79297 8.71679,-6.89551 23.38379,-0.22901 24.38379,11.10449"
         style="fill:none;stroke:#231f20;stroke-width:1;stroke-linecap:butt;stroke-linejoin:miter;stroke-miterlimit:4;stroke-dasharray:none;stroke-opacity:1"
         id="path7098" /><path
         d="m 218.45801,-568.24316 c 11.32715,-5.14649 28.90137,-50.00147 17.16699,-63.3335"
         style="fill:none;stroke:#231f20;stroke-width:1;stroke-linecap:butt;stroke-linejoin:miter;stroke-miterlimit:4;stroke-dasharray:none;stroke-opacity:1"
         id="path7100" /><path
         d="m 204.625,-657.24365 c -26.5,11 -54.66699,49.83349 -42.16699,71.00049 11.75928,19.91211 33.05762,23.3164 46.66699,20.83398"
         style="fill:none;stroke:#231f20;stroke-width:1;stroke-linecap:butt;stroke-linejoin:miter;stroke-miterlimit:4;stroke-dasharray:none;stroke-opacity:1"
         id="path7102" /><path
         d="m 241.54199,-548.15918 c 0.83057,-11.29297 1.11572,-27.28711 -8.25049,-32.75"
         style="fill:none;stroke:#231f20;stroke-width:3;stroke-linecap:butt;stroke-linejoin:miter;stroke-miterlimit:4;stroke-dasharray:none;stroke-opacity:1"
         id="path7104" /><path
         d="m 245.04102,-563.7998 c 10.38378,-0.64258 19.5039,0.52343 20.19921,9.92187 1.26661,17.08789 -15.82226,28.48145 -22.15136,21.51855 -1.96631,-2.16308 -2.2583,-2.38183 -1.96387,-7.71777"
         style="fill:none;stroke:#231f20;stroke-width:3;stroke-linecap:butt;stroke-linejoin:miter;stroke-miterlimit:4;stroke-dasharray:none;stroke-opacity:1"
         id="path7106" /><path
         d="m 224.10156,-584.25781 c -8.22754,-1.89844 -17.08886,20.88574 -3.16455,22.15136 4.99463,0.45508 8.9375,-0.10742 15.85449,-0.80273"
         style="fill:none;stroke:#231f20;stroke-width:3;stroke-linecap:butt;stroke-linejoin:miter;stroke-miterlimit:4;stroke-dasharray:none;stroke-opacity:1"
         id="path7108" /><path
         d="m 245.38232,-627.56787 c 3.75,-3.26856 15.25049,-10.02197 6.50098,-11.11231 -8.75098,-1.08886 -5.25049,4.57715 -4.25098,5.66602"
         style="fill:none;stroke:#231f20;stroke-width:1;stroke-linecap:butt;stroke-linejoin:miter;stroke-miterlimit:4;stroke-dasharray:none;stroke-opacity:1"
         id="path7110" /><path
         d="m 251.38232,-629.09229 c 1.5,1.52442 2.00098,2.83155 2.75098,3.48536"
         style="fill:none;stroke:#231f20;stroke-width:1;stroke-linecap:butt;stroke-linejoin:miter;stroke-miterlimit:4;stroke-dasharray:none;stroke-opacity:1"
         id="path7112" /><path
         d="m 247.76367,-572.41504 c 3.75,-3.26758 15.25,-10.02148 6.5,-11.11133 -8.75,-1.08984 -5.25,4.57617 -4.25,5.66602"
         style="fill:none;stroke:#231f20;stroke-width:1;stroke-linecap:butt;stroke-linejoin:miter;stroke-miterlimit:4;stroke-dasharray:none;stroke-opacity:1"
         id="path7114" /><path
         d="m 253.76367,-573.93848 c 1.5,1.52344 2,2.83106 2.75,3.48438"
         style="fill:none;stroke:#231f20;stroke-width:1;stroke-linecap:butt;stroke-linejoin:miter;stroke-miterlimit:4;stroke-dasharray:none;stroke-opacity:1"
         id="path7116" /><g
         id="g7118"
         transform="scale(1,-1)"><text
           transform="matrix(1,0,0,-1,162.69629,644.89014)"
           style="font-variant:normal;font-weight:normal;font-size:12px;font-family:Myriad;-inkscape-font-specification:Myriad-Roman;writing-mode:lr-tb;fill:#231f20;fill-opacity:1;fill-rule:nonzero;stroke:none"
           id="text7122"><tspan
             x="0"
             y="0"
             id="tspan7120">p</tspan></text><text
           transform="matrix(1,0,0,-1,272.59521,535.08057)"
           style="font-variant:normal;font-weight:normal;font-size:12px;font-family:Myriad;-inkscape-font-specification:Myriad-Roman;writing-mode:lr-tb;fill:#231f20;fill-opacity:1;fill-rule:nonzero;stroke:none"
           id="text7126"><tspan
             x="0"
             y="0"
             id="tspan7124">q</tspan></text></g></g></g></svg>
